<?xml version="1.0" standalone="no"?>
<!DOCTYPE svg PUBLIC "-//W3C//DTD SVG 20010904//EN"
 "http://www.w3.org/TR/2001/REC-SVG-20010904/DTD/svg10.dtd">
<svg version="1.0" xmlns="http://www.w3.org/2000/svg"
 width="700.000000pt" height="700.000000pt" viewBox="0 0 700.000000 700.000000"
 preserveAspectRatio="xMidYMid meet">
<metadata>
Created by potrace 1.14, written by Peter Selinger 2001-2017
</metadata>
<g transform="translate(0.000000,700.000000) scale(0.100000,-0.100000)"
fill="#000000" stroke="none">
<path d="M50 5792 l0 -1068 163 -214 c89 -118 268 -354 398 -525 246 -325 461
-608 595 -785 43 -58 81 -107 84 -110 3 -3 17 -21 30 -40 13 -19 27 -37 30
-40 3 -3 68 -88 145 -190 77 -102 143 -189 148 -195 4 -5 42 -55 83 -110 41
-55 80 -107 87 -115 7 -8 46 -60 87 -115 41 -55 77 -102 80 -105 3 -3 39 -50
80 -105 41 -55 77 -102 80 -105 3 -3 37 -48 75 -100 38 -52 72 -97 75 -100 4
-3 69 -88 146 -190 76 -102 144 -192 151 -200 7 -8 65 -85 129 -170 266 -352
299 -395 304 -400 3 -3 44 -57 91 -120 80 -107 348 -462 366 -485 5 -5 20 -25
35 -43 l27 -32 70 92 c38 51 126 167 195 258 70 91 204 269 300 395 95 127
211 280 258 340 46 61 169 223 273 360 104 138 241 318 303 400 63 83 172 227
243 320 71 94 219 289 330 435 111 146 259 342 330 435 293 387 431 569 550
725 69 91 197 260 284 375 88 116 185 243 217 284 l58 74 0 1068 c0 588 -1
1069 -2 1069 -4 0 -57 -69 -304 -395 -112 -148 -240 -317 -284 -375 -78 -102
-263 -346 -1185 -1561 -681 -898 -687 -906 -890 -1174 -187 -247 -586 -773
-692 -912 l-55 -73 -104 138 c-56 75 -107 142 -111 147 -9 10 -398 523 -657
865 -77 102 -174 230 -216 285 -42 55 -112 147 -156 205 -43 58 -159 211 -257
340 -98 129 -188 248 -200 264 -12 15 -105 137 -205 270 -101 132 -230 302
-285 376 -56 74 -104 137 -107 140 -3 3 -66 86 -141 185 -75 99 -239 316 -365
482 -126 165 -330 434 -453 597 -123 163 -226 296 -228 296 -1 0 -3 -481 -3
-1068z"/>
<path d="M50 1313 l0 -1268 647 0 646 1 0 415 0 416 -95 124 c-52 68 -147 194
-212 279 -64 85 -123 163 -131 172 -8 10 -74 98 -147 195 -73 98 -141 187
-150 198 -9 11 -100 130 -202 265 -102 135 -189 250 -194 256 -5 6 -44 56 -86
113 l-76 102 0 -1268z"/>
<path d="M6869 2377 c-64 -86 -895 -1183 -1136 -1498 l-73 -97 0 -366 c0 -201
3 -366 8 -367 4 -1 294 -2 645 -3 l637 -1 0 1218 c0 669 -1 1217 -2 1216 -2 0
-37 -46 -79 -102z"/>
</g>
</svg>
