<svg version="1" xmlns="http://www.w3.org/2000/svg" width="933.333" height="933.333" viewBox="0 0 700.000000 700.000000"><path d="M.4 90c.4 48.1.9 99.6 1.2 114.5.5 32 1.3 75.5 1.3 77.1.1.7 4.4 6.1 9.7 12 14.8 16.7 22.7 25.6 24.9 28 1.1 1.2 3.3 3.7 4.9 5.5 1.7 1.9 6.6 7.4 11 12.4 4.4 4.9 8.5 9.6 9.1 10.2.5.7 2.6 3 4.5 5.1 1.9 2.1 6.2 6.9 9.5 10.7 3.3 3.8 6.5 7.3 7 7.9 2.7 2.9 33.8 38 39.5 44.6 3.6 4.1 7.4 8.4 8.5 9.5 1.1 1.1 3.6 3.8 5.4 6 2.7 3.2 12.6 14.3 18.6 20.9 4.9 5.4 13.4 15.8 19.3 23.6 4 5.2 7.5 9.9 8 10.5.4.5 5.7 7.5 11.7 15.5 6 8 11.5 15.2 12.2 16 1.1 1.4 32.8 42.9 37.6 49.4 1.2 1.6 5.6 7.3 9.7 12.7 4.1 5.3 14 18.3 22 28.9 8 10.6 21.5 28.3 30 39.5s20.5 26.9 26.5 34.9l11 14.5h6.5c5.9 0 6.7-.3 8.6-2.7 1.1-1.5 9.2-12.1 17.9-23.7 8.8-11.6 16.3-21.5 16.8-22 .4-.6 12.1-15.9 25.8-34 13.8-18.2 26-34.1 27-35.5 1.1-1.4 10.2-13.3 20.2-26.5s24.1-31.7 31.2-41c7.1-9.4 18.4-24.3 25.2-33.3L535 465l.1 4.7c.1 7.2.8 90.8 1.3 160.8.3 34.1.5 63.7.5 65.7l.1 3.8h163V355c0-229.3-.3-345-1-345-.5 0-1 .3-1 .7 0 .5-1.3 2.4-2.9 4.3-2.3 2.7-37 46.7-51.3 65.1-9.2 11.8-20.1 25.6-21.1 26.9-.8.9-6.2 7.9-12.2 15.5-6 7.7-12.9 16.5-15.3 19.5-2.4 3-5.5 6.8-6.8 8.5-9.3 11.9-12.3 15.6-14.9 19-1.6 2.1-5.7 7.2-9 11.4S552 196.8 544 207c-7.9 10.2-15 19.2-15.7 20-.7.8-8.8 11.2-18.1 23-16.4 20.8-126.9 161.5-131.6 167.5-1.4 1.6-6.3 7.9-11 14-4.8 6-9.2 11.7-9.9 12.5-.7.8-2.5 3.2-4.1 5.2-1.6 2.1-3.2 3.8-3.6 3.8-.4 0-2.7-2.6-5.1-5.7-3.8-5-28.9-37.4-35.4-45.8-1.3-1.7-6.2-8-10.9-14-4.7-6.1-8.9-11.5-9.4-12-1-1.2-48.3-62.2-53.1-68.5-1.9-2.5-5.1-6.6-7-9.1-2-2.5-6.5-8.4-10.1-13-3.5-4.6-7-9.1-7.7-9.9-.7-.8-12-15.3-25-32.2-13.1-16.8-29.6-38.1-36.8-47.3-7.1-9.2-14.8-19.1-17-21.9-2.2-2.9-7.6-9.9-12-15.5-4.4-5.7-8.9-11.5-10-13-5-6.5-55.8-71.9-57.9-74.6-1.4-1.7-5.2-6.6-8.6-11-3.3-4.4-7.2-9.4-8.5-11-1.3-1.7-9.8-12.7-19-24.5L-.3 2.5.4 90z"/><path d="M2.4 328.3c-.1 21-.5 82.7-.8 137.2C1.2 520 .7 595 .5 632.2L0 700h163l.1-3.3c.1-6.3 1-130.1 1.3-175.6.1-32.3-.1-46.7-.9-47.5-.6-.6-4.4-4.9-8.4-9.6-4.1-4.7-10-11.4-13.1-15-3.2-3.6-18.7-21.4-34.5-39.5-15.8-18.2-31.3-35.9-34.4-39.4-3.1-3.5-7.2-8.2-9.2-10.5-3.9-4.4-23.5-26.9-28.4-32.5-1.7-1.9-3.7-4.2-4.5-5.1-.8-.9-4-4.5-7-8.1-3-3.5-6.5-7.5-7.8-8.9-1.2-1.4-4.6-5.3-7.5-8.7-2.8-3.4-5.4-6.2-5.7-6.2-.3-.1-.6 17.1-.6 38.2z"/></svg>