<?xml version="1.0" standalone="no"?>
<!DOCTYPE svg PUBLIC "-//W3C//DTD SVG 1.1//EN" "http://www.w3.org/Graphics/SVG/1.1/DTD/svg11.dtd" >
<svg>
<metadata>
Created by FontForge 20090914 at Wed May  2 17:46:43 2018
 By www-data
Copyright (c) 2014 Indian Type Foundry (info@indiantypefoundry.com)
</metadata>
<defs>
<font id="Rajdhani-Light" horiz-adv-x="230" >
  <font-face 
    font-family="Rajdhani Light"
    font-weight="300"
    font-stretch="normal"
    units-per-em="1000"
    panose-1="2 0 0 0 0 0 0 0 0 0"
    ascent="800"
    descent="-200"
    x-height="510"
    cap-height="643"
    bbox="-404 -305.998 2018 877.001"
    underline-thickness="50"
    underline-position="-50"
    unicode-range="U+000D-U+F6C3"
  />
<missing-glyph horiz-adv-x="600" 
d="M170 536v-490h260v490h-260zM120 0v582h360v-582h-360z" />
    <glyph glyph-name=".notdef" horiz-adv-x="600" 
d="M170 536v-490h260v490h-260zM120 0v582h360v-582h-360z" />
    <glyph glyph-name="NULL" horiz-adv-x="0" 
 />
    <glyph glyph-name="NULL" horiz-adv-x="0" 
 />
    <glyph glyph-name="CR" unicode="&#xd;" horiz-adv-x="0" 
 />
    <glyph glyph-name="space" unicode=" " horiz-adv-x="280" 
 />
    <glyph glyph-name="exclam" unicode="!" horiz-adv-x="237" 
d="M100 550l-0.000976562 84c0 6 2.66699 9 8 9h21c5.33301 0 8 -3 8 -9v-84c0 -59.333 -1.16699 -127 -3.5 -203s-4.33301 -119 -6 -129s-4.16699 -15 -7.5 -15h-4c-3.33301 0 -5.66602 3.66699 -6.99902 11c-6 44 -9 156 -9 336zM134.999 128v-119c0 -6 -2.66699 -9 -8 -9
h-17c-5.33301 0 -8 3 -8 9v119c0 6 2.66699 9 8 9h17c5.33301 0 8 -3 8 -9z" />
    <glyph glyph-name="quotedbl" unicode="&#x22;" horiz-adv-x="324" 
d="M89 441h-3c-6 0 -9 3.33301 -9 10l-7 182c0 6.66699 3 10 9 10h17c6 0 9 -3.33301 9 -10l-7 -182c0 -6.66699 -3 -10 -9 -10zM238 441h-3c-6 0 -9 3.33301 -9 10l-7 182c0 6.66699 3 10 9 10h17c6 0 9 -3.33301 9 -10l-7 -182c0 -6.66699 -3 -10 -9 -10z" />
    <glyph glyph-name="numbersign" unicode="#" horiz-adv-x="679" 
d="M610 470c6 0 9.00195 -2.66699 9.00195 -8v-12c0 -5.33301 -3 -8 -9 -8h-102l-69 -241h100c6 0 9 -2.66699 9 -8v-12c0 -5.33301 -3 -8 -9 -8h-108l-47 -162c-2 -7.33301 -6 -11 -12 -11h-11c-6 0 -7.66699 5 -5 15l46 158h-210l-47 -162c-2 -7.33301 -6 -11 -12 -11h-11
c-6.66699 0 -8.33398 5 -5.00098 15l46 158h-94c-6 0 -9 2.66699 -9 8v12c0 5.33301 3 8 9 8h102l69 241h-100c-6 0 -9 2.66699 -9 8v12c0 5.33301 3 8 9 8h108l47 162c2 7.33301 6.33301 11 13 11h8c8 0 10.333 -5 7 -15l-46 -158h210l47 162c2 7.33301 6.33301 11 13 11h8
c7.33301 0 9.66602 -5 6.99902 -15l-46 -158h94zM410.002 201l69 241h-210l-69 -241h210z" />
    <glyph glyph-name="dollar" unicode="$" horiz-adv-x="498" 
d="M270 -98h-14c-5.33301 0 -8 3 -8 9v89h-39c-40.667 -0 -73.167 12.333 -97.5 37s-36.5 57.667 -36.5 99v34c0 6 2.66699 9 8 9h14c5.33301 0 8 -3 8 -9v-33c0 -34 9 -60.667 27 -80s43.667 -29 77 -29h80c33.333 0 59 9.66699 77 29s27 46 27 80v71
c0 38 -8.66699 64.833 -26 80.5s-44 23.5 -80 23.5h-72c-44.667 0 -79.167 9.5 -103.5 28.5s-36.5 52.167 -36.5 99.5v69c0 41.333 12.167 74.333 36.5 99s56.833 37 97.5 37h39v89c0 6 2.66699 9 8 9h14c5.33301 0 8 -3 8 -9v-89h11c40.667 0 73.167 -12.333 97.5 -37
s36.5 -57.667 36.5 -99v-30c0 -6 -2.66699 -9 -8 -9h-14c-5.33301 0 -8 3 -8 9v29c0 34 -9 60.667 -27 80s-43.667 29 -77 29h-80c-33.333 0 -59 -9.66699 -77 -29s-27 -46 -27 -80v-68c0 -37.333 8.33301 -63.5 25 -78.5s43 -22.5 79 -22.5h81c88.667 0 133 -43 133 -129
v-74c0 -41.333 -12.167 -74.333 -36.5 -99s-56.833 -37 -97.5 -37h-11v-89c0 -6 -2.66699 -9 -8 -9z" />
    <glyph glyph-name="percent" unicode="%" horiz-adv-x="711" 
d="M545 265h-16c-32.667 0 -55.334 -7 -68.001 -21s-19 -38.333 -19 -73v-48c0 -34.667 6.33301 -59.167 19 -73.5s35.334 -21.5 68.001 -21.5h16c32.667 0 55.167 7.16699 67.5 21.5s18.5 38.833 18.5 73.5v48c0 34.667 -6.16699 59 -18.5 73s-34.833 21 -67.5 21zM529 293
h15.999c40 0 69.333 -9.66699 88 -29s28 -50 28 -92v-50c0 -42 -9.33301 -72.833 -28 -92.5s-48 -29.5 -88 -29.5h-16c-40 -0 -69.5 9.83301 -88.5 29.5s-28.5 50.5 -28.5 92.5v50c0 41.333 9.33301 71.833 28 91.5s48.334 29.5 89.001 29.5zM182.999 620h-16
c-32.667 0 -55.334 -7 -68.001 -21s-19 -38.333 -19 -73v-48c0 -34.667 6.33301 -59.167 19 -73.5s35.334 -21.5 68.001 -21.5h16c32.667 0 55.167 7.16699 67.5 21.5s18.5 38.833 18.5 73.5v48c0 34.667 -6.16699 59 -18.5 73s-34.833 21 -67.5 21zM166.999 648h15.999
c40 0 69.333 -9.66699 88 -29s28 -50 28 -92v-50c0 -42 -9.33301 -72.833 -28 -92.5s-48 -29.5 -88 -29.5h-16c-40 0 -69.5 9.83301 -88.5 29.5s-28.5 50.5 -28.5 92.5v50c0 41.333 9.33301 71.833 28 91.5s48.334 29.5 89.001 29.5zM218.998 0h-9.99902
c-6.66699 0 -8.33398 4 -5.00098 12l275 620c3.33301 7.33301 7.66602 11 12.999 11h10c6.66699 0 8 -4.66699 4 -14l-274 -618c-3.33301 -7.33301 -7.66602 -11 -12.999 -11z" />
    <glyph glyph-name="ampersand" unicode="&#x26;" horiz-adv-x="592" 
d="M299 0l-84.999 0.00195312c-40.667 0 -73.167 11.833 -97.5 35.5s-36.5 56.167 -36.5 97.5v92c0 33.333 8.66699 62.166 26 86.499s44.333 36.833 81 37.5c-32 38 -48 77.333 -48 118v43c0 41.333 12.167 73.833 36.5 97.5s56.833 35.5 97.5 35.5h22
c40.667 0 73.167 -11.833 97.5 -35.5s36.5 -56.167 36.5 -97.5v-49c0 -6 -2.66699 -9 -8 -9h-14c-5.33301 0 -8 3 -8 9v48c0 34 -9 60.167 -27 78.5s-43.667 27.5 -77 27.5h-22c-33.333 0 -59 -9.16699 -77 -27.5s-27 -44.5 -27 -78.5v-41c0 -22 3 -40.5 9 -55.5
s17.333 -31.5 34 -49.5l67 -77h244c6 0 9 -2.66699 9 -8v-12c0 -5.33301 -3 -8 -9 -8h-220l218 -252c1.33301 -2.66699 0.666016 -4.66699 -2.00098 -6h-19c-4.66699 0 -9 2 -13 6l-63 72c-8.66699 -24.667 -24 -43.834 -46 -57.501s-48.333 -20.5 -79 -20.5z
M214.001 28.002h85c58 0 91.667 25.667 101 77l-196 225c-30.667 -2 -54 -12.167 -70 -30.5s-24 -43.5 -24 -75.5v-90c0 -34 9 -60.167 27 -78.5s43.667 -27.5 77 -27.5z" />
    <glyph glyph-name="quotesingle" unicode="'" horiz-adv-x="185" 
d="M94 441h-3c-6 0 -9 3.33301 -9 10l-7 182c0 6.66699 3 10 9 10h17c6 0 9 -3.33301 9 -10l-7 -182c-2 -6.66699 -5 -10 -9 -10z" />
    <glyph glyph-name="parenleft" unicode="(" horiz-adv-x="277" 
d="M207 635v-12c0 -5.33301 -3 -8 -9 -8h-4c-33.333 0 -59 -9.66699 -77 -29s-27 -46 -27 -80v-471c0 -34 9 -60.667 27 -80s43.667 -29 77 -29h4c6 0 9 -2.66699 9 -8v-12c0 -5.33301 -3 -8 -9 -8h-4c-40.667 0 -73.167 12.333 -97.5 37s-36.5 57.667 -36.5 99v473
c0 41.333 12.167 74.333 36.5 99s56.833 37 97.5 37h4c6 0 9 -2.66699 9 -8z" />
    <glyph glyph-name="parenright" unicode=")" horiz-adv-x="277" 
d="M60 -94v12c0 5.33301 3 8 9 8h4c33.333 0 59 9.66699 77 29s27 46 27 80v471c0 34 -9 60.667 -27 80s-43.667 29 -77 29h-4c-6 0 -9 2.66699 -9 8v12c0 5.33301 3 8 9 8h4c40.667 0 73.167 -12.333 97.5 -37s36.5 -57.667 36.5 -99v-473
c0 -41.333 -12.167 -74.333 -36.5 -99s-56.833 -37 -97.5 -37h-4c-6 0 -9 2.66699 -9 8z" />
    <glyph glyph-name="asterisk" unicode="*" horiz-adv-x="408" 
d="M189 617l0.00488281 16.999c0 6 2.66699 9 8 9h15c5.33301 0 8 -3 8 -9v-17c0 -49.333 -5.33301 -84.666 -16 -105.999c28 21.333 66 38.666 114 51.999c5.33301 2 8.66602 0.333008 9.99902 -5l4 -14c2.66699 -5.33301 0.666992 -9 -6 -11l-17 -5
c-49.333 -15.333 -84.333 -21 -105 -17c27.333 -20 52 -45.667 74 -77l11 -15c3.33301 -3.33301 2.66602 -7 -2.00098 -11l-12 -8c-4.66699 -3.33301 -8.66699 -2.66602 -12 2.00098c-36.667 51.333 -56.334 87.666 -59.001 108.999
c-12 -33.333 -32.333 -69.666 -61 -108.999c-2.66699 -4 -6.33398 -4.66699 -11.001 -2l-12 9c-4.66699 2 -5 6 -1 12c18.667 26 35.5 46.5 50.5 61.5s26.5 24.5 34.5 28.5c-36 0 -76.667 8 -122 24c-6 2 -8 5.33301 -6 10l5 14c1.33301 5.33301 5 7 11 5
c57.333 -18 94.666 -35.667 111.999 -53c-10 28 -15 63.333 -15 106z" />
    <glyph glyph-name="plus" unicode="+" horiz-adv-x="512" 
d="M271 335h162c6 0 9 -2.66699 9 -8v-12c0 -5.33301 -3 -8 -9 -8h-162v-163c0 -6 -2.66699 -9 -8 -9h-14c-5.33301 0 -8 3 -8 9v163h-162c-6 0 -9 2.66699 -9 8v12c0 5.33301 3 8 9 8h162v163c0 6 2.66699 9 8 9h14c5.33301 0 8 -3 8 -9v-163z" />
    <glyph glyph-name="comma" unicode="," horiz-adv-x="187" 
d="M112 128v-79c0 -10 -8.66699 -58 -26 -144c-1.33301 -4 -3.5 -6 -6.5 -6s-4.5 2 -4.5 6v223c0 6 2.66699 9 8 9h21c5.33301 0 8 -3 8 -9z" />
    <glyph glyph-name="hyphen" unicode="-" horiz-adv-x="312" 
d="M263 306h-214c-6 0 -9 2.66699 -9 8v12c0 5.33301 3 8 9 8h214c6 0 9 -2.66699 9 -8v-12c0 -5.33301 -3 -8 -9 -8z" />
    <glyph glyph-name="period" unicode="." horiz-adv-x="187" 
d="M112 128v-119c0 -6 -2.66699 -9 -8 -9h-21c-5.33301 0 -8 3 -8 9v119c0 6 2.66699 9 8 9h21c5.33301 0 8 -3 8 -9z" />
    <glyph glyph-name="slash" unicode="/" horiz-adv-x="393" 
d="M92 0h-12.999c-8.66699 0 -11.334 4 -8.00098 12l218 620c2.66699 7.33301 7 11 13 11h14c7.33301 0 9.33301 -4.66699 6 -14l-217 -618c-2.66699 -7.33301 -7 -11 -13 -11z" />
    <glyph glyph-name="zero" unicode="0" horiz-adv-x="508" 
d="M204 28h100c33.333 0 59 9.66699 77 29s27 46 27 80v369c0 34 -9 60.667 -27 80s-43.667 29 -77 29h-100c-33.333 0 -59 -9.66699 -77 -29s-27 -46 -27 -80v-369c0 -34 9 -60.667 27 -80s43.667 -29 77 -29zM304 0h-100c-40.667 -0 -73.167 12.333 -97.5 37
s-36.5 57.667 -36.5 99v371c0 41.333 12.167 74.333 36.5 99s56.833 37 97.5 37h100c40.667 0 73.167 -12.333 97.5 -37s36.5 -57.667 36.5 -99v-371c0 -41.333 -12.167 -74.333 -36.5 -99s-56.833 -37 -97.5 -37z" />
    <glyph glyph-name="one" unicode="1" horiz-adv-x="312" 
d="M40 538v5.99902c0 8.66699 3.66699 15 11 19l135 75c6.66699 3.33301 12 5 16 5h12c5.33301 0 8 -3 8 -9v-625c0 -6 -2.66699 -9 -8 -9h-14c-5.33301 0 -8 3 -8 9v601l-136 -77c-10.667 -7.33301 -16 -5.66602 -16 5.00098z" />
    <glyph glyph-name="two" unicode="2" horiz-adv-x="474" 
d="M64 8v86c0 50 21 90 63 120l200 149c35.333 26 53 61 53 105v41c0 34 -9 60.167 -27 78.5s-43.667 27.5 -77 27.5h-82c-33.333 0 -59 -9.16699 -77 -27.5s-27 -44.5 -27 -78.5v-48c0 -6 -2.66699 -9 -8 -9h-14c-5.33301 0 -8 3 -8 9v49c0 41.333 12.167 73.833 36.5 97.5
s56.833 35.5 97.5 35.5h82c40.667 0 73.167 -11.833 97.5 -35.5s36.5 -56.167 36.5 -97.5v-43c0 -52 -21.333 -93.667 -64 -125l-202 -151c-33.333 -25.333 -50 -56.333 -50 -93v-70h311c6 0 9 -2.66699 9 -8v-12c0 -5.33301 -3 -8 -9 -8h-332c-6 0 -9 2.66699 -9 8z" />
    <glyph glyph-name="three" unicode="3" horiz-adv-x="493" 
d="M227 338l62 0.00195312c33.333 0 59 9.16699 77 27.5s27 44.5 27 78.5v65c0 34 -9 60.167 -27 78.5s-43.667 27.5 -77 27.5h-85c-33.333 0 -59 -9.16699 -77 -27.5s-27 -44.5 -27 -78.5v-38c0 -6 -2.66699 -9 -8 -9h-14c-5.33301 0 -8 3 -8 9v39
c0 41.333 12.167 73.833 36.5 97.5s56.833 35.5 97.5 35.5h85c40.667 0 73.167 -11.833 97.5 -35.5s36.5 -56.167 36.5 -97.5v-67c0 -62.667 -28 -102.334 -84 -119.001c56 -14.667 84 -54.334 84 -119.001v-72c0 -41.333 -12.167 -73.833 -36.5 -97.5
s-56.833 -35.5 -97.5 -35.5h-85c-40.667 -0 -73.167 11.833 -97.5 35.5s-36.5 56.167 -36.5 97.5v50c0 6 2.66699 9 8 9h14c5.33301 0 8 -3 8 -9v-49c0 -34 9 -60.167 27 -78.5s43.667 -27.5 77 -27.5h85c33.333 0 59 9.16699 77 27.5s27 44.5 27 78.5v70
c0 34 -9 60.167 -27 78.5s-43.667 27.5 -77 27.5h-62c-6 0 -9 2.66699 -9 8v12c0 5.33301 3 8 9 8z" />
    <glyph glyph-name="four" unicode="4" horiz-adv-x="515" 
d="M360 163v458l-276 -458h276zM382 0h-14c-5.33301 0 -8 3 -8 9v126h-301c-6 0 -9 2.66699 -9 8v12c0 4.66699 2 10 6 16l278 461c4 7.33301 10.333 11 19 11h29c5.33301 0 8 -3 8 -9v-471h76c6 0 9 -2.66699 9 -8v-12c0 -5.33301 -3 -8 -9 -8h-76v-126
c0 -6 -2.66699 -9 -8 -9z" />
    <glyph glyph-name="five" unicode="5" horiz-adv-x="476" 
d="M282 371h-96.001c-18 0 -32.667 -2.83301 -44 -8.5s-19 -11.667 -23 -18l-11.5 -18c-3.66699 -5.66699 -7.5 -8.5 -11.5 -8.5h-18c-5.33301 0 -8 3 -8 9v307c0 6 2.66699 9 8 9h319c6 0 9 -2.66699 9 -8v-12c0 -5.33301 -3 -8 -9 -8h-297v-265
c12.667 32.667 41.334 49 86.001 49h96c40.667 0 73.167 -11.833 97.5 -35.5s36.5 -56.167 36.5 -97.5v-130c0 -41.333 -12.167 -74.333 -36.5 -99s-56.833 -37 -97.5 -37h-78c-40.667 -0 -73.167 12.333 -97.5 37s-36.5 57.667 -36.5 99v40c0 6 2.66699 9 8 9h14
c5.33301 0 8 -3 8 -9v-39c0 -34 9 -60.667 27 -80s43.667 -29 77 -29h78c33.333 0 59 9.66699 77 29s27 46 27 80v128c0 34 -9 60.167 -27 78.5s-43.667 27.5 -77 27.5z" />
    <glyph glyph-name="six" unicode="6" horiz-adv-x="490" 
d="M194 28h92c33.333 0 59 9.66699 77 29s27 46 27 80v103c0 34 -9 60.667 -27 80s-43.667 29 -77 29h-196v-212c0 -34 9 -60.667 27 -80s43.667 -29 77 -29zM286 0h-92c-40.667 -0 -73.167 12.333 -97.5 37s-36.5 57.667 -36.5 99v371c0 41.333 12.167 74.333 36.5 99
s56.833 37 97.5 37h186c6 0 9 -2.66699 9 -8v-12c0 -5.33301 -3 -8 -9 -8h-186c-33.333 0 -59 -9.66699 -77 -29s-27 -46 -27 -80v-129h196c40.667 0 73.167 -12.333 97.5 -37s36.5 -57.667 36.5 -99v-105c0 -41.333 -12.167 -74.333 -36.5 -99s-56.833 -37 -97.5 -37z" />
    <glyph glyph-name="seven" unicode="7" horiz-adv-x="367" 
d="M109 0l-10 0.000976562c-8 0 -10 4.66699 -6 14l221 601h-290c-6 0 -9 2.66699 -9 8v12c0 5.33301 3 8 9 8h314c6 0 9 -2.66699 9 -8v-10c0 -4.66699 -1 -9.33398 -3 -14.001l-221 -602c-2 -6 -6.66699 -9 -14 -9z" />
    <glyph glyph-name="eight" unicode="8" horiz-adv-x="513" 
d="M204 28h105c33.333 0 59 9.16699 77 27.5s27 44.5 27 78.5v70c0 34 -9 60.167 -27 78.5s-43.667 27.5 -77 27.5h-105c-33.333 0 -59 -9.16699 -77 -27.5s-27 -44.5 -27 -78.5v-70c0 -34 9 -60.167 27 -78.5s43.667 -27.5 77 -27.5zM204 338h105
c33.333 0 59 9.16699 77 27.5s27 44.5 27 78.5v65c0 34 -9 60.167 -27 78.5s-43.667 27.5 -77 27.5h-105c-33.333 0 -59 -9.16699 -77 -27.5s-27 -44.5 -27 -78.5v-65c0 -34 9 -60.167 27 -78.5s43.667 -27.5 77 -27.5zM309 0h-105c-40.667 -0 -73.167 11.833 -97.5 35.5
s-36.5 56.167 -36.5 97.5v72c0 60 24.667 99.667 74 119c-49.333 19.333 -74 59 -74 119v67c0 41.333 12.167 73.833 36.5 97.5s56.833 35.5 97.5 35.5h105c40.667 0 73.167 -11.833 97.5 -35.5s36.5 -56.167 36.5 -97.5v-67c0 -60 -24.667 -99.667 -74 -119
c49.333 -19.333 74 -59 74 -119v-72c0 -41.333 -12.167 -73.833 -36.5 -97.5s-56.833 -35.5 -97.5 -35.5z" />
    <glyph glyph-name="nine" unicode="9" horiz-adv-x="490" 
d="M194 294h196v212c0 34 -9 60.667 -27 80s-43.667 29 -77 29h-92c-33.333 0 -59 -9.66699 -77 -29s-27 -46 -27 -80v-103c0 -34 9 -60.667 27 -80s43.667 -29 77 -29zM286 0h-186c-6 0 -9 2.66699 -9 8v12c0 5.33301 3 8 9 8h186c33.333 0 59 9.66699 77 29s27 46 27 80
v129h-196c-40.667 0 -73.167 12.333 -97.5 37s-36.5 57.667 -36.5 99v105c0 41.333 12.167 74.333 36.5 99s56.833 37 97.5 37h92c40.667 0 73.167 -12.333 97.5 -37s36.5 -57.667 36.5 -99v-371c0 -41.333 -12.167 -74.333 -36.5 -99s-56.833 -37 -97.5 -37z" />
    <glyph glyph-name="colon" unicode=":" horiz-adv-x="187" 
d="M112 501v-119c0 -6 -2.66699 -9 -8 -9h-21c-5.33301 0 -8 3 -8 9v119c0 6 2.66699 9 8 9h21c5.33301 0 8 -3 8 -9zM112 128v-119c0 -6 -2.66699 -9 -8 -9h-21c-5.33301 0 -8 3 -8 9v119c0 6 2.66699 9 8 9h21c5.33301 0 8 -3 8 -9z" />
    <glyph glyph-name="semicolon" unicode=";" horiz-adv-x="187" 
d="M112 128v-79c0 -10 -8.66699 -58 -26 -144c-1.33301 -4 -3.5 -6 -6.5 -6s-4.5 2 -4.5 6v223c0 6 2.66699 9 8 9h21c5.33301 0 8 -3 8 -9zM112 501v-119c0 -6 -2.66699 -9 -8 -9h-21c-5.33301 0 -8 3 -8 9v119c0 6 2.66699 9 8 9h21c5.33301 0 8 -3 8 -9z" />
    <glyph glyph-name="less" unicode="&#x3c;" horiz-adv-x="500" 
d="M436 475v-14.0039c0 -5.33301 -2.33301 -8.66602 -7 -9.99902l-337 -130l337 -130c4.66699 -1.33301 7 -4.66602 7 -9.99902v-14c0 -6.66699 -3.66699 -8.66699 -11 -6l-352 139c-6 2.66699 -9 6.33398 -9 11.001v20c0 4.66699 3 8.33398 9 11.001l352 139
c7.33301 2.66699 11 0.666992 11 -6z" />
    <glyph glyph-name="equal" unicode="=" horiz-adv-x="522" 
d="M84 422h354c6 0 9 -2.66699 9 -8v-12c0 -5.33301 -3 -8 -9 -8h-354c-6 0 -9 2.66699 -9 8v12c0 5.33301 3 8 9 8zM84 248h354c6 0 9 -2.66699 9 -8v-12c0 -5.33301 -3 -8 -9 -8h-354c-6 0 -9 2.66699 -9 8v12c0 5.33301 3 8 9 8z" />
    <glyph glyph-name="greater" unicode="&#x3e;" horiz-adv-x="522" 
d="M75 461v14.0039c0 6.66699 3.66699 8.66699 11 6l352 -139c6 -2.66699 9 -6.33398 9 -11.001v-20c0 -4.66699 -3 -8.33398 -9 -11.001l-352 -139c-7.33301 -2.66699 -11 -0.666992 -11 6v14c0 5.33301 2.33301 8.66602 7 9.99902l337 130l-337 130
c-4.66699 1.33301 -7 4.66602 -7 9.99902z" />
    <glyph glyph-name="question" unicode="?" horiz-adv-x="475" 
d="M266 128v-119c0 -6 -2.66699 -9 -8 -9h-21c-5.33301 0 -8 3 -8 9v119c0 6 2.66699 9 8 9h21c5.33301 0 8 -3 8 -9zM263 251l-0.000976562 -38.9951c0 -6 -2.66699 -9 -8 -9h-14c-5.33301 0 -8 3 -8 9v35c0 28.667 3.83301 50.667 11.5 66s23.834 33.666 48.501 54.999
l31 28c27.333 23.333 41 49.666 41 78.999v33c0 34 -9 60.167 -27 78.5s-43.667 27.5 -77 27.5h-47c-33.333 0 -59 -9.16699 -77 -27.5s-27 -44.5 -27 -78.5v-47c0 -6 -2.66699 -9 -8 -9h-14c-5.33301 0 -8 3 -8 9v48c0 41.333 12.167 73.833 36.5 97.5
s56.833 35.5 97.5 35.5h47c40.667 0 73.167 -11.833 97.5 -35.5s36.5 -56.167 36.5 -97.5v-35c0 -36.667 -16 -68.334 -48 -95.001l-40 -34c-20 -16.667 -32.333 -30.834 -37 -42.501s-7 -28.834 -7 -51.501z" />
    <glyph glyph-name="at" unicode="@" horiz-adv-x="755" 
d="M521 -58l-182 0.00195312c-65.333 0 -123.166 22.667 -173.499 68s-75.5 107.666 -75.5 186.999v151c0 79.333 25.167 141.666 75.5 186.999s108.166 68 173.499 68h192c40.667 0 73.167 -12.333 97.5 -37s36.5 -57.667 36.5 -99v-248
c0 -41.333 -12.167 -74.333 -36.5 -99s-56.833 -37 -97.5 -37h-23c-8 0 -14.667 2.83301 -20 8.5s-8 12.5 -8 20.5v25h-4c-18.667 -34.667 -54.667 -52 -108 -52c-40.667 0 -73.167 12.333 -97.5 37s-36.5 57.667 -36.5 99v103c0 41.333 12.167 74.333 36.5 99
s56.833 37 97.5 37h134c5.33301 0 8 -3 8 -9v-332c0 -5.33301 3 -8 9 -8h12c33.333 0 59 9.66699 77 29s27 46 27 80v246c0 34 -9 60.667 -27 80s-43.667 29 -77 29h-194c-58 0 -108.667 -21 -152 -63s-65 -96.333 -65 -163v-153c0 -66.667 21.667 -121 65 -163
s94 -63 152 -63h184c6 0 9 -2.66699 9 -8v-12c0 -5.33301 -3 -8 -9 -8zM480 217.002l0.000976562 207c0 5.33301 -3 8 -9 8h-103c-33.333 0 -59 -9.66699 -77 -29s-27 -46 -27 -80v-101c0 -34 9 -60.667 27 -80s43.667 -29 77 -29h1c33.333 0 60.166 9 80.499 27
s30.5 43.667 30.5 77z" />
    <glyph glyph-name="A" unicode="A" horiz-adv-x="526" 
d="M51 0h-13.999c-6 0 -8 3 -6 9l210 625c2 6 5.33301 9 10 9h24c4.66699 0 8 -3 10 -9l210 -625c2 -6 0 -9 -6 -9h-15c-4.66699 0 -8 3 -10 9l-61 174h-280l-61 -174c-2.66699 -6 -6.33398 -9 -11.001 -9zM261.001 605l-127 -392h258l-127 392h-4z" />
    <glyph glyph-name="B" unicode="B" horiz-adv-x="544" 
d="M129 28h206c33.333 0 59 9.16699 77 27.5s27 44.5 27 78.5v71c0 70.667 -38 106 -114 106h-196c-6 0 -9 -2.66699 -9 -8v-267c0 -5.33301 3 -8 9 -8zM129 339h196c34 0 60.5 9.16699 79.5 27.5s28.5 44.5 28.5 78.5v64c0 34 -9 60.167 -27 78.5s-43.667 27.5 -77 27.5
h-200c-6 0 -9 -2.66699 -9 -8v-260c0 -5.33301 3 -8 9 -8zM90 9v625c0 6 2.66699 9 8 9h231c40.667 0 73.167 -11.833 97.5 -35.5s36.5 -56.167 36.5 -97.5v-66c0 -62 -29.333 -101.667 -88 -119c24 -1.33301 45.667 -13 65 -35s29 -50 29 -84v-73
c0 -41.333 -12.167 -73.833 -36.5 -97.5s-56.833 -35.5 -97.5 -35.5h-237c-5.33301 0 -8 3 -8 9z" />
    <glyph glyph-name="C" unicode="C" horiz-adv-x="543" 
d="M344 0h-130c-40.667 -0 -73.167 12.333 -97.5 37s-36.5 57.667 -36.5 99v371c0 41.333 12.167 74.333 36.5 99s56.833 37 97.5 37h130c40.667 0 73.167 -12.333 97.5 -37s36.5 -57.667 36.5 -99v-50c0 -6 -2.66699 -9 -8 -9h-14c-5.33301 0 -8 3 -8 9v49
c0 34 -9 60.667 -27 80s-43.667 29 -77 29h-130c-33.333 0 -59 -9.66699 -77 -29s-27 -46 -27 -80v-369c0 -34 9 -60.667 27 -80s43.667 -29 77 -29h130c33.333 0 59 9.66699 77 29s27 46 27 80v49c0 6 2.66699 9 8 9h14c5.33301 0 8 -3 8 -9v-50
c0 -41.333 -12.167 -74.333 -36.5 -99s-56.833 -37 -97.5 -37z" />
    <glyph glyph-name="D" unicode="D" horiz-adv-x="558" 
d="M129 28h215c33.333 0 59 9.66699 77 29s27 46 27 80v369c0 34 -9 60.667 -27 80s-43.667 29 -77 29h-215c-6 0 -9 -2.66699 -9 -8v-571c0 -5.33301 3 -8 9 -8zM90 9v625c0 6 2.66699 9 8 9h246c40.667 0 73.167 -12.333 97.5 -37s36.5 -57.667 36.5 -99v-371
c0 -41.333 -12.167 -74.333 -36.5 -99s-56.833 -37 -97.5 -37h-246c-5.33301 0 -8 3 -8 9z" />
    <glyph glyph-name="E" unicode="E" horiz-adv-x="481" 
d="M402 0h-304c-5.33301 0 -8 3 -8 9v625c0 6 2.66699 9 8 9h304c6 0 9 -2.66699 9 -8v-12c0 -5.33301 -3 -8 -9 -8h-273c-6 0 -9 -2.66699 -9 -8v-257c0 -5.33301 3 -8 9 -8h247c6 0 9 -2.66699 9 -8v-12c0 -5.33301 -3 -8 -9 -8h-247c-6 0 -9 -2.66699 -9 -8v-270
c0 -5.33301 3 -8 9 -8h273c6 0 9 -2.66699 9 -8v-12c0 -5.33301 -3 -8 -9 -8z" />
    <glyph glyph-name="F" unicode="F" horiz-adv-x="462" 
d="M112 0h-14c-5.33301 0 -8 3 -8 9v625c0 6 2.66699 9 8 9h305c6 0 9 -2.66699 9 -8v-12c0 -5.33301 -3 -8 -9 -8h-274c-6 0 -9 -2.66699 -9 -8v-266c0 -5.33301 3 -8 9 -8h247c6 0 9 -2.66699 9 -8v-12c0 -5.33301 -3 -8 -9 -8h-247c-6 0 -9 -2.66699 -9 -8v-288
c0 -6 -2.66699 -9 -8 -9z" />
    <glyph glyph-name="G" unicode="G" horiz-adv-x="538" 
d="M324 0h-110c-40.667 -0 -73.167 12.333 -97.5 37s-36.5 57.667 -36.5 99v371c0 41.333 12.167 74.333 36.5 99s56.833 37 97.5 37h110c40.667 0 73.167 -12.333 97.5 -37s36.5 -57.667 36.5 -99v-50c0 -6 -2.66699 -9 -8 -9h-14c-5.33301 0 -8 3 -8 9v49
c0 34 -9 60.667 -27 80s-43.667 29 -77 29h-110c-33.333 0 -59 -9.66699 -77 -29s-27 -46 -27 -80v-369c0 -34 9 -60.667 27 -80s43.667 -29 77 -29h110c33.333 0 59 9.66699 77 29s27 46 27 80v151c0 5.33301 -3 8 -9 8h-129c-6 0 -9 2.66699 -9 8v12c0 5.33301 3 8 9 8
h150c12 0 18 -6.33301 18 -19v-169c0 -41.333 -12.167 -74.333 -36.5 -99s-56.833 -37 -97.5 -37z" />
    <glyph glyph-name="H" unicode="H" horiz-adv-x="568" 
d="M112 0h-14c-5.33301 0 -8 3 -8 9v625c0 6 2.66699 9 8 9h14c5.33301 0 8 -3 8 -9v-284c0 -5.33301 3 -8 9 -8h310c6 0 9 2.66699 9 8v284c0 6 2.66699 9 8 9h14c5.33301 0 8 -3 8 -9v-625c0 -6 -2.66699 -9 -8 -9h-14c-5.33301 0 -8 3 -8 9v297c0 5.33301 -3 8 -9 8h-310
c-6 0 -9 -2.66699 -9 -8v-297c0 -6 -2.66699 -9 -8 -9z" />
    <glyph glyph-name="I" unicode="I" horiz-adv-x="220" 
d="M125 634v-625c0 -6 -2.66699 -9 -8 -9h-14c-5.33301 0 -8 3 -8 9v625c0 6 2.66699 9 8 9h14c5.33301 0 8 -3 8 -9z" />
    <glyph glyph-name="J" unicode="J" horiz-adv-x="493" 
d="M386 643h14c5.33301 0 8 -2.66699 8 -8v-499c0 -41.333 -12.167 -74.333 -36.5 -99s-56.833 -37 -97.5 -37h-100c-40.667 -0 -73.167 12.333 -97.5 37s-36.5 57.667 -36.5 99v80c0 6 2.66699 9 8 9h14c5.33301 0 8 -3 8 -9v-79c0 -34 9 -60.667 27 -80s43.667 -29 77 -29
h100c33.333 0 59 9.66699 77 29s27 46 27 80v497c0 6 2.66699 9 8 9z" />
    <glyph glyph-name="K" unicode="K" horiz-adv-x="523" 
d="M112 0h-14.001c-5.33301 0 -8 3 -8 9v625c0 6 2.66699 9 8 9h14c5.33301 0 8 -3 8 -9v-392h4c4 8.66699 9 17 15 25l281 367c4.66699 6 10 9 16 9h19c6.66699 0 7.33398 -3 2.00098 -9l-204 -271l238 -354c4 -6 2.66699 -9 -4 -9h-16c-6 0 -11 3 -15 9l-222 330
l-114 -137v-193c0 -6 -2.66699 -9 -8 -9z" />
    <glyph glyph-name="L" unicode="L" horiz-adv-x="452" 
d="M413 0h-315c-5.33301 0 -8 3 -8 9v625c0 6 2.66699 9 8 9h14c5.33301 0 8 -3 8 -9v-596c0 -5.33301 3 -8 9 -8h284c6 0 9 -2.66699 9 -8v-14c0 -5.33301 -3 -8 -9 -8z" />
    <glyph glyph-name="M" unicode="M" horiz-adv-x="688" 
d="M562 643h28.002c5.33301 0 8 -3 8 -9v-625c0 -6 -2.66699 -9 -8 -9h-14c-5.33301 0 -8 3 -8 9v576h-4l-198 -437c-2.66699 -5.33301 -6.66699 -8 -12 -8h-19c-5.33301 0 -9.33301 2.66699 -12 8l-199 438h-4v-577c0 -6 -2.66699 -9 -8 -9h-14c-5.33301 0 -8 3 -8 9v625
c0 6 2.66699 9 8 9h28c3.33301 0 5.66602 -1.33301 6.99902 -4l209 -462h4l209 462c1.33301 2.66699 3.66602 4 6.99902 4z" />
    <glyph glyph-name="N" unicode="N" horiz-adv-x="578" 
d="M112 0h-13.999c-5.33301 0 -8 3 -8 9v625c0 6 2.66699 9 8 9h14c3.33301 0 5.66602 -1.33301 6.99902 -4l335 -567h4v562c0 6 2.66699 9 8 9h14c5.33301 0 8 -3 8 -9v-625c0 -6 -2.66699 -9 -8 -9h-10c-4.66699 0 -8.66699 2.66699 -12 8l-334 565h-4v-564
c0 -6 -2.66699 -9 -8 -9z" />
    <glyph glyph-name="O" unicode="O" horiz-adv-x="553" 
d="M214 28h125c33.333 0 59 9.66699 77 29s27 46 27 80v369c0 34 -9 60.667 -27 80s-43.667 29 -77 29h-125c-33.333 0 -59 -9.66699 -77 -29s-27 -46 -27 -80v-369c0 -34 9 -60.667 27 -80s43.667 -29 77 -29zM339 0h-125c-40.667 -0 -73.167 12.333 -97.5 37
s-36.5 57.667 -36.5 99v371c0 41.333 12.167 74.333 36.5 99s56.833 37 97.5 37h125c40.667 0 73.167 -12.333 97.5 -37s36.5 -57.667 36.5 -99v-371c0 -41.333 -12.167 -74.333 -36.5 -99s-56.833 -37 -97.5 -37z" />
    <glyph glyph-name="P" unicode="P" horiz-adv-x="523" 
d="M112 0h-14c-5.33301 0 -8 3 -8 9v625c0 6 2.66699 9 8 9h226c40.667 0 73.167 -12.333 97.5 -37s36.5 -57.667 36.5 -99v-123c0 -41.333 -12.167 -74.333 -36.5 -99s-56.833 -37 -97.5 -37h-195c-6 0 -9 -2.66699 -9 -8v-231c0 -6 -2.66699 -9 -8 -9zM129 276h195
c33.333 0 59 9.66699 77 29s27 46 27 80v121c0 34 -9 60.667 -27 80s-43.667 29 -77 29h-195c-6 0 -9 -2.66699 -9 -8v-323c0 -5.33301 3 -8 9 -8z" />
    <glyph glyph-name="Q" unicode="Q" horiz-adv-x="553" 
d="M214 28h125c33.333 0 59 9.66699 77 29s27 46 27 80v369c0 34 -9 60.667 -27 80s-43.667 29 -77 29h-125c-33.333 0 -59 -9.66699 -77 -29s-27 -46 -27 -80v-369c0 -34 9 -60.667 27 -80s43.667 -29 77 -29zM412 -133h-16c-6 0 -11 3 -15 9l-77 124h-90
c-40.667 -0 -73.167 12.333 -97.5 37s-36.5 57.667 -36.5 99v371c0 41.333 12.167 74.333 36.5 99s56.833 37 97.5 37h125c40.667 0 73.167 -12.333 97.5 -37s36.5 -57.667 36.5 -99v-371c0 -41.333 -12.167 -74.333 -36.5 -99s-56.833 -37 -97.5 -37l77 -124
c4 -6 2.66699 -9 -4 -9z" />
    <glyph glyph-name="R" unicode="R" horiz-adv-x="530" 
d="M112 0l-14.001 0.000976562c-5.33301 0 -8 3 -8 9v625c0 6 2.66699 9 8 9h225c40.667 0 73.167 -12.333 97.5 -37s36.5 -57.667 36.5 -99v-100c0 -37.333 -10 -67.833 -30 -91.5s-47 -37.834 -81 -42.501v-4l123 -260c3.33301 -6 2 -9 -4 -9h-18
c-5.33301 0 -9.66602 3 -12.999 9l-122 262h-183c-6 0 -9 -2.66699 -9 -8v-254c0 -6 -2.66699 -9 -8 -9zM128.999 299.001h194c33.333 0 59 9.66699 77 29s27 46 27 80v98c0 34 -9 60.667 -27 80s-43.667 29 -77 29h-194c-6 0 -9 -2.66699 -9 -8v-300c0 -5.33301 3 -8 9 -8z
" />
    <glyph glyph-name="S" unicode="S" horiz-adv-x="568" 
d="M90 136v40.0039c0 6 2.66699 9 8 9h14c5.33301 0 8 -3 8 -9v-39c0 -34 9 -60.667 27 -80s43.667 -29 77 -29h120c33.333 0 59 9.66699 77 29s27 46 27 80v50c0 31.333 -12.333 56.166 -37 74.499s-54.5 31.666 -89.5 39.999l-105 25
c-35 8.33301 -64.833 22.166 -89.5 41.499s-37 45.666 -37 78.999v60c0 41.333 12.167 74.333 36.5 99s56.833 37 97.5 37h120c40.667 0 73.167 -12.333 97.5 -37s36.5 -57.667 36.5 -99v-30c0 -6 -2.66699 -9 -8 -9h-14c-5.33301 0 -8 3 -8 9v29c0 34 -9 60.667 -27 80
s-43.667 29 -77 29h-120c-33.333 0 -59 -9.66699 -77 -29s-27 -46 -27 -80v-58c0 -49.333 42 -83.333 126 -102c35.333 -7.33301 70.5 -15.5 105.5 -24.5s64.833 -24.333 89.5 -46s37 -50.5 37 -86.5v-53c0 -41.333 -12.167 -74.333 -36.5 -99s-56.833 -37 -97.5 -37h-120
c-40.667 -0 -73.167 12.333 -97.5 37s-36.5 57.667 -36.5 99z" />
    <glyph glyph-name="T" unicode="T" horiz-adv-x="414" 
d="M214 0h-14c-5.33301 0 -8 3 -8 9v598c0 5.33301 -3 8 -9 8h-154c-6 0 -9 2.66699 -9 8v12c0 5.33301 3 8 9 8h356c6 0 9 -2.66699 9 -8v-12c0 -5.33301 -3 -8 -9 -8h-154c-6 0 -9 -2.66699 -9 -8v-598c0 -6 -2.66699 -9 -8 -9z" />
    <glyph glyph-name="U" unicode="U" horiz-adv-x="550" 
d="M443 643h14c5.33301 0 8 -2.66699 8 -8v-499c0 -41.333 -12.167 -74.333 -36.5 -99s-56.833 -37 -97.5 -37h-112c-40.667 -0 -73.167 12.333 -97.5 37s-36.5 57.667 -36.5 99v498c0 6 2.66699 9 8 9h14c5.33301 0 8 -3 8 -9v-497c0 -34 9 -60.667 27 -80
s43.667 -29 77 -29h112c33.333 0 59 9.66699 77 29s27 46 27 80v497c0 6 2.66699 9 8 9z" />
    <glyph glyph-name="V" unicode="V" horiz-adv-x="494" 
d="M259 0h-24c-4.66699 0 -8 3 -10 9l-194 625c-2 6 0 9 6 9h15c4.66699 0 8 -3 10 -9l183 -590h4l183 590c2 6 5.33301 9 10 9h15c6 0 8 -3 6 -9l-194 -625c-2 -6 -5.33301 -9 -10 -9z" />
    <glyph glyph-name="W" unicode="W" horiz-adv-x="790" 
d="M219 0h-27.002c-5.33301 0 -9 3 -11 9l-145 625c-1.33301 6 1.33398 9 8.00098 9h14c4.66699 0 8 -3 10 -9l135 -596h4l167 596c2 6 5.66699 9 11 9h19c5.33301 0 9 -3 11 -9l168 -596h4l135 596c1.33301 6 5 9 11 9h15c6 0 8 -3 6 -9l-145 -625
c-1.33301 -6 -4.66602 -9 -9.99902 -9h-27c-5.33301 0 -9 3 -11 9l-164 590h-4l-164 -590c-2 -6 -5.33301 -9 -10 -9z" />
    <glyph glyph-name="X" unicode="X" horiz-adv-x="494" 
d="M58 0h-15.998c-6 0 -7.33301 3 -4 9l190 333l-179 292c-3.33301 6 -1.66602 9 5.00098 9h14c6 0 10.667 -3 14 -9l164 -269h4l163 269c3.33301 6 7.66602 9 12.999 9h16c6 0 7.33301 -3 4 -9l-178 -291l189 -334c3.33301 -6 2 -9 -4 -9h-16
c-4.66699 -0 -8.33398 2.33301 -11.001 7l-177 310h-4l-176 -310c-2.66699 -4.66699 -6.33398 -7 -11.001 -7z" />
    <glyph glyph-name="Y" unicode="Y" horiz-adv-x="486" 
d="M250 0h-14.0039c-5.33301 0 -8 3 -8 9v236l-197 389c-3.33301 6 -1.66602 9 5.00098 9h18c4.66699 0 8.33398 -3 11.001 -9l176 -350h4l176 350c2.66699 6 6.33398 9 11.001 9h18c6.66699 0 8.33398 -3 5.00098 -9l-197 -389v-236c0 -6 -2.66699 -9 -8 -9z" />
    <glyph glyph-name="Z" unicode="Z" horiz-adv-x="471" 
d="M40 8v17c0 4 0.666992 7 2 9l344 577v4h-327c-6 0 -9 2.66699 -9 8v12c0 5.33301 3 8 9 8h353c6 0 9 -2.66699 9 -8v-19c0 -3.33301 -0.666992 -6 -2 -8l-344 -576v-4h347c6 0 9 -2.66699 9 -8v-12c0 -5.33301 -3 -8 -9 -8h-373c-6 0 -9 2.66699 -9 8z" />
    <glyph glyph-name="bracketleft" unicode="[" horiz-adv-x="277" 
d="M198 -102h-130c-5.33301 0 -8 3 -8 9v727c0 6 2.66699 9 8 9h130c6 0 9 -2.66699 9 -8v-12c0 -5.33301 -3 -8 -9 -8h-99c-6 0 -9 -2.66699 -9 -8v-673c0 -5.33301 3 -8 9 -8h99c6 0 9 -2.66699 9 -8v-12c0 -5.33301 -3 -8 -9 -8z" />
    <glyph glyph-name="backslash" unicode="\" horiz-adv-x="393" 
d="M77 643h14c6 0 10.333 -3.66699 13 -11l218 -620c2.66699 -8 0 -12 -8 -12h-13c-6 0 -10.333 3.66699 -13 11l-217 618c-3.33301 9.33301 -1.33301 14 6 14z" />
    <glyph glyph-name="bracketright" unicode="]" horiz-adv-x="277" 
d="M60 -94v12c0 5.33301 3 8 9 8h99c6 0 9 2.66699 9 8v673c0 5.33301 -3 8 -9 8h-99c-6 0 -9 2.66699 -9 8v12c0 5.33301 3 8 9 8h130c5.33301 0 8 -3 8 -9v-727c0 -6 -2.66699 -9 -8 -9h-130c-6 0 -9 2.66699 -9 8z" />
    <glyph glyph-name="asciicircum" unicode="^" horiz-adv-x="453" 
d="M79 365h-10.002c-9.33301 0 -11.666 4 -6.99902 12l134 255c4 7.33301 10.333 11 19 11h23c8.66699 0 15 -3.66699 19 -11l134 -255c4.66699 -8 2.33398 -12 -6.99902 -12h-10c-5.33301 0 -10 3 -14 9l-134 252l-133 -252c-4 -6 -8.66699 -9 -14 -9z" />
    <glyph glyph-name="underscore" unicode="_" horiz-adv-x="372" 
d="M363 -96h-354c-6 0 -9 2.66699 -9 8v12c0 5.33301 3 8 9 8h354c6 0 9 -2.66699 9 -8v-12c0 -5.33301 -3 -8 -9 -8z" />
    <glyph glyph-name="grave" unicode="`" horiz-adv-x="261" 
d="M186 574l-8 -0.000976562c-5.33301 0 -10 2.66699 -14 8l-92 112c-2 2.66699 -2.5 4.83398 -1.5 6.50098s2.83301 2.5 5.5 2.5h30c6.66699 0 11.667 -3 15 -9l68 -111c3.33301 -6 2.33301 -9 -3 -9z" />
    <glyph glyph-name="a" unicode="a" horiz-adv-x="498" 
d="M278 0h-74c-40.667 -0 -73.167 12.333 -97.5 37s-36.5 57.667 -36.5 99v238c0 41.333 12.167 74.333 36.5 99s56.833 37 97.5 37h206c5.33301 0 8 -3 8 -9v-492c0 -6 -2.66699 -9 -8 -9h-14c-5.33301 0 -8 3 -8 9v43h-4c-18.667 -34.667 -54 -52 -106 -52zM388 132v342
c0 5.33301 -3 8 -9 8h-175c-33.333 0 -59 -9.66699 -77 -29s-27 -46 -27 -80v-236c0 -34 9 -60.667 27 -80s43.667 -29 77 -29h72c33.333 0 60.333 9 81 27s31 43.667 31 77z" />
    <glyph glyph-name="b" unicode="b" horiz-adv-x="498" 
d="M119 28h175c33.333 0 59 9.66699 77 29s27 46 27 80v246c0 34 -9 60.667 -27 80s-43.667 29 -77 29h-72c-33.333 0 -60.333 -9 -81 -27s-31 -43.667 -31 -77v-352c0 -5.33301 3 -8 9 -8zM80 9v685c0 6 2.66699 9 8 9h14c5.33301 0 8 -3 8 -9v-226h4
c18.667 34.667 54 52 106 52h74c40.667 0 73.167 -12.333 97.5 -37s36.5 -57.667 36.5 -99v-248c0 -41.333 -12.167 -74.333 -36.5 -99s-56.833 -37 -97.5 -37h-206c-5.33301 0 -8 3 -8 9z" />
    <glyph glyph-name="c" unicode="c" horiz-adv-x="390" 
d="M355 20v-12c0 -5.33301 -3 -8 -9 -8h-142c-40.667 -0 -73.167 12.333 -97.5 37s-36.5 57.667 -36.5 99v238c0 41.333 12.167 74.333 36.5 99s56.833 37 97.5 37h142c6 0 9 -2.66699 9 -8v-12c0 -5.33301 -3 -8 -9 -8h-142c-33.333 0 -59 -9.66699 -77 -29
s-27 -46 -27 -80v-236c0 -34 9 -60.667 27 -80s43.667 -29 77 -29h142c6 0 9 -2.66699 9 -8z" />
    <glyph glyph-name="d" unicode="d" horiz-adv-x="498" 
d="M278 0h-74c-40.667 -0 -73.167 12.333 -97.5 37s-36.5 57.667 -36.5 99v238c0 41.333 12.167 74.333 36.5 99s56.833 37 97.5 37h74c52 0 87.333 -17.333 106 -52h4v236c0 6 2.66699 9 8 9h14c5.33301 0 8 -3 8 -9v-685c0 -6 -2.66699 -9 -8 -9h-14c-5.33301 0 -8 3 -8 9
v43h-4c-18.667 -34.667 -54 -52 -106 -52zM388 132v246c0 33.333 -10.333 59 -31 77s-47.667 27 -81 27h-72c-33.333 0 -59 -9.66699 -77 -29s-27 -46 -27 -80v-236c0 -34 9 -60.667 27 -80s43.667 -29 77 -29h72c33.333 0 60.333 9 81 27s31 43.667 31 77z" />
    <glyph glyph-name="e" unicode="e" horiz-adv-x="491" 
d="M409 0h-205c-40.667 -0 -73.167 12.333 -97.5 37s-36.5 57.667 -36.5 99v238c0 41.333 12.167 74.333 36.5 99s56.833 37 97.5 37h88c40.667 0 73.167 -12.333 97.5 -37s36.5 -57.667 36.5 -99v-127c0 -6.66699 -3 -10 -9 -10h-308c-6 0 -9 -2.66699 -9 -8v-92
c0 -34 9 -60.667 27 -80s43.667 -29 77 -29h205c6 0 9 -2.66699 9 -8v-12c0 -5.33301 -3 -8 -9 -8zM109 265h278c6 0 9 2.66699 9 8v100c0 34 -9 60.667 -27 80s-43.667 29 -77 29h-88c-33.333 0 -59 -9.66699 -77 -29s-27 -46 -27 -80v-100c0 -5.33301 3 -8 9 -8z" />
    <glyph glyph-name="f" unicode="f" horiz-adv-x="290" 
d="M164 510h94c6 0 9 -2.66699 9 -8v-12c0 -5.33301 -3 -8 -9 -8h-94c-6 0 -9 -2.66699 -9 -8v-465c0 -6 -2.66699 -9 -8 -9h-14c-5.33301 0 -8 3 -8 9v465c0 5.33301 -3 8 -9 8h-68c-6 0 -9 2.66699 -9 8v12c0 5.33301 3 8 9 8h68c6 0 9 2.66699 9 8v51
c0 89.333 39.333 134 118 134h15c6 0 9 -2.66699 9 -8v-12c0 -5.33301 -3 -8 -9 -8h-15c-32 0 -54.667 -8.83301 -68 -26.5s-20 -44.5 -20 -80.5v-50c0 -5.33301 3 -8 9 -8z" />
    <glyph glyph-name="g" unicode="g" horiz-adv-x="503" 
d="M283 30h-74c-40.667 0 -73.167 12.333 -97.5 37s-36.5 57.667 -36.5 99v208c0 41.333 12.167 74.333 36.5 99s56.833 37 97.5 37h206c5.33301 0 8 -3 8 -9v-498c0 -41.333 -12.167 -74.333 -36.5 -99s-56.833 -37 -97.5 -37h-179c-6 0 -9 2.66699 -9 8v12
c0 5.33301 3 8 9 8h179c33.333 0 59 9.66699 77 29s27 46 27 80v78h-4c-18.667 -34.667 -54 -52 -106 -52zM393 162v312c0 5.33301 -3 8 -9 8h-175c-33.333 0 -59 -9.66699 -77 -29s-27 -46 -27 -80v-206c0 -34 9 -60.667 27 -80s43.667 -29 77 -29h72
c33.333 0 60.333 9 81 27s31 43.667 31 77z" />
    <glyph glyph-name="h" unicode="h" horiz-adv-x="503" 
d="M102 0h-14c-5.33301 0 -8 3 -8 9v685c0 6 2.66699 9 8 9h14c5.33301 0 8 -3 8 -9v-236h4c18.667 34.667 54 52 106 52h74c40.667 0 73.167 -12.333 97.5 -37s36.5 -57.667 36.5 -99v-365c0 -6 -2.66699 -9 -8 -9h-14c-5.33301 0 -8 3 -8 9v364c0 34 -9 60.667 -27 80
s-43.667 29 -77 29h-72c-33.333 0 -60.333 -9 -81 -27s-31 -43.667 -31 -77v-369c0 -6 -2.66699 -9 -8 -9z" />
    <glyph glyph-name="i" unicode="i" horiz-adv-x="200" 
d="M85 593v99c0 6 2.66699 9 8 9h14c5.33301 0 8 -3 8 -9v-99c0 -6 -2.66699 -9 -8 -9h-14c-5.33301 0 -8 3 -8 9zM85 9v492c0 6 2.66699 9 8 9h14c5.33301 0 8 -3 8 -9v-492c0 -6 -2.66699 -9 -8 -9h-14c-5.33301 0 -8 3 -8 9z" />
    <glyph glyph-name="j" unicode="j" horiz-adv-x="200" 
d="M85 593v99c0 6 2.66699 9 8 9h14c5.33301 0 8 -3 8 -9v-99c0 -6 -2.66699 -9 -8 -9h-14c-5.33301 0 -8 3 -8 9zM-19 -133h-20c-6 0 -9 2.66699 -9 8v12c0 5.33301 3 8 9 8h20c33.333 0 59 9.66699 77 29s27 46 27 80v497c0 6 2.66699 9 8 9h14c5.33301 0 8 -3 8 -9v-498
c0 -41.333 -12.167 -74.333 -36.5 -99s-56.833 -37 -97.5 -37z" />
    <glyph glyph-name="k" unicode="k" horiz-adv-x="420" 
d="M366 510h14.002c7.33301 0 8.66602 -3 3.99902 -9l-159 -235v-4l180 -253c4.66699 -6 3.66699 -9 -3 -9h-17c-7.33301 0 -13.333 3 -18 9l-175 249c-2.66699 4 -2.66699 8 0 12l158 233c3.33301 4.66699 8.66602 7 15.999 7zM102.002 0h-14c-5.33301 0 -8 3 -8 9v685
c0 6 2.66699 9 8 9h14c5.33301 0 8 -3 8 -9v-685c0 -6 -2.66699 -9 -8 -9z" />
    <glyph glyph-name="l" unicode="l" horiz-adv-x="200" 
d="M107 0h-14c-5.33301 0 -8 3 -8 9v685c0 6 2.66699 9 8 9h14c5.33301 0 8 -3 8 -9v-685c0 -6 -2.66699 -9 -8 -9z" />
    <glyph glyph-name="m" unicode="m" horiz-adv-x="761" 
d="M102 0h-14c-5.33301 0 -8 3 -8 9v492c0 6 2.66699 9 8 9h14c5.33301 0 8 -3 8 -9v-43h4c18.667 34.667 54 52 106 52h44c58.667 0 99 -23.667 121 -71c9.33301 23.333 26.5 41 51.5 53s50.167 18 75.5 18h40c40.667 0 73.167 -12.333 97.5 -37s36.5 -57.667 36.5 -99
v-365c0 -6 -2.66699 -9 -8 -9h-14c-5.33301 0 -8 3 -8 9v364c0 34 -9 60.667 -27 80s-43.667 29 -77 29h-40c-34 0 -61.5 -9.83301 -82.5 -29.5s-31.5 -46.167 -31.5 -79.5v-364c0 -6 -2.66699 -9 -8 -9h-14c-5.33301 0 -8 3 -8 9v364c0 34 -9 60.667 -27 80
s-43.667 29 -77 29h-42c-33.333 0 -60.333 -9 -81 -27s-31 -43.667 -31 -77v-369c0 -6 -2.66699 -9 -8 -9z" />
    <glyph glyph-name="n" unicode="n" horiz-adv-x="503" 
d="M102 0h-14c-5.33301 0 -8 3 -8 9v492c0 6 2.66699 9 8 9h14c5.33301 0 8 -3 8 -9v-43h4c18.667 34.667 54 52 106 52h74c40.667 0 73.167 -12.333 97.5 -37s36.5 -57.667 36.5 -99v-365c0 -6 -2.66699 -9 -8 -9h-14c-5.33301 0 -8 3 -8 9v364c0 34 -9 60.667 -27 80
s-43.667 29 -77 29h-72c-33.333 0 -60.333 -9 -81 -27s-31 -43.667 -31 -77v-369c0 -6 -2.66699 -9 -8 -9z" />
    <glyph glyph-name="o" unicode="o" horiz-adv-x="493" 
d="M289 0h-85c-40.667 -0 -73.167 12.333 -97.5 37s-36.5 57.667 -36.5 99v238c0 41.333 12.167 74.333 36.5 99s56.833 37 97.5 37h85c40.667 0 73.167 -12.333 97.5 -37s36.5 -57.667 36.5 -99v-238c0 -41.333 -12.167 -74.333 -36.5 -99s-56.833 -37 -97.5 -37zM204 28
h85c33.333 0 59 9.66699 77 29s27 46 27 80v236c0 34 -9 60.667 -27 80s-43.667 29 -77 29h-85c-33.333 0 -59 -9.66699 -77 -29s-27 -46 -27 -80v-236c0 -34 9 -60.667 27 -80s43.667 -29 77 -29z" />
    <glyph glyph-name="p" unicode="p" horiz-adv-x="498" 
d="M102 -153h-14c-5.33301 0 -8 3 -8 9v645c0 6 2.66699 9 8 9h14c5.33301 0 8 -3 8 -9v-43h4c18.667 34.667 54 52 106 52h74c40.667 0 73.167 -12.333 97.5 -37s36.5 -57.667 36.5 -99v-238c0 -41.333 -12.167 -74.333 -36.5 -99s-56.833 -37 -97.5 -37h-74
c-52 -0 -87.333 17.333 -106 52h-4v-196c0 -6 -2.66699 -9 -8 -9zM222 28h72c33.333 0 59 9.66699 77 29s27 46 27 80v236c0 34 -9 60.667 -27 80s-43.667 29 -77 29h-72c-33.333 0 -60.333 -9 -81 -27s-31 -43.667 -31 -77v-246c0 -33.333 10.333 -59 31 -77
s47.667 -27 81 -27z" />
    <glyph glyph-name="q" unicode="q" horiz-adv-x="498" 
d="M388 137v337c0 5.33301 -3 8 -9 8h-175c-33.333 0 -59 -9.66699 -77 -29s-27 -46 -27 -80v-236c0 -34 9 -60.667 27 -80s43.667 -29 77 -29h70c34 0 61.5 9.83301 82.5 29.5s31.5 46.167 31.5 79.5zM274 0l-70.001 0.000976562c-40.667 0 -73.167 12.333 -97.5 37
s-36.5 57.667 -36.5 99v238c0 41.333 12.167 74.333 36.5 99s56.833 37 97.5 37h206c5.33301 0 8 -3 8 -9v-645c0 -6 -2.66699 -9 -8 -9h-14c-5.33301 0 -8 3 -8 9v198h-4c-9.33301 -16.667 -21.166 -29.334 -35.499 -38.001s-26.333 -13.5 -36 -14.5s-22.5 -1.5 -38.5 -1.5
z" />
    <glyph glyph-name="r" unicode="r" horiz-adv-x="303" 
d="M102 0l-13.998 0.000976562c-5.33301 0 -8 3 -8 9v492c0 6 2.66699 9 8 9h14c5.33301 0 8 -3 8 -9v-45h4c7.33301 13.333 20.166 25.666 38.499 36.999s42.166 17 71.499 17h40c6 0 9 -2.66699 9 -8v-12c0 -5.33301 -3 -8 -9 -8h-41c-34 0 -61.333 -10.667 -82 -32
s-31 -50.333 -31 -87v-354c0 -6 -2.66699 -9 -8 -9z" />
    <glyph glyph-name="s" unicode="s" horiz-adv-x="429" 
d="M238 0l-169.998 0.000976562c-6 0 -9 2.66699 -9 8v12c0 5.33301 3 8 9 8h170c67.333 0 101 26.667 101 80v30c0 24.667 -4.33301 44.667 -13 60s-24.334 27 -47.001 35l-132 46c-34.667 12 -58.834 26.833 -72.501 44.5s-20.5 42.5 -20.5 74.5
c0 74.667 40.667 112 122 112h161c6 0 9 -2.66699 9 -8v-12c0 -5.33301 -3 -8 -9 -8h-161c-30.667 0 -53.5 -7 -68.5 -21s-22.5 -30 -22.5 -48v-27c0 -21.333 5.5 -37.833 16.5 -49.5s28.167 -21.5 51.5 -29.5l131 -47c35.333 -10 58.333 -26.333 69 -49
s16 -54.334 16 -95.001s-10.667 -70.167 -32 -88.5s-54.333 -27.5 -99 -27.5z" />
    <glyph glyph-name="t" unicode="t" horiz-adv-x="346" 
d="M105 482h-66c-6 0 -9 2.66699 -9 8v12c0 5.33301 3 8 9 8h66c6 0 9 2.66699 9 8v78c0 6 2.66699 9 8 9h14c5.33301 0 8 -3 8 -9v-78c0 -5.33301 3 -8 9 -8h129c6 0 9 -2.66699 9 -8v-12c0 -5.33301 -3 -8 -9 -8h-129c-6 0 -9 -2.66699 -9 -8v-340
c0 -33.333 9.83301 -59.333 29.5 -78s46.5 -28 80.5 -28h38c6 0 9 -2.66699 9 -8v-12c0 -5.33301 -3 -8 -9 -8h-38c-41.333 0 -75 12 -101 36s-39 56.333 -39 97v341c0 5.33301 -3 8 -9 8z" />
    <glyph glyph-name="u" unicode="u" horiz-adv-x="503" 
d="M283 0h-74c-40.667 -0 -73.167 12.333 -97.5 37s-36.5 57.667 -36.5 99v365c0 6 2.66699 9 8 9h14c5.33301 0 8 -3 8 -9v-364c0 -34 9 -60.667 27 -80s43.667 -29 77 -29h72c33.333 0 60.333 9 81 27s31 43.667 31 77v369c0 6 2.66699 9 8 9h14c5.33301 0 8 -3 8 -9v-492
c0 -6 -2.66699 -9 -8 -9h-14c-5.33301 0 -8 3 -8 9v43h-4c-18.667 -34.667 -54 -52 -106 -52z" />
    <glyph glyph-name="v" unicode="v" horiz-adv-x="402" 
d="M27 510h16c4.66699 0 8 -3 10 -9l146 -460h4l146 460c2 6 5.33301 9 10 9h16c6 0 8 -3 6 -9l-158 -492c-2 -6 -5.66699 -9 -11 -9h-22c-5.33301 0 -9 3 -11 9l-158 492c-2 6 0 9 6 9z" />
    <glyph glyph-name="w" unicode="w" horiz-adv-x="679" 
d="M202 0h-20c-5.33301 0 -9 3 -11 9l-150 492c-2 6 0 9 6 9h15c4.66699 0 8 -3 10 -9l138 -460h4l128 460c1.33301 6 5 9 11 9h14c6 0 9.66699 -3 11 -9l126 -460h4l138 460c2 6 5.33301 9 10 9h16c6 0 8 -3 6 -9l-150 -492c-2 -6 -5.66699 -9 -11 -9h-21
c-5.33301 0 -9 3 -11 9l-124 445h-4l-124 -445c-2 -6 -5.66699 -9 -11 -9z" />
    <glyph glyph-name="x" unicode="x" horiz-adv-x="400" 
d="M51 0h-20c-6 0 -7 3 -3 9l150 251l-141 241c-4 6 -3 9 3 9h19c4.66699 0 9 -3 13 -9l126 -218h4l123 218c4 6 8.33301 9 13 9h19c6 0 7 -3 3 -9l-139 -239l151 -253c4 -6 3 -9 -3 -9h-23c-2.66699 0 -6 3 -10 9l-134 231h-4l-134 -231c-4 -6 -8.33301 -9 -13 -9z" />
    <glyph glyph-name="y" unicode="y" horiz-adv-x="456" 
d="M59 -147c-6 0 -8.99805 2.66602 -8.99805 7.99902v12c0 5.33301 3 8 9 8h29c26.667 0 45.5 4.83301 56.5 14.5s19.167 16.667 24.5 21s11.166 13 17.499 26l12.5 25.5c12 26.667 19.667 46.334 23 59.001h-10c-5.33301 0 -9 3 -11 9l-170 465c-2 6 0 9 6 9h16
c4.66699 0 8 -3 10 -9l163 -445h4l163 445c2 6 5.33301 9 10 9h16c6 0 8 -3 6 -9l-170 -465c-20.667 -59.333 -36.334 -97.666 -47.001 -114.999c-28.667 -44.667 -68.667 -67.334 -120 -68.001h-29z" />
    <glyph glyph-name="z" unicode="z" horiz-adv-x="393" 
d="M35 8v9c0 4 0.666992 7 2 9l275 452v4h-262c-6 0 -9 2.66699 -9 8v12c0 5.33301 3 8 9 8h293c6 0 9 -2.66699 9 -8v-12c0 -3.33301 -0.666992 -6 -2 -8l-274 -450v-4h273c6 0 9 -2.66699 9 -8v-12c0 -5.33301 -3 -8 -9 -8h-305c-6 0 -9 2.66699 -9 8z" />
    <glyph glyph-name="braceleft" unicode="{" horiz-adv-x="293" 
d="M220 643h4c6 0 9 -2.66699 9 -8v-12c0 -5.33301 -3 -8 -9 -8h-4c-27.333 0 -46.5 -9.16699 -57.5 -27.5s-16.5 -45.5 -16.5 -81.5v-141c0 -52 -17.333 -83.667 -52 -95c34.667 -11.333 52 -43 52 -95v-140c0 -36 5.5 -63.167 16.5 -81.5s30.167 -27.5 57.5 -27.5h4
c6 0 9 -2.66699 9 -8v-12c0 -5.33301 -3 -8 -9 -8h-4c-34.667 0 -60.667 12 -78 36s-26 57.333 -26 100v140c0 29.333 -5.5 50.333 -16.5 63s-27.833 19 -50.5 19c-6 0 -9 2.66699 -9 8v12c0 5.33301 3 8 9 8c22.667 0 39.5 6.33301 50.5 19s16.5 33.667 16.5 63v141
c0 42.667 8.66699 76 26 100s43.333 36 78 36z" />
    <glyph glyph-name="bar" unicode="|" horiz-adv-x="200" 
d="M115 634v-625c0 -6 -2.66699 -9 -8 -9h-14c-5.33301 0 -8 3 -8 9v625c0 6 2.66699 9 8 9h14c5.33301 0 8 -3 8 -9z" />
    <glyph glyph-name="braceright" unicode="}" horiz-adv-x="293" 
d="M157 507v-141c0 -29.333 5.5 -50.333 16.5 -63s27.833 -19 50.5 -19c6 0 9 -2.66699 9 -8v-12c0 -5.33301 -3 -8 -9 -8c-22.667 0 -39.5 -6.33301 -50.5 -19s-16.5 -33.667 -16.5 -63v-140c0 -42.667 -8.66699 -76 -26 -100s-43.333 -36 -78 -36h-4c-6 0 -9 2.66699 -9 8
v12c0 5.33301 3 8 9 8h4c27.333 0 46.5 9.16699 57.5 27.5s16.5 45.5 16.5 81.5v140c0 52 17.333 83.667 52 95c-34.667 11.333 -52 43 -52 95v141c0 36 -5.5 63.167 -16.5 81.5s-30.167 27.5 -57.5 27.5h-4c-6 0 -9 2.66699 -9 8v12c0 5.33301 3 8 9 8h4
c34.667 0 60.667 -12 78 -36s26 -57.333 26 -100z" />
    <glyph glyph-name="asciitilde" unicode="~" horiz-adv-x="512" 
d="M164 325c-16.667 0 -45.334 -6.66699 -86.001 -20c-5.33301 0 -8 3.33301 -8 10v9c0 4.66699 8.33301 10.667 25 18s37.5 11 62.5 11s58.833 -4.83301 101.5 -14.5s72.334 -14.5 89.001 -14.5s45.334 6.66699 86.001 20c5.33301 0 8 -3.33301 8 -10v-9
c0 -4.66699 -8.33301 -10.667 -25 -18s-37 -11 -61 -11s-57.833 4.83301 -101.5 14.5s-73.834 14.5 -90.501 14.5z" />
    <glyph glyph-name="uni00A0" unicode="&#xa0;" horiz-adv-x="280" 
 />
    <glyph glyph-name="exclamdown" unicode="&#xa1;" horiz-adv-x="237" 
d="M127 506h-17c-5.33301 0 -8 3 -8 9v119c0 6 2.66699 9 8 9h17c5.33301 0 8 -3 8 -9v-119c0 -6 -2.66699 -9 -8 -9zM116 440h4.00098c3.33301 0 5.83301 -5 7.5 -15s3.66699 -53 6 -129s3.5 -143.667 3.5 -203v-84c0 -6 -2.66699 -9 -8 -9h-21c-5.33301 0 -8 3 -8 9v84
c0 180 3 292 9 336c1.33301 7.33301 3.66602 11 6.99902 11z" />
    <glyph glyph-name="cent" unicode="&#xa2;" horiz-adv-x="410" 
d="M267 -89h-14c-5.33301 0 -8 3 -8 9v80h-41c-40.667 -0 -73.167 12.333 -97.5 37s-36.5 57.667 -36.5 99v238c0 41.333 12.167 74.333 36.5 99s56.833 37 97.5 37h41v95c0 6 2.66699 9 8 9h14c5.33301 0 8 -3 8 -9v-95h91c6 0 9 -2.66699 9 -8v-12c0 -5.33301 -3 -8 -9 -8
h-162c-33.333 0 -59 -9.66699 -77 -29s-27 -46 -27 -80v-236c0 -34 9 -60.667 27 -80s43.667 -29 77 -29h162c6 0 9 -2.66699 9 -8v-12c0 -5.33301 -3 -8 -9 -8h-91v-80c0 -6 -2.66699 -9 -8 -9z" />
    <glyph glyph-name="sterling" unicode="&#xa3;" horiz-adv-x="520" 
d="M116 28h325c6 0 9 -2.66699 9 -8v-12c0 -5.33301 -3 -8 -9 -8h-392c-6 0 -9 2.66699 -9 8v12c0 5.33301 3 8 9 8h12c13.333 0 25.5 7.16699 36.5 21.5s16.5 31.166 16.5 50.499v180h-65c-6 0 -9 2.66699 -9 8v12c0 5.33301 3 8 9 8h65v202
c0 41.333 12.167 73.833 36.5 97.5s56.833 35.5 97.5 35.5h65c40.667 0 73.167 -11.833 97.5 -35.5s36.5 -56.167 36.5 -97.5v-29c0 -6 -2.66699 -9 -8 -9h-14c-5.33301 0 -8 3 -8 9v28c0 34 -9 60.167 -27 78.5s-43.667 27.5 -77 27.5h-65
c-33.333 0 -59 -9.16699 -77 -27.5s-27 -44.5 -27 -78.5v-201h176c6 0 9 -2.66699 9 -8v-12c0 -5.33301 -3 -8 -9 -8h-176v-178c0 -17.333 -2 -31.666 -6 -42.999c-6.66699 -18 -14 -27 -22 -27v-4z" />
    <glyph glyph-name="yen" unicode="&#xa5;" horiz-adv-x="487" 
d="M250 0h-14.0029c-5.33301 0 -8 3 -8 9v166h-186c-6 0 -9 2.66699 -9 8v12c0 5.33301 3 8 9 8h186v42l-35 70h-151c-6 0 -9 2.66699 -9 8v12c0 5.33301 3 8 9 8h137l-148 291c-2.66699 6 -1 9 5 9h19c4.66699 0 8.33398 -3 11.001 -9l175 -350h4l175 350
c2.66699 6 6.33398 9 11.001 9h19c6.66699 0 8.33398 -3 5.00098 -9l-147 -291h136c6 0 9 -2.66699 9 -8v-12c0 -5.33301 -3 -8 -9 -8h-150l-36 -70v-42h186c6 0 9 -2.66699 9 -8v-12c0 -5.33301 -3 -8 -9 -8h-186v-166c0 -6 -2.66699 -9 -8 -9z" />
    <glyph glyph-name="brokenbar" unicode="&#xa6;" horiz-adv-x="193" 
d="M113 634v-249c0 -6 -2.66699 -9 -8 -9h-17c-5.33301 0 -8 3 -8 9v249c0 6 2.66699 9 8 9h17c5.33301 0 8 -3 8 -9zM113 258v-249c0 -6 -2.66699 -9 -8 -9h-17c-5.33301 0 -8 3 -8 9v249c0 6 2.66699 9 8 9h17c5.33301 0 8 -3 8 -9z" />
    <glyph glyph-name="section" unicode="&#xa7;" horiz-adv-x="444" 
d="M354 303c0 26 -6.66699 45.165 -20 57.498s-33.333 20.833 -60 25.5l-111 19c-32 6.66699 -56.333 18.334 -73 35.001v-92c0 -50 26 -79.667 78 -89l111 -19c32.667 -5.33301 57.667 -15.666 75 -30.999v94zM253 -0.00195312l-180 -0.000976562c-6 0 -9 2.66699 -9 8v12
c0 5.33301 3 8 9 8h180c40 0 66.833 9.16699 80.5 27.5s20.5 41.833 20.5 70.5s-6.66699 49.167 -20 61.5s-33.333 20.833 -60 25.5l-111 19c-68.667 13.333 -103 52 -103 116v173c0 81.333 40.333 122 121 122h161c6 0 9 -2.66699 9 -8v-12c0 -5.33301 -3 -8 -9 -8h-161
c-28.667 0 -51 -8.16699 -67 -24.5s-24 -38.666 -24 -66.999s5.5 -49.333 16.5 -63s31.5 -23.167 61.5 -28.5l111 -19c34 -6 60 -17.333 78 -34s27 -42 27 -76v-170c0 -41.333 -9.33301 -73.833 -28 -97.5s-53 -35.5 -103 -35.5z" />
    <glyph glyph-name="dieresis" unicode="&#xa8;" horiz-adv-x="326" 
d="M70 583v111c0 6 2.66699 9 8 9h14c5.33301 0 8 -3 8 -9v-111c0 -6 -2.66699 -9 -8 -9h-14c-5.33301 0 -8 3 -8 9zM226 583v111c0 6 2.66699 9 8 9h14c5.33301 0 8 -3 8 -9v-111c0 -6 -2.66699 -9 -8 -9h-14c-5.33301 0 -8 3 -8 9z" />
    <glyph glyph-name="copyright" unicode="&#xa9;" horiz-adv-x="728" 
d="M495 402v-18c0 -6 -2.66699 -9 -8 -9h-14c-5.33301 0 -8 3 -8 9v17c0 33.333 -7.16699 56.5 -21.5 69.5s-38.5 19.5 -72.5 19.5h-21c-34 0 -58.167 -6.5 -72.5 -19.5s-21.5 -36.167 -21.5 -69.5v-166c0 -33.333 7.16699 -56.5 21.5 -69.5s38.5 -19.5 72.5 -19.5h21
c34 0 58.167 6.5 72.5 19.5s21.5 36.167 21.5 69.5v23c0 6 2.66699 9 8 9h14c5.33301 0 8 -3 8 -9v-24c0 -40.667 -10.333 -70.167 -31 -88.5s-51.667 -27.5 -93 -27.5h-21c-41.333 0 -72.333 9.16699 -93 27.5s-31 47.833 -31 88.5v168c0 40.667 10.333 70.167 31 88.5
s51.667 27.5 93 27.5h21c41.333 0 72.333 -9.16699 93 -27.5s31 -47.833 31 -88.5zM209 28h310c33.333 0 59 9.66699 77 29s27 46 27 80v369c0 34 -9 60.667 -27 80s-43.667 29 -77 29h-310c-33.333 0 -59 -9.66699 -77 -29s-27 -46 -27 -80v-369c0 -34 9 -60.667 27 -80
s43.667 -29 77 -29zM209 643h310c40.667 0 73.167 -12.333 97.5 -37s36.5 -57.667 36.5 -99v-371c0 -41.333 -12.167 -74.333 -36.5 -99s-56.833 -37 -97.5 -37h-310c-40.667 -0 -73.167 12.333 -97.5 37s-36.5 57.667 -36.5 99v371c0 41.333 12.167 74.333 36.5 99
s56.833 37 97.5 37z" />
    <glyph glyph-name="guillemotleft" unicode="&#xab;" horiz-adv-x="425" 
d="M355 112v-15.998c0 -4 -1.16699 -6.66699 -3.5 -8s-4.83301 -0.333008 -7.5 3l-133 138c-6 7.33301 -9 13.666 -9 18.999v14c0 5.33301 3 11.666 9 18.999l133 138c2.66699 3.33301 5.16699 4.33301 7.5 3s3.5 -4 3.5 -8v-16c0 -4.66699 -1.66699 -9 -5 -13l-125 -130
l125 -130c3.33301 -4 5 -8.33301 5 -13zM223 112.002v-15.998c0 -4 -1.16699 -6.66699 -3.5 -8s-4.83301 -0.333008 -7.5 3l-133 138c-6 7.33301 -9 13.666 -9 18.999v14c0 5.33301 3 11.666 9 18.999l133 138c2.66699 3.33301 5.16699 4.33301 7.5 3s3.5 -4 3.5 -8v-16
c0 -4.66699 -1.66699 -9 -5 -13l-125 -130l125 -130c3.33301 -4 5 -8.33301 5 -13z" />
    <glyph glyph-name="registered" unicode="&#xae;" horiz-adv-x="430" 
d="M233 625h-47v-69h47c13.333 0 20 7 20 21v28c0 13.333 -6.66699 20 -20 20zM163 477v160c0 6 2.66699 9 8 9h62c13.333 0 23.833 -4 31.5 -12s11.5 -18.667 11.5 -32v-23c0 -22 -8.66699 -36 -26 -42l28 -60c2.66699 -6 1.66699 -9 -3 -9h-10c-4.66699 0 -7.66699 2 -9 6
l-28 61h-42v-58c0 -6 -2.66699 -9 -8 -9h-7c-5.33301 0 -8 3 -8 9zM175 431h79c26 0 46.167 7.66699 60.5 23s21.5 36.333 21.5 63v78c0 26.667 -7.16699 47.667 -21.5 63s-34.5 23 -60.5 23h-79c-26 0 -46.167 -7.66699 -60.5 -23s-21.5 -36.333 -21.5 -63v-78
c0 -26.667 7.16699 -47.667 21.5 -63s34.5 -23 60.5 -23zM254 409h-79c-32 0 -57.5 9.66699 -76.5 29s-28.5 45.333 -28.5 78v80c0 32.667 9.5 58.667 28.5 78s44.5 29 76.5 29h79c32 0 57.667 -9.66699 77 -29s29 -45.333 29 -78v-80c0 -32.667 -9.66699 -58.667 -29 -78
s-45 -29 -77 -29z" />
    <glyph glyph-name="macron" unicode="&#xaf;" horiz-adv-x="362" 
d="M283 627h-204c-6 0 -9 2.66699 -9 8v9c0 5.33301 3 8 9 8h204c6 0 9 -2.66699 9 -8v-9c0 -5.33301 -3 -8 -9 -8z" />
    <glyph glyph-name="degree" unicode="&#xb0;" horiz-adv-x="276" 
d="M156 511h-37c-32.667 0 -49 16.333 -49 49v97c0 31.333 16.333 47 49 47h37c15.333 0 27.5 -4.16699 36.5 -12.5s13.5 -19.833 13.5 -34.5v-97c0 -15.333 -4.5 -27.333 -13.5 -36s-21.167 -13 -36.5 -13zM144 536c14 0 23.167 2.33301 27.5 7s6.5 14 6.5 28v72
c0 14 -2.16699 23.333 -6.5 28s-13.5 7 -27.5 7h-12c-14 0 -23.167 -2.33301 -27.5 -7s-6.5 -14 -6.5 -28v-72c0 -14 2.16699 -23.333 6.5 -28s13.5 -7 27.5 -7h12z" />
    <glyph glyph-name="plusminus" unicode="&#xb1;" horiz-adv-x="512" 
d="M271 378h162c6 0 9 -2.66699 9 -8v-12c0 -5.33301 -3 -8 -9 -8h-162v-120c0 -6 -2.66699 -9 -8 -9h-14c-5.33301 0 -8 3 -8 9v120h-162c-6 0 -9 2.66699 -9 8v12c0 5.33301 3 8 9 8h162v120c0 6 2.66699 9 8 9h14c5.33301 0 8 -3 8 -9v-120zM79 163h354
c6 0 9 -2.66699 9 -8v-12c0 -5.33301 -3 -8 -9 -8h-354c-6 0 -9 2.66699 -9 8v12c0 5.33301 3 8 9 8z" />
    <glyph glyph-name="acute" unicode="&#xb4;" horiz-adv-x="261" 
d="M155 703l30 0.000976562c2.66699 0 4.5 -0.833008 5.5 -2.5s0.5 -3.83398 -1.5 -6.50098l-92 -112c-4 -5.33301 -8.66699 -8 -14 -8h-8c-5.33301 0 -6.33301 3 -3 9l68 111c2.66699 6 7.66699 9 15 9z" />
    <glyph glyph-name="paragraph" unicode="&#xb6;" horiz-adv-x="504" 
d="M192 0h-14c-5.33301 0 -8 3 -8 9v314c-40 0.666992 -70 10.167 -90 28.5s-30 47.5 -30 87.5v88c0 40.667 10.333 70.167 31 88.5s51.667 27.5 93 27.5h231c6 0 9 -2.66699 9 -8v-626c0 -6 -2.66699 -9 -8 -9h-14c-5.33301 0 -8 3 -8 9v596c0 5.33301 -3 8 -9 8h-166
c-6 0 -9 -2.66699 -9 -8v-596c0 -6 -2.66699 -9 -8 -9z" />
    <glyph glyph-name="periodcentered" unicode="&#xb7;" horiz-adv-x="207" 
d="M122 378v-119c0 -6 -2.66699 -9 -8 -9h-21c-5.33301 0 -8 3 -8 9v119c0 6 2.66699 9 8 9h21c5.33301 0 8 -3 8 -9z" />
    <glyph glyph-name="cedilla" unicode="&#xb8;" horiz-adv-x="254" 
d="M105 -54c26.667 0 46.499 -4.33105 59.499 -12.998s19.5 -23.334 19.5 -44.001v-10c0 -38 -26.333 -57 -79 -57h-19c-6 0 -9 2.66699 -9 8v10c0 5.33301 3 8 9 8h16c36.667 0 55 11.333 55 34v2c0 13.333 -4 22.666 -12 27.999s-22.333 8 -43 8h-9
c-11.333 0 -18.666 4 -21.999 12s-1.33301 15.667 6 23l58 65h35l-65 -70v-4z" />
    <glyph glyph-name="guillemotright" unicode="&#xbb;" horiz-adv-x="425" 
d="M202 398v15.998c0 4 1 6.66699 3 8s4.66699 0.333008 8 -3l133 -138c6 -7.33301 9 -13.666 9 -18.999v-14c0 -5.33301 -3 -11.666 -9 -18.999l-133 -138c-3.33301 -3.33301 -6 -4.33301 -8 -3s-3 4 -3 8v16c0 4.66699 1.66699 9 5 13l125 130l-125 130
c-3.33301 4 -5 8.33301 -5 13zM70 397.998v15.998c0 4 1 6.66699 3 8s4.66699 0.333008 8 -3l133 -138c6 -7.33301 9 -13.666 9 -18.999v-14c0 -5.33301 -3 -11.666 -9 -18.999l-133 -138c-3.33301 -3.33301 -6 -4.33301 -8 -3s-3 4 -3 8v16c0 4.66699 1.66699 9 5 13
l125 130l-125 130c-3.33301 4 -5 8.33301 -5 13z" />
    <glyph glyph-name="questiondown" unicode="&#xbf;" horiz-adv-x="475" 
d="M209 514v119c0 6 2.66699 9 8 9h21c5.33301 0 8 -3 8 -9v-119c0 -6 -2.66699 -9 -8 -9h-21c-5.33301 0 -8 3 -8 9zM212 391l0.000976562 38.9951c0 6 2.66699 9 8 9h14c5.33301 0 8 -3 8 -9v-35c0 -28.667 -3.83301 -50.667 -11.5 -66s-23.834 -33.666 -48.501 -54.999
l-31 -28c-27.333 -23.333 -41 -49.666 -41 -78.999v-33c0 -34 9 -60.167 27 -78.5s43.667 -27.5 77 -27.5h47c33.333 0 59 9.16699 77 27.5s27 44.5 27 78.5v47c0 6 2.66699 9 8 9h14c5.33301 0 8 -3 8 -9v-48c0 -41.333 -12.167 -73.833 -36.5 -97.5
s-56.833 -35.5 -97.5 -35.5h-47c-40.667 0 -73.167 11.833 -97.5 35.5s-36.5 56.167 -36.5 97.5v35c0 36.667 16 68.334 48 95.001l40 34c20 16.667 32.333 30.834 37 42.501s7 28.834 7 51.501z" />
    <glyph glyph-name="Agrave" unicode="&#xc0;" horiz-adv-x="526" 
d="M263 707l-8 -0.000976562c-5.33301 0 -10 2.66699 -14 8l-92 112c-2 2.66699 -2.5 4.83398 -1.5 6.50098s2.83301 2.5 5.5 2.5h30c7.33301 0 12.333 -3 15 -9l68 -111c3.33301 -6 2.33301 -9 -3 -9zM51 -0.000976562h-13.999c-6 0 -8 3 -6 9l210 625c2 6 5.33301 9 10 9
h24c4.66699 0 8 -3 10 -9l210 -625c2 -6 0 -9 -6 -9h-15c-4.66699 0 -8 3 -10 9l-61 174h-280l-61 -174c-2.66699 -6 -6.33398 -9 -11.001 -9zM261.001 604.999l-127 -392h258l-127 392h-4z" />
    <glyph glyph-name="Aacute" unicode="&#xc1;" horiz-adv-x="526" 
d="M344 836l30 0.000976562c2.66699 0 4.5 -0.833008 5.5 -2.5s0.5 -3.83398 -1.5 -6.50098l-92 -112c-4 -5.33301 -8.66699 -8 -14 -8h-8c-5.33301 0 -6.33301 3 -3 9l68 111c3.33301 6 8.33301 9 15 9zM51 0.000976562h-13.999c-6 0 -8 3 -6 9l210 625c2 6 5.33301 9 10 9
h24c4.66699 0 8 -3 10 -9l210 -625c2 -6 0 -9 -6 -9h-15c-4.66699 0 -8 3 -10 9l-61 174h-280l-61 -174c-2.66699 -6 -6.33398 -9 -11.001 -9zM261.001 605.001l-127 -392h258l-127 392h-4z" />
    <glyph glyph-name="Acircumflex" unicode="&#xc2;" horiz-adv-x="526" 
d="M347 707h-14.002c-6 0 -9.66699 1.66699 -11 5l-59 105l-59 -105c-1.33301 -3.33301 -5 -5 -11 -5h-14c-7.33301 0 -8.66602 3.66699 -3.99902 11l64 109c4 6 10.333 9 19 9h10c8.66699 0 15 -3 19 -9l64 -109c4.66699 -7.33301 3.33398 -11 -3.99902 -11zM50.998 0
h-13.999c-6 0 -8 3 -6 9l210 625c2 6 5.33301 9 10 9h24c4.66699 0 8 -3 10 -9l210 -625c2 -6 0 -9 -6 -9h-15c-4.66699 0 -8 3 -10 9l-61 174h-280l-61 -174c-2.66699 -6 -6.33398 -9 -11.001 -9zM260.999 605l-127 -392h258l-127 392h-4z" />
    <glyph glyph-name="Atilde" unicode="&#xc3;" horiz-adv-x="526" 
d="M251.5 714c-8.33301 -8 -21.832 -12.001 -40.499 -12.001s-31.834 5.83301 -39.501 17.5s-11.5 31.834 -11.5 60.501v39c0 6 2.66699 9 8 9h7c5.33301 0 8 -3 8 -9v-38c0 -22 2.16699 -37.167 6.5 -45.5s12.166 -12.5 23.499 -12.5s19.166 3.33301 23.499 10
s10 21.167 17 43.5s14.333 37 22 44s20.834 10.5 39.501 10.5s31.834 -5.83301 39.501 -17.5s11.5 -31.834 11.5 -60.501v-42c0 -6 -2.66699 -9 -8 -9h-7c-5.33301 0 -8 3 -8 9v41c0 22 -2.16699 37.167 -6.5 45.5s-12.833 12.5 -25.5 12.5s-21.667 -6 -27 -18
c-1.33301 -3.33301 -5 -15.166 -11 -35.499s-13.167 -34.5 -21.5 -42.5zM51.001 -0.000976562h-13.999c-6 0 -8 3 -6 9l210 625c2 6 5.33301 9 10 9h24c4.66699 0 8 -3 10 -9l210 -625c2 -6 0 -9 -6 -9h-15c-4.66699 0 -8 3 -10 9l-61 174h-280l-61 -174
c-2.66699 -6 -6.33398 -9 -11.001 -9zM261.002 604.999l-127 -392h258l-127 392h-4z" />
    <glyph glyph-name="Adieresis" unicode="&#xc4;" horiz-adv-x="526" 
d="M170 716v111c0 6 2.66699 9 8 9h14c5.33301 0 8 -3 8 -9v-111c0 -6 -2.66699 -9 -8 -9h-14c-5.33301 0 -8 3 -8 9zM326 716v111c0 6 2.66699 9 8 9h14c5.33301 0 8 -3 8 -9v-111c0 -6 -2.66699 -9 -8 -9h-14c-5.33301 0 -8 3 -8 9zM51 0h-13.999c-6 0 -8 3 -6 9l210 625
c2 6 5.33301 9 10 9h24c4.66699 0 8 -3 10 -9l210 -625c2 -6 0 -9 -6 -9h-15c-4.66699 0 -8 3 -10 9l-61 174h-280l-61 -174c-2.66699 -6 -6.33398 -9 -11.001 -9zM261.001 605l-127 -392h258l-127 392h-4z" />
    <glyph glyph-name="Aring" unicode="&#xc5;" horiz-adv-x="526" 
d="M266 692l-10 0.00195312c-24.667 0 -43.5 6.83301 -56.5 20.5s-19.5 33.167 -19.5 58.5v22c0 25.333 6.5 44.666 19.5 57.999s31.833 20 56.5 20h10c24.667 0 43.834 -6.83301 57.501 -20.5s20.5 -32.834 20.5 -57.501v-22c0 -24.667 -6.83301 -44 -20.5 -58
s-32.834 -21 -57.501 -21zM256 715.002h10c35.333 0 53 19 53 57v20c0 37.333 -17.667 56 -53 56h-10c-34.667 0 -52 -18.667 -52 -56v-20c0 -38 17.333 -57 52 -57zM51 0.00195312h-13.999c-6 0 -8 3 -6 9l210 625c2 6 5.33301 9 10 9h24c4.66699 0 8 -3 10 -9l210 -625
c2 -6 0 -9 -6 -9h-15c-4.66699 0 -8 3 -10 9l-61 174h-280l-61 -174c-2.66699 -6 -6.33398 -9 -11.001 -9zM261.001 605.002l-127 -392h258l-127 392h-4z" />
    <glyph glyph-name="AE" unicode="&#xc6;" horiz-adv-x="771" 
d="M24 0h-19c-6 0 -7.33301 3 -4 9l355 625c3.33301 6 8 9 14 9h322c6 0 9 -2.66699 9 -8v-12c0 -5.33301 -3 -8 -9 -8h-273c-6 0 -9 -2.66699 -9 -8v-257c0 -5.33301 3 -8 9 -8h247c6 0 9 -2.66699 9 -8v-12c0 -5.33301 -3 -8 -9 -8h-247c-6 0 -9 -2.66699 -9 -8v-270
c0 -5.33301 3 -8 9 -8h273c6 0 9 -2.66699 9 -8v-12c0 -5.33301 -3 -8 -9 -8h-304c-5.33301 0 -8 3 -8 9v174h-245l-99 -174c-3.33301 -6 -7.33301 -9 -12 -9zM380 213v394h-4l-224 -394h228z" />
    <glyph glyph-name="Ccedilla" unicode="&#xc7;" horiz-adv-x="543" 
d="M470 448l-14 0.00195312c-5.33301 0 -8 3 -8 9v49c0 34 -9 60.667 -27 80s-43.667 29 -77 29h-130c-33.333 0 -59 -9.66699 -77 -29s-27 -46 -27 -80v-369c0 -34 9 -60.667 27 -80s43.667 -29 77 -29h130c33.333 0 59 9.66699 77 29s27 46 27 80v49c0 6 2.66699 9 8 9h14
c5.33301 0 8 -3 8 -9v-50c0 -41.333 -12.167 -74.333 -36.5 -99s-56.833 -37 -97.5 -37h-26l-46 -50v-4c26.667 0 46.5 -4.33301 59.5 -13s19.5 -23.334 19.5 -44.001v-10c0 -38 -26.333 -57 -79 -57h-19c-6 0 -9 2.66699 -9 8v10c0 5.33301 3 8 9 8h16
c20 0 34.167 2.5 42.5 7.5s12.5 13.833 12.5 26.5v2c0 13.333 -4 22.666 -12 27.999s-22.333 8 -43 8h-9c-12 0 -19.5 4 -22.5 12s-0.833008 15.667 6.5 23l40 45h-70c-40.667 -0 -73.167 12.333 -97.5 37s-36.5 57.667 -36.5 99v371c0 41.333 12.167 74.333 36.5 99
s56.833 37 97.5 37h130c40.667 0 73.167 -12.333 97.5 -37s36.5 -57.667 36.5 -99v-50c0 -6 -2.66699 -9 -8 -9z" />
    <glyph glyph-name="Egrave" unicode="&#xc8;" horiz-adv-x="481" 
d="M268 707l-8 -0.000976562c-5.33301 0 -10 2.66699 -14 8l-92 112c-2 2.66699 -2.5 4.83398 -1.5 6.50098s2.83301 2.5 5.5 2.5h30c6.66699 0 11.667 -3 15 -9l68 -111c3.33301 -6 2.33301 -9 -3 -9zM402 -0.000976562h-304c-5.33301 0 -8 3 -8 9v625c0 6 2.66699 9 8 9
h304c6 0 9 -2.66699 9 -8v-12c0 -5.33301 -3 -8 -9 -8h-273c-6 0 -9 -2.66699 -9 -8v-257c0 -5.33301 3 -8 9 -8h247c6 0 9 -2.66699 9 -8v-12c0 -5.33301 -3 -8 -9 -8h-247c-6 0 -9 -2.66699 -9 -8v-270c0 -5.33301 3 -8 9 -8h273c6 0 9 -2.66699 9 -8v-12
c0 -5.33301 -3 -8 -9 -8z" />
    <glyph glyph-name="Eacute" unicode="&#xc9;" horiz-adv-x="481" 
d="M319 836l30 0.000976562c2.66699 0 4.5 -0.833008 5.5 -2.5s0.5 -3.83398 -1.5 -6.50098l-92 -112c-4 -5.33301 -8.66699 -8 -14 -8h-8c-5.33301 0 -6.33301 3 -3 9l68 111c2.66699 6 7.66699 9 15 9zM402 0.000976562h-304c-5.33301 0 -8 3 -8 9v625c0 6 2.66699 9 8 9
h304c6 0 9 -2.66699 9 -8v-12c0 -5.33301 -3 -8 -9 -8h-273c-6 0 -9 -2.66699 -9 -8v-257c0 -5.33301 3 -8 9 -8h247c6 0 9 -2.66699 9 -8v-12c0 -5.33301 -3 -8 -9 -8h-247c-6 0 -9 -2.66699 -9 -8v-270c0 -5.33301 3 -8 9 -8h273c6 0 9 -2.66699 9 -8v-12
c0 -5.33301 -3 -8 -9 -8z" />
    <glyph glyph-name="Ecircumflex" unicode="&#xca;" horiz-adv-x="481" 
d="M334 707h-14.002c-5.33301 0 -9 1.66699 -11 5l-59 105l-59 -105c-2 -3.33301 -5.66699 -5 -11 -5h-14c-7.33301 0 -8.66602 3.66699 -3.99902 11l64 109c4 6 10.333 9 19 9h10c8.66699 0 15 -3 19 -9l64 -109c4.66699 -7.33301 3.33398 -11 -3.99902 -11zM401.998 0
h-304c-5.33301 0 -8 3 -8 9v625c0 6 2.66699 9 8 9h304c6 0 9 -2.66699 9 -8v-12c0 -5.33301 -3 -8 -9 -8h-273c-6 0 -9 -2.66699 -9 -8v-257c0 -5.33301 3 -8 9 -8h247c6 0 9 -2.66699 9 -8v-12c0 -5.33301 -3 -8 -9 -8h-247c-6 0 -9 -2.66699 -9 -8v-270
c0 -5.33301 3 -8 9 -8h273c6 0 9 -2.66699 9 -8v-12c0 -5.33301 -3 -8 -9 -8z" />
    <glyph glyph-name="Edieresis" unicode="&#xcb;" horiz-adv-x="481" 
d="M157 716v111c0 6 2.66699 9 8 9h14c5.33301 0 8 -3 8 -9v-111c0 -6 -2.66699 -9 -8 -9h-14c-5.33301 0 -8 3 -8 9zM313 716v111c0 6 2.66699 9 8 9h14c5.33301 0 8 -3 8 -9v-111c0 -6 -2.66699 -9 -8 -9h-14c-5.33301 0 -8 3 -8 9zM402 0h-304c-5.33301 0 -8 3 -8 9v625
c0 6 2.66699 9 8 9h304c6 0 9 -2.66699 9 -8v-12c0 -5.33301 -3 -8 -9 -8h-273c-6 0 -9 -2.66699 -9 -8v-257c0 -5.33301 3 -8 9 -8h247c6 0 9 -2.66699 9 -8v-12c0 -5.33301 -3 -8 -9 -8h-247c-6 0 -9 -2.66699 -9 -8v-270c0 -5.33301 3 -8 9 -8h273c6 0 9 -2.66699 9 -8
v-12c0 -5.33301 -3 -8 -9 -8z" />
    <glyph glyph-name="Igrave" unicode="&#xcc;" horiz-adv-x="220" 
d="M115 707l-8 -0.000976562c-5.33301 0 -10 2.66699 -14 8l-92 112c-2 2.66699 -2.5 4.83398 -1.5 6.50098s2.83301 2.5 5.5 2.5h30c7.33301 0 12.333 -3 15 -9l68 -111c3.33301 -6 2.33301 -9 -3 -9zM125 633.999v-625c0 -6 -2.66699 -9 -8 -9h-14c-5.33301 0 -8 3 -8 9
v625c0 6 2.66699 9 8 9h14c5.33301 0 8 -3 8 -9z" />
    <glyph glyph-name="Iacute" unicode="&#xcd;" horiz-adv-x="221" 
d="M186 836l30 0.000976562c2.66699 0 4.5 -0.833008 5.5 -2.5s0.5 -3.83398 -1.5 -6.50098l-92 -112c-4 -5.33301 -8.66699 -8 -14 -8h-8c-5.33301 0 -6.33301 3 -3 9l68 111c3.33301 6 8.33301 9 15 9zM125 634.001v-625c0 -6 -2.66699 -9 -8 -9h-14c-5.33301 0 -8 3 -8 9
v625c0 6 2.66699 9 8 9h14c5.33301 0 8 -3 8 -9z" />
    <glyph glyph-name="Icircumflex" unicode="&#xce;" horiz-adv-x="220" 
d="M194 707h-14.002c-5.33301 0 -9 1.66699 -11 5l-59 105l-59 -105c-2 -3.33301 -5.66699 -5 -11 -5h-14c-7.33301 0 -8.66602 3.66699 -3.99902 11l64 109c4 6 10.333 9 19 9h10c8.66699 0 15 -3 19 -9l64 -109c4.66699 -7.33301 3.33398 -11 -3.99902 -11zM124.998 634
v-625c0 -6 -2.66699 -9 -8 -9h-14c-5.33301 0 -8 3 -8 9v625c0 6 2.66699 9 8 9h14c5.33301 0 8 -3 8 -9z" />
    <glyph glyph-name="Idieresis" unicode="&#xcf;" horiz-adv-x="220" 
d="M17 716v111c0 6 2.66699 9 8 9h14c5.33301 0 8 -3 8 -9v-111c0 -6 -2.66699 -9 -8 -9h-14c-5.33301 0 -8 3 -8 9zM173 716v111c0 6 2.66699 9 8 9h14c5.33301 0 8 -3 8 -9v-111c0 -6 -2.66699 -9 -8 -9h-14c-5.33301 0 -8 3 -8 9zM125 634v-625c0 -6 -2.66699 -9 -8 -9
h-14c-5.33301 0 -8 3 -8 9v625c0 6 2.66699 9 8 9h14c5.33301 0 8 -3 8 -9z" />
    <glyph glyph-name="Eth" unicode="&#xd0;" horiz-adv-x="500" 
d="M129 28h215c33.333 0 59 9.66699 77 29s27 46 27 80v369c0 34 -9 60.667 -27 80s-43.667 29 -77 29h-215c-6 0 -9 -2.66699 -9 -8v-259c0 -5.33301 3 -8 9 -8h166c6 0 9 -2.66699 9 -8v-12c0 -5.33301 -3 -8 -9 -8h-166c-6 0 -9 -2.66699 -9 -8v-268
c0 -5.33301 3 -8 9 -8zM344 0h-246c-5.33301 0 -8 3 -8 9v295c0 5.33301 -3 8 -9 8h-46c-6 0 -9 2.66699 -9 8v12c0 5.33301 3 8 9 8h46c6 0 9 2.66699 9 8v286c0 6 2.66699 9 8 9h246c40.667 0 73.167 -12.333 97.5 -37s36.5 -57.667 36.5 -99v-371
c0 -41.333 -12.167 -74.333 -36.5 -99s-56.833 -37 -97.5 -37z" />
    <glyph glyph-name="Ntilde" unicode="&#xd1;" horiz-adv-x="578" 
d="M277.5 714c-8.33301 -8 -21.832 -12.001 -40.499 -12.001s-31.834 5.83301 -39.501 17.5s-11.5 31.834 -11.5 60.501v39c0 6 2.66699 9 8 9h7c5.33301 0 8 -3 8 -9v-38c0 -22 2.16699 -37.167 6.5 -45.5s12.166 -12.5 23.499 -12.5s19.166 3.33301 23.499 10
s10 21.167 17 43.5s14.333 37 22 44s20.834 10.5 39.501 10.5s31.834 -5.83301 39.501 -17.5s11.5 -31.834 11.5 -60.501v-42c0 -6 -2.66699 -9 -8 -9h-7c-5.33301 0 -8 3 -8 9v41c0 22 -2.16699 37.167 -6.5 45.5s-12.833 12.5 -25.5 12.5s-21.667 -6 -27 -18
c-1.33301 -3.33301 -5 -15.166 -11 -35.499s-13.167 -34.5 -21.5 -42.5zM112.001 -0.000976562h-13.999c-5.33301 0 -8 3 -8 9v625c0 6 2.66699 9 8 9h14c3.33301 0 5.66602 -1.33301 6.99902 -4l335 -567h4v562c0 6 2.66699 9 8 9h14c5.33301 0 8 -3 8 -9v-625
c0 -6 -2.66699 -9 -8 -9h-10c-4.66699 0 -8.66699 2.66699 -12 8l-334 565h-4v-564c0 -6 -2.66699 -9 -8 -9z" />
    <glyph glyph-name="Ograve" unicode="&#xd2;" horiz-adv-x="553" 
d="M286 707l-8 -0.000976562c-5.33301 0 -10 2.66699 -14 8l-92 112c-2 2.66699 -2.5 4.83398 -1.5 6.50098s2.83301 2.5 5.5 2.5h30c6.66699 0 11.667 -3 15 -9l68 -111c3.33301 -6 2.33301 -9 -3 -9zM214 27.999h125c33.333 0 59 9.66699 77 29s27 46 27 80v369
c0 34 -9 60.667 -27 80s-43.667 29 -77 29h-125c-33.333 0 -59 -9.66699 -77 -29s-27 -46 -27 -80v-369c0 -34 9 -60.667 27 -80s43.667 -29 77 -29zM339 -0.000976562h-125c-40.667 0 -73.167 12.333 -97.5 37s-36.5 57.667 -36.5 99v371c0 41.333 12.167 74.333 36.5 99
s56.833 37 97.5 37h125c40.667 0 73.167 -12.333 97.5 -37s36.5 -57.667 36.5 -99v-371c0 -41.333 -12.167 -74.333 -36.5 -99s-56.833 -37 -97.5 -37z" />
    <glyph glyph-name="Oacute" unicode="&#xd3;" horiz-adv-x="553" 
d="M345 836l30 0.000976562c2.66699 0 4.5 -0.833008 5.5 -2.5s0.5 -3.83398 -1.5 -6.50098l-92 -112c-4 -5.33301 -8.66699 -8 -14 -8h-8c-5.33301 0 -6.33301 3 -3 9l68 111c2.66699 6 7.66699 9 15 9zM214 28.001h125c33.333 0 59 9.66699 77 29s27 46 27 80v369
c0 34 -9 60.667 -27 80s-43.667 29 -77 29h-125c-33.333 0 -59 -9.66699 -77 -29s-27 -46 -27 -80v-369c0 -34 9 -60.667 27 -80s43.667 -29 77 -29zM339 0.000976562h-125c-40.667 0 -73.167 12.333 -97.5 37s-36.5 57.667 -36.5 99v371c0 41.333 12.167 74.333 36.5 99
s56.833 37 97.5 37h125c40.667 0 73.167 -12.333 97.5 -37s36.5 -57.667 36.5 -99v-371c0 -41.333 -12.167 -74.333 -36.5 -99s-56.833 -37 -97.5 -37z" />
    <glyph glyph-name="Ocircumflex" unicode="&#xd4;" horiz-adv-x="553" 
d="M360 707h-14.002c-5.33301 0 -9 1.66699 -11 5l-59 105l-59 -105c-2 -3.33301 -5.66699 -5 -11 -5h-14c-7.33301 0 -8.66602 3.66699 -3.99902 11l64 109c4 6 10.333 9 19 9h10c8.66699 0 15 -3 19 -9l64 -109c4.66699 -7.33301 3.33398 -11 -3.99902 -11zM213.998 28
h125c33.333 0 59 9.66699 77 29s27 46 27 80v369c0 34 -9 60.667 -27 80s-43.667 29 -77 29h-125c-33.333 0 -59 -9.66699 -77 -29s-27 -46 -27 -80v-369c0 -34 9 -60.667 27 -80s43.667 -29 77 -29zM338.998 0h-125c-40.667 -0 -73.167 12.333 -97.5 37
s-36.5 57.667 -36.5 99v371c0 41.333 12.167 74.333 36.5 99s56.833 37 97.5 37h125c40.667 0 73.167 -12.333 97.5 -37s36.5 -57.667 36.5 -99v-371c0 -41.333 -12.167 -74.333 -36.5 -99s-56.833 -37 -97.5 -37z" />
    <glyph glyph-name="Otilde" unicode="&#xd5;" horiz-adv-x="553" 
d="M264.5 714c-8.33301 -8 -21.832 -12.001 -40.499 -12.001s-31.834 5.83301 -39.501 17.5s-11.5 31.834 -11.5 60.501v39c0 6 2.66699 9 8 9h7c5.33301 0 8 -3 8 -9v-38c0 -22 2.16699 -37.167 6.5 -45.5s12.166 -12.5 23.499 -12.5s19.166 3.33301 23.499 10
s10 21.167 17 43.5s14.333 37 22 44s20.834 10.5 39.501 10.5s31.834 -5.83301 39.501 -17.5s11.5 -31.834 11.5 -60.501v-42c0 -6 -2.66699 -9 -8 -9h-7c-5.33301 0 -8 3 -8 9v41c0 22 -2.16699 37.167 -6.5 45.5s-12.833 12.5 -25.5 12.5s-21.667 -6 -27 -18
c-1.33301 -3.33301 -5 -15.166 -11 -35.499s-13.167 -34.5 -21.5 -42.5zM214.001 27.999h125c33.333 0 59 9.66699 77 29s27 46 27 80v369c0 34 -9 60.667 -27 80s-43.667 29 -77 29h-125c-33.333 0 -59 -9.66699 -77 -29s-27 -46 -27 -80v-369c0 -34 9 -60.667 27 -80
s43.667 -29 77 -29zM339.001 -0.000976562h-125c-40.667 0 -73.167 12.333 -97.5 37s-36.5 57.667 -36.5 99v371c0 41.333 12.167 74.333 36.5 99s56.833 37 97.5 37h125c40.667 0 73.167 -12.333 97.5 -37s36.5 -57.667 36.5 -99v-371c0 -41.333 -12.167 -74.333 -36.5 -99
s-56.833 -37 -97.5 -37z" />
    <glyph glyph-name="Odieresis" unicode="&#xd6;" horiz-adv-x="553" 
d="M183 716v111c0 6 2.66699 9 8 9h14c5.33301 0 8 -3 8 -9v-111c0 -6 -2.66699 -9 -8 -9h-14c-5.33301 0 -8 3 -8 9zM339 716v111c0 6 2.66699 9 8 9h14c5.33301 0 8 -3 8 -9v-111c0 -6 -2.66699 -9 -8 -9h-14c-5.33301 0 -8 3 -8 9zM214 28h125c33.333 0 59 9.66699 77 29
s27 46 27 80v369c0 34 -9 60.667 -27 80s-43.667 29 -77 29h-125c-33.333 0 -59 -9.66699 -77 -29s-27 -46 -27 -80v-369c0 -34 9 -60.667 27 -80s43.667 -29 77 -29zM339 0h-125c-40.667 -0 -73.167 12.333 -97.5 37s-36.5 57.667 -36.5 99v371
c0 41.333 12.167 74.333 36.5 99s56.833 37 97.5 37h125c40.667 0 73.167 -12.333 97.5 -37s36.5 -57.667 36.5 -99v-371c0 -41.333 -12.167 -74.333 -36.5 -99s-56.833 -37 -97.5 -37z" />
    <glyph glyph-name="multiply" unicode="&#xd7;" horiz-adv-x="485" 
d="M264 321l117 -117c4.66699 -4.66699 4.66699 -8.66699 0 -12l-10 -10c-3.33301 -4.66699 -7.33301 -4.66699 -12 0l-117 117l-117 -117c-4.66699 -4.66699 -8.66699 -4.66699 -12 0l-10 10c-4.66699 3.33301 -4.66699 7.33301 0 12l117 117l-117 117
c-4.66699 4.66699 -4.66699 8.66699 0 12l10 10c3.33301 4.66699 7.33301 4.66699 12 0l117 -117l117 117c4.66699 4.66699 8.66699 4.66699 12 0l10 -10c4.66699 -3.33301 4.66699 -7.33301 0 -12z" />
    <glyph glyph-name="Oslash" unicode="&#xd8;" horiz-adv-x="553" 
d="M473 507v-370.998c0 -41.333 -12.167 -74.333 -36.5 -99s-56.833 -37 -97.5 -37h-125c-52 0 -89.333 18.667 -112 56l-31 -43c-4 -4.66699 -8.33301 -5.66699 -13 -3l-9 6c-4 3.33301 -4 8 0 14l39 54c-5.33301 17.333 -8 34.666 -8 51.999v371
c0 41.333 12.167 74.333 36.5 99s56.833 37 97.5 37h125c50.667 0 88 -18.333 112 -55l30 41c4 5.33301 8.33301 6.66602 13 3.99902l9 -6c4.66699 -3.33301 4.66699 -8 0 -14l-38 -53c5.33301 -17.333 8 -35 8 -53zM110 506.002v-369c0 -9.33301 0.333008 -16.333 1 -21
l321 446c-15.333 35.333 -46.333 53 -93 53h-125c-33.333 0 -59 -9.66699 -77 -29s-27 -46 -27 -80zM443 137.002v369c0 10 -0.333008 17.333 -1 22l-321 -446c15.333 -36 46.333 -54 93 -54h125c33.333 0 59 9.66699 77 29s27 46 27 80z" />
    <glyph glyph-name="Ugrave" unicode="&#xd9;" horiz-adv-x="550" 
d="M292 707l-8 -0.000976562c-5.33301 0 -10 2.66699 -14 8l-92 112c-2 2.66699 -2.5 4.83398 -1.5 6.50098s2.83301 2.5 5.5 2.5h30c6.66699 0 11.667 -3 15 -9l68 -111c3.33301 -6 2.33301 -9 -3 -9zM443 642.999h14c5.33301 0 8 -2.66699 8 -8v-499
c0 -41.333 -12.167 -74.333 -36.5 -99s-56.833 -37 -97.5 -37h-112c-40.667 0 -73.167 12.333 -97.5 37s-36.5 57.667 -36.5 99v498c0 6 2.66699 9 8 9h14c5.33301 0 8 -3 8 -9v-497c0 -34 9 -60.667 27 -80s43.667 -29 77 -29h112c33.333 0 59 9.66699 77 29s27 46 27 80
v497c0 6 2.66699 9 8 9z" />
    <glyph glyph-name="Uacute" unicode="&#xda;" horiz-adv-x="550" 
d="M343 836l30 0.000976562c2.66699 0 4.5 -0.833008 5.5 -2.5s0.5 -3.83398 -1.5 -6.50098l-92 -112c-4 -5.33301 -8.66699 -8 -14 -8h-8c-5.33301 0 -6.33301 3 -3 9l68 111c2.66699 6 7.66699 9 15 9zM443 643.001h14c5.33301 0 8 -2.66699 8 -8v-499
c0 -41.333 -12.167 -74.333 -36.5 -99s-56.833 -37 -97.5 -37h-112c-40.667 0 -73.167 12.333 -97.5 37s-36.5 57.667 -36.5 99v498c0 6 2.66699 9 8 9h14c5.33301 0 8 -3 8 -9v-497c0 -34 9 -60.667 27 -80s43.667 -29 77 -29h112c33.333 0 59 9.66699 77 29s27 46 27 80
v497c0 6 2.66699 9 8 9z" />
    <glyph glyph-name="Ucircumflex" unicode="&#xdb;" horiz-adv-x="550" 
d="M359 707h-14.002c-6 0 -9.66699 1.66699 -11 5l-59 105l-59 -105c-1.33301 -3.33301 -5 -5 -11 -5h-14c-7.33301 0 -8.66602 3.66699 -3.99902 11l64 109c4 6 10.333 9 19 9h10c8.66699 0 15 -3 19 -9l64 -109c4.66699 -7.33301 3.33398 -11 -3.99902 -11zM442.998 643
h14c5.33301 0 8 -2.66699 8 -8v-499c0 -41.333 -12.167 -74.333 -36.5 -99s-56.833 -37 -97.5 -37h-112c-40.667 -0 -73.167 12.333 -97.5 37s-36.5 57.667 -36.5 99v498c0 6 2.66699 9 8 9h14c5.33301 0 8 -3 8 -9v-497c0 -34 9 -60.667 27 -80s43.667 -29 77 -29h112
c33.333 0 59 9.66699 77 29s27 46 27 80v497c0 6 2.66699 9 8 9z" />
    <glyph glyph-name="Udieresis" unicode="&#xdc;" horiz-adv-x="550" 
d="M182 716v111c0 6 2.66699 9 8 9h14c5.33301 0 8 -3 8 -9v-111c0 -6 -2.66699 -9 -8 -9h-14c-5.33301 0 -8 3 -8 9zM338 716v111c0 6 2.66699 9 8 9h14c5.33301 0 8 -3 8 -9v-111c0 -6 -2.66699 -9 -8 -9h-14c-5.33301 0 -8 3 -8 9zM443 643h14c5.33301 0 8 -2.66699 8 -8
v-499c0 -41.333 -12.167 -74.333 -36.5 -99s-56.833 -37 -97.5 -37h-112c-40.667 -0 -73.167 12.333 -97.5 37s-36.5 57.667 -36.5 99v498c0 6 2.66699 9 8 9h14c5.33301 0 8 -3 8 -9v-497c0 -34 9 -60.667 27 -80s43.667 -29 77 -29h112c33.333 0 59 9.66699 77 29
s27 46 27 80v497c0 6 2.66699 9 8 9z" />
    <glyph glyph-name="Yacute" unicode="&#xdd;" horiz-adv-x="486" 
d="M315 836l30 0.000976562c2.66699 0 4.5 -0.833008 5.5 -2.5s0.5 -3.83398 -1.5 -6.50098l-92 -112c-4 -5.33301 -8.66699 -8 -14 -8h-8c-5.33301 0 -6.33301 3 -3 9l68 111c2.66699 6 7.66699 9 15 9zM250 0.000976562h-14.0039c-5.33301 0 -8 3 -8 9v236l-197 389
c-3.33301 6 -1.66602 9 5.00098 9h18c4.66699 0 8.33398 -3 11.001 -9l176 -350h4l176 350c2.66699 6 6.33398 9 11.001 9h18c6.66699 0 8.33398 -3 5.00098 -9l-197 -389v-236c0 -6 -2.66699 -9 -8 -9z" />
    <glyph glyph-name="Thorn" unicode="&#xde;" horiz-adv-x="500" 
d="M164 161h124c33.333 0 59 9.66699 77 29s27 46 27 80v103c0 34 -9 60.667 -27 80s-43.667 29 -77 29h-124c-6 0 -9 -2.66699 -9 -8v-305c0 -5.33301 3 -8 9 -8zM147 0h-14c-5.33301 0 -8 3 -8 9v625c0 6 2.66699 9 8 9h14c5.33301 0 8 -3 8 -9v-116c0 -5.33301 3 -8 9 -8
h124c40.667 0 73.167 -12.333 97.5 -37s36.5 -57.667 36.5 -99v-105c0 -41.333 -12.167 -74.333 -36.5 -99s-56.833 -37 -97.5 -37h-124c-6 0 -9 -2.66699 -9 -8v-116c0 -6 -2.66699 -9 -8 -9z" />
    <glyph glyph-name="germandbls" unicode="&#xdf;" horiz-adv-x="539" 
d="M248 340l64.001 0.000976562c34 0 61.167 9.66699 81.5 29s30.5 46 30.5 80v57c0 34 -9 60.667 -27 80s-43.667 29 -77 29h-101c-33.333 0 -59 -9.66699 -77 -29s-27 -46 -27 -80v-497c0 -6 -2.66699 -9 -8 -9h-14c-5.33301 0 -8 3 -8 9v498
c0 41.333 12.167 74.333 36.5 99s56.833 37 97.5 37h101c40.667 0 73.167 -12.333 97.5 -37s36.5 -57.667 36.5 -99v-59c0 -28 -7.16699 -52.5 -21.5 -73.5s-32.833 -37.167 -55.5 -48.5c25.333 -7.33301 46.166 -22.333 62.499 -45s24.5 -48.334 24.5 -77.001v-68
c0 -41.333 -12.167 -74.333 -36.5 -99s-56.833 -37 -97.5 -37h-103c-6 0 -9 2.66699 -9 8v12c0 5.33301 3 8 9 8h103c33.333 0 59 9.66699 77 29s27 46 27 80v66c0 33.333 -11.667 59.833 -35 79.5s-52.333 29.5 -87 29.5h-64c-6 0 -9 2.33301 -9 7v13c0 5.33301 3 8 9 8z
" />
    <glyph glyph-name="agrave" unicode="&#xe0;" horiz-adv-x="498" 
d="M286 574l-8 -0.000976562c-5.33301 0 -10 2.66699 -14 8l-92 112c-2 2.66699 -2.5 4.83398 -1.5 6.50098s2.83301 2.5 5.5 2.5h30c6.66699 0 11.667 -3 15 -9l68 -111c3.33301 -6 2.33301 -9 -3 -9zM278 -0.000976562h-74c-40.667 0 -73.167 12.333 -97.5 37
s-36.5 57.667 -36.5 99v238c0 41.333 12.167 74.333 36.5 99s56.833 37 97.5 37h206c5.33301 0 8 -3 8 -9v-492c0 -6 -2.66699 -9 -8 -9h-14c-5.33301 0 -8 3 -8 9v43h-4c-18.667 -34.667 -54 -52 -106 -52zM388 131.999v342c0 5.33301 -3 8 -9 8h-175
c-33.333 0 -59 -9.66699 -77 -29s-27 -46 -27 -80v-236c0 -34 9 -60.667 27 -80s43.667 -29 77 -29h72c33.333 0 60.333 9 81 27s31 43.667 31 77z" />
    <glyph glyph-name="aacute" unicode="&#xe1;" horiz-adv-x="498" 
d="M328 703l30 0.000976562c2.66699 0 4.5 -0.833008 5.5 -2.5s0.5 -3.83398 -1.5 -6.50098l-92 -112c-4 -5.33301 -8.66699 -8 -14 -8h-8c-5.33301 0 -6.33301 3 -3 9l68 111c3.33301 6 8.33301 9 15 9zM278 0.000976562h-74c-40.667 0 -73.167 12.333 -97.5 37
s-36.5 57.667 -36.5 99v238c0 41.333 12.167 74.333 36.5 99s56.833 37 97.5 37h206c5.33301 0 8 -3 8 -9v-492c0 -6 -2.66699 -9 -8 -9h-14c-5.33301 0 -8 3 -8 9v43h-4c-18.667 -34.667 -54 -52 -106 -52zM388 132.001v342c0 5.33301 -3 8 -9 8h-175
c-33.333 0 -59 -9.66699 -77 -29s-27 -46 -27 -80v-236c0 -34 9 -60.667 27 -80s43.667 -29 77 -29h72c33.333 0 60.333 9 81 27s31 43.667 31 77z" />
    <glyph glyph-name="acircumflex" unicode="&#xe2;" horiz-adv-x="498" 
d="M345 574h-14.002c-6 0 -9.66699 1.66699 -11 5l-59 105l-59 -105c-1.33301 -3.33301 -5 -5 -11 -5h-14c-7.33301 0 -8.66602 3.66699 -3.99902 11l64 109c4 6 10.333 9 19 9h10c8.66699 0 15 -3 19 -9l64 -109c4.66699 -7.33301 3.33398 -11 -3.99902 -11zM277.998 0h-74
c-40.667 -0 -73.167 12.333 -97.5 37s-36.5 57.667 -36.5 99v238c0 41.333 12.167 74.333 36.5 99s56.833 37 97.5 37h206c5.33301 0 8 -3 8 -9v-492c0 -6 -2.66699 -9 -8 -9h-14c-5.33301 0 -8 3 -8 9v43h-4c-18.667 -34.667 -54 -52 -106 -52zM387.998 132v342
c0 5.33301 -3 8 -9 8h-175c-33.333 0 -59 -9.66699 -77 -29s-27 -46 -27 -80v-236c0 -34 9 -60.667 27 -80s43.667 -29 77 -29h72c33.333 0 60.333 9 81 27s31 43.667 31 77z" />
    <glyph glyph-name="atilde" unicode="&#xe3;" horiz-adv-x="500" 
d="M168 655l0.000976562 38.999c0 6 2.66699 9 8 9h7c5.33301 0 8 -3 8 -9v-38c0 -22 2.16699 -37.167 6.5 -45.5s12.166 -12.5 23.499 -12.5s19.166 3.33301 23.499 10s10 21.167 17 43.5s14.333 37 22 44s20.834 10.5 39.501 10.5s31.834 -5.83301 39.501 -17.5
s11.5 -31.834 11.5 -60.501v-42c0 -6 -2.66699 -9 -8 -9h-7c-5.33301 0 -8 3 -8 9v41c0 22 -2.16699 37.167 -6.5 45.5s-12.833 12.5 -25.5 12.5s-21.667 -6 -27 -18c-1.33301 -3.33301 -5 -15.166 -11 -35.499s-13.167 -34.5 -21.5 -42.5s-21.833 -12 -40.5 -12
s-31.834 5.83301 -39.501 17.5s-11.5 31.834 -11.5 60.501zM278.001 -0.000976562h-74c-40.667 0 -73.167 12.333 -97.5 37s-36.5 57.667 -36.5 99v238c0 41.333 12.167 74.333 36.5 99s56.833 37 97.5 37h206c5.33301 0 8 -3 8 -9v-492c0 -6 -2.66699 -9 -8 -9h-14
c-5.33301 0 -8 3 -8 9v43h-4c-18.667 -34.667 -54 -52 -106 -52zM388.001 131.999v342c0 5.33301 -3 8 -9 8h-175c-33.333 0 -59 -9.66699 -77 -29s-27 -46 -27 -80v-236c0 -34 9 -60.667 27 -80s43.667 -29 77 -29h72c33.333 0 60.333 9 81 27s31 43.667 31 77z" />
    <glyph glyph-name="adieresis" unicode="&#xe4;" horiz-adv-x="498" 
d="M172 583v111c0 6 2.66699 9 8 9h14c5.33301 0 8 -3 8 -9v-111c0 -6 -2.66699 -9 -8 -9h-14c-5.33301 0 -8 3 -8 9zM328 583v111c0 6 2.66699 9 8 9h14c5.33301 0 8 -3 8 -9v-111c0 -6 -2.66699 -9 -8 -9h-14c-5.33301 0 -8 3 -8 9zM278 0h-74
c-40.667 -0 -73.167 12.333 -97.5 37s-36.5 57.667 -36.5 99v238c0 41.333 12.167 74.333 36.5 99s56.833 37 97.5 37h206c5.33301 0 8 -3 8 -9v-492c0 -6 -2.66699 -9 -8 -9h-14c-5.33301 0 -8 3 -8 9v43h-4c-18.667 -34.667 -54 -52 -106 -52zM388 132v342
c0 5.33301 -3 8 -9 8h-175c-33.333 0 -59 -9.66699 -77 -29s-27 -46 -27 -80v-236c0 -34 9 -60.667 27 -80s43.667 -29 77 -29h72c33.333 0 60.333 9 81 27s31 43.667 31 77z" />
    <glyph glyph-name="aring" unicode="&#xe5;" horiz-adv-x="498" 
d="M388 132v342c0 5.33301 -3 8 -9 8h-175c-33.333 0 -59 -9.66699 -77 -29s-27 -46 -27 -80v-236c0 -34 9 -60.667 27 -80s43.667 -29 77 -29h72c33.333 0 60.333 9 81 27s31 43.667 31 77zM278 0h-74c-40.667 -0 -73.167 12.333 -97.5 37s-36.5 57.667 -36.5 99v238
c0 41.333 12.167 74.333 36.5 99s56.833 37 97.5 37h206c5.33301 0 8 -3 8 -9v-492c0 -6 -2.66699 -9 -8 -9h-14c-5.33301 0 -8 3 -8 9v43h-4c-18.667 -34.667 -54 -52 -106 -52zM193 663v-40c0 -18 3.83301 -30.333 11.5 -37s20.5 -10 38.5 -10h14
c18.667 0 31.834 3.33301 39.501 10s11.5 19 11.5 37v40c0 17.333 -3.83301 29.333 -11.5 36s-20.834 10 -39.501 10h-14c-18 0 -30.833 -3.33301 -38.5 -10s-11.5 -18.667 -11.5 -36zM169 622v41.999c0 24.667 6 42.167 18 52.5s30.667 15.5 56 15.5h14
c50.667 0 76 -22.667 76 -68v-42c0 -46 -25.333 -69 -76 -69h-14c-25.333 0 -44 5.33301 -56 16s-18 28.334 -18 53.001z" />
    <glyph glyph-name="ae" unicode="&#xe6;" horiz-adv-x="806" 
d="M418 202l0.000976562 -65c0 -34 9 -60.667 27 -80s43.667 -29 77 -29h205c6 0 9 -2.66699 9 -8v-12c0 -5.33301 -3 -8 -9 -8h-205c-60.667 0 -100.667 23 -120 69c-20.667 -46 -62 -69 -124 -69h-74c-40.667 -0 -73.167 12.333 -97.5 37s-36.5 57.667 -36.5 99v28
c0 41.333 12.167 74.333 36.5 99s56.833 37 97.5 37h175c6 0 9 2.66699 9 8v65c0 34 -9 60.667 -27 80s-43.667 29 -77 29h-152c-6 0 -9 2.66699 -9 8v12c0 5.33301 3 8 9 8h152c60 0 100 -23 120 -69c21.333 46 62.666 69 123.999 69h74c40.667 0 73.167 -12.333 97.5 -37
s36.5 -57.667 36.5 -99v-154c0 -6.66699 -3 -10 -9 -10h-300c-6 0 -9 -2.66699 -9 -8zM706.001 246v127c0 34 -9 60.667 -27 80s-43.667 29 -77 29h-72c-33.333 0 -60.333 -9 -81 -27s-31 -43.667 -31 -77v-132c0 -5.33301 3 -8 9 -8h270c6 0 9 2.66699 9 8zM388.001 132
v132c0 5.33301 -3 8 -9 8h-175c-33.333 0 -59 -9.66699 -77 -29s-27 -46 -27 -80v-26c0 -34 9 -60.667 27 -80s43.667 -29 77 -29h72c33.333 0 60.333 9 81 27s31 43.667 31 77z" />
    <glyph glyph-name="ccedilla" unicode="&#xe7;" horiz-adv-x="390" 
d="M346 482l-142 0.00195312c-33.333 0 -59 -9.66699 -77 -29s-27 -46 -27 -80v-236c0 -34 9 -60.667 27 -80s43.667 -29 77 -29h142c6 0 9 -2.66699 9 -8v-12c0 -5.33301 -3 -8 -9 -8h-72l-46 -50v-4c26.667 0 46.5 -4.33301 59.5 -13s19.5 -23.334 19.5 -44.001v-10
c0 -38 -26.333 -57 -79 -57h-19c-6 0 -9 2.66699 -9 8v10c0 5.33301 3 8 9 8h16c36.667 0 55 11.333 55 34v2c0 13.333 -4 22.666 -12 27.999s-22.333 8 -43 8h-9c-12 0 -19.5 4 -22.5 12s-0.833008 15.667 6.5 23l40 45h-36c-40.667 -0 -73.167 12.333 -97.5 37
s-36.5 57.667 -36.5 99v238c0 41.333 12.167 74.333 36.5 99s56.833 37 97.5 37h142c6 0 9 -2.66699 9 -8v-12c0 -5.33301 -3 -8 -9 -8z" />
    <glyph glyph-name="egrave" unicode="&#xe8;" horiz-adv-x="491" 
d="M263 574l-8 -0.000976562c-5.33301 0 -10 2.66699 -14 8l-92 112c-2 2.66699 -2.5 4.83398 -1.5 6.50098s2.83301 2.5 5.5 2.5h30c7.33301 0 12.333 -3 15 -9l68 -111c3.33301 -6 2.33301 -9 -3 -9zM409 -0.000976562h-205c-40.667 0 -73.167 12.333 -97.5 37
s-36.5 57.667 -36.5 99v238c0 41.333 12.167 74.333 36.5 99s56.833 37 97.5 37h88c40.667 0 73.167 -12.333 97.5 -37s36.5 -57.667 36.5 -99v-127c0 -6.66699 -3 -10 -9 -10h-308c-6 0 -9 -2.66699 -9 -8v-92c0 -34 9 -60.667 27 -80s43.667 -29 77 -29h205
c6 0 9 -2.66699 9 -8v-12c0 -5.33301 -3 -8 -9 -8zM109 264.999h278c6 0 9 2.66699 9 8v100c0 34 -9 60.667 -27 80s-43.667 29 -77 29h-88c-33.333 0 -59 -9.66699 -77 -29s-27 -46 -27 -80v-100c0 -5.33301 3 -8 9 -8z" />
    <glyph glyph-name="eacute" unicode="&#xe9;" horiz-adv-x="491" 
d="M304 703l30 0.000976562c2.66699 0 4.5 -0.833008 5.5 -2.5s0.5 -3.83398 -1.5 -6.50098l-92 -112c-4 -5.33301 -8.66699 -8 -14 -8h-8c-5.33301 0 -6.33301 3 -3 9l68 111c3.33301 6 8.33301 9 15 9zM409 0.000976562h-205c-40.667 0 -73.167 12.333 -97.5 37
s-36.5 57.667 -36.5 99v238c0 41.333 12.167 74.333 36.5 99s56.833 37 97.5 37h88c40.667 0 73.167 -12.333 97.5 -37s36.5 -57.667 36.5 -99v-127c0 -6.66699 -3 -10 -9 -10h-308c-6 0 -9 -2.66699 -9 -8v-92c0 -34 9 -60.667 27 -80s43.667 -29 77 -29h205
c6 0 9 -2.66699 9 -8v-12c0 -5.33301 -3 -8 -9 -8zM109 265.001h278c6 0 9 2.66699 9 8v100c0 34 -9 60.667 -27 80s-43.667 29 -77 29h-88c-33.333 0 -59 -9.66699 -77 -29s-27 -46 -27 -80v-100c0 -5.33301 3 -8 9 -8z" />
    <glyph glyph-name="ecircumflex" unicode="&#xea;" horiz-adv-x="491" 
d="M332 574h-14.002c-5.33301 0 -9 1.66699 -11 5l-59 105l-59 -105c-2 -3.33301 -5.66699 -5 -11 -5h-14c-7.33301 0 -8.66602 3.66699 -3.99902 11l64 109c4 6 10.333 9 19 9h10c8.66699 0 15 -3 19 -9l64 -109c4.66699 -7.33301 3.33398 -11 -3.99902 -11zM408.998 0
h-205c-40.667 -0 -73.167 12.333 -97.5 37s-36.5 57.667 -36.5 99v238c0 41.333 12.167 74.333 36.5 99s56.833 37 97.5 37h88c40.667 0 73.167 -12.333 97.5 -37s36.5 -57.667 36.5 -99v-127c0 -6.66699 -3 -10 -9 -10h-308c-6 0 -9 -2.66699 -9 -8v-92
c0 -34 9 -60.667 27 -80s43.667 -29 77 -29h205c6 0 9 -2.66699 9 -8v-12c0 -5.33301 -3 -8 -9 -8zM108.998 265h278c6 0 9 2.66699 9 8v100c0 34 -9 60.667 -27 80s-43.667 29 -77 29h-88c-33.333 0 -59 -9.66699 -77 -29s-27 -46 -27 -80v-100c0 -5.33301 3 -8 9 -8z" />
    <glyph glyph-name="edieresis" unicode="&#xeb;" horiz-adv-x="491" 
d="M155 583v111c0 6 2.66699 9 8 9h14c5.33301 0 8 -3 8 -9v-111c0 -6 -2.66699 -9 -8 -9h-14c-5.33301 0 -8 3 -8 9zM311 583v111c0 6 2.66699 9 8 9h14c5.33301 0 8 -3 8 -9v-111c0 -6 -2.66699 -9 -8 -9h-14c-5.33301 0 -8 3 -8 9zM409 0h-205
c-40.667 -0 -73.167 12.333 -97.5 37s-36.5 57.667 -36.5 99v238c0 41.333 12.167 74.333 36.5 99s56.833 37 97.5 37h88c40.667 0 73.167 -12.333 97.5 -37s36.5 -57.667 36.5 -99v-127c0 -6.66699 -3 -10 -9 -10h-308c-6 0 -9 -2.66699 -9 -8v-92c0 -34 9 -60.667 27 -80
s43.667 -29 77 -29h205c6 0 9 -2.66699 9 -8v-12c0 -5.33301 -3 -8 -9 -8zM109 265h278c6 0 9 2.66699 9 8v100c0 34 -9 60.667 -27 80s-43.667 29 -77 29h-88c-33.333 0 -59 -9.66699 -77 -29s-27 -46 -27 -80v-100c0 -5.33301 3 -8 9 -8z" />
    <glyph glyph-name="igrave" unicode="&#xec;" horiz-adv-x="200" 
d="M104 574l-8 -0.000976562c-5.33301 0 -10 2.66699 -14 8l-92 112c-2 2.66699 -2.5 4.83398 -1.5 6.50098s2.83301 2.5 5.5 2.5h30c6.66699 0 11.667 -3 15 -9l68 -111c3.33301 -6 2.33301 -9 -3 -9zM85 8.99902v492c0 6 2.66699 9 8 9h14c5.33301 0 8 -3 8 -9v-492
c0 -6 -2.66699 -9 -8 -9h-14c-5.33301 0 -8 3 -8 9z" />
    <glyph glyph-name="iacute" unicode="&#xed;" horiz-adv-x="198" 
d="M174 703l30 0.000976562c2.66699 0 4.5 -0.833008 5.5 -2.5s0.5 -3.83398 -1.5 -6.50098l-92 -112c-4 -5.33301 -8.66699 -8 -14 -8h-8c-5.33301 0 -6.33301 3 -3 9l68 111c3.33301 6 8.33301 9 15 9zM85 9.00098v492c0 6 2.66699 9 8 9h14c5.33301 0 8 -3 8 -9v-492
c0 -6 -2.66699 -9 -8 -9h-14c-5.33301 0 -8 3 -8 9z" />
    <glyph glyph-name="icircumflex" unicode="&#xee;" horiz-adv-x="200" 
d="M184 574h-14.002c-5.33301 0 -9 1.66699 -11 5l-59 105l-59 -105c-2 -3.33301 -5.66699 -5 -11 -5h-14c-7.33301 0 -8.66602 3.66699 -3.99902 11l64 109c4 6 10.333 9 19 9h10c8.66699 0 15 -3 19 -9l64 -109c4.66699 -7.33301 3.33398 -11 -3.99902 -11zM84.998 9v492
c0 6 2.66699 9 8 9h14c5.33301 0 8 -3 8 -9v-492c0 -6 -2.66699 -9 -8 -9h-14c-5.33301 0 -8 3 -8 9z" />
    <glyph glyph-name="idieresis" unicode="&#xef;" horiz-adv-x="200" 
d="M7 583v111c0 6 2.66699 9 8 9h14c5.33301 0 8 -3 8 -9v-111c0 -6 -2.66699 -9 -8 -9h-14c-5.33301 0 -8 3 -8 9zM163 583v111c0 6 2.66699 9 8 9h14c5.33301 0 8 -3 8 -9v-111c0 -6 -2.66699 -9 -8 -9h-14c-5.33301 0 -8 3 -8 9zM85 9v492c0 6 2.66699 9 8 9h14
c5.33301 0 8 -3 8 -9v-492c0 -6 -2.66699 -9 -8 -9h-14c-5.33301 0 -8 3 -8 9z" />
    <glyph glyph-name="eth" unicode="&#xf0;" horiz-adv-x="483" 
d="M418 357l-0.000976562 -220.998c0 -41.333 -12.167 -74.333 -36.5 -99s-56.833 -37 -97.5 -37h-80c-40.667 0 -73.167 12.333 -97.5 37s-36.5 57.667 -36.5 99v138c0 41.333 12.167 74.333 36.5 99s56.833 37 97.5 37h74c52 0 87.333 -17.333 106 -52h4
c0 29.333 -8.33301 54.666 -25 75.999l-111 125l-104 -88c-4.66699 -2.66699 -8.66699 -2.33398 -12 0.999023l-5 7c-3.33301 4 -2.66602 8.33301 2.00098 13l102 86l-86 97c-4.66699 6 -4.66699 11 0 15l6 5c4.66699 3.33301 9 2.66602 13 -2.00098l88 -97l107 91
c4.66699 2.66699 8.66699 2.33398 12 -0.999023l5 -7c3.33301 -4.66699 3 -8.66699 -1 -12l-106 -90l113 -126c21.333 -24.667 32 -56 32 -94zM387.999 137.002v141c0 33.333 -10.333 59 -31 77s-47.667 27 -81 27h-72c-33.333 0 -59 -9.66699 -77 -29s-27 -46 -27 -80v-136
c0 -34 9 -60.667 27 -80s43.667 -29 77 -29h80c33.333 0 59 9.66699 77 29s27 46 27 80z" />
    <glyph glyph-name="ntilde" unicode="&#xf1;" horiz-adv-x="503" 
d="M151 655l0.000976562 38.999c0 6 2.66699 9 8 9h7c5.33301 0 8 -3 8 -9v-38c0 -22 2.16699 -37.167 6.5 -45.5s12.166 -12.5 23.499 -12.5s19.166 3.33301 23.499 10s10 21.167 17 43.5s14.333 37 22 44s20.834 10.5 39.501 10.5s31.834 -5.83301 39.501 -17.5
s11.5 -31.834 11.5 -60.501v-42c0 -6 -2.66699 -9 -8 -9h-7c-5.33301 0 -8 3 -8 9v41c0 22 -2.16699 37.167 -6.5 45.5s-12.833 12.5 -25.5 12.5s-21.667 -6 -27 -18c-1.33301 -3.33301 -5 -15.166 -11 -35.499s-13.167 -34.5 -21.5 -42.5s-21.833 -12 -40.5 -12
s-31.834 5.83301 -39.501 17.5s-11.5 31.834 -11.5 60.501zM102.001 -0.000976562h-14c-5.33301 0 -8 3 -8 9v492c0 6 2.66699 9 8 9h14c5.33301 0 8 -3 8 -9v-43h4c18.667 34.667 54 52 106 52h74c40.667 0 73.167 -12.333 97.5 -37s36.5 -57.667 36.5 -99v-365
c0 -6 -2.66699 -9 -8 -9h-14c-5.33301 0 -8 3 -8 9v364c0 34 -9 60.667 -27 80s-43.667 29 -77 29h-72c-33.333 0 -60.333 -9 -81 -27s-31 -43.667 -31 -77v-369c0 -6 -2.66699 -9 -8 -9z" />
    <glyph glyph-name="ograve" unicode="&#xf2;" horiz-adv-x="493" 
d="M253 574l-8 -0.000976562c-5.33301 0 -10 2.66699 -14 8l-92 112c-2 2.66699 -2.5 4.83398 -1.5 6.50098s2.83301 2.5 5.5 2.5h30c7.33301 0 12.333 -3 15 -9l68 -111c3.33301 -6 2.33301 -9 -3 -9zM289 -0.000976562h-85c-40.667 0 -73.167 12.333 -97.5 37
s-36.5 57.667 -36.5 99v238c0 41.333 12.167 74.333 36.5 99s56.833 37 97.5 37h85c40.667 0 73.167 -12.333 97.5 -37s36.5 -57.667 36.5 -99v-238c0 -41.333 -12.167 -74.333 -36.5 -99s-56.833 -37 -97.5 -37zM204 27.999h85c33.333 0 59 9.66699 77 29s27 46 27 80v236
c0 34 -9 60.667 -27 80s-43.667 29 -77 29h-85c-33.333 0 -59 -9.66699 -77 -29s-27 -46 -27 -80v-236c0 -34 9 -60.667 27 -80s43.667 -29 77 -29z" />
    <glyph glyph-name="oacute" unicode="&#xf3;" horiz-adv-x="493" 
d="M321 703l30 0.000976562c2.66699 0 4.5 -0.833008 5.5 -2.5s0.5 -3.83398 -1.5 -6.50098l-92 -112c-4 -5.33301 -8.66699 -8 -14 -8h-8c-5.33301 0 -6.33301 3 -3 9l68 111c2.66699 6 7.66699 9 15 9zM289 0.000976562h-85c-40.667 0 -73.167 12.333 -97.5 37
s-36.5 57.667 -36.5 99v238c0 41.333 12.167 74.333 36.5 99s56.833 37 97.5 37h85c40.667 0 73.167 -12.333 97.5 -37s36.5 -57.667 36.5 -99v-238c0 -41.333 -12.167 -74.333 -36.5 -99s-56.833 -37 -97.5 -37zM204 28.001h85c33.333 0 59 9.66699 77 29s27 46 27 80v236
c0 34 -9 60.667 -27 80s-43.667 29 -77 29h-85c-33.333 0 -59 -9.66699 -77 -29s-27 -46 -27 -80v-236c0 -34 9 -60.667 27 -80s43.667 -29 77 -29z" />
    <glyph glyph-name="ocircumflex" unicode="&#xf4;" horiz-adv-x="493" 
d="M330 574h-14.002c-5.33301 0 -9 1.66699 -11 5l-59 105l-59 -105c-2 -3.33301 -5.66699 -5 -11 -5h-14c-7.33301 0 -8.66602 3.66699 -3.99902 11l64 109c4 6 10.333 9 19 9h10c8.66699 0 15 -3 19 -9l64 -109c4.66699 -7.33301 3.33398 -11 -3.99902 -11zM288.998 0h-85
c-40.667 -0 -73.167 12.333 -97.5 37s-36.5 57.667 -36.5 99v238c0 41.333 12.167 74.333 36.5 99s56.833 37 97.5 37h85c40.667 0 73.167 -12.333 97.5 -37s36.5 -57.667 36.5 -99v-238c0 -41.333 -12.167 -74.333 -36.5 -99s-56.833 -37 -97.5 -37zM203.998 28h85
c33.333 0 59 9.66699 77 29s27 46 27 80v236c0 34 -9 60.667 -27 80s-43.667 29 -77 29h-85c-33.333 0 -59 -9.66699 -77 -29s-27 -46 -27 -80v-236c0 -34 9 -60.667 27 -80s43.667 -29 77 -29z" />
    <glyph glyph-name="otilde" unicode="&#xf5;" horiz-adv-x="493" 
d="M143 655l0.000976562 38.999c0 6 2.66699 9 8 9h7c5.33301 0 8 -3 8 -9v-38c0 -22 2.16699 -37.167 6.5 -45.5s12.166 -12.5 23.499 -12.5s19.166 3.33301 23.499 10s10 21.167 17 43.5s14.333 37 22 44s20.834 10.5 39.501 10.5s31.834 -5.83301 39.501 -17.5
s11.5 -31.834 11.5 -60.501v-42c0 -6 -2.66699 -9 -8 -9h-7c-5.33301 0 -8 3 -8 9v41c0 22 -2.16699 37.167 -6.5 45.5s-12.833 12.5 -25.5 12.5s-21.667 -6 -27 -18c-1.33301 -3.33301 -5 -15.166 -11 -35.499s-13.167 -34.5 -21.5 -42.5s-21.833 -12 -40.5 -12
s-31.834 5.83301 -39.501 17.5s-11.5 31.834 -11.5 60.501zM289.001 -0.000976562h-85c-40.667 0 -73.167 12.333 -97.5 37s-36.5 57.667 -36.5 99v238c0 41.333 12.167 74.333 36.5 99s56.833 37 97.5 37h85c40.667 0 73.167 -12.333 97.5 -37s36.5 -57.667 36.5 -99v-238
c0 -41.333 -12.167 -74.333 -36.5 -99s-56.833 -37 -97.5 -37zM204.001 27.999h85c33.333 0 59 9.66699 77 29s27 46 27 80v236c0 34 -9 60.667 -27 80s-43.667 29 -77 29h-85c-33.333 0 -59 -9.66699 -77 -29s-27 -46 -27 -80v-236c0 -34 9 -60.667 27 -80
s43.667 -29 77 -29z" />
    <glyph glyph-name="odieresis" unicode="&#xf6;" horiz-adv-x="493" 
d="M153 583v111c0 6 2.66699 9 8 9h14c5.33301 0 8 -3 8 -9v-111c0 -6 -2.66699 -9 -8 -9h-14c-5.33301 0 -8 3 -8 9zM309 583v111c0 6 2.66699 9 8 9h14c5.33301 0 8 -3 8 -9v-111c0 -6 -2.66699 -9 -8 -9h-14c-5.33301 0 -8 3 -8 9zM289 0h-85
c-40.667 -0 -73.167 12.333 -97.5 37s-36.5 57.667 -36.5 99v238c0 41.333 12.167 74.333 36.5 99s56.833 37 97.5 37h85c40.667 0 73.167 -12.333 97.5 -37s36.5 -57.667 36.5 -99v-238c0 -41.333 -12.167 -74.333 -36.5 -99s-56.833 -37 -97.5 -37zM204 28h85
c33.333 0 59 9.66699 77 29s27 46 27 80v236c0 34 -9 60.667 -27 80s-43.667 29 -77 29h-85c-33.333 0 -59 -9.66699 -77 -29s-27 -46 -27 -80v-236c0 -34 9 -60.667 27 -80s43.667 -29 77 -29z" />
    <glyph glyph-name="divide" unicode="&#xf7;" horiz-adv-x="522" 
d="M246 144v64c0 6 2.66699 9 8 9h14c5.33301 0 8 -3 8 -9v-64c0 -6 -2.66699 -9 -8 -9h-14c-5.33301 0 -8 3 -8 9zM438 307h-354c-6 0 -9 2.66699 -9 8v12c0 5.33301 3 8 9 8h354c6 0 9 -2.66699 9 -8v-12c0 -5.33301 -3 -8 -9 -8zM246 434v64c0 6 2.66699 9 8 9h14
c5.33301 0 8 -3 8 -9v-64c0 -6 -2.66699 -9 -8 -9h-14c-5.33301 0 -8 3 -8 9z" />
    <glyph glyph-name="oslash" unicode="&#xf8;" horiz-adv-x="521" 
d="M437 374v-238c0 -41.333 -12.167 -74.333 -36.5 -99s-56.833 -37 -97.5 -37h-85c-58.667 0 -99 23.667 -121 71l-42 -43c-4.66699 -4.66699 -8.66699 -4.66699 -12 0l-10 9c-4 4 -4 8 0 12l54 54c-2 10 -3 21 -3 33v238c0 41.333 12.167 74.333 36.5 99
s56.833 37 97.5 37h85c58.667 0 99 -23.333 121 -70l42 42c4 4 8 4.33301 12 1l10 -10c4 -3.33301 3.66699 -7.33301 -1 -12l-53 -53c2 -10.667 3 -22 3 -34zM114 373v-243l287 287c-14 43.333 -46.667 65 -98 65h-85c-33.333 0 -59 -9.66699 -77 -29s-27 -46 -27 -80z
M407 137v244l-287 -288c14 -43.333 46.667 -65 98 -65h85c33.333 0 59 9.66699 77 29s27 46 27 80z" />
    <glyph glyph-name="ugrave" unicode="&#xf9;" horiz-adv-x="503" 
d="M258 574l-8 -0.000976562c-5.33301 0 -10 2.66699 -14 8l-92 112c-2 2.66699 -2.5 4.83398 -1.5 6.50098s2.83301 2.5 5.5 2.5h30c6.66699 0 11.667 -3 15 -9l68 -111c3.33301 -6 2.33301 -9 -3 -9zM283 -0.000976562h-74c-40.667 0 -73.167 12.333 -97.5 37
s-36.5 57.667 -36.5 99v365c0 6 2.66699 9 8 9h14c5.33301 0 8 -3 8 -9v-364c0 -34 9 -60.667 27 -80s43.667 -29 77 -29h72c33.333 0 60.333 9 81 27s31 43.667 31 77v369c0 6 2.66699 9 8 9h14c5.33301 0 8 -3 8 -9v-492c0 -6 -2.66699 -9 -8 -9h-14c-5.33301 0 -8 3 -8 9
v43h-4c-18.667 -34.667 -54 -52 -106 -52z" />
    <glyph glyph-name="uacute" unicode="&#xfa;" horiz-adv-x="503" 
d="M323 703l30 0.000976562c2.66699 0 4.5 -0.833008 5.5 -2.5s0.5 -3.83398 -1.5 -6.50098l-92 -112c-4 -5.33301 -8.66699 -8 -14 -8h-8c-5.33301 0 -6.33301 3 -3 9l68 111c2.66699 6 7.66699 9 15 9zM283 0.000976562h-74c-40.667 0 -73.167 12.333 -97.5 37
s-36.5 57.667 -36.5 99v365c0 6 2.66699 9 8 9h14c5.33301 0 8 -3 8 -9v-364c0 -34 9 -60.667 27 -80s43.667 -29 77 -29h72c33.333 0 60.333 9 81 27s31 43.667 31 77v369c0 6 2.66699 9 8 9h14c5.33301 0 8 -3 8 -9v-492c0 -6 -2.66699 -9 -8 -9h-14c-5.33301 0 -8 3 -8 9
v43h-4c-18.667 -34.667 -54 -52 -106 -52z" />
    <glyph glyph-name="ucircumflex" unicode="&#xfb;" horiz-adv-x="503" 
d="M333 574h-14.002c-6 0 -9.66699 1.66699 -11 5l-59 105l-59 -105c-1.33301 -3.33301 -5 -5 -11 -5h-14c-7.33301 0 -8.66602 3.66699 -3.99902 11l64 109c4 6 10.333 9 19 9h10c8.66699 0 15 -3 19 -9l64 -109c4.66699 -7.33301 3.33398 -11 -3.99902 -11zM282.998 0h-74
c-40.667 -0 -73.167 12.333 -97.5 37s-36.5 57.667 -36.5 99v365c0 6 2.66699 9 8 9h14c5.33301 0 8 -3 8 -9v-364c0 -34 9 -60.667 27 -80s43.667 -29 77 -29h72c33.333 0 60.333 9 81 27s31 43.667 31 77v369c0 6 2.66699 9 8 9h14c5.33301 0 8 -3 8 -9v-492
c0 -6 -2.66699 -9 -8 -9h-14c-5.33301 0 -8 3 -8 9v43h-4c-18.667 -34.667 -54 -52 -106 -52z" />
    <glyph glyph-name="udieresis" unicode="&#xfc;" horiz-adv-x="503" 
d="M156 583v111c0 6 2.66699 9 8 9h14c5.33301 0 8 -3 8 -9v-111c0 -6 -2.66699 -9 -8 -9h-14c-5.33301 0 -8 3 -8 9zM312 583v111c0 6 2.66699 9 8 9h14c5.33301 0 8 -3 8 -9v-111c0 -6 -2.66699 -9 -8 -9h-14c-5.33301 0 -8 3 -8 9zM283 0h-74
c-40.667 -0 -73.167 12.333 -97.5 37s-36.5 57.667 -36.5 99v365c0 6 2.66699 9 8 9h14c5.33301 0 8 -3 8 -9v-364c0 -34 9 -60.667 27 -80s43.667 -29 77 -29h72c33.333 0 60.333 9 81 27s31 43.667 31 77v369c0 6 2.66699 9 8 9h14c5.33301 0 8 -3 8 -9v-492
c0 -6 -2.66699 -9 -8 -9h-14c-5.33301 0 -8 3 -8 9v43h-4c-18.667 -34.667 -54 -52 -106 -52z" />
    <glyph glyph-name="yacute" unicode="&#xfd;" horiz-adv-x="456" 
d="M305 703l30 0.000976562c2.66699 0 4.5 -0.833008 5.5 -2.5s0.5 -3.83398 -1.5 -6.50098l-92 -112c-4 -5.33301 -8.66699 -8 -14 -8h-8c-5.33301 0 -6.33301 3 -3 9l68 111c2.66699 6 7.66699 9 15 9zM59 -146.999c-6 0 -8.99805 2.66602 -8.99805 7.99902v12
c0 5.33301 3 8 9 8h29c26.667 0 45.5 4.83301 56.5 14.5s19.167 16.667 24.5 21s11.166 13 17.499 26l12.5 25.5c12 26.667 19.667 46.334 23 59.001h-10c-5.33301 0 -9 3 -11 9l-170 465c-2 6 0 9 6 9h16c4.66699 0 8 -3 10 -9l163 -445h4l163 445c2 6 5.33301 9 10 9h16
c6 0 8 -3 6 -9l-170 -465c-20.667 -59.333 -36.334 -97.666 -47.001 -114.999c-28.667 -44.667 -68.667 -67.334 -120 -68.001h-29z" />
    <glyph glyph-name="thorn" unicode="&#xfe;" horiz-adv-x="503" 
d="M227 28h72c33.333 0 59 9.66699 77 29s27 46 27 80v236c0 34 -9 60.667 -27 80s-43.667 29 -77 29h-72c-33.333 0 -60.333 -9 -81 -27s-31 -43.667 -31 -77v-246c0 -33.333 10.333 -59 31 -77s47.667 -27 81 -27zM115 52v-176c0 -6 -2.66699 -9 -8 -9h-14
c-5.33301 0 -8 3 -8 9v818c0 6 2.66699 9 8 9h14c5.33301 0 8 -3 8 -9v-236h4c18.667 34.667 54 52 106 52h74c40.667 0 73.167 -12.333 97.5 -37s36.5 -57.667 36.5 -99v-238c0 -41.333 -12.167 -74.333 -36.5 -99s-56.833 -37 -97.5 -37h-74
c-52 -0 -87.333 17.333 -106 52h-4z" />
    <glyph glyph-name="ydieresis" unicode="&#xff;" horiz-adv-x="456" 
d="M135 583v111c0 6 2.66699 9 8 9h14c5.33301 0 8 -3 8 -9v-111c0 -6 -2.66699 -9 -8 -9h-14c-5.33301 0 -8 3 -8 9zM291 583v111c0 6 2.66699 9 8 9h14c5.33301 0 8 -3 8 -9v-111c0 -6 -2.66699 -9 -8 -9h-14c-5.33301 0 -8 3 -8 9zM59 -147
c-6 0 -8.99805 2.66602 -8.99805 7.99902v12c0 5.33301 3 8 9 8h29c26.667 0 45.5 4.83301 56.5 14.5s19.167 16.667 24.5 21s11.166 13 17.499 26l12.5 25.5c12 26.667 19.667 46.334 23 59.001h-10c-5.33301 0 -9 3 -11 9l-170 465c-2 6 0 9 6 9h16c4.66699 0 8 -3 10 -9
l163 -445h4l163 445c2 6 5.33301 9 10 9h16c6 0 8 -3 6 -9l-170 -465c-20.667 -59.333 -36.334 -97.666 -47.001 -114.999c-28.667 -44.667 -68.667 -67.334 -120 -68.001h-29z" />
    <glyph glyph-name="Amacron" unicode="&#x100;" horiz-adv-x="526" 
d="M365 757h-204c-6 0 -9 2.66699 -9 8v12c0 5.33301 3 8 9 8h204c6 0 9 -2.66699 9 -8v-12c0 -5.33301 -3 -8 -9 -8zM51 0h-13.999c-6 0 -8 3 -6 9l210 625c2 6 5.33301 9 10 9h24c4.66699 0 8 -3 10 -9l210 -625c2 -6 0 -9 -6 -9h-15c-4.66699 0 -8 3 -10 9l-61 174h-280
l-61 -174c-2.66699 -6 -6.33398 -9 -11.001 -9zM261.001 605l-127 -392h258l-127 392h-4z" />
    <glyph glyph-name="amacron" unicode="&#x101;" horiz-adv-x="498" 
d="M376 627h-204c-6 0 -9 2.66699 -9 8v9c0 5.33301 3 8 9 8h204c6 0 9 -2.66699 9 -8v-9c0 -5.33301 -3 -8 -9 -8zM278 0h-74c-40.667 -0 -73.167 12.333 -97.5 37s-36.5 57.667 -36.5 99v238c0 41.333 12.167 74.333 36.5 99s56.833 37 97.5 37h206c5.33301 0 8 -3 8 -9
v-492c0 -6 -2.66699 -9 -8 -9h-14c-5.33301 0 -8 3 -8 9v43h-4c-18.667 -34.667 -54 -52 -106 -52zM388 132v342c0 5.33301 -3 8 -9 8h-175c-33.333 0 -59 -9.66699 -77 -29s-27 -46 -27 -80v-236c0 -34 9 -60.667 27 -80s43.667 -29 77 -29h72c33.333 0 60.333 9 81 27
s31 43.667 31 77z" />
    <glyph glyph-name="Abreve" unicode="&#x102;" horiz-adv-x="526" 
d="M167 827c0 6 2.66699 9 8 9h10c5.33301 0 8 -3 8 -9v-12c0 -31.333 5 -53.5 15 -66.5s27.333 -19.5 52 -19.5h4c26 0 44.167 6.5 54.5 19.5s15.5 35.167 15.5 66.5v11c0 6 2.66699 9 8 9h8c5.33301 0 8 -3 8 -9v-12c0 -37.333 -7.66699 -64.5 -23 -81.5
s-39 -25.5 -71 -25.5h-4c-32 0 -55.5 8.5 -70.5 25.5s-22.5 44.167 -22.5 81.5v13zM51 0h-13.999c-6 0 -8 3 -6 9l210 625c2 6 5.33301 9 10 9h24c4.66699 0 8 -3 10 -9l210 -625c2 -6 0 -9 -6 -9h-15c-4.66699 0 -8 3 -10 9l-61 174h-280l-61 -174
c-2.66699 -6 -6.33398 -9 -11.001 -9zM261.001 605l-127 -392h258l-127 392h-4z" />
    <glyph glyph-name="abreve" unicode="&#x103;" horiz-adv-x="498" 
d="M172 694c0 6 2.66699 9 8 9h10c5.33301 0 8 -3 8 -9v-12c0 -31.333 5 -53.5 15 -66.5s27.333 -19.5 52 -19.5h4c26 0 44.167 6.5 54.5 19.5s15.5 35.167 15.5 66.5v11c0 6 2.66699 9 8 9h8c5.33301 0 8 -3 8 -9v-12c0 -37.333 -7.66699 -64.5 -23 -81.5
s-39 -25.5 -71 -25.5h-4c-32 0 -55.5 8.5 -70.5 25.5s-22.5 44.167 -22.5 81.5v13zM278 0h-74c-40.667 -0 -73.167 12.333 -97.5 37s-36.5 57.667 -36.5 99v238c0 41.333 12.167 74.333 36.5 99s56.833 37 97.5 37h206c5.33301 0 8 -3 8 -9v-492c0 -6 -2.66699 -9 -8 -9h-14
c-5.33301 0 -8 3 -8 9v43h-4c-18.667 -34.667 -54 -52 -106 -52zM388 132v342c0 5.33301 -3 8 -9 8h-175c-33.333 0 -59 -9.66699 -77 -29s-27 -46 -27 -80v-236c0 -34 9 -60.667 27 -80s43.667 -29 77 -29h72c33.333 0 60.333 9 81 27s31 43.667 31 77z" />
    <glyph glyph-name="Aogonek" unicode="&#x104;" horiz-adv-x="526" 
d="M489 0h-14l-57 -74h38c19.333 0 29 -3.33301 29 -10c0 -11.333 -22.333 -17 -67 -17c-15.333 0 -25.166 3.66699 -29.499 11s-2.5 15.333 5.5 24l67 84l-58 165h-280l-61 -174c-2.66699 -6 -6.33398 -9 -11.001 -9h-14c-6 0 -8 3 -6 9l210 625c2 6 5.33301 9 10 9h24
c4.66699 0 8 -3 10 -9l210 -625c2 -6 0 -9 -6 -9zM134 213h258l-127 392h-4z" />
    <glyph glyph-name="aogonek" unicode="&#x105;" horiz-adv-x="498" 
d="M204 510h206c5.33301 0 8 -3 8 -9v-492c0 -6 -2.66699 -9 -8 -9h-7l-57 -74h38c19.333 0 29 -3.33301 29 -10c0 -8 -8 -14.333 -24 -19s-31 -7 -45 -7s-23.167 5.16699 -27.5 15.5s-2.5 19.833 5.5 28.5l66 83v35h-4c-18.667 -34.667 -54 -52 -106 -52h-74
c-40.667 -0 -73.167 12.333 -97.5 37s-36.5 57.667 -36.5 99v238c0 41.333 12.167 74.333 36.5 99s56.833 37 97.5 37zM204 28h72c33.333 0 60.333 9 81 27s31 43.667 31 77v342c0 5.33301 -3 8 -9 8h-175c-33.333 0 -59 -9.66699 -77 -29s-27 -46 -27 -80v-236
c0 -34 9 -60.667 27 -80s43.667 -29 77 -29z" />
    <glyph glyph-name="Cacute" unicode="&#x106;" horiz-adv-x="543" 
d="M349 836l30 0.000976562c2.66699 0 4.5 -0.833008 5.5 -2.5s0.5 -3.83398 -1.5 -6.50098l-92 -112c-4 -5.33301 -8.66699 -8 -14 -8h-8c-5.33301 0 -6.33301 3 -3 9l68 111c2.66699 6 7.66699 9 15 9zM344 0.000976562h-130c-40.667 0 -73.167 12.333 -97.5 37
s-36.5 57.667 -36.5 99v371c0 41.333 12.167 74.333 36.5 99s56.833 37 97.5 37h130c40.667 0 73.167 -12.333 97.5 -37s36.5 -57.667 36.5 -99v-50c0 -6 -2.66699 -9 -8 -9h-14c-5.33301 0 -8 3 -8 9v49c0 34 -9 60.667 -27 80s-43.667 29 -77 29h-130
c-33.333 0 -59 -9.66699 -77 -29s-27 -46 -27 -80v-369c0 -34 9 -60.667 27 -80s43.667 -29 77 -29h130c33.333 0 59 9.66699 77 29s27 46 27 80v49c0 6 2.66699 9 8 9h14c5.33301 0 8 -3 8 -9v-50c0 -41.333 -12.167 -74.333 -36.5 -99s-56.833 -37 -97.5 -37z" />
    <glyph glyph-name="cacute" unicode="&#x107;" horiz-adv-x="390" 
d="M296 703l30 0.000976562c2.66699 0 4.5 -0.833008 5.5 -2.5s0.5 -3.83398 -1.5 -6.50098l-92 -112c-4 -5.33301 -8.66699 -8 -14 -8h-8c-5.33301 0 -6.33301 3 -3 9l68 111c3.33301 6 8.33301 9 15 9zM355 20.001v-12c0 -5.33301 -3 -8 -9 -8h-142
c-40.667 0 -73.167 12.333 -97.5 37s-36.5 57.667 -36.5 99v238c0 41.333 12.167 74.333 36.5 99s56.833 37 97.5 37h142c6 0 9 -2.66699 9 -8v-12c0 -5.33301 -3 -8 -9 -8h-142c-33.333 0 -59 -9.66699 -77 -29s-27 -46 -27 -80v-236c0 -34 9 -60.667 27 -80
s43.667 -29 77 -29h142c6 0 9 -2.66699 9 -8z" />
    <glyph glyph-name="Cdotaccent" unicode="&#x10a;" horiz-adv-x="543" 
d="M264 722v99c0 6 2.66699 9 8 9h14c5.33301 0 8 -3 8 -9v-99c0 -6 -2.66699 -9 -8 -9h-14c-5.33301 0 -8 3 -8 9zM344 0h-130c-40.667 -0 -73.167 12.333 -97.5 37s-36.5 57.667 -36.5 99v371c0 41.333 12.167 74.333 36.5 99s56.833 37 97.5 37h130
c40.667 0 73.167 -12.333 97.5 -37s36.5 -57.667 36.5 -99v-50c0 -6 -2.66699 -9 -8 -9h-14c-5.33301 0 -8 3 -8 9v49c0 34 -9 60.667 -27 80s-43.667 29 -77 29h-130c-33.333 0 -59 -9.66699 -77 -29s-27 -46 -27 -80v-369c0 -34 9 -60.667 27 -80s43.667 -29 77 -29h130
c33.333 0 59 9.66699 77 29s27 46 27 80v49c0 6 2.66699 9 8 9h14c5.33301 0 8 -3 8 -9v-50c0 -41.333 -12.167 -74.333 -36.5 -99s-56.833 -37 -97.5 -37z" />
    <glyph glyph-name="cdotaccent" unicode="&#x10b;" horiz-adv-x="390" 
d="M212 589v99c0 6 2.66699 9 8 9h14c5.33301 0 8 -3 8 -9v-99c0 -6 -2.66699 -9 -8 -9h-14c-5.33301 0 -8 3 -8 9zM355 20v-12c0 -5.33301 -3 -8 -9 -8h-142c-40.667 -0 -73.167 12.333 -97.5 37s-36.5 57.667 -36.5 99v238c0 41.333 12.167 74.333 36.5 99
s56.833 37 97.5 37h142c6 0 9 -2.66699 9 -8v-12c0 -5.33301 -3 -8 -9 -8h-142c-33.333 0 -59 -9.66699 -77 -29s-27 -46 -27 -80v-236c0 -34 9 -60.667 27 -80s43.667 -29 77 -29h142c6 0 9 -2.66699 9 -8z" />
    <glyph glyph-name="Ccaron" unicode="&#x10c;" horiz-adv-x="543" 
d="M274 707c-8.66699 0 -14.998 3 -18.998 9l-64 109c-4.66699 7.33301 -3.33398 11 3.99902 11h14c6 0 9.66699 -1.66699 11 -5l59 -105l59 105c1.33301 3.33301 5 5 11 5h14c7.33301 0 8.66602 -3.66699 3.99902 -11l-64 -109c-4 -6 -10.333 -9 -19 -9h-10zM344.002 0
h-130c-40.667 -0 -73.167 12.333 -97.5 37s-36.5 57.667 -36.5 99v371c0 41.333 12.167 74.333 36.5 99s56.833 37 97.5 37h130c40.667 0 73.167 -12.333 97.5 -37s36.5 -57.667 36.5 -99v-50c0 -6 -2.66699 -9 -8 -9h-14c-5.33301 0 -8 3 -8 9v49c0 34 -9 60.667 -27 80
s-43.667 29 -77 29h-130c-33.333 0 -59 -9.66699 -77 -29s-27 -46 -27 -80v-369c0 -34 9 -60.667 27 -80s43.667 -29 77 -29h130c33.333 0 59 9.66699 77 29s27 46 27 80v49c0 6 2.66699 9 8 9h14c5.33301 0 8 -3 8 -9v-50c0 -41.333 -12.167 -74.333 -36.5 -99
s-56.833 -37 -97.5 -37z" />
    <glyph glyph-name="ccaron" unicode="&#x10d;" horiz-adv-x="390" 
d="M229 574c-8.66699 0 -14.998 3 -18.998 9l-64 109c-4.66699 7.33301 -3.33398 11 3.99902 11h14c5.33301 0 9 -1.66699 11 -5l59 -105l59 105c2 3.33301 5.66699 5 11 5h14c7.33301 0 8.66602 -3.66699 3.99902 -11l-64 -109c-4 -6 -10.333 -9 -19 -9h-10zM355.002 20
v-12c0 -5.33301 -3 -8 -9 -8h-142c-40.667 -0 -73.167 12.333 -97.5 37s-36.5 57.667 -36.5 99v238c0 41.333 12.167 74.333 36.5 99s56.833 37 97.5 37h142c6 0 9 -2.66699 9 -8v-12c0 -5.33301 -3 -8 -9 -8h-142c-33.333 0 -59 -9.66699 -77 -29s-27 -46 -27 -80v-236
c0 -34 9 -60.667 27 -80s43.667 -29 77 -29h142c6 0 9 -2.66699 9 -8z" />
    <glyph glyph-name="Dcaron" unicode="&#x10e;" horiz-adv-x="558" 
d="M269 707c-8.66699 0 -14.998 3 -18.998 9l-64 109c-4.66699 7.33301 -3.33398 11 3.99902 11h14c5.33301 0 9 -1.66699 11 -5l59 -105l59 105c2 3.33301 5.66699 5 11 5h14c7.33301 0 8.66602 -3.66699 3.99902 -11l-64 -109c-4 -6 -10.333 -9 -19 -9h-10zM129.002 28
h215c33.333 0 59 9.66699 77 29s27 46 27 80v369c0 34 -9 60.667 -27 80s-43.667 29 -77 29h-215c-6 0 -9 -2.66699 -9 -8v-571c0 -5.33301 3 -8 9 -8zM90.002 9v625c0 6 2.66699 9 8 9h246c40.667 0 73.167 -12.333 97.5 -37s36.5 -57.667 36.5 -99v-371
c0 -41.333 -12.167 -74.333 -36.5 -99s-56.833 -37 -97.5 -37h-246c-5.33301 0 -8 3 -8 9z" />
    <glyph glyph-name="dcaron" unicode="&#x10f;" horiz-adv-x="508" 
d="M515 694v-79c0 -10 -8.66699 -58 -26 -144c-0.666992 -4 -2.66699 -6 -6 -6s-5 2 -5 6v223c0 6 2.66699 9 8 9h21c5.33301 0 8 -3 8 -9zM278 0h-74c-40.667 -0 -73.167 12.333 -97.5 37s-36.5 57.667 -36.5 99v238c0 41.333 12.167 74.333 36.5 99s56.833 37 97.5 37h74
c52 0 87.333 -17.333 106 -52h4v236c0 6 2.66699 9 8 9h14c5.33301 0 8 -3 8 -9v-685c0 -6 -2.66699 -9 -8 -9h-14c-5.33301 0 -8 3 -8 9v43h-4c-18.667 -34.667 -54 -52 -106 -52zM388 132v246c0 33.333 -10.333 59 -31 77s-47.667 27 -81 27h-72
c-33.333 0 -59 -9.66699 -77 -29s-27 -46 -27 -80v-236c0 -34 9 -60.667 27 -80s43.667 -29 77 -29h72c33.333 0 60.333 9 81 27s31 43.667 31 77z" />
    <glyph glyph-name="Dcroat" unicode="&#x110;" horiz-adv-x="500" 
d="M129 28h215c33.333 0 59 9.66699 77 29s27 46 27 80v369c0 34 -9 60.667 -27 80s-43.667 29 -77 29h-215c-6 0 -9 -2.66699 -9 -8v-209c0 -5.33301 3 -8 9 -8h166c6 0 9 -2.66699 9 -8v-12c0 -5.33301 -3 -8 -9 -8h-166c-6 0 -9 -2.66699 -9 -8v-318
c0 -5.33301 3 -8 9 -8zM344 0h-246c-5.33301 0 -8 3 -8 9v345c0 5.33301 -3 8 -9 8h-46c-6 0 -9 2.66699 -9 8v12c0 5.33301 3 8 9 8h46c6 0 9 2.66699 9 8v236c0 6 2.66699 9 8 9h246c40.667 0 73.167 -12.333 97.5 -37s36.5 -57.667 36.5 -99v-371
c0 -41.333 -12.167 -74.333 -36.5 -99s-56.833 -37 -97.5 -37z" />
    <glyph glyph-name="dcroat" unicode="&#x111;" horiz-adv-x="532" 
d="M278 0h-74c-40.667 -0 -73.167 12.333 -97.5 37s-36.5 57.667 -36.5 99v168c0 41.333 12.167 74.333 36.5 99s56.833 37 97.5 37h74c52 0 87.333 -17.333 106 -52h4v166c0 5.33301 -3 8 -9 8h-169c-6 0 -9 2.66699 -9 8v12c0 5.33301 3 8 9 8h169c6 0 9 2.66699 9 8v96
c0 6 2.66699 9 8 9h14c5.33301 0 8 -3 8 -9v-96c0 -5.33301 3 -8 9 -8h66c6 0 9 -2.66699 9 -8v-12c0 -5.33301 -3 -8 -9 -8h-66c-6 0 -9 -2.66699 -9 -8v-545c0 -6 -2.66699 -9 -8 -9h-14c-5.33301 0 -8 3 -8 9v43h-4c-18.667 -34.667 -54 -52 -106 -52zM388 132v176
c0 33.333 -10.333 59 -31 77s-47.667 27 -81 27h-72c-33.333 0 -59 -9.66699 -77 -29s-27 -46 -27 -80v-166c0 -34 9 -60.667 27 -80s43.667 -29 77 -29h72c33.333 0 60.333 9 81 27s31 43.667 31 77z" />
    <glyph glyph-name="Emacron" unicode="&#x112;" horiz-adv-x="481" 
d="M352 757h-204c-6 0 -9 2.66699 -9 8v12c0 5.33301 3 8 9 8h204c6 0 9 -2.66699 9 -8v-12c0 -5.33301 -3 -8 -9 -8zM402 0h-304c-5.33301 0 -8 3 -8 9v625c0 6 2.66699 9 8 9h304c6 0 9 -2.66699 9 -8v-12c0 -5.33301 -3 -8 -9 -8h-273c-6 0 -9 -2.66699 -9 -8v-257
c0 -5.33301 3 -8 9 -8h247c6 0 9 -2.66699 9 -8v-12c0 -5.33301 -3 -8 -9 -8h-247c-6 0 -9 -2.66699 -9 -8v-270c0 -5.33301 3 -8 9 -8h273c6 0 9 -2.66699 9 -8v-12c0 -5.33301 -3 -8 -9 -8z" />
    <glyph glyph-name="emacron" unicode="&#x113;" horiz-adv-x="491" 
d="M350 627h-204c-6 0 -9 2.66699 -9 8v9c0 5.33301 3 8 9 8h204c6 0 9 -2.66699 9 -8v-9c0 -5.33301 -3 -8 -9 -8zM409 0h-205c-40.667 -0 -73.167 12.333 -97.5 37s-36.5 57.667 -36.5 99v238c0 41.333 12.167 74.333 36.5 99s56.833 37 97.5 37h88
c40.667 0 73.167 -12.333 97.5 -37s36.5 -57.667 36.5 -99v-127c0 -6.66699 -3 -10 -9 -10h-308c-6 0 -9 -2.66699 -9 -8v-92c0 -34 9 -60.667 27 -80s43.667 -29 77 -29h205c6 0 9 -2.66699 9 -8v-12c0 -5.33301 -3 -8 -9 -8zM109 265h278c6 0 9 2.66699 9 8v100
c0 34 -9 60.667 -27 80s-43.667 29 -77 29h-88c-33.333 0 -59 -9.66699 -77 -29s-27 -46 -27 -80v-100c0 -5.33301 3 -8 9 -8z" />
    <glyph glyph-name="Ebreve" unicode="&#x114;" horiz-adv-x="481" 
d="M148 827c0 6 2.66699 9 8 9h10c5.33301 0 8 -3 8 -9v-12c0 -31.333 5 -53.5 15 -66.5s27.333 -19.5 52 -19.5h4c26 0 44.167 6.5 54.5 19.5s15.5 35.167 15.5 66.5v11c0 6 2.66699 9 8 9h8c5.33301 0 8 -3 8 -9v-12c0 -37.333 -7.66699 -64.5 -23 -81.5
s-39 -25.5 -71 -25.5h-4c-32 0 -55.5 8.5 -70.5 25.5s-22.5 44.167 -22.5 81.5v13zM402 0h-304c-5.33301 0 -8 3 -8 9v625c0 6 2.66699 9 8 9h304c6 0 9 -2.66699 9 -8v-12c0 -5.33301 -3 -8 -9 -8h-273c-6 0 -9 -2.66699 -9 -8v-257c0 -5.33301 3 -8 9 -8h247
c6 0 9 -2.66699 9 -8v-12c0 -5.33301 -3 -8 -9 -8h-247c-6 0 -9 -2.66699 -9 -8v-270c0 -5.33301 3 -8 9 -8h273c6 0 9 -2.66699 9 -8v-12c0 -5.33301 -3 -8 -9 -8z" />
    <glyph glyph-name="ebreve" unicode="&#x115;" horiz-adv-x="491" 
d="M148 694c0 6 2.66699 9 8 9h10c5.33301 0 8 -3 8 -9v-12c0 -31.333 5 -53.5 15 -66.5s27.333 -19.5 52 -19.5h4c26 0 44.167 6.5 54.5 19.5s15.5 35.167 15.5 66.5v11c0 6 2.66699 9 8 9h8c5.33301 0 8 -3 8 -9v-12c0 -37.333 -7.66699 -64.5 -23 -81.5
s-39 -25.5 -71 -25.5h-4c-32 0 -55.5 8.5 -70.5 25.5s-22.5 44.167 -22.5 81.5v13zM409 0h-205c-40.667 -0 -73.167 12.333 -97.5 37s-36.5 57.667 -36.5 99v238c0 41.333 12.167 74.333 36.5 99s56.833 37 97.5 37h88c40.667 0 73.167 -12.333 97.5 -37
s36.5 -57.667 36.5 -99v-127c0 -6.66699 -3 -10 -9 -10h-308c-6 0 -9 -2.66699 -9 -8v-92c0 -34 9 -60.667 27 -80s43.667 -29 77 -29h205c6 0 9 -2.66699 9 -8v-12c0 -5.33301 -3 -8 -9 -8zM109 265h278c6 0 9 2.66699 9 8v100c0 34 -9 60.667 -27 80s-43.667 29 -77 29
h-88c-33.333 0 -59 -9.66699 -77 -29s-27 -46 -27 -80v-100c0 -5.33301 3 -8 9 -8z" />
    <glyph glyph-name="Edotaccent" unicode="&#x116;" horiz-adv-x="500" 
d="M235 722v99c0 6 2.66699 9 8 9h14c5.33301 0 8 -3 8 -9v-99c0 -6 -2.66699 -9 -8 -9h-14c-5.33301 0 -8 3 -8 9zM402 0h-304c-5.33301 0 -8 3 -8 9v625c0 6 2.66699 9 8 9h304c6 0 9 -2.66699 9 -8v-12c0 -5.33301 -3 -8 -9 -8h-273c-6 0 -9 -2.66699 -9 -8v-257
c0 -5.33301 3 -8 9 -8h247c6 0 9 -2.66699 9 -8v-12c0 -5.33301 -3 -8 -9 -8h-247c-6 0 -9 -2.66699 -9 -8v-270c0 -5.33301 3 -8 9 -8h273c6 0 9 -2.66699 9 -8v-12c0 -5.33301 -3 -8 -9 -8z" />
    <glyph glyph-name="edotaccent" unicode="&#x117;" horiz-adv-x="491" 
d="M233 589v99c0 6 2.66699 9 8 9h14c5.33301 0 8 -3 8 -9v-99c0 -6 -2.66699 -9 -8 -9h-14c-5.33301 0 -8 3 -8 9zM409 0h-205c-40.667 -0 -73.167 12.333 -97.5 37s-36.5 57.667 -36.5 99v238c0 41.333 12.167 74.333 36.5 99s56.833 37 97.5 37h88
c40.667 0 73.167 -12.333 97.5 -37s36.5 -57.667 36.5 -99v-127c0 -6.66699 -3 -10 -9 -10h-308c-6 0 -9 -2.66699 -9 -8v-92c0 -34 9 -60.667 27 -80s43.667 -29 77 -29h205c6 0 9 -2.66699 9 -8v-12c0 -5.33301 -3 -8 -9 -8zM109 265h278c6 0 9 2.66699 9 8v100
c0 34 -9 60.667 -27 80s-43.667 29 -77 29h-88c-33.333 0 -59 -9.66699 -77 -29s-27 -46 -27 -80v-100c0 -5.33301 3 -8 9 -8z" />
    <glyph glyph-name="Eogonek" unicode="&#x118;" horiz-adv-x="481" 
d="M402 615h-273.001c-6 0 -9 -2.66699 -9 -8v-257c0 -5.33301 3 -8 9 -8h247c6 0 9 -2.66699 9 -8v-12c0 -5.33301 -3 -8 -9 -8h-247c-6 0 -9 -2.66699 -9 -8v-270c0 -5.33301 3 -8 9 -8h273c6 0 9 -2.66699 9 -8v-12c0 -5.33301 -3 -8 -9 -8h-54l-57 -74h38
c19.333 0 29 -3.33301 29 -10c0 -11.333 -22.333 -17 -67 -17c-15.333 0 -25.166 3.66699 -29.499 11s-2.5 15.333 5.5 24l52 66h-221c-5.33301 0 -8 3 -8 9v625c0 6 2.66699 9 8 9h304c6 0 9 -2.66699 9 -8v-12c0 -5.33301 -3 -8 -9 -8z" />
    <glyph glyph-name="eogonek" unicode="&#x119;" horiz-adv-x="491" 
d="M204 510h88c40.667 0 73.167 -12.333 97.5 -37s36.5 -57.667 36.5 -99v-127c0 -6.66699 -3 -10 -9 -10h-308c-6 0 -9 -2.66699 -9 -8v-92c0 -34 9 -60.667 27 -80s43.667 -29 77 -29h205c6 0 9 -2.66699 9 -8v-12c0 -5.33301 -3 -8 -9 -8h-61l-57 -74h38
c19.333 0 29 -3.33301 29 -10c0 -8 -8 -14.333 -24 -19s-31 -7 -45 -7s-23.167 5.16699 -27.5 15.5s-2.5 19.833 5.5 28.5l52 66h-115c-40.667 -0 -73.167 12.333 -97.5 37s-36.5 57.667 -36.5 99v238c0 41.333 12.167 74.333 36.5 99s56.833 37 97.5 37zM396 273v100
c0 34 -9 60.667 -27 80s-43.667 29 -77 29h-88c-33.333 0 -59 -9.66699 -77 -29s-27 -46 -27 -80v-100c0 -5.33301 3 -8 9 -8h278c6 0 9 2.66699 9 8z" />
    <glyph glyph-name="Ecaron" unicode="&#x11a;" horiz-adv-x="481" 
d="M245 707c-8.66699 0 -14.998 3 -18.998 9l-64 109c-4.66699 7.33301 -3.33398 11 3.99902 11h14c5.33301 0 9 -1.66699 11 -5l59 -105l59 105c2 3.33301 5.66699 5 11 5h14c7.33301 0 8.66602 -3.66699 3.99902 -11l-64 -109c-4 -6 -10.333 -9 -19 -9h-10zM402.002 0
h-304c-5.33301 0 -8 3 -8 9v625c0 6 2.66699 9 8 9h304c6 0 9 -2.66699 9 -8v-12c0 -5.33301 -3 -8 -9 -8h-273c-6 0 -9 -2.66699 -9 -8v-257c0 -5.33301 3 -8 9 -8h247c6 0 9 -2.66699 9 -8v-12c0 -5.33301 -3 -8 -9 -8h-247c-6 0 -9 -2.66699 -9 -8v-270
c0 -5.33301 3 -8 9 -8h273c6 0 9 -2.66699 9 -8v-12c0 -5.33301 -3 -8 -9 -8z" />
    <glyph glyph-name="ecaron" unicode="&#x11b;" horiz-adv-x="491" 
d="M243 574c-8.66699 0 -14.998 3 -18.998 9l-64 109c-4.66699 7.33301 -3.33398 11 3.99902 11h14c5.33301 0 9 -1.66699 11 -5l59 -105l59 105c2 3.33301 5.66699 5 11 5h14c7.33301 0 8.66602 -3.66699 3.99902 -11l-64 -109c-4 -6 -10.333 -9 -19 -9h-10zM409.002 0
h-205c-40.667 -0 -73.167 12.333 -97.5 37s-36.5 57.667 -36.5 99v238c0 41.333 12.167 74.333 36.5 99s56.833 37 97.5 37h88c40.667 0 73.167 -12.333 97.5 -37s36.5 -57.667 36.5 -99v-127c0 -6.66699 -3 -10 -9 -10h-308c-6 0 -9 -2.66699 -9 -8v-92
c0 -34 9 -60.667 27 -80s43.667 -29 77 -29h205c6 0 9 -2.66699 9 -8v-12c0 -5.33301 -3 -8 -9 -8zM109.002 265h278c6 0 9 2.66699 9 8v100c0 34 -9 60.667 -27 80s-43.667 29 -77 29h-88c-33.333 0 -59 -9.66699 -77 -29s-27 -46 -27 -80v-100c0 -5.33301 3 -8 9 -8z" />
    <glyph glyph-name="Gcircumflex" unicode="&#x11c;" horiz-adv-x="538" 
d="M353 707h-14.002c-6 0 -9.66699 1.66699 -11 5l-59 105l-59 -105c-1.33301 -3.33301 -5 -5 -11 -5h-14c-7.33301 0 -8.66602 3.66699 -3.99902 11l64 109c4 6 10.333 9 19 9h10c8.66699 0 15 -3 19 -9l64 -109c4.66699 -7.33301 3.33398 -11 -3.99902 -11zM323.998 0
h-110c-40.667 -0 -73.167 12.333 -97.5 37s-36.5 57.667 -36.5 99v371c0 41.333 12.167 74.333 36.5 99s56.833 37 97.5 37h110c40.667 0 73.167 -12.333 97.5 -37s36.5 -57.667 36.5 -99v-50c0 -6 -2.66699 -9 -8 -9h-14c-5.33301 0 -8 3 -8 9v49c0 34 -9 60.667 -27 80
s-43.667 29 -77 29h-110c-33.333 0 -59 -9.66699 -77 -29s-27 -46 -27 -80v-369c0 -34 9 -60.667 27 -80s43.667 -29 77 -29h110c33.333 0 59 9.66699 77 29s27 46 27 80v151c0 5.33301 -3 8 -9 8h-129c-6 0 -9 2.66699 -9 8v12c0 5.33301 3 8 9 8h150
c12 0 18 -6.33301 18 -19v-169c0 -41.333 -12.167 -74.333 -36.5 -99s-56.833 -37 -97.5 -37z" />
    <glyph glyph-name="gcircumflex" unicode="&#x11d;" horiz-adv-x="503" 
d="M351 574h-14.002c-6 0 -9.66699 1.66699 -11 5l-59 105l-59 -105c-1.33301 -3.33301 -5 -5 -11 -5h-14c-7.33301 0 -8.66602 3.66699 -3.99902 11l64 109c4 6 10.333 9 19 9h10c8.66699 0 15 -3 19 -9l64 -109c4.66699 -7.33301 3.33398 -11 -3.99902 -11zM282.998 30
h-74c-40.667 0 -73.167 12.333 -97.5 37s-36.5 57.667 -36.5 99v208c0 41.333 12.167 74.333 36.5 99s56.833 37 97.5 37h206c5.33301 0 8 -3 8 -9v-498c0 -41.333 -12.167 -74.333 -36.5 -99s-56.833 -37 -97.5 -37h-179c-6 0 -9 2.66699 -9 8v12c0 5.33301 3 8 9 8h179
c33.333 0 59 9.66699 77 29s27 46 27 80v78h-4c-18.667 -34.667 -54 -52 -106 -52zM392.998 162v312c0 5.33301 -3 8 -9 8h-175c-33.333 0 -59 -9.66699 -77 -29s-27 -46 -27 -80v-206c0 -34 9 -60.667 27 -80s43.667 -29 77 -29h72c33.333 0 60.333 9 81 27
s31 43.667 31 77z" />
    <glyph glyph-name="Gbreve" unicode="&#x11e;" horiz-adv-x="538" 
d="M174 827c0 6 2.66699 9 8 9h10c5.33301 0 8 -3 8 -9v-12c0 -31.333 5 -53.5 15 -66.5s27.333 -19.5 52 -19.5h4c26 0 44.167 6.5 54.5 19.5s15.5 35.167 15.5 66.5v11c0 6 2.66699 9 8 9h8c5.33301 0 8 -3 8 -9v-12c0 -37.333 -7.66699 -64.5 -23 -81.5
s-39 -25.5 -71 -25.5h-4c-32 0 -55.5 8.5 -70.5 25.5s-22.5 44.167 -22.5 81.5v13zM324 0h-110c-40.667 -0 -73.167 12.333 -97.5 37s-36.5 57.667 -36.5 99v371c0 41.333 12.167 74.333 36.5 99s56.833 37 97.5 37h110c40.667 0 73.167 -12.333 97.5 -37
s36.5 -57.667 36.5 -99v-50c0 -6 -2.66699 -9 -8 -9h-14c-5.33301 0 -8 3 -8 9v49c0 34 -9 60.667 -27 80s-43.667 29 -77 29h-110c-33.333 0 -59 -9.66699 -77 -29s-27 -46 -27 -80v-369c0 -34 9 -60.667 27 -80s43.667 -29 77 -29h110c33.333 0 59 9.66699 77 29
s27 46 27 80v151c0 5.33301 -3 8 -9 8h-129c-6 0 -9 2.66699 -9 8v12c0 5.33301 3 8 9 8h150c12 0 18 -6.33301 18 -19v-169c0 -41.333 -12.167 -74.333 -36.5 -99s-56.833 -37 -97.5 -37z" />
    <glyph glyph-name="gbreve" unicode="&#x11f;" horiz-adv-x="503" 
d="M182 694c0 6 2.66699 9 8 9h10c5.33301 0 8 -3 8 -9v-12c0 -31.333 5 -53.5 15 -66.5s27.333 -19.5 52 -19.5h4c26 0 44.167 6.5 54.5 19.5s15.5 35.167 15.5 66.5v11c0 6 2.66699 9 8 9h8c5.33301 0 8 -3 8 -9v-12c0 -37.333 -7.66699 -64.5 -23 -81.5
s-39 -25.5 -71 -25.5h-4c-32 0 -55.5 8.5 -70.5 25.5s-22.5 44.167 -22.5 81.5v13zM283 30h-74c-40.667 0 -73.167 12.333 -97.5 37s-36.5 57.667 -36.5 99v208c0 41.333 12.167 74.333 36.5 99s56.833 37 97.5 37h206c5.33301 0 8 -3 8 -9v-498
c0 -41.333 -12.167 -74.333 -36.5 -99s-56.833 -37 -97.5 -37h-179c-6 0 -9 2.66699 -9 8v12c0 5.33301 3 8 9 8h179c33.333 0 59 9.66699 77 29s27 46 27 80v78h-4c-18.667 -34.667 -54 -52 -106 -52zM393 162v312c0 5.33301 -3 8 -9 8h-175
c-33.333 0 -59 -9.66699 -77 -29s-27 -46 -27 -80v-206c0 -34 9 -60.667 27 -80s43.667 -29 77 -29h72c33.333 0 60.333 9 81 27s31 43.667 31 77z" />
    <glyph glyph-name="Gdotaccent" unicode="&#x120;" horiz-adv-x="538" 
d="M253 722v99c0 6 2.66699 9 8 9h14c5.33301 0 8 -3 8 -9v-99c0 -6 -2.66699 -9 -8 -9h-14c-5.33301 0 -8 3 -8 9zM324 0h-110c-40.667 -0 -73.167 12.333 -97.5 37s-36.5 57.667 -36.5 99v371c0 41.333 12.167 74.333 36.5 99s56.833 37 97.5 37h110
c40.667 0 73.167 -12.333 97.5 -37s36.5 -57.667 36.5 -99v-50c0 -6 -2.66699 -9 -8 -9h-14c-5.33301 0 -8 3 -8 9v49c0 34 -9 60.667 -27 80s-43.667 29 -77 29h-110c-33.333 0 -59 -9.66699 -77 -29s-27 -46 -27 -80v-369c0 -34 9 -60.667 27 -80s43.667 -29 77 -29h110
c33.333 0 59 9.66699 77 29s27 46 27 80v151c0 5.33301 -3 8 -9 8h-129c-6 0 -9 2.66699 -9 8v12c0 5.33301 3 8 9 8h150c12 0 18 -6.33301 18 -19v-169c0 -41.333 -12.167 -74.333 -36.5 -99s-56.833 -37 -97.5 -37z" />
    <glyph glyph-name="gdotaccent" unicode="&#x121;" horiz-adv-x="503" 
d="M260 589v99c0 6 2.66699 9 8 9h14c5.33301 0 8 -3 8 -9v-99c0 -6 -2.66699 -9 -8 -9h-14c-5.33301 0 -8 3 -8 9zM283 30h-74c-40.667 0 -73.167 12.333 -97.5 37s-36.5 57.667 -36.5 99v208c0 41.333 12.167 74.333 36.5 99s56.833 37 97.5 37h206c5.33301 0 8 -3 8 -9
v-498c0 -41.333 -12.167 -74.333 -36.5 -99s-56.833 -37 -97.5 -37h-179c-6 0 -9 2.66699 -9 8v12c0 5.33301 3 8 9 8h179c33.333 0 59 9.66699 77 29s27 46 27 80v78h-4c-18.667 -34.667 -54 -52 -106 -52zM393 162v312c0 5.33301 -3 8 -9 8h-175
c-33.333 0 -59 -9.66699 -77 -29s-27 -46 -27 -80v-206c0 -34 9 -60.667 27 -80s43.667 -29 77 -29h72c33.333 0 60.333 9 81 27s31 43.667 31 77z" />
    <glyph glyph-name="uni0122" unicode="&#x122;" horiz-adv-x="538" 
d="M306 -41v-47c0 -10 -8.66699 -58 -26 -144c-1.33301 -4 -3.5 -6 -6.5 -6s-4.5 2 -4.5 6v191c0 6 2.66699 9 8 9h21c5.33301 0 8 -3 8 -9zM324 0h-110c-40.667 -0 -73.167 12.333 -97.5 37s-36.5 57.667 -36.5 99v371c0 41.333 12.167 74.333 36.5 99s56.833 37 97.5 37
h110c40.667 0 73.167 -12.333 97.5 -37s36.5 -57.667 36.5 -99v-50c0 -6 -2.66699 -9 -8 -9h-14c-5.33301 0 -8 3 -8 9v49c0 34 -9 60.667 -27 80s-43.667 29 -77 29h-110c-33.333 0 -59 -9.66699 -77 -29s-27 -46 -27 -80v-369c0 -34 9 -60.667 27 -80s43.667 -29 77 -29
h110c33.333 0 59 9.66699 77 29s27 46 27 80v151c0 5.33301 -3 8 -9 8h-129c-6 0 -9 2.66699 -9 8v12c0 5.33301 3 8 9 8h150c12 0 18 -6.33301 18 -19v-169c0 -41.333 -12.167 -74.333 -36.5 -99s-56.833 -37 -97.5 -37z" />
    <glyph glyph-name="uni0123" unicode="&#x123;" horiz-adv-x="503" 
d="M283 30h-74c-40.667 0 -73.167 12.333 -97.5 37s-36.5 57.667 -36.5 99v208c0 41.333 12.167 74.333 36.5 99s56.833 37 97.5 37h206c5.33301 0 8 -3 8 -9v-498c0 -41.333 -12.167 -74.333 -36.5 -99s-56.833 -37 -97.5 -37h-179c-6 0 -9 2.66699 -9 8v12
c0 5.33301 3 8 9 8h179c33.333 0 59 9.66699 77 29s27 46 27 80v78h-4c-18.667 -34.667 -54 -52 -106 -52zM393 162v312c0 5.33301 -3 8 -9 8h-175c-33.333 0 -59 -9.66699 -77 -29s-27 -46 -27 -80v-206c0 -34 9 -60.667 27 -80s43.667 -29 77 -29h72
c33.333 0 60.333 9 81 27s31 43.667 31 77zM252 583v47c0 10 8.66699 58 26 144c1.33301 4 3.5 6 6.5 6s4.5 -2 4.5 -6v-191c0 -6 -2.66699 -9 -8 -9h-21c-5.33301 0 -8 3 -8 9z" />
    <glyph glyph-name="hcircumflex" unicode="&#x125;" horiz-adv-x="503" 
d="M345 637h-14.002c-6 0 -9.66699 1.66699 -11 5l-59 105l-59 -105c-1.33301 -3.33301 -5 -5 -11 -5h-14c-7.33301 0 -8.66602 3.66699 -3.99902 11l64 109c4 6 10.333 9 19 9h10c8.66699 0 15 -3 19 -9l64 -109c4.66699 -7.33301 3.33398 -11 -3.99902 -11zM101.998 0h-14
c-5.33301 0 -8 3 -8 9v685c0 6 2.66699 9 8 9h14c5.33301 0 8 -3 8 -9v-236h4c18.667 34.667 54 52 106 52h74c40.667 0 73.167 -12.333 97.5 -37s36.5 -57.667 36.5 -99v-365c0 -6 -2.66699 -9 -8 -9h-14c-5.33301 0 -8 3 -8 9v364c0 34 -9 60.667 -27 80
s-43.667 29 -77 29h-72c-33.333 0 -60.333 -9 -81 -27s-31 -43.667 -31 -77v-369c0 -6 -2.66699 -9 -8 -9z" />
    <glyph glyph-name="Hbar" unicode="&#x126;" horiz-adv-x="500" 
d="M112 0h-14c-5.33301 0 -8 3 -8 9v455c0 5.33301 -3 8 -9 8h-46c-6 0 -9 2.66699 -9 8v12c0 5.33301 3 8 9 8h46c6 0 9 2.66699 9 8v126c0 6 2.66699 9 8 9h14c5.33301 0 8 -3 8 -9v-126c0 -5.33301 3 -8 9 -8h310c6 0 9 2.66699 9 8v126c0 6 2.66699 9 8 9h14
c5.33301 0 8 -3 8 -9v-126c0 -5.33301 3 -8 9 -8h46c6 0 9 -2.66699 9 -8v-12c0 -5.33301 -3 -8 -9 -8h-46c-6 0 -9 -2.66699 -9 -8v-455c0 -6 -2.66699 -9 -8 -9h-14c-5.33301 0 -8 3 -8 9v297c0 5.33301 -3 8 -9 8h-310c-6 0 -9 -2.66699 -9 -8v-297
c0 -6 -2.66699 -9 -8 -9zM129 342h310c6 0 9 2.66699 9 8v114c0 5.33301 -3 8 -9 8h-310c-6 0 -9 -2.66699 -9 -8v-114c0 -5.33301 3 -8 9 -8z" />
    <glyph glyph-name="hbar" unicode="&#x127;" horiz-adv-x="537" 
d="M136 0h-14c-5.33301 0 -8 3 -8 9v545c0 5.33301 -3 8 -9 8h-66c-6 0 -9 2.66699 -9 8v12c0 5.33301 3 8 9 8h66c6 0 9 2.66699 9 8v96c0 6 2.66699 9 8 9h14c5.33301 0 8 -3 8 -9v-96c0 -5.33301 3 -8 9 -8h169c6 0 9 -2.66699 9 -8v-12c0 -5.33301 -3 -8 -9 -8h-169
c-6 0 -9 -2.66699 -9 -8v-166h4c18.667 34.667 54 52 106 52h74c40.667 0 73.167 -12.333 97.5 -37s36.5 -57.667 36.5 -99v-295c0 -6 -2.66699 -9 -8 -9h-14c-5.33301 0 -8 3 -8 9v294c0 34 -9 60.667 -27 80s-43.667 29 -77 29h-72c-33.333 0 -60.333 -9 -81 -27
s-31 -43.667 -31 -77v-299c0 -6 -2.66699 -9 -8 -9z" />
    <glyph glyph-name="Itilde" unicode="&#x128;" horiz-adv-x="220" 
d="M58 702c-18.667 0 -31.833 5.83301 -39.5 17.5s-11.5 31.834 -11.5 60.501v39c0 6 2.66699 9 8 9h7c5.33301 0 8 -3 8 -9v-38c0 -22 2.16699 -37.167 6.5 -45.5s12.166 -12.5 23.499 -12.5s19.166 3.33301 23.499 10s10 21.167 17 43.5s14.333 37 22 44
s20.834 10.5 39.501 10.5s31.834 -5.83301 39.501 -17.5s11.5 -31.834 11.5 -60.501v-42c0 -6 -2.66699 -9 -8 -9h-7c-5.33301 0 -8 3 -8 9v41c0 22 -2.16699 37.167 -6.5 45.5s-12.166 12.5 -23.499 12.5s-18.833 -2.33301 -22.5 -7s-6.83398 -11.667 -9.50098 -21
c-12 -38 -22 -60.833 -30 -68.5s-21.333 -11.5 -40 -11.5zM125.001 634v-625c0 -6 -2.66699 -9 -8 -9h-14c-5.33301 0 -8 3 -8 9v625c0 6 2.66699 9 8 9h14c5.33301 0 8 -3 8 -9z" />
    <glyph glyph-name="itilde" unicode="&#x129;" horiz-adv-x="200" 
d="M-3 655l0.000976562 39c0 6 2.66699 9 8 9h7c5.33301 0 8 -3 8 -9v-38c0 -22 2.16699 -37.167 6.5 -45.5s12.166 -12.5 23.499 -12.5s19.166 3.33301 23.499 10s10 21.167 17 43.5s14.333 37 22 44s20.834 10.5 39.501 10.5s31.834 -5.83301 39.501 -17.5
s11.5 -31.834 11.5 -60.501v-42c0 -6 -2.66699 -9 -8 -9h-7c-5.33301 0 -8 3 -8 9v41c0 22 -2.16699 37.167 -6.5 45.5s-12.166 12.5 -23.499 12.5s-18.833 -2.33301 -22.5 -7s-6.83398 -12 -9.50098 -22c-12 -37.333 -22 -59.833 -30 -67.5s-21.333 -11.5 -40 -11.5
s-31.834 5.83301 -39.501 17.5s-11.5 31.834 -11.5 60.501zM85.001 9v492c0 6 2.66699 9 8 9h14c5.33301 0 8 -3 8 -9v-492c0 -6 -2.66699 -9 -8 -9h-14c-5.33301 0 -8 3 -8 9z" />
    <glyph glyph-name="Imacron" unicode="&#x12a;" horiz-adv-x="220" 
d="M212 757h-204c-6 0 -9 2.66699 -9 8v12c0 5.33301 3 8 9 8h204c6 0 9 -2.66699 9 -8v-12c0 -5.33301 -3 -8 -9 -8zM125 634v-625c0 -6 -2.66699 -9 -8 -9h-14c-5.33301 0 -8 3 -8 9v625c0 6 2.66699 9 8 9h14c5.33301 0 8 -3 8 -9z" />
    <glyph glyph-name="imacron" unicode="&#x12b;" horiz-adv-x="198" 
d="M201 627h-204c-6 0 -9 2.66699 -9 8v9c0 5.33301 3 8 9 8h204c6 0 9 -2.66699 9 -8v-9c0 -5.33301 -3 -8 -9 -8zM85 9v492c0 6 2.66699 9 8 9h14c5.33301 0 8 -3 8 -9v-492c0 -6 -2.66699 -9 -8 -9h-14c-5.33301 0 -8 3 -8 9z" />
    <glyph glyph-name="Ibreve" unicode="&#x12c;" horiz-adv-x="221" 
d="M15 827c0 6 2.66699 9 8 9h10c5.33301 0 8 -3 8 -9v-12c0 -31.333 5 -53.5 15 -66.5s27.333 -19.5 52 -19.5h4c26 0 44.167 6.5 54.5 19.5s15.5 35.167 15.5 66.5v11c0 6 2.66699 9 8 9h8c5.33301 0 8 -3 8 -9v-12c0 -37.333 -7.66699 -64.5 -23 -81.5
s-39 -25.5 -71 -25.5h-4c-32 0 -55.5 8.5 -70.5 25.5s-22.5 44.167 -22.5 81.5v13zM125 634v-625c0 -6 -2.66699 -9 -8 -9h-14c-5.33301 0 -8 3 -8 9v625c0 6 2.66699 9 8 9h14c5.33301 0 8 -3 8 -9z" />
    <glyph glyph-name="ibreve" unicode="&#x12d;" horiz-adv-x="201" 
d="M5 694c0 6 2.66699 9 8 9h10c5.33301 0 8 -3 8 -9v-12c0 -31.333 5 -53.5 15 -66.5s27.333 -19.5 52 -19.5h4c26 0 44.167 6.5 54.5 19.5s15.5 35.167 15.5 66.5v11c0 6 2.66699 9 8 9h8c5.33301 0 8 -3 8 -9v-12c0 -37.333 -7.66699 -64.5 -23 -81.5
s-39 -25.5 -71 -25.5h-4c-32 0 -55.5 8.5 -70.5 25.5s-22.5 44.167 -22.5 81.5v13zM85 9v492c0 6 2.66699 9 8 9h14c5.33301 0 8 -3 8 -9v-492c0 -6 -2.66699 -9 -8 -9h-14c-5.33301 0 -8 3 -8 9z" />
    <glyph glyph-name="Iogonek" unicode="&#x12e;" horiz-adv-x="220" 
d="M103 643h13.999c5.33301 0 8 -3 8 -9v-625c0 -6 -2.66699 -9 -8 -9h-7l-57 -74h38c19.333 0 29 -3.33301 29 -10c0 -11.333 -22.333 -17 -67 -17c-15.333 0 -25.166 3.66699 -29.499 11s-2.5 15.333 5.5 24l66 83v617c0 6 2.66699 9 8 9z" />
    <glyph glyph-name="iogonek" unicode="&#x12f;" horiz-adv-x="200" 
d="M93 701h14c5.33301 0 8 -3 8 -9v-99c0 -6 -2.66699 -9 -8 -9h-14c-5.33301 0 -8 3 -8 9v99c0 6 2.66699 9 8 9zM93 510h14c5.33301 0 8 -3 8 -9v-492c0 -6 -2.66699 -9 -8 -9h-7l-57 -74h38c19.333 0 29 -3.33301 29 -10c0 -8 -8 -14.333 -24 -19s-31 -7 -45 -7
s-23.167 5.16699 -27.5 15.5s-2.5 19.833 5.5 28.5l66 83v484c0 6 2.66699 9 8 9z" />
    <glyph glyph-name="Idotaccent" unicode="&#x130;" horiz-adv-x="220" 
d="M125 634v-625c0 -6 -2.66699 -9 -8 -9h-14c-5.33301 0 -8 3 -8 9v625c0 6 2.66699 9 8 9h14c5.33301 0 8 -3 8 -9zM95 692v99c0 6 2.66699 9 8 9h14c5.33301 0 8 -3 8 -9v-99c0 -6 -2.66699 -9 -8 -9h-14c-5.33301 0 -8 3 -8 9z" />
    <glyph glyph-name="dotlessi" unicode="&#x131;" horiz-adv-x="200" 
d="M85 9v492c0 6 2.66699 9 8 9h14c5.33301 0 8 -3 8 -9v-492c0 -6 -2.66699 -9 -8 -9h-14c-5.33301 0 -8 3 -8 9z" />
    <glyph glyph-name="IJ" unicode="&#x132;" horiz-adv-x="712" 
d="M610 643h14c5.33301 0 8 -2.66699 8 -8v-499c0 -41.333 -12.167 -74.333 -36.5 -99s-56.833 -37 -97.5 -37h-100c-40.667 -0 -73.167 12.333 -97.5 37s-36.5 57.667 -36.5 99v80c0 6 2.66699 9 8 9h14c5.33301 0 8 -3 8 -9v-79c0 -34 9 -60.667 27 -80s43.667 -29 77 -29
h100c33.333 0 59 9.66699 77 29s27 46 27 80v497c0 6 2.66699 9 8 9zM125 634v-625c0 -6 -2.66699 -9 -8 -9h-14c-5.33301 0 -8 3 -8 9v625c0 6 2.66699 9 8 9h14c5.33301 0 8 -3 8 -9z" />
    <glyph glyph-name="ij" unicode="&#x133;" horiz-adv-x="400" 
d="M85 9v492c0 6 2.66699 9 8 9h14c5.33301 0 8 -3 8 -9v-492c0 -6 -2.66699 -9 -8 -9h-14c-5.33301 0 -8 3 -8 9zM85 593v99c0 6 2.66699 9 8 9h14c5.33301 0 8 -3 8 -9v-99c0 -6 -2.66699 -9 -8 -9h-14c-5.33301 0 -8 3 -8 9zM285 593v99c0 6 2.66699 9 8 9h14
c5.33301 0 8 -3 8 -9v-99c0 -6 -2.66699 -9 -8 -9h-14c-5.33301 0 -8 3 -8 9zM181 -133h-20c-6 0 -9 2.66699 -9 8v12c0 5.33301 3 8 9 8h20c33.333 0 59 9.66699 77 29s27 46 27 80v497c0 6 2.66699 9 8 9h14c5.33301 0 8 -3 8 -9v-498
c0 -41.333 -12.167 -74.333 -36.5 -99s-56.833 -37 -97.5 -37z" />
    <glyph glyph-name="Jcircumflex" unicode="&#x134;" horiz-adv-x="493" 
d="M386 643h14c5.33301 0 8 -2.66699 8 -8v-499c0 -41.333 -12.167 -74.333 -36.5 -99s-56.833 -37 -97.5 -37h-100c-40.667 -0 -73.167 12.333 -97.5 37s-36.5 57.667 -36.5 99v80c0 6 2.66699 9 8 9h14c5.33301 0 8 -3 8 -9v-79c0 -34 9 -60.667 27 -80s43.667 -29 77 -29
h100c33.333 0 59 9.66699 77 29s27 46 27 80v497c0 6 2.66699 9 8 9zM473 707h-14.002c-6 0 -9.66699 1.66699 -11 5l-59 105l-59 -105c-1.33301 -3.33301 -5 -5 -11 -5h-14c-7.33301 0 -8.66602 3.66699 -3.99902 11l64 109c4 6 10.333 9 19 9h10c8.66699 0 15 -3 19 -9
l64 -109c4.66699 -7.33301 3.33398 -11 -3.99902 -11z" />
    <glyph glyph-name="jcircumflex" unicode="&#x135;" horiz-adv-x="200" 
d="M184 574h-14.002c-5.33301 0 -9 1.66699 -11 5l-59 105l-59 -105c-2 -3.33301 -5.66699 -5 -11 -5h-14c-7.33301 0 -8.66602 3.66699 -3.99902 11l64 109c4 6 10.333 9 19 9h10c8.66699 0 15 -3 19 -9l64 -109c4.66699 -7.33301 3.33398 -11 -3.99902 -11zM-19.002 -133
h-20c-6 0 -9 2.66699 -9 8v12c0 5.33301 3 8 9 8h20c33.333 0 59 9.66699 77 29s27 46 27 80v497c0 6 2.66699 9 8 9h14c5.33301 0 8 -3 8 -9v-498c0 -41.333 -12.167 -74.333 -36.5 -99s-56.833 -37 -97.5 -37z" />
    <glyph glyph-name="uni0136" unicode="&#x136;" horiz-adv-x="523" 
d="M310 -41v-47c0 -10 -8.66699 -58 -26 -144c-1.33301 -4 -3.5 -6 -6.5 -6s-4.5 2 -4.5 6v191c0 6 2.66699 9 8 9h21c5.33301 0 8 -3 8 -9zM112 0h-14.001c-5.33301 0 -8 3 -8 9v625c0 6 2.66699 9 8 9h14c5.33301 0 8 -3 8 -9v-392h4c4 8.66699 9 17 15 25l281 367
c4.66699 6 10 9 16 9h19c6.66699 0 7.33398 -3 2.00098 -9l-204 -271l238 -354c4 -6 2.66699 -9 -4 -9h-16c-6 0 -11 3 -15 9l-222 330l-114 -137v-193c0 -6 -2.66699 -9 -8 -9z" />
    <glyph glyph-name="uni0137" unicode="&#x137;" horiz-adv-x="420" 
d="M366 510h14.002c7.33301 0 8.66602 -3 3.99902 -9l-159 -235v-4l180 -253c4.66699 -6 3.66699 -9 -3 -9h-17c-7.33301 0 -13.333 3 -18 9l-175 249c-2.66699 4 -2.66699 8 0 12l158 233c3.33301 4.66699 8.66602 7 15.999 7zM102.002 0h-14c-5.33301 0 -8 3 -8 9v685
c0 6 2.66699 9 8 9h14c5.33301 0 8 -3 8 -9v-685c0 -6 -2.66699 -9 -8 -9zM253.002 -41v-47c0 -10 -8.66699 -58 -26 -144c-0.666992 -4 -2.66699 -6 -6 -6s-5 2 -5 6v191c0 6 2.66699 9 8 9h21c5.33301 0 8 -3 8 -9z" />
    <glyph glyph-name="Lacute" unicode="&#x139;" horiz-adv-x="452" 
d="M180 836l30 0.000976562c2.66699 0 4.5 -0.833008 5.5 -2.5s0.5 -3.83398 -1.5 -6.50098l-92 -112c-4 -5.33301 -8.66699 -8 -14 -8h-8c-5.33301 0 -6.33301 3 -3 9l68 111c3.33301 6 8.33301 9 15 9zM413 0.000976562h-315c-5.33301 0 -8 3 -8 9v625c0 6 2.66699 9 8 9
h14c5.33301 0 8 -3 8 -9v-596c0 -5.33301 3 -8 9 -8h284c6 0 9 -2.66699 9 -8v-14c0 -5.33301 -3 -8 -9 -8z" />
    <glyph glyph-name="lacute" unicode="&#x13a;" horiz-adv-x="197" 
d="M173 877l30 0.000976562c2.66699 0 4.5 -0.833008 5.5 -2.5s0.5 -3.83398 -1.5 -6.50098l-92 -112c-4 -5.33301 -8.66699 -8 -14 -8h-8c-5.33301 0 -6.33301 3 -3 9l68 111c2.66699 6 7.66699 9 15 9zM107 0.000976562h-14c-5.33301 0 -8 3 -8 9v685c0 6 2.66699 9 8 9
h14c5.33301 0 8 -3 8 -9v-685c0 -6 -2.66699 -9 -8 -9z" />
    <glyph glyph-name="uni013B" unicode="&#x13b;" horiz-adv-x="452" 
d="M275 -41v-47c0 -10 -8.66699 -58 -26 -144c-0.666992 -4 -2.66699 -6 -6 -6s-5 2 -5 6v191c0 6 2.66699 9 8 9h21c5.33301 0 8 -3 8 -9zM413 0h-315c-5.33301 0 -8 3 -8 9v625c0 6 2.66699 9 8 9h14c5.33301 0 8 -3 8 -9v-596c0 -5.33301 3 -8 9 -8h284
c6 0 9 -2.66699 9 -8v-14c0 -5.33301 -3 -8 -9 -8z" />
    <glyph glyph-name="uni013C" unicode="&#x13c;" horiz-adv-x="201" 
d="M119 -41v-47c0 -10 -8.66699 -58 -26 -144c-0.666992 -4 -2.66699 -6 -6 -6s-5 2 -5 6v191c0 6 2.66699 9 8 9h21c5.33301 0 8 -3 8 -9zM107 0h-14c-5.33301 0 -8 3 -8 9v685c0 6 2.66699 9 8 9h14c5.33301 0 8 -3 8 -9v-685c0 -6 -2.66699 -9 -8 -9z" />
    <glyph glyph-name="Lcaron" unicode="&#x13d;" horiz-adv-x="452" 
d="M353 634v-79c0 -10 -8.66699 -58 -26 -144c-0.666992 -4 -2.66699 -6 -6 -6s-5 2 -5 6v223c0 6 2.66699 9 8 9h21c5.33301 0 8 -3 8 -9zM413 0h-315c-5.33301 0 -8 3 -8 9v625c0 6 2.66699 9 8 9h14c5.33301 0 8 -3 8 -9v-596c0 -5.33301 3 -8 9 -8h284
c6 0 9 -2.66699 9 -8v-14c0 -5.33301 -3 -8 -9 -8z" />
    <glyph glyph-name="lcaron" unicode="&#x13e;" horiz-adv-x="252" 
d="M232 694v-79c0 -10 -8.66699 -58 -26 -144c-1.33301 -4 -3.5 -6 -6.5 -6s-4.5 2 -4.5 6v223c0 6 2.66699 9 8 9h21c5.33301 0 8 -3 8 -9zM107 0h-14c-5.33301 0 -8 3 -8 9v685c0 6 2.66699 9 8 9h14c5.33301 0 8 -3 8 -9v-685c0 -6 -2.66699 -9 -8 -9z" />
    <glyph glyph-name="Ldot" unicode="&#x13f;" horiz-adv-x="500" 
d="M413 0h-315c-5.33301 0 -8 3 -8 9v625c0 6 2.66699 9 8 9h14c5.33301 0 8 -3 8 -9v-596c0 -5.33301 3 -8 9 -8h284c6 0 9 -2.66699 9 -8v-14c0 -5.33301 -3 -8 -9 -8zM311 378v-119c0 -6 -2.66699 -9 -8 -9h-21c-5.33301 0 -8 3 -8 9v119c0 6 2.66699 9 8 9h21
c5.33301 0 8 -3 8 -9z" />
    <glyph glyph-name="ldot" unicode="&#x140;" horiz-adv-x="291" 
d="M107 0h-14c-5.33301 0 -8 3 -8 9v685c0 6 2.66699 9 8 9h14c5.33301 0 8 -3 8 -9v-685c0 -6 -2.66699 -9 -8 -9zM241 378v-119c0 -6 -2.66699 -9 -8 -9h-21c-5.33301 0 -8 3 -8 9v119c0 6 2.66699 9 8 9h21c5.33301 0 8 -3 8 -9z" />
    <glyph glyph-name="Lslash" unicode="&#x141;" horiz-adv-x="500" 
d="M413 0l-315 0.000976562c-5.33301 0 -8 3 -8 9v392l-75 -43c-6 -3.33301 -9 -2 -9 4v16c0 4.66699 3 8.66699 9 12l75 43v201c0 6 2.66699 9 8 9h14c5.33301 0 8 -3 8 -9v-184l106 60c6 3.33301 9 1.66602 9 -5.00098v-15c0 -4.66699 -3 -8.66699 -9 -12l-106 -60v-380
c0 -5.33301 3 -8 9 -8h284c6 0 9 -2.66699 9 -8v-14c0 -5.33301 -3 -8 -9 -8z" />
    <glyph glyph-name="lslash" unicode="&#x142;" horiz-adv-x="289" 
d="M151 0l-14 0.000976562c-5.33301 0 -8 3 -8 9v400l-90 -51c-6 -3.33301 -9 -2 -9 4v16c0 4.66699 3 8.66699 9 12l90 51v253c0 6 2.66699 9 8 9h14c5.33301 0 8 -3 8 -9v-236l91 52c6 3.33301 9 1.66602 9 -5.00098v-15c0 -4.66699 -3 -8.66699 -9 -12l-91 -52v-417
c0 -6 -2.66699 -9 -8 -9z" />
    <glyph glyph-name="Nacute" unicode="&#x143;" horiz-adv-x="578" 
d="M375 836l30 0.000976562c2.66699 0 4.5 -0.833008 5.5 -2.5s0.5 -3.83398 -1.5 -6.50098l-92 -112c-4 -5.33301 -8.66699 -8 -14 -8h-8c-5.33301 0 -6.33301 3 -3 9l68 111c2.66699 6 7.66699 9 15 9zM112 0.000976562h-13.999c-5.33301 0 -8 3 -8 9v625
c0 6 2.66699 9 8 9h14c3.33301 0 5.66602 -1.33301 6.99902 -4l335 -567h4v562c0 6 2.66699 9 8 9h14c5.33301 0 8 -3 8 -9v-625c0 -6 -2.66699 -9 -8 -9h-10c-4.66699 0 -8.66699 2.66699 -12 8l-334 565h-4v-564c0 -6 -2.66699 -9 -8 -9z" />
    <glyph glyph-name="nacute" unicode="&#x144;" horiz-adv-x="503" 
d="M326 703l30 0.000976562c2.66699 0 4.5 -0.833008 5.5 -2.5s0.5 -3.83398 -1.5 -6.50098l-92 -112c-4 -5.33301 -8.66699 -8 -14 -8h-8c-5.33301 0 -6.33301 3 -3 9l68 111c3.33301 6 8.33301 9 15 9zM102 0.000976562h-14c-5.33301 0 -8 3 -8 9v492c0 6 2.66699 9 8 9
h14c5.33301 0 8 -3 8 -9v-43h4c18.667 34.667 54 52 106 52h74c40.667 0 73.167 -12.333 97.5 -37s36.5 -57.667 36.5 -99v-365c0 -6 -2.66699 -9 -8 -9h-14c-5.33301 0 -8 3 -8 9v364c0 34 -9 60.667 -27 80s-43.667 29 -77 29h-72c-33.333 0 -60.333 -9 -81 -27
s-31 -43.667 -31 -77v-369c0 -6 -2.66699 -9 -8 -9z" />
    <glyph glyph-name="uni0145" unicode="&#x145;" horiz-adv-x="578" 
d="M308 -41v-47c0 -10 -8.66699 -58 -26 -144c-1.33301 -4 -3.5 -6 -6.5 -6s-4.5 2 -4.5 6v191c0 6 2.66699 9 8 9h21c5.33301 0 8 -3 8 -9zM112 0h-13.999c-5.33301 0 -8 3 -8 9v625c0 6 2.66699 9 8 9h14c3.33301 0 5.66602 -1.33301 6.99902 -4l335 -567h4v562
c0 6 2.66699 9 8 9h14c5.33301 0 8 -3 8 -9v-625c0 -6 -2.66699 -9 -8 -9h-10c-4.66699 0 -8.66699 2.66699 -12 8l-334 565h-4v-564c0 -6 -2.66699 -9 -8 -9z" />
    <glyph glyph-name="uni0146" unicode="&#x146;" horiz-adv-x="500" 
d="M273 -41v-47c0 -10 -8.66699 -58 -26 -144c-0.666992 -4 -2.66699 -6 -6 -6s-5 2 -5 6v191c0 6 2.66699 9 8 9h21c5.33301 0 8 -3 8 -9zM102 0h-14c-5.33301 0 -8 3 -8 9v492c0 6 2.66699 9 8 9h14c5.33301 0 8 -3 8 -9v-43h4c18.667 34.667 54 52 106 52h74
c40.667 0 73.167 -12.333 97.5 -37s36.5 -57.667 36.5 -99v-365c0 -6 -2.66699 -9 -8 -9h-14c-5.33301 0 -8 3 -8 9v364c0 34 -9 60.667 -27 80s-43.667 29 -77 29h-72c-33.333 0 -60.333 -9 -81 -27s-31 -43.667 -31 -77v-369c0 -6 -2.66699 -9 -8 -9z" />
    <glyph glyph-name="Ncaron" unicode="&#x147;" horiz-adv-x="578" 
d="M112 0h-13.999c-5.33301 0 -8 3 -8 9v625c0 6 2.66699 9 8 9h14c3.33301 0 5.66602 -1.33301 6.99902 -4l335 -567h4v562c0 6 2.66699 9 8 9h14c5.33301 0 8 -3 8 -9v-625c0 -6 -2.66699 -9 -8 -9h-10c-4.66699 0 -8.66699 2.66699 -12 8l-334 565h-4v-564
c0 -6 -2.66699 -9 -8 -9zM284.001 707c-8.66699 0 -14.998 3 -18.998 9l-64 109c-4.66699 7.33301 -3.33398 11 3.99902 11h14c6 0 9.66699 -1.66699 11 -5l59 -105l59 105c1.33301 3.33301 5 5 11 5h14c7.33301 0 8.66602 -3.66699 3.99902 -11l-64 -109
c-4 -6 -10.333 -9 -19 -9h-10z" />
    <glyph glyph-name="ncaron" unicode="&#x148;" horiz-adv-x="503" 
d="M249 574c-8.66699 0 -14.998 3 -18.998 9l-64 109c-4.66699 7.33301 -3.33398 11 3.99902 11h14c5.33301 0 9 -1.66699 11 -5l59 -105l59 105c2 3.33301 5.66699 5 11 5h14c7.33301 0 8.66602 -3.66699 3.99902 -11l-64 -109c-4 -6 -10.333 -9 -19 -9h-10zM102.002 0h-14
c-5.33301 0 -8 3 -8 9v492c0 6 2.66699 9 8 9h14c5.33301 0 8 -3 8 -9v-43h4c18.667 34.667 54 52 106 52h74c40.667 0 73.167 -12.333 97.5 -37s36.5 -57.667 36.5 -99v-365c0 -6 -2.66699 -9 -8 -9h-14c-5.33301 0 -8 3 -8 9v364c0 34 -9 60.667 -27 80s-43.667 29 -77 29
h-72c-33.333 0 -60.333 -9 -81 -27s-31 -43.667 -31 -77v-369c0 -6 -2.66699 -9 -8 -9z" />
    <glyph glyph-name="Eng" unicode="&#x14a;" horiz-adv-x="500" 
d="M354 -133h-19.999c-6 0 -9 2.66699 -9 8v12c0 5.33301 3 8 9 8h20c33.333 0 59 9.66699 77 29s27 46 27 80v4l-334 565h-4v-564c0 -6 -2.66699 -9 -8 -9h-14c-5.33301 0 -8 3 -8 9v625c0 6 2.66699 9 8 9h14c3.33301 0 5.66602 -1.33301 6.99902 -4l335 -567h4v562
c0 6 2.66699 9 8 9h14c5.33301 0 8 -3 8 -9v-631c0 -41.333 -12.167 -74.333 -36.5 -99s-56.833 -37 -97.5 -37z" />
    <glyph glyph-name="eng" unicode="&#x14b;" horiz-adv-x="503" 
d="M294 -133h-20c-6 0 -9 2.66699 -9 8v12c0 5.33301 3 8 9 8h20c33.333 0 59 9.66699 77 29s27 46 27 80v369c0 34 -9 60.667 -27 80s-43.667 29 -77 29h-72c-33.333 0 -60.333 -9 -81 -27s-31 -43.667 -31 -77v-369c0 -6 -2.66699 -9 -8 -9h-14c-5.33301 0 -8 3 -8 9v492
c0 6 2.66699 9 8 9h14c5.33301 0 8 -3 8 -9v-43h4c18.667 34.667 54 52 106 52h74c40.667 0 73.167 -12.333 97.5 -37s36.5 -57.667 36.5 -99v-371c0 -41.333 -12.167 -74.333 -36.5 -99s-56.833 -37 -97.5 -37z" />
    <glyph glyph-name="Omacron" unicode="&#x14c;" horiz-adv-x="553" 
d="M378 757h-204c-6 0 -9 2.66699 -9 8v12c0 5.33301 3 8 9 8h204c6 0 9 -2.66699 9 -8v-12c0 -5.33301 -3 -8 -9 -8zM214 28h125c33.333 0 59 9.66699 77 29s27 46 27 80v369c0 34 -9 60.667 -27 80s-43.667 29 -77 29h-125c-33.333 0 -59 -9.66699 -77 -29
s-27 -46 -27 -80v-369c0 -34 9 -60.667 27 -80s43.667 -29 77 -29zM339 0h-125c-40.667 -0 -73.167 12.333 -97.5 37s-36.5 57.667 -36.5 99v371c0 41.333 12.167 74.333 36.5 99s56.833 37 97.5 37h125c40.667 0 73.167 -12.333 97.5 -37s36.5 -57.667 36.5 -99v-371
c0 -41.333 -12.167 -74.333 -36.5 -99s-56.833 -37 -97.5 -37z" />
    <glyph glyph-name="omacron" unicode="&#x14d;" horiz-adv-x="493" 
d="M348 627h-204c-6 0 -9 2.66699 -9 8v9c0 5.33301 3 8 9 8h204c6 0 9 -2.66699 9 -8v-9c0 -5.33301 -3 -8 -9 -8zM289 0h-85c-40.667 -0 -73.167 12.333 -97.5 37s-36.5 57.667 -36.5 99v238c0 41.333 12.167 74.333 36.5 99s56.833 37 97.5 37h85
c40.667 0 73.167 -12.333 97.5 -37s36.5 -57.667 36.5 -99v-238c0 -41.333 -12.167 -74.333 -36.5 -99s-56.833 -37 -97.5 -37zM204 28h85c33.333 0 59 9.66699 77 29s27 46 27 80v236c0 34 -9 60.667 -27 80s-43.667 29 -77 29h-85c-33.333 0 -59 -9.66699 -77 -29
s-27 -46 -27 -80v-236c0 -34 9 -60.667 27 -80s43.667 -29 77 -29z" />
    <glyph glyph-name="Obreve" unicode="&#x14e;" horiz-adv-x="553" 
d="M181 827c0 6 2.66699 9 8 9h10c5.33301 0 8 -3 8 -9v-12c0 -31.333 5 -53.5 15 -66.5s27.333 -19.5 52 -19.5h4c26 0 44.167 6.5 54.5 19.5s15.5 35.167 15.5 66.5v11c0 6 2.66699 9 8 9h8c5.33301 0 8 -3 8 -9v-12c0 -37.333 -7.66699 -64.5 -23 -81.5
s-39 -25.5 -71 -25.5h-4c-32 0 -55.5 8.5 -70.5 25.5s-22.5 44.167 -22.5 81.5v13zM214 28h125c33.333 0 59 9.66699 77 29s27 46 27 80v369c0 34 -9 60.667 -27 80s-43.667 29 -77 29h-125c-33.333 0 -59 -9.66699 -77 -29s-27 -46 -27 -80v-369c0 -34 9 -60.667 27 -80
s43.667 -29 77 -29zM339 0h-125c-40.667 -0 -73.167 12.333 -97.5 37s-36.5 57.667 -36.5 99v371c0 41.333 12.167 74.333 36.5 99s56.833 37 97.5 37h125c40.667 0 73.167 -12.333 97.5 -37s36.5 -57.667 36.5 -99v-371c0 -41.333 -12.167 -74.333 -36.5 -99
s-56.833 -37 -97.5 -37z" />
    <glyph glyph-name="obreve" unicode="&#x14f;" horiz-adv-x="493" 
d="M151 694c0 6 2.66699 9 8 9h10c5.33301 0 8 -3 8 -9v-12c0 -31.333 5 -53.5 15 -66.5s27.333 -19.5 52 -19.5h4c26 0 44.167 6.5 54.5 19.5s15.5 35.167 15.5 66.5v11c0 6 2.66699 9 8 9h8c5.33301 0 8 -3 8 -9v-12c0 -37.333 -7.66699 -64.5 -23 -81.5
s-39 -25.5 -71 -25.5h-4c-32 0 -55.5 8.5 -70.5 25.5s-22.5 44.167 -22.5 81.5v13zM289 0h-85c-40.667 -0 -73.167 12.333 -97.5 37s-36.5 57.667 -36.5 99v238c0 41.333 12.167 74.333 36.5 99s56.833 37 97.5 37h85c40.667 0 73.167 -12.333 97.5 -37
s36.5 -57.667 36.5 -99v-238c0 -41.333 -12.167 -74.333 -36.5 -99s-56.833 -37 -97.5 -37zM204 28h85c33.333 0 59 9.66699 77 29s27 46 27 80v236c0 34 -9 60.667 -27 80s-43.667 29 -77 29h-85c-33.333 0 -59 -9.66699 -77 -29s-27 -46 -27 -80v-236
c0 -34 9 -60.667 27 -80s43.667 -29 77 -29z" />
    <glyph glyph-name="Ohungarumlaut" unicode="&#x150;" horiz-adv-x="553" 
d="M287 836l22 0.000976562c2.66699 0 4.5 -0.833008 5.5 -2.5s0.5 -3.83398 -1.5 -6.50098l-82 -112c-4 -5.33301 -8.33301 -8 -13 -8h-9c-5.33301 0 -6.33301 3 -3 9l66 111c3.33301 6 8.33301 9 15 9zM403 836.001l22 0.000976562c2.66699 0 4.5 -0.833008 5.5 -2.5
s0.5 -3.83398 -1.5 -6.50098l-82 -112c-4 -5.33301 -8.33301 -8 -13 -8h-9c-5.33301 0 -6.33301 3 -3 9l66 111c3.33301 6 8.33301 9 15 9zM214 28.002h125c33.333 0 59 9.66699 77 29s27 46 27 80v369c0 34 -9 60.667 -27 80s-43.667 29 -77 29h-125
c-33.333 0 -59 -9.66699 -77 -29s-27 -46 -27 -80v-369c0 -34 9 -60.667 27 -80s43.667 -29 77 -29zM339 0.00195312h-125c-40.667 0 -73.167 12.333 -97.5 37s-36.5 57.667 -36.5 99v371c0 41.333 12.167 74.333 36.5 99s56.833 37 97.5 37h125
c40.667 0 73.167 -12.333 97.5 -37s36.5 -57.667 36.5 -99v-371c0 -41.333 -12.167 -74.333 -36.5 -99s-56.833 -37 -97.5 -37z" />
    <glyph glyph-name="ohungarumlaut" unicode="&#x151;" horiz-adv-x="493" 
d="M263 703l22 0.000976562c2.66699 0 4.5 -0.833008 5.5 -2.5s0.5 -3.83398 -1.5 -6.50098l-82 -112c-4 -5.33301 -8.33301 -8 -13 -8h-9c-5.33301 0 -6.33301 3 -3 9l66 111c3.33301 6 8.33301 9 15 9zM379 703.001l22 0.000976562c2.66699 0 4.5 -0.833008 5.5 -2.5
s0.5 -3.83398 -1.5 -6.50098l-82 -112c-4 -5.33301 -8.33301 -8 -13 -8h-9c-5.33301 0 -6.33301 3 -3 9l66 111c3.33301 6 8.33301 9 15 9zM289 0.00195312h-85c-40.667 0 -73.167 12.333 -97.5 37s-36.5 57.667 -36.5 99v238c0 41.333 12.167 74.333 36.5 99
s56.833 37 97.5 37h85c40.667 0 73.167 -12.333 97.5 -37s36.5 -57.667 36.5 -99v-238c0 -41.333 -12.167 -74.333 -36.5 -99s-56.833 -37 -97.5 -37zM204 28.002h85c33.333 0 59 9.66699 77 29s27 46 27 80v236c0 34 -9 60.667 -27 80s-43.667 29 -77 29h-85
c-33.333 0 -59 -9.66699 -77 -29s-27 -46 -27 -80v-236c0 -34 9 -60.667 27 -80s43.667 -29 77 -29z" />
    <glyph glyph-name="OE" unicode="&#x152;" horiz-adv-x="773" 
d="M80 136v371c0 41.333 12.167 74.333 36.5 99s56.833 37 97.5 37h470c6 0 9 -2.66699 9 -8v-12c0 -5.33301 -3 -8 -9 -8h-273c-6 0 -9 -2.66699 -9 -8v-257c0 -5.33301 3 -8 9 -8h247c6 0 9 -2.66699 9 -8v-12c0 -5.33301 -3 -8 -9 -8h-247c-6 0 -9 -2.66699 -9 -8v-270
c0 -5.33301 3 -8 9 -8h273c6 0 9 -2.66699 9 -8v-12c0 -5.33301 -3 -8 -9 -8h-470c-40.667 -0 -73.167 12.333 -97.5 37s-36.5 57.667 -36.5 99zM214 28h149c6 0 9 2.66699 9 8v571c0 5.33301 -3 8 -9 8h-149c-33.333 0 -59 -9.66699 -77 -29s-27 -46 -27 -80v-369
c0 -34 9 -60.667 27 -80s43.667 -29 77 -29z" />
    <glyph glyph-name="oe" unicode="&#x153;" horiz-adv-x="819" 
d="M289 0h-85c-40.667 -0 -73.167 12.333 -97.5 37s-36.5 57.667 -36.5 99v238c0 41.333 12.167 74.333 36.5 99s56.833 37 97.5 37h85c56.667 0 96.334 -22.333 119.001 -67c22.667 44.667 62.334 67 119.001 67h88c40.667 0 73.167 -12.333 97.5 -37
s36.5 -57.667 36.5 -99v-127c0 -6.66699 -3 -10 -9 -10h-308c-6 0 -9 -2.66699 -9 -8v-92c0 -34 9 -60.667 27 -80s43.667 -29 77 -29h205c6 0 9 -2.66699 9 -8v-12c0 -5.33301 -3 -8 -9 -8h-205c-56.667 -0 -96.334 22.333 -119.001 67
c-22.667 -44.667 -62.334 -67 -119.001 -67zM432 265h278c6 0 9 2.66699 9 8v100c0 34 -9 60.667 -27 80s-43.667 29 -77 29h-88c-33.333 0 -59 -9.66699 -77 -29s-27 -46 -27 -80v-100c0 -5.33301 3 -8 9 -8zM204 28h85c33.333 0 59 9.66699 77 29s27 46 27 80v236
c0 34 -9 60.667 -27 80s-43.667 29 -77 29h-85c-33.333 0 -59 -9.66699 -77 -29s-27 -46 -27 -80v-236c0 -34 9 -60.667 27 -80s43.667 -29 77 -29z" />
    <glyph glyph-name="Racute" unicode="&#x154;" horiz-adv-x="530" 
d="M315 836l30 0.000976562c2.66699 0 4.5 -0.833008 5.5 -2.5s0.5 -3.83398 -1.5 -6.50098l-92 -112c-4 -5.33301 -8.66699 -8 -14 -8h-8c-5.33301 0 -6.33301 3 -3 9l68 111c2.66699 6 7.66699 9 15 9zM112 0.000976562l-14.001 0.000976562c-5.33301 0 -8 3 -8 9v625
c0 6 2.66699 9 8 9h225c40.667 0 73.167 -12.333 97.5 -37s36.5 -57.667 36.5 -99v-100c0 -37.333 -10 -67.833 -30 -91.5s-47 -37.834 -81 -42.501v-4l123 -260c3.33301 -6 2 -9 -4 -9h-18c-5.33301 0 -9.66602 3 -12.999 9l-122 262h-183c-6 0 -9 -2.66699 -9 -8v-254
c0 -6 -2.66699 -9 -8 -9zM128.999 299.002h194c33.333 0 59 9.66699 77 29s27 46 27 80v98c0 34 -9 60.667 -27 80s-43.667 29 -77 29h-194c-6 0 -9 -2.66699 -9 -8v-300c0 -5.33301 3 -8 9 -8z" />
    <glyph glyph-name="racute" unicode="&#x155;" horiz-adv-x="303" 
d="M215 703l30 0.000976562c2.66699 0 4.5 -0.833008 5.5 -2.5s0.5 -3.83398 -1.5 -6.50098l-92 -112c-4 -5.33301 -8.66699 -8 -14 -8h-8c-5.33301 0 -6.33301 3 -3 9l68 111c2.66699 6 7.66699 9 15 9zM102 0.000976562l-13.998 0.000976562c-5.33301 0 -8 3 -8 9v492
c0 6 2.66699 9 8 9h14c5.33301 0 8 -3 8 -9v-45h4c7.33301 13.333 20.166 25.666 38.499 36.999s42.166 17 71.499 17h40c6 0 9 -2.66699 9 -8v-12c0 -5.33301 -3 -8 -9 -8h-41c-34 0 -61.333 -10.667 -82 -32s-31 -50.333 -31 -87v-354c0 -6 -2.66699 -9 -8 -9z" />
    <glyph glyph-name="uni0156" unicode="&#x156;" horiz-adv-x="530" 
d="M280 -41v-47c0 -10 -8.66699 -58 -26 -144c-1.33301 -4 -3.5 -6 -6.5 -6s-4.5 2 -4.5 6v191c0 6 2.66699 9 8 9h21c5.33301 0 8 -3 8 -9zM112 0l-14.001 0.000976562c-5.33301 0 -8 3 -8 9v625c0 6 2.66699 9 8 9h225c40.667 0 73.167 -12.333 97.5 -37
s36.5 -57.667 36.5 -99v-100c0 -37.333 -10 -67.833 -30 -91.5s-47 -37.834 -81 -42.501v-4l123 -260c3.33301 -6 2 -9 -4 -9h-18c-5.33301 0 -9.66602 3 -12.999 9l-122 262h-183c-6 0 -9 -2.66699 -9 -8v-254c0 -6 -2.66699 -9 -8 -9zM128.999 299.001h194
c33.333 0 59 9.66699 77 29s27 46 27 80v98c0 34 -9 60.667 -27 80s-43.667 29 -77 29h-194c-6 0 -9 -2.66699 -9 -8v-300c0 -5.33301 3 -8 9 -8z" />
    <glyph glyph-name="uni0157" unicode="&#x157;" horiz-adv-x="303" 
d="M114 -41v-47c0 -10 -8.66699 -58 -26 -144c-1.33301 -4 -3.5 -6 -6.5 -6s-4.5 2 -4.5 6v191c0 6 2.66699 9 8 9h21c5.33301 0 8 -3 8 -9zM102 0l-13.998 0.000976562c-5.33301 0 -8 3 -8 9v492c0 6 2.66699 9 8 9h14c5.33301 0 8 -3 8 -9v-45h4
c7.33301 13.333 20.166 25.666 38.499 36.999s42.166 17 71.499 17h40c6 0 9 -2.66699 9 -8v-12c0 -5.33301 -3 -8 -9 -8h-41c-34 0 -61.333 -10.667 -82 -32s-31 -50.333 -31 -87v-354c0 -6 -2.66699 -9 -8 -9z" />
    <glyph glyph-name="Rcaron" unicode="&#x158;" horiz-adv-x="530" 
d="M245 707c-8.66699 0 -14.998 3 -18.998 9l-64 109c-4.66699 7.33301 -3.33398 11 3.99902 11h14c5.33301 0 9 -1.66699 11 -5l59 -105l59 105c2 3.33301 5.66699 5 11 5h14c7.33301 0 8.66602 -3.66699 3.99902 -11l-64 -109c-4 -6 -10.333 -9 -19 -9h-10zM112.002 0
l-14.001 0.000976562c-5.33301 0 -8 3 -8 9v625c0 6 2.66699 9 8 9h225c40.667 0 73.167 -12.333 97.5 -37s36.5 -57.667 36.5 -99v-100c0 -37.333 -10 -67.833 -30 -91.5s-47 -37.834 -81 -42.501v-4l123 -260c3.33301 -6 2 -9 -4 -9h-18c-5.33301 0 -9.66602 3 -12.999 9
l-122 262h-183c-6 0 -9 -2.66699 -9 -8v-254c0 -6 -2.66699 -9 -8 -9zM129.001 299.001h194c33.333 0 59 9.66699 77 29s27 46 27 80v98c0 34 -9 60.667 -27 80s-43.667 29 -77 29h-194c-6 0 -9 -2.66699 -9 -8v-300c0 -5.33301 3 -8 9 -8z" />
    <glyph glyph-name="rcaron" unicode="&#x159;" horiz-adv-x="303" 
d="M165 574c-8.66699 0 -14.998 3 -18.998 9l-64 109c-4.66699 7.33301 -3.33398 11 3.99902 11h14c5.33301 0 9 -1.66699 11 -5l59 -105l59 105c2 3.33301 5.66699 5 11 5h14c7.33301 0 8.66602 -3.66699 3.99902 -11l-64 -109c-4 -6 -10.333 -9 -19 -9h-10zM102.002 0
l-13.998 0.000976562c-5.33301 0 -8 3 -8 9v492c0 6 2.66699 9 8 9h14c5.33301 0 8 -3 8 -9v-45h4c7.33301 13.333 20.166 25.666 38.499 36.999s42.166 17 71.499 17h40c6 0 9 -2.66699 9 -8v-12c0 -5.33301 -3 -8 -9 -8h-41c-34 0 -61.333 -10.667 -82 -32
s-31 -50.333 -31 -87v-354c0 -6 -2.66699 -9 -8 -9z" />
    <glyph glyph-name="Sacute" unicode="&#x15a;" horiz-adv-x="568" 
d="M351 836l30 0.000976562c2.66699 0 4.5 -0.833008 5.5 -2.5s0.5 -3.83398 -1.5 -6.50098l-92 -112c-4 -5.33301 -8.66699 -8 -14 -8h-8c-5.33301 0 -6.33301 3 -3 9l68 111c2.66699 6 7.66699 9 15 9zM90 136.001v40.0039c0 6 2.66699 9 8 9h14c5.33301 0 8 -3 8 -9v-39
c0 -34 9 -60.667 27 -80s43.667 -29 77 -29h120c33.333 0 59 9.66699 77 29s27 46 27 80v50c0 31.333 -12.333 56.166 -37 74.499s-54.5 31.666 -89.5 39.999l-105 25c-35 8.33301 -64.833 22.166 -89.5 41.499s-37 45.666 -37 78.999v60c0 41.333 12.167 74.333 36.5 99
s56.833 37 97.5 37h120c40.667 0 73.167 -12.333 97.5 -37s36.5 -57.667 36.5 -99v-30c0 -6 -2.66699 -9 -8 -9h-14c-5.33301 0 -8 3 -8 9v29c0 34 -9 60.667 -27 80s-43.667 29 -77 29h-120c-33.333 0 -59 -9.66699 -77 -29s-27 -46 -27 -80v-58
c0 -49.333 42 -83.333 126 -102c35.333 -7.33301 70.5 -15.5 105.5 -24.5s64.833 -24.333 89.5 -46s37 -50.5 37 -86.5v-53c0 -41.333 -12.167 -74.333 -36.5 -99s-56.833 -37 -97.5 -37h-120c-40.667 0 -73.167 12.333 -97.5 37s-36.5 57.667 -36.5 99z" />
    <glyph glyph-name="sacute" unicode="&#x15b;" horiz-adv-x="423" 
d="M265 703l30 0.000976562c2.66699 0 4.5 -0.833008 5.5 -2.5s0.5 -3.83398 -1.5 -6.50098l-92 -112c-4 -5.33301 -8.66699 -8 -14 -8h-8c-5.33301 0 -6.33301 3 -3 9l68 111c2.66699 6 7.66699 9 15 9zM238 0.000976562l-169.998 0.000976562c-6 0 -9 2.66699 -9 8v12
c0 5.33301 3 8 9 8h170c67.333 0 101 26.667 101 80v30c0 24.667 -4.33301 44.667 -13 60s-24.334 27 -47.001 35l-132 46c-34.667 12 -58.834 26.833 -72.501 44.5s-20.5 42.5 -20.5 74.5c0 74.667 40.667 112 122 112h161c6 0 9 -2.66699 9 -8v-12c0 -5.33301 -3 -8 -9 -8
h-161c-30.667 0 -53.5 -7 -68.5 -21s-22.5 -30 -22.5 -48v-27c0 -21.333 5.5 -37.833 16.5 -49.5s28.167 -21.5 51.5 -29.5l131 -47c35.333 -10 58.333 -26.333 69 -49s16 -54.334 16 -95.001s-10.667 -70.167 -32 -88.5s-54.333 -27.5 -99 -27.5z" />
    <glyph glyph-name="Scircumflex" unicode="&#x15c;" horiz-adv-x="568" 
d="M368 707h-14.002c-5.33301 0 -9 1.66699 -11 5l-59 105l-59 -105c-2 -3.33301 -5.66699 -5 -11 -5h-14c-7.33301 0 -8.66602 3.66699 -3.99902 11l64 109c4 6 10.333 9 19 9h10c8.66699 0 15 -3 19 -9l64 -109c4.66699 -7.33301 3.33398 -11 -3.99902 -11zM89.998 136
v40.0039c0 6 2.66699 9 8 9h14c5.33301 0 8 -3 8 -9v-39c0 -34 9 -60.667 27 -80s43.667 -29 77 -29h120c33.333 0 59 9.66699 77 29s27 46 27 80v50c0 31.333 -12.333 56.166 -37 74.499s-54.5 31.666 -89.5 39.999l-105 25c-35 8.33301 -64.833 22.166 -89.5 41.499
s-37 45.666 -37 78.999v60c0 41.333 12.167 74.333 36.5 99s56.833 37 97.5 37h120c40.667 0 73.167 -12.333 97.5 -37s36.5 -57.667 36.5 -99v-30c0 -6 -2.66699 -9 -8 -9h-14c-5.33301 0 -8 3 -8 9v29c0 34 -9 60.667 -27 80s-43.667 29 -77 29h-120
c-33.333 0 -59 -9.66699 -77 -29s-27 -46 -27 -80v-58c0 -49.333 42 -83.333 126 -102c35.333 -7.33301 70.5 -15.5 105.5 -24.5s64.833 -24.333 89.5 -46s37 -50.5 37 -86.5v-53c0 -41.333 -12.167 -74.333 -36.5 -99s-56.833 -37 -97.5 -37h-120
c-40.667 -0 -73.167 12.333 -97.5 37s-36.5 57.667 -36.5 99z" />
    <glyph glyph-name="scircumflex" unicode="&#x15d;" horiz-adv-x="423" 
d="M294 574h-14.002c-5.33301 0 -9 1.66699 -11 5l-59 105l-59 -105c-2 -3.33301 -5.66699 -5 -11 -5h-14c-7.33301 0 -8.66602 3.66699 -3.99902 11l64 109c4 6 10.333 9 19 9h10c8.66699 0 15 -3 19 -9l64 -109c4.66699 -7.33301 3.33398 -11 -3.99902 -11zM237.998 0
l-169.998 0.000976562c-6 0 -9 2.66699 -9 8v12c0 5.33301 3 8 9 8h170c67.333 0 101 26.667 101 80v30c0 24.667 -4.33301 44.667 -13 60s-24.334 27 -47.001 35l-132 46c-34.667 12 -58.834 26.833 -72.501 44.5s-20.5 42.5 -20.5 74.5c0 74.667 40.667 112 122 112h161
c6 0 9 -2.66699 9 -8v-12c0 -5.33301 -3 -8 -9 -8h-161c-30.667 0 -53.5 -7 -68.5 -21s-22.5 -30 -22.5 -48v-27c0 -21.333 5.5 -37.833 16.5 -49.5s28.167 -21.5 51.5 -29.5l131 -47c35.333 -10 58.333 -26.333 69 -49s16 -54.334 16 -95.001s-10.667 -70.167 -32 -88.5
s-54.333 -27.5 -99 -27.5z" />
    <glyph glyph-name="uni015E" unicode="&#x15e;" horiz-adv-x="568" 
d="M470 468l-14.001 0.00585938c-5.33301 0 -8 3 -8 9v29c0 34 -9 60.667 -27 80s-43.667 29 -77 29h-120c-33.333 0 -59 -9.66699 -77 -29s-27 -46 -27 -80v-58c0 -49.333 42 -83.333 126 -102c35.333 -7.33301 70.5 -15.5 105.5 -24.5s64.833 -24.333 89.5 -46
s37 -50.5 37 -86.5v-53c0 -41.333 -12.167 -74.333 -36.5 -99s-56.833 -37 -97.5 -37h-21l-46 -50v-4c26.667 0 46.5 -4.33301 59.5 -13s19.5 -23.334 19.5 -44.001v-10c0 -38 -26.333 -57 -79 -57h-19c-6 0 -9 2.66699 -9 8v10c0 5.33301 3 8 9 8h16
c20 0 34.167 2.5 42.5 7.5s12.5 13.833 12.5 26.5v2c0 13.333 -4 22.666 -12 27.999s-22.333 8 -43 8h-9c-11.333 0 -18.666 4 -21.999 12s-1.33301 15.667 6 23l40 45h-65c-40.667 0 -73.167 12.333 -97.5 37s-36.5 57.667 -36.5 99v40c0 6 2.66699 9 8 9h14
c5.33301 0 8 -3 8 -9v-39c0 -34 9 -60.667 27 -80s43.667 -29 77 -29h120c33.333 0 59 9.66699 77 29s27 46 27 80v50c0 31.333 -12.333 56.166 -37 74.499s-54.5 31.666 -89.5 39.999l-105 25c-35 8.33301 -64.833 22.166 -89.5 41.499s-37 45.666 -37 78.999v60
c0 41.333 12.167 74.333 36.5 99s56.833 37 97.5 37h120c40.667 0 73.167 -12.333 97.5 -37s36.5 -57.667 36.5 -99v-30c0 -6 -2.66699 -9 -8 -9z" />
    <glyph glyph-name="uni015F" unicode="&#x15f;" horiz-adv-x="423" 
d="M205 -54c26.667 0 46.501 -4.33008 59.501 -12.9971s19.5 -23.334 19.5 -44.001v-10c0 -38 -26.333 -57 -79 -57h-19c-6 0 -9 2.66699 -9 8v10c0 5.33301 3 8 9 8h16c36.667 0 55 11.333 55 34v2c0 13.333 -4 22.666 -12 27.999s-22.333 8 -43 8h-9
c-11.333 0 -18.666 4 -21.999 12s-1.33301 15.667 6 23l40 45h-149c-6 0 -9 2.66699 -9 8v12c0 5.33301 3 8 9 8h170c67.333 0 101 26.667 101 80v30c0 24.667 -4.33301 44.667 -13 60s-24.334 27 -47.001 35l-132 46c-34.667 12 -58.834 26.833 -72.501 44.5
s-20.5 42.5 -20.5 74.5c0 74.667 40.667 112 122 112h161c6 0 9 -2.66699 9 -8v-12c0 -5.33301 -3 -8 -9 -8h-161c-30.667 0 -53.5 -7 -68.5 -21s-22.5 -30 -22.5 -48v-27c0 -21.333 5.5 -37.833 16.5 -49.5s28.167 -21.5 51.5 -29.5l131 -47
c35.333 -10 58.333 -26.333 69 -49s16 -53.834 16 -93.501s-9.5 -68.667 -28.5 -87s-48.5 -28.5 -88.5 -30.5l-47 -50v-4z" />
    <glyph glyph-name="Scaron" unicode="&#x160;" horiz-adv-x="568" 
d="M279 707c-8.66699 0 -14.998 3 -18.998 9l-64 109c-4.66699 7.33301 -3.33398 11 3.99902 11h14c5.33301 0 9 -1.66699 11 -5l59 -105l59 105c2 3.33301 5.66699 5 11 5h14c7.33301 0 8.66602 -3.66699 3.99902 -11l-64 -109c-4 -6 -10.333 -9 -19 -9h-10zM90.002 136
v40.0039c0 6 2.66699 9 8 9h14c5.33301 0 8 -3 8 -9v-39c0 -34 9 -60.667 27 -80s43.667 -29 77 -29h120c33.333 0 59 9.66699 77 29s27 46 27 80v50c0 31.333 -12.333 56.166 -37 74.499s-54.5 31.666 -89.5 39.999l-105 25c-35 8.33301 -64.833 22.166 -89.5 41.499
s-37 45.666 -37 78.999v60c0 41.333 12.167 74.333 36.5 99s56.833 37 97.5 37h120c40.667 0 73.167 -12.333 97.5 -37s36.5 -57.667 36.5 -99v-30c0 -6 -2.66699 -9 -8 -9h-14c-5.33301 0 -8 3 -8 9v29c0 34 -9 60.667 -27 80s-43.667 29 -77 29h-120
c-33.333 0 -59 -9.66699 -77 -29s-27 -46 -27 -80v-58c0 -49.333 42 -83.333 126 -102c35.333 -7.33301 70.5 -15.5 105.5 -24.5s64.833 -24.333 89.5 -46s37 -50.5 37 -86.5v-53c0 -41.333 -12.167 -74.333 -36.5 -99s-56.833 -37 -97.5 -37h-120
c-40.667 -0 -73.167 12.333 -97.5 37s-36.5 57.667 -36.5 99z" />
    <glyph glyph-name="scaron" unicode="&#x161;" horiz-adv-x="423" 
d="M205 574c-8.66699 0 -14.998 3 -18.998 9l-64 109c-4.66699 7.33301 -3.33398 11 3.99902 11h14c5.33301 0 9 -1.66699 11 -5l59 -105l59 105c2 3.33301 5.66699 5 11 5h14c7.33301 0 8.66602 -3.66699 3.99902 -11l-64 -109c-4 -6 -10.333 -9 -19 -9h-10zM238.002 0
l-169.998 0.000976562c-6 0 -9 2.66699 -9 8v12c0 5.33301 3 8 9 8h170c67.333 0 101 26.667 101 80v30c0 24.667 -4.33301 44.667 -13 60s-24.334 27 -47.001 35l-132 46c-34.667 12 -58.834 26.833 -72.501 44.5s-20.5 42.5 -20.5 74.5c0 74.667 40.667 112 122 112h161
c6 0 9 -2.66699 9 -8v-12c0 -5.33301 -3 -8 -9 -8h-161c-30.667 0 -53.5 -7 -68.5 -21s-22.5 -30 -22.5 -48v-27c0 -21.333 5.5 -37.833 16.5 -49.5s28.167 -21.5 51.5 -29.5l131 -47c35.333 -10 58.333 -26.333 69 -49s16 -54.334 16 -95.001s-10.667 -70.167 -32 -88.5
s-54.333 -27.5 -99 -27.5z" />
    <glyph glyph-name="uni0162" unicode="&#x162;" horiz-adv-x="414" 
d="M226 -41v-47c0 -10 -8.66699 -58 -26 -144c-1.33301 -4 -3.5 -6 -6.5 -6s-4.5 2 -4.5 6v191c0 6 2.66699 9 8 9h21c5.33301 0 8 -3 8 -9zM214 0h-14c-5.33301 0 -8 3 -8 9v598c0 5.33301 -3 8 -9 8h-154c-6 0 -9 2.66699 -9 8v12c0 5.33301 3 8 9 8h356
c6 0 9 -2.66699 9 -8v-12c0 -5.33301 -3 -8 -9 -8h-154c-6 0 -9 -2.66699 -9 -8v-598c0 -6 -2.66699 -9 -8 -9z" />
    <glyph glyph-name="uni0163" unicode="&#x163;" horiz-adv-x="346" 
d="M227 -41v-47c0 -10 -8.66699 -58 -26 -144c-0.666992 -4 -2.66699 -6 -6 -6s-5 2 -5 6v191c0 6 2.66699 9 8 9h21c5.33301 0 8 -3 8 -9zM105 482h-66c-6 0 -9 2.66699 -9 8v12c0 5.33301 3 8 9 8h66c6 0 9 2.66699 9 8v78c0 6 2.66699 9 8 9h14c5.33301 0 8 -3 8 -9v-78
c0 -5.33301 3 -8 9 -8h129c6 0 9 -2.66699 9 -8v-12c0 -5.33301 -3 -8 -9 -8h-129c-6 0 -9 -2.66699 -9 -8v-340c0 -33.333 9.83301 -59.333 29.5 -78s46.5 -28 80.5 -28h38c6 0 9 -2.66699 9 -8v-12c0 -5.33301 -3 -8 -9 -8h-38c-41.333 0 -75 12 -101 36
s-39 56.333 -39 97v341c0 5.33301 -3 8 -9 8z" />
    <glyph glyph-name="Tcaron" unicode="&#x164;" horiz-adv-x="414" 
d="M203 707c-8.66699 0 -14.998 3 -18.998 9l-64 109c-4.66699 7.33301 -3.33398 11 3.99902 11h14c5.33301 0 9 -1.66699 11 -5l59 -105l59 105c2 3.33301 5.66699 5 11 5h14c7.33301 0 8.66602 -3.66699 3.99902 -11l-64 -109c-4 -6 -10.333 -9 -19 -9h-10zM214.002 0h-14
c-5.33301 0 -8 3 -8 9v598c0 5.33301 -3 8 -9 8h-154c-6 0 -9 2.66699 -9 8v12c0 5.33301 3 8 9 8h356c6 0 9 -2.66699 9 -8v-12c0 -5.33301 -3 -8 -9 -8h-154c-6 0 -9 -2.66699 -9 -8v-598c0 -6 -2.66699 -9 -8 -9z" />
    <glyph glyph-name="tcaron" unicode="&#x165;" horiz-adv-x="377" 
d="M367 634v-79c0 -10 -8.66699 -58 -26 -144c-0.666992 -4 -2.66699 -6 -6 -6s-5 2 -5 6v223c0 6 2.66699 9 8 9h21c5.33301 0 8 -3 8 -9zM105 482h-66c-6 0 -9 2.66699 -9 8v12c0 5.33301 3 8 9 8h66c6 0 9 2.66699 9 8v78c0 6 2.66699 9 8 9h14c5.33301 0 8 -3 8 -9v-78
c0 -5.33301 3 -8 9 -8h129c6 0 9 -2.66699 9 -8v-12c0 -5.33301 -3 -8 -9 -8h-129c-6 0 -9 -2.66699 -9 -8v-340c0 -33.333 9.83301 -59.333 29.5 -78s46.5 -28 80.5 -28h38c6 0 9 -2.66699 9 -8v-12c0 -5.33301 -3 -8 -9 -8h-38c-41.333 0 -75 12 -101 36
s-39 56.333 -39 97v341c0 5.33301 -3 8 -9 8z" />
    <glyph glyph-name="Tbar" unicode="&#x166;" horiz-adv-x="500" 
d="M214 0h-14c-5.33301 0 -8 3 -8 9v315c0 5.33301 -3 8 -9 8h-104c-6 0 -9 2.66699 -9 8v12c0 5.33301 3 8 9 8h104c6 0 9 2.66699 9 8v239c0 5.33301 -3 8 -9 8h-154c-6 0 -9 2.66699 -9 8v12c0 5.33301 3 8 9 8h356c6 0 9 -2.66699 9 -8v-12c0 -5.33301 -3 -8 -9 -8h-154
c-6 0 -9 -2.66699 -9 -8v-239c0 -5.33301 3 -8 9 -8h114c6 0 9 -2.66699 9 -8v-12c0 -5.33301 -3 -8 -9 -8h-114c-6 0 -9 -2.66699 -9 -8v-315c0 -6 -2.66699 -9 -8 -9z" />
    <glyph glyph-name="tbar" unicode="&#x167;" horiz-adv-x="346" 
d="M292 0h-38c-41.333 0 -75 12 -101 36s-39 56.333 -39 97v141c0 5.33301 -3 8 -9 8h-66c-6 0 -9 2.66699 -9 8v12c0 5.33301 3 8 9 8h66c6 0 9 2.66699 9 8v156c0 5.33301 -3 8 -9 8h-66c-6 0 -9 2.66699 -9 8v12c0 5.33301 3 8 9 8h66c6 0 9 2.66699 9 8v78
c0 6 2.66699 9 8 9h14c5.33301 0 8 -3 8 -9v-78c0 -5.33301 3 -8 9 -8h129c6 0 9 -2.66699 9 -8v-12c0 -5.33301 -3 -8 -9 -8h-129c-6 0 -9 -2.66699 -9 -8v-156c0 -5.33301 3 -8 9 -8h129c6 0 9 -2.66699 9 -8v-12c0 -5.33301 -3 -8 -9 -8h-129c-6 0 -9 -2.66699 -9 -8
v-140c0 -33.333 9.83301 -59.333 29.5 -78s46.5 -28 80.5 -28h38c6 0 9 -2.66699 9 -8v-12c0 -5.33301 -3 -8 -9 -8z" />
    <glyph glyph-name="Utilde" unicode="&#x168;" horiz-adv-x="550" 
d="M263.5 714c-8.33301 -8 -21.832 -12.001 -40.499 -12.001s-31.834 5.83301 -39.501 17.5s-11.5 31.834 -11.5 60.501v39c0 6 2.66699 9 8 9h7c5.33301 0 8 -3 8 -9v-38c0 -22 2.16699 -37.167 6.5 -45.5s12.166 -12.5 23.499 -12.5s19.166 3.33301 23.499 10
s10 21.167 17 43.5s14.333 37 22 44s20.834 10.5 39.501 10.5s31.834 -5.83301 39.501 -17.5s11.5 -31.834 11.5 -60.501v-42c0 -6 -2.66699 -9 -8 -9h-7c-5.33301 0 -8 3 -8 9v41c0 22 -2.16699 37.167 -6.5 45.5s-12.833 12.5 -25.5 12.5s-21.667 -6 -27 -18
c-1.33301 -3.33301 -5 -15.166 -11 -35.499s-13.167 -34.5 -21.5 -42.5zM443.001 642.999h14c5.33301 0 8 -2.66699 8 -8v-499c0 -41.333 -12.167 -74.333 -36.5 -99s-56.833 -37 -97.5 -37h-112c-40.667 0 -73.167 12.333 -97.5 37s-36.5 57.667 -36.5 99v498
c0 6 2.66699 9 8 9h14c5.33301 0 8 -3 8 -9v-497c0 -34 9 -60.667 27 -80s43.667 -29 77 -29h112c33.333 0 59 9.66699 77 29s27 46 27 80v497c0 6 2.66699 9 8 9z" />
    <glyph glyph-name="utilde" unicode="&#x169;" horiz-adv-x="503" 
d="M146 655l0.000976562 38.999c0 6 2.66699 9 8 9h7c5.33301 0 8 -3 8 -9v-38c0 -22 2.16699 -37.167 6.5 -45.5s12.166 -12.5 23.499 -12.5s19.166 3.33301 23.499 10s10 21.167 17 43.5s14.333 37 22 44s20.834 10.5 39.501 10.5s31.834 -5.83301 39.501 -17.5
s11.5 -31.834 11.5 -60.501v-42c0 -6 -2.66699 -9 -8 -9h-7c-5.33301 0 -8 3 -8 9v41c0 22 -2.16699 37.167 -6.5 45.5s-12.833 12.5 -25.5 12.5s-21.667 -6 -27 -18c-1.33301 -3.33301 -5 -15.166 -11 -35.499s-13.167 -34.5 -21.5 -42.5s-21.833 -12 -40.5 -12
s-31.834 5.83301 -39.501 17.5s-11.5 31.834 -11.5 60.501zM283.001 -0.000976562h-74c-40.667 0 -73.167 12.333 -97.5 37s-36.5 57.667 -36.5 99v365c0 6 2.66699 9 8 9h14c5.33301 0 8 -3 8 -9v-364c0 -34 9 -60.667 27 -80s43.667 -29 77 -29h72
c33.333 0 60.333 9 81 27s31 43.667 31 77v369c0 6 2.66699 9 8 9h14c5.33301 0 8 -3 8 -9v-492c0 -6 -2.66699 -9 -8 -9h-14c-5.33301 0 -8 3 -8 9v43h-4c-18.667 -34.667 -54 -52 -106 -52z" />
    <glyph glyph-name="Umacron" unicode="&#x16a;" horiz-adv-x="550" 
d="M377 757h-204c-6 0 -9 2.66699 -9 8v12c0 5.33301 3 8 9 8h204c6 0 9 -2.66699 9 -8v-12c0 -5.33301 -3 -8 -9 -8zM443 643h14c5.33301 0 8 -2.66699 8 -8v-499c0 -41.333 -12.167 -74.333 -36.5 -99s-56.833 -37 -97.5 -37h-112c-40.667 -0 -73.167 12.333 -97.5 37
s-36.5 57.667 -36.5 99v498c0 6 2.66699 9 8 9h14c5.33301 0 8 -3 8 -9v-497c0 -34 9 -60.667 27 -80s43.667 -29 77 -29h112c33.333 0 59 9.66699 77 29s27 46 27 80v497c0 6 2.66699 9 8 9z" />
    <glyph glyph-name="umacron" unicode="&#x16b;" horiz-adv-x="503" 
d="M351 627h-204c-6 0 -9 2.66699 -9 8v9c0 5.33301 3 8 9 8h204c6 0 9 -2.66699 9 -8v-9c0 -5.33301 -3 -8 -9 -8zM283 0h-74c-40.667 -0 -73.167 12.333 -97.5 37s-36.5 57.667 -36.5 99v365c0 6 2.66699 9 8 9h14c5.33301 0 8 -3 8 -9v-364c0 -34 9 -60.667 27 -80
s43.667 -29 77 -29h72c33.333 0 60.333 9 81 27s31 43.667 31 77v369c0 6 2.66699 9 8 9h14c5.33301 0 8 -3 8 -9v-492c0 -6 -2.66699 -9 -8 -9h-14c-5.33301 0 -8 3 -8 9v43h-4c-18.667 -34.667 -54 -52 -106 -52z" />
    <glyph glyph-name="Ubreve" unicode="&#x16c;" horiz-adv-x="550" 
d="M180 827c0 6 2.66699 9 8 9h10c5.33301 0 8 -3 8 -9v-12c0 -31.333 5 -53.5 15 -66.5s27.333 -19.5 52 -19.5h4c26 0 44.167 6.5 54.5 19.5s15.5 35.167 15.5 66.5v11c0 6 2.66699 9 8 9h8c5.33301 0 8 -3 8 -9v-12c0 -37.333 -7.66699 -64.5 -23 -81.5
s-39 -25.5 -71 -25.5h-4c-32 0 -55.5 8.5 -70.5 25.5s-22.5 44.167 -22.5 81.5v13zM443 643h14c5.33301 0 8 -2.66699 8 -8v-499c0 -41.333 -12.167 -74.333 -36.5 -99s-56.833 -37 -97.5 -37h-112c-40.667 -0 -73.167 12.333 -97.5 37s-36.5 57.667 -36.5 99v498
c0 6 2.66699 9 8 9h14c5.33301 0 8 -3 8 -9v-497c0 -34 9 -60.667 27 -80s43.667 -29 77 -29h112c33.333 0 59 9.66699 77 29s27 46 27 80v497c0 6 2.66699 9 8 9z" />
    <glyph glyph-name="ubreve" unicode="&#x16d;" horiz-adv-x="503" 
d="M154 684c0 6 2.66699 9 8 9h10c5.33301 0 8 -3 8 -9v-12c0 -31.333 5 -53.5 15 -66.5s27.333 -19.5 52 -19.5h4c26 0 44.167 6.5 54.5 19.5s15.5 35.167 15.5 66.5v11c0 6 2.66699 9 8 9h8c5.33301 0 8 -3 8 -9v-12c0 -37.333 -7.66699 -64.5 -23 -81.5
s-39 -25.5 -71 -25.5h-4c-32 0 -55.5 8.5 -70.5 25.5s-22.5 44.167 -22.5 81.5v13zM283 0h-74c-40.667 -0 -73.167 12.333 -97.5 37s-36.5 57.667 -36.5 99v365c0 6 2.66699 9 8 9h14c5.33301 0 8 -3 8 -9v-364c0 -34 9 -60.667 27 -80s43.667 -29 77 -29h72
c33.333 0 60.333 9 81 27s31 43.667 31 77v369c0 6 2.66699 9 8 9h14c5.33301 0 8 -3 8 -9v-492c0 -6 -2.66699 -9 -8 -9h-14c-5.33301 0 -8 3 -8 9v43h-4c-18.667 -34.667 -54 -52 -106 -52z" />
    <glyph glyph-name="Uring" unicode="&#x16e;" horiz-adv-x="550" 
d="M279 692l-10 0.00195312c-24.667 0 -43.5 6.83301 -56.5 20.5s-19.5 33.167 -19.5 58.5v22c0 25.333 6.5 44.666 19.5 57.999s31.833 20 56.5 20h10c24.667 0 43.834 -6.83301 57.501 -20.5s20.5 -32.834 20.5 -57.501v-22c0 -24.667 -6.83301 -44 -20.5 -58
s-32.834 -21 -57.501 -21zM269 715.002h10c35.333 0 53 19 53 57v20c0 37.333 -17.667 56 -53 56h-10c-34.667 0 -52 -18.667 -52 -56v-20c0 -38 17.333 -57 52 -57zM443 643.002h14c5.33301 0 8 -2.66699 8 -8v-499c0 -41.333 -12.167 -74.333 -36.5 -99
s-56.833 -37 -97.5 -37h-112c-40.667 0 -73.167 12.333 -97.5 37s-36.5 57.667 -36.5 99v498c0 6 2.66699 9 8 9h14c5.33301 0 8 -3 8 -9v-497c0 -34 9 -60.667 27 -80s43.667 -29 77 -29h112c33.333 0 59 9.66699 77 29s27 46 27 80v497c0 6 2.66699 9 8 9z" />
    <glyph glyph-name="uring" unicode="&#x16f;" horiz-adv-x="503" 
d="M283 0h-74c-40.667 -0 -73.167 12.333 -97.5 37s-36.5 57.667 -36.5 99v365c0 6 2.66699 9 8 9h14c5.33301 0 8 -3 8 -9v-364c0 -34 9 -60.667 27 -80s43.667 -29 77 -29h72c33.333 0 60.333 9 81 27s31 43.667 31 77v369c0 6 2.66699 9 8 9h14c5.33301 0 8 -3 8 -9v-492
c0 -6 -2.66699 -9 -8 -9h-14c-5.33301 0 -8 3 -8 9v43h-4c-18.667 -34.667 -54 -52 -106 -52zM172 663v-40c0 -18 3.83301 -30.333 11.5 -37s20.5 -10 38.5 -10h14c18.667 0 31.834 3.33301 39.501 10s11.5 19 11.5 37v40c0 17.333 -3.83301 29.333 -11.5 36
s-20.834 10 -39.501 10h-14c-18 0 -30.833 -3.33301 -38.5 -10s-11.5 -18.667 -11.5 -36zM148 622v41.999c0 24.667 6 42.167 18 52.5s30.667 15.5 56 15.5h14c50.667 0 76 -22.667 76 -68v-42c0 -46 -25.333 -69 -76 -69h-14c-25.333 0 -44 5.33301 -56 16
s-18 28.334 -18 53.001z" />
    <glyph glyph-name="Uhungarumlaut" unicode="&#x170;" horiz-adv-x="550" 
d="M282 836l22 0.000976562c2.66699 0 4.5 -0.833008 5.5 -2.5s0.5 -3.83398 -1.5 -6.50098l-82 -112c-4 -5.33301 -8.33301 -8 -13 -8h-9c-5.33301 0 -6.33301 3 -3 9l66 111c3.33301 6 8.33301 9 15 9zM398 836.001l22 0.000976562c2.66699 0 4.5 -0.833008 5.5 -2.5
s0.5 -3.83398 -1.5 -6.50098l-82 -112c-4 -5.33301 -8.33301 -8 -13 -8h-9c-5.33301 0 -6.33301 3 -3 9l66 111c3.33301 6 8.33301 9 15 9zM443 643.002h14c5.33301 0 8 -2.66699 8 -8v-499c0 -41.333 -12.167 -74.333 -36.5 -99s-56.833 -37 -97.5 -37h-112
c-40.667 0 -73.167 12.333 -97.5 37s-36.5 57.667 -36.5 99v498c0 6 2.66699 9 8 9h14c5.33301 0 8 -3 8 -9v-497c0 -34 9 -60.667 27 -80s43.667 -29 77 -29h112c33.333 0 59 9.66699 77 29s27 46 27 80v497c0 6 2.66699 9 8 9z" />
    <glyph glyph-name="uhungarumlaut" unicode="&#x171;" horiz-adv-x="503" 
d="M258 703l22 0.000976562c2.66699 0 4.5 -0.833008 5.5 -2.5s0.5 -3.83398 -1.5 -6.50098l-82 -112c-4 -5.33301 -8.33301 -8 -13 -8h-9c-5.33301 0 -6.33301 3 -3 9l66 111c3.33301 6 8.33301 9 15 9zM374 703.001l22 0.000976562c2.66699 0 4.5 -0.833008 5.5 -2.5
s0.5 -3.83398 -1.5 -6.50098l-82 -112c-4 -5.33301 -8.33301 -8 -13 -8h-9c-5.33301 0 -6.33301 3 -3 9l66 111c3.33301 6 8.33301 9 15 9zM283 0.00195312h-74c-40.667 0 -73.167 12.333 -97.5 37s-36.5 57.667 -36.5 99v365c0 6 2.66699 9 8 9h14c5.33301 0 8 -3 8 -9
v-364c0 -34 9 -60.667 27 -80s43.667 -29 77 -29h72c33.333 0 60.333 9 81 27s31 43.667 31 77v369c0 6 2.66699 9 8 9h14c5.33301 0 8 -3 8 -9v-492c0 -6 -2.66699 -9 -8 -9h-14c-5.33301 0 -8 3 -8 9v43h-4c-18.667 -34.667 -54 -52 -106 -52z" />
    <glyph glyph-name="Uogonek" unicode="&#x172;" horiz-adv-x="550" 
d="M443 643h13.999c5.33301 0 8 -2.66699 8 -8v-499c0 -41.333 -12.167 -74.333 -36.5 -99s-56.833 -37 -97.5 -37h-21l-57 -74h38c19.333 0 29 -3.33301 29 -10c0 -11.333 -22.333 -17 -67 -17c-15.333 0 -25.166 3.66699 -29.499 11s-2.5 15.333 5.5 24l52 66h-62
c-40.667 -0 -73.167 12.333 -97.5 37s-36.5 57.667 -36.5 99v498c0 6 2.66699 9 8 9h14c5.33301 0 8 -3 8 -9v-497c0 -34 9 -60.667 27 -80s43.667 -29 77 -29h112c33.333 0 59 9.66699 77 29s27 46 27 80v497c0 6 2.66699 9 8 9z" />
    <glyph glyph-name="uogonek" unicode="&#x173;" horiz-adv-x="503" 
d="M401 510h14c5.33301 0 8 -3 8 -9v-492c0 -6 -2.66699 -9 -8 -9h-7l-57 -74h38c19.333 0 29 -3.33301 29 -10c0 -8 -8 -14.333 -24 -19s-31 -7 -45 -7s-23.167 5.16699 -27.5 15.5s-2.5 19.833 5.5 28.5l66 83v35h-4c-18.667 -34.667 -54 -52 -106 -52h-74
c-40.667 -0 -73.167 12.333 -97.5 37s-36.5 57.667 -36.5 99v365c0 6 2.66699 9 8 9h14c5.33301 0 8 -3 8 -9v-364c0 -34 9 -60.667 27 -80s43.667 -29 77 -29h72c33.333 0 60.333 9 81 27s31 43.667 31 77v369c0 6 2.66699 9 8 9z" />
    <glyph glyph-name="Wcircumflex" unicode="&#x174;" horiz-adv-x="791" 
d="M479 707h-14.002c-6 0 -9.66699 1.66699 -11 5l-59 105l-59 -105c-1.33301 -3.33301 -5 -5 -11 -5h-14c-7.33301 0 -8.66602 3.66699 -3.99902 11l64 109c4 6 10.333 9 19 9h10c8.66699 0 15 -3 19 -9l64 -109c4.66699 -7.33301 3.33398 -11 -3.99902 -11zM218.998 0
h-27.002c-5.33301 0 -9 3 -11 9l-145 625c-1.33301 6 1.33398 9 8.00098 9h14c4.66699 0 8 -3 10 -9l135 -596h4l167 596c2 6 5.66699 9 11 9h19c5.33301 0 9 -3 11 -9l168 -596h4l135 596c1.33301 6 5 9 11 9h15c6 0 8 -3 6 -9l-145 -625
c-1.33301 -6 -4.66602 -9 -9.99902 -9h-27c-5.33301 0 -9 3 -11 9l-164 590h-4l-164 -590c-2 -6 -5.33301 -9 -10 -9z" />
    <glyph glyph-name="wcircumflex" unicode="&#x175;" horiz-adv-x="679" 
d="M423 574h-14.002c-6 0 -9.66699 1.66699 -11 5l-59 105l-59 -105c-1.33301 -3.33301 -5 -5 -11 -5h-14c-7.33301 0 -8.66602 3.66699 -3.99902 11l64 109c4 6 10.333 9 19 9h10c8.66699 0 15 -3 19 -9l64 -109c4.66699 -7.33301 3.33398 -11 -3.99902 -11zM201.998 0h-20
c-5.33301 0 -9 3 -11 9l-150 492c-2 6 0 9 6 9h15c4.66699 0 8 -3 10 -9l138 -460h4l128 460c1.33301 6 5 9 11 9h14c6 0 9.66699 -3 11 -9l126 -460h4l138 460c2 6 5.33301 9 10 9h16c6 0 8 -3 6 -9l-150 -492c-2 -6 -5.66699 -9 -11 -9h-21c-5.33301 0 -9 3 -11 9
l-124 445h-4l-124 -445c-2 -6 -5.66699 -9 -11 -9z" />
    <glyph glyph-name="Ycircumflex" unicode="&#x176;" horiz-adv-x="486" 
d="M327 707h-14.002c-6 0 -9.66699 1.66699 -11 5l-59 105l-59 -105c-1.33301 -3.33301 -5 -5 -11 -5h-14c-7.33301 0 -8.66602 3.66699 -3.99902 11l64 109c4 6 10.333 9 19 9h10c8.66699 0 15 -3 19 -9l64 -109c4.66699 -7.33301 3.33398 -11 -3.99902 -11zM249.998 0
h-14.0039c-5.33301 0 -8 3 -8 9v236l-197 389c-3.33301 6 -1.66602 9 5.00098 9h18c4.66699 0 8.33398 -3 11.001 -9l176 -350h4l176 350c2.66699 6 6.33398 9 11.001 9h18c6.66699 0 8.33398 -3 5.00098 -9l-197 -389v-236c0 -6 -2.66699 -9 -8 -9z" />
    <glyph glyph-name="ycircumflex" unicode="&#x177;" horiz-adv-x="456" 
d="M320 574h-14.002c-5.33301 0 -9 1.66699 -11 5l-59 105l-59 -105c-2 -3.33301 -5.66699 -5 -11 -5h-14c-7.33301 0 -8.66602 3.66699 -3.99902 11l64 109c4 6 10.333 9 19 9h10c8.66699 0 15 -3 19 -9l64 -109c4.66699 -7.33301 3.33398 -11 -3.99902 -11zM58.998 -147
c-6 0 -8.99805 2.66602 -8.99805 7.99902v12c0 5.33301 3 8 9 8h29c26.667 0 45.5 4.83301 56.5 14.5s19.167 16.667 24.5 21s11.166 13 17.499 26l12.5 25.5c12 26.667 19.667 46.334 23 59.001h-10c-5.33301 0 -9 3 -11 9l-170 465c-2 6 0 9 6 9h16c4.66699 0 8 -3 10 -9
l163 -445h4l163 445c2 6 5.33301 9 10 9h16c6 0 8 -3 6 -9l-170 -465c-20.667 -59.333 -36.334 -97.666 -47.001 -114.999c-28.667 -44.667 -68.667 -67.334 -120 -68.001h-29z" />
    <glyph glyph-name="Ydieresis" unicode="&#x178;" horiz-adv-x="486" 
d="M150 716v111c0 6 2.66699 9 8 9h14c5.33301 0 8 -3 8 -9v-111c0 -6 -2.66699 -9 -8 -9h-14c-5.33301 0 -8 3 -8 9zM306 716v111c0 6 2.66699 9 8 9h14c5.33301 0 8 -3 8 -9v-111c0 -6 -2.66699 -9 -8 -9h-14c-5.33301 0 -8 3 -8 9zM250 0h-14.0039c-5.33301 0 -8 3 -8 9
v236l-197 389c-3.33301 6 -1.66602 9 5.00098 9h18c4.66699 0 8.33398 -3 11.001 -9l176 -350h4l176 350c2.66699 6 6.33398 9 11.001 9h18c6.66699 0 8.33398 -3 5.00098 -9l-197 -389v-236c0 -6 -2.66699 -9 -8 -9z" />
    <glyph glyph-name="Zacute" unicode="&#x179;" horiz-adv-x="471" 
d="M321 836l30 0.000976562c2.66699 0 4.5 -0.833008 5.5 -2.5s0.5 -3.83398 -1.5 -6.50098l-92 -112c-4 -5.33301 -8.66699 -8 -14 -8h-8c-5.33301 0 -6.33301 3 -3 9l68 111c2.66699 6 7.66699 9 15 9zM40 8.00098v17c0 4 0.666992 7 2 9l344 577v4h-327
c-6 0 -9 2.66699 -9 8v12c0 5.33301 3 8 9 8h353c6 0 9 -2.66699 9 -8v-19c0 -3.33301 -0.666992 -6 -2 -8l-344 -576v-4h347c6 0 9 -2.66699 9 -8v-12c0 -5.33301 -3 -8 -9 -8h-373c-6 0 -9 2.66699 -9 8z" />
    <glyph glyph-name="zacute" unicode="&#x17a;" horiz-adv-x="393" 
d="M289 703l30 0.000976562c2.66699 0 4.5 -0.833008 5.5 -2.5s0.5 -3.83398 -1.5 -6.50098l-92 -112c-4 -5.33301 -8.66699 -8 -14 -8h-8c-5.33301 0 -6.33301 3 -3 9l68 111c2.66699 6 7.66699 9 15 9zM35 8.00098v9c0 4 0.666992 7 2 9l275 452v4h-262
c-6 0 -9 2.66699 -9 8v12c0 5.33301 3 8 9 8h293c6 0 9 -2.66699 9 -8v-12c0 -3.33301 -0.666992 -6 -2 -8l-274 -450v-4h273c6 0 9 -2.66699 9 -8v-12c0 -5.33301 -3 -8 -9 -8h-305c-6 0 -9 2.66699 -9 8z" />
    <glyph glyph-name="Zdotaccent" unicode="&#x17b;" horiz-adv-x="471" 
d="M240 722v99c0 6 2.66699 9 8 9h14c5.33301 0 8 -3 8 -9v-99c0 -6 -2.66699 -9 -8 -9h-14c-5.33301 0 -8 3 -8 9zM40 8v17c0 4 0.666992 7 2 9l344 577v4h-327c-6 0 -9 2.66699 -9 8v12c0 5.33301 3 8 9 8h353c6 0 9 -2.66699 9 -8v-19c0 -3.33301 -0.666992 -6 -2 -8
l-344 -576v-4h347c6 0 9 -2.66699 9 -8v-12c0 -5.33301 -3 -8 -9 -8h-373c-6 0 -9 2.66699 -9 8z" />
    <glyph glyph-name="zdotaccent" unicode="&#x17c;" horiz-adv-x="393" 
d="M200 589v99c0 6 2.66699 9 8 9h14c5.33301 0 8 -3 8 -9v-99c0 -6 -2.66699 -9 -8 -9h-14c-5.33301 0 -8 3 -8 9zM35 8v9c0 4 0.666992 7 2 9l275 452v4h-262c-6 0 -9 2.66699 -9 8v12c0 5.33301 3 8 9 8h293c6 0 9 -2.66699 9 -8v-12c0 -3.33301 -0.666992 -6 -2 -8
l-274 -450v-4h273c6 0 9 -2.66699 9 -8v-12c0 -5.33301 -3 -8 -9 -8h-305c-6 0 -9 2.66699 -9 8z" />
    <glyph glyph-name="Zcaron" unicode="&#x17d;" horiz-adv-x="471" 
d="M246 707c-8.66699 0 -14.998 3 -18.998 9l-64 109c-4.66699 7.33301 -3.33398 11 3.99902 11h14c6 0 9.66699 -1.66699 11 -5l59 -105l59 105c1.33301 3.33301 5 5 11 5h14c7.33301 0 8.66602 -3.66699 3.99902 -11l-64 -109c-4 -6 -10.333 -9 -19 -9h-10zM40.002 8v17
c0 4 0.666992 7 2 9l344 577v4h-327c-6 0 -9 2.66699 -9 8v12c0 5.33301 3 8 9 8h353c6 0 9 -2.66699 9 -8v-19c0 -3.33301 -0.666992 -6 -2 -8l-344 -576v-4h347c6 0 9 -2.66699 9 -8v-12c0 -5.33301 -3 -8 -9 -8h-373c-6 0 -9 2.66699 -9 8z" />
    <glyph glyph-name="zcaron" unicode="&#x17e;" horiz-adv-x="393" 
d="M213 574c-8.66699 0 -14.998 3 -18.998 9l-64 109c-4.66699 7.33301 -3.33398 11 3.99902 11h14c5.33301 0 9 -1.66699 11 -5l59 -105l59 105c2 3.33301 5.66699 5 11 5h14c7.33301 0 8.66602 -3.66699 3.99902 -11l-64 -109c-4 -6 -10.333 -9 -19 -9h-10zM35.002 8v9
c0 4 0.666992 7 2 9l275 452v4h-262c-6 0 -9 2.66699 -9 8v12c0 5.33301 3 8 9 8h293c6 0 9 -2.66699 9 -8v-12c0 -3.33301 -0.666992 -6 -2 -8l-274 -450v-4h273c6 0 9 -2.66699 9 -8v-12c0 -5.33301 -3 -8 -9 -8h-305c-6 0 -9 2.66699 -9 8z" />
    <glyph glyph-name="florin" unicode="&#x192;" horiz-adv-x="486" 
d="M50 -133h-20c-6.66699 0 -10 2.66699 -10 8v11c0 6 3.33301 9 10 9h26c58 0 94.667 35.667 110 107l76 358c1.33301 6.66699 -1 10 -7 10h-82c-6.66699 0 -10 2.66699 -10 8v10c0 5.33301 3 8 9 8h89c6 0 9.66699 2.66699 11 8l35 165c19.333 89.333 68 134 146 134h23
c6.66699 0 10 -2.66699 10 -8v-12c0 -5.33301 -3.33301 -8 -10 -8h-29c-58 0 -94.667 -35.667 -110 -107l-35 -164c-1.33301 -5.33301 1 -8 7 -8h102c6.66699 0 10 -2.66699 10 -8v-10c0 -5.33301 -2.66699 -8 -8 -8h-110c-5.33301 0 -8.66602 -2.66699 -9.99902 -8
l-77 -361c-8.66699 -42.667 -25.334 -75.667 -50.001 -99s-56.667 -35 -96 -35z" />
    <glyph glyph-name="AEacute" unicode="&#x1fc;" horiz-adv-x="771" 
d="M485 836l30 0.000976562c2.66699 0 4.5 -0.833008 5.5 -2.5s0.5 -3.83398 -1.5 -6.50098l-92 -112c-4 -5.33301 -8.66699 -8 -14 -8h-8c-5.33301 0 -6.33301 3 -3 9l68 111c2.66699 6 7.66699 9 15 9zM24 0.000976562h-19c-6 0 -7.33301 3 -4 9l355 625
c3.33301 6 8 9 14 9h322c6 0 9 -2.66699 9 -8v-12c0 -5.33301 -3 -8 -9 -8h-273c-6 0 -9 -2.66699 -9 -8v-257c0 -5.33301 3 -8 9 -8h247c6 0 9 -2.66699 9 -8v-12c0 -5.33301 -3 -8 -9 -8h-247c-6 0 -9 -2.66699 -9 -8v-270c0 -5.33301 3 -8 9 -8h273c6 0 9 -2.66699 9 -8
v-12c0 -5.33301 -3 -8 -9 -8h-304c-5.33301 0 -8 3 -8 9v174h-245l-99 -174c-3.33301 -6 -7.33301 -9 -12 -9zM380 213.001v394h-4l-224 -394h228z" />
    <glyph glyph-name="aeacute" unicode="&#x1fd;" horiz-adv-x="806" 
d="M485 703l30 0.000976562c2.66699 0 4.5 -0.833008 5.5 -2.5s0.5 -3.83398 -1.5 -6.50098l-92 -112c-4 -5.33301 -8.66699 -8 -14 -8h-8c-5.33301 0 -6.33301 3 -3 9l68 111c2.66699 6 7.66699 9 15 9zM418 202.001l0.000976562 -65c0 -34 9 -60.667 27 -80
s43.667 -29 77 -29h205c6 0 9 -2.66699 9 -8v-12c0 -5.33301 -3 -8 -9 -8h-205c-60.667 0 -100.667 23 -120 69c-20.667 -46 -62 -69 -124 -69h-74c-40.667 0 -73.167 12.333 -97.5 37s-36.5 57.667 -36.5 99v28c0 41.333 12.167 74.333 36.5 99s56.833 37 97.5 37h175
c6 0 9 2.66699 9 8v65c0 34 -9 60.667 -27 80s-43.667 29 -77 29h-152c-6 0 -9 2.66699 -9 8v12c0 5.33301 3 8 9 8h152c60 0 100 -23 120 -69c21.333 46 62.666 69 123.999 69h74c40.667 0 73.167 -12.333 97.5 -37s36.5 -57.667 36.5 -99v-154c0 -6.66699 -3 -10 -9 -10
h-300c-6 0 -9 -2.66699 -9 -8zM706.001 246.001v127c0 34 -9 60.667 -27 80s-43.667 29 -77 29h-72c-33.333 0 -60.333 -9 -81 -27s-31 -43.667 -31 -77v-132c0 -5.33301 3 -8 9 -8h270c6 0 9 2.66699 9 8zM388.001 132.001v132c0 5.33301 -3 8 -9 8h-175
c-33.333 0 -59 -9.66699 -77 -29s-27 -46 -27 -80v-26c0 -34 9 -60.667 27 -80s43.667 -29 77 -29h72c33.333 0 60.333 9 81 27s31 43.667 31 77z" />
    <glyph glyph-name="Oslashacute" unicode="&#x1fe;" horiz-adv-x="552" 
d="M473 507v-370.998c0 -41.333 -12.167 -74.333 -36.5 -99s-56.833 -37 -97.5 -37h-125c-52 0 -89.333 18.667 -112 56l-31 -43c-4 -4.66699 -8.33301 -5.66699 -13 -3l-9 6c-4 3.33301 -4 8 0 14l39 54c-5.33301 17.333 -8 34.666 -8 51.999v371
c0 41.333 12.167 74.333 36.5 99s56.833 37 97.5 37h125c50.667 0 88 -18.333 112 -55l30 41c4 5.33301 8.33301 6.66602 13 3.99902l9 -6c4.66699 -3.33301 4.66699 -8 0 -14l-38 -53c5.33301 -17.333 8 -35 8 -53zM110 506.002v-369c0 -9.33301 0.333008 -16.333 1 -21
l321 446c-15.333 35.333 -46.333 53 -93 53h-125c-33.333 0 -59 -9.66699 -77 -29s-27 -46 -27 -80zM443 137.002v369c0 10 -0.333008 17.333 -1 22l-321 -446c15.333 -36 46.333 -54 93 -54h125c33.333 0 59 9.66699 77 29s27 46 27 80zM271 707.002l-8 0.000976562
c-5.33301 0 -6.33301 3 -3 9l68 111c2.66699 6 7.66699 9 15 9h30c2.66699 0 4.5 -0.833008 5.5 -2.5s0.5 -3.83398 -1.5 -6.50098l-92 -112c-4 -5.33301 -8.66699 -8 -14 -8z" />
    <glyph glyph-name="oslashacute" unicode="&#x1ff;" horiz-adv-x="521" 
d="M437 374v-238c0 -41.333 -12.167 -74.333 -36.5 -99s-56.833 -37 -97.5 -37h-85c-58.667 0 -99 23.667 -121 71l-42 -43c-4.66699 -4.66699 -8.66699 -4.66699 -12 0l-10 9c-4 4 -4 8 0 12l54 54c-2 10 -3 21 -3 33v238c0 41.333 12.167 74.333 36.5 99
s56.833 37 97.5 37h85c58.667 0 99 -23.333 121 -70l42 42c4 4 8 4.33301 12 1l10 -10c4 -3.33301 3.66699 -7.33301 -1 -12l-53 -53c2 -10.667 3 -22 3 -34zM114 373v-243l287 287c-14 43.333 -46.667 65 -98 65h-85c-33.333 0 -59 -9.66699 -77 -29s-27 -46 -27 -80z
M407 137v244l-287 -288c14 -43.333 46.667 -65 98 -65h85c33.333 0 59 9.66699 77 29s27 46 27 80zM269 574l-8 0.000976562c-5.33301 0 -6.33301 3 -3 9l68 111c2.66699 6 7.66699 9 15 9h30c2.66699 0 4.5 -0.833008 5.5 -2.5s0.5 -3.83398 -1.5 -6.50098l-92 -112
c-4 -5.33301 -8.66699 -8 -14 -8z" />
    <glyph glyph-name="uni0218" unicode="&#x218;" horiz-adv-x="568" 
d="M315 -41v-47c0 -10 -8.66699 -58 -26 -144c-0.666992 -4 -2.66699 -6 -6 -6s-5 2 -5 6v191c0 6 2.66699 9 8 9h21c5.33301 0 8 -3 8 -9zM90 136v40.0039c0 6 2.66699 9 8 9h14c5.33301 0 8 -3 8 -9v-39c0 -34 9 -60.667 27 -80s43.667 -29 77 -29h120
c33.333 0 59 9.66699 77 29s27 46 27 80v50c0 31.333 -12.333 56.166 -37 74.499s-54.5 31.666 -89.5 39.999l-105 25c-35 8.33301 -64.833 22.166 -89.5 41.499s-37 45.666 -37 78.999v60c0 41.333 12.167 74.333 36.5 99s56.833 37 97.5 37h120
c40.667 0 73.167 -12.333 97.5 -37s36.5 -57.667 36.5 -99v-30c0 -6 -2.66699 -9 -8 -9h-14c-5.33301 0 -8 3 -8 9v29c0 34 -9 60.667 -27 80s-43.667 29 -77 29h-120c-33.333 0 -59 -9.66699 -77 -29s-27 -46 -27 -80v-58c0 -49.333 42 -83.333 126 -102
c35.333 -7.33301 70.5 -15.5 105.5 -24.5s64.833 -24.333 89.5 -46s37 -50.5 37 -86.5v-53c0 -41.333 -12.167 -74.333 -36.5 -99s-56.833 -37 -97.5 -37h-120c-40.667 -0 -73.167 12.333 -97.5 37s-36.5 57.667 -36.5 99z" />
    <glyph glyph-name="uni0219" unicode="&#x219;" horiz-adv-x="423" 
d="M245 -41v-47c0 -10 -8.66699 -58 -26 -144c-0.666992 -4 -2.66699 -6 -6 -6s-5 2 -5 6v191c0 6 2.66699 9 8 9h21c5.33301 0 8 -3 8 -9zM238 0l-169.998 0.000976562c-6 0 -9 2.66699 -9 8v12c0 5.33301 3 8 9 8h170c67.333 0 101 26.667 101 80v30
c0 24.667 -4.33301 44.667 -13 60s-24.334 27 -47.001 35l-132 46c-34.667 12 -58.834 26.833 -72.501 44.5s-20.5 42.5 -20.5 74.5c0 74.667 40.667 112 122 112h161c6 0 9 -2.66699 9 -8v-12c0 -5.33301 -3 -8 -9 -8h-161c-30.667 0 -53.5 -7 -68.5 -21
s-22.5 -30 -22.5 -48v-27c0 -21.333 5.5 -37.833 16.5 -49.5s28.167 -21.5 51.5 -29.5l131 -47c35.333 -10 58.333 -26.333 69 -49s16 -54.334 16 -95.001s-10.667 -70.167 -32 -88.5s-54.333 -27.5 -99 -27.5z" />
    <glyph glyph-name="circumflex" unicode="&#x2c6;" horiz-adv-x="321" 
d="M244 574h-14.002c-5.33301 0 -9 1.66699 -11 5l-59 105l-59 -105c-2 -3.33301 -5.66699 -5 -11 -5h-14c-7.33301 0 -8.66602 3.66699 -3.99902 11l64 109c4 6 10.333 9 19 9h10c8.66699 0 15 -3 19 -9l64 -109c4.66699 -7.33301 3.33398 -11 -3.99902 -11z" />
    <glyph glyph-name="caron" unicode="&#x2c7;" horiz-adv-x="321" 
d="M155 574c-8.66699 0 -14.998 3 -18.998 9l-64 109c-4.66699 7.33301 -3.33398 11 3.99902 11h14c5.33301 0 9 -1.66699 11 -5l59 -105l59 105c2 3.33301 5.66699 5 11 5h14c7.33301 0 8.66602 -3.66699 3.99902 -11l-64 -109c-4 -6 -10.333 -9 -19 -9h-10z" />
    <glyph glyph-name="uni02C9" unicode="&#x2c9;" horiz-adv-x="362" 
d="M283 627h-204c-6 0 -9 2.66699 -9 8v9c0 5.33301 3 8 9 8h204c6 0 9 -2.66699 9 -8v-9c0 -5.33301 -3 -8 -9 -8z" />
    <glyph glyph-name="breve" unicode="&#x2d8;" horiz-adv-x="331" 
d="M70 694c0 6 2.66699 9 8 9h10c5.33301 0 8 -3 8 -9v-12c0 -31.333 5 -53.5 15 -66.5s27.333 -19.5 52 -19.5h4c26 0 44.167 6.5 54.5 19.5s15.5 35.167 15.5 66.5v11c0 6 2.66699 9 8 9h8c5.33301 0 8 -3 8 -9v-12c0 -37.333 -7.66699 -64.5 -23 -81.5
s-39 -25.5 -71 -25.5h-4c-32 0 -55.5 8.5 -70.5 25.5s-22.5 44.167 -22.5 81.5v13z" />
    <glyph glyph-name="dotaccent" unicode="&#x2d9;" horiz-adv-x="170" 
d="M70 589v99c0 6 2.66699 9 8 9h14c5.33301 0 8 -3 8 -9v-99c0 -6 -2.66699 -9 -8 -9h-14c-5.33301 0 -8 3 -8 9z" />
    <glyph glyph-name="ring" unicode="&#x2da;" horiz-adv-x="304" 
d="M75 663v-40c0 -18 3.83301 -30.333 11.5 -37s20.5 -10 38.5 -10h14c18.667 0 31.834 3.33301 39.501 10s11.5 19 11.5 37v40c0 17.333 -3.83301 29.333 -11.5 36s-20.834 10 -39.501 10h-14c-18 0 -30.833 -3.33301 -38.5 -10s-11.5 -18.667 -11.5 -36zM51 622v41.999
c0 24.667 6 42.167 18 52.5s30.667 15.5 56 15.5h14c50.667 0 76 -22.667 76 -68v-42c0 -46 -25.333 -69 -76 -69h-14c-25.333 0 -44 5.33301 -56 16s-18 28.334 -18 53.001z" />
    <glyph glyph-name="ogonek" unicode="&#x2db;" horiz-adv-x="243" 
d="M139 -74c19.333 0 29 -3.33301 29 -10c0 -8 -8 -14.333 -24 -19s-31 -7 -45 -7s-23.167 5.16699 -27.5 15.5s-2.5 19.833 5.5 28.5l68 86h28l-72 -94h38z" />
    <glyph glyph-name="tilde" unicode="&#x2dc;" horiz-adv-x="374" 
d="M70 655l0.000976562 38.999c0 6 2.66699 9 8 9h7c5.33301 0 8 -3 8 -9v-38c0 -22 2.16699 -37.167 6.5 -45.5s12.166 -12.5 23.499 -12.5s19.166 3.33301 23.499 10s10 21.167 17 43.5s14.333 37 22 44s20.834 10.5 39.501 10.5s31.834 -5.83301 39.501 -17.5
s11.5 -31.834 11.5 -60.501v-42c0 -6 -2.66699 -9 -8 -9h-7c-5.33301 0 -8 3 -8 9v41c0 22 -2.16699 37.167 -6.5 45.5s-12.833 12.5 -25.5 12.5s-21.667 -6 -27 -18c-1.33301 -3.33301 -5 -15.166 -11 -35.499s-13.167 -34.5 -21.5 -42.5s-21.833 -12 -40.5 -12
s-31.834 5.83301 -39.501 17.5s-11.5 31.834 -11.5 60.501z" />
    <glyph glyph-name="hungarumlaut" unicode="&#x2dd;" horiz-adv-x="367" 
d="M153 703l22 0.000976562c2.66699 0 4.5 -0.833008 5.5 -2.5s0.5 -3.83398 -1.5 -6.50098l-82 -112c-4 -5.33301 -8.33301 -8 -13 -8h-9c-5.33301 0 -6.33301 3 -3 9l66 111c3.33301 6 8.33301 9 15 9zM269 703.001l22 0.000976562c2.66699 0 4.5 -0.833008 5.5 -2.5
s0.5 -3.83398 -1.5 -6.50098l-82 -112c-4 -5.33301 -8.33301 -8 -13 -8h-9c-5.33301 0 -6.33301 3 -3 9l66 111c3.33301 6 8.33301 9 15 9z" />
    <glyph glyph-name="Mu" unicode="&#x39c;" horiz-adv-x="518" 
d="M115 -124c0 -6 -2.66406 -8.99902 -7.99707 -8.99902h-14c-5.33301 0 -8 3 -8 9v625c0 6 2.66699 9 8 9h14c5.33301 0 8 -3 8 -9v-364c0 -34 9 -60.667 27 -80s43.667 -29 77 -29h72c33.333 0 60.333 9 81 27s31 43.667 31 77v369c0 6 2.66699 9 8 9h14
c5.33301 0 8 -3 8 -9v-492c0 -6 -2.66699 -9 -8 -9h-14c-5.33301 0 -8 3 -8 9v43h-4c-18.667 -34.667 -54 -52 -106 -52c-4.66699 0 -15.834 -0.166992 -33.501 -0.5s-29.334 -0.333008 -35.001 0s-15.334 1.16602 -29.001 2.49902s-24.167 3.66602 -31.5 6.99902
c-22 10.667 -38.333 22.334 -49 35.001v-168z" />
    <glyph glyph-name="Pi" unicode="&#x3a0;" horiz-adv-x="590" 
d="M172 0h-14c-5.33301 0 -8 3 -8 9v596c0 5.33301 -3 8 -9 8h-92c-6 0 -9 2.66699 -9 8v14c0 5.33301 3 8 9 8h492c6 0 9 -2.66699 9 -8v-14c0 -5.33301 -3 -8 -9 -8h-92c-6 0 -9 -2.66699 -9 -8v-596c0 -6 -2.66699 -9 -8 -9h-14c-5.33301 0 -8 3 -8 9v596
c0 5.33301 -3 8 -9 8h-212c-6 0 -9 -2.66699 -9 -8v-596c0 -6 -2.66699 -9 -8 -9z" />
    <glyph glyph-name="Sigma" unicode="&#x3a3;" horiz-adv-x="478" 
d="M60 625v10.001c0 5.33301 3 8 9 8h340c6 0 9 -2.66699 9 -8v-13c0 -5.33301 -3 -8 -9 -8h-312v-4l170 -272c6.66699 -10.667 6.66699 -21.334 0 -32.001l-171 -274v-4h313c6 0 9 -3.33301 9 -10v-12c0 -4 -3 -6 -9 -6h-340c-6 0 -9 2.66699 -9 8v9
c0 4 0.666992 7.33301 2 10l179 294v4l-179 290c-1.33301 2.66699 -2 6 -2 10z" />
    <glyph glyph-name="uni0901" unicode="&#x901;" horiz-adv-x="0" 
d="M-96 840c0 -6 -2.66699 -9 -8 -9h-20c-5.33301 0 -8 3 -8 9v28c0 6 2.66699 9 8 9h20c5.33301 0 8 -3 8 -9v-28zM-84 684h-60.998c-80 0 -120 40.333 -120 121v6c0 6 2.66699 9 8 9h14c5.33301 0 8 -3 8 -9v-6c0 -34 6.66699 -58 20 -72s36.666 -21 69.999 -21h61
c33.333 0 56.666 7 69.999 21s20 38 20 72v6c0 6 2.66699 9 8 9h14c5.33301 0 8 -3 8 -9v-6c0 -80.667 -40 -121 -120 -121z" />
    <glyph glyph-name="uni0902" unicode="&#x902;" horiz-adv-x="0" 
d="M-100 741c0 -6 -2.66699 -9 -8 -9h-20c-5.33301 0 -8 3 -8 9v28c0 6 2.66699 9 8 9h20c5.33301 0 8 -3 8 -9v-28z" />
    <glyph glyph-name="uni0903" unicode="&#x903;" horiz-adv-x="245" 
d="M141 84c0 -6 -2.66699 -9 -8 -9h-20c-5.33301 0 -8 3 -8 9v28c0 6 2.66699 9 8 9h20c5.33301 0 8 -3 8 -9v-28zM141 391c0 -6 -2.66699 -9 -8 -9h-20c-5.33301 0 -8 3 -8 9v28c0 6 2.66699 9 8 9h20c5.33301 0 8 -3 8 -9v-28z" />
    <glyph glyph-name="uni0905" unicode="&#x905;" horiz-adv-x="595" 
d="M481 623l115 0.000976562c6 0 9 -2.66699 9 -8v-9c0 -5.33301 -3 -8 -9 -8h-92c-6 0 -9 -2.66699 -9 -8v-581c0 -6 -2.66699 -9 -8 -9h-14c-5.33301 0 -8 3 -8 9v244c0 5.33301 -3 8 -9 8h-152c3.33301 -14.667 5 -28.334 5 -41.001v-44
c0 -41.333 -12.167 -74.333 -36.5 -99s-56.833 -37 -97.5 -37h-130c-6 0 -9 2.66699 -9 8v12c0 5.33301 3 8 9 8h130c33.333 0 59 9.66699 77 29s27 46 27 80v42c0 34 -9 60.167 -27 78.5s-43.667 27.5 -77 27.5h-67c-6 0 -9 2.66699 -9 8v12c0 5.33301 3 8 9 8h67
c33.333 0 59 9.16699 77 27.5s27 44.5 27 78.5v30c0 34 -9 60.667 -27 80s-43.667 29 -77 29h-94c-6 0 -9 2.66699 -9 8v9c0 5.33301 3 8 9 8h94c40.667 0 73.167 -11.833 97.5 -35.5s36.5 -56.167 36.5 -97.5v-32c0 -60.667 -23.333 -99.334 -70 -116.001v-4
c24 -9.33301 42.333 -25.666 55 -48.999h162c6 0 9 2.66699 9 8v308c0 12 5.33301 18 16 18z" />
    <glyph glyph-name="uni0906" unicode="&#x906;" horiz-adv-x="823" 
d="M479 623l345 0.000976562c6 0 9 -2.66699 9 -8v-9c0 -5.33301 -3 -8 -9 -8h-92c-6 0 -9 -2.66699 -9 -8v-581c0 -6 -2.66699 -9 -8 -9h-14c-5.33301 0 -8 3 -8 9v581c0 5.33301 -3 8 -9 8h-182c-6 0 -9 -2.66699 -9 -8v-581c0 -6 -2.66699 -9 -8 -9h-14
c-5.33301 0 -8 3 -8 9v244c0 5.33301 -3 8 -9 8h-152c3.33301 -14.667 5 -28.334 5 -41.001v-44c0 -41.333 -12.167 -74.333 -36.5 -99s-56.833 -37 -97.5 -37h-130c-6 0 -9 2.66699 -9 8v12c0 5.33301 3 8 9 8h130c33.333 0 59 9.66699 77 29s27 46 27 80v42
c0 34 -9 60.167 -27 78.5s-43.667 27.5 -77 27.5h-67c-6 0 -9 2.66699 -9 8v12c0 5.33301 3 8 9 8h67c33.333 0 59 9.16699 77 27.5s27 44.5 27 78.5v30c0 34 -9 60.667 -27 80s-43.667 29 -77 29h-94c-6 0 -9 2.66699 -9 8v9c0 5.33301 3 8 9 8h94
c40.667 0 73.167 -11.833 97.5 -35.5s36.5 -56.167 36.5 -97.5v-32c0 -60.667 -23.333 -99.334 -70 -116.001v-4c24 -9.33301 42.333 -25.666 55 -48.999h162c6 0 9 2.66699 9 8v308c0 12 5.33301 18 16 18z" />
    <glyph glyph-name="uni0907" unicode="&#x907;" horiz-adv-x="481" 
d="M289 246l-87 0.00195312c-82.667 0 -124 35 -124 105v17c0 70 41.333 105 124 105h142c6 0 9 2.66699 9 8v109c0 5.33301 -3 8 -9 8h-345c-6 0 -9 2.66699 -9 8v9c0 5.33301 3 8 9 8h483c6 0 9 -2.66699 9 -8v-9c0 -5.33301 -3 -8 -9 -8h-90c-6 0 -9 -2.66699 -9 -8v-127
c0 -12 -5.33301 -18 -16 -18h-165c-34 0 -58.167 -5.83301 -72.5 -17.5s-21.5 -31.834 -21.5 -60.501v-15c0 -28.667 7.16699 -48.834 21.5 -60.501s38.5 -17.5 72.5 -17.5h87c82.667 0 124 -34.667 124 -104v-46c0 -70.667 -41.333 -106 -124 -106h-91
c-44.667 0 -74.667 12 -90 36h-4v-83c0 -6 -2.66699 -9 -8 -9h-12c-5.33301 0 -8 3 -8 9v190c0 6 2.66699 9 8 9h12c5.33301 0 8 -3 8 -9v-26c0 -59.333 31.333 -89 94 -89h91c34 0 58.167 6 72.5 18s21.5 32.333 21.5 61v44c0 28.667 -7.16699 48.667 -21.5 60
s-38.5 17 -72.5 17z" />
    <glyph glyph-name="uni0908" unicode="&#x908;" horiz-adv-x="481" 
d="M293 739v-63.998c0 -21.333 4 -35.333 12 -42s24.667 -10 50 -10h127c6 0 9 -2.66699 9 -8v-9c0 -5.33301 -3 -8 -9 -8h-90c-6 0 -9 -2.66699 -9 -8v-127c0 -12 -5.33301 -18 -16 -18h-165c-34 0 -58.167 -5.83301 -72.5 -17.5s-21.5 -31.834 -21.5 -60.501v-15
c0 -28.667 7.16699 -48.834 21.5 -60.501s38.5 -17.5 72.5 -17.5h87c82.667 0 124 -34.667 124 -104v-46c0 -70.667 -41.333 -106 -124 -106h-91c-44.667 0 -74.667 12 -90 36h-4v-83c0 -6 -2.66699 -9 -8 -9h-12c-5.33301 0 -8 3 -8 9v190c0 6 2.66699 9 8 9h12
c5.33301 0 8 -3 8 -9v-26c0 -59.333 31.333 -89 94 -89h91c34 0 58.167 6 72.5 18s21.5 32.333 21.5 61v44c0 28.667 -7.16699 48.667 -21.5 60s-38.5 17 -72.5 17h-87c-82.667 0 -124 35 -124 105v17c0 70 41.333 105 124 105h142c6 0 9 2.66699 9 8v109
c0 5.33301 -3 8 -9 8h-345c-6 0 -9 2.66699 -9 8v9c0 5.33301 3 8 9 8h284v4c-13.333 8 -20 26 -20 54v58c0 44.667 11.167 77.5 33.5 98.5s52.833 31.5 91.5 31.5h56c6 0 9 -2.66699 9 -8v-12c0 -5.33301 -3 -8 -9 -8h-57c-62.667 0 -94 -34 -94 -102z" />
    <glyph glyph-name="uni0909" unicode="&#x909;" horiz-adv-x="474" 
d="M399 206l-0.000976562 -69.999c0 -41.333 -12.167 -74.333 -36.5 -99s-56.833 -37 -97.5 -37h-77c-40.667 0 -73.167 12.333 -97.5 37s-36.5 57.667 -36.5 99v70c0 6 2.66699 9 8 9h14c5.33301 0 8 -3 8 -9v-69c0 -34 9 -60.667 27 -80s43.667 -29 77 -29h77
c33.333 0 59 9.66699 77 29s27 46 27 80v68c0 34 -9 60.167 -27 78.5s-43.667 27.5 -77 27.5h-67c-6 0 -9 2.66699 -9 8v12c0 5.33301 3 8 9 8h62c33.333 0 59 9.16699 77 27.5s27 44.5 27 78.5v44c0 33.333 -8.66699 59.833 -26 79.5s-41.666 29.5 -72.999 29.5h-266
c-6 0 -9 2.66699 -9 8v9c0 5.33301 3 8 9 8h476c6 0 9 -2.66699 9 -8v-9c0 -5.33301 -3 -8 -9 -8h-131v-4c33.333 -16.667 50 -51.334 50 -104.001v-46c0 -58 -20.667 -96.333 -62 -115v-4c44.667 -22 67 -61.667 67 -119z" />
    <glyph glyph-name="uni090A" unicode="&#x90a;" horiz-adv-x="662" 
d="M-1 623l663.999 0.000976562c6 0 9 -2.66699 9 -8v-9c0 -5.33301 -3 -8 -9 -8h-319v-4c33.333 -16.667 50 -51.334 50 -104.001v-46c0 -58 -20.667 -96.333 -62 -115v-4l2 -1h158c40.667 0 73.167 -11.833 97.5 -35.5s36.5 -56.167 36.5 -97.5v-46
c0 -41.333 -12.167 -73.833 -36.5 -97.5s-56.833 -35.5 -97.5 -35.5h-15c-6 0 -9 2.66699 -9 8v12c0 5.33301 3 8 9 8h15c33.333 0 59 9.16699 77 27.5s27 44.5 27 78.5v44c0 34 -9 60.167 -27 78.5s-43.667 27.5 -77 27.5h-122c19.333 -23.333 29 -53.333 29 -90v-70
c0 -41.333 -12.167 -74.333 -36.5 -99s-56.833 -37 -97.5 -37h-77c-40.667 -0 -73.167 12.333 -97.5 37s-36.5 57.667 -36.5 99v70c0 6 2.66699 9 8 9h14c5.33301 0 8 -3 8 -9v-69c0 -34 9 -60.667 27 -80s43.667 -29 77 -29h77c33.333 0 59 9.66699 77 29s27 46 27 80v68
c0 34 -9 60.167 -27 78.5s-43.667 27.5 -77 27.5h-67c-6 0 -9 2.66699 -9 8v12c0 5.33301 3 8 9 8h62c33.333 0 59 9.16699 77 27.5s27 44.5 27 78.5v44c0 33.333 -8.66699 59.833 -26 79.5s-41.666 29.5 -72.999 29.5h-266c-6 0 -9 2.66699 -9 8v9c0 5.33301 3 8 9 8z" />
    <glyph glyph-name="uni090B" unicode="&#x90b;" horiz-adv-x="743" 
d="M-1 623l745 0.000976562c6 0 9 -2.66699 9 -8v-9c0 -5.33301 -3 -8 -9 -8h-347c-6 0 -9 -2.66699 -9 -8v-337l210 163c13.333 9.33301 25 14 35 14h22c5.33301 0 8 -3 8 -9v-194c0 -8.66699 -5 -13 -15 -13h-31c-34 0 -58.167 -5.83301 -72.5 -17.5
s-21.5 -31.834 -21.5 -60.501v-30c0 -28.667 7.16699 -48.834 21.5 -60.501s38.5 -17.5 72.5 -17.5h50c6 0 9 -2.66699 9 -8v-12c0 -5.33301 -3 -8 -9 -8h-50c-82.667 0 -124 35 -124 105v32c0 36.667 10.5 63.334 31.5 80.001s54.167 25 99.5 25c6 0 9 2.66699 9 8v157
l-245 -189v-209c0 -6 -2.66699 -9 -8 -9h-14c-5.33301 0 -8 3 -8 9v182l-235 -181c-8 -6.66699 -15 -10 -21 -10h-13c-5.33301 0 -8 2 -8 6s5.66699 10.667 17 20l260 200v83c0 33.333 -8.66699 57.166 -26 71.499s-43.333 21.5 -78 21.5h-50
c-34.667 0 -60.667 -7.16699 -78 -21.5s-26 -38.166 -26 -71.499v-68c0 -6 -2.66699 -9 -8 -9h-14c-5.33301 0 -8 3 -8 9v69c0 40 11.833 70 35.5 90s56.5 30 98.5 30h50c48 0 81.333 -13.333 100 -40h4v200c0 5.33301 -3 8 -9 8h-350c-6 0 -9 2.66699 -9 8v9
c0 5.33301 3 8 9 8z" />
    <glyph glyph-name="uni090C" unicode="&#x90c;" horiz-adv-x="686" 
d="M-1 623l688.001 0.000976562c6 0 9 -2.66699 9 -8v-9c0 -5.33301 -3 -8 -9 -8h-92c-6 0 -9 -2.66699 -9 -8v-570c0 -5.33301 -3 -8 -9 -8h-45c-32.667 0 -55.167 -7.16699 -67.5 -21.5s-18.5 -38.333 -18.5 -72s8.5 -57.5 25.5 -71.5s45.167 -21 84.5 -21
s76.333 15.667 111 47c3.33301 2.66699 6.16602 4 8.49902 4s5.66602 -2.16699 9.99902 -6.5s6.5 -7.66602 6.5 -9.99902s-2 -5.5 -6 -9.5c-33.333 -35.333 -78.666 -53 -135.999 -53c-42.667 0 -75.667 9 -99 27s-35 48.833 -35 92.5s9.16699 75 27.5 94
s47.833 28.5 88.5 28.5h24v269c0 38 -8.66699 65.167 -26 81.5s-43.333 24.5 -78 24.5s-60.667 -7.83301 -78 -23.5s-26 -42.834 -26 -81.501v-96c0 -6 -2.66699 -9 -8 -9h-14c-5.33301 0 -8 3 -8 9v96c0 37.333 -8.66699 64.166 -26 80.499s-43.333 24.5 -78 24.5
s-60.667 -8.16699 -78 -24.5s-26 -43.5 -26 -81.5v-134c0 -38 8.66699 -65.167 26 -81.5s43.333 -24.5 78 -24.5h59c6 0 9 -2.66699 9 -8v-12c0 -5.33301 -3 -8 -9 -8h-59c-42 0 -74.833 11 -98.5 33s-35.5 55.333 -35.5 100v136c0 44.667 11.833 78 35.5 100
s56.5 33 98.5 33c63.333 0 102.333 -23.333 117 -70h4c14.667 46.667 53.667 70 117 70c50 0 83.333 -15.333 100 -46h4v193c0 5.33301 -3 8 -9 8h-548c-6 0 -9 2.66699 -9 8v9c0 5.33301 3 8 9 8z" />
    <glyph glyph-name="uni090D" unicode="&#x90d;" horiz-adv-x="522" 
d="M-1 623h529c6 0 9 -2.66699 9 -8v-9c0 -5.33301 -3 -8 -9 -8h-67c-6 0 -9 -2.66699 -9 -8v-167c0 -44.667 -11.167 -77.5 -33.5 -98.5s-52.833 -31.5 -91.5 -31.5h-45c-6 0 -9 2.66699 -9 8v12c0 5.33301 3 8 9 8h46c62.667 0 94 34 94 102v167c0 5.33301 -3 8 -9 8h-274
c-6 0 -9 -2.66699 -9 -8v-421c0 -34 9 -60.667 27 -80s43.667 -29 77 -29h184c6 0 9 -2.66699 9 -8v-12c0 -5.33301 -3 -8 -9 -8h-184c-40.667 0 -73.167 12.333 -97.5 37s-36.5 57.667 -36.5 99v422c0 5.33301 -3 8 -9 8h-92c-6 0 -9 2.66699 -9 8v9c0 5.33301 3 8 9 8z
M308 732h-60.998c-80 0 -120 40.333 -120 121v6c0 6 2.66699 9 8 9h14c5.33301 0 8 -3 8 -9v-6c0 -34 6.66699 -58 20 -72s36.666 -21 69.999 -21h61c33.333 0 56.666 7 69.999 21s20 38 20 72v6c0 6 2.66699 9 8 9h14c5.33301 0 8 -3 8 -9v-6c0 -80.667 -40 -121 -120 -121
z" />
    <glyph glyph-name="uni090E" unicode="&#x90e;" horiz-adv-x="522" 
d="M461 623l67 -0.000976562c6 0 9 -2.66699 9 -8v-9c0 -5.33301 -3 -8 -9 -8h-67c-6 0 -9 -2.66699 -9 -8v-167c0 -44.667 -11.167 -77.5 -33.5 -98.5s-52.833 -31.5 -91.5 -31.5h-45c-6 0 -9 2.66699 -9 8v12c0 5.33301 3 8 9 8h46c62.667 0 94 34 94 102v167
c0 5.33301 -3 8 -9 8h-274c-6 0 -9 -2.66699 -9 -8v-421c0 -34 9 -60.667 27 -80s43.667 -29 77 -29h184c6 0 9 -2.66699 9 -8v-12c0 -5.33301 -3 -8 -9 -8h-184c-40.667 0 -73.167 12.333 -97.5 37s-36.5 57.667 -36.5 99v422c0 5.33301 -3 8 -9 8h-92
c-6 0 -9 2.66699 -9 8v9c0 5.33301 3 8 9 8h414c6 0 9 2.66699 9 8c0 12.667 -4.33301 23.667 -13 33s-27.334 21.666 -56.001 36.999l-69 36c-26.667 14 -45.667 29.333 -57 46s-17 39 -17 67v8c0 6 2.66699 9 8 9h14c5.33301 0 8 -3 8 -9v-8c0 -18 3.33301 -33 10 -45
s13.334 -20.333 20.001 -25c7.33301 -5.33301 42.333 -24.666 105 -57.999c24.667 -13.333 43.667 -26.666 57 -39.999s20 -30.333 20 -51c0 -5.33301 3 -8 9 -8z" />
    <glyph glyph-name="uni090F" unicode="&#x90f;" horiz-adv-x="527" 
d="M-1 623h529c6 0 9 -2.66699 9 -8v-9c0 -5.33301 -3 -8 -9 -8h-67c-6 0 -9 -2.66699 -9 -8v-167c0 -44.667 -11.167 -77.5 -33.5 -98.5s-52.833 -31.5 -91.5 -31.5h-45c-6 0 -9 2.66699 -9 8v12c0 5.33301 3 8 9 8h46c62.667 0 94 34 94 102v167c0 5.33301 -3 8 -9 8h-274
c-6 0 -9 -2.66699 -9 -8v-421c0 -34 9 -60.667 27 -80s43.667 -29 77 -29h184c6 0 9 -2.66699 9 -8v-12c0 -5.33301 -3 -8 -9 -8h-184c-40.667 0 -73.167 12.333 -97.5 37s-36.5 57.667 -36.5 99v422c0 5.33301 -3 8 -9 8h-92c-6 0 -9 2.66699 -9 8v9c0 5.33301 3 8 9 8z
" />
    <glyph glyph-name="uni0910" unicode="&#x910;" horiz-adv-x="527" 
d="M468 623h59.999c6 0 9 -2.66699 9 -8v-9c0 -5.33301 -3 -8 -9 -8h-67c-6 0 -9 -2.66699 -9 -8v-167c0 -44.667 -11.167 -77.5 -33.5 -98.5s-52.833 -31.5 -91.5 -31.5h-45c-6 0 -9 2.66699 -9 8v12c0 5.33301 3 8 9 8h46c62.667 0 94 34 94 102v167c0 5.33301 -3 8 -9 8
h-274c-6 0 -9 -2.66699 -9 -8v-421c0 -34 9 -60.667 27 -80s43.667 -29 77 -29h184c6 0 9 -2.66699 9 -8v-12c0 -5.33301 -3 -8 -9 -8h-184c-40.667 0 -73.167 12.333 -97.5 37s-36.5 57.667 -36.5 99v422c0 5.33301 -3 8 -9 8h-92c-6 0 -9 2.66699 -9 8v9
c0 5.33301 3 8 9 8h429c-31.333 38.667 -86.666 115.667 -165.999 231c-1.33301 2.66699 -2 4.66699 -2 6c0 4.66699 2.66699 7 8 7h13c5.33301 0 10 -3 14 -9l150 -222c5.33301 -8.66699 13 -13 23 -13z" />
    <glyph glyph-name="uni0911" unicode="&#x911;" horiz-adv-x="825" 
d="M481 623l345 0.000976562c6 0 9 -2.66699 9 -8v-9c0 -5.33301 -3 -8 -9 -8h-92c-6 0 -9 -2.66699 -9 -8v-581c0 -6 -2.66699 -9 -8 -9h-14c-5.33301 0 -8 3 -8 9v581c0 5.33301 -3 8 -9 8h-182c-6 0 -9 -2.66699 -9 -8v-581c0 -6 -2.66699 -9 -8 -9h-14
c-5.33301 0 -8 3 -8 9v244c0 5.33301 -3 8 -9 8h-152c3.33301 -14.667 5 -28.334 5 -41.001v-44c0 -41.333 -12.167 -74.333 -36.5 -99s-56.833 -37 -97.5 -37h-130c-6 0 -9 2.66699 -9 8v12c0 5.33301 3 8 9 8h130c33.333 0 59 9.66699 77 29s27 46 27 80v42
c0 34 -9 60.167 -27 78.5s-43.667 27.5 -77 27.5h-67c-6 0 -9 2.66699 -9 8v12c0 5.33301 3 8 9 8h67c33.333 0 59 9.16699 77 27.5s27 44.5 27 78.5v30c0 34 -9 60.667 -27 80s-43.667 29 -77 29h-94c-6 0 -9 2.66699 -9 8v9c0 5.33301 3 8 9 8h94
c40.667 0 73.167 -11.833 97.5 -35.5s36.5 -56.167 36.5 -97.5v-32c0 -60.667 -23.333 -99.334 -70 -116.001v-4c24 -9.33301 42.333 -25.666 55 -48.999h162c6 0 9 2.66699 9 8v308c0 12 5.33301 18 16 18zM629 684.001h-60.998c-80 0 -120 40.333 -120 121v6
c0 6 2.66699 9 8 9h14c5.33301 0 8 -3 8 -9v-6c0 -34 6.66699 -58 20 -72s36.666 -21 69.999 -21h61c33.333 0 56.666 7 69.999 21s20 38 20 72v6c0 6 2.66699 9 8 9h14c5.33301 0 8 -3 8 -9v-6c0 -80.667 -40 -121 -120 -121z" />
    <glyph glyph-name="uni0912" unicode="&#x912;" horiz-adv-x="825" 
d="M734 623h92.001c6 0 9 -2.66699 9 -8v-9c0 -5.33301 -3 -8 -9 -8h-92c-6 0 -9 -2.66699 -9 -8v-581c0 -6 -2.66699 -9 -8 -9h-14c-5.33301 0 -8 3 -8 9v581c0 5.33301 -3 8 -9 8h-182c-6 0 -9 -2.66699 -9 -8v-581c0 -6 -2.66699 -9 -8 -9h-14c-5.33301 0 -8 3 -8 9v244
c0 5.33301 -3 8 -9 8h-152c3.33301 -14.667 5 -28.334 5 -41.001v-44c0 -41.333 -12.167 -74.333 -36.5 -99s-56.833 -37 -97.5 -37h-130c-6 0 -9 2.66699 -9 8v12c0 5.33301 3 8 9 8h130c33.333 0 59 9.66699 77 29s27 46 27 80v42c0 34 -9 60.167 -27 78.5
s-43.667 27.5 -77 27.5h-67c-6 0 -9 2.66699 -9 8v12c0 5.33301 3 8 9 8h67c33.333 0 59 9.16699 77 27.5s27 44.5 27 78.5v30c0 34 -9 60.667 -27 80s-43.667 29 -77 29h-94c-6 0 -9 2.66699 -9 8v9c0 5.33301 3 8 9 8h94c40.667 0 73.167 -11.833 97.5 -35.5
s36.5 -56.167 36.5 -97.5v-32c0 -60.667 -23.333 -99.334 -70 -116.001v-4c24 -9.33301 42.333 -25.666 55 -48.999h162c6 0 9 2.66699 9 8v308c0 12 5.33301 18 16 18h205c6 0 9 2.66699 9 8c0 12.667 -4.33301 23.667 -13 33s-27.334 21.666 -56.001 36.999l-69 36
c-26.667 14 -45.667 29.333 -57 46s-17 39 -17 67v8c0 6 2.66699 9 8 9h14c5.33301 0 8 -3 8 -9v-8c0 -18 3.33301 -33 10 -45s13 -20.333 19 -25c8 -5.33301 43.333 -24.666 106 -57.999c24.667 -13.333 43.667 -26.666 57 -39.999s20 -30.333 20 -51c0 -5.33301 3 -8 9 -8
z" />
    <glyph glyph-name="uni0913" unicode="&#x913;" horiz-adv-x="825" 
d="M741 623h85c6 0 9 -2.66699 9 -8v-9c0 -5.33301 -3 -8 -9 -8h-92c-6 0 -9 -2.66699 -9 -8v-581c0 -6 -2.66699 -9 -8 -9h-14c-5.33301 0 -8 3 -8 9v581c0 5.33301 -3 8 -9 8h-182c-6 0 -9 -2.66699 -9 -8v-581c0 -6 -2.66699 -9 -8 -9h-14c-5.33301 0 -8 3 -8 9v244
c0 5.33301 -3 8 -9 8h-152c3.33301 -14.667 5 -28.334 5 -41.001v-44c0 -41.333 -12.167 -74.333 -36.5 -99s-56.833 -37 -97.5 -37h-130c-6 0 -9 2.66699 -9 8v12c0 5.33301 3 8 9 8h130c33.333 0 59 9.66699 77 29s27 46 27 80v42c0 34 -9 60.167 -27 78.5
s-43.667 27.5 -77 27.5h-67c-6 0 -9 2.66699 -9 8v12c0 5.33301 3 8 9 8h67c33.333 0 59 9.16699 77 27.5s27 44.5 27 78.5v30c0 34 -9 60.667 -27 80s-43.667 29 -77 29h-94c-6 0 -9 2.66699 -9 8v9c0 5.33301 3 8 9 8h94c40.667 0 73.167 -11.833 97.5 -35.5
s36.5 -56.167 36.5 -97.5v-32c0 -60.667 -23.333 -99.334 -70 -116.001v-4c24 -9.33301 42.333 -25.666 55 -48.999h162c6 0 9 2.66699 9 8v308c0 12 5.33301 18 16 18h214v4c-24.667 28.667 -57.667 73.334 -99 134.001l-64 93c-1.33301 2.66699 -2 4.66699 -2 6
c0 4.66699 2.66699 7 8 7h16c5.33301 0 10 -3 14 -9l150 -222c5.33301 -8.66699 13 -13 23 -13z" />
    <glyph glyph-name="uni0914" unicode="&#x914;" horiz-adv-x="825" 
d="M731 623h95c6 0 9 -2.66699 9 -8v-9c0 -5.33301 -3 -8 -9 -8h-92c-6 0 -9 -2.66699 -9 -8v-581c0 -6 -2.66699 -9 -8 -9h-14c-5.33301 0 -8 3 -8 9v581c0 5.33301 -3 8 -9 8h-182c-6 0 -9 -2.66699 -9 -8v-581c0 -6 -2.66699 -9 -8 -9h-14c-5.33301 0 -8 3 -8 9v244
c0 5.33301 -3 8 -9 8h-152c3.33301 -14.667 5 -28.334 5 -41.001v-44c0 -41.333 -12.167 -74.333 -36.5 -99s-56.833 -37 -97.5 -37h-130c-6 0 -9 2.66699 -9 8v12c0 5.33301 3 8 9 8h130c33.333 0 59 9.66699 77 29s27 46 27 80v42c0 34 -9 60.167 -27 78.5
s-43.667 27.5 -77 27.5h-67c-6 0 -9 2.66699 -9 8v12c0 5.33301 3 8 9 8h67c33.333 0 59 9.16699 77 27.5s27 44.5 27 78.5v30c0 34 -9 60.667 -27 80s-43.667 29 -77 29h-94c-6 0 -9 2.66699 -9 8v9c0 5.33301 3 8 9 8h94c40.667 0 73.167 -11.833 97.5 -35.5
s36.5 -56.167 36.5 -97.5v-32c0 -60.667 -23.333 -99.334 -70 -116.001v-4c24 -9.33301 42.333 -25.666 55 -48.999h162c6 0 9 2.66699 9 8v308c0 12 5.33301 18 16 18h214v4c-28.667 30.667 -63 75.334 -103 134.001l-63 93c-1.33301 2.66699 -2 4.66699 -2 6
c0 4.66699 2.66699 7 8 7h14c5.33301 0 10 -3 14 -9l139 -208l3 1c-6.66699 40.667 -10 88.667 -10 144v63c0 6 2.66699 9 8 9h14c5.33301 0 8 -3 8 -9v-227c0 -5.33301 2 -8 6 -8z" />
    </font>
</defs>
</svg>
