<?xml version="1.0" standalone="no"?>
<!DOCTYPE svg PUBLIC "-//W3C//DTD SVG 1.1//EN" "http://www.w3.org/Graphics/SVG/1.1/DTD/svg11.dtd" >
<svg>
<metadata>
Created by FontForge 20090914 at Wed May  2 17:47:21 2018
 By www-data
Copyright (c) 2014 Indian Type Foundry (info@indiantypefoundry.com)
</metadata>
<defs>
<font id="Rajdhani-SemiBold" horiz-adv-x="235" >
  <font-face 
    font-family="Rajdhani SemiBold"
    font-weight="600"
    font-stretch="normal"
    units-per-em="1000"
    panose-1="2 0 0 0 0 0 0 0 0 0"
    ascent="800"
    descent="-200"
    x-height="510"
    cap-height="643"
    bbox="-448 -334.002 2024 914"
    underline-thickness="50"
    underline-position="-50"
    unicode-range="U+000D-U+F6C3"
  />
<missing-glyph horiz-adv-x="600" 
d="M170 536v-490h260v490h-260zM120 0v582h360v-582h-360z" />
    <glyph glyph-name=".notdef" horiz-adv-x="600" 
d="M170 536v-490h260v490h-260zM120 0v582h360v-582h-360z" />
    <glyph glyph-name="NULL" horiz-adv-x="0" 
 />
    <glyph glyph-name="NULL" horiz-adv-x="0" 
 />
    <glyph glyph-name="CR" unicode="&#xd;" horiz-adv-x="0" 
 />
    <glyph glyph-name="space" unicode=" " horiz-adv-x="238" 
 />
    <glyph glyph-name="exclam" unicode="!" horiz-adv-x="238" 
d="M65 492v134c0 11.333 5.66699 17 17 17h73c11.333 0 17 -5.66699 17 -17v-134c0 -78.667 -5 -163 -15 -253c-2 -12 -8 -18 -18 -18h-41c-10 0 -16 6 -18 18c-10 90 -15 174.333 -15 253zM169 139v-122c0 -11.333 -5.33301 -17 -16 -17h-67c-10.667 0 -16 6 -16 18v121
c0 10.667 5.33301 16 16 16h67c10.667 0 16 -5.33301 16 -16z" />
    <glyph glyph-name="quotedbl" unicode="&#x22;" horiz-adv-x="344" 
d="M97 422h-12.001c-10 0 -15.667 6.33301 -17 19l-21 186c-0.666992 10.667 4.33301 16 15 16h59c10.667 0 15.667 -5.33301 15 -16l-20 -187c-3.33301 -12 -9.66602 -18 -18.999 -18zM257.999 422h-11c-11.333 0 -17 6.33301 -17 19l-21 186c-2 10.667 3 16 15 16h59
c11.333 0 16 -5.33301 14 -16l-20 -187c-2 -12 -8.33301 -18 -19 -18z" />
    <glyph glyph-name="numbersign" unicode="#" horiz-adv-x="672" 
d="M613 493c11.333 0 17 -5.66699 17 -17v-45c0 -12 -5.66699 -18 -17 -18h-99l-47 -183h90c11.333 0 17 -6 17 -18v-45c0 -11.333 -5.66699 -17 -17 -17h-111l-34 -132c-2.66699 -12 -9 -18 -19 -18h-47c-12 0 -16.667 6.66699 -14 20l34 130h-142l-34 -132
c-4 -12 -11.333 -18 -22 -18h-45c-12.667 0 -17 6.66699 -13 20l34 130h-84c-11.333 0 -17 5.66699 -17 17v45c0 12 5.66699 18 17 18h104l47 183h-95c-12 0 -18 6 -18 18v45c0 11.333 6 17 18 17h116l34 132c2 12 8.33301 18 19 18h46c13.333 0 18 -6.66699 14 -20
l-33 -130h142l34 132c2.66699 12 10 18 22 18h43c12.667 0 17.667 -6.66699 15 -20l-34 -130h79zM386 230l47 183h-142l-47 -183h142z" />
    <glyph glyph-name="dollar" unicode="$" horiz-adv-x="518" 
d="M288 -98l-46.0029 0.000976562c-11.333 0 -17 5.66699 -17 17v81h-17c-47.333 0 -84.666 13.833 -111.999 41.5s-41 65.834 -41 114.501v23c0 12 6 18 18 18h63c11.333 0 17 -6 17 -18v-15c0 -28 6.33301 -48.167 19 -60.5s33.334 -18.5 62.001 -18.5h52
c28 0 48.333 6.5 61 19.5s19 34.167 19 63.5v32c0 28 -8.66699 47.167 -26 57.5s-43.333 16.5 -78 18.5c-49.333 2 -83.666 5.66699 -102.999 11s-37 13.666 -53 24.999c-34 23.333 -51 66.333 -51 129v47c0 48.667 13.5 86.834 40.5 114.501s64.5 41.5 112.5 41.5h17v82
c0 11.333 5.66699 17 17 17h46c11.333 0 17 -5.66699 17 -17v-82h5c45.333 0 81.166 -14 107.499 -42s39.5 -66 39.5 -114v-22c0 -12 -5.66699 -18 -17 -18h-63c-12 0 -18 6 -18 18v13c0 28 -6.16699 48.167 -18.5 60.5s-32.833 18.5 -61.5 18.5h-46
c-29.333 0 -50 -6.5 -62 -19.5s-18 -35.167 -18 -66.5v-34c0 -25.333 8.5 -43 25.5 -53s43.167 -16 78.5 -18l51 -2c46.667 -2.66699 84.334 -15.834 113.001 -39.501s43 -64.167 43 -121.5v-48c0 -48.667 -13.833 -86.834 -41.5 -114.501s-65.167 -41.5 -112.5 -41.5h-5
v-81c0 -11.333 -5.66699 -17 -17 -17z" />
    <glyph glyph-name="percent" unicode="%" horiz-adv-x="732" 
d="M560 244h-20c-20.667 0 -34.667 -4 -42 -12s-11 -22.333 -11 -43v-75c0 -20.667 3.66699 -35.167 11 -43.5s21.333 -12.5 42 -12.5h20c20 0 33.833 4.16699 41.5 12.5s11.5 22.833 11.5 43.5v75c0 20.667 -3.83301 35 -11.5 43s-21.5 12 -41.5 12zM526 302h46
c72.667 0 109 -36.667 109 -110v-82c0 -73.333 -36.333 -110 -109 -110h-46c-72.667 0 -109 36.667 -109 110v82c0 73.333 36.333 110 109 110zM193 587h-21c-20 0 -33.833 -4 -41.5 -12s-11.5 -22.333 -11.5 -43v-76c0 -20.667 3.83301 -35 11.5 -43s21.5 -12 41.5 -12h21
c20 0 33.667 4.16699 41 12.5s11 22.5 11 42.5v76c0 20 -3.66699 34.167 -11 42.5s-21 12.5 -41 12.5zM159 645h46c72.667 0 109 -36.667 109 -110v-82c0 -73.333 -36.333 -110 -109 -110h-46c-72.667 0 -109 36.667 -109 110v82c0 73.333 36.333 110 109 110zM255 0
h-38.999c-12 0 -16 6 -12 18c15.333 40 57 142 125 306l124 301c5.33301 12 12.666 18 21.999 18h40c12.667 0 16.667 -6.33301 12 -19l-249 -606c-4 -12 -11.667 -18 -23 -18z" />
    <glyph glyph-name="ampersand" unicode="&#x26;" horiz-adv-x="610" 
d="M220 86h55c37.333 0 58.333 17 63 51l-135 157c-38.667 -2 -58 -28 -58 -78v-57c0 -48.667 25 -73 75 -73zM275 0l-68.999 0.000976562c-48.667 0 -86.667 13.333 -114 40s-41 64.334 -41 113.001v69c0 33.333 8.66699 62.666 26 87.999s42.666 39.333 75.999 42
c-27.333 35.333 -41 74.333 -41 117v21c0 48 14.5 85.5 43.5 112.5s68.167 40.5 117.5 40.5h30c48.667 0 86.667 -13.333 114 -40s41 -64.334 41 -113.001v-39c0 -12 -5.66699 -18 -17 -18h-63c-11.333 0 -17 6 -17 18v37c0 48 -22.333 72 -67 72h-12
c-46.667 0 -70 -24 -70 -72v-21c0 -30 14.667 -61.333 44 -94l53 -61h229c11.333 0 17 -6 17 -18v-51c0 -11.333 -5.66699 -17 -17 -17h-157l179 -212c2.66699 -2.66699 3.5 -5.66699 2.5 -9s-3.5 -5 -7.5 -5h-80c-13.333 0 -23 4 -29 12l-49 58
c-15.333 -46.667 -56 -70 -122 -70z" />
    <glyph glyph-name="quotesingle" unicode="'" horiz-adv-x="187" 
d="M100 447h-12.999c-11.333 0 -17.333 5.33301 -18 16l-19 142c-2 9.33301 3 14 15 14h57c6 0 10.167 -1.16699 12.5 -3.5s3.16602 -5.83301 2.49902 -10.5l-19 -143c-2 -10 -8 -15 -18 -15z" />
    <glyph glyph-name="parenleft" unicode="(" horiz-adv-x="297" 
d="M223 572l-4.00098 0.000976562c-60 0 -90 -38 -90 -114v-375c0 -76 30.667 -114 92 -114h2c10.667 0 16 -5 16 -15v-43c0 -5.33301 -1 -8.83301 -3 -10.5s-6.33301 -2.5 -13 -2.5h-4c-53.333 0 -95.166 16.167 -125.499 48.5s-45.5 81.5 -45.5 147.5v354
c0 65.333 15.333 114.166 46 146.499s72.667 48.5 126 48.5h3c6.66699 0 11 -0.833008 13 -2.5s3 -5.16699 3 -10.5v-43c0 -10 -5.33301 -15 -16 -15z" />
    <glyph glyph-name="parenright" unicode=")" horiz-adv-x="297" 
d="M48 -89v42.999c0 10 5.33301 15 16 15h2c29.333 0 52 9.5 68 28.5s24 47.5 24 85.5v375c0 38 -8 66.5 -24 85.5s-38.667 28.5 -68 28.5h-2c-10.667 0 -16 5 -16 15v43c0 8.66699 5.33301 13 16 13h2c53.333 0 95.5 -16.167 126.5 -48.5s46.5 -81.166 46.5 -146.499v-354
c0 -66 -15.5 -115.167 -46.5 -147.5s-73.167 -48.5 -126.5 -48.5h-2c-10.667 0 -16 4.33301 -16 13z" />
    <glyph glyph-name="asterisk" unicode="*" horiz-adv-x="401" 
d="M163 616v10.9961c0 10.667 5.66699 16 17 16h39c10.667 0 16 -5.33301 16 -16v-11c0 -37.333 -11.333 -78.666 -34 -123.999c0.666992 0 3 2.33301 7 7s9 9.83398 15 15.501s13 11.834 21 18.501c19.333 15.333 40.333 26.333 63 33l12 4c10 2.66699 16.667 -1 20 -11
l12 -37c3.33301 -11.333 -0.333984 -18.333 -11.001 -21c-38 -14 -84.333 -17 -139 -9c2 0 11.667 -4.66699 29 -14c37.333 -22 64.333 -46.667 81 -74c7.33301 -8.66699 6.33301 -16 -3 -22l-32 -23c-10 -5.33301 -17.667 -4 -23 4
c-25.333 29.333 -42.666 72.333 -51.999 129c-7.33301 -53.333 -21.333 -94.333 -42 -123l-7 -10c-6 -8 -13.667 -8.66699 -23 -2l-31 23c-10.667 6 -12 13.667 -4 23c23.333 34.667 59 64.334 107 89.001c-56 -10 -99 -9.66699 -129 1l-12 4c-10 4 -13 11 -9 21l12 38
c3.33301 10.667 10.333 13.667 21 9c38 -8.66699 77 -33 117 -73c-25.333 50.667 -38 92 -38 124z" />
    <glyph glyph-name="plus" unicode="+" horiz-adv-x="549" 
d="M317 362h143c12.667 0 19 -6.66699 19 -20v-42c0 -12.667 -6.33301 -19 -19 -19h-143v-145c0 -13.333 -6.66699 -20 -20 -20h-45c-12.667 0 -19 6.66699 -19 20v145h-144c-12.667 0 -19 6.33301 -19 19v42c0 13.333 6.33301 20 19 20h144v144c0 13.333 6.33301 20 19 20
h45c13.333 0 20 -6.66699 20 -20v-144z" />
    <glyph glyph-name="comma" unicode="," horiz-adv-x="199" 
d="M150 139v-78c0 -16 -6.33301 -36 -19 -60l-53 -97c-2.66699 -6 -7.66699 -9 -15 -9c-9.33301 0 -14 5.33301 -14 16v228c0 10.667 5.66699 16 17 16h68c10.667 0 16 -5.33301 16 -16z" />
    <glyph glyph-name="hyphen" unicode="-" horiz-adv-x="312" 
d="M255 279h-198c-11.333 0 -17 6 -17 18v44c0 12 5.66699 18 17 18h198c11.333 0 17 -6 17 -18v-44c0 -12 -5.66699 -18 -17 -18z" />
    <glyph glyph-name="period" unicode="." horiz-adv-x="199" 
d="M150 139v-122c0 -11.333 -5.33301 -17 -16 -17h-68c-11.333 0 -17 5.66699 -17 17v122c0 10.667 5.66699 16 17 16h68c10.667 0 16 -5.33301 16 -16z" />
    <glyph glyph-name="slash" unicode="/" horiz-adv-x="404" 
d="M114 0h-57c-14 0 -18.667 6 -14 18c14.667 37.333 52 138 112 302l113 305c5.33301 12 13 18 23 18h58c12.667 0 17 -6.33301 13 -19l-225 -606c-4 -12 -11.667 -18 -23 -18z" />
    <glyph glyph-name="zero" unicode="0" horiz-adv-x="528" 
d="M229 85h71c48 0 72 24.667 72 74v325c0 49.333 -24 74 -72 74h-71c-48 0 -72 -24.667 -72 -74v-325c0 -49.333 24 -74 72 -74zM314 0h-100c-49.333 0 -87.666 13.667 -114.999 41s-41 65.333 -41 114v333c0 49.333 13.667 87.5 41 114.5s65.666 40.5 114.999 40.5h100
c48.667 0 86.667 -13.5 114 -40.5s41 -65.167 41 -114.5v-333c0 -48.667 -13.667 -86.667 -41 -114s-65.333 -41 -114 -41z" />
    <glyph glyph-name="one" unicode="1" horiz-adv-x="327" 
d="M28 486l-0.000976562 59c0 10.667 4.66699 18.667 14 24l104 63c12.667 7.33301 23.334 11 32.001 11h60c11.333 0 17 -5.66699 17 -17v-609c0 -11.333 -5.33301 -17 -16 -17h-65c-11.333 0 -17 5.66699 -17 17v522l-109 -63c-13.333 -6 -20 -2.66699 -20 10z" />
    <glyph glyph-name="two" unicode="2" horiz-adv-x="487" 
d="M52 17v92c0 41.333 17.667 76 53 104l189 154c32 25.333 48 54.666 48 87.999v33c0 48 -25 72 -75 72h-49c-25.333 0 -43.666 -5.66699 -54.999 -17s-17 -29.666 -17 -54.999v-37c0 -12 -5.66699 -18 -17 -18h-64c-11.333 0 -17 6 -17 18v39
c0 48.667 13.667 86.334 41 113.001s65.666 40 114.999 40h78c48.667 0 86.667 -13.333 114 -40s41 -64.334 41 -113.001v-41c0 -52 -20.333 -94.667 -61 -128l-192 -157c-15.333 -12.667 -23 -27.667 -23 -45v-32h260c12 0 18 -5.66699 18 -17v-53
c0 -11.333 -6 -17 -18 -17h-351c-12 0 -18 5.66699 -18 17z" />
    <glyph glyph-name="three" unicode="3" horiz-adv-x="504" 
d="M221 363h55c49.333 0 74 24.333 74 73v52c0 48 -24.667 72 -74 72h-59c-24.667 0 -42.834 -5.66699 -54.501 -17s-17.5 -29.666 -17.5 -54.999v-29c0 -11.333 -5.66699 -17 -17 -17h-64c-11.333 0 -17 5.66699 -17 17v31c0 48.667 13.667 86.334 41 113.001
s65.666 40 114.999 40h87c49.333 0 87.666 -13.333 114.999 -40s41 -64.334 41 -113.001v-55c0 -58.667 -26.667 -96 -80 -112c53.333 -12.667 80 -50 80 -112v-58c0 -48.667 -13.667 -86.334 -41 -113.001s-65.666 -40 -114.999 -40h-87
c-49.333 -0 -87.666 13.333 -114.999 40s-41 64.334 -41 113.001v35c0 12 5.66699 18 17 18h64c11.333 0 17 -6 17 -18v-33c0 -24.667 5.83301 -42.834 17.5 -54.501s29.834 -17.5 54.501 -17.5h59c49.333 0 74 24 74 72v55c0 48.667 -24.667 73 -74 73h-55
c-11.333 0 -17 5.66699 -17 17v45c0 12 5.66699 18 17 18z" />
    <glyph glyph-name="four" unicode="4" horiz-adv-x="533" 
d="M331 208v354l-197 -354h197zM407 0h-59c-11.333 0 -17 5.66699 -17 17v105h-264c-19.333 0 -29 9.66699 -29 29v31c0 14.667 3 27.667 9 39l223 397c5.33301 10 10.333 16.667 15 20s11.667 5 21 5h88c19.333 0 29 -9.66699 29 -29v-406h73c11.333 0 17 -5.66699 17 -17
v-50c0 -12.667 -5.66699 -19 -17 -19h-73v-105c0 -11.333 -5.33301 -17 -16 -17z" />
    <glyph glyph-name="five" unicode="5" horiz-adv-x="497" 
d="M276 340h-62c-12.667 0 -23.167 -2.33301 -31.5 -7s-13.833 -9.66699 -16.5 -15c-7.33301 -15.333 -16.333 -23 -27 -23h-63c-11.333 0 -17 5.66699 -17 17v314c0 11.333 5.66699 17 17 17h339c12 0 18 -5.66699 18 -17v-57c0 -11.333 -6 -17 -18 -17h-258v-182
c11.333 32.667 39.333 49 84 49h59c48 0 84.667 -12.5 110 -37.5s38 -61.833 38 -110.5v-116c0 -48.667 -13.667 -86.667 -41 -114s-65.333 -41 -114 -41h-85c-49.333 0 -87.5 13.667 -114.5 41s-40.5 65.333 -40.5 114v26c0 12 5.66699 18 17 18h63c11.333 0 17 -6 17 -18
v-25c0 -48.667 24 -73 72 -73h57c49.333 0 74 24.333 74 73v101c0 30 -5.83301 51.333 -17.5 64s-31.5 19 -59.5 19z" />
    <glyph glyph-name="six" unicode="6" horiz-adv-x="515" 
d="M224 85h68c48 0 72 24.667 72 74v80c0 49.333 -24 74 -72 74h-140v-154c0 -49.333 24 -74 72 -74zM306 0h-96c-49.333 0 -87.666 13.667 -114.999 41s-41 65.333 -41 114v333c0 49.333 13.667 87.5 41 114.5s65.666 40.5 114.999 40.5h199c11.333 0 17 -5.66699 17 -17
v-52c0 -10.667 -5.66699 -16 -17 -16h-185c-48 0 -72 -24.667 -72 -74v-86h154c49.333 0 87.666 -13.5 114.999 -40.5s41 -65.167 41 -114.5v-88c0 -48.667 -13.667 -86.667 -41 -114s-65.666 -41 -114.999 -41z" />
    <glyph glyph-name="seven" unicode="7" horiz-adv-x="412" 
d="M151 0h-69c-12.667 -0 -15.667 6.33301 -9 19l214 534h-252c-11.333 0 -17 6 -17 18v55c0 11.333 5.66699 17 17 17h339c12 0 18 -5.66699 18 -17v-62c0 -10.667 -3.66699 -24.667 -11 -42l-202 -506c-4 -10.667 -13.333 -16 -28 -16z" />
    <glyph glyph-name="eight" unicode="8" horiz-adv-x="533" 
d="M227 85h78.998c24.667 0 42.834 5.66699 54.501 17s17.5 29.333 17.5 54v54c0 50 -24 75 -72 75h-79c-48 0 -72 -25 -72 -75v-54c0 -24.667 5.83301 -42.667 17.5 -54s29.834 -17 54.501 -17zM226.998 363h79.002c48 0 72 25 72 75v49c0 24.667 -5.83301 42.667 -17.5 54
s-29.834 17 -54.501 17h-79c-24.667 0 -42.834 -5.66699 -54.501 -17s-17.5 -29.333 -17.5 -54v-49c0 -50 24 -75 72 -75zM320 0l-106 -0.000976562c-49.333 0 -87.666 12.667 -114.999 38s-41 62.333 -41 111v54c0 61.333 23 101.333 69 120c-46 18.667 -69 59 -69 121v51
c0 48 13.667 84.667 41 110s65.666 38 114.999 38h106c49.333 0 87.5 -12.667 114.5 -38s40.5 -62 40.5 -110v-51c0 -30.667 -6.16699 -56.667 -18.5 -78s-28.833 -35.666 -49.5 -42.999c45.333 -18 68 -58.333 68 -121v-53c0 -48.667 -13.5 -85.667 -40.5 -111
s-65.167 -38 -114.5 -38z" />
    <glyph glyph-name="nine" unicode="9" horiz-adv-x="515" 
d="M219 326h140v158c0 49.333 -24.333 74 -73 74h-67c-48 0 -72 -24.667 -72 -74v-85c0 -48.667 24 -73 72 -73zM300 0h-203c-12.667 0 -19 5.66699 -19 17v52c0 10.667 6.33301 16 19 16h189c48 0 72 24.667 72 74v81h-154c-49.333 0 -87.666 13.5 -114.999 40.5
s-41 64.833 -41 113.5v94c0 49.333 13.667 87.5 41 114.5s65.666 40.5 114.999 40.5h96c49.333 0 87.666 -13.5 114.999 -40.5s41 -65.167 41 -114.5v-333c0 -48.667 -13.667 -86.667 -41 -114s-65.666 -41 -114.999 -41z" />
    <glyph glyph-name="colon" unicode=":" horiz-adv-x="199" 
d="M150 494v-122c0 -11.333 -5.33301 -17 -16 -17h-68c-11.333 0 -17 6.33301 -17 19v119c0 11.333 5.66699 17 17 17h68c10.667 0 16 -5.33301 16 -16zM150 139v-122c0 -11.333 -5.33301 -17 -16 -17h-68c-11.333 0 -17 6 -17 18v121c0 10.667 5.66699 16 17 16h68
c10.667 0 16 -5.33301 16 -16z" />
    <glyph glyph-name="semicolon" unicode=";" horiz-adv-x="199" 
d="M150 139v-78c0 -16 -6.33301 -36 -19 -60l-53 -97c-2.66699 -6 -7.66699 -9 -15 -9c-9.33301 0 -14 5.33301 -14 16v228c0 10.667 5.66699 16 17 16h68c10.667 0 16 -5.33301 16 -16zM150 494v-122c0 -11.333 -5.33301 -17 -16 -17h-68c-11.333 0 -17 6.33301 -17 19v119
c0 11.333 5.66699 17 17 17h68c10.667 0 16 -5.33301 16 -16z" />
    <glyph glyph-name="less" unicode="&#x3c;" horiz-adv-x="544" 
d="M477 493v-49.998c0 -12.667 -5.33301 -20.334 -16 -23.001l-312 -95l312 -94c10.667 -2.66699 16 -10.334 16 -23.001v-50c0 -13.333 -6.66699 -17.333 -20 -12l-368 126c-14 4.66699 -21 15 -21 31v44c0 16 7 26.333 21 31l368 127c13.333 5.33301 20 1.33301 20 -12z
" />
    <glyph glyph-name="equal" unicode="=" horiz-adv-x="554" 
d="M91 456h372c12 0 18 -6.33301 18 -19v-41c0 -12.667 -6 -19 -18 -19h-372c-7.33301 0 -12.333 1.33301 -15 4s-4 7.66699 -4 15v41c0 7.33301 1.33301 12.333 4 15s7.66699 4 15 4zM91 266h372c12 0 18 -6.33301 18 -19v-41c0 -13.333 -6 -20 -18 -20h-372
c-12.667 0 -19 6.66699 -19 20v41c0 12.667 6.33301 19 19 19z" />
    <glyph glyph-name="greater" unicode="&#x3e;" horiz-adv-x="554" 
d="M72 443v49.998c0 13.333 6.66699 17.333 20 12l368 -127c14 -4.66699 21 -15 21 -31v-44c0 -16 -7 -26.333 -21 -31l-368 -126c-13.333 -5.33301 -20 -1.33301 -20 12v50c0 12.667 5.33301 20.334 16 23.001l311 94l-311 95c-10.667 2.66699 -16 10.334 -16 23.001z" />
    <glyph glyph-name="question" unicode="?" horiz-adv-x="469" 
d="M282 139v-122c0 -11.333 -5.33301 -17 -16 -17h-68c-11.333 0 -17 6 -17 18v121c0 10.667 5.66699 16 17 16h68c10.667 0 16 -5.33301 16 -16zM281 268l0.000976562 -30.002c0 -11.333 -6 -17 -18 -17h-59c-11.333 0 -17 5.66699 -17 17v29c0 24.667 3.66699 44 11 58
s20.666 29 39.999 45l49 41c23.333 18.667 35 39.334 35 62.001v14c0 48 -25 72 -75 72h-27c-24.667 0 -42.667 -5.83301 -54 -17.5s-17 -29.834 -17 -54.501v-29c0 -12 -6 -18 -18 -18h-63c-11.333 0 -17 6 -17 18v31c0 48.667 13.667 86.334 41 113.001s65.333 40 114 40
h56c48.667 0 86.667 -13.333 114 -40s41 -64.334 41 -113.001v-21c0 -33.333 -15 -63.333 -45 -90l-60 -48c-13.333 -11.333 -21.833 -21.166 -25.5 -29.499s-5.5 -19.166 -5.5 -32.499z" />
    <glyph glyph-name="at" unicode="@" horiz-adv-x="749" 
d="M500 -58l-180 -0.00195312c-71.333 0 -131.333 22 -180 66s-73 102.667 -73 176v173c0 71.333 23.167 130.166 69.5 176.499s103.5 69.5 171.5 69.5h201c52.667 0 95.667 -15.667 129 -47s50 -71.666 50 -120.999v-219c0 -39.333 -12.5 -71.333 -37.5 -96
s-57.167 -37 -96.5 -37h-47c-15.333 0 -28.333 3.83301 -39 11.5s-16 18.5 -16 32.5v11h-4c-16 -36 -50 -54 -102 -54c-40.667 0 -73.5 13 -98.5 39s-37.5 62.667 -37.5 110v72c0 48.667 13 86.667 39 114s60.667 41 104 41h162c11.333 0 17 -5.66699 17 -17v-289
c0 -7.33301 5.66699 -11 17 -11h1c52 0 78 26.667 78 80v207c0 36 -11.667 64 -35 84s-53.333 30 -90 30h-190c-56 0 -101.167 -17.167 -135.5 -51.5s-51.5 -81.166 -51.5 -140.499v-159c0 -59.333 18 -106.166 54 -140.499s82.333 -51.5 139 -51.5h181
c11.333 0 17 -5.66699 17 -17v-25c0 -11.333 -5.66699 -17 -17 -17zM452 241.998v132c0 7.33301 -3.66699 11 -11 11h-73c-48 0 -72 -24.667 -72 -74v-80c0 -48.667 24 -73 72 -73h2c54.667 0 82 28 82 84z" />
    <glyph glyph-name="A" unicode="A" horiz-adv-x="548" 
d="M108 0h-72.002c-9.33301 0 -12.666 5.66699 -9.99902 17l174 609c3.33301 11.333 11.333 17 24 17h100c13.333 0 21.333 -5.66699 24 -17l174 -609c2.66699 -11.333 -1 -17 -11 -17h-71c-6 0 -10.167 1.16699 -12.5 3.5s-4.16602 6.83301 -5.49902 13.5l-38 130h-220
l-38 -130c-2.66699 -11.333 -8.66699 -17 -18 -17zM271.998 547l-88 -320h181l-89 320h-4z" />
    <glyph glyph-name="B" unicode="B" horiz-adv-x="552" 
d="M181 83h140c50 0 75 24 75 72v62c0 48 -26.333 72 -79 72h-136c-7.33301 0 -11 -3.33301 -11 -10v-186c0 -6.66699 3.66699 -10 11 -10zM181 369h130c50.667 0 76 24.333 76 73v46c0 48 -24.667 72 -74 72h-132c-7.33301 0 -11 -3.33301 -11 -10v-171
c0 -6.66699 3.66699 -10 11 -10zM73 17l0.000976562 609.001c0 11.333 5.66699 17 17 17h237c49.333 0 87.666 -13.333 114.999 -40s41 -64.334 41 -113.001v-49c0 -58 -27.333 -95.333 -82 -112c26 -3.33301 47.5 -14.666 64.5 -33.999s25.5 -45.333 25.5 -78v-64
c0 -48.667 -13.667 -86.334 -41 -113.001s-65.333 -40 -114 -40h-246c-11.333 0 -17 5.66699 -17 17z" />
    <glyph glyph-name="C" unicode="C" horiz-adv-x="540" 
d="M334 0h-116c-49.333 0 -87.5 13.667 -114.5 41s-40.5 65.333 -40.5 114v333c0 49.333 13.5 87.5 40.5 114.5s65.167 40.5 114.5 40.5h116c48.667 0 86.667 -13.5 114 -40.5s41 -65.167 41 -114.5v-48c0 -12 -6 -18 -18 -18h-63c-11.333 0 -17 6 -17 18v44
c0 49.333 -24 74 -72 74h-87c-48 0 -72 -24.667 -72 -74v-325c0 -49.333 24 -74 72 -74h87c48 0 72 24.667 72 74v44c0 12 5.66699 18 17 18h63c12 0 18 -6 18 -18v-48c0 -48.667 -13.667 -86.667 -41 -114s-65.333 -41 -114 -41z" />
    <glyph glyph-name="D" unicode="D" horiz-adv-x="555" 
d="M181 85h141c48 0 72 24.667 72 74v325c0 49.333 -24 74 -72 74h-141c-7.33301 0 -11 -3.33301 -11 -10v-452c0 -7.33301 3.66699 -11 11 -11zM73 17v609c0 11.333 5.66699 17 17 17h246c48.667 0 86.834 -13.5 114.501 -40.5s41.5 -65.167 41.5 -114.5v-333
c0 -48.667 -13.833 -86.667 -41.5 -114s-65.834 -41 -114.501 -41h-246c-11.333 0 -17 5.66699 -17 17z" />
    <glyph glyph-name="E" unicode="E" horiz-adv-x="480" 
d="M410 0h-320c-11.333 0 -17 5.66699 -17 17v609c0 11.333 5.66699 17 17 17h320c10.667 0 16 -5.66699 16 -17v-51c0 -11.333 -5.33301 -17 -16 -17h-228c-8 0 -12 -3.33301 -12 -10v-169c0 -6.66699 4 -10 12 -10h193c12 0 18 -5.66699 18 -17v-51
c0 -11.333 -6 -17 -18 -17h-193c-8 0 -12 -3.33301 -12 -10v-178c0 -7.33301 4 -11 12 -11h228c10.667 0 16 -5.66699 16 -17v-51c0 -11.333 -5.33301 -17 -16 -17z" />
    <glyph glyph-name="F" unicode="F" horiz-adv-x="454" 
d="M153 0h-63c-11.333 0 -17 5.66699 -17 17v609c0 11.333 5.66699 17 17 17h314c11.333 0 17 -5.66699 17 -17v-51c0 -11.333 -5.66699 -17 -17 -17h-222c-8 0 -12 -3.33301 -12 -10v-189c0 -7.33301 4 -11 12 -11h193c12 0 18 -5.66699 18 -17v-50c0 -12 -6 -18 -18 -18
h-193c-8 0 -12 -3.33301 -12 -10v-236c0 -11.333 -5.66699 -17 -17 -17z" />
    <glyph glyph-name="G" unicode="G" horiz-adv-x="543" 
d="M325 0h-107c-49.333 0 -87.5 13.667 -114.5 41s-40.5 65.333 -40.5 114v333c0 49.333 13.5 87.5 40.5 114.5s65.167 40.5 114.5 40.5h107c49.333 0 87.5 -13.5 114.5 -40.5s40.5 -65.167 40.5 -114.5v-36c0 -12 -5.66699 -18 -17 -18h-63c-11.333 0 -17 6 -17 18v32
c0 49.333 -24 74 -72 74h-79c-48 0 -72 -24.667 -72 -74v-325c0 -49.333 24 -74 72 -74h79c48 0 72 24.667 72 74v90c0 6.66699 -3.66699 10 -11 10h-81c-11.333 0 -17 5.66699 -17 17v51c0 11.333 5.66699 17 17 17h168c14 0 21 -7 21 -21v-168
c0 -48.667 -13.667 -86.667 -41 -114s-65.333 -41 -114 -41z" />
    <glyph glyph-name="H" unicode="H" horiz-adv-x="574" 
d="M153 0h-63c-11.333 0 -17 5.66699 -17 17v609c0 11.333 5.66699 17 17 17h63c11.333 0 17 -5.66699 17 -17v-250c0 -6.66699 4 -10 12 -10h211c6.66699 0 10 3.33301 10 10v250c0 11.333 5.66699 17 17 17h64c11.333 0 17 -5.66699 17 -17v-609
c0 -11.333 -5.66699 -17 -17 -17h-64c-11.333 0 -17 5.66699 -17 17v253c0 6.66699 -3.33301 10 -10 10h-211c-8 0 -12 -3.33301 -12 -10v-253c0 -11.333 -5.66699 -17 -17 -17z" />
    <glyph glyph-name="I" unicode="I" horiz-adv-x="253" 
d="M175 626v-609c0 -11.333 -5.66699 -17 -17 -17h-63c-11.333 0 -17 5.66699 -17 17v609c0 11.333 5.66699 17 17 17h63c11.333 0 17 -5.66699 17 -17z" />
    <glyph glyph-name="J" unicode="J" horiz-adv-x="513" 
d="M365 643h62.999c11.333 0 17 -5.33301 17 -16v-472c0 -48.667 -13.667 -86.667 -41 -114s-65.333 -41 -114 -41h-100c-49.333 0 -87.666 13.667 -114.999 41s-41 65.333 -41 114v90c0 11.333 6 17 18 17h63c11.333 0 17 -5.66699 17 -17v-86c0 -49.333 24 -74 72 -74h71
c48 0 72 24.667 72 74v467c0 11.333 6 17 18 17z" />
    <glyph glyph-name="K" unicode="K" horiz-adv-x="548" 
d="M153 0h-63.001c-11.333 0 -17 5.66699 -17 17v609c0 11.333 5.66699 17 17 17h63c11.333 0 17 -5.66699 17 -17v-317h3c6.66699 18 15.334 34.667 26.001 50l191 267c7.33301 11.333 18 17 32 17h74c14 0 16.333 -6.33301 7 -19l-195 -265l220 -339
c8 -13.333 4 -20 -12 -20h-56c-18 0 -30.667 5.66699 -38 17l-173 271l-79 -93v-178c0 -11.333 -5.66699 -17 -17 -17z" />
    <glyph glyph-name="L" unicode="L" horiz-adv-x="450" 
d="M414 0h-324c-11.333 0 -17 5.66699 -17 17v609c0 11.333 5.66699 17 17 17h63c11.333 0 17 -5.66699 17 -17v-529c0 -6.66699 4 -10 12 -10h232c11.333 0 17 -6 17 -18v-52c0 -11.333 -5.66699 -17 -17 -17z" />
    <glyph glyph-name="M" unicode="M" horiz-adv-x="715" 
d="M513 643h112.001c11.333 0 17 -5.66699 17 -17v-609c0 -11.333 -5.66699 -17 -17 -17h-62c-11.333 0 -17 5.66699 -17 17v505h-4l-130 -366c-4 -10.667 -11.333 -16 -22 -16h-64c-10 0 -17 5.33301 -21 16l-133 367h-4v-506c0 -6.66699 -1.16699 -11.167 -3.5 -13.5
s-6.83301 -3.5 -13.5 -3.5h-61c-11.333 0 -17 5.66699 -17 17v609c0 11.333 5.66699 17 17 17h112c7.33301 0 12.666 -3.66699 15.999 -11l137 -386h5l138 386c1.33301 7.33301 6.33301 11 15 11z" />
    <glyph glyph-name="N" unicode="N" horiz-adv-x="583" 
d="M152 0h-61.999c-11.333 0 -17 5.66699 -17 17v609c0 11.333 5.66699 17 17 17h56c10.667 0 18 -3.66699 22 -11l242 -435h4v429c0 11.333 5.66699 17 17 17h62c11.333 0 17 -5.66699 17 -17v-609c0 -11.333 -5.66699 -17 -17 -17h-54
c-10.667 -0 -19.334 5.33301 -26.001 16l-240 430h-4v-429c0 -11.333 -5.66699 -17 -17 -17z" />
    <glyph glyph-name="O" unicode="O" horiz-adv-x="552" 
d="M232 85h87c48.667 0 73 24.667 73 74v325c0 49.333 -24.333 74 -73 74h-87c-48 0 -72 -24.667 -72 -74v-325c0 -49.333 24 -74 72 -74zM334 0h-116c-49.333 0 -87.5 13.667 -114.5 41s-40.5 65.333 -40.5 114v333c0 49.333 13.5 87.5 40.5 114.5s65.167 40.5 114.5 40.5
h116c49.333 0 87.666 -13.5 114.999 -40.5s41 -65.167 41 -114.5v-333c0 -48.667 -13.667 -86.667 -41 -114s-65.666 -41 -114.999 -41z" />
    <glyph glyph-name="P" unicode="P" horiz-adv-x="528" 
d="M153 0h-63c-11.333 0 -17 5.66699 -17 17v609c0 11.333 5.66699 17 17 17h238c48.667 0 86.667 -13.5 114 -40.5s41 -65.167 41 -114.5v-104c0 -48.667 -13.667 -86.667 -41 -114s-65.333 -41 -114 -41h-146c-8 0 -12 -3.33301 -12 -10v-202
c0 -11.333 -5.66699 -17 -17 -17zM181 315h133c47.333 0 71 24.667 71 74v95c0 49.333 -23.667 74 -71 74h-133c-7.33301 0 -11 -3.33301 -11 -10v-223c0 -6.66699 3.66699 -10 11 -10z" />
    <glyph glyph-name="Q" unicode="Q" horiz-adv-x="564" 
d="M239 85h87c48 0 72 24.667 72 74v325c0 49.333 -24 74 -72 74h-87c-48 0 -72 -24.667 -72 -74v-325c0 -49.333 24 -74 72 -74zM426 -133l-55.998 -0.000976562c-14.667 0 -25.334 5.66699 -32.001 17l-68 116h-46c-49.333 0 -87.666 13.667 -114.999 41
s-41 65.333 -41 114v333c0 49.333 13.667 87.5 41 114.5s65.666 40.5 114.999 40.5h116c49.333 0 87.5 -13.5 114.5 -40.5s40.5 -65.167 40.5 -114.5v-333c0 -43.333 -10.833 -78.166 -32.5 -104.499s-52.167 -42.166 -91.5 -47.499l67 -115
c3.33301 -6.66699 3.66602 -11.834 0.999023 -15.501s-7 -5.5 -13 -5.5z" />
    <glyph glyph-name="R" unicode="R" horiz-adv-x="542" 
d="M153 0l-63.001 0.000976562c-11.333 0 -17 5.66699 -17 17v609c0 11.333 5.66699 17 17 17h234c48.667 0 86.834 -13.833 114.501 -41.5s41.5 -65.834 41.5 -114.501v-84c0 -76.667 -31.667 -125 -95 -145v-4l111 -234c7.33301 -13.333 3 -20 -13 -20h-62
c-16 0 -26.333 5.66699 -31 17l-107 230h-101c-8 0 -12 -3.33301 -12 -10v-220c0 -11.333 -5.66699 -17 -17 -17zM180.999 327.001h127c49.333 0 74 24.333 74 73v84c0 49.333 -24.667 74 -74 74h-127c-7.33301 0 -11 -3.33301 -11 -10v-211c0 -6.66699 3.66699 -10 11 -10z
" />
    <glyph glyph-name="S" unicode="S" horiz-adv-x="548" 
d="M61 156v25.999c0 11.333 5.66699 17 17 17h64c11.333 0 17 -5.66699 17 -17v-18c0 -28 6.16699 -48.167 18.5 -60.5s32.833 -18.5 61.5 -18.5h69c28.667 0 49.334 6.5 62.001 19.5s19 34.167 19 63.5v23c0 21.333 -8.16699 38.166 -24.5 50.499s-36.5 20.333 -60.5 24
s-50.333 8.83398 -79 15.501s-55 14.334 -79 23.001s-44.167 25 -60.5 49s-24.5 54.667 -24.5 92v42c0 48.667 13.833 86.834 41.5 114.501s65.834 41.5 114.501 41.5h106c49.333 0 87.833 -13.833 115.5 -41.5s41.5 -65.834 41.5 -114.501v-22
c0 -11.333 -5.66699 -17 -17 -17h-64c-11.333 0 -17 5.66699 -17 17v13c0 28.667 -6.16699 49.167 -18.5 61.5s-32.833 18.5 -61.5 18.5h-63c-28.667 0 -49.167 -6.5 -61.5 -19.5s-18.5 -35.167 -18.5 -66.5v-31c0 -30 21.667 -50.333 65 -61
c19.333 -4.66699 40.5 -8.66699 63.5 -12s46.167 -8.33301 69.5 -15s44.666 -15.5 63.999 -26.5s35 -27.667 47 -50s18 -49.5 18 -81.5v-39c0 -48.667 -13.833 -86.834 -41.5 -114.501s-65.834 -41.5 -114.501 -41.5h-112c-48.667 0 -87 13.833 -115 41.5
s-42 65.834 -42 114.501z" />
    <glyph glyph-name="T" unicode="T" horiz-adv-x="434" 
d="M249 0h-63c-12 0 -18 5.66699 -18 17v531c0 6.66699 -3.33301 10 -10 10h-126c-12 0 -18 5.66699 -18 17v51c0 11.333 6 17 18 17h371c12 0 18 -5.66699 18 -17v-51c0 -11.333 -6 -17 -18 -17h-126c-7.33301 0 -11 -3.33301 -11 -10v-531c0 -11.333 -5.66699 -17 -17 -17
z" />
    <glyph glyph-name="U" unicode="U" horiz-adv-x="557" 
d="M409 643h63.001c12 0 18 -5.33301 18 -16v-472c0 -48.667 -13.833 -86.667 -41.5 -114s-65.834 -41 -114.501 -41h-111c-48.667 0 -86.667 13.667 -114 41s-41 65.333 -41 114v471c0 11.333 5.66699 17 17 17h63c11.333 0 17 -5.66699 17 -17v-467
c0 -49.333 24 -74 72 -74h82c48.667 0 73 24.667 73 74v467c0 11.333 5.66699 17 17 17z" />
    <glyph glyph-name="V" unicode="V" horiz-adv-x="513" 
d="M307 0h-99.001c-11.333 0 -18.333 5.66699 -21 17l-166 607c-4 12.667 1 19 15 19h71c10.667 0 17 -5.66699 19 -17l129 -522h4l128 522c2.66699 11.333 9.33398 17 20.001 17h70c14 0 19.333 -6.33301 16 -19l-167 -607c-2.66699 -11.333 -9 -17 -19 -17z" />
    <glyph glyph-name="W" unicode="W" horiz-adv-x="802" 
d="M267 0h-106.003c-12 0 -19 5.66699 -21 17l-119 609c-1.33301 11.333 4.33398 17 17.001 17h77c12.667 0 19.334 -5.66699 20.001 -17l81 -524h6l118 526c1.33301 10 7.33301 15 18 15h84c10.667 0 17 -5 19 -15l119 -526h6l81 523c0.666992 12 7.33398 18 20.001 18h77
c13.333 0 19 -6 17 -18l-119 -608c-2 -11.333 -8.66699 -17 -20 -17h-106c-11.333 0 -18 5.66699 -20 17l-113 506h-4l-113 -506c-2 -11.333 -8.33301 -17 -19 -17z" />
    <glyph glyph-name="X" unicode="X" horiz-adv-x="526" 
d="M114 0h-73.9971c-5.33301 0 -9.16602 1.66699 -11.499 5s-2.16602 7.66602 0.500977 12.999l165 315l-158 292c-2.66699 4.66699 -2.83398 8.83398 -0.500977 12.501s6.16602 5.5 11.499 5.5h71c13.333 0 22.666 -5.66699 27.999 -17l115 -232h4l115 232
c6 11.333 14.667 17 26 17h74c5.33301 0 9.16602 -2 11.499 -6s2.5 -8.33301 0.5 -13l-160 -291l165 -314c2.66699 -5.33301 3 -9.83301 1 -13.5s-6 -5.5 -12 -5.5h-75c-10.667 -0 -18.334 5.33301 -23.001 16l-123 244h-4l-123 -244c-4.66699 -10.667 -12.667 -16 -24 -16z
" />
    <glyph glyph-name="Y" unicode="Y" horiz-adv-x="508" 
d="M286 0h-64c-11.333 0 -17 5.66699 -17 17v221l-187 387c-2.66699 5.33301 -2.66699 9.66602 0 12.999s6.33398 5 11.001 5h80c8.66699 0 15.334 -5.66699 20.001 -17l123 -275h6l121 275c4 11.333 10.667 17 20 17h80c5.33301 0 9.16602 -1.66699 11.499 -5
s2.16602 -7.66602 -0.500977 -12.999l-187 -387v-221c0 -11.333 -5.66699 -17 -17 -17z" />
    <glyph glyph-name="Z" unicode="Z" horiz-adv-x="506" 
d="M46 17v47.001c0 17.333 3 29.666 9 36.999l289 447v4h-265c-12 0 -18 5.66699 -18 17v57c0 11.333 6 17 18 17h354c11.333 0 17 -5.66699 17 -17v-66c0 -14.667 -3.66699 -27.667 -11 -39l-278 -426v-4h282c11.333 0 17 -5.33301 17 -16v-56
c0 -12.667 -5.66699 -19 -17 -19h-380c-11.333 0 -17 5.66699 -17 17z" />
    <glyph glyph-name="bracketleft" unicode="[" horiz-adv-x="309" 
d="M228 -99h-140c-10.667 0 -16 6 -16 18v707c0 11.333 5.33301 17 16 17h140c11.333 0 17 -5.66699 17 -17v-34c0 -11.333 -5.66699 -17 -17 -17h-65c-7.33301 0 -11 -3.66699 -11 -11v-585c0 -6.66699 3.66699 -10 11 -10h65c11.333 0 17 -5.66699 17 -17v-34
c0 -11.333 -5.66699 -17 -17 -17z" />
    <glyph glyph-name="backslash" unicode="\" horiz-adv-x="404" 
d="M55 643h58.999c10.667 0 18.334 -6 23.001 -18l113 -305c60 -164 97.333 -264.667 112 -302c4.66699 -12 0 -18 -14 -18h-57c-11.333 0 -19 6 -23 18l-225 606c-4.66699 12.667 -0.666992 19 12 19z" />
    <glyph glyph-name="bracketright" unicode="]" horiz-adv-x="309" 
d="M60 -82v34c0 11.333 5.66699 17 17 17h65c7.33301 0 11 3.33301 11 10v585c0 7.33301 -3.66699 11 -11 11h-65c-11.333 0 -17 5.66699 -17 17v34c0 11.333 5.66699 17 17 17h140c10.667 0 16 -5.66699 16 -17v-707c0 -12 -5.33301 -18 -16 -18h-140
c-11.333 0 -17 5.66699 -17 17z" />
    <glyph glyph-name="asciicircum" unicode="^" horiz-adv-x="494" 
d="M120 363h-57c-14.667 0 -18.667 6 -12 18l124 237c5.33301 10 10.333 16.667 15 20s12 5 22 5h69c10 0 17.333 -1.66699 22 -5s9.66699 -10 15 -20l124 -237c6.66699 -12 2.66699 -18 -12 -18h-57c-10 0 -17.667 5.66699 -23 17l-104 201l-103 -201
c-6 -11.333 -13.667 -17 -23 -17z" />
    <glyph glyph-name="underscore" unicode="_" horiz-adv-x="372" 
d="M355 -107h-338c-11.333 0 -17 6 -17 18v21c0 11.333 5.66699 17 17 17h338c11.333 0 17 -5.66699 17 -17v-21c0 -12 -5.66699 -18 -17 -18z" />
    <glyph glyph-name="grave" unicode="`" horiz-adv-x="287" 
d="M218 574h-48.001c-9.33301 0 -17 4 -23 12l-85 100c-3.33301 5.33301 -4.16602 9.5 -2.49902 12.5s5.16699 4.5 10.5 4.5h79c11.333 0 19.666 -5.33301 24.999 -16l51 -96c6.66699 -11.333 4.33398 -17 -6.99902 -17z" />
    <glyph glyph-name="a" unicode="a" horiz-adv-x="512" 
d="M247 0h-39c-49.333 0 -87.5 13.667 -114.5 41s-40.5 65.333 -40.5 114v200c0 49.333 13.5 87.5 40.5 114.5s65.167 40.5 114.5 40.5h224c12 0 18 -5.66699 18 -17v-476c0 -11.333 -6 -17 -18 -17h-63c-11.333 0 -17 5.66699 -17 17v36h-4
c-16 -35.333 -49.667 -53 -101 -53zM352 170v245c0 6.66699 -3.66699 10 -11 10h-119c-48 0 -72 -24.667 -72 -74v-192c0 -49.333 24 -74 72 -74h48c54.667 0 82 28.333 82 85z" />
    <glyph glyph-name="b" unicode="b" horiz-adv-x="518" 
d="M171 85h124c48 0 72 24.667 72 74v196c0 49.333 -24 74 -72 74h-53c-54.667 0 -82 -28 -82 -84v-249c0 -7.33301 3.66699 -11 11 -11zM63 17l-0.000976562 669c0 11.333 5.66699 17 17 17h63c11.333 0 17 -5.66699 17 -17v-226h4c16.667 36 50.334 54 101.001 54h44
c49.333 0 87.666 -13.5 114.999 -40.5s41 -64.833 41 -113.5v-205c0 -48.667 -13.667 -86.667 -41 -114s-65.666 -41 -114.999 -41h-229c-11.333 0 -17 5.66699 -17 17z" />
    <glyph glyph-name="c" unicode="c" horiz-adv-x="405" 
d="M373 68v-52c0 -10.667 -6 -16 -18 -16h-147c-49.333 0 -87.5 13.667 -114.5 41s-40.5 65.333 -40.5 114v200c0 49.333 13.5 87.5 40.5 114.5s65.167 40.5 114.5 40.5h147c12 0 18 -5.66699 18 -17v-52c0 -10.667 -6 -16 -18 -16h-133c-48 0 -72 -24.667 -72 -74v-192
c0 -49.333 24 -74 72 -74h133c12 0 18 -5.66699 18 -17z" />
    <glyph glyph-name="d" unicode="d" horiz-adv-x="518" 
d="M253 0h-51c-48 0 -84.833 13.5 -110.5 40.5s-38.5 65.167 -38.5 114.5v200c0 50 12.833 88.333 38.5 115s62.5 40 110.5 40h51c51.333 0 84.666 -17.667 99.999 -53h4v229c0 11.333 5.66699 17 17 17h64c11.333 0 17 -5.66699 17 -17v-669
c0 -11.333 -5.66699 -17 -17 -17h-64c-11.333 0 -17 5.66699 -17 17v36h-4c-15.333 -35.333 -48.666 -53 -99.999 -53zM357 170v170c0 56.667 -27.333 85 -82 85h-53c-48 0 -72 -24.667 -72 -74v-192c0 -49.333 24 -74 72 -74h53c54.667 0 82 28.333 82 85z" />
    <glyph glyph-name="e" unicode="e" horiz-adv-x="493" 
d="M424 0h-215.999c-49.333 0 -87.5 13.667 -114.5 41s-40.5 65.333 -40.5 114v200c0 49.333 13.5 87.5 40.5 114.5s65.167 40.5 114.5 40.5h82c49.333 0 87.666 -13.5 114.999 -40.5s41 -65.167 41 -114.5v-127c0 -12 -6 -18 -18 -18h-268c-7.33301 0 -11 -3.33301 -11 -10
v-43c0 -48.667 24.333 -73 73 -73h202c12 0 18 -6 18 -18v-50c0 -10.667 -6 -16 -18 -16zM160.001 278h178.998c6.66699 0 10 3.33301 10 10v64c0 25.333 -5.66699 43.833 -17 55.5s-29.666 17.5 -54.999 17.5h-55c-25.333 0 -43.666 -5.83301 -54.999 -17.5
s-17 -30.167 -17 -55.5v-64c0 -6.66699 3.33301 -10 10 -10z" />
    <glyph glyph-name="f" unicode="f" horiz-adv-x="335" 
d="M217 510h84c12 0 18 -5.33301 18 -16v-52c0 -11.333 -6 -17 -18 -17h-84c-6.66699 0 -10 -3.33301 -10 -10v-398c0 -11.333 -6 -17 -18 -17h-63c-11.333 0 -17 5.66699 -17 17v398c0 6.66699 -3.66699 10 -11 10h-53c-11.333 0 -17 5.66699 -17 17v52
c0 6 1.16699 10.167 3.5 12.5s6.83301 3.5 13.5 3.5h53c7.33301 0 11 3.33301 11 10v29c0 49.333 12.667 87.333 38 114s62.333 40 111 40h44c11.333 0 17 -5.33301 17 -16v-52c0 -11.333 -5.66699 -17 -17 -17h-30c-24 0 -40.833 -5.83301 -50.5 -17.5
s-14.5 -30.5 -14.5 -56.5v-24c0 -6.66699 3.33301 -10 10 -10z" />
    <glyph glyph-name="g" unicode="g" horiz-adv-x="514" 
d="M249 25h-44.998c-48 0 -84.833 13.5 -110.5 40.5s-38.5 65.167 -38.5 114.5v175c0 49.333 13.667 87.5 41 114.5s65.333 40.5 114 40.5h224c12 0 18 -5.66699 18 -17v-495c0 -48.667 -13.833 -86.5 -41.5 -113.5s-65.834 -40.5 -114.501 -40.5h-188
c-11.333 0 -17 5.33301 -17 16v52c0 11.333 5.66699 17 17 17h173c48.667 0 73 24.667 73 74v76h-4c-16.667 -36 -50.334 -54 -101.001 -54zM354.002 195v220c0 6.66699 -3.66699 10 -11 10h-119c-47.333 0 -71 -24.667 -71 -74v-166c0 -49.333 23.667 -74 71 -74h48
c54.667 0 82 28 82 84z" />
    <glyph glyph-name="h" unicode="h" horiz-adv-x="517" 
d="M143 0h-63c-11.333 0 -17 5.66699 -17 17v669c0 11.333 5.66699 17 17 17h63c11.333 0 17 -5.66699 17 -17v-229h4c16 35.333 49.667 53 101 53h44c48.667 0 86 -13.333 112 -40s39 -65 39 -115v-338c0 -11.333 -6 -17 -18 -17h-63c-11.333 0 -17 5.66699 -17 17v334
c0 49.333 -24.333 74 -73 74h-47c-54.667 0 -82 -28.333 -82 -85v-323c0 -11.333 -5.66699 -17 -17 -17z" />
    <glyph glyph-name="i" unicode="i" horiz-adv-x="233" 
d="M68 595v91c0 10.667 5.33301 16 16 16h65c10.667 0 16 -5.33301 16 -16v-91c0 -11.333 -5.33301 -17 -16 -17h-65c-10.667 0 -16 5.66699 -16 17zM68 17v476c0 11.333 5.33301 17 16 17h64c11.333 0 17 -5.66699 17 -17v-476c0 -6.66699 -1.16699 -11.167 -3.5 -13.5
s-6.5 -3.5 -12.5 -3.5h-64c-11.333 0 -17 5.66699 -17 17z" />
    <glyph glyph-name="j" unicode="j" horiz-adv-x="233" 
d="M68 595v91c0 10.667 5.33301 16 16 16h65c10.667 0 16 -5.33301 16 -16v-91c0 -11.333 -5.33301 -17 -16 -17h-65c-10.667 0 -16 5.66699 -16 17zM9 -156l-52.999 0.000976562c-11.333 0 -17 5.66699 -17 17v51c0 11.333 5.66699 17 17 17h26
c31.333 0 53.5 6.66699 66.5 20s19.5 35.666 19.5 66.999v477c0 11.333 5.66699 17 17 17h63c11.333 0 17 -5.66699 17 -17v-494c0 -48.667 -13.833 -86.667 -41.5 -114s-65.834 -41 -114.501 -41z" />
    <glyph glyph-name="k" unicode="k" horiz-adv-x="456" 
d="M353 510h71.998c6 0 10.167 -1.83301 12.5 -5.5s1.5 -8.5 -2.5 -14.5l-141 -224v-4l152 -242c3.33301 -5.33301 3.83301 -10 1.5 -14s-7.16602 -6 -14.499 -6h-65c-15.333 0 -26.666 5.66699 -33.999 17l-141 231c-4.66699 8.66699 -4.66699 17.667 0 27l131 219
c6 10.667 15.667 16 29 16zM142.998 0h-63c-11.333 0 -17 5.66699 -17 17v669c0 11.333 5.66699 17 17 17h63c11.333 0 17 -5.66699 17 -17v-669c0 -11.333 -5.66699 -17 -17 -17z" />
    <glyph glyph-name="l" unicode="l" horiz-adv-x="233" 
d="M148 0h-63c-11.333 0 -17 5.66699 -17 17v669c0 11.333 5.66699 17 17 17h63c11.333 0 17 -5.66699 17 -17v-669c0 -11.333 -5.66699 -17 -17 -17z" />
    <glyph glyph-name="m" unicode="m" horiz-adv-x="787" 
d="M143 0l-63 0.000976562c-11.333 0 -17 5.66699 -17 17v476c0 11.333 5.66699 17 17 17h63c11.333 0 17 -5.66699 17 -17v-36h4c19.333 35.333 54.666 53 105.999 53h33c58 0 99.333 -22 124 -66c10.667 21.333 27 37.666 49 48.999s45.667 17 71 17h32
c48.667 0 85.834 -13.5 111.501 -40.5s38.5 -65.167 38.5 -114.5v-338c0 -11.333 -5.66699 -17 -17 -17h-64c-11.333 0 -17 5.66699 -17 17v334c0 49.333 -24 74 -72 74h-29c-55.333 0 -83 -29 -83 -87v-321c0 -11.333 -6 -17 -18 -17h-63c-11.333 0 -17 5.66699 -17 17v334
c0 49.333 -24 74 -72 74h-35c-54.667 0 -82 -28.333 -82 -85v-323c0 -11.333 -5.66699 -17 -17 -17z" />
    <glyph glyph-name="n" unicode="n" horiz-adv-x="517" 
d="M143 0h-63c-11.333 0 -17 5.66699 -17 17v476c0 11.333 5.66699 17 17 17h63c11.333 0 17 -5.66699 17 -17v-36h4c16 35.333 49.667 53 101 53h44c48.667 0 86 -13.333 112 -40s39 -65 39 -115v-338c0 -11.333 -6 -17 -18 -17h-63c-11.333 0 -17 5.66699 -17 17v334
c0 49.333 -24.333 74 -73 74h-47c-54.667 0 -82 -28.333 -82 -85v-323c0 -11.333 -5.66699 -17 -17 -17z" />
    <glyph glyph-name="o" unicode="o" horiz-adv-x="504" 
d="M296 0h-88c-49.333 0 -87.5 13.667 -114.5 41s-40.5 65.333 -40.5 114v200c0 49.333 13.5 87.5 40.5 114.5s65.167 40.5 114.5 40.5h88c48.667 0 86.834 -13.5 114.501 -40.5s41.5 -65.167 41.5 -114.5v-200c0 -48.667 -13.833 -86.667 -41.5 -114
s-65.834 -41 -114.501 -41zM222 85h61c48 0 72 24.333 72 73v194c0 48.667 -24 73 -72 73h-61c-25.333 0 -43.666 -5.83301 -54.999 -17.5s-17 -30.167 -17 -55.5v-194c0 -25.333 5.66699 -43.833 17 -55.5s29.666 -17.5 54.999 -17.5z" />
    <glyph glyph-name="p" unicode="p" horiz-adv-x="518" 
d="M143 -141h-63c-11.333 0 -17 5.66699 -17 17v617c0 11.333 5.66699 17 17 17h63c11.333 0 17 -5.66699 17 -17v-36h4c16 35.333 49.667 53 101 53h51c48 0 84.833 -13.333 110.5 -40s38.5 -65 38.5 -115v-200c0 -49.333 -12.833 -87.5 -38.5 -114.5
s-62.5 -40.5 -110.5 -40.5h-51c-51.333 0 -85 17.667 -101 53h-4v-177c0 -11.333 -5.66699 -17 -17 -17zM242 85h53c48 0 72 24.667 72 74v192c0 49.333 -24 74 -72 74h-53c-54.667 0 -82 -28.333 -82 -85v-170c0 -56.667 27.333 -85 82 -85z" />
    <glyph glyph-name="q" unicode="q" horiz-adv-x="512" 
d="M352 172v243c0 6.66699 -3.66699 10 -11 10h-119c-48 0 -72 -24.667 -72 -74v-192c0 -49.333 24 -74 72 -74h46c56 0 84 29 84 87zM245 0h-37c-49.333 0 -87.5 13.667 -114.5 41s-40.5 65.333 -40.5 114v200c0 49.333 13.5 87.5 40.5 114.5s65.167 40.5 114.5 40.5h224
c12 0 18 -5.66699 18 -17v-617c0 -11.333 -6 -17 -18 -17h-63c-11.333 0 -17 5.66699 -17 17v179h-4c-18 -36.667 -52.333 -55 -103 -55z" />
    <glyph glyph-name="r" unicode="r" horiz-adv-x="335" 
d="M143 0h-63c-11.333 0 -17 5.66699 -17 17v476c0 11.333 5.66699 17 17 17h63c11.333 0 17 -5.66699 17 -17v-38h4c6.66699 16.667 19.5 30 38.5 40s40.167 15 63.5 15h37c11.333 0 17 -5.66699 17 -17v-52c0 -12.667 -5.66699 -18 -17 -16h-60
c-55.333 0 -83 -30.333 -83 -91v-317c0 -11.333 -5.66699 -17 -17 -17z" />
    <glyph glyph-name="s" unicode="s" horiz-adv-x="435" 
d="M245 0l-184 0.000976562c-11.333 0 -17 5.66699 -17 17v49c0 10.667 5.66699 16 17 16h168c43.333 0 65 15 65 45v12c0 26.667 -15.667 47 -47 61l-109 52c-34 16 -58.667 33.667 -74 53s-23 44.666 -23 75.999c0 86 47.667 129 143 129h166c10.667 0 16 -5.66699 16 -17
v-49c0 -11.333 -5.33301 -17 -16 -17h-146c-20 0 -35.333 -3.5 -46 -10.5s-16 -16.167 -16 -27.5v-11c0 -21.333 17 -40 51 -56l110 -56c34.667 -15.333 58.5 -33.5 71.5 -54.5s19.5 -48.167 19.5 -81.5c0 -86.667 -49.667 -130 -149 -130z" />
    <glyph glyph-name="t" unicode="t" horiz-adv-x="351" 
d="M78 425l-48 -0.000976562c-6.66699 0 -11.167 1.16699 -13.5 3.5s-3.5 6.5 -3.5 12.5v52c0 11.333 5.66699 17 17 17h48c6.66699 0 10 3.33301 10 10v90c0 11.333 6 17 18 17h63c11.333 0 17 -5.66699 17 -17v-90c0 -6.66699 3.66699 -10 11 -10h93
c12 0 18 -5.66699 18 -17v-52c0 -10.667 -6 -16 -18 -16h-93c-7.33301 0 -11 -3.33301 -11 -10v-257c0 -48.667 25 -73 75 -73h39c12 0 18 -5.66699 18 -17v-52c0 -10.667 -6 -16 -18 -16h-54c-49.333 0 -88 13.333 -116 40s-42 64.334 -42 113.001v262
c0 6.66699 -3.33301 10 -10 10z" />
    <glyph glyph-name="u" unicode="u" horiz-adv-x="517" 
d="M252 0h-45c-48 0 -84.833 13.5 -110.5 40.5s-38.5 65.167 -38.5 114.5v338c0 11.333 5.66699 17 17 17h63c11.333 0 17 -5.66699 17 -17v-334c0 -49.333 24 -74 72 -74h48c54.667 0 82 28.333 82 85v323c0 11.333 5.66699 17 17 17h63c12 0 18 -5.66699 18 -17v-476
c0 -11.333 -6 -17 -18 -17h-63c-11.333 0 -17 5.66699 -17 17v36h-4c-16 -35.333 -49.667 -53 -101 -53z" />
    <glyph glyph-name="v" unicode="v" horiz-adv-x="448" 
d="M31 510h67c10.667 0 17 -5.66699 19 -17l104 -402h7l102 402c2.66699 11.333 9.66699 17 21 17h66c12 0 16 -5.66699 12 -17l-135 -475c-2.66699 -12 -10 -18 -22 -18h-96c-12 0 -19.333 6 -22 18l-135 475c-2.66699 11.333 1.33301 17 12 17z" />
    <glyph glyph-name="w" unicode="w" horiz-adv-x="691" 
d="M242 0h-85.999c-10 0 -16.667 5.66699 -20 17l-115 476c-2.66699 11.333 1.33301 17 12 17h72c12 0 18.667 -5.66699 20 -17l73 -378h7l88 378c2 11.333 8.33301 17 19 17h66c11.333 0 18.333 -5.66699 21 -17l86 -378h7l73 378c2 11.333 8.66699 17 20 17h72
c11.333 0 15.333 -5.66699 12 -17l-115 -476c-2 -11.333 -8.66699 -17 -20 -17h-86c-10.667 0 -17.334 5.66699 -20.001 17l-80 371h-7l-79 -371c-2 -11.333 -8.66699 -17 -20 -17z" />
    <glyph glyph-name="x" unicode="x" horiz-adv-x="443" 
d="M111 0h-76c-14.667 0 -18.334 5.66699 -11.001 17l133 243l-130 233c-7.33301 11.333 -4.33301 17 9 17h77c12.667 0 21.334 -5.66699 26.001 -17l81 -172h4l76 172c4.66699 11.333 13 17 25 17h76c14 0 17.333 -5.66699 10 -17l-126 -232l136 -244
c6.66699 -11.333 3.66699 -17 -9 -17h-79c-11.333 0 -19.333 5.66699 -24 17l-85 177h-4l-84 -177c-4.66699 -11.333 -13 -17 -25 -17z" />
    <glyph glyph-name="y" unicode="y" horiz-adv-x="467" 
d="M123 -162h-53.002c-11.333 0 -17 5.66699 -17 17v51c0 12 5.66699 18 17 18h23c40.667 0 68.834 8 84.501 24s28.834 42.333 39.501 79h-40c-10 0 -17 5.66699 -21 17l-133 449c-2.66699 11.333 1.66602 17 12.999 17h67c10.667 0 17.334 -5.66699 20.001 -17l109 -392h4
l109 392c2 11.333 8.66699 17 20 17h64c12.667 0 18 -6 16 -18l-137 -481c-15.333 -56 -37 -98.833 -65 -128.5s-68 -44.5 -120 -44.5z" />
    <glyph glyph-name="z" unicode="z" horiz-adv-x="432" 
d="M32 17v26c0 16.667 4.66699 31 14 43l231 335v4h-219c-12 0 -18 6 -18 18v50c0 11.333 6 17 18 17h316c11.333 0 17 -5.66699 17 -17v-46c0 -16 -4 -28.667 -12 -38l-219 -320v-4h223c12 0 18 -6 18 -18v-50c0 -11.333 -6 -17 -18 -17h-333c-12 0 -18 5.66699 -18 17z
" />
    <glyph glyph-name="braceleft" unicode="{" horiz-adv-x="308" 
d="M231 643h6c11.333 0 17 -5.66699 17 -17v-37c0 -11.333 -5.66699 -17 -17 -17h-3c-22 0 -37.5 -5.83301 -46.5 -17.5s-13.5 -30.5 -13.5 -56.5v-130c0 -52.667 -19.667 -85.334 -59 -98.001c39.333 -11.333 59 -43.666 59 -96.999v-130c0 -26 4.5 -44.833 13.5 -56.5
s24.5 -17.5 46.5 -17.5h3c11.333 0 17 -5.66699 17 -17v-37c0 -11.333 -5.66699 -17 -17 -17h-6c-90.667 0 -136 51.667 -136 155v113c0 40.667 -16.333 61 -49 61c-12 0 -18 6 -18 18v51c0 11.333 6 17 18 17c32.667 0 49 20.667 49 62v113c0 103.333 45.333 155 136 155z
" />
    <glyph glyph-name="bar" unicode="|" horiz-adv-x="222" 
d="M146 626v-609c0 -11.333 -6 -17 -18 -17h-34c-11.333 0 -17 5.66699 -17 17v609c0 11.333 5.66699 17 17 17h34c12 0 18 -5.66699 18 -17z" />
    <glyph glyph-name="braceright" unicode="}" horiz-adv-x="308" 
d="M188 488v-112.999c0 -41.333 16.333 -62 49 -62c11.333 0 17 -5.66699 17 -17v-51c0 -12 -7 -18 -21 -18c-30 0 -45 -20.333 -45 -61v-113c0 -103.333 -45.333 -155 -136 -155h-6c-12 0 -18 5.66699 -18 17v37c0 11.333 6 17 18 17h3c22 0 37.333 5.83301 46 17.5
s13 30.5 13 56.5v130c0 53.333 19.667 85.666 59 96.999c-39.333 13.333 -59 46 -59 98v130c0 26 -4.33301 44.833 -13 56.5s-24 17.5 -46 17.5h-3c-12 0 -18 5.66699 -18 17v37c0 11.333 6 17 18 17h6c90.667 0 136 -51.667 136 -155z" />
    <glyph glyph-name="asciitilde" unicode="~" horiz-adv-x="549" 
d="M271 284.5c-45.333 10.333 -77.333 15.5 -96 15.5s-38.167 -4.5 -58.5 -13.5s-31.833 -13.5 -34.5 -13.5c-8 0 -12 4.33301 -12 13v43c0 13.333 8 23.666 24 30.999c26 10 51.5 15 76.5 15s59.333 -5.16699 103 -15.5s76 -15.5 97 -15.5s41.833 4.5 62.5 13.5
s32 13.5 34 13.5c8 0 12 -4 12 -12v-44c0 -13.333 -8 -23.666 -24 -30.999c-23.333 -10 -48.5 -15 -75.5 -15s-63.167 5.16699 -108.5 15.5z" />
    <glyph glyph-name="uni00A0" unicode="&#xa0;" horiz-adv-x="238" 
 />
    <glyph glyph-name="exclamdown" unicode="&#xa1;" horiz-adv-x="238" 
d="M153 488h-67c-10.667 0 -16 5.66699 -16 17v120c0 12 5.33301 18 16 18h67c10.667 0 16 -5.66699 16 -17v-122c0 -10.667 -5.33301 -16 -16 -16zM98 423h41c10 0 16 -6 18 -18c10 -100 15 -184.667 15 -254v-134c0 -11.333 -5.66699 -17 -17 -17h-73
c-11.333 0 -17 5.66699 -17 17v134c0 69.333 5 154 15 254c2 12 8 18 18 18z" />
    <glyph glyph-name="cent" unicode="&#xa2;" horiz-adv-x="424" 
d="M281 -93h-48c-11.333 0 -17 5.66699 -17 17v76h-17c-46 -0 -81.833 13.833 -107.5 41.5s-38.5 65.5 -38.5 113.5v200c0 48 12.833 85.833 38.5 113.5s61.5 41.5 107.5 41.5h17v82c0 11.333 5.66699 17 17 17h48c10.667 0 16 -5.33301 16 -16v-83h60
c6.66699 0 13.167 -1.5 19.5 -4.5s9.5 -7.16699 9.5 -12.5v-52c0 -10.667 -6 -16 -18 -16h-146c-48 0 -72 -24.667 -72 -74v-192c0 -49.333 24 -74 72 -74h146c12 0 18 -5.33301 18 -16v-52c0 -11.333 -6 -17 -18 -17h-71v-77c0 -10.667 -5.33301 -16 -16 -16z" />
    <glyph glyph-name="sterling" unicode="&#xa3;" horiz-adv-x="546" 
d="M154 81l309.998 0.000976562c11.333 0 17 -6 17 -18v-46c0 -11.333 -5.66699 -17 -17 -17h-418c-12 0 -18 5.66699 -18 17v46c0 12 6 18 18 18h8c12.667 0 23.167 6 31.5 18s12.5 28 12.5 48v111h-52c-12 0 -18 6 -18 18v46c0 11.333 6 17 18 17h52v151
c0 48.667 13.833 86.334 41.5 113.001s65.834 40 114.501 40h65c48.667 0 86.667 -13.333 114 -40s41 -64.334 41 -113.001v-26c0 -12 -5.66699 -18 -17 -18h-63c-12 0 -18 6 -18 18v24c0 25.333 -5.66699 43.666 -17 54.999s-29.666 17 -54.999 17h-36
c-49.333 0 -74 -24 -74 -72v-149h130c11.333 0 17 -5.66699 17 -17v-46c0 -12 -5.66699 -18 -17 -18h-130v-99c0 -22 -4.16699 -39.833 -12.5 -53.5s-17.5 -20.5 -27.5 -20.5v-4z" />
    <glyph glyph-name="yen" unicode="&#xa5;" horiz-adv-x="526" 
d="M295 0l-63.999 0.00195312c-11.333 0 -17 5.66699 -17 17v143h-153c-12.667 0 -19 6 -19 18v30c0 13.333 6.33301 20 19 20h150v17l-30 62h-120c-12.667 0 -19 6 -19 18v30c0 13.333 6.33301 20 19 20h88l-123 251c-4.66699 11.333 -1 17 11 17h81c5.33301 0 9 -1 11 -3
c1.33301 -2 45.333 -101.667 132 -299h4l125 285c2.66699 6.66699 5.16699 11.167 7.5 13.5s6.16602 3.5 11.499 3.5h80c12 0 15.667 -5.66699 11 -17l-122 -251h86c12.667 0 19 -6.66699 19 -20v-30c0 -6.66699 -1.33301 -11.334 -4 -14.001s-7.66699 -4 -15 -4h-119
l-30 -62v-17h149c12.667 0 19 -6.66699 19 -20v-30c0 -6.66699 -1.33301 -11.334 -4 -14.001s-7.66699 -4 -15 -4h-152v-143c0 -11.333 -5.66699 -17 -17 -17z" />
    <glyph glyph-name="brokenbar" unicode="&#xa6;" horiz-adv-x="219" 
d="M145 626v-236c0 -11.333 -6 -17 -18 -17h-35c-12 0 -18 5.66699 -18 17v236c0 11.333 6 17 18 17h35c12 0 18 -5.66699 18 -17zM145 253v-236c0 -11.333 -6 -17 -18 -17h-35c-12 0 -18 5.66699 -18 17v236c0 12 6 18 18 18h35c12 0 18 -6 18 -18z" />
    <glyph glyph-name="section" unicode="&#xa7;" horiz-adv-x="476" 
d="M325 302c0 30 -18.333 49.333 -55 58l-63 14c-23.333 6 -42 13 -56 21v-50c0 -33.333 18.667 -54 56 -62l61 -13c21.333 -4 40.333 -10.667 57 -20v52zM261 0l-170.001 0.00195312c-12 0 -18 5.66699 -18 17v52c0 10.667 6 16 18 16h163c24.667 0 41.5 4.66699 50.5 14
s13.5 22.166 13.5 38.499s-5 28.333 -15 36s-27.333 14.167 -52 19.5l-94 19c-64.667 14.667 -97 57 -97 127v173c0 40.667 12.333 72.667 37 96s62.334 35 113.001 35h164c10.667 0 16 -5.66699 16 -17v-52c0 -10.667 -5.33301 -16 -16 -16h-161c-36.667 0 -55 -17 -55 -51
c0 -14.667 4.66699 -26.334 14 -35.001s27 -15.667 53 -21l93 -19c65.333 -14.667 98 -56 98 -124v-172c0 -42.667 -12.667 -76 -38 -100s-64.333 -36 -117 -36z" />
    <glyph glyph-name="dieresis" unicode="&#xa8;" horiz-adv-x="389" 
d="M58 591v95c0 11.333 5.66699 17 17 17h59c10.667 0 16 -5.33301 16 -16v-96c0 -11.333 -5.33301 -17 -16 -17h-59c-11.333 0 -17 5.66699 -17 17zM238 591v95c0 11.333 5.33301 17 16 17h60c10.667 0 16 -5.33301 16 -16v-96c0 -11.333 -5.33301 -17 -16 -17h-60
c-10.667 0 -16 5.66699 -16 17z" />
    <glyph glyph-name="copyright" unicode="&#xa9;" horiz-adv-x="711" 
d="M492 403l0.00292969 -25c0 -8 -4 -12 -12 -12h-41c-8 0 -12 4 -12 12v15c0 25.333 -4.33301 41.833 -13 49.5s-26.334 11.5 -53.001 11.5h-10c-26.667 0 -44 -3.83301 -52 -11.5s-12 -24.167 -12 -49.5v-143c0 -26.667 4 -43.834 12 -51.501s25.333 -11.5 52 -11.5h10
c27.333 0 45.166 3.83301 53.499 11.5s12.5 24.834 12.5 51.501v16c0 8.66699 4 13 12 13h41c8 0 12 -4.33301 12 -13v-27c0 -72.667 -38 -109 -114 -109h-43c-36.667 0 -64.834 9.16699 -84.501 27.5s-29.5 45.5 -29.5 81.5v164c0 72.667 38 109 114 109h43
c76 0 114 -36.333 114 -109zM213.003 60h285c54 0 81 26.333 81 79v365c0 52.667 -27 79 -81 79h-285c-54 0 -81 -26.333 -81 -79v-365c0 -52.667 27 -79 81 -79zM195.003 643h321c40 0 71.5 -11.333 94.5 -34s34.5 -54 34.5 -94v-387c0 -40 -11.5 -71.333 -34.5 -94
s-54.5 -34 -94.5 -34h-321c-39.333 -0 -70.5 11.333 -93.5 34s-34.5 54 -34.5 94v387c0 40 11.5 71.333 34.5 94s54.167 34 93.5 34z" />
    <glyph glyph-name="guillemotleft" unicode="&#xab;" horiz-adv-x="445" 
d="M393 139v-44.001c0 -6 -1.83301 -10 -5.5 -12s-7.83398 -0.666992 -12.501 4l-144 122c-11.333 8.66699 -17 19 -17 31v33c0 12.667 5.66699 22.667 17 30l144 122c4.66699 4.66699 8.83398 6 12.501 4s5.5 -6 5.5 -12v-43c0 -9.33301 -5.33301 -17.666 -16 -24.999
l-109 -93l109 -92c10.667 -8 16 -16.333 16 -25zM231 138.999v-44c0 -6 -1.66699 -9.83301 -5 -11.5s-7.66602 -0.5 -12.999 3.5l-144 122c-10.667 8 -16 18.333 -16 31v33c0 12 5.33301 22 16 30l144 122c5.33301 4 9.66602 5.16699 12.999 3.5s5 -5.5 5 -11.5v-43
c0 -10 -5 -18.333 -15 -25l-109 -93l109 -92c10 -8 15 -16.333 15 -25z" />
    <glyph glyph-name="registered" unicode="&#xae;" horiz-adv-x="462" 
d="M244 610h-35v-55h35c9.33301 0 14 4.66699 14 14v28c0 8.66699 -4.66699 13 -14 13zM171 470l-0.00195312 159c0 6 1 10.167 3 12.5s6.33301 3.5 13 3.5h60c33.333 0 50 -15.333 50 -46v-33c0 -21.333 -7.33301 -35 -22 -41l23 -50
c6.66699 -13.333 3.33398 -20 -9.99902 -20h-10c-7.33301 0 -12.666 3.66699 -15.999 11l-26 57h-27v-53c0 -6 -1 -10 -3 -12s-6 -3 -12 -3h-7c-6.66699 0 -11 1 -13 3s-3 6 -3 12zM172.998 421h115c44 0 66 22 66 66v125c0 44 -22 66 -66 66h-115
c-43.333 0 -65 -22 -65 -66v-125c0 -44 21.667 -66 65 -66zM296.998 380h-132c-30.667 0 -55.167 8.83301 -73.5 26.5s-27.5 41.5 -27.5 71.5v143c0 30 9 53.667 27 71s42.667 26 74 26h132c30.667 0 55 -8.66699 73 -26s27 -41 27 -71v-143c0 -30 -9 -53.833 -27 -71.5
s-42.333 -26.5 -73 -26.5z" />
    <glyph glyph-name="macron" unicode="&#xaf;" horiz-adv-x="350" 
d="M275 605h-199c-12 0 -18 5.66699 -18 17v34c0 11.333 6 17 18 17h199c11.333 0 17 -5.66699 17 -17v-34c0 -11.333 -5.66699 -17 -17 -17z" />
    <glyph glyph-name="degree" unicode="&#xb0;" horiz-adv-x="348" 
d="M201 510h-55c-32.667 0 -49 16.333 -49 49v97c0 31.333 16.333 47 49 47h55c15.333 0 27.5 -4.16699 36.5 -12.5s13.5 -19.833 13.5 -34.5v-97c0 -15.333 -4.5 -27.333 -13.5 -36s-21.167 -13 -36.5 -13zM180 551c10.667 0 17.667 1.66699 21 5s5 10 5 20v61
c0 10.667 -1.66699 17.667 -5 21s-10.333 5 -21 5h-13c-10.667 0 -17.667 -1.66699 -21 -5s-5 -10.333 -5 -21v-61c0 -10 1.66699 -16.667 5 -20s10.333 -5 21 -5h13z" />
    <glyph glyph-name="plusminus" unicode="&#xb1;" horiz-adv-x="549" 
d="M317 423h143c12.667 0 19 -6.33301 19 -19v-41c0 -12.667 -6.33301 -19 -19 -19h-143v-85c0 -12.667 -6.66699 -19 -20 -19h-45c-12.667 0 -19 6.33301 -19 19v85h-144c-12.667 0 -19 6.33301 -19 19v41c0 12.667 6.33301 19 19 19h144v83c0 13.333 6.33301 20 19 20h45
c13.333 0 20 -6.66699 20 -20v-83zM89 195h371c12.667 0 19 -6 19 -18v-42c0 -12.667 -6.33301 -19 -19 -19h-371c-12.667 0 -19 6.33301 -19 19v42c0 12 6.33301 18 19 18z" />
    <glyph glyph-name="acute" unicode="&#xb4;" horiz-adv-x="287" 
d="M139 703h78.001c6 0 9.83301 -1.5 11.5 -4.5s0.5 -7.16699 -3.5 -12.5l-85 -100c-6 -8 -13.667 -12 -23 -12h-47c-10.667 0 -13.334 5.66699 -8.00098 17l51 96c5.33301 10.667 14 16 26 16z" />
    <glyph glyph-name="paragraph" unicode="&#xb6;" horiz-adv-x="533" 
d="M238 0l-47 -0.000976562c-11.333 0 -17 5.66699 -17 17v303c-36 0 -65.667 10.167 -89 30.5s-35 50.833 -35 91.5v78c0 42.667 13 73.834 39 93.501s59.333 29.5 100 29.5h248c12 0 18 -5.33301 18 -16v-610c0 -11.333 -5.66699 -17 -17 -17h-47
c-11.333 0 -17 5.66699 -17 17v541c0 6.66699 -3.66699 10 -11 10h-97c-7.33301 0 -11 -3.33301 -11 -10v-541c0 -11.333 -5.66699 -17 -17 -17z" />
    <glyph glyph-name="periodcentered" unicode="&#xb7;" horiz-adv-x="207" 
d="M154 379v-121c0 -12 -5.33301 -18 -16 -18h-69c-10.667 0 -16 6 -16 18v121c0 10.667 5.33301 16 16 16h69c10.667 0 16 -5.33301 16 -16z" />
    <glyph glyph-name="cedilla" unicode="&#xb8;" horiz-adv-x="262" 
d="M128 -42c50.667 0 75.999 -23.334 75.999 -70.001v-15c0 -44 -30 -66 -90 -66h-37c-6.66699 0 -10.834 1 -12.501 3s-2.5 6 -2.5 12v17c0 6 0.833008 10 2.5 12s5.83398 3 12.501 3h28c18.667 0 31.334 2 38.001 6s10 11 10 21v2c0 10.667 -3.33301 17.834 -10 21.501
s-19.334 5.5 -38.001 5.5h-20c-12 0 -20.167 5.83301 -24.5 17.5s-2.16602 22.167 6.50098 31.5l53 61h65l-57 -58v-4z" />
    <glyph glyph-name="guillemotright" unicode="&#xbb;" horiz-adv-x="445" 
d="M214 374v43c0 6 1.66699 9.83301 5 11.5s7.33301 0.5 12 -3.5l145 -122c11.333 -8 17 -18 17 -30v-33c0 -12 -5.66699 -22.333 -17 -31l-145 -122c-4.66699 -4 -8.66699 -5.16699 -12 -3.5s-5 5.5 -5 11.5v44c0 8.66699 5 17 15 25l109 92l-109 93
c-10 6.66699 -15 15 -15 25zM53 374v43c0 6 1.5 9.83301 4.5 11.5s7.16699 0.5 12.5 -3.5l145 -122c10.667 -8 16 -18 16 -30v-33c0 -12.667 -5.33301 -23 -16 -31l-145 -122c-5.33301 -4 -9.5 -5.16699 -12.5 -3.5s-4.5 5.5 -4.5 11.5v44c0 8.66699 4.66699 17 14 25
l110 92l-110 93c-9.33301 6.66699 -14 15 -14 25z" />
    <glyph glyph-name="questiondown" unicode="&#xbf;" horiz-adv-x="469" 
d="M187 503v122c0 11.333 5.33301 17 16 17h69c10 0 15 -6 15 -18v-120c0 -11.333 -5 -17 -15 -17h-69c-10.667 0 -16 5.33301 -16 16zM188 374l-0.000976562 30.001c0 12 5.66699 18 17 18h59c11.333 0 17 -6 17 -18v-29c0 -24 -3.66699 -43.167 -11 -57.5
s-20.666 -29.5 -39.999 -45.5l-49 -41c-23.333 -18.667 -35 -39.334 -35 -62.001v-14c0 -48 24.667 -72 74 -72h27c48.667 0 73 24 73 72v29c0 12 5.66699 18 17 18h63c11.333 0 17 -6 17 -18v-31c0 -48.667 -13.667 -86.334 -41 -113.001s-65.333 -40 -114 -40h-56
c-48.667 0 -86.667 13.333 -114 40s-41 64.334 -41 113.001v21c0 33.333 15.333 63.333 46 90l59 48c13.333 12 22 22.167 26 30.5s6 18.833 6 31.5z" />
    <glyph glyph-name="Agrave" unicode="&#xc0;" horiz-adv-x="547" 
d="M295 707h-47.999c-9.33301 0 -17 4 -23 12l-84 100c-4 4.66699 -5.16699 8.66699 -3.5 12s5.5 5 11.5 5h78c11.333 0 19.666 -5.33301 24.999 -16l52 -96c6 -11.333 3.33301 -17 -8 -17zM108.001 0h-72.002c-9.33301 0 -12.666 5.66699 -9.99902 17l174 609
c3.33301 11.333 11.333 17 24 17h100c13.333 0 21.333 -5.66699 24 -17l174 -609c2.66699 -11.333 -1 -17 -11 -17h-71c-6 0 -10.167 1.16699 -12.5 3.5s-4.16602 6.83301 -5.49902 13.5l-38 130h-220l-38 -130c-2.66699 -11.333 -8.66699 -17 -18 -17zM271.999 547
l-88 -320h181l-89 320h-4z" />
    <glyph glyph-name="Aacute" unicode="&#xc1;" horiz-adv-x="547" 
d="M318 836h78c6 0 9.83301 -1.66699 11.5 -5s0.833984 -7.33301 -2.49902 -12l-85 -100c-6 -8 -13.333 -12 -22 -12h-49c-10 0 -12.667 5.66699 -8 17l52 96c5.33301 10.667 13.666 16 24.999 16zM108 0h-72.002c-9.33301 0 -12.666 5.66699 -9.99902 17l174 609
c3.33301 11.333 11.333 17 24 17h100c13.333 0 21.333 -5.66699 24 -17l174 -609c2.66699 -11.333 -1 -17 -11 -17h-71c-6 0 -10.167 1.16699 -12.5 3.5s-4.16602 6.83301 -5.49902 13.5l-38 130h-220l-38 -130c-2.66699 -11.333 -8.66699 -17 -18 -17zM271.998 547
l-88 -320h181l-89 320h-4z" />
    <glyph glyph-name="Acircumflex" unicode="&#xc2;" horiz-adv-x="547" 
d="M376 707h-46.001c-7.33301 0 -12.666 3.33301 -15.999 10l-40 78l-41 -78c-2 -6.66699 -7 -10 -15 -10h-45c-10 0 -12.333 4 -7 12l63 107c4.66699 6.66699 11.667 10 21 10h48c9.33301 0 16.333 -3.33301 21 -10l64 -107c5.33301 -8 3 -12 -7 -12zM107.999 0h-72.002
c-9.33301 0 -12.666 5.66699 -9.99902 17l174 609c3.33301 11.333 11.333 17 24 17h100c13.333 0 21.333 -5.66699 24 -17l174 -609c2.66699 -11.333 -1 -17 -11 -17h-71c-6 0 -10.167 1.16699 -12.5 3.5s-4.16602 6.83301 -5.49902 13.5l-38 130h-220l-38 -130
c-2.66699 -11.333 -8.66699 -17 -18 -17zM271.997 547l-88 -320h181l-89 320h-4z" />
    <glyph glyph-name="Atilde" unicode="&#xc3;" horiz-adv-x="547" 
d="M227 702c-45.333 0 -67.999 25.666 -67.999 76.999v39c0 6.66699 3.33301 10 10 10h30c6.66699 0 10 -3.33301 10 -10v-20c0 -16.667 1.5 -28 4.5 -34s7.66699 -9 14 -9s11.5 2.33301 15.5 7s10.667 15.334 20 32.001c14.667 25.333 34.334 38 59.001 38
c44.667 0 67 -25.667 67 -77v-38c0 -8 -3 -12 -9 -12h-30c-6.66699 0 -10 4 -10 12v19c0 17.333 -1.33301 28.833 -4 34.5s-7.5 8.5 -14.5 8.5s-12 -1.66699 -15 -5s-6.33301 -8 -10 -14s-5.83398 -9.5 -6.50098 -10.5s-3.33398 -6.16699 -8.00098 -15.5
c-12 -21.333 -30.333 -32 -55 -32zM108.001 -0.000976562h-72.002c-9.33301 0 -12.666 5.66699 -9.99902 17l174 609c3.33301 11.333 11.333 17 24 17h100c13.333 0 21.333 -5.66699 24 -17l174 -609c2.66699 -11.333 -1 -17 -11 -17h-71c-6 0 -10.167 1.16699 -12.5 3.5
s-4.16602 6.83301 -5.49902 13.5l-38 130h-220l-38 -130c-2.66699 -11.333 -8.66699 -17 -18 -17zM271.999 546.999l-88 -320h181l-89 320h-4z" />
    <glyph glyph-name="Adieresis" unicode="&#xc4;" horiz-adv-x="547" 
d="M138 724v95c0 11.333 5.33301 17 16 17h60c10 0 15 -5.33301 15 -16v-96c0 -11.333 -5 -17 -15 -17h-60c-10.667 0 -16 5.66699 -16 17zM318 724v95c0 11.333 5 17 15 17h61c10 0 15 -5.33301 15 -16v-96c0 -11.333 -5 -17 -15 -17h-61c-10 0 -15 5.66699 -15 17zM108 0
h-72.002c-9.33301 0 -12.666 5.66699 -9.99902 17l174 609c3.33301 11.333 11.333 17 24 17h100c13.333 0 21.333 -5.66699 24 -17l174 -609c2.66699 -11.333 -1 -17 -11 -17h-71c-6 0 -10.167 1.16699 -12.5 3.5s-4.16602 6.83301 -5.49902 13.5l-38 130h-220l-38 -130
c-2.66699 -11.333 -8.66699 -17 -18 -17zM271.998 547l-88 -320h181l-89 320h-4z" />
    <glyph glyph-name="Aring" unicode="&#xc5;" horiz-adv-x="547" 
d="M294 700l-43 0.000976562c-40 0 -60 20.667 -60 62v51c0 40 20 60 60 60h43c19.333 0 34.5 -5.33301 45.5 -16s16.5 -25.334 16.5 -44.001v-51c0 -20 -5.5 -35.333 -16.5 -46s-26.167 -16 -45.5 -16zM265 740.001h14c12 0 20.333 2.66699 25 8s7 14 7 26v24
c0 12.667 -2.33301 21.667 -7 27s-12.667 8 -24 8h-14c-22 0 -33 -11.667 -33 -35v-24c0 -22.667 10.667 -34 32 -34zM108 0.000976562h-72.002c-9.33301 0 -12.666 5.66699 -9.99902 17l174 609c3.33301 11.333 11.333 17 24 17h100c13.333 0 21.333 -5.66699 24 -17
l174 -609c2.66699 -11.333 -1 -17 -11 -17h-71c-6 0 -10.167 1.16699 -12.5 3.5s-4.16602 6.83301 -5.49902 13.5l-38 130h-220l-38 -130c-2.66699 -11.333 -8.66699 -17 -18 -17zM271.998 547.001l-88 -320h181l-89 320h-4z" />
    <glyph glyph-name="AE" unicode="&#xc6;" horiz-adv-x="778" 
d="M86 0h-69.999c-12.667 0 -16.334 6 -11.001 18l301 608c5.33301 11.333 14.333 17 27 17h376c11.333 0 17 -5.66699 17 -17v-51c0 -11.333 -5.66699 -17 -17 -17h-228c-7.33301 0 -11 -3.33301 -11 -10v-169c0 -6.66699 3.66699 -10 11 -10h193c12 0 18 -5.66699 18 -17
v-51c0 -11.333 -6 -17 -18 -17h-193c-7.33301 0 -11 -3.33301 -11 -10v-178c0 -7.33301 3.66699 -11 11 -11h228c11.333 0 17 -5.66699 17 -17v-51c0 -11.333 -5.66699 -17 -17 -17h-320c-11.333 0 -17 5.66699 -17 17v130h-198l-66 -130c-4.66699 -11.333 -12 -17 -22 -17z
M372.001 234v314h-4l-156 -314h160z" />
    <glyph glyph-name="Ccedilla" unicode="&#xc7;" horiz-adv-x="540" 
d="M471 422h-63c-11.333 0 -17 6 -17 18v44c0 49.333 -24 74 -72 74h-87c-48 0 -72 -24.667 -72 -74v-325c0 -49.333 24 -74 72 -74h87c48 0 72 24.667 72 74v44c0 12 5.66699 18 17 18h63c12 0 18 -6 18 -18v-48c0 -48.667 -13.667 -86.667 -41 -114s-65.333 -41 -114 -41
h-9l-42 -44v-4c50.667 0 76 -23 76 -69v-16c0 -44.667 -30 -67 -90 -67h-38c-10 0 -15 5.33301 -15 16v16c0 6.66699 1 11.167 3 13.5s6 3.5 12 3.5h29c18.667 0 31.334 1.83301 38.001 5.5s10 10.167 10 19.5v3c0 10.667 -3.33301 18 -10 22s-19.334 6 -38.001 6h-21
c-12 0 -20 5.66699 -24 17s-1.66699 22 7 32l40 46h-44c-49.333 0 -87.5 13.667 -114.5 41s-40.5 65.333 -40.5 114v333c0 49.333 13.5 87.5 40.5 114.5s65.167 40.5 114.5 40.5h116c48.667 0 86.667 -13.5 114 -40.5s41 -65.167 41 -114.5v-48c0 -12 -6 -18 -18 -18z" />
    <glyph glyph-name="Egrave" unicode="&#xc8;" horiz-adv-x="480" 
d="M276 707h-48c-9.33301 0 -17 4 -23 12l-84 100c-3.33301 4.66699 -4.16602 8.66699 -2.49902 12s5.16699 5 10.5 5h78c12 0 20.333 -5.33301 25 -16l52 -96c5.33301 -11.333 2.66602 -17 -8.00098 -17zM410 0h-320c-11.333 0 -17 5.66699 -17 17v609
c0 11.333 5.66699 17 17 17h320c10.667 0 16 -5.66699 16 -17v-51c0 -11.333 -5.33301 -17 -16 -17h-228c-8 0 -12 -3.33301 -12 -10v-169c0 -6.66699 4 -10 12 -10h193c12 0 18 -5.66699 18 -17v-51c0 -11.333 -6 -17 -18 -17h-193c-8 0 -12 -3.33301 -12 -10v-178
c0 -7.33301 4 -11 12 -11h228c10.667 0 16 -5.66699 16 -17v-51c0 -11.333 -5.33301 -17 -16 -17z" />
    <glyph glyph-name="Eacute" unicode="&#xc9;" horiz-adv-x="480" 
d="M283 836h79c5.33301 0 8.83301 -1.66699 10.5 -5s0.833984 -7.33301 -2.49902 -12l-84 -100c-6.66699 -8 -14.667 -12 -24 -12h-47c-11.333 0 -14 5.66699 -8 17l51 96c5.33301 10.667 13.666 16 24.999 16zM410 0h-320c-11.333 0 -17 5.66699 -17 17v609
c0 11.333 5.66699 17 17 17h320c10.667 0 16 -5.66699 16 -17v-51c0 -11.333 -5.33301 -17 -16 -17h-228c-8 0 -12 -3.33301 -12 -10v-169c0 -6.66699 4 -10 12 -10h193c12 0 18 -5.66699 18 -17v-51c0 -11.333 -6 -17 -18 -17h-193c-8 0 -12 -3.33301 -12 -10v-178
c0 -7.33301 4 -11 12 -11h228c10.667 0 16 -5.66699 16 -17v-51c0 -11.333 -5.33301 -17 -16 -17z" />
    <glyph glyph-name="Ecircumflex" unicode="&#xca;" horiz-adv-x="480" 
d="M351 707l-46.001 0.000976562c-8 0 -13.333 3.33301 -16 10l-40 78l-40 -78c-3.33301 -6.66699 -8.66602 -10 -15.999 -10h-46c-4 0 -6.66699 1.16699 -8 3.5s-1 5.16602 1 8.49902l64 107c4.66699 6.66699 11.667 10 21 10h48c9.33301 0 16.333 -3.33301 21 -10l63 -107
c5.33301 -8 3.33301 -12 -6 -12zM409.999 0.000976562h-320c-11.333 0 -17 5.66699 -17 17v609c0 11.333 5.66699 17 17 17h320c10.667 0 16 -5.66699 16 -17v-51c0 -11.333 -5.33301 -17 -16 -17h-228c-8 0 -12 -3.33301 -12 -10v-169c0 -6.66699 4 -10 12 -10h193
c12 0 18 -5.66699 18 -17v-51c0 -11.333 -6 -17 -18 -17h-193c-8 0 -12 -3.33301 -12 -10v-178c0 -7.33301 4 -11 12 -11h228c10.667 0 16 -5.66699 16 -17v-51c0 -11.333 -5.33301 -17 -16 -17z" />
    <glyph glyph-name="Edieresis" unicode="&#xcb;" horiz-adv-x="480" 
d="M114 724v95c0 11.333 5 17 15 17h61c10.667 0 16 -5.33301 16 -16v-96c0 -11.333 -5.33301 -17 -16 -17h-61c-10 0 -15 5.66699 -15 17zM293 724v95c0 11.333 5.33301 17 16 17h60c11.333 0 17 -5.33301 17 -16v-96c0 -11.333 -5.66699 -17 -17 -17h-60
c-10.667 0 -16 5.66699 -16 17zM410 0h-320c-11.333 0 -17 5.66699 -17 17v609c0 11.333 5.66699 17 17 17h320c10.667 0 16 -5.66699 16 -17v-51c0 -11.333 -5.33301 -17 -16 -17h-228c-8 0 -12 -3.33301 -12 -10v-169c0 -6.66699 4 -10 12 -10h193
c12 0 18 -5.66699 18 -17v-51c0 -11.333 -6 -17 -18 -17h-193c-8 0 -12 -3.33301 -12 -10v-178c0 -7.33301 4 -11 12 -11h228c10.667 0 16 -5.66699 16 -17v-51c0 -11.333 -5.33301 -17 -16 -17z" />
    <glyph glyph-name="Igrave" unicode="&#xcc;" horiz-adv-x="253" 
d="M151 707h-48.001c-9.33301 0 -17 4 -23 12l-84 100c-3.33301 4.66699 -4.16602 8.66699 -2.49902 12s5.16699 5 10.5 5h78c12 0 20.333 -5.33301 25 -16l52 -96c6 -11.333 3.33301 -17 -8 -17zM174.999 626v-609c0 -11.333 -5.66699 -17 -17 -17h-63
c-11.333 0 -17 5.66699 -17 17v609c0 11.333 5.66699 17 17 17h63c11.333 0 17 -5.66699 17 -17z" />
    <glyph glyph-name="Iacute" unicode="&#xcd;" horiz-adv-x="253" 
d="M171 836h78.001c6 0 9.83301 -1.66699 11.5 -5s0.5 -7.33301 -3.5 -12l-84 -100c-6 -8 -13.667 -12 -23 -12h-48c-10.667 0 -13.334 5.66699 -8.00098 17l51 96c6 10.667 14.667 16 26 16zM175.001 626v-609c0 -11.333 -5.66699 -17 -17 -17h-63
c-11.333 0 -17 5.66699 -17 17v609c0 11.333 5.66699 17 17 17h63c11.333 0 17 -5.66699 17 -17z" />
    <glyph glyph-name="Icircumflex" unicode="&#xce;" horiz-adv-x="252" 
d="M228 707h-47c-6.66699 0 -11.667 3.33301 -15 10l-41 78l-40 -78c-2.66699 -6.66699 -8 -10 -16 -10h-44c-10 0 -12.667 4 -8 12l63 107c4.66699 6.66699 12 10 22 10h48c9.33301 0 16.333 -3.33301 21 -10l63 -107c5.33301 -8 3.33301 -12 -6 -12zM175 626v-609
c0 -11.333 -5.66699 -17 -17 -17h-63c-11.333 0 -17 5.66699 -17 17v609c0 11.333 5.66699 17 17 17h63c11.333 0 17 -5.66699 17 -17z" />
    <glyph glyph-name="Idieresis" unicode="&#xcf;" horiz-adv-x="252" 
d="M-10 724v95c0 11.333 5.33301 17 16 17h60c11.333 0 17 -5.33301 17 -16v-96c0 -11.333 -5.66699 -17 -17 -17h-60c-10.667 0 -16 5.66699 -16 17zM170 724v95c0 11.333 5.33301 17 16 17h60c11.333 0 17 -5.33301 17 -16v-96c0 -11.333 -5.66699 -17 -17 -17h-60
c-10.667 0 -16 5.66699 -16 17zM175 626v-609c0 -11.333 -5.66699 -17 -17 -17h-63c-11.333 0 -17 5.66699 -17 17v609c0 11.333 5.66699 17 17 17h63c11.333 0 17 -5.66699 17 -17z" />
    <glyph glyph-name="Eth" unicode="&#xd0;" horiz-adv-x="546" 
d="M191 85h140c48.667 0 73 24.667 73 74v325c0 49.333 -24.333 74 -73 74h-140c-7.33301 0 -11 -3.33301 -11 -10v-178c0 -6.66699 3.66699 -10 11 -10h103c11.333 0 17 -5.66699 17 -17v-40c0 -11.333 -5.66699 -17 -17 -17h-103c-7.33301 0 -11 -3.33301 -11 -10v-180
c0 -7.33301 3.66699 -11 11 -11zM346 0h-247c-11.333 0 -17 5.66699 -17 17v259c0 6.66699 -3.33301 10 -10 10h-32c-11.333 0 -17 5.66699 -17 17v40c0 11.333 5.66699 17 17 17h32c6.66699 0 10 3.33301 10 10v256c0 11.333 5.66699 17 17 17h247
c49.333 0 87.666 -13.5 114.999 -40.5s41 -65.167 41 -114.5v-333c0 -48.667 -13.667 -86.667 -41 -114s-65.666 -41 -114.999 -41z" />
    <glyph glyph-name="Ntilde" unicode="&#xd1;" horiz-adv-x="583" 
d="M244 702c-44 0 -65.999 25.666 -65.999 76.999v39c0 6.66699 3 10 9 10h29c7.33301 0 11 -3.33301 11 -10v-20c0 -17.333 1.33301 -28.833 4 -34.5s7.33398 -8.5 14.001 -8.5s12 2.33301 16 7s10.5 14.834 19.5 30.501s17.833 26.167 26.5 31.5s19.667 8 33 8
c44.667 0 67 -25.667 67 -77v-38c0 -8 -3.33301 -12 -10 -12h-29c-6.66699 0 -10 4 -10 12v19c0 17.333 -1.5 28.833 -4.5 34.5s-7.83301 8.5 -14.5 8.5s-11.5 -1.66699 -14.5 -5s-6.33301 -8 -10 -14s-5.83398 -9.5 -6.50098 -10.5s-1.33398 -2.16699 -2.00098 -3.5
c-8.66699 -17.333 -17.667 -29 -27 -35s-21 -9 -35 -9zM152.001 -0.000976562h-61.999c-11.333 0 -17 5.66699 -17 17v609c0 11.333 5.66699 17 17 17h56c10.667 0 18 -3.66699 22 -11l242 -435h4v429c0 11.333 5.66699 17 17 17h62c11.333 0 17 -5.66699 17 -17v-609
c0 -11.333 -5.66699 -17 -17 -17h-54c-10.667 0 -19.334 5.33301 -26.001 16l-240 430h-4v-429c0 -11.333 -5.66699 -17 -17 -17z" />
    <glyph glyph-name="Ograve" unicode="&#xd2;" horiz-adv-x="552" 
d="M301 707h-48.001c-9.33301 0 -17 4 -23 12l-84 100c-3.33301 4.66699 -4.16602 8.66699 -2.49902 12s5.16699 5 10.5 5h78c12 0 20.333 -5.33301 25 -16l52 -96c6 -11.333 3.33301 -17 -8 -17zM231.999 85h87c48.667 0 73 24.667 73 74v325c0 49.333 -24.333 74 -73 74
h-87c-48 0 -72 -24.667 -72 -74v-325c0 -49.333 24 -74 72 -74zM333.999 0h-116c-49.333 0 -87.5 13.667 -114.5 41s-40.5 65.333 -40.5 114v333c0 49.333 13.5 87.5 40.5 114.5s65.167 40.5 114.5 40.5h116c49.333 0 87.666 -13.5 114.999 -40.5s41 -65.167 41 -114.5v-333
c0 -48.667 -13.667 -86.667 -41 -114s-65.666 -41 -114.999 -41z" />
    <glyph glyph-name="Oacute" unicode="&#xd3;" horiz-adv-x="552" 
d="M312 836h77.999c5.33301 0 8.83301 -1.66699 10.5 -5s0.833984 -7.33301 -2.49902 -12l-84 -100c-6 -8 -13.667 -12 -23 -12h-48c-11.333 0 -14 5.66699 -8 17l52 96c4.66699 10.667 13 16 25 16zM231.999 85h87c48.667 0 73 24.667 73 74v325
c0 49.333 -24.333 74 -73 74h-87c-48 0 -72 -24.667 -72 -74v-325c0 -49.333 24 -74 72 -74zM333.999 0h-116c-49.333 0 -87.5 13.667 -114.5 41s-40.5 65.333 -40.5 114v333c0 49.333 13.5 87.5 40.5 114.5s65.167 40.5 114.5 40.5h116
c49.333 0 87.666 -13.5 114.999 -40.5s41 -65.167 41 -114.5v-333c0 -48.667 -13.667 -86.667 -41 -114s-65.666 -41 -114.999 -41z" />
    <glyph glyph-name="Ocircumflex" unicode="&#xd4;" horiz-adv-x="552" 
d="M380 707h-46c-7.33301 0 -12.333 3.33301 -15 10l-41 78l-40 -78c-2.66699 -6.66699 -8 -10 -16 -10h-45c-10 0 -12.333 4 -7 12l63 107c4.66699 6.66699 11.667 10 21 10h49c9.33301 0 16.333 -3.33301 21 -10l62 -107c5.33301 -8 3.33301 -12 -6 -12zM232 85h87
c48.667 0 73 24.667 73 74v325c0 49.333 -24.333 74 -73 74h-87c-48 0 -72 -24.667 -72 -74v-325c0 -49.333 24 -74 72 -74zM334 0h-116c-49.333 0 -87.5 13.667 -114.5 41s-40.5 65.333 -40.5 114v333c0 49.333 13.5 87.5 40.5 114.5s65.167 40.5 114.5 40.5h116
c49.333 0 87.666 -13.5 114.999 -40.5s41 -65.167 41 -114.5v-333c0 -48.667 -13.667 -86.667 -41 -114s-65.666 -41 -114.999 -41z" />
    <glyph glyph-name="Otilde" unicode="&#xd5;" horiz-adv-x="552" 
d="M228 702c-44.667 0 -67.001 25.665 -67.001 76.998v39c0 6.66699 3.33301 10 10 10h30c6.66699 0 10 -3.33301 10 -10v-20c0 -17.333 1.33301 -28.833 4 -34.5s7.33398 -8.5 14.001 -8.5s12 2.33301 16 7s10.5 14.834 19.5 30.501s17.833 26.167 26.5 31.5s19.667 8 33 8
c44.667 0 67 -25.667 67 -77v-38c0 -8 -3 -12 -9 -12h-30c-6.66699 0 -10 4 -10 12v19c0 17.333 -1.33301 28.833 -4 34.5s-7.5 8.5 -14.5 8.5s-12 -1.66699 -15 -5s-9.16699 -12.666 -18.5 -27.999c-8.66699 -17.333 -17.667 -29 -27 -35s-21 -9 -35 -9zM231.999 84.998h87
c48.667 0 73 24.667 73 74v325c0 49.333 -24.333 74 -73 74h-87c-48 0 -72 -24.667 -72 -74v-325c0 -49.333 24 -74 72 -74zM333.999 -0.00195312h-116c-49.333 0 -87.5 13.667 -114.5 41s-40.5 65.333 -40.5 114v333c0 49.333 13.5 87.5 40.5 114.5s65.167 40.5 114.5 40.5
h116c49.333 0 87.666 -13.5 114.999 -40.5s41 -65.167 41 -114.5v-333c0 -48.667 -13.667 -86.667 -41 -114s-65.666 -41 -114.999 -41z" />
    <glyph glyph-name="Odieresis" unicode="&#xd6;" horiz-adv-x="552" 
d="M140 724v95c0 11.333 5.33301 17 16 17h60c10.667 0 16 -5.33301 16 -16v-96c0 -11.333 -5.33301 -17 -16 -17h-60c-10.667 0 -16 5.66699 -16 17zM320 724v95c0 11.333 5.33301 17 16 17h60c10.667 0 16 -5.33301 16 -16v-96c0 -11.333 -5.33301 -17 -16 -17h-60
c-10.667 0 -16 5.66699 -16 17zM232 85h87c48.667 0 73 24.667 73 74v325c0 49.333 -24.333 74 -73 74h-87c-48 0 -72 -24.667 -72 -74v-325c0 -49.333 24 -74 72 -74zM334 0h-116c-49.333 0 -87.5 13.667 -114.5 41s-40.5 65.333 -40.5 114v333
c0 49.333 13.5 87.5 40.5 114.5s65.167 40.5 114.5 40.5h116c49.333 0 87.666 -13.5 114.999 -40.5s41 -65.167 41 -114.5v-333c0 -48.667 -13.667 -86.667 -41 -114s-65.666 -41 -114.999 -41z" />
    <glyph glyph-name="multiply" unicode="&#xd7;" horiz-adv-x="510" 
d="M315 322l104.999 -106c8.66699 -8.66699 8.66699 -17.667 0 -27l-34 -32c-8 -10 -16.667 -10.333 -26 -1l-105 106l-106 -106c-9.33301 -9.33301 -18 -9 -26 1l-33 32c-9.33301 9.33301 -9.66602 18.333 -0.999023 27l106 106l-105 104
c-8.66699 9.33301 -8.66699 18.333 0 27l33 33c8.66699 10 17.667 10 27 0l105 -104l104 104c9.33301 9.33301 18.333 9.33301 27 0l33 -33c8.66699 -8.66699 8.66699 -17.667 0 -27z" />
    <glyph glyph-name="Oslash" unicode="&#xd8;" horiz-adv-x="572" 
d="M502 488v-333c0 -48.667 -13.667 -86.667 -41 -114s-65.333 -41 -114 -41h-122c-45.333 0 -81.333 11.667 -108 35l-20 -28c-7.33301 -9.33301 -16 -11 -26 -5l-17 13c-9.33301 7.33301 -10.666 16 -3.99902 26l32 45c-8 20 -12 43 -12 69v333
c0 49.333 13.5 87.5 40.5 114.5s65.167 40.5 114.5 40.5h122c45.333 0 81.666 -11.667 108.999 -35l19 27c7.33301 10 16 11.667 26 5l17 -12c9.33301 -6.66699 11 -15 5 -25l-33 -46c8 -20 12 -43 12 -69zM167 484v-279l230 321c-10 21.333 -31.333 32 -64 32h-94
c-48 0 -72 -24.667 -72 -74zM405 159l0.000976562 279l-230 -321c11.333 -21.333 32.666 -32 63.999 -32h94c48 0 72 24.667 72 74z" />
    <glyph glyph-name="Ugrave" unicode="&#xd9;" horiz-adv-x="557" 
d="M306 707h-47.999c-9.33301 0 -17 4 -23 12l-84 100c-4 4.66699 -5.16699 8.66699 -3.5 12s5.5 5 11.5 5h78c11.333 0 20 -5.33301 26 -16l51 -96c5.33301 -11.333 2.66602 -17 -8.00098 -17zM409.001 643h63.001c12 0 18 -5.33301 18 -16v-472
c0 -48.667 -13.833 -86.667 -41.5 -114s-65.834 -41 -114.501 -41h-111c-48.667 0 -86.667 13.667 -114 41s-41 65.333 -41 114v471c0 11.333 5.66699 17 17 17h63c11.333 0 17 -5.66699 17 -17v-467c0 -49.333 24 -74 72 -74h82c48.667 0 73 24.667 73 74v467
c0 11.333 5.66699 17 17 17z" />
    <glyph glyph-name="Uacute" unicode="&#xda;" horiz-adv-x="557" 
d="M319 836h79.001c5.33301 0 8.83301 -1.66699 10.5 -5s0.833984 -7.33301 -2.49902 -12l-85 -100c-6 -8 -13.667 -12 -23 -12h-48c-10.667 0 -13.334 5.66699 -8.00098 17l52 96c5.33301 10.667 13.666 16 24.999 16zM409.001 643h63.001c12 0 18 -5.33301 18 -16v-472
c0 -48.667 -13.833 -86.667 -41.5 -114s-65.834 -41 -114.501 -41h-111c-48.667 0 -86.667 13.667 -114 41s-41 65.333 -41 114v471c0 11.333 5.66699 17 17 17h63c11.333 0 17 -5.66699 17 -17v-467c0 -49.333 24 -74 72 -74h82c48.667 0 73 24.667 73 74v467
c0 11.333 5.66699 17 17 17z" />
    <glyph glyph-name="Ucircumflex" unicode="&#xdb;" horiz-adv-x="557" 
d="M382 707h-45.001c-8 0 -13.333 3.33301 -16 10l-41 78l-40 -78c-3.33301 -6.66699 -8.66602 -10 -15.999 -10h-45c-10 0 -12.333 4 -7 12l63 107c4.66699 6.66699 11.667 10 21 10h49c9.33301 0 16.333 -3.33301 21 -10l63 -107c5.33301 -8 3 -12 -7 -12zM408.999 643
h63.001c12 0 18 -5.33301 18 -16v-472c0 -48.667 -13.833 -86.667 -41.5 -114s-65.834 -41 -114.501 -41h-111c-48.667 0 -86.667 13.667 -114 41s-41 65.333 -41 114v471c0 11.333 5.66699 17 17 17h63c11.333 0 17 -5.66699 17 -17v-467c0 -49.333 24 -74 72 -74h82
c48.667 0 73 24.667 73 74v467c0 11.333 5.66699 17 17 17z" />
    <glyph glyph-name="Udieresis" unicode="&#xdc;" horiz-adv-x="557" 
d="M143 724v95c0 11.333 5.33301 17 16 17h60c10 0 15 -5.33301 15 -16v-96c0 -11.333 -5 -17 -15 -17h-60c-10.667 0 -16 5.66699 -16 17zM323 724v95c0 11.333 5 17 15 17h61c10 0 15 -5.33301 15 -16v-96c0 -11.333 -5 -17 -15 -17h-61c-10 0 -15 5.66699 -15 17z
M409 643h63.001c12 0 18 -5.33301 18 -16v-472c0 -48.667 -13.833 -86.667 -41.5 -114s-65.834 -41 -114.501 -41h-111c-48.667 0 -86.667 13.667 -114 41s-41 65.333 -41 114v471c0 11.333 5.66699 17 17 17h63c11.333 0 17 -5.66699 17 -17v-467c0 -49.333 24 -74 72 -74
h82c48.667 0 73 24.667 73 74v467c0 11.333 5.66699 17 17 17z" />
    <glyph glyph-name="Yacute" unicode="&#xdd;" horiz-adv-x="508" 
d="M293 836h79c5.33301 0 8.83301 -1.66699 10.5 -5s0.833984 -7.33301 -2.49902 -12l-84 -100c-6.66699 -8 -14.667 -12 -24 -12h-47c-12 0 -14.667 5.66699 -8 17l51 96c5.33301 10.667 13.666 16 24.999 16zM286 0h-64c-11.333 0 -17 5.66699 -17 17v221l-187 387
c-2.66699 5.33301 -2.66699 9.66602 0 12.999s6.33398 5 11.001 5h80c8.66699 0 15.334 -5.66699 20.001 -17l123 -275h6l121 275c4 11.333 10.667 17 20 17h80c5.33301 0 9.16602 -1.66699 11.499 -5s2.16602 -7.66602 -0.500977 -12.999l-187 -387v-221
c0 -11.333 -5.66699 -17 -17 -17z" />
    <glyph glyph-name="Thorn" unicode="&#xde;" horiz-adv-x="503" 
d="M201 218h81.001c25.333 0 43.666 5.83301 54.999 17.5s17 30.167 17 55.5v60c0 49.333 -24 74 -72 74h-81c-6.66699 0 -10 -3.33301 -10 -10v-187c0 -6.66699 3.33301 -10 10 -10zM174.001 0h-64c-11.333 0 -17 5.66699 -17 17v609c0 11.333 5.66699 17 17 17h64
c11.333 0 17 -5.66699 17 -17v-106c0 -6.66699 3.66699 -10 11 -10h95c48.667 0 86.834 -13.5 114.501 -40.5s41.5 -65.167 41.5 -114.5v-68c0 -49.333 -13.833 -87.5 -41.5 -114.5s-65.834 -40.5 -114.501 -40.5h-95c-7.33301 0 -11 -3.33301 -11 -10v-105
c0 -11.333 -5.66699 -17 -17 -17z" />
    <glyph glyph-name="germandbls" unicode="&#xdf;" horiz-adv-x="542" 
d="M271 362l30 0.000976562c52 0 78 24.667 78 74v51c0 48.667 -24.667 73 -74 73h-71c-47.333 0 -71 -24.333 -71 -73v-470c0 -11.333 -5.66699 -17 -17 -17h-64c-11.333 0 -17 5.66699 -17 17v471c0 49.333 13.667 87.5 41 114.5s65.333 40.5 114 40.5h99
c48.667 0 86.667 -13.833 114 -41.5s41 -65.834 41 -114.501v-55c0 -55.333 -24 -92 -72 -110c26 -5.33301 46.167 -19 60.5 -41s21.5 -48 21.5 -78v-54c0 -48.667 -13.5 -85.667 -40.5 -111s-65.167 -38 -114.5 -38h-73c-12 -0 -18 5.33301 -18 16v50c0 11.333 6 17 18 17
h59c49.333 0 74 24.333 74 73v49c0 49.333 -27.333 74 -82 74h-36c-11.333 0 -17 5.33301 -17 16v50c0 11.333 5.66699 17 17 17z" />
    <glyph glyph-name="agrave" unicode="&#xe0;" horiz-adv-x="512" 
d="M309 574h-48c-9.33301 0 -17 4 -23 12l-84 100c-4 5.33301 -5.16699 9.5 -3.5 12.5s5.5 4.5 11.5 4.5h78c12 0 20.667 -5.33301 26 -16l52 -96c5.33301 -11.333 2.33301 -17 -9 -17zM247 0h-39c-49.333 0 -87.5 13.667 -114.5 41s-40.5 65.333 -40.5 114v200
c0 49.333 13.5 87.5 40.5 114.5s65.167 40.5 114.5 40.5h224c12 0 18 -5.66699 18 -17v-476c0 -11.333 -6 -17 -18 -17h-63c-11.333 0 -17 5.66699 -17 17v36h-4c-16 -35.333 -49.667 -53 -101 -53zM352 170v245c0 6.66699 -3.66699 10 -11 10h-119
c-48 0 -72 -24.667 -72 -74v-192c0 -49.333 24 -74 72 -74h48c54.667 0 82 28.333 82 85z" />
    <glyph glyph-name="aacute" unicode="&#xe1;" horiz-adv-x="512" 
d="M309 703h78c5.33301 0 8.83301 -1.5 10.5 -4.5s0.833984 -7.16699 -2.49902 -12.5l-84 -100c-6 -8 -14 -12 -24 -12h-47c-10.667 0 -13.334 5.66699 -8.00098 17l52 96c4.66699 10.667 13 16 25 16zM247 0h-39c-49.333 0 -87.5 13.667 -114.5 41s-40.5 65.333 -40.5 114
v200c0 49.333 13.5 87.5 40.5 114.5s65.167 40.5 114.5 40.5h224c12 0 18 -5.66699 18 -17v-476c0 -11.333 -6 -17 -18 -17h-63c-11.333 0 -17 5.66699 -17 17v36h-4c-16 -35.333 -49.667 -53 -101 -53zM352 170v245c0 6.66699 -3.66699 10 -11 10h-119
c-48 0 -72 -24.667 -72 -74v-192c0 -49.333 24 -74 72 -74h48c54.667 0 82 28.333 82 85z" />
    <glyph glyph-name="acircumflex" unicode="&#xe2;" horiz-adv-x="512" 
d="M369 574l-46.001 -0.000976562c-8 0 -13.333 3.33301 -16 10l-40 78l-40 -78c-3.33301 -6.66699 -8.66602 -10 -15.999 -10h-46c-4 0 -6.66699 1.33301 -8 4s-1 5.33398 1 8.00098l64 107c4.66699 6.66699 11.667 10 21 10h48c9.33301 0 16.333 -3.33301 21 -10l63 -107
c5.33301 -8 3.33301 -12 -6 -12zM246.999 -0.000976562h-39c-49.333 0 -87.5 13.667 -114.5 41s-40.5 65.333 -40.5 114v200c0 49.333 13.5 87.5 40.5 114.5s65.167 40.5 114.5 40.5h224c12 0 18 -5.66699 18 -17v-476c0 -11.333 -6 -17 -18 -17h-63
c-11.333 0 -17 5.66699 -17 17v36h-4c-16 -35.333 -49.667 -53 -101 -53zM351.999 169.999v245c0 6.66699 -3.66699 10 -11 10h-119c-48 0 -72 -24.667 -72 -74v-192c0 -49.333 24 -74 72 -74h48c54.667 0 82 28.333 82 85z" />
    <glyph glyph-name="atilde" unicode="&#xe3;" horiz-adv-x="513" 
d="M158 652l0.000976562 38c0 7.33301 3.33301 11 10 11h29c6 0 9 -3.66699 9 -11v-19c0 -16.667 1.66699 -28 5 -34s8.16602 -9 14.499 -9s11.5 2.33301 15.5 7s10.667 15.334 20 32.001c16 25.333 35.667 38 59 38c44.667 0 67 -25.667 67 -77v-38c0 -8 -3 -12 -9 -12h-30
c-6.66699 0 -10 4 -10 12v18c0 17.333 -1.5 28.833 -4.5 34.5s-7.83301 8.5 -14.5 8.5s-11.667 -1.83301 -15 -5.5s-9 -12.834 -17 -27.501c-15.333 -28.667 -36 -43 -62 -43c-44.667 0 -67 25.667 -67 77zM247.001 0h-39c-49.333 0 -87.5 13.667 -114.5 41
s-40.5 65.333 -40.5 114v200c0 49.333 13.5 87.5 40.5 114.5s65.167 40.5 114.5 40.5h224c12 0 18 -5.66699 18 -17v-476c0 -11.333 -6 -17 -18 -17h-63c-11.333 0 -17 5.66699 -17 17v36h-4c-16 -35.333 -49.667 -53 -101 -53zM352.001 170v245
c0 6.66699 -3.66699 10 -11 10h-119c-48 0 -72 -24.667 -72 -74v-192c0 -49.333 24 -74 72 -74h48c54.667 0 82 28.333 82 85z" />
    <glyph glyph-name="adieresis" unicode="&#xe4;" horiz-adv-x="512" 
d="M136 591v95c0 11.333 5.33301 17 16 17h60c10.667 0 16 -5.33301 16 -16v-96c0 -11.333 -5.33301 -17 -16 -17h-60c-10.667 0 -16 5.66699 -16 17zM316 591v95c0 11.333 5.33301 17 16 17h60c10.667 0 16 -5.33301 16 -16v-96c0 -11.333 -5.33301 -17 -16 -17h-60
c-10.667 0 -16 5.66699 -16 17zM247 0h-39c-49.333 0 -87.5 13.667 -114.5 41s-40.5 65.333 -40.5 114v200c0 49.333 13.5 87.5 40.5 114.5s65.167 40.5 114.5 40.5h224c12 0 18 -5.66699 18 -17v-476c0 -11.333 -6 -17 -18 -17h-63c-11.333 0 -17 5.66699 -17 17v36h-4
c-16 -35.333 -49.667 -53 -101 -53zM352 170v245c0 6.66699 -3.66699 10 -11 10h-119c-48 0 -72 -24.667 -72 -74v-192c0 -49.333 24 -74 72 -74h48c54.667 0 82 28.333 82 85z" />
    <glyph glyph-name="aring" unicode="&#xe5;" horiz-adv-x="512" 
d="M352 170v245c0 6.66699 -3.66699 10 -11 10h-119c-48 0 -72 -24.667 -72 -74v-192c0 -49.333 24 -74 72 -74h48c54.667 0 82 28.333 82 85zM247 0h-39c-49.333 0 -87.5 13.667 -114.5 41s-40.5 65.333 -40.5 114v200c0 49.333 13.5 87.5 40.5 114.5
s65.167 40.5 114.5 40.5h224c12 0 18 -5.66699 18 -17v-476c0 -11.333 -6 -17 -18 -17h-63c-11.333 0 -17 5.66699 -17 17v36h-4c-16 -35.333 -49.667 -53 -101 -53zM222 657l0.000976562 -33c0 -12.667 2.5 -21.334 7.5 -26.001s13.833 -7 26.5 -7h15
c12.667 0 21.5 2.33301 26.5 7s7.5 13.334 7.5 26.001v33c0 13.333 -2.33301 22.166 -7 26.499s-13.334 6.5 -26.001 6.5h-16c-12.667 0 -21.5 -2.16699 -26.5 -6.5s-7.5 -13.166 -7.5 -26.499zM184.001 612v60c0 34.667 19 52 57 52h45c38.667 0 58 -17.333 58 -52v-60
c0 -36.667 -19.333 -55 -58 -55h-45c-38 0 -57 18.333 -57 55z" />
    <glyph glyph-name="ae" unicode="&#xe6;" horiz-adv-x="770" 
d="M440 189v-29.999c0 -49.333 24.333 -74 73 -74h190c12 0 18 -5.66699 18 -17v-52c0 -10.667 -6 -16 -18 -16h-205c-57.333 0 -98.333 20.333 -123 61c-22 -40.667 -67.333 -61 -136 -61h-34c-48 0 -85.833 13.167 -113.5 39.5s-41.5 63.166 -41.5 110.499v16
c0 48.667 13.5 85.667 40.5 111s65.167 38 114.5 38h130c5.33301 0 8 2.66699 8 8v29c0 48.667 -24 73 -72 73h-160c-11.333 0 -17 5.66699 -17 17v51c0 11.333 5.66699 17 17 17h157c62 0 103.333 -19.667 124 -59c20.667 39.333 61 59 121 59h53
c48.667 0 86.667 -13.5 114 -40.5s41 -65.167 41 -114.5v-138c0 -12 -6 -18 -18 -18h-251c-8 0 -12 -3.33301 -12 -10zM635 278.001v73c0 49.333 -24.333 74 -73 74h-46c-50.667 0 -76 -24 -76 -72v-75c0 -7.33301 3.66699 -11 11 -11h173c7.33301 0 11 3.66699 11 11z
M343 164.001v70c0 6.66699 -3.66699 10 -11 10h-112c-27.333 0 -47.166 -6 -59.499 -18s-18.5 -30.667 -18.5 -56v-14c0 -26 6.16699 -45.167 18.5 -57.5s32.166 -18.5 59.499 -18.5h41c54.667 0 82 28 82 84z" />
    <glyph glyph-name="ccedilla" unicode="&#xe7;" horiz-adv-x="405" 
d="M355 425l-133.002 -0.000976562c-48 0 -72 -24.667 -72 -74v-192c0 -49.333 24 -74 72 -74h133c12 0 18 -5.66699 18 -17v-52c0 -10.667 -6 -16 -18 -16h-63l-37 -38v-4c50.667 0 76 -23.333 76 -70v-15c0 -44 -30 -66 -90 -66h-37c-6.66699 0 -11 1 -13 3s-3 6 -3 12v17
c0 10 5.33301 15 16 15h28c18.667 0 31.334 2 38.001 6s10 11 10 21v2c0 10.667 -3.16699 17.834 -9.5 21.501s-19.166 5.5 -38.499 5.5h-21c-12 0 -20 5.83301 -24 17.5s-1.66699 22.167 7 31.5l35 41h-21c-49.333 0 -87.5 13.667 -114.5 41s-40.5 65.333 -40.5 114v200
c0 49.333 13.5 87.5 40.5 114.5s65.167 40.5 114.5 40.5h147c12 0 18 -5.66699 18 -17v-52c0 -10.667 -6 -16 -18 -16z" />
    <glyph glyph-name="egrave" unicode="&#xe8;" horiz-adv-x="493" 
d="M282 574h-48.001c-9.33301 0 -16.666 4 -21.999 12l-85 100c-4 5.33301 -5.16699 9.5 -3.5 12.5s5.5 4.5 11.5 4.5h78c12 0 20.667 -5.33301 26 -16l52 -96c4.66699 -11.333 1.66699 -17 -9 -17zM423.999 0h-215.999c-49.333 0 -87.5 13.667 -114.5 41
s-40.5 65.333 -40.5 114v200c0 49.333 13.5 87.5 40.5 114.5s65.167 40.5 114.5 40.5h82c49.333 0 87.666 -13.5 114.999 -40.5s41 -65.167 41 -114.5v-127c0 -12 -6 -18 -18 -18h-268c-7.33301 0 -11 -3.33301 -11 -10v-43c0 -48.667 24.333 -73 73 -73h202
c12 0 18 -6 18 -18v-50c0 -10.667 -6 -16 -18 -16zM160 278h178.998c6.66699 0 10 3.33301 10 10v64c0 25.333 -5.66699 43.833 -17 55.5s-29.666 17.5 -54.999 17.5h-55c-25.333 0 -43.666 -5.83301 -54.999 -17.5s-17 -30.167 -17 -55.5v-64
c0 -6.66699 3.33301 -10 10 -10z" />
    <glyph glyph-name="eacute" unicode="&#xe9;" horiz-adv-x="493" 
d="M289 703h77c6 0 9.83301 -1.5 11.5 -4.5s0.5 -7.16699 -3.5 -12.5l-84 -100c-6 -8 -14 -12 -24 -12h-47c-11.333 0 -14 5.66699 -8 17l52 96c5.33301 10.667 14 16 26 16zM424 0h-215.999c-49.333 0 -87.5 13.667 -114.5 41s-40.5 65.333 -40.5 114v200
c0 49.333 13.5 87.5 40.5 114.5s65.167 40.5 114.5 40.5h82c49.333 0 87.666 -13.5 114.999 -40.5s41 -65.167 41 -114.5v-127c0 -12 -6 -18 -18 -18h-268c-7.33301 0 -11 -3.33301 -11 -10v-43c0 -48.667 24.333 -73 73 -73h202c12 0 18 -6 18 -18v-50
c0 -10.667 -6 -16 -18 -16zM160.001 278h178.998c6.66699 0 10 3.33301 10 10v64c0 25.333 -5.66699 43.833 -17 55.5s-29.666 17.5 -54.999 17.5h-55c-25.333 0 -43.666 -5.83301 -54.999 -17.5s-17 -30.167 -17 -55.5v-64c0 -6.66699 3.33301 -10 10 -10z" />
    <glyph glyph-name="ecircumflex" unicode="&#xea;" horiz-adv-x="493" 
d="M354 574h-45c-8 0 -13.333 3.33301 -16 10l-40 78l-41 -78c-2.66699 -6.66699 -7.66699 -10 -15 -10h-46c-9.33301 0 -11.333 4 -6 12l62 107c4.66699 6.66699 11.667 10 21 10h49c9.33301 0 16.333 -3.33301 21 -10l63 -107c5.33301 -8 3 -12 -7 -12zM424 0h-215.999
c-49.333 0 -87.5 13.667 -114.5 41s-40.5 65.333 -40.5 114v200c0 49.333 13.5 87.5 40.5 114.5s65.167 40.5 114.5 40.5h82c49.333 0 87.666 -13.5 114.999 -40.5s41 -65.167 41 -114.5v-127c0 -12 -6 -18 -18 -18h-268c-7.33301 0 -11 -3.33301 -11 -10v-43
c0 -48.667 24.333 -73 73 -73h202c12 0 18 -6 18 -18v-50c0 -10.667 -6 -16 -18 -16zM160.001 278h178.998c6.66699 0 10 3.33301 10 10v64c0 25.333 -5.66699 43.833 -17 55.5s-29.666 17.5 -54.999 17.5h-55c-25.333 0 -43.666 -5.83301 -54.999 -17.5
s-17 -30.167 -17 -55.5v-64c0 -6.66699 3.33301 -10 10 -10z" />
    <glyph glyph-name="edieresis" unicode="&#xeb;" horiz-adv-x="493" 
d="M117 591v95c0 11.333 5.33301 17 16 17h59c11.333 0 17 -5.33301 17 -16v-96c0 -11.333 -5.66699 -17 -17 -17h-59c-10.667 0 -16 5.66699 -16 17zM296 591v95c0 11.333 5.66699 17 17 17h59c11.333 0 17 -5.33301 17 -16v-96c0 -11.333 -5.66699 -17 -17 -17h-59
c-11.333 0 -17 5.66699 -17 17zM424 0h-215.999c-49.333 0 -87.5 13.667 -114.5 41s-40.5 65.333 -40.5 114v200c0 49.333 13.5 87.5 40.5 114.5s65.167 40.5 114.5 40.5h82c49.333 0 87.666 -13.5 114.999 -40.5s41 -65.167 41 -114.5v-127c0 -12 -6 -18 -18 -18h-268
c-7.33301 0 -11 -3.33301 -11 -10v-43c0 -48.667 24.333 -73 73 -73h202c12 0 18 -6 18 -18v-50c0 -10.667 -6 -16 -18 -16zM160.001 278h178.998c6.66699 0 10 3.33301 10 10v64c0 25.333 -5.66699 43.833 -17 55.5s-29.666 17.5 -54.999 17.5h-55
c-25.333 0 -43.666 -5.83301 -54.999 -17.5s-17 -30.167 -17 -55.5v-64c0 -6.66699 3.33301 -10 10 -10z" />
    <glyph glyph-name="igrave" unicode="&#xec;" horiz-adv-x="233" 
d="M140 574h-48c-9.33301 0 -17 4 -23 12l-84 100c-3.33301 5.33301 -4.16602 9.5 -2.49902 12.5s5.16699 4.5 10.5 4.5h78c12 0 20.333 -5.33301 25 -16l52 -96c5.33301 -11.333 2.66602 -17 -8.00098 -17zM68 17v476c0 11.333 5.33301 17 16 17h64
c11.333 0 17 -5.66699 17 -17v-476c0 -6.66699 -1.16699 -11.167 -3.5 -13.5s-6.5 -3.5 -12.5 -3.5h-64c-11.333 0 -17 5.66699 -17 17z" />
    <glyph glyph-name="iacute" unicode="&#xed;" horiz-adv-x="232" 
d="M162 703h77.999c5.33301 0 8.83301 -1.5 10.5 -4.5s0.833984 -7.16699 -2.49902 -12.5l-84 -100c-6 -8 -14 -12 -24 -12h-47c-11.333 0 -14 5.66699 -8 17l52 96c4.66699 10.667 13 16 25 16zM67.999 17v476c0 11.333 5.33301 17 16 17h64c11.333 0 17 -5.66699 17 -17
v-476c0 -6.66699 -1.16699 -11.167 -3.5 -13.5s-6.5 -3.5 -12.5 -3.5h-64c-11.333 0 -17 5.66699 -17 17z" />
    <glyph glyph-name="icircumflex" unicode="&#xee;" horiz-adv-x="232" 
d="M218 574h-46c-7.33301 0 -12.333 3.33301 -15 10l-41 78l-40 -78c-2.66699 -6.66699 -8 -10 -16 -10h-45c-10 0 -12.333 4 -7 12l63 107c4.66699 6.66699 11.667 10 21 10h49c9.33301 0 16.333 -3.33301 21 -10l62 -107c5.33301 -8 3.33301 -12 -6 -12zM68 17v476
c0 11.333 5.33301 17 16 17h64c11.333 0 17 -5.66699 17 -17v-476c0 -6.66699 -1.16699 -11.167 -3.5 -13.5s-6.5 -3.5 -12.5 -3.5h-64c-11.333 0 -17 5.66699 -17 17z" />
    <glyph glyph-name="idieresis" unicode="&#xef;" horiz-adv-x="232" 
d="M-20 591v95c0 11.333 5.33301 17 16 17h60c11.333 0 17 -5.33301 17 -16v-96c0 -11.333 -5.66699 -17 -17 -17h-60c-10.667 0 -16 5.66699 -16 17zM160 591v95c0 11.333 5.33301 17 16 17h60c11.333 0 17 -5.33301 17 -16v-96c0 -11.333 -5.66699 -17 -17 -17h-60
c-10.667 0 -16 5.66699 -16 17zM68 17v476c0 11.333 5.33301 17 16 17h64c11.333 0 17 -5.66699 17 -17v-476c0 -6.66699 -1.16699 -11.167 -3.5 -13.5s-6.5 -3.5 -12.5 -3.5h-64c-11.333 0 -17 5.66699 -17 17z" />
    <glyph glyph-name="eth" unicode="&#xf0;" horiz-adv-x="500" 
d="M443 323v-167.999c0 -48.667 -13.667 -86.667 -41 -114s-65.333 -41 -114 -41h-80c-49.333 0 -87.5 13.667 -114.5 41s-40.5 65.333 -40.5 114v100c0 49.333 13.5 87.5 40.5 114.5s65.167 40.5 114.5 40.5h39c24 0 46 -4.66699 66 -14s33.667 -22.333 41 -39h4
c-4 22.667 -14.333 44.334 -31 65.001l-93 104l-87 -73c-8.66699 -6.66699 -16.667 -5.33398 -24 3.99902l-23 27c-5.33301 7.33301 -4.33301 14.666 3 21.999l85 72l-66 73c-10 10.667 -9 21 3 31l31 23c10.667 7.33301 20.667 6 30 -4l64 -71l90 76
c9.33301 7.33301 17 7.33301 23 0l23 -29c8 -10.667 7.66699 -19 -1 -25l-88 -74l101 -111c30 -34.667 45 -82.667 45 -144zM345 159.001v81c0 56.667 -25 85 -75 85h-41c-52.667 0 -79 -24.667 -79 -74v-92c0 -49.333 24 -74 72 -74h52c47.333 0 71 24.667 71 74z" />
    <glyph glyph-name="ntilde" unicode="&#xf1;" horiz-adv-x="517" 
d="M139 652l-0.000976562 38c0 7.33301 3.33301 11 10 11h30c6.66699 0 10 -3.66699 10 -11v-19c0 -17.333 1.33301 -28.833 4 -34.5s7.33398 -8.5 14.001 -8.5s12 2.33301 16 7s10.5 14.834 19.5 30.501s17.833 26.167 26.5 31.5s19.667 8 33 8c44.667 0 67 -25.667 67 -77
v-38c0 -8 -3 -12 -9 -12h-30c-6.66699 0 -10 4 -10 12v18c0 17.333 -1.33301 28.833 -4 34.5s-7.5 8.5 -14.5 8.5s-12.167 -1.83301 -15.5 -5.5s-9.33301 -12.834 -18 -27.501c-8.66699 -17.333 -17.667 -28.833 -27 -34.5s-21 -8.5 -35 -8.5c-44.667 0 -67 25.667 -67 77z
M142.999 0h-63c-11.333 0 -17 5.66699 -17 17v476c0 11.333 5.66699 17 17 17h63c11.333 0 17 -5.66699 17 -17v-36h4c16 35.333 49.667 53 101 53h44c48.667 0 86 -13.333 112 -40s39 -65 39 -115v-338c0 -11.333 -6 -17 -18 -17h-63c-11.333 0 -17 5.66699 -17 17v334
c0 49.333 -24.333 74 -73 74h-47c-54.667 0 -82 -28.333 -82 -85v-323c0 -11.333 -5.66699 -17 -17 -17z" />
    <glyph glyph-name="ograve" unicode="&#xf2;" horiz-adv-x="504" 
d="M280 574h-48c-9.33301 0 -17 4 -23 12l-84 100c-3.33301 5.33301 -4.16602 9.5 -2.49902 12.5s5.16699 4.5 10.5 4.5h79c11.333 0 19.666 -5.33301 24.999 -16l51 -96c6.66699 -11.333 4 -17 -8 -17zM296 0h-88c-49.333 0 -87.5 13.667 -114.5 41s-40.5 65.333 -40.5 114
v200c0 49.333 13.5 87.5 40.5 114.5s65.167 40.5 114.5 40.5h88c48.667 0 86.834 -13.5 114.501 -40.5s41.5 -65.167 41.5 -114.5v-200c0 -48.667 -13.833 -86.667 -41.5 -114s-65.834 -41 -114.501 -41zM222 85h61c48 0 72 24.333 72 73v194c0 48.667 -24 73 -72 73h-61
c-25.333 0 -43.666 -5.83301 -54.999 -17.5s-17 -30.167 -17 -55.5v-194c0 -25.333 5.66699 -43.833 17 -55.5s29.666 -17.5 54.999 -17.5z" />
    <glyph glyph-name="oacute" unicode="&#xf3;" horiz-adv-x="504" 
d="M296 703h78c6 0 9.83301 -1.5 11.5 -4.5s0.5 -7.16699 -3.5 -12.5l-84 -100c-6.66699 -8 -14.667 -12 -24 -12h-47c-11.333 0 -14 5.66699 -8 17l51 96c6 10.667 14.667 16 26 16zM296 0h-88c-49.333 0 -87.5 13.667 -114.5 41s-40.5 65.333 -40.5 114v200
c0 49.333 13.5 87.5 40.5 114.5s65.167 40.5 114.5 40.5h88c48.667 0 86.834 -13.5 114.501 -40.5s41.5 -65.167 41.5 -114.5v-200c0 -48.667 -13.833 -86.667 -41.5 -114s-65.834 -41 -114.501 -41zM222 85h61c48 0 72 24.333 72 73v194c0 48.667 -24 73 -72 73h-61
c-25.333 0 -43.666 -5.83301 -54.999 -17.5s-17 -30.167 -17 -55.5v-194c0 -25.333 5.66699 -43.833 17 -55.5s29.666 -17.5 54.999 -17.5z" />
    <glyph glyph-name="ocircumflex" unicode="&#xf4;" horiz-adv-x="504" 
d="M354 574l-46.001 -0.000976562c-8 0 -13.333 3.33301 -16 10l-40 78l-40 -78c-3.33301 -6.66699 -8.66602 -10 -15.999 -10h-46c-4 0 -6.66699 1.33301 -8 4s-1 5.33398 1 8.00098l64 107c4.66699 6.66699 11.667 10 21 10h48c9.33301 0 16.333 -3.33301 21 -10l63 -107
c5.33301 -8 3.33301 -12 -6 -12zM295.999 -0.000976562h-88c-49.333 0 -87.5 13.667 -114.5 41s-40.5 65.333 -40.5 114v200c0 49.333 13.5 87.5 40.5 114.5s65.167 40.5 114.5 40.5h88c48.667 0 86.834 -13.5 114.501 -40.5s41.5 -65.167 41.5 -114.5v-200
c0 -48.667 -13.833 -86.667 -41.5 -114s-65.834 -41 -114.501 -41zM221.999 84.999h61c48 0 72 24.333 72 73v194c0 48.667 -24 73 -72 73h-61c-25.333 0 -43.666 -5.83301 -54.999 -17.5s-17 -30.167 -17 -55.5v-194c0 -25.333 5.66699 -43.833 17 -55.5
s29.666 -17.5 54.999 -17.5z" />
    <glyph glyph-name="otilde" unicode="&#xf5;" horiz-adv-x="504" 
d="M131 652l-0.000976562 38c0 7.33301 3.33301 11 10 11h30c6.66699 0 10 -3.66699 10 -11v-19c0 -17.333 1.33301 -28.833 4 -34.5s7.33398 -8.5 14.001 -8.5s12 2.33301 16 7s10.5 14.834 19.5 30.501s17.833 26.167 26.5 31.5s19.667 8 33 8c44.667 0 67 -25.667 67 -77
v-38c0 -8 -3 -12 -9 -12h-30c-6.66699 0 -10 4 -10 12v18c0 17.333 -1.33301 28.833 -4 34.5s-7.5 8.5 -14.5 8.5s-12.167 -1.83301 -15.5 -5.5s-9.33301 -12.834 -18 -27.501c-8.66699 -17.333 -17.667 -28.833 -27 -34.5s-21 -8.5 -35 -8.5c-44.667 0 -67 25.667 -67 77z
M295.999 0h-88c-49.333 0 -87.5 13.667 -114.5 41s-40.5 65.333 -40.5 114v200c0 49.333 13.5 87.5 40.5 114.5s65.167 40.5 114.5 40.5h88c48.667 0 86.834 -13.5 114.501 -40.5s41.5 -65.167 41.5 -114.5v-200c0 -48.667 -13.833 -86.667 -41.5 -114
s-65.834 -41 -114.501 -41zM221.999 85h61c48 0 72 24.333 72 73v194c0 48.667 -24 73 -72 73h-61c-25.333 0 -43.666 -5.83301 -54.999 -17.5s-17 -30.167 -17 -55.5v-194c0 -25.333 5.66699 -43.833 17 -55.5s29.666 -17.5 54.999 -17.5z" />
    <glyph glyph-name="odieresis" unicode="&#xf6;" horiz-adv-x="504" 
d="M116 591v95c0 11.333 5.33301 17 16 17h60c10.667 0 16 -5.33301 16 -16v-96c0 -11.333 -5.33301 -17 -16 -17h-60c-10.667 0 -16 5.66699 -16 17zM296 591v95c0 11.333 5.33301 17 16 17h60c10.667 0 16 -5.33301 16 -16v-96c0 -11.333 -5.33301 -17 -16 -17h-60
c-10.667 0 -16 5.66699 -16 17zM296 0h-88c-49.333 0 -87.5 13.667 -114.5 41s-40.5 65.333 -40.5 114v200c0 49.333 13.5 87.5 40.5 114.5s65.167 40.5 114.5 40.5h88c48.667 0 86.834 -13.5 114.501 -40.5s41.5 -65.167 41.5 -114.5v-200
c0 -48.667 -13.833 -86.667 -41.5 -114s-65.834 -41 -114.501 -41zM222 85h61c48 0 72 24.333 72 73v194c0 48.667 -24 73 -72 73h-61c-25.333 0 -43.666 -5.83301 -54.999 -17.5s-17 -30.167 -17 -55.5v-194c0 -25.333 5.66699 -43.833 17 -55.5s29.666 -17.5 54.999 -17.5
z" />
    <glyph glyph-name="divide" unicode="&#xf7;" horiz-adv-x="481" 
d="M207 155v54c0 10.667 5.66699 16 17 16h34c12 0 18 -5.33301 18 -16v-54c0 -11.333 -6 -17 -18 -17h-34c-11.333 0 -17 5.66699 -17 17zM393 287h-303c-12 0 -18 5.66699 -18 17v34c0 11.333 6 17 18 17h303c10.667 0 16 -5.66699 16 -17v-34
c0 -11.333 -5.33301 -17 -16 -17zM207 433v53c0 12 5.66699 18 17 18h34c12 0 18 -6 18 -18v-53c0 -11.333 -6 -17 -18 -17h-34c-11.333 0 -17 5.66699 -17 17z" />
    <glyph glyph-name="oslash" unicode="&#xf8;" horiz-adv-x="520" 
d="M460 355v-199.999c0 -48.667 -13.667 -86.667 -41 -114s-65.666 -41 -114.999 -41h-87c-54 0 -95 16.667 -123 50l-31 -31c-9.33301 -8.66699 -17.333 -8.66699 -24 0l-14 13c-8.66699 8 -8.66699 16.333 0 25l43 43c-4.66699 16 -7 34.333 -7 55v200
c0 49.333 13.667 87.5 41 114.5s65.666 40.5 114.999 40.5h87c54.667 0 96 -16.667 124 -50l30 30c7.33301 9.33301 15.333 9.66602 24 0.999023l14 -13c9.33301 -8 9.33301 -16.333 0 -25l-43 -43c4.66699 -16 7 -34.333 7 -55zM159 351.001v-160l197 197
c-8.66699 24.667 -30.667 37 -66 37h-59c-48 0 -72 -24.667 -72 -74zM362 159.001v160l-197 -198c8.66699 -24 30.667 -36 66 -36h59c48 0 72 24.667 72 74z" />
    <glyph glyph-name="ugrave" unicode="&#xf9;" horiz-adv-x="517" 
d="M284 574h-48.999c-10 0 -17.333 4 -22 12l-84 100c-4 5.33301 -5.16699 9.5 -3.5 12.5s5.16699 4.5 10.5 4.5h78c12 0 20.667 -5.33301 26 -16l52 -96c5.33301 -11.333 2.66602 -17 -8.00098 -17zM252.001 0h-45c-48 0 -84.833 13.5 -110.5 40.5
s-38.5 65.167 -38.5 114.5v338c0 11.333 5.66699 17 17 17h63c11.333 0 17 -5.66699 17 -17v-334c0 -49.333 24 -74 72 -74h48c54.667 0 82 28.333 82 85v323c0 11.333 5.66699 17 17 17h63c12 0 18 -5.66699 18 -17v-476c0 -11.333 -6 -17 -18 -17h-63
c-11.333 0 -17 5.66699 -17 17v36h-4c-16 -35.333 -49.667 -53 -101 -53z" />
    <glyph glyph-name="uacute" unicode="&#xfa;" horiz-adv-x="517" 
d="M296 703h79c5.33301 0 8.83301 -1.5 10.5 -4.5s0.833984 -7.16699 -2.49902 -12.5l-85 -100c-6 -8 -14 -12 -24 -12h-46c-12 0 -15 5.66699 -9 17l52 96c5.33301 10.667 13.666 16 24.999 16zM252 0h-45c-48 0 -84.833 13.5 -110.5 40.5s-38.5 65.167 -38.5 114.5v338
c0 11.333 5.66699 17 17 17h63c11.333 0 17 -5.66699 17 -17v-334c0 -49.333 24 -74 72 -74h48c54.667 0 82 28.333 82 85v323c0 11.333 5.66699 17 17 17h63c12 0 18 -5.66699 18 -17v-476c0 -11.333 -6 -17 -18 -17h-63c-11.333 0 -17 5.66699 -17 17v36h-4
c-16 -35.333 -49.667 -53 -101 -53z" />
    <glyph glyph-name="ucircumflex" unicode="&#xfb;" horiz-adv-x="517" 
d="M358 574h-46.001c-7.33301 0 -12.666 3.33301 -15.999 10l-40 78l-40 -78c-2.66699 -6.66699 -8 -10 -16 -10h-45c-10 0 -12.333 4 -7 12l62 107c4.66699 6.66699 12 10 22 10h48c10 0 17.333 -3.33301 22 -10l62 -107c5.33301 -8 3.33301 -12 -6 -12zM251.999 0h-45
c-48 0 -84.833 13.5 -110.5 40.5s-38.5 65.167 -38.5 114.5v338c0 11.333 5.66699 17 17 17h63c11.333 0 17 -5.66699 17 -17v-334c0 -49.333 24 -74 72 -74h48c54.667 0 82 28.333 82 85v323c0 11.333 5.66699 17 17 17h63c12 0 18 -5.66699 18 -17v-476
c0 -11.333 -6 -17 -18 -17h-63c-11.333 0 -17 5.66699 -17 17v36h-4c-16 -35.333 -49.667 -53 -101 -53z" />
    <glyph glyph-name="udieresis" unicode="&#xfc;" horiz-adv-x="517" 
d="M120 591v95c0 11.333 5.33301 17 16 17h60c10.667 0 16 -5.33301 16 -16v-96c0 -11.333 -5.33301 -17 -16 -17h-60c-10.667 0 -16 5.66699 -16 17zM300 591v95c0 11.333 5.33301 17 16 17h60c10.667 0 16 -5.33301 16 -16v-96c0 -11.333 -5.33301 -17 -16 -17h-60
c-10.667 0 -16 5.66699 -16 17zM252 0h-45c-48 0 -84.833 13.5 -110.5 40.5s-38.5 65.167 -38.5 114.5v338c0 11.333 5.66699 17 17 17h63c11.333 0 17 -5.66699 17 -17v-334c0 -49.333 24 -74 72 -74h48c54.667 0 82 28.333 82 85v323c0 11.333 5.66699 17 17 17h63
c12 0 18 -5.66699 18 -17v-476c0 -11.333 -6 -17 -18 -17h-63c-11.333 0 -17 5.66699 -17 17v36h-4c-16 -35.333 -49.667 -53 -101 -53z" />
    <glyph glyph-name="yacute" unicode="&#xfd;" horiz-adv-x="467" 
d="M276 703h78.001c6 0 9.83301 -1.5 11.5 -4.5s0.5 -7.16699 -3.5 -12.5l-84 -100c-6 -8 -14 -12 -24 -12h-47c-11.333 0 -14 5.66699 -8 17l52 96c5.33301 10.667 13.666 16 24.999 16zM123.001 -162h-53.002c-11.333 0 -17 5.66699 -17 17v51c0 12 5.66699 18 17 18h23
c40.667 0 68.834 8 84.501 24s28.834 42.333 39.501 79h-40c-10 0 -17 5.66699 -21 17l-133 449c-2.66699 11.333 1.66602 17 12.999 17h67c10.667 0 17.334 -5.66699 20.001 -17l109 -392h4l109 392c2 11.333 8.66699 17 20 17h64c12.667 0 18 -6 16 -18l-137 -481
c-15.333 -56 -37 -98.833 -65 -128.5s-68 -44.5 -120 -44.5z" />
    <glyph glyph-name="thorn" unicode="&#xfe;" horiz-adv-x="520" 
d="M245 85h52c48 0 72 24.667 72 74v192c0 49.333 -24 74 -72 74h-52c-54.667 0 -82 -28.333 -82 -85v-170c0 -56.667 27.333 -85 82 -85zM163 53v-169c0 -11.333 -5.66699 -17 -17 -17h-64c-11.333 0 -17 5.66699 -17 17v802c0 11.333 5.66699 17 17 17h64
c11.333 0 17 -5.66699 17 -17v-229h4c15.333 35.333 48.666 53 99.999 53h45c48.667 0 86.667 -13.5 114 -40.5s41 -65.167 41 -114.5v-200c0 -48.667 -13.667 -86.667 -41 -114s-65.333 -41 -114 -41h-45c-51.333 0 -84.666 17.667 -99.999 53h-4z" />
    <glyph glyph-name="ydieresis" unicode="&#xff;" horiz-adv-x="467" 
d="M99 591v95c0 11.333 5 17 15 17h61c10.667 0 16 -5.33301 16 -16v-96c0 -11.333 -5.33301 -17 -16 -17h-61c-10 0 -15 5.66699 -15 17zM278 591v95c0 11.333 5.33301 17 16 17h60c11.333 0 17 -5.33301 17 -16v-96c0 -11.333 -5.66699 -17 -17 -17h-60
c-10.667 0 -16 5.66699 -16 17zM123 -162h-53.002c-11.333 0 -17 5.66699 -17 17v51c0 12 5.66699 18 17 18h23c40.667 0 68.834 8 84.501 24s28.834 42.333 39.501 79h-40c-10 0 -17 5.66699 -21 17l-133 449c-2.66699 11.333 1.66602 17 12.999 17h67
c10.667 0 17.334 -5.66699 20.001 -17l109 -392h4l109 392c2 11.333 8.66699 17 20 17h64c12.667 0 18 -6 16 -18l-137 -481c-15.333 -56 -37 -98.833 -65 -128.5s-68 -44.5 -120 -44.5z" />
    <glyph glyph-name="Amacron" unicode="&#x100;" horiz-adv-x="547" 
d="M373 740h-199c-11.333 0 -17 5.66699 -17 17v35c0 11.333 5.66699 17 17 17h199c11.333 0 17 -5.66699 17 -17v-35c0 -11.333 -5.66699 -17 -17 -17zM108 0h-72.002c-9.33301 0 -12.666 5.66699 -9.99902 17l174 609c3.33301 11.333 11.333 17 24 17h100
c13.333 0 21.333 -5.66699 24 -17l174 -609c2.66699 -11.333 -1 -17 -11 -17h-71c-6 0 -10.167 1.16699 -12.5 3.5s-4.16602 6.83301 -5.49902 13.5l-38 130h-220l-38 -130c-2.66699 -11.333 -8.66699 -17 -18 -17zM271.998 547l-88 -320h181l-89 320h-4z" />
    <glyph glyph-name="amacron" unicode="&#x101;" horiz-adv-x="512" 
d="M380 605h-200c-11.333 0 -17 5.66699 -17 17v34c0 11.333 5.66699 17 17 17h200c11.333 0 17 -5.66699 17 -17v-34c0 -11.333 -5.66699 -17 -17 -17zM247 0h-39c-49.333 0 -87.5 13.667 -114.5 41s-40.5 65.333 -40.5 114v200c0 49.333 13.5 87.5 40.5 114.5
s65.167 40.5 114.5 40.5h224c12 0 18 -5.66699 18 -17v-476c0 -11.333 -6 -17 -18 -17h-63c-11.333 0 -17 5.66699 -17 17v36h-4c-16 -35.333 -49.667 -53 -101 -53zM352 170v245c0 6.66699 -3.66699 10 -11 10h-119c-48 0 -72 -24.667 -72 -74v-192
c0 -49.333 24 -74 72 -74h48c54.667 0 82 28.333 82 85z" />
    <glyph glyph-name="Abreve" unicode="&#x102;" horiz-adv-x="547" 
d="M164 824c0 8 4 12 12 12h38c8 0 12 -4 12 -12v-10c0 -20.667 3.5 -35.167 10.5 -43.5s18.5 -12.5 34.5 -12.5h6c16 0 27.5 4.33301 34.5 13s10.5 23 10.5 43v10c0 8 4 12 12 12h37c8 0 12 -4 12 -12v-11c0 -70.667 -32.333 -106 -97 -106h-25
c-64.667 0 -97 35.333 -97 106v11zM108 0h-72.002c-9.33301 0 -12.666 5.66699 -9.99902 17l174 609c3.33301 11.333 11.333 17 24 17h100c13.333 0 21.333 -5.66699 24 -17l174 -609c2.66699 -11.333 -1 -17 -11 -17h-71c-6 0 -10.167 1.16699 -12.5 3.5
s-4.16602 6.83301 -5.49902 13.5l-38 130h-220l-38 -130c-2.66699 -11.333 -8.66699 -17 -18 -17zM271.998 547l-88 -320h181l-89 320h-4z" />
    <glyph glyph-name="abreve" unicode="&#x103;" horiz-adv-x="512" 
d="M352 170v245c0 6.66699 -3.66699 10 -11 10h-119c-48 0 -72 -24.667 -72 -74v-192c0 -49.333 24 -74 72 -74h48c54.667 0 82 28.333 82 85zM247 0h-39c-49.333 0 -87.5 13.667 -114.5 41s-40.5 65.333 -40.5 114v200c0 49.333 13.5 87.5 40.5 114.5
s65.167 40.5 114.5 40.5h224c12 0 18 -5.66699 18 -17v-476c0 -11.333 -6 -17 -18 -17h-63c-11.333 0 -17 5.66699 -17 17v36h-4c-16 -35.333 -49.667 -53 -101 -53zM164 680v11c0 8 4.33301 12 13 12h38c8 0 12 -4 12 -12v-10c0 -20.667 3.33301 -35.167 10 -43.5
s18 -12.5 34 -12.5h6c16 0 27.5 4.33301 34.5 13s10.5 23 10.5 43v10c0 8 4 12 12 12h37c8 0 12 -4 12 -12v-11c0 -70.667 -32 -106 -96 -106h-26c-64.667 0 -97 35.333 -97 106z" />
    <glyph glyph-name="Aogonek" unicode="&#x104;" horiz-adv-x="547" 
d="M511 0h-52.001l-42 -62h40c9.33301 0 15.666 -1.16699 18.999 -3.5s5 -6.83301 5 -13.5c0 -11.333 -9.5 -20.333 -28.5 -27s-38 -10 -57 -10s-31.167 5.16699 -36.5 15.5s-3.66602 21.5 5.00098 33.5l57 86l-37 128h-220l-38 -130c-2.66699 -11.333 -8.66699 -17 -18 -17
h-72c-9.33301 0 -12.666 5.66699 -9.99902 17l174 609c3.33301 11.333 11.333 17 24 17h100c13.333 0 21.333 -5.66699 24 -17l174 -609c2.66699 -11.333 -1 -17 -11 -17zM183.999 227h181l-89 320h-4z" />
    <glyph glyph-name="aogonek" unicode="&#x105;" horiz-adv-x="512" 
d="M208 510l224.004 -0.000976562c12 0 18 -5.66699 18 -17v-476c0 -11.333 -6 -17 -18 -17h-46c-8.66699 -11.333 -17.5 -25.166 -26.5 -41.499s-13.167 -24.5 -12.5 -24.5c20 0 34 1 42 3c15.333 1.33301 21.666 -3.66699 18.999 -15
c-0.666992 -11.333 -10.334 -20.5 -29.001 -27.5s-36.334 -10.5 -53.001 -10.5s-26.334 7 -29.001 21s0.333008 26.667 9 38l46 75v35h-4c-16 -35.333 -49.667 -53 -101 -53h-39c-49.333 0 -87.5 13.667 -114.5 41s-40.5 65.333 -40.5 114v200
c0 49.333 13.5 87.5 40.5 114.5s65.167 40.5 114.5 40.5zM222.004 84.999h48c54.667 0 82 28.333 82 85v245c0 6.66699 -3.66699 10 -11 10h-119c-48 0 -72 -24.667 -72 -74v-192c0 -49.333 24 -74 72 -74z" />
    <glyph glyph-name="Cacute" unicode="&#x106;" horiz-adv-x="540" 
d="M334 0h-116c-49.333 0 -87.5 13.667 -114.5 41s-40.5 65.333 -40.5 114v333c0 49.333 13.5 87.5 40.5 114.5s65.167 40.5 114.5 40.5h116c48.667 0 86.667 -13.5 114 -40.5s41 -65.167 41 -114.5v-48c0 -12 -6 -18 -18 -18h-63c-11.333 0 -17 6 -17 18v44
c0 49.333 -24 74 -72 74h-87c-48 0 -72 -24.667 -72 -74v-325c0 -49.333 24 -74 72 -74h87c48 0 72 24.667 72 74v44c0 12 5.66699 18 17 18h63c12 0 18 -6 18 -18v-48c0 -48.667 -13.667 -86.667 -41 -114s-65.333 -41 -114 -41zM308 836h78c6 0 9.83301 -1.66699 11.5 -5
s0.5 -7.33301 -3.5 -12l-84 -100c-6 -8 -13.667 -12 -23 -12h-48c-10.667 0 -13.667 5.66699 -9 17l52 96c5.33301 10.667 14 16 26 16z" />
    <glyph glyph-name="cacute" unicode="&#x107;" horiz-adv-x="405" 
d="M267 703h79c5.33301 0 8.83301 -1.5 10.5 -4.5s0.833984 -7.16699 -2.49902 -12.5l-84 -100c-6.66699 -8 -14.667 -12 -24 -12h-47c-12 0 -14.667 5.66699 -8 17l51 96c5.33301 10.667 13.666 16 24.999 16zM373 68v-52c0 -10.667 -6 -16 -18 -16h-147
c-49.333 0 -87.5 13.667 -114.5 41s-40.5 65.333 -40.5 114v200c0 49.333 13.5 87.5 40.5 114.5s65.167 40.5 114.5 40.5h147c12 0 18 -5.66699 18 -17v-52c0 -10.667 -6 -16 -18 -16h-133c-48 0 -72 -24.667 -72 -74v-192c0 -49.333 24 -74 72 -74h133
c12 0 18 -5.66699 18 -17z" />
    <glyph glyph-name="Cdotaccent" unicode="&#x10a;" horiz-adv-x="540" 
d="M334 0h-116c-49.333 0 -87.5 13.667 -114.5 41s-40.5 65.333 -40.5 114v333c0 49.333 13.5 87.5 40.5 114.5s65.167 40.5 114.5 40.5h116c48.667 0 86.667 -13.5 114 -40.5s41 -65.167 41 -114.5v-48c0 -12 -6 -18 -18 -18h-63c-11.333 0 -17 6 -17 18v44
c0 49.333 -24 74 -72 74h-87c-48 0 -72 -24.667 -72 -74v-325c0 -49.333 24 -74 72 -74h87c48 0 72 24.667 72 74v44c0 12 5.66699 18 17 18h63c12 0 18 -6 18 -18v-48c0 -48.667 -13.667 -86.667 -41 -114s-65.333 -41 -114 -41zM227 727v95c0 11.333 5.33301 17 16 17h65
c11.333 0 17 -5.33301 17 -16v-96c0 -11.333 -5.66699 -17 -17 -17h-65c-10.667 0 -16 5.66699 -16 17z" />
    <glyph glyph-name="cdotaccent" unicode="&#x10b;" horiz-adv-x="405" 
d="M188 590v97c0 10.667 5.33301 16 16 16h66c10 0 15 -5.33301 15 -16v-97c0 -10.667 -5 -16 -15 -16h-66c-10.667 0 -16 5.33301 -16 16zM373 68v-52c0 -10.667 -6 -16 -18 -16h-147c-49.333 0 -87.5 13.667 -114.5 41s-40.5 65.333 -40.5 114v200
c0 49.333 13.5 87.5 40.5 114.5s65.167 40.5 114.5 40.5h147c12 0 18 -5.66699 18 -17v-52c0 -10.667 -6 -16 -18 -16h-133c-48 0 -72 -24.667 -72 -74v-192c0 -49.333 24 -74 72 -74h133c12 0 18 -5.66699 18 -17z" />
    <glyph glyph-name="Ccaron" unicode="&#x10c;" horiz-adv-x="540" 
d="M334 0h-116c-49.333 0 -87.5 13.667 -114.5 41s-40.5 65.333 -40.5 114v333c0 49.333 13.5 87.5 40.5 114.5s65.167 40.5 114.5 40.5h116c48.667 0 86.667 -13.5 114 -40.5s41 -65.167 41 -114.5v-48c0 -12 -6 -18 -18 -18h-63c-11.333 0 -17 6 -17 18v44
c0 49.333 -24 74 -72 74h-87c-48 0 -72 -24.667 -72 -74v-325c0 -49.333 24 -74 72 -74h87c48 0 72 24.667 72 74v44c0 12 5.66699 18 17 18h63c12 0 18 -6 18 -18v-48c0 -48.667 -13.667 -86.667 -41 -114s-65.333 -41 -114 -41zM302 707l-47.999 0.000976562
c-9.33301 0 -16.333 3.33301 -21 10l-63 107c-5.33301 8 -3 12 7 12h45c8 0 13.333 -3.33301 16 -10l40 -78l40 78c3.33301 6.66699 8.66602 10 15.999 10h47c4 0 6.5 -1.33301 7.5 -4s0.5 -5.33398 -1.5 -8.00098l-63 -107c-4.66699 -6.66699 -12 -10 -22 -10z" />
    <glyph glyph-name="ccaron" unicode="&#x10d;" horiz-adv-x="405" 
d="M214 574c-9.33301 0 -16.333 3.33301 -21 10l-62 107c-5.33301 8 -3.33301 12 6 12h46c7.33301 0 12.333 -3.33301 15 -10l41 -78l40 78c2.66699 6.66699 8 10 16 10h45c10 0 12.333 -4 7 -12l-63 -107c-4.66699 -6.66699 -11.667 -10 -21 -10h-49zM373 68v-52
c0 -10.667 -6 -16 -18 -16h-147c-49.333 0 -87.5 13.667 -114.5 41s-40.5 65.333 -40.5 114v200c0 49.333 13.5 87.5 40.5 114.5s65.167 40.5 114.5 40.5h147c12 0 18 -5.66699 18 -17v-52c0 -10.667 -6 -16 -18 -16h-133c-48 0 -72 -24.667 -72 -74v-192
c0 -49.333 24 -74 72 -74h133c12 0 18 -5.66699 18 -17z" />
    <glyph glyph-name="Dcaron" unicode="&#x10e;" horiz-adv-x="555" 
d="M251 707c-9.33301 0 -16.332 3.33203 -20.999 9.99902l-64 107c-2 2.66699 -2.33301 5.33398 -1 8.00098s4.33301 4 9 4h45c7.33301 0 12.666 -3.33301 15.999 -10l40 -78l41 78c2.66699 6.66699 7.66699 10 15 10h46c9.33301 0 11.333 -4 6 -12l-63 -107
c-4.66699 -6.66699 -11.667 -10 -21 -10h-48zM181.001 84.999h141c48 0 72 24.667 72 74v325c0 49.333 -24 74 -72 74h-141c-7.33301 0 -11 -3.33301 -11 -10v-452c0 -7.33301 3.66699 -11 11 -11zM73.001 16.999v609c0 11.333 5.66699 17 17 17h246
c48.667 0 86.834 -13.5 114.501 -40.5s41.5 -65.167 41.5 -114.5v-333c0 -48.667 -13.833 -86.667 -41.5 -114s-65.834 -41 -114.501 -41h-246c-11.333 0 -17 5.66699 -17 17z" />
    <glyph glyph-name="dcaron" unicode="&#x10f;" horiz-adv-x="596" 
d="M599 687v-44.999c0 -18.667 -6 -42.334 -18 -71.001l-42 -98c-4.66699 -6 -9.66699 -9 -15 -9c-9.33301 0 -14 5.33301 -14 16v206c0 11.333 5.33301 17 16 17h57c10.667 0 16 -5.33301 16 -16zM253 0.000976562h-51c-48 0 -84.833 13.5 -110.5 40.5
s-38.5 65.167 -38.5 114.5v200c0 50 12.833 88.333 38.5 115s62.5 40 110.5 40h51c51.333 0 84.666 -17.667 99.999 -53h4v229c0 11.333 5.66699 17 17 17h64c11.333 0 17 -5.66699 17 -17v-669c0 -11.333 -5.66699 -17 -17 -17h-64c-11.333 0 -17 5.66699 -17 17v36h-4
c-15.333 -35.333 -48.666 -53 -99.999 -53zM357 170.001v170c0 56.667 -27.333 85 -82 85h-53c-48 0 -72 -24.667 -72 -74v-192c0 -49.333 24 -74 72 -74h53c54.667 0 82 28.333 82 85z" />
    <glyph glyph-name="Dcroat" unicode="&#x110;" horiz-adv-x="546" 
d="M191 85h140c48.667 0 73 24.667 73 74v325c0 49.333 -24.333 74 -73 74h-140c-7.33301 0 -11 -3.33301 -11 -10v-139c0 -7.33301 3.66699 -11 11 -11h103c11.333 0 17 -5.66699 17 -17v-40c0 -10.667 -5.66699 -16 -17 -16h-103c-7.33301 0 -11 -3.33301 -11 -10v-219
c0 -7.33301 3.66699 -11 11 -11zM346 0h-247c-11.333 0 -17 5.66699 -17 17v298c0 6.66699 -3.33301 10 -10 10h-32c-6.66699 0 -11.167 1.16699 -13.5 3.5s-3.5 6.5 -3.5 12.5v40c0 11.333 5.66699 17 17 17h32c6.66699 0 10 3.66699 10 11v217c0 11.333 5.66699 17 17 17
h247c49.333 0 87.666 -13.5 114.999 -40.5s41 -65.167 41 -114.5v-333c0 -48.667 -13.667 -86.667 -41 -114s-65.666 -41 -114.999 -41z" />
    <glyph glyph-name="dcroat" unicode="&#x111;" horiz-adv-x="554" 
d="M253 0l-45.001 -0.000976562c-49.333 0 -87.5 13.667 -114.5 41s-40.5 65.333 -40.5 114v142c0 48.667 13.5 86.667 40.5 114s65.167 41 114.5 41h45c23.333 0 44 -4.66699 62 -14s30.667 -22.666 38 -39.999h4v134c0 6.66699 -3.66699 10 -11 10h-142
c-10.667 0 -16 5.66699 -16 17v40c0 11.333 5.33301 17 16 17h142c7.33301 0 11 3.66699 11 11v59c0 11.333 5.66699 17 17 17h64c11.333 0 17 -5.66699 17 -17v-59c0 -7.33301 3.66699 -11 11 -11h58c11.333 0 17 -5.66699 17 -17v-40c0 -11.333 -5.66699 -17 -17 -17h-58
c-7.33301 0 -11 -3.33301 -11 -10v-515c0 -11.333 -5.66699 -17 -17 -17h-64c-11.333 0 -17 5.66699 -17 17v36h-4c-15.333 -35.333 -48.666 -53 -99.999 -53zM356.999 169.999v112c0 56 -27.333 84 -82 84h-53c-48 0 -72 -24.333 -72 -73v-134c0 -49.333 24 -74 72 -74h53
c54.667 0 82 28.333 82 85z" />
    <glyph glyph-name="Emacron" unicode="&#x112;" horiz-adv-x="480" 
d="M349 740h-200c-10.667 0 -16 5.66699 -16 17v35c0 11.333 5.33301 17 16 17h200c11.333 0 17 -5.66699 17 -17v-35c0 -11.333 -5.66699 -17 -17 -17zM410 0h-320c-11.333 0 -17 5.66699 -17 17v609c0 11.333 5.66699 17 17 17h320c10.667 0 16 -5.66699 16 -17v-51
c0 -11.333 -5.33301 -17 -16 -17h-228c-8 0 -12 -3.33301 -12 -10v-169c0 -6.66699 4 -10 12 -10h193c12 0 18 -5.66699 18 -17v-51c0 -11.333 -6 -17 -18 -17h-193c-8 0 -12 -3.33301 -12 -10v-178c0 -7.33301 4 -11 12 -11h228c10.667 0 16 -5.66699 16 -17v-51
c0 -11.333 -5.33301 -17 -16 -17z" />
    <glyph glyph-name="emacron" unicode="&#x113;" horiz-adv-x="493" 
d="M352 605h-199c-11.333 0 -17 5.66699 -17 17v34c0 11.333 5.66699 17 17 17h199c12 0 18 -5.66699 18 -17v-34c0 -11.333 -6 -17 -18 -17zM424 0h-215.999c-49.333 0 -87.5 13.667 -114.5 41s-40.5 65.333 -40.5 114v200c0 49.333 13.5 87.5 40.5 114.5
s65.167 40.5 114.5 40.5h82c49.333 0 87.666 -13.5 114.999 -40.5s41 -65.167 41 -114.5v-127c0 -12 -6 -18 -18 -18h-268c-7.33301 0 -11 -3.33301 -11 -10v-43c0 -48.667 24.333 -73 73 -73h202c12 0 18 -6 18 -18v-50c0 -10.667 -6 -16 -18 -16zM160.001 278h178.998
c6.66699 0 10 3.33301 10 10v64c0 25.333 -5.66699 43.833 -17 55.5s-29.666 17.5 -54.999 17.5h-55c-25.333 0 -43.666 -5.83301 -54.999 -17.5s-17 -30.167 -17 -55.5v-64c0 -6.66699 3.33301 -10 10 -10z" />
    <glyph glyph-name="Ebreve" unicode="&#x114;" horiz-adv-x="480" 
d="M138 824c0 8 4 12 12 12h38c8 0 12 -4 12 -12v-10c0 -20.667 3.33301 -35.167 10 -43.5s18 -12.5 34 -12.5h6c16 0 27.5 4.33301 34.5 13s10.5 23 10.5 43v10c0 8 4.33301 12 13 12h36c8.66699 0 13 -4 13 -12v-11c0 -70.667 -32.333 -106 -97 -106h-26
c-64 0 -96 35.333 -96 106v11zM410 0h-320c-11.333 0 -17 5.66699 -17 17v609c0 11.333 5.66699 17 17 17h320c10.667 0 16 -5.66699 16 -17v-51c0 -11.333 -5.33301 -17 -16 -17h-228c-8 0 -12 -3.33301 -12 -10v-169c0 -6.66699 4 -10 12 -10h193c12 0 18 -5.66699 18 -17
v-51c0 -11.333 -6 -17 -18 -17h-193c-8 0 -12 -3.33301 -12 -10v-178c0 -7.33301 4 -11 12 -11h228c10.667 0 16 -5.66699 16 -17v-51c0 -11.333 -5.33301 -17 -16 -17z" />
    <glyph glyph-name="ebreve" unicode="&#x115;" horiz-adv-x="493" 
d="M160 278h178.998c6.66699 0 10 3.33301 10 10v64c0 25.333 -5.66699 43.833 -17 55.5s-29.666 17.5 -54.999 17.5h-55c-25.333 0 -43.666 -5.83301 -54.999 -17.5s-17 -30.167 -17 -55.5v-64c0 -6.66699 3.33301 -10 10 -10zM423.998 0h-215.999
c-49.333 0 -87.5 13.667 -114.5 41s-40.5 65.333 -40.5 114v200c0 49.333 13.5 87.5 40.5 114.5s65.167 40.5 114.5 40.5h82c49.333 0 87.666 -13.5 114.999 -40.5s41 -65.167 41 -114.5v-127c0 -12 -6 -18 -18 -18h-268c-7.33301 0 -11 -3.33301 -11 -10v-43
c0 -48.667 24.333 -73 73 -73h202c12 0 18 -6 18 -18v-50c0 -10.667 -6 -16 -18 -16zM141.999 680v11c0 8 4 12 12 12h38c7.33301 0 11 -4 11 -12v-10c0 -20 3.5 -34.333 10.5 -43s18.5 -13 34.5 -13h6c16.667 0 28.5 4.33301 35.5 13s10.5 23 10.5 43v10
c0 8 3.66699 12 11 12h38c8 0 12 -4 12 -12v-11c0 -34.667 -8.5 -61 -25.5 -79s-40.833 -27 -71.5 -27h-26c-64 0 -96 35.333 -96 106z" />
    <glyph glyph-name="Edotaccent" unicode="&#x116;" horiz-adv-x="487" 
d="M201 727v95c0 11.333 5.33301 17 16 17h66c10.667 0 16 -5.33301 16 -16v-96c0 -11.333 -5.33301 -17 -16 -17h-66c-10.667 0 -16 5.66699 -16 17zM410 0h-320c-11.333 0 -17 5.66699 -17 17v609c0 11.333 5.66699 17 17 17h320c10.667 0 16 -5.66699 16 -17v-51
c0 -11.333 -5.33301 -17 -16 -17h-228c-8 0 -12 -3.33301 -12 -10v-169c0 -6.66699 4 -10 12 -10h193c12 0 18 -5.66699 18 -17v-51c0 -11.333 -6 -17 -18 -17h-193c-8 0 -12 -3.33301 -12 -10v-178c0 -7.33301 4 -11 12 -11h228c10.667 0 16 -5.66699 16 -17v-51
c0 -11.333 -5.33301 -17 -16 -17z" />
    <glyph glyph-name="edotaccent" unicode="&#x117;" horiz-adv-x="493" 
d="M204 590v97c0 10.667 5.33301 16 16 16h66c10.667 0 16 -5.33301 16 -16v-97c0 -10.667 -5.33301 -16 -16 -16h-66c-10.667 0 -16 5.33301 -16 16zM424 0h-215.999c-49.333 0 -87.5 13.667 -114.5 41s-40.5 65.333 -40.5 114v200c0 49.333 13.5 87.5 40.5 114.5
s65.167 40.5 114.5 40.5h82c49.333 0 87.666 -13.5 114.999 -40.5s41 -65.167 41 -114.5v-127c0 -12 -6 -18 -18 -18h-268c-7.33301 0 -11 -3.33301 -11 -10v-43c0 -48.667 24.333 -73 73 -73h202c12 0 18 -6 18 -18v-50c0 -10.667 -6 -16 -18 -16zM160.001 278h178.998
c6.66699 0 10 3.33301 10 10v64c0 25.333 -5.66699 43.833 -17 55.5s-29.666 17.5 -54.999 17.5h-55c-25.333 0 -43.666 -5.83301 -54.999 -17.5s-17 -30.167 -17 -55.5v-64c0 -6.66699 3.33301 -10 10 -10z" />
    <glyph glyph-name="Eogonek" unicode="&#x118;" horiz-adv-x="480" 
d="M410 558h-228c-8 0 -12 -3.33301 -12 -10v-169c0 -6.66699 4 -10 12 -10h193c12 0 18 -5.66699 18 -17v-51c0 -11.333 -6 -17 -18 -17h-193c-8 0 -12 -3.33301 -12 -10v-178c0 -7.33301 4 -11 12 -11h228c10.667 0 16 -5.66699 16 -17v-51
c0 -11.333 -5.33301 -17 -16 -17h-45l-43 -62h41c9.33301 0 15.5 -1.16699 18.5 -3.5s4.5 -6.83301 4.5 -13.5c0 -11.333 -9.5 -20.333 -28.5 -27s-38 -10 -57 -10s-31.167 5.16699 -36.5 15.5s-3.33301 21.5 6 33.5l45 67h-225c-11.333 0 -17 5.66699 -17 17v609
c0 11.333 5.66699 17 17 17h320c10.667 0 16 -5.66699 16 -17v-51c0 -11.333 -5.33301 -17 -16 -17z" />
    <glyph glyph-name="eogonek" unicode="&#x119;" horiz-adv-x="493" 
d="M428 210l-267.998 -0.000976562c-7.33301 0 -11 -3.33301 -11 -10v-43c0 -48.667 24.333 -73 73 -73h202c12 0 18 -6 18 -18v-50c0 -10.667 -6 -16 -18 -16h-53c-8.66699 -11.333 -17.5 -25.166 -26.5 -41.499s-13.167 -24.5 -12.5 -24.5c20 0 34 1 42 3
c14.667 0.666992 20.667 -4.33301 18 -15c-0.666992 -11.333 -10.334 -20.5 -29.001 -27.5s-36.167 -10.5 -52.5 -10.5s-25.833 7 -28.5 21s0.333008 26.667 9 38l34 57h-117c-49.333 0 -87.5 13.667 -114.5 41s-40.5 65.333 -40.5 114v200c0 49.333 13.5 87.5 40.5 114.5
s65.167 40.5 114.5 40.5h82c49.333 0 87.666 -13.5 114.999 -40.5s41 -65.167 41 -114.5v-127c0 -12 -6 -18 -18 -18zM150.002 351.999l-0.00195312 -64c0 -6.66699 3.33301 -10 10 -10h179c6.66699 0 10 3.33301 10 10v64c0 25.333 -5.66699 43.833 -17 55.5
s-29.666 17.5 -54.999 17.5h-55c-25.333 0 -43.666 -5.83301 -54.999 -17.5s-17 -30.167 -17 -55.5z" />
    <glyph glyph-name="Ecaron" unicode="&#x11a;" horiz-adv-x="480" 
d="M230 707c-9.33301 0 -16.332 3.33301 -20.999 10l-63 107c-5.33301 8 -3 12 7 12h45c7.33301 0 12.333 -3.33301 15 -10l41 -78l40 78c3.33301 6.66699 8.66602 10 15.999 10h46c10 0 12.333 -4 7 -12l-64 -107c-4.66699 -6.66699 -11.667 -10 -21 -10h-48zM410.001 0
h-320c-11.333 0 -17 5.66699 -17 17v609c0 11.333 5.66699 17 17 17h320c10.667 0 16 -5.66699 16 -17v-51c0 -11.333 -5.33301 -17 -16 -17h-228c-8 0 -12 -3.33301 -12 -10v-169c0 -6.66699 4 -10 12 -10h193c12 0 18 -5.66699 18 -17v-51c0 -11.333 -6 -17 -18 -17h-193
c-8 0 -12 -3.33301 -12 -10v-178c0 -7.33301 4 -11 12 -11h228c10.667 0 16 -5.66699 16 -17v-51c0 -11.333 -5.33301 -17 -16 -17z" />
    <glyph glyph-name="ecaron" unicode="&#x11b;" horiz-adv-x="493" 
d="M228 574c-9.33301 0 -16.333 3.33301 -21 10l-62 107c-5.33301 8 -3.33301 12 6 12h46c7.33301 0 12.333 -3.33301 15 -10l41 -78l40 78c2.66699 6.66699 8 10 16 10h45c10 0 12.333 -4 7 -12l-63 -107c-4.66699 -6.66699 -11.667 -10 -21 -10h-49zM424 0h-215.999
c-49.333 0 -87.5 13.667 -114.5 41s-40.5 65.333 -40.5 114v200c0 49.333 13.5 87.5 40.5 114.5s65.167 40.5 114.5 40.5h82c49.333 0 87.666 -13.5 114.999 -40.5s41 -65.167 41 -114.5v-127c0 -12 -6 -18 -18 -18h-268c-7.33301 0 -11 -3.33301 -11 -10v-43
c0 -48.667 24.333 -73 73 -73h202c12 0 18 -6 18 -18v-50c0 -10.667 -6 -16 -18 -16zM160.001 278h178.998c6.66699 0 10 3.33301 10 10v64c0 25.333 -5.66699 43.833 -17 55.5s-29.666 17.5 -54.999 17.5h-55c-25.333 0 -43.666 -5.83301 -54.999 -17.5
s-17 -30.167 -17 -55.5v-64c0 -6.66699 3.33301 -10 10 -10z" />
    <glyph glyph-name="Gcircumflex" unicode="&#x11c;" horiz-adv-x="543" 
d="M375 707h-46.001c-7.33301 0 -12.666 3.33301 -15.999 10l-40 78l-41 -78c-1.33301 -6.66699 -6.33301 -10 -15 -10h-45c-10 0 -12.333 4 -7 12l63 107c4.66699 6.66699 11.667 10 21 10h48c10 0 17.333 -3.33301 22 -10l63 -107c5.33301 -8 3 -12 -7 -12zM324.999 0
h-107c-49.333 0 -87.5 13.667 -114.5 41s-40.5 65.333 -40.5 114v333c0 49.333 13.5 87.5 40.5 114.5s65.167 40.5 114.5 40.5h107c49.333 0 87.5 -13.5 114.5 -40.5s40.5 -65.167 40.5 -114.5v-36c0 -12 -5.66699 -18 -17 -18h-63c-11.333 0 -17 6 -17 18v32
c0 49.333 -24 74 -72 74h-79c-48 0 -72 -24.667 -72 -74v-325c0 -49.333 24 -74 72 -74h79c48 0 72 24.667 72 74v90c0 6.66699 -3.66699 10 -11 10h-81c-11.333 0 -17 5.66699 -17 17v51c0 11.333 5.66699 17 17 17h168c14 0 21 -7 21 -21v-168
c0 -48.667 -13.667 -86.667 -41 -114s-65.333 -41 -114 -41z" />
    <glyph glyph-name="gcircumflex" unicode="&#x11d;" horiz-adv-x="514" 
d="M373 574h-45c-8 0 -13.333 3.33301 -16 10l-40 78l-41 -78c-2.66699 -6.66699 -7.66699 -10 -15 -10h-46c-9.33301 0 -11.333 4 -6 12l62 107c4.66699 6.66699 11.667 10 21 10h49c9.33301 0 16.333 -3.33301 21 -10l63 -107c5.33301 -8 3 -12 -7 -12zM249 25h-44.998
c-48 0 -84.833 13.5 -110.5 40.5s-38.5 65.167 -38.5 114.5v175c0 49.333 13.667 87.5 41 114.5s65.333 40.5 114 40.5h224c12 0 18 -5.66699 18 -17v-495c0 -48.667 -13.833 -86.5 -41.5 -113.5s-65.834 -40.5 -114.501 -40.5h-188c-11.333 0 -17 5.33301 -17 16v52
c0 11.333 5.66699 17 17 17h173c48.667 0 73 24.667 73 74v76h-4c-16.667 -36 -50.334 -54 -101.001 -54zM354.002 195v220c0 6.66699 -3.66699 10 -11 10h-119c-47.333 0 -71 -24.667 -71 -74v-166c0 -49.333 23.667 -74 71 -74h48c54.667 0 82 28 82 84z" />
    <glyph glyph-name="Gbreve" unicode="&#x11e;" horiz-adv-x="543" 
d="M162 824c0 8 3.99902 12 11.999 12h38c8.66699 0 13 -4 13 -12v-10c0 -20.667 3.33301 -35.167 10 -43.5s17.667 -12.5 33 -12.5h7c16.667 0 28.334 4.33301 35.001 13s10 23 10 43v10c0 8 4 12 12 12h37c8 0 12 -4 12 -12v-11c0 -70.667 -32.333 -106 -97 -106h-25
c-64.667 0 -97 35.333 -97 106v11zM324.999 0h-107c-49.333 0 -87.5 13.667 -114.5 41s-40.5 65.333 -40.5 114v333c0 49.333 13.5 87.5 40.5 114.5s65.167 40.5 114.5 40.5h107c49.333 0 87.5 -13.5 114.5 -40.5s40.5 -65.167 40.5 -114.5v-36c0 -12 -5.66699 -18 -17 -18
h-63c-11.333 0 -17 6 -17 18v32c0 49.333 -24 74 -72 74h-79c-48 0 -72 -24.667 -72 -74v-325c0 -49.333 24 -74 72 -74h79c48 0 72 24.667 72 74v90c0 6.66699 -3.66699 10 -11 10h-81c-11.333 0 -17 5.66699 -17 17v51c0 11.333 5.66699 17 17 17h168c14 0 21 -7 21 -21
v-168c0 -48.667 -13.667 -86.667 -41 -114s-65.333 -41 -114 -41z" />
    <glyph glyph-name="gbreve" unicode="&#x11f;" horiz-adv-x="514" 
d="M354 195v220c0 6.66699 -3.66699 10 -11 10h-119c-47.333 0 -71 -24.667 -71 -74v-166c0 -49.333 23.667 -74 71 -74h48c54.667 0 82 28 82 84zM249 25h-44.998c-48 0 -84.833 13.5 -110.5 40.5s-38.5 65.167 -38.5 114.5v175c0 49.333 13.667 87.5 41 114.5
s65.333 40.5 114 40.5h224c12 0 18 -5.66699 18 -17v-495c0 -48.667 -13.833 -86.5 -41.5 -113.5s-65.834 -40.5 -114.501 -40.5h-188c-11.333 0 -17 5.33301 -17 16v52c0 11.333 5.66699 17 17 17h173c48.667 0 73 24.667 73 74v76h-4
c-16.667 -36 -50.334 -54 -101.001 -54zM169.002 680v11c0 8 4.33301 12 13 12h37c8 0 12 -4 12 -12v-10c0 -20.667 3.5 -35.167 10.5 -43.5s18.5 -12.5 34.5 -12.5h6c16 0 27.5 4.33301 34.5 13s10.5 23 10.5 43v10c0 8 4 12 12 12h37c8 0 12 -4 12 -12v-11
c0 -70.667 -32.333 -106 -97 -106h-25c-64.667 0 -97 35.333 -97 106z" />
    <glyph glyph-name="Gdotaccent" unicode="&#x120;" horiz-adv-x="543" 
d="M222 727v95c0 11.333 5.66699 17 17 17h65c10.667 0 16 -5.33301 16 -16v-96c0 -11.333 -5.33301 -17 -16 -17h-65c-11.333 0 -17 5.66699 -17 17zM325 0h-107c-49.333 0 -87.5 13.667 -114.5 41s-40.5 65.333 -40.5 114v333c0 49.333 13.5 87.5 40.5 114.5
s65.167 40.5 114.5 40.5h107c49.333 0 87.5 -13.5 114.5 -40.5s40.5 -65.167 40.5 -114.5v-36c0 -12 -5.66699 -18 -17 -18h-63c-11.333 0 -17 6 -17 18v32c0 49.333 -24 74 -72 74h-79c-48 0 -72 -24.667 -72 -74v-325c0 -49.333 24 -74 72 -74h79c48 0 72 24.667 72 74v90
c0 6.66699 -3.66699 10 -11 10h-81c-11.333 0 -17 5.66699 -17 17v51c0 11.333 5.66699 17 17 17h168c14 0 21 -7 21 -21v-168c0 -48.667 -13.667 -86.667 -41 -114s-65.333 -41 -114 -41z" />
    <glyph glyph-name="gdotaccent" unicode="&#x121;" horiz-adv-x="514" 
d="M225 590v97c0 10.667 5.33301 16 16 16h66c10.667 0 16 -5.33301 16 -16v-97c0 -10.667 -5.33301 -16 -16 -16h-66c-10.667 0 -16 5.33301 -16 16zM249 25h-44.998c-48 0 -84.833 13.5 -110.5 40.5s-38.5 65.167 -38.5 114.5v175c0 49.333 13.667 87.5 41 114.5
s65.333 40.5 114 40.5h224c12 0 18 -5.66699 18 -17v-495c0 -48.667 -13.833 -86.5 -41.5 -113.5s-65.834 -40.5 -114.501 -40.5h-188c-11.333 0 -17 5.33301 -17 16v52c0 11.333 5.66699 17 17 17h173c48.667 0 73 24.667 73 74v76h-4
c-16.667 -36 -50.334 -54 -101.001 -54zM354.002 195v220c0 6.66699 -3.66699 10 -11 10h-119c-47.333 0 -71 -24.667 -71 -74v-166c0 -49.333 23.667 -74 71 -74h48c54.667 0 82 28 82 84z" />
    <glyph glyph-name="uni0122" unicode="&#x122;" horiz-adv-x="543" 
d="M330 -48v-47c0 -20.667 -6.33301 -40.667 -19 -60l-42 -74c-4 -6 -9 -9 -15 -9c-9.33301 0 -14 5.33301 -14 16v173c0 11.333 5.66699 17 17 17h56c11.333 0 17 -5.33301 17 -16zM325 0h-107c-49.333 0 -87.5 13.667 -114.5 41s-40.5 65.333 -40.5 114v333
c0 49.333 13.5 87.5 40.5 114.5s65.167 40.5 114.5 40.5h107c49.333 0 87.5 -13.5 114.5 -40.5s40.5 -65.167 40.5 -114.5v-36c0 -12 -5.66699 -18 -17 -18h-63c-11.333 0 -17 6 -17 18v32c0 49.333 -24 74 -72 74h-79c-48 0 -72 -24.667 -72 -74v-325
c0 -49.333 24 -74 72 -74h79c48 0 72 24.667 72 74v90c0 6.66699 -3.66699 10 -11 10h-81c-11.333 0 -17 5.66699 -17 17v51c0 11.333 5.66699 17 17 17h168c14 0 21 -7 21 -21v-168c0 -48.667 -13.667 -86.667 -41 -114s-65.333 -41 -114 -41z" />
    <glyph glyph-name="uni0123" unicode="&#x123;" horiz-adv-x="514" 
d="M249 25h-44.998c-48 0 -84.833 13.5 -110.5 40.5s-38.5 65.167 -38.5 114.5v175c0 49.333 13.667 87.5 41 114.5s65.333 40.5 114 40.5h224c12 0 18 -5.66699 18 -17v-495c0 -48.667 -13.833 -86.5 -41.5 -113.5s-65.834 -40.5 -114.501 -40.5h-188
c-11.333 0 -17 5.33301 -17 16v52c0 11.333 5.66699 17 17 17h173c48.667 0 73 24.667 73 74v76h-4c-16.667 -36 -50.334 -54 -101.001 -54zM354.002 195v220c0 6.66699 -3.66699 10 -11 10h-119c-47.333 0 -71 -24.667 -71 -74v-166c0 -49.333 23.667 -74 71 -74h48
c54.667 0 82 28 82 84zM230.002 589v47c0 20.667 6 41 18 61l43 74c3.33301 5.33301 8 8 14 8c9.33301 0 14 -5 14 -15v-174c0 -11.333 -5.33301 -17 -16 -17h-57c-10.667 0 -16 5.33301 -16 16z" />
    <glyph glyph-name="hcircumflex" unicode="&#x125;" horiz-adv-x="517" 
d="M405 643h-45.002c-8 0 -13.333 3.33301 -16 10l-40 77l-41 -77c-2.66699 -6.66699 -7.66699 -10 -15 -10h-46c-9.33301 0 -11.666 4 -6.99902 12l63 106c4.66699 7.33301 11.667 11 21 11h49c9.33301 0 16.333 -3.66699 21 -11l63 -106
c4.66699 -8 2.33398 -12 -6.99902 -12zM142.998 0h-63c-11.333 0 -17 5.66699 -17 17v669c0 11.333 5.66699 17 17 17h63c11.333 0 17 -5.66699 17 -17v-229h4c16 35.333 49.667 53 101 53h44c48.667 0 86 -13.333 112 -40s39 -65 39 -115v-338c0 -11.333 -6 -17 -18 -17
h-63c-11.333 0 -17 5.66699 -17 17v334c0 49.333 -24.333 74 -73 74h-47c-54.667 0 -82 -28.333 -82 -85v-323c0 -11.333 -5.66699 -17 -17 -17z" />
    <glyph glyph-name="Hbar" unicode="&#x126;" horiz-adv-x="577" 
d="M169 0h-63c-12 0 -18 5.66699 -18 17v421c0 7.33301 -3.33301 11 -10 11h-38c-6.66699 0 -11.167 1.16699 -13.5 3.5s-3.5 6.5 -3.5 12.5v40c0 11.333 5.66699 17 17 17h38c6.66699 0 10 3.66699 10 11v93c0 11.333 6 17 18 17h63c12 0 18 -5.66699 18 -17v-93
c0 -7.33301 3.33301 -11 10 -11h212c6.66699 0 10 3 10 9v95c0 11.333 5.66699 17 17 17h63c12 0 18 -5.66699 18 -17v-93c0 -7.33301 3.66699 -11 11 -11h38c11.333 0 17 -5.66699 17 -17v-40c0 -10.667 -5.66699 -16 -17 -16h-38c-7.33301 0 -11 -3.66699 -11 -11v-421
c0 -11.333 -6 -17 -18 -17h-63c-11.333 0 -17 5.66699 -17 17v241c0 7.33301 -3.66699 11 -11 11h-211c-6.66699 0 -10 -3.66699 -10 -11v-241c0 -11.333 -6 -17 -18 -17zM197 354h211c7.33301 0 11 3.66699 11 11v73c0 7.33301 -3.66699 11 -11 11h-211
c-6.66699 0 -10 -3.66699 -10 -11v-73c0 -7.33301 3.33301 -11 10 -11z" />
    <glyph glyph-name="hbar" unicode="&#x127;" horiz-adv-x="562" 
d="M179 0h-63c-12 0 -18 5.66699 -18 17v515c0 6.66699 -3.33301 10 -10 10h-58c-11.333 0 -17 5.66699 -17 17v40c0 11.333 5.66699 17 17 17h58c6.66699 0 10 3.66699 10 11v59c0 11.333 6 17 18 17h63c12 0 18 -5.66699 18 -17v-59c0 -7.33301 3.33301 -11 10 -11h142
c11.333 0 17 -5.66699 17 -17v-40c0 -11.333 -5.66699 -17 -17 -17h-142c-6.66699 0 -10 -3.33301 -10 -10v-129h4c6.66699 17.333 19 30.833 37 40.5s38.667 14.5 62 14.5h46c48.667 0 86.667 -13.667 114 -41s41 -65.333 41 -114v-286c0 -11.333 -6 -17 -18 -17h-63
c-11.333 0 -17 5.66699 -17 17v281c0 49.333 -24 74 -72 74h-53c-54 0 -81 -28 -81 -84v-271c0 -11.333 -6 -17 -18 -17z" />
    <glyph glyph-name="Itilde" unicode="&#x128;" horiz-adv-x="252" 
d="M78 702c-44 0 -65.9961 25.667 -65.9961 77v39c0 6.66699 3 10 9 10h30c6.66699 0 10 -3.33301 10 -10v-20c0 -17.333 1.33301 -28.833 4 -34.5s7.33398 -8.5 14.001 -8.5s12 2.33301 16 7s10.667 15 20 31s18.166 26.5 26.499 31.5s19.5 7.5 33.5 7.5
c44.667 0 67 -25.667 67 -77v-38c0 -8 -3.33301 -12 -10 -12h-30c-6.66699 0 -10 4 -10 12v19c0 17.333 -1.33301 28.833 -4 34.5s-7.33398 8.5 -14.001 8.5s-11.834 -2 -15.501 -6s-9.83398 -13.833 -18.501 -29.5s-17.834 -26.5 -27.501 -32.5s-21.167 -9 -34.5 -9z
M175.004 626v-609c0 -11.333 -5.66699 -17 -17 -17h-63c-11.333 0 -17 5.66699 -17 17v609c0 11.333 5.66699 17 17 17h63c11.333 0 17 -5.66699 17 -17z" />
    <glyph glyph-name="itilde" unicode="&#x129;" horiz-adv-x="233" 
d="M2 652v38c0 7.33301 3 11 9 11h30c6.66699 0 10 -3.66699 10 -11v-19c0 -17.333 1.33301 -28.833 4 -34.5s7.33398 -8.5 14.001 -8.5s12 2.33301 16 7s10.667 14.834 20 30.501s18.166 26.167 26.499 31.5s19.5 8 33.5 8c44.667 0 67 -25.667 67 -77v-38
c0 -8 -3.33301 -12 -10 -12h-30c-6.66699 0 -10 4 -10 12v18c0 17.333 -1.33301 28.833 -4 34.5s-7.5 8.5 -14.5 8.5s-12.167 -2 -15.5 -6s-9.33301 -13.833 -18 -29.5s-17.667 -26.334 -27 -32.001s-21 -8.5 -35 -8.5c-44 0 -66 25.667 -66 77zM68 17v476
c0 11.333 5.33301 17 16 17h64c11.333 0 17 -5.66699 17 -17v-476c0 -6.66699 -1.16699 -11.167 -3.5 -13.5s-6.5 -3.5 -12.5 -3.5h-64c-11.333 0 -17 5.66699 -17 17z" />
    <glyph glyph-name="Imacron" unicode="&#x12a;" horiz-adv-x="252" 
d="M226 740h-199c-11.333 0 -17 5.66699 -17 17v35c0 11.333 5.66699 17 17 17h199c11.333 0 17 -5.66699 17 -17v-35c0 -11.333 -5.66699 -17 -17 -17zM175 626v-609c0 -11.333 -5.66699 -17 -17 -17h-63c-11.333 0 -17 5.66699 -17 17v609c0 11.333 5.66699 17 17 17h63
c11.333 0 17 -5.66699 17 -17z" />
    <glyph glyph-name="imacron" unicode="&#x12b;" horiz-adv-x="232" 
d="M216 605h-200c-11.333 0 -17 5.66699 -17 17v34c0 11.333 5.66699 17 17 17h200c10.667 0 16 -5.66699 16 -17v-34c0 -11.333 -5.33301 -17 -16 -17zM68 17v476c0 11.333 5.33301 17 16 17h64c11.333 0 17 -5.66699 17 -17v-476c0 -6.66699 -1.16699 -11.167 -3.5 -13.5
s-6.5 -3.5 -12.5 -3.5h-64c-11.333 0 -17 5.66699 -17 17z" />
    <glyph glyph-name="Ibreve" unicode="&#x12c;" horiz-adv-x="253" 
d="M17 824c0 8 3.99902 12 11.999 12h38c8.66699 0 13 -4 13 -12v-10c0 -20.667 3.33301 -35.167 10 -43.5s17.667 -12.5 33 -12.5h7c16.667 0 28.334 4.33301 35.001 13s10 23 10 43v10c0 8 4 12 12 12h37c8 0 12 -4 12 -12v-11c0 -70.667 -32.333 -106 -97 -106h-25
c-64.667 0 -97 35.333 -97 106v11zM174.999 626v-609c0 -11.333 -5.66699 -17 -17 -17h-63c-11.333 0 -17 5.66699 -17 17v609c0 11.333 5.66699 17 17 17h63c11.333 0 17 -5.66699 17 -17z" />
    <glyph glyph-name="ibreve" unicode="&#x12d;" horiz-adv-x="233" 
d="M68 17v476c0 11.333 5.33301 17 16 17h64c11.333 0 17 -5.66699 17 -17v-476c0 -6.66699 -1.16699 -11.167 -3.5 -13.5s-6.5 -3.5 -12.5 -3.5h-64c-11.333 0 -17 5.66699 -17 17zM7 680l-0.000976562 11c0 8 4 12 12 12h38c8.66699 0 13 -4 13 -12v-10
c0 -20.667 3.33301 -35.167 10 -43.5s17.667 -12.5 33 -12.5h7c16.667 0 28.334 4.33301 35.001 13s10 23 10 43v10c0 8 4 12 12 12h37c8 0 12 -4 12 -12v-11c0 -70.667 -32.333 -106 -97 -106h-25c-64.667 0 -97 35.333 -97 106z" />
    <glyph glyph-name="Iogonek" unicode="&#x12e;" horiz-adv-x="253" 
d="M158 0h-5.99902l-44 -62h41c9.33301 0 15.666 -1.16699 18.999 -3.5s5 -6.83301 5 -13.5c0 -11.333 -9.66699 -20.333 -29 -27s-38.5 -10 -57.5 -10s-31 5.16699 -36 15.5s-3.16699 21.5 5.5 33.5l45 67h-6c-11.333 0 -17 5.66699 -17 17v609c0 11.333 5.66699 17 17 17
h63c11.333 0 17 -5.66699 17 -17v-609c0 -11.333 -5.66699 -17 -17 -17z" />
    <glyph glyph-name="iogonek" unicode="&#x12f;" horiz-adv-x="233" 
d="M84 702h65c10.667 0 16 -5.33301 16 -16v-91c0 -11.333 -5.33301 -17 -16 -17h-65c-10.667 0 -16 5.66699 -16 17v91c0 10.667 5.33301 16 16 16zM84 510l64.001 -0.000976562c11.333 0 17 -5.66699 17 -17v-476c0 -6.66699 -1.16699 -11.167 -3.5 -13.5
s-6.5 -3.5 -12.5 -3.5h-12c-8.66699 -11.333 -17.5 -25.166 -26.5 -41.499s-13.167 -24.5 -12.5 -24.5c20 0 34 1 42 3c14.667 0.666992 20.667 -4.33301 18 -15c-0.666992 -11.333 -10.334 -20.5 -29.001 -27.5s-36.167 -10.5 -52.5 -10.5s-25.833 7 -28.5 21
s0.333008 26.667 9 38l34 57h-6c-11.333 0 -17 5.66699 -17 17v476c0 11.333 5.33301 17 16 17z" />
    <glyph glyph-name="Idotaccent" unicode="&#x130;" horiz-adv-x="253" 
d="M175 626v-609c0 -11.333 -5.66699 -17 -17 -17h-63c-11.333 0 -17 5.66699 -17 17v609c0 11.333 5.66699 17 17 17h63c11.333 0 17 -5.66699 17 -17zM78 714v90c0 11.333 5.33301 17 16 17h65c10.667 0 16 -5.33301 16 -16v-91c0 -11.333 -5.33301 -17 -16 -17h-65
c-10.667 0 -16 5.66699 -16 17z" />
    <glyph glyph-name="dotlessi" unicode="&#x131;" horiz-adv-x="239" 
d="M70 17v476c0 11.333 5.66699 17 17 17h64c11.333 0 17 -5.66699 17 -17v-476c0 -6.66699 -1.16699 -11.167 -3.5 -13.5s-6.5 -3.5 -12.5 -3.5h-65c-11.333 0 -17 5.66699 -17 17z" />
    <glyph glyph-name="IJ" unicode="&#x132;" horiz-adv-x="741" 
d="M593 643h62.999c11.333 0 17 -5.33301 17 -16v-472c0 -48.667 -13.667 -86.667 -41 -114s-65.333 -41 -114 -41h-100c-49.333 0 -87.666 13.667 -114.999 41s-41 65.333 -41 114v90c0 11.333 5.66699 17 17 17h64c11.333 0 17 -5.66699 17 -17v-86
c0 -49.333 24 -74 72 -74h71c48 0 72 24.667 72 74v467c0 11.333 6 17 18 17zM177.999 626v-609c0 -11.333 -5.66699 -17 -17 -17h-64c-11.333 0 -17 5.66699 -17 17v609c0 11.333 5.66699 17 17 17h64c11.333 0 17 -5.66699 17 -17z" />
    <glyph glyph-name="ij" unicode="&#x133;" horiz-adv-x="463" 
d="M68 17v476c0 11.333 5.33301 17 16 17h64c11.333 0 17 -5.66699 17 -17v-476c0 -6.66699 -1.16699 -11.167 -3.5 -13.5s-6.5 -3.5 -12.5 -3.5h-64c-11.333 0 -17 5.66699 -17 17zM68 595v91c0 10.667 5.33301 16 16 16h65c10.667 0 16 -5.33301 16 -16v-91
c0 -11.333 -5.33301 -17 -16 -17h-65c-10.667 0 -16 5.66699 -16 17zM297 595v91c0 10.667 5.33301 16 16 16h65c11.333 0 17 -5.33301 17 -16v-91c0 -11.333 -5.66699 -17 -17 -17h-65c-10.667 0 -16 5.66699 -16 17zM238 -156l-52 0.000976562
c-11.333 0 -17 5.66699 -17 17v51c0 11.333 5.66699 17 17 17h25c31.333 0 53.5 6.66699 66.5 20s19.5 35.666 19.5 66.999v477c0 11.333 6 17 18 17h63c11.333 0 17 -5.66699 17 -17v-494c0 -48.667 -13.833 -86.667 -41.5 -114s-66.167 -41 -115.5 -41z" />
    <glyph glyph-name="Jcircumflex" unicode="&#x134;" horiz-adv-x="497" 
d="M365 643h62.999c11.333 0 17 -5.33301 17 -16v-472c0 -48.667 -13.667 -86.667 -41 -114s-65.333 -41 -114 -41h-100c-49.333 0 -87.666 13.667 -114.999 41s-41 65.333 -41 114v90c0 11.333 6 17 18 17h63c11.333 0 17 -5.66699 17 -17v-86c0 -49.333 24 -74 72 -74h71
c48 0 72 24.667 72 74v467c0 11.333 6 17 18 17zM496.999 707l-46.001 0.000976562c-8 0 -13.333 3.33301 -16 10l-40 78l-40 -78c-3.33301 -6.66699 -8.66602 -10 -15.999 -10h-46c-4 0 -6.66699 1.16699 -8 3.5s-1 5.16602 1 8.49902l64 107
c4.66699 6.66699 11.667 10 21 10h48c9.33301 0 16.333 -3.33301 21 -10l63 -107c5.33301 -8 3.33301 -12 -6 -12z" />
    <glyph glyph-name="jcircumflex" unicode="&#x135;" horiz-adv-x="230" 
d="M216 574h-46.001c-7.33301 0 -12.666 3.33301 -15.999 10l-40 78l-41 -78c-2 -6.66699 -7 -10 -15 -10h-45c-10 0 -12.333 4 -7 12l62 107c4.66699 6.66699 12 10 22 10h48c10 0 17.333 -3.33301 22 -10l62 -107c5.33301 -8 3.33301 -12 -6 -12zM8.99902 -156
l-52.999 0.000976562c-11.333 0 -17 5.66699 -17 17v51c0 11.333 5.66699 17 17 17h26c31.333 0 53.5 6.66699 66.5 20s19.5 35.666 19.5 66.999v477c0 11.333 5.66699 17 17 17h63c11.333 0 17 -5.66699 17 -17v-494c0 -48.667 -13.833 -86.667 -41.5 -114
s-65.834 -41 -114.501 -41z" />
    <glyph glyph-name="uni0136" unicode="&#x136;" horiz-adv-x="548" 
d="M342 -48v-47c0 -20.667 -6 -40.667 -18 -60l-42 -74c-4 -6 -9 -9 -15 -9c-9.33301 0 -14 5.33301 -14 16v173c0 11.333 5.33301 17 16 17h58c10 0 15 -5.33301 15 -16zM153 0h-63.001c-11.333 0 -17 5.66699 -17 17v609c0 11.333 5.66699 17 17 17h63
c11.333 0 17 -5.66699 17 -17v-317h3c6.66699 18 15.334 34.667 26.001 50l191 267c7.33301 11.333 18 17 32 17h74c14 0 16.333 -6.33301 7 -19l-195 -265l220 -339c8 -13.333 4 -20 -12 -20h-56c-18 0 -30.667 5.66699 -38 17l-173 271l-79 -93v-178
c0 -11.333 -5.66699 -17 -17 -17z" />
    <glyph glyph-name="uni0137" unicode="&#x137;" horiz-adv-x="456" 
d="M353 510h71.998c6 0 10.167 -1.83301 12.5 -5.5s1.5 -8.5 -2.5 -14.5l-141 -224v-4l152 -242c3.33301 -5.33301 3.83301 -10 1.5 -14s-7.16602 -6 -14.499 -6h-65c-15.333 0 -26.666 5.66699 -33.999 17l-141 231c-4.66699 8.66699 -4.66699 17.667 0 27l131 219
c6 10.667 15.667 16 29 16zM142.998 0h-63c-11.333 0 -17 5.66699 -17 17v669c0 11.333 5.66699 17 17 17h63c11.333 0 17 -5.66699 17 -17v-669c0 -11.333 -5.66699 -17 -17 -17zM291.998 -48v-47c0 -20.667 -6 -40.667 -18 -60l-42 -74c-5.33301 -6 -10.333 -9 -15 -9
c-9.33301 0 -14 5.33301 -14 16v173c0 11.333 5.33301 17 16 17h58c10 0 15 -5.33301 15 -16z" />
    <glyph glyph-name="Lacute" unicode="&#x139;" horiz-adv-x="450" 
d="M167 836h77.999c6 0 9.83301 -1.66699 11.5 -5s0.5 -7.33301 -3.5 -12l-85 -100c-5.33301 -8 -12.666 -12 -21.999 -12h-48c-10.667 0 -13.667 5.66699 -9 17l52 96c5.33301 10.667 14 16 26 16zM413.999 0h-324c-11.333 0 -17 5.66699 -17 17v609
c0 11.333 5.66699 17 17 17h63c11.333 0 17 -5.66699 17 -17v-529c0 -6.66699 4 -10 12 -10h232c11.333 0 17 -6 17 -18v-52c0 -11.333 -5.66699 -17 -17 -17z" />
    <glyph glyph-name="lacute" unicode="&#x13a;" horiz-adv-x="229" 
d="M159 881h78.001c5.33301 0 9 -1.66699 11 -5s1.33301 -7.33301 -2 -12l-85 -101c-7.33301 -7.33301 -15.333 -11 -24 -11h-47c-10.667 0 -13.334 5.66699 -8.00098 17l52 96c4.66699 10.667 13 16 25 16zM148.001 0h-63c-11.333 0 -17 5.66699 -17 17v669
c0 11.333 5.66699 17 17 17h63c11.333 0 17 -5.66699 17 -17v-669c0 -11.333 -5.66699 -17 -17 -17z" />
    <glyph glyph-name="uni013B" unicode="&#x13b;" horiz-adv-x="450" 
d="M294 -48v-47c0 -19.333 -6.33301 -39.333 -19 -60l-42 -74c-4 -6 -9 -9 -15 -9c-9.33301 0 -14 5.33301 -14 16v173c0 11.333 5.33301 17 16 17h58c10.667 0 16 -5.33301 16 -16zM414 0h-324c-11.333 0 -17 5.66699 -17 17v609c0 11.333 5.66699 17 17 17h63
c11.333 0 17 -5.66699 17 -17v-529c0 -6.66699 4 -10 12 -10h232c11.333 0 17 -6 17 -18v-52c0 -11.333 -5.66699 -17 -17 -17z" />
    <glyph glyph-name="uni013C" unicode="&#x13c;" horiz-adv-x="233" 
d="M162 -48v-47c0 -20.667 -6.33301 -40.667 -19 -60l-42 -74c-4 -6 -9 -9 -15 -9c-8.66699 0 -13 5.33301 -13 16v173c0 11.333 5.33301 17 16 17h57c10.667 0 16 -5.33301 16 -16zM148 0h-63c-11.333 0 -17 5.66699 -17 17v669c0 11.333 5.66699 17 17 17h63
c11.333 0 17 -5.66699 17 -17v-669c0 -11.333 -5.66699 -17 -17 -17z" />
    <glyph glyph-name="Lcaron" unicode="&#x13d;" horiz-adv-x="450" 
d="M382 627v-44.999c0 -18.667 -6 -42.334 -18 -71.001l-43 -98c-3.33301 -6 -8.33301 -9 -15 -9c-8.66699 0 -13 5.33301 -13 16v206c0 11.333 5.33301 17 16 17h57c10.667 0 16 -5.33301 16 -16zM414 0.000976562h-324c-11.333 0 -17 5.66699 -17 17v609
c0 11.333 5.66699 17 17 17h63c11.333 0 17 -5.66699 17 -17v-529c0 -6.66699 4 -10 12 -10h232c11.333 0 17 -6 17 -18v-52c0 -11.333 -5.66699 -17 -17 -17z" />
    <glyph glyph-name="lcaron" unicode="&#x13e;" horiz-adv-x="326" 
d="M317 687v-45c0 -21.333 -6 -45 -18 -71l-43 -98c-3.33301 -6 -8 -9 -14 -9c-9.33301 0 -14 5.33301 -14 16v206c0 11.333 5.33301 17 16 17h57c10.667 0 16 -5.33301 16 -16zM148 0h-63c-11.333 0 -17 5.66699 -17 17v669c0 11.333 5.66699 17 17 17h63
c11.333 0 17 -5.66699 17 -17v-669c0 -11.333 -5.66699 -17 -17 -17z" />
    <glyph glyph-name="Ldot" unicode="&#x13f;" horiz-adv-x="499" 
d="M420 0h-325c-11.333 0 -17 5.66699 -17 17v609c0 11.333 5.66699 17 17 17h64c11.333 0 17 -5.66699 17 -17v-529c0 -6.66699 3.66699 -10 11 -10h233c11.333 0 17 -6 17 -18v-52c0 -11.333 -5.66699 -17 -17 -17zM384 371v-104c0 -11.333 -5.33301 -17 -16 -17h-68
c-11.333 0 -17 6 -17 18v102c0 11.333 5.66699 17 17 17h68c10.667 0 16 -5.33301 16 -16z" />
    <glyph glyph-name="ldot" unicode="&#x140;" horiz-adv-x="367" 
d="M154 0h-64c-11.333 0 -17 5.66699 -17 17v669c0 11.333 5.66699 17 17 17h64c11.333 0 17 -5.66699 17 -17v-669c0 -11.333 -5.66699 -17 -17 -17zM340 371v-104c0 -11.333 -5 -17 -15 -17h-69c-10.667 0 -16 6 -16 18v102c0 11.333 5.33301 17 16 17h69
c10 0 15 -5.33301 15 -16z" />
    <glyph glyph-name="Lslash" unicode="&#x141;" horiz-adv-x="512" 
d="M440 0l-325 -0.000976562c-11.333 0 -17 5.66699 -17 17v302l-67 -38c-4.66699 -2.66699 -8.66699 -3 -12 -1s-5 5.66699 -5 11v51c0 10 5.66699 18.333 17 25l67 37v222c0 11.333 5.66699 17 17 17h64c11.333 0 17 -5.66699 17 -17v-165l89 50
c11.333 4.66699 17 1.33398 17 -9.99902v-52c0 -10 -5.66699 -18.667 -17 -26l-89 -50v-276c0 -6.66699 3.66699 -10 11 -10h233c10.667 0 16 -6 16 -18v-52c0 -11.333 -5.33301 -17 -16 -17z" />
    <glyph glyph-name="lslash" unicode="&#x142;" horiz-adv-x="312" 
d="M187 0l-63 -0.000976562c-11.333 0 -17 5.66699 -17 17v309l-72 -41c-11.333 -4.66699 -17 -1 -17 11v53c0 10 5.66699 18 17 24l72 40v273c0 11.333 5.66699 17 17 17h63c12 0 18 -5.66699 18 -17v-217l72 41c10.667 5.33301 16 2 16 -10v-52
c0 -11.333 -5.33301 -19.666 -16 -24.999l-72 -41v-365c0 -11.333 -6 -17 -18 -17z" />
    <glyph glyph-name="Nacute" unicode="&#x143;" horiz-adv-x="583" 
d="M336 836h76.999c6 0 9.83301 -1.66699 11.5 -5s0.833984 -7.33301 -2.49902 -12l-85 -100c-4.66699 -8 -12 -12 -22 -12h-49c-10 0 -12.667 5.66699 -8 17l52 96c5.33301 10.667 14 16 26 16zM151.999 0h-61.999c-11.333 0 -17 5.66699 -17 17v609
c0 11.333 5.66699 17 17 17h56c10.667 0 18 -3.66699 22 -11l242 -435h4v429c0 11.333 5.66699 17 17 17h62c11.333 0 17 -5.66699 17 -17v-609c0 -11.333 -5.66699 -17 -17 -17h-54c-10.667 -0 -19.334 5.33301 -26.001 16l-240 430h-4v-429
c0 -11.333 -5.66699 -17 -17 -17z" />
    <glyph glyph-name="nacute" unicode="&#x144;" horiz-adv-x="517" 
d="M309 703h79.001c5.33301 0 8.83301 -1.5 10.5 -4.5s0.833984 -7.16699 -2.49902 -12.5l-85 -100c-6 -8 -14 -12 -24 -12h-47c-10.667 0 -13.334 5.66699 -8.00098 17l52 96c5.33301 10.667 13.666 16 24.999 16zM143.001 0h-63c-11.333 0 -17 5.66699 -17 17v476
c0 11.333 5.66699 17 17 17h63c11.333 0 17 -5.66699 17 -17v-36h4c16 35.333 49.667 53 101 53h44c48.667 0 86 -13.333 112 -40s39 -65 39 -115v-338c0 -11.333 -6 -17 -18 -17h-63c-11.333 0 -17 5.66699 -17 17v334c0 49.333 -24.333 74 -73 74h-47
c-54.667 0 -82 -28.333 -82 -85v-323c0 -11.333 -5.66699 -17 -17 -17z" />
    <glyph glyph-name="uni0145" unicode="&#x145;" horiz-adv-x="583" 
d="M342 -48v-47c0 -20.667 -6 -40.667 -18 -60l-43 -74c-3.33301 -6 -8 -9 -14 -9c-9.33301 0 -14 5.33301 -14 16v173c0 11.333 5.33301 17 16 17h57c10.667 0 16 -5.33301 16 -16zM152 0h-61.999c-11.333 0 -17 5.66699 -17 17v609c0 11.333 5.66699 17 17 17h56
c10.667 0 18 -3.66699 22 -11l242 -435h4v429c0 11.333 5.66699 17 17 17h62c11.333 0 17 -5.66699 17 -17v-609c0 -11.333 -5.66699 -17 -17 -17h-54c-10.667 -0 -19.334 5.33301 -26.001 16l-240 430h-4v-429c0 -11.333 -5.66699 -17 -17 -17z" />
    <glyph glyph-name="uni0146" unicode="&#x146;" horiz-adv-x="515" 
d="M306 -48v-47c0 -20.667 -6.33301 -40.667 -19 -60l-41 -74c-5.33301 -6 -10.333 -9 -15 -9c-9.33301 0 -14 5.33301 -14 16v173c0 11.333 5.33301 17 16 17h57c10.667 0 16 -5.33301 16 -16zM143 0h-63c-11.333 0 -17 5.66699 -17 17v476c0 11.333 5.66699 17 17 17h63
c11.333 0 17 -5.66699 17 -17v-36h4c16 35.333 49.667 53 101 53h44c48.667 0 86 -13.333 112 -40s39 -65 39 -115v-338c0 -11.333 -6 -17 -18 -17h-63c-11.333 0 -17 5.66699 -17 17v334c0 49.333 -24.333 74 -73 74h-47c-54.667 0 -82 -28.333 -82 -85v-323
c0 -11.333 -5.66699 -17 -17 -17z" />
    <glyph glyph-name="Ncaron" unicode="&#x147;" horiz-adv-x="583" 
d="M152 0h-61.999c-11.333 0 -17 5.66699 -17 17v609c0 11.333 5.66699 17 17 17h56c10.667 0 18 -3.66699 22 -11l242 -435h4v429c0 11.333 5.66699 17 17 17h62c11.333 0 17 -5.66699 17 -17v-609c0 -11.333 -5.66699 -17 -17 -17h-54
c-10.667 -0 -19.334 5.33301 -26.001 16l-240 430h-4v-429c0 -11.333 -5.66699 -17 -17 -17zM274.001 707c-10 0 -17.333 3.33301 -22 10l-63 107c-2 2.66699 -2.33301 5.33398 -1 8.00098s4 4 8 4h45c8 0 13.333 -3.33301 16 -10l40 -78l41 78
c2.66699 6.66699 7.66699 10 15 10h47c4 0 6.5 -1.33301 7.5 -4s0.5 -5.33398 -1.5 -8.00098l-63 -107c-4.66699 -6.66699 -11.667 -10 -21 -10h-48z" />
    <glyph glyph-name="ncaron" unicode="&#x148;" horiz-adv-x="517" 
d="M237 574c-10 0 -17.332 3.33301 -21.999 10l-62 107c-5.33301 8 -3 12 7 12h45c8 0 13.333 -3.33301 16 -10l40 -78l40 78c3.33301 6.66699 8.66602 10 15.999 10h46c9.33301 0 11.333 -4 6 -12l-62 -107c-4.66699 -6.66699 -12 -10 -22 -10h-48zM143.001 0h-63
c-11.333 0 -17 5.66699 -17 17v476c0 11.333 5.66699 17 17 17h63c11.333 0 17 -5.66699 17 -17v-36h4c16 35.333 49.667 53 101 53h44c48.667 0 86 -13.333 112 -40s39 -65 39 -115v-338c0 -11.333 -6 -17 -18 -17h-63c-11.333 0 -17 5.66699 -17 17v334
c0 49.333 -24.333 74 -73 74h-47c-54.667 0 -82 -28.333 -82 -85v-323c0 -11.333 -5.66699 -17 -17 -17z" />
    <glyph glyph-name="Eng" unicode="&#x14a;" horiz-adv-x="562" 
d="M360 -160l-52.999 0.000976562c-11.333 0 -17 5.66699 -17 17v51c0 11.333 5.66699 17 17 17h25c30.667 0 52.5 6.66699 65.5 20s19.5 35.666 19.5 66.999v4l-116 211.5c-64 117.667 -104.333 190.5 -121 218.5h-4v-429c0 -11.333 -5.66699 -17 -17 -17h-64
c-11.333 0 -17 5.66699 -17 17v609c0 11.333 5.66699 17 17 17h58c10 0 17 -3.66699 21 -11l240 -435h4v429c0 11.333 5.66699 17 17 17h64c11.333 0 17 -5.66699 17 -17v-631c0 -48.667 -13.833 -86.667 -41.5 -114s-65.834 -41 -114.501 -41z" />
    <glyph glyph-name="eng" unicode="&#x14b;" horiz-adv-x="517" 
d="M303 -160l-52.001 0.000976562c-11.333 0 -17 5.66699 -17 17v51c0 11.333 5.66699 17 17 17h25c31.333 0 53.5 6.66699 66.5 20s19.5 35.666 19.5 66.999v339c0 49.333 -24.333 74 -73 74h-47c-54.667 0 -82 -28.333 -82 -85v-323c0 -11.333 -5.66699 -17 -17 -17h-63
c-11.333 0 -17 5.66699 -17 17v476c0 11.333 5.66699 17 17 17h63c11.333 0 17 -5.66699 17 -17v-36h4c16 35.333 49.667 53 101 53h39c48.667 0 86.834 -13.5 114.501 -40.5s41.5 -65.167 41.5 -114.5v-360c0 -48.667 -14 -86.667 -42 -114s-66.333 -41 -115 -41z" />
    <glyph glyph-name="Omacron" unicode="&#x14c;" horiz-adv-x="552" 
d="M376 740h-200c-11.333 0 -17 5.66699 -17 17v35c0 11.333 5.66699 17 17 17h200c11.333 0 17 -5.66699 17 -17v-35c0 -11.333 -5.66699 -17 -17 -17zM232 85h87c48.667 0 73 24.667 73 74v325c0 49.333 -24.333 74 -73 74h-87c-48 0 -72 -24.667 -72 -74v-325
c0 -49.333 24 -74 72 -74zM334 0h-116c-49.333 0 -87.5 13.667 -114.5 41s-40.5 65.333 -40.5 114v333c0 49.333 13.5 87.5 40.5 114.5s65.167 40.5 114.5 40.5h116c49.333 0 87.666 -13.5 114.999 -40.5s41 -65.167 41 -114.5v-333c0 -48.667 -13.667 -86.667 -41 -114
s-65.666 -41 -114.999 -41z" />
    <glyph glyph-name="omacron" unicode="&#x14d;" horiz-adv-x="504" 
d="M352 605h-200c-11.333 0 -17 5.66699 -17 17v34c0 11.333 5.66699 17 17 17h200c11.333 0 17 -5.66699 17 -17v-34c0 -11.333 -5.66699 -17 -17 -17zM296 0h-88c-49.333 0 -87.5 13.667 -114.5 41s-40.5 65.333 -40.5 114v200c0 49.333 13.5 87.5 40.5 114.5
s65.167 40.5 114.5 40.5h88c48.667 0 86.834 -13.5 114.501 -40.5s41.5 -65.167 41.5 -114.5v-200c0 -48.667 -13.833 -86.667 -41.5 -114s-65.834 -41 -114.501 -41zM222 85h61c48 0 72 24.333 72 73v194c0 48.667 -24 73 -72 73h-61
c-25.333 0 -43.666 -5.83301 -54.999 -17.5s-17 -30.167 -17 -55.5v-194c0 -25.333 5.66699 -43.833 17 -55.5s29.666 -17.5 54.999 -17.5z" />
    <glyph glyph-name="Obreve" unicode="&#x14e;" horiz-adv-x="552" 
d="M167 824c0 8 4 12 12 12h38c8 0 12 -4 12 -12v-10c0 -20 3.5 -34.333 10.5 -43s18.167 -13 33.5 -13h6c16.667 0 28.5 4.33301 35.5 13s10.5 23 10.5 43v10c0 8 4 12 12 12h37c8 0 12 -4 12 -12v-11c0 -70.667 -32.333 -106 -97 -106h-25c-64.667 0 -97 35.333 -97 106
v11zM232 85h87c48.667 0 73 24.667 73 74v325c0 49.333 -24.333 74 -73 74h-87c-48 0 -72 -24.667 -72 -74v-325c0 -49.333 24 -74 72 -74zM334 0h-116c-49.333 0 -87.5 13.667 -114.5 41s-40.5 65.333 -40.5 114v333c0 49.333 13.5 87.5 40.5 114.5s65.167 40.5 114.5 40.5
h116c49.333 0 87.666 -13.5 114.999 -40.5s41 -65.167 41 -114.5v-333c0 -48.667 -13.667 -86.667 -41 -114s-65.666 -41 -114.999 -41z" />
    <glyph glyph-name="obreve" unicode="&#x14f;" horiz-adv-x="504" 
d="M222 85h61c48 0 72 24.333 72 73v194c0 48.667 -24 73 -72 73h-61c-25.333 0 -43.666 -5.83301 -54.999 -17.5s-17 -30.167 -17 -55.5v-194c0 -25.333 5.66699 -43.833 17 -55.5s29.666 -17.5 54.999 -17.5zM296 0h-88c-49.333 0 -87.5 13.667 -114.5 41
s-40.5 65.333 -40.5 114v200c0 49.333 13.5 87.5 40.5 114.5s65.167 40.5 114.5 40.5h88c48.667 0 86.834 -13.5 114.501 -40.5s41.5 -65.167 41.5 -114.5v-200c0 -48.667 -13.833 -86.667 -41.5 -114s-65.834 -41 -114.501 -41zM143 680l0.000976562 11c0 8 4 12 12 12h38
c8 0 12 -4 12 -12v-10c0 -20.667 3.33301 -35.167 10 -43.5s18 -12.5 34 -12.5h7c16 0 27.5 4.33301 34.5 13s10.5 23 10.5 43v10c0 8 4 12 12 12h36c8.66699 0 13 -4 13 -12v-11c0 -70.667 -32.333 -106 -97 -106h-26c-30.667 0 -54.334 9 -71.001 27s-25 44.333 -25 79z
" />
    <glyph glyph-name="Ohungarumlaut" unicode="&#x150;" horiz-adv-x="552" 
d="M251 836h52c12.667 0 15.667 -5.66699 9 -17l-75 -100c-6 -8 -13.333 -12 -22 -12h-32c-11.333 0 -14 5.66699 -8 17l51 96c6 10.667 14.333 16 25 16zM393 836h51.999c12.667 0 15.334 -5.66699 8.00098 -17l-74 -100c-7.33301 -8 -15 -12 -23 -12h-31
c-11.333 0 -14 5.66699 -8 17l51 96c4.66699 10.667 13 16 25 16zM231.999 85h87c48.667 0 73 24.667 73 74v325c0 49.333 -24.333 74 -73 74h-87c-48 0 -72 -24.667 -72 -74v-325c0 -49.333 24 -74 72 -74zM333.999 0h-116c-49.333 0 -87.5 13.667 -114.5 41
s-40.5 65.333 -40.5 114v333c0 49.333 13.5 87.5 40.5 114.5s65.167 40.5 114.5 40.5h116c49.333 0 87.666 -13.5 114.999 -40.5s41 -65.167 41 -114.5v-333c0 -48.667 -13.667 -86.667 -41 -114s-65.666 -41 -114.999 -41z" />
    <glyph glyph-name="ohungarumlaut" unicode="&#x151;" horiz-adv-x="504" 
d="M230 703h52c12.667 0 15.334 -5.66699 8.00098 -17l-75 -100c-4.66699 -8 -11.667 -12 -21 -12h-32c-10.667 0 -13.334 5.66699 -8.00098 17l51 96c4.66699 10.667 13 16 25 16zM372 703h51c13.333 0 16.333 -5.66699 9 -17l-75 -100c-6 -8 -13.333 -12 -22 -12h-31
c-12 0 -14.667 5.66699 -8 17l51 96c4.66699 10.667 13 16 25 16zM296 0h-88c-49.333 0 -87.5 13.667 -114.5 41s-40.5 65.333 -40.5 114v200c0 49.333 13.5 87.5 40.5 114.5s65.167 40.5 114.5 40.5h88c48.667 0 86.834 -13.5 114.501 -40.5s41.5 -65.167 41.5 -114.5v-200
c0 -48.667 -13.833 -86.667 -41.5 -114s-65.834 -41 -114.501 -41zM222 85h61c48 0 72 24.333 72 73v194c0 48.667 -24 73 -72 73h-61c-25.333 0 -43.666 -5.83301 -54.999 -17.5s-17 -30.167 -17 -55.5v-194c0 -25.333 5.66699 -43.833 17 -55.5s29.666 -17.5 54.999 -17.5
z" />
    <glyph glyph-name="OE" unicode="&#x152;" horiz-adv-x="779" 
d="M68 155v333c0 49.333 13.667 87.5 41 114.5s65.666 40.5 114.999 40.5h475c11.333 0 17 -5.66699 17 -17v-51c0 -11.333 -5.66699 -17 -17 -17h-223c-6.66699 0 -10 -3.33301 -10 -10v-169c0 -6.66699 3.33301 -10 10 -10h189c11.333 0 17 -5.66699 17 -17v-51
c0 -11.333 -5.66699 -17 -17 -17h-189c-6.66699 0 -10 -3.33301 -10 -10v-178c0 -7.33301 3.33301 -11 10 -11h223c11.333 0 17 -5.66699 17 -17v-51c0 -11.333 -5.66699 -17 -17 -17h-475c-49.333 0 -87.666 13.667 -114.999 41s-41 65.333 -41 114zM239 85h118
c8 0 12 3.66699 12 11v452c0 6.66699 -4 10 -12 10h-118c-48 0 -72 -24.667 -72 -74v-325c0 -49.333 24 -74 72 -74z" />
    <glyph glyph-name="oe" unicode="&#x153;" horiz-adv-x="797" 
d="M284 0l-76 -0.000976562c-49.333 0 -87.5 13.667 -114.5 41s-40.5 65.333 -40.5 114v200c0 49.333 13.5 87.5 40.5 114.5s65.167 40.5 114.5 40.5h71c59.333 0 102.666 -20.667 129.999 -62c21.333 41.333 62.333 62 123 62h59c48.667 0 86.834 -13.5 114.501 -40.5
s41.5 -65.167 41.5 -114.5v-127c0 -12 -6 -18 -18 -18h-267c-6.66699 0 -10 -3.33301 -10 -10v-41c0 -49.333 24 -74 72 -74h202c10.667 0 16 -5.66699 16 -17v-52c0 -6 -1 -10.167 -3 -12.5s-6.33301 -3.5 -13 -3.5h-200c-33.333 0 -60 5.33301 -80 16
s-36.667 27.334 -50 50.001c-16 -44 -53.333 -66 -112 -66zM462 277.999h176c7.33301 0 11 3.33301 11 10v63c0 49.333 -24 74 -72 74h-53c-48 0 -72 -24.667 -72 -74v-63c0 -6.66699 3.33301 -10 10 -10zM222 84.999h59c48 0 72 24.667 72 74v192c0 49.333 -24 74 -72 74
h-59c-48 0 -72 -24.667 -72 -74v-192c0 -49.333 24 -74 72 -74z" />
    <glyph glyph-name="Racute" unicode="&#x154;" horiz-adv-x="542" 
d="M295 836h77.999c6 0 9.83301 -1.66699 11.5 -5s0.5 -7.33301 -3.5 -12l-85 -100c-5.33301 -8 -12.666 -12 -21.999 -12h-48c-10.667 0 -13.667 5.66699 -9 17l52 96c5.33301 10.667 14 16 26 16zM152.999 0l-63.001 0.000976562c-11.333 0 -17 5.66699 -17 17v609
c0 11.333 5.66699 17 17 17h234c48.667 0 86.834 -13.833 114.501 -41.5s41.5 -65.834 41.5 -114.501v-84c0 -76.667 -31.667 -125 -95 -145v-4l111 -234c7.33301 -13.333 3 -20 -13 -20h-62c-16 0 -26.333 5.66699 -31 17l-107 230h-101c-8 0 -12 -3.33301 -12 -10v-220
c0 -11.333 -5.66699 -17 -17 -17zM180.998 327.001h127c49.333 0 74 24.333 74 73v84c0 49.333 -24.667 74 -74 74h-127c-7.33301 0 -11 -3.33301 -11 -10v-211c0 -6.66699 3.66699 -10 11 -10z" />
    <glyph glyph-name="racute" unicode="&#x155;" horiz-adv-x="335" 
d="M210 703h78.001c13.333 0 16.333 -5.66699 9 -17l-85 -100c-6 -8 -13.667 -12 -23 -12h-48c-10 0 -12.667 5.66699 -8 17l52 96c5.33301 10.667 13.666 16 24.999 16zM143.001 0h-63c-11.333 0 -17 5.66699 -17 17v476c0 11.333 5.66699 17 17 17h63
c11.333 0 17 -5.66699 17 -17v-38h4c6.66699 16.667 19.5 30 38.5 40s40.167 15 63.5 15h37c11.333 0 17 -5.66699 17 -17v-52c0 -12.667 -5.66699 -18 -17 -16h-60c-55.333 0 -83 -30.333 -83 -91v-317c0 -11.333 -5.66699 -17 -17 -17z" />
    <glyph glyph-name="uni0156" unicode="&#x156;" horiz-adv-x="542" 
d="M325 -48v-47c0 -20.667 -6.33301 -40.667 -19 -60l-42 -74c-4 -6 -9 -9 -15 -9c-9.33301 0 -14 5.33301 -14 16v173c0 11.333 5.66699 17 17 17h56c11.333 0 17 -5.33301 17 -16zM153 0l-63.001 0.000976562c-11.333 0 -17 5.66699 -17 17v609c0 11.333 5.66699 17 17 17
h234c48.667 0 86.834 -13.833 114.501 -41.5s41.5 -65.834 41.5 -114.501v-84c0 -76.667 -31.667 -125 -95 -145v-4l111 -234c7.33301 -13.333 3 -20 -13 -20h-62c-16 0 -26.333 5.66699 -31 17l-107 230h-101c-8 0 -12 -3.33301 -12 -10v-220
c0 -11.333 -5.66699 -17 -17 -17zM180.999 327.001h127c49.333 0 74 24.333 74 73v84c0 49.333 -24.667 74 -74 74h-127c-7.33301 0 -11 -3.33301 -11 -10v-211c0 -6.66699 3.66699 -10 11 -10z" />
    <glyph glyph-name="uni0157" unicode="&#x157;" horiz-adv-x="335" 
d="M157 -48v-47c0 -20.667 -6.33301 -40.667 -19 -60l-42 -74c-4 -6 -9 -9 -15 -9c-8.66699 0 -13 5.33301 -13 16v173c0 11.333 5.33301 17 16 17h57c10.667 0 16 -5.33301 16 -16zM143 0h-63c-11.333 0 -17 5.66699 -17 17v476c0 11.333 5.66699 17 17 17h63
c11.333 0 17 -5.66699 17 -17v-38h4c6.66699 16.667 19.5 30 38.5 40s40.167 15 63.5 15h37c11.333 0 17 -5.66699 17 -17v-52c0 -12.667 -5.66699 -18 -17 -16h-60c-55.333 0 -83 -30.333 -83 -91v-317c0 -11.333 -5.66699 -17 -17 -17z" />
    <glyph glyph-name="Rcaron" unicode="&#x158;" horiz-adv-x="542" 
d="M235 707c-9.33301 0 -16.333 3.33398 -21 10.001l-62 107c-5.33301 8 -3.33301 12 6 12h46c7.33301 0 12.333 -3.33301 15 -10l41 -78l40 78c2.66699 6.66699 8 10 16 10h46c4 0 6.5 -1.33301 7.5 -4s0.5 -5.33398 -1.5 -8.00098l-62 -107
c-4.66699 -6.66699 -12 -10 -22 -10h-49zM153 0.000976562l-63.001 0.000976562c-11.333 0 -17 5.66699 -17 17v609c0 11.333 5.66699 17 17 17h234c48.667 0 86.834 -13.833 114.501 -41.5s41.5 -65.834 41.5 -114.501v-84c0 -76.667 -31.667 -125 -95 -145v-4l111 -234
c7.33301 -13.333 3 -20 -13 -20h-62c-16 0 -26.333 5.66699 -31 17l-107 230h-101c-8 0 -12 -3.33301 -12 -10v-220c0 -11.333 -5.66699 -17 -17 -17zM180.999 327.002h127c49.333 0 74 24.333 74 73v84c0 49.333 -24.667 74 -74 74h-127c-7.33301 0 -11 -3.33301 -11 -10
v-211c0 -6.66699 3.66699 -10 11 -10z" />
    <glyph glyph-name="rcaron" unicode="&#x159;" horiz-adv-x="335" 
d="M160 574c-9.33301 0 -16.333 3.33301 -21 10l-63 107c-5.33301 8 -3 12 7 12h46c7.33301 0 12.333 -3.33301 15 -10l41 -78l40 78c2.66699 6.66699 8 10 16 10h45c10 0 12.333 -4 7 -12l-63 -107c-4.66699 -6.66699 -11.667 -10 -21 -10h-49zM143 0h-63
c-11.333 0 -17 5.66699 -17 17v476c0 11.333 5.66699 17 17 17h63c11.333 0 17 -5.66699 17 -17v-38h4c6.66699 16.667 19.5 30 38.5 40s40.167 15 63.5 15h37c11.333 0 17 -5.66699 17 -17v-52c0 -12.667 -5.66699 -18 -17 -16h-60c-55.333 0 -83 -30.333 -83 -91v-317
c0 -11.333 -5.66699 -17 -17 -17z" />
    <glyph glyph-name="Sacute" unicode="&#x15a;" horiz-adv-x="548" 
d="M61 156v25.999c0 11.333 5.66699 17 17 17h64c11.333 0 17 -5.66699 17 -17v-18c0 -28 6.16699 -48.167 18.5 -60.5s32.833 -18.5 61.5 -18.5h69c28.667 0 49.334 6.5 62.001 19.5s19 34.167 19 63.5v23c0 21.333 -8.16699 38.166 -24.5 50.499s-36.5 20.333 -60.5 24
s-50.333 8.83398 -79 15.501s-55 14.334 -79 23.001s-44.167 25 -60.5 49s-24.5 54.667 -24.5 92v42c0 48.667 13.833 86.834 41.5 114.501s65.834 41.5 114.501 41.5h106c49.333 0 87.833 -13.833 115.5 -41.5s41.5 -65.834 41.5 -114.501v-22
c0 -11.333 -5.66699 -17 -17 -17h-64c-11.333 0 -17 5.66699 -17 17v13c0 28.667 -6.16699 49.167 -18.5 61.5s-32.833 18.5 -61.5 18.5h-63c-28.667 0 -49.167 -6.5 -61.5 -19.5s-18.5 -35.167 -18.5 -66.5v-31c0 -30 21.667 -50.333 65 -61
c19.333 -4.66699 40.5 -8.66699 63.5 -12s46.167 -8.33301 69.5 -15s44.666 -15.5 63.999 -26.5s35 -27.667 47 -50s18 -49.5 18 -81.5v-39c0 -48.667 -13.833 -86.834 -41.5 -114.501s-65.834 -41.5 -114.501 -41.5h-112c-48.667 0 -87 13.833 -115 41.5
s-42 65.834 -42 114.501zM303 835.999h78c6 0 9.83301 -1.66699 11.5 -5s0.5 -7.33301 -3.5 -12l-84 -100c-6 -8 -13.667 -12 -23 -12h-48c-10.667 0 -13.667 5.66699 -9 17l52 96c5.33301 10.667 14 16 26 16z" />
    <glyph glyph-name="sacute" unicode="&#x15b;" horiz-adv-x="435" 
d="M239 703h78c5.33301 0 8.83301 -1.5 10.5 -4.5s0.833984 -7.16699 -2.49902 -12.5l-84 -100c-6 -8 -14 -12 -24 -12h-47c-10.667 0 -13.334 5.66699 -8.00098 17l52 96c4.66699 10.667 13 16 25 16zM245 0l-184 0.000976562c-11.333 0 -17 5.66699 -17 17v49
c0 10.667 5.66699 16 17 16h168c43.333 0 65 15 65 45v12c0 26.667 -15.667 47 -47 61l-109 52c-34 16 -58.667 33.667 -74 53s-23 44.666 -23 75.999c0 86 47.667 129 143 129h166c10.667 0 16 -5.66699 16 -17v-49c0 -11.333 -5.33301 -17 -16 -17h-146
c-20 0 -35.333 -3.5 -46 -10.5s-16 -16.167 -16 -27.5v-11c0 -21.333 17 -40 51 -56l110 -56c34.667 -15.333 58.5 -33.5 71.5 -54.5s19.5 -48.167 19.5 -81.5c0 -86.667 -49.667 -130 -149 -130z" />
    <glyph glyph-name="Scircumflex" unicode="&#x15c;" horiz-adv-x="548" 
d="M61 156v25.999c0 11.333 5.66699 17 17 17h64c11.333 0 17 -5.66699 17 -17v-18c0 -28 6.16699 -48.167 18.5 -60.5s32.833 -18.5 61.5 -18.5h69c28.667 0 49.334 6.5 62.001 19.5s19 34.167 19 63.5v23c0 21.333 -8.16699 38.166 -24.5 50.499s-36.5 20.333 -60.5 24
s-50.333 8.83398 -79 15.501s-55 14.334 -79 23.001s-44.167 25 -60.5 49s-24.5 54.667 -24.5 92v42c0 48.667 13.833 86.834 41.5 114.501s65.834 41.5 114.501 41.5h106c49.333 0 87.833 -13.833 115.5 -41.5s41.5 -65.834 41.5 -114.501v-22
c0 -11.333 -5.66699 -17 -17 -17h-64c-11.333 0 -17 5.66699 -17 17v13c0 28.667 -6.16699 49.167 -18.5 61.5s-32.833 18.5 -61.5 18.5h-63c-28.667 0 -49.167 -6.5 -61.5 -19.5s-18.5 -35.167 -18.5 -66.5v-31c0 -30 21.667 -50.333 65 -61
c19.333 -4.66699 40.5 -8.66699 63.5 -12s46.167 -8.33301 69.5 -15s44.666 -15.5 63.999 -26.5s35 -27.667 47 -50s18 -49.5 18 -81.5v-39c0 -48.667 -13.833 -86.834 -41.5 -114.501s-65.834 -41.5 -114.501 -41.5h-112c-48.667 0 -87 13.833 -115 41.5
s-42 65.834 -42 114.501zM376 706.999h-46.001c-7.33301 0 -12.666 3.33301 -15.999 10l-40 78l-41 -78c-2 -6.66699 -7 -10 -15 -10h-45c-10 0 -12.333 4 -7 12l63 107c4.66699 6.66699 11.667 10 21 10h48c10 0 17.333 -3.33301 22 -10l63 -107c5.33301 -8 3 -12 -7 -12z
" />
    <glyph glyph-name="scircumflex" unicode="&#x15d;" horiz-adv-x="435" 
d="M315 574h-46.001c-8.66699 0 -13.667 3.33301 -15 10l-41 78l-40 -78c-3.33301 -6.66699 -8.66602 -10 -15.999 -10h-46c-4 0 -6.5 1.33301 -7.5 4s-0.5 5.33398 1.5 8.00098l62 107c4.66699 6.66699 12 10 22 10h48c10 0 17.333 -3.33301 22 -10l62 -107
c2 -2.66699 2.5 -5.33398 1.5 -8.00098s-3.5 -4 -7.5 -4zM244.999 0l-184 0.000976562c-11.333 0 -17 5.66699 -17 17v49c0 10.667 5.66699 16 17 16h168c43.333 0 65 15 65 45v12c0 26.667 -15.667 47 -47 61l-109 52c-34 16 -58.667 33.667 -74 53s-23 44.666 -23 75.999
c0 86 47.667 129 143 129h166c10.667 0 16 -5.66699 16 -17v-49c0 -11.333 -5.33301 -17 -16 -17h-146c-20 0 -35.333 -3.5 -46 -10.5s-16 -16.167 -16 -27.5v-11c0 -21.333 17 -40 51 -56l110 -56c34.667 -15.333 58.5 -33.5 71.5 -54.5s19.5 -48.167 19.5 -81.5
c0 -86.667 -49.667 -130 -149 -130z" />
    <glyph glyph-name="uni015E" unicode="&#x15e;" horiz-adv-x="548" 
d="M159 472l-0.00292969 -31.0029c0 -30 21.667 -50.333 65 -61c19.333 -4.66699 40.5 -8.66699 63.5 -12s46.167 -8.33301 69.5 -15s44.666 -15.5 63.999 -26.5s35 -27.667 47 -50s18 -49.5 18 -81.5v-39c0 -48.667 -13.833 -86.834 -41.5 -114.501
s-65.834 -41.5 -114.501 -41.5h-1l-37 -38v-4c50.667 0 76 -23.333 76 -70v-15c0 -44 -30 -66 -90 -66h-37c-6 0 -10 1 -12 3s-3 6 -3 12v17c0 6 1 10 3 12s6 3 12 3h28c18.667 0 31.334 1.83301 38.001 5.5s10 10.834 10 21.501v2c0 10.667 -3.16699 17.834 -9.5 21.501
s-19.166 5.5 -38.499 5.5h-20c-12 0 -20.167 5.83301 -24.5 17.5s-2.16602 22.167 6.50098 31.5l36 41h-49c-48.667 0 -87 13.833 -115 41.5s-42 65.834 -42 114.501v26c0 11.333 5.66699 17 17 17h64c11.333 0 17 -5.66699 17 -17v-18c0 -28 6.16699 -48.167 18.5 -60.5
s32.833 -18.5 61.5 -18.5h69c28.667 0 49.334 6.5 62.001 19.5s19 34.167 19 63.5v23c0 21.333 -8.16699 38.166 -24.5 50.499s-36.5 20.333 -60.5 24s-50.333 8.83398 -79 15.501s-55 14.334 -79 23.001s-44.167 25 -60.5 49s-24.5 54.667 -24.5 92v42
c0 48.667 13.833 86.834 41.5 114.501s65.834 41.5 114.501 41.5h106c49.333 0 87.833 -13.833 115.5 -41.5s41.5 -65.834 41.5 -114.501v-22c0 -11.333 -5.66699 -17 -17 -17h-64c-11.333 0 -17 5.66699 -17 17v13c0 28.667 -6.16699 49.167 -18.5 61.5
s-32.833 18.5 -61.5 18.5h-63c-28.667 0 -49.167 -6.5 -61.5 -19.5s-18.5 -35.167 -18.5 -66.5z" />
    <glyph glyph-name="uni015F" unicode="&#x15f;" horiz-adv-x="435" 
d="M225 -42c50 0 74.998 -23.333 74.998 -70v-15c0 -44 -29.667 -66 -89 -66h-38c-6.66699 0 -10.834 1 -12.501 3s-2.5 6 -2.5 12v17c0 6 1 10 3 12s6 3 12 3h28c18.667 0 31.334 2 38.001 6s10 11 10 21v2c0 10.667 -3.16699 17.834 -9.5 21.501s-19.166 5.5 -38.499 5.5
h-20c-12 0 -20.167 5.83301 -24.5 17.5s-2.16602 22.167 6.50098 31.5l36 41h-138c-11.333 0 -17 5.66699 -17 17v49c0 10.667 5.66699 16 17 16h168c43.333 0 65 15 65 45v12c0 26.667 -15.667 47 -47 61l-109 52c-34 16 -58.667 33.667 -74 53s-23 44.666 -23 75.999
c0 86 47.667 129 143 129h166c10.667 0 16 -5.66699 16 -17v-49c0 -11.333 -5.33301 -17 -16 -17h-146c-20 0 -35.333 -3.5 -46 -10.5s-16 -16.167 -16 -27.5v-11c0 -21.333 17 -40 51 -56l110 -56c34.667 -15.333 58.5 -33.5 71.5 -54.5s19.5 -48.167 19.5 -81.5
c0 -82 -44 -125.333 -132 -130l-37 -38v-4z" />
    <glyph glyph-name="Scaron" unicode="&#x160;" horiz-adv-x="548" 
d="M61 156v25.999c0 11.333 5.66699 17 17 17h64c11.333 0 17 -5.66699 17 -17v-18c0 -28 6.16699 -48.167 18.5 -60.5s32.833 -18.5 61.5 -18.5h69c28.667 0 49.334 6.5 62.001 19.5s19 34.167 19 63.5v23c0 21.333 -8.16699 38.166 -24.5 50.499s-36.5 20.333 -60.5 24
s-50.333 8.83398 -79 15.501s-55 14.334 -79 23.001s-44.167 25 -60.5 49s-24.5 54.667 -24.5 92v42c0 48.667 13.833 86.834 41.5 114.501s65.834 41.5 114.501 41.5h106c49.333 0 87.833 -13.833 115.5 -41.5s41.5 -65.834 41.5 -114.501v-22
c0 -11.333 -5.66699 -17 -17 -17h-64c-11.333 0 -17 5.66699 -17 17v13c0 28.667 -6.16699 49.167 -18.5 61.5s-32.833 18.5 -61.5 18.5h-63c-28.667 0 -49.167 -6.5 -61.5 -19.5s-18.5 -35.167 -18.5 -66.5v-31c0 -30 21.667 -50.333 65 -61
c19.333 -4.66699 40.5 -8.66699 63.5 -12s46.167 -8.33301 69.5 -15s44.666 -15.5 63.999 -26.5s35 -27.667 47 -50s18 -49.5 18 -81.5v-39c0 -48.667 -13.833 -86.834 -41.5 -114.501s-65.834 -41.5 -114.501 -41.5h-112c-48.667 0 -87 13.833 -115 41.5
s-42 65.834 -42 114.501zM293 706.999h-47.999c-10 0 -17.333 3.33301 -22 10l-63 107c-2 2.66699 -2.33301 5.33398 -1 8.00098s4 4 8 4h46c7.33301 0 12.666 -3.33301 15.999 -10l40 -78l40 78c2.66699 6.66699 8 10 16 10h46c4 0 6.5 -1.33301 7.5 -4
s0.5 -5.33398 -1.5 -8.00098l-63 -107c-4.66699 -6.66699 -11.667 -10 -21 -10z" />
    <glyph glyph-name="scaron" unicode="&#x161;" horiz-adv-x="435" 
d="M189 574c-10 0 -17.332 3.33301 -21.999 10l-62 107c-4.66699 8 -2.66699 12 6 12h46c7.33301 0 12.666 -3.33301 15.999 -10l40 -78l41 78c1.33301 6.66699 6.33301 10 15 10h46c8.66699 0 10.667 -4 6 -12l-62 -107c-4.66699 -6.66699 -12 -10 -22 -10h-48zM245.001 0
l-184 0.000976562c-11.333 0 -17 5.66699 -17 17v49c0 10.667 5.66699 16 17 16h168c43.333 0 65 15 65 45v12c0 26.667 -15.667 47 -47 61l-109 52c-34 16 -58.667 33.667 -74 53s-23 44.666 -23 75.999c0 86 47.667 129 143 129h166c10.667 0 16 -5.66699 16 -17v-49
c0 -11.333 -5.33301 -17 -16 -17h-146c-20 0 -35.333 -3.5 -46 -10.5s-16 -16.167 -16 -27.5v-11c0 -21.333 17 -40 51 -56l110 -56c34.667 -15.333 58.5 -33.5 71.5 -54.5s19.5 -48.167 19.5 -81.5c0 -86.667 -49.667 -130 -149 -130z" />
    <glyph glyph-name="uni0162" unicode="&#x162;" horiz-adv-x="434" 
d="M262 -48v-47c0 -20.667 -6 -40.667 -18 -60l-43 -74c-3.33301 -6 -8.33301 -9 -15 -9c-8.66699 0 -13 5.33301 -13 16v173c0 11.333 5.33301 17 16 17h57c10.667 0 16 -5.33301 16 -16zM249 0h-63c-12 0 -18 5.66699 -18 17v531c0 6.66699 -3.33301 10 -10 10h-126
c-12 0 -18 5.66699 -18 17v51c0 11.333 6 17 18 17h371c12 0 18 -5.66699 18 -17v-51c0 -11.333 -6 -17 -18 -17h-126c-7.33301 0 -11 -3.33301 -11 -10v-531c0 -11.333 -5.66699 -17 -17 -17z" />
    <glyph glyph-name="uni0163" unicode="&#x163;" horiz-adv-x="351" 
d="M250 -48v-47c0 -20.667 -6 -40.667 -18 -60l-43 -74c-4 -6 -8.66699 -9 -14 -9c-9.33301 0 -14 5.33301 -14 16v173c0 11.333 5.33301 17 16 17h57c10.667 0 16 -5.33301 16 -16zM78 425l-48 -0.000976562c-6.66699 0 -11.167 1.16699 -13.5 3.5s-3.5 6.5 -3.5 12.5v52
c0 11.333 5.66699 17 17 17h48c6.66699 0 10 3.33301 10 10v90c0 11.333 6 17 18 17h63c11.333 0 17 -5.66699 17 -17v-90c0 -6.66699 3.66699 -10 11 -10h93c12 0 18 -5.66699 18 -17v-52c0 -10.667 -6 -16 -18 -16h-93c-7.33301 0 -11 -3.33301 -11 -10v-257
c0 -48.667 25 -73 75 -73h39c12 0 18 -5.66699 18 -17v-52c0 -10.667 -6 -16 -18 -16h-54c-49.333 0 -88 13.333 -116 40s-42 64.334 -42 113.001v262c0 6.66699 -3.33301 10 -10 10z" />
    <glyph glyph-name="Tcaron" unicode="&#x164;" horiz-adv-x="434" 
d="M195 707c-9.33301 0 -16.332 3.33203 -20.999 9.99902l-64 107c-2 2.66699 -2.33301 5.33398 -1 8.00098s4.33301 4 9 4h45c7.33301 0 12.333 -3.33301 15 -10l41 -78l40 78c3.33301 6.66699 8.66602 10 15.999 10h46c10 0 12.333 -4 7 -12l-64 -107
c-4.66699 -6.66699 -11.667 -10 -21 -10h-48zM249.001 -0.000976562h-63c-12 0 -18 5.66699 -18 17v531c0 6.66699 -3.33301 10 -10 10h-126c-12 0 -18 5.66699 -18 17v51c0 11.333 6 17 18 17h371c12 0 18 -5.66699 18 -17v-51c0 -11.333 -6 -17 -18 -17h-126
c-7.33301 0 -11 -3.33301 -11 -10v-531c0 -11.333 -5.66699 -17 -17 -17z" />
    <glyph glyph-name="tcaron" unicode="&#x165;" horiz-adv-x="441" 
d="M437 627v-45c0 -15.333 -6 -39 -18 -71l-43 -98c-4.66699 -6 -9.66699 -9 -15 -9c-8.66699 0 -13 5.33301 -13 16v206c0 11.333 5.33301 17 16 17h57c10.667 0 16 -5.33301 16 -16zM78 425l-48 -0.000976562c-6.66699 0 -11.167 1.16699 -13.5 3.5s-3.5 6.5 -3.5 12.5v52
c0 11.333 5.66699 17 17 17h48c6.66699 0 10 3.33301 10 10v90c0 11.333 6 17 18 17h63c11.333 0 17 -5.66699 17 -17v-90c0 -6.66699 3.66699 -10 11 -10h93c12 0 18 -5.66699 18 -17v-52c0 -10.667 -6 -16 -18 -16h-93c-7.33301 0 -11 -3.33301 -11 -10v-257
c0 -48.667 25 -73 75 -73h39c12 0 18 -5.66699 18 -17v-52c0 -10.667 -6 -16 -18 -16h-54c-49.333 0 -88 13.333 -116 40s-42 64.334 -42 113.001v262c0 6.66699 -3.33301 10 -10 10z" />
    <glyph glyph-name="Tbar" unicode="&#x166;" horiz-adv-x="505" 
d="M266 0h-63c-11.333 0 -17 5.66699 -17 17v273c0 7.33301 -3.66699 11 -11 11h-74c-11.333 0 -17 5.66699 -17 17v39c0 12 5.66699 18 17 18h74c7.33301 0 11 3.33301 11 10v163c0 6.66699 -3.66699 10 -11 10h-132c-11.333 0 -17 5.66699 -17 17v51
c0 11.333 5.66699 17 17 17h383c11.333 0 17 -5.66699 17 -17v-51c0 -11.333 -5.66699 -17 -17 -17h-132c-6.66699 0 -10 -3.33301 -10 -10v-163c0 -6.66699 3.33301 -10 10 -10h78c11.333 0 17 -6 17 -18v-39c0 -11.333 -5.66699 -17 -17 -17h-78
c-6.66699 0 -10 -3.66699 -10 -11v-273c0 -11.333 -6 -17 -18 -17z" />
    <glyph glyph-name="tbar" unicode="&#x167;" horiz-adv-x="361" 
d="M310 0l-59.001 -0.000976562c-49.333 0 -88.166 13.333 -116.499 40s-42.5 64.334 -42.5 113.001v78c0 7.33301 -3.33301 11 -10 11h-52c-11.333 0 -17 5.66699 -17 17v40c0 11.333 5.66699 17 17 17h52c6.66699 0 10 3.33301 10 10v89c0 6.66699 -3.33301 10 -10 10h-52
c-6.66699 0 -11.167 1.16699 -13.5 3.5s-3.5 6.5 -3.5 12.5v52c0 11.333 5.66699 17 17 17h52c6.66699 0 10 3.33301 10 10v90c0 11.333 5.66699 17 17 17h64c11.333 0 17 -5.66699 17 -17v-90c0 -6.66699 3.66699 -10 11 -10h99c11.333 0 17 -5.66699 17 -17v-52
c0 -6 -1.16699 -10.167 -3.5 -12.5s-6.83301 -3.5 -13.5 -3.5h-99c-7.33301 0 -11 -3.33301 -11 -10v-89c0 -6.66699 3.66699 -10 11 -10h99c11.333 0 17 -5.66699 17 -17v-40c0 -11.333 -5.66699 -17 -17 -17h-99c-7.33301 0 -11 -3.66699 -11 -11v-73
c0 -48.667 25 -73 75 -73h45c11.333 0 17 -5.66699 17 -17v-52c0 -6 -1.16699 -10.167 -3.5 -12.5s-6.83301 -3.5 -13.5 -3.5z" />
    <glyph glyph-name="Utilde" unicode="&#x168;" horiz-adv-x="557" 
d="M231 702c-44.667 0 -67 25.667 -67 77v39c0 6.66699 3.33301 10 10 10h29c6.66699 0 10 -3.33301 10 -10v-20c0 -16.667 1.5 -28 4.5 -34s7.66699 -9 14 -9s11.5 2.33301 15.5 7s10.667 14.834 20 30.501s18.333 26.167 27 31.5s19.667 8 33 8c44 0 66 -25.667 66 -77
v-38c0 -8 -3 -12 -9 -12h-29c-6.66699 0 -10 4 -10 12v19c0 17.333 -1.5 28.833 -4.5 34.5s-8.33301 8.5 -16 8.5s-16.5 -8.66699 -26.5 -26c-13.333 -22.667 -24.5 -36.834 -33.5 -42.501s-20.167 -8.5 -33.5 -8.5zM409 643h63.001c12 0 18 -5.33301 18 -16v-472
c0 -48.667 -13.833 -86.667 -41.5 -114s-65.834 -41 -114.501 -41h-111c-48.667 0 -86.667 13.667 -114 41s-41 65.333 -41 114v471c0 11.333 5.66699 17 17 17h63c11.333 0 17 -5.66699 17 -17v-467c0 -49.333 24 -74 72 -74h82c48.667 0 73 24.667 73 74v467
c0 11.333 5.66699 17 17 17z" />
    <glyph glyph-name="utilde" unicode="&#x169;" horiz-adv-x="517" 
d="M134 652l-0.000976562 38c0 7.33301 3.33301 11 10 11h30c6.66699 0 10 -3.66699 10 -11v-19c0 -17.333 1.33301 -28.833 4 -34.5s7.33398 -8.5 14.001 -8.5s12 2.33301 16 7s10.5 14.834 19.5 30.501s17.833 26.167 26.5 31.5s19.667 8 33 8c44.667 0 67 -25.667 67 -77
v-38c0 -8 -3 -12 -9 -12h-30c-6.66699 0 -10 4 -10 12v18c0 17.333 -1.33301 28.833 -4 34.5s-7.5 8.5 -14.5 8.5s-12.167 -1.83301 -15.5 -5.5s-9.33301 -12.834 -18 -27.501c-8.66699 -17.333 -17.667 -28.833 -27 -34.5s-21 -8.5 -35 -8.5c-44.667 0 -67 25.667 -67 77z
M251.999 0h-45c-48 0 -84.833 13.5 -110.5 40.5s-38.5 65.167 -38.5 114.5v338c0 11.333 5.66699 17 17 17h63c11.333 0 17 -5.66699 17 -17v-334c0 -49.333 24 -74 72 -74h48c54.667 0 82 28.333 82 85v323c0 11.333 5.66699 17 17 17h63c12 0 18 -5.66699 18 -17v-476
c0 -11.333 -6 -17 -18 -17h-63c-11.333 0 -17 5.66699 -17 17v36h-4c-16 -35.333 -49.667 -53 -101 -53z" />
    <glyph glyph-name="Umacron" unicode="&#x16a;" horiz-adv-x="557" 
d="M378 740h-199c-11.333 0 -17 5.66699 -17 17v35c0 11.333 5.66699 17 17 17h199c11.333 0 17 -5.66699 17 -17v-35c0 -11.333 -5.66699 -17 -17 -17zM409 643h63.001c12 0 18 -5.33301 18 -16v-472c0 -48.667 -13.833 -86.667 -41.5 -114s-65.834 -41 -114.501 -41h-111
c-48.667 0 -86.667 13.667 -114 41s-41 65.333 -41 114v471c0 11.333 5.66699 17 17 17h63c11.333 0 17 -5.66699 17 -17v-467c0 -49.333 24 -74 72 -74h82c48.667 0 73 24.667 73 74v467c0 11.333 5.66699 17 17 17z" />
    <glyph glyph-name="umacron" unicode="&#x16b;" horiz-adv-x="517" 
d="M356 605h-200c-11.333 0 -17 5.66699 -17 17v34c0 11.333 5.66699 17 17 17h200c11.333 0 17 -5.66699 17 -17v-34c0 -11.333 -5.66699 -17 -17 -17zM252 0h-45c-48 0 -84.833 13.5 -110.5 40.5s-38.5 65.167 -38.5 114.5v338c0 11.333 5.66699 17 17 17h63
c11.333 0 17 -5.66699 17 -17v-334c0 -49.333 24 -74 72 -74h48c54.667 0 82 28.333 82 85v323c0 11.333 5.66699 17 17 17h63c12 0 18 -5.66699 18 -17v-476c0 -11.333 -6 -17 -18 -17h-63c-11.333 0 -17 5.66699 -17 17v36h-4c-16 -35.333 -49.667 -53 -101 -53z" />
    <glyph glyph-name="Ubreve" unicode="&#x16c;" horiz-adv-x="557" 
d="M170 824c0 8 4 12 12 12h38c8 0 12 -4 12 -12v-10c0 -20.667 3.33301 -35.167 10 -43.5s18 -12.5 34 -12.5h6c16 0 27.5 4.33301 34.5 13s10.5 23 10.5 43v10c0 8 4.33301 12 13 12h36c8.66699 0 13 -4 13 -12v-11c0 -70.667 -32.333 -106 -97 -106h-26
c-64 0 -96 35.333 -96 106v11zM409 643h63.001c12 0 18 -5.33301 18 -16v-472c0 -48.667 -13.833 -86.667 -41.5 -114s-65.834 -41 -114.501 -41h-111c-48.667 0 -86.667 13.667 -114 41s-41 65.333 -41 114v471c0 11.333 5.66699 17 17 17h63c11.333 0 17 -5.66699 17 -17
v-467c0 -49.333 24 -74 72 -74h82c48.667 0 73 24.667 73 74v467c0 11.333 5.66699 17 17 17z" />
    <glyph glyph-name="ubreve" unicode="&#x16d;" horiz-adv-x="517" 
d="M252 0h-45c-48 0 -84.833 13.5 -110.5 40.5s-38.5 65.167 -38.5 114.5v338c0 11.333 5.66699 17 17 17h63c11.333 0 17 -5.66699 17 -17v-334c0 -49.333 24 -74 72 -74h48c54.667 0 82 28.333 82 85v323c0 11.333 5.66699 17 17 17h63c12 0 18 -5.66699 18 -17v-476
c0 -11.333 -6 -17 -18 -17h-63c-11.333 0 -17 5.66699 -17 17v36h-4c-16 -35.333 -49.667 -53 -101 -53zM147 675v12c0 8 4 12 12 12h38c8 0 12 -4 12 -12v-10c0 -20 3.33301 -34.167 10 -42.5s18 -12.5 34 -12.5h6c16.667 0 28.5 4.16699 35.5 12.5s10.5 22.5 10.5 42.5v10
c0 7.33301 4 11 12 11h37c8 0 12 -3.66699 12 -11v-12c0 -70 -32.333 -105 -97 -105h-25c-64.667 0 -97 35 -97 105z" />
    <glyph glyph-name="Uring" unicode="&#x16e;" horiz-adv-x="557" 
d="M299 700l-43.001 0.00195312c-40 0 -60 20.667 -60 62v51c0 19.333 5.33301 34.166 16 44.499s25.334 15.5 44.001 15.5h43c19.333 0 34.5 -5.33301 45.5 -16s16.5 -25.334 16.5 -44.001v-51c0 -20 -5.5 -35.333 -16.5 -46s-26.167 -16 -45.5 -16zM269.999 740.002h15
c21.333 0 32 11.333 32 34v24c0 23.333 -10.667 35 -32 35h-14c-21.333 0 -32 -11.667 -32 -35v-24c0 -22.667 10.333 -34 31 -34zM408.999 643.002h63.001c12 0 18 -5.33301 18 -16v-472c0 -48.667 -13.833 -86.667 -41.5 -114s-65.834 -41 -114.501 -41h-111
c-48.667 0 -86.667 13.667 -114 41s-41 65.333 -41 114v471c0 11.333 5.66699 17 17 17h63c11.333 0 17 -5.66699 17 -17v-467c0 -49.333 24 -74 72 -74h82c48.667 0 73 24.667 73 74v467c0 11.333 5.66699 17 17 17z" />
    <glyph glyph-name="uring" unicode="&#x16f;" horiz-adv-x="517" 
d="M252 0h-45c-48 0 -84.833 13.5 -110.5 40.5s-38.5 65.167 -38.5 114.5v338c0 11.333 5.66699 17 17 17h63c11.333 0 17 -5.66699 17 -17v-334c0 -49.333 24 -74 72 -74h48c54.667 0 82 28.333 82 85v323c0 11.333 5.66699 17 17 17h63c12 0 18 -5.66699 18 -17v-476
c0 -11.333 -6 -17 -18 -17h-63c-11.333 0 -17 5.66699 -17 17v36h-4c-16 -35.333 -49.667 -53 -101 -53zM204 657v-33c0 -12.667 2.5 -21.334 7.5 -26.001s13.833 -7 26.5 -7h16c12.667 0 21.5 2.33301 26.5 7s7.5 13.334 7.5 26.001v33c0 13.333 -2.5 22.166 -7.5 26.499
s-13.833 6.5 -26.5 6.5h-16c-12.667 0 -21.5 -2.16699 -26.5 -6.5s-7.5 -13.166 -7.5 -26.499zM166 612v60c0 34.667 19 52 57 52h45c38.667 0 58 -17.333 58 -52v-60c0 -36.667 -19.333 -55 -58 -55h-45c-38 0 -57 18.333 -57 55z" />
    <glyph glyph-name="Uhungarumlaut" unicode="&#x170;" horiz-adv-x="557" 
d="M251 836h52c12 0 14.333 -5.66699 7 -17l-74 -100c-6 -8 -13.333 -12 -22 -12h-32c-10 0 -12.667 5.66699 -8 17l51 96c6 10.667 14.667 16 26 16zM392 836h52c12.667 0 15.334 -5.66699 8.00098 -17l-74 -100c-6 -8 -13.333 -12 -22 -12h-32
c-10.667 0 -13.334 5.66699 -8.00098 17l51 96c4.66699 10.667 13 16 25 16zM409 643h63.001c12 0 18 -5.33301 18 -16v-472c0 -48.667 -13.833 -86.667 -41.5 -114s-65.834 -41 -114.501 -41h-111c-48.667 0 -86.667 13.667 -114 41s-41 65.333 -41 114v471
c0 11.333 5.66699 17 17 17h63c11.333 0 17 -5.66699 17 -17v-467c0 -49.333 24 -74 72 -74h82c48.667 0 73 24.667 73 74v467c0 11.333 5.66699 17 17 17z" />
    <glyph glyph-name="uhungarumlaut" unicode="&#x171;" horiz-adv-x="517" 
d="M243 703h52c12 0 14.333 -5.66699 7 -17l-74 -100c-5.33301 -8 -12.333 -12 -21 -12h-33c-10.667 0 -13 5.66699 -7 17l50 96c6 10.667 14.667 16 26 16zM385 703h50.999c12.667 0 15.334 -5.66699 8.00098 -17l-74 -100c-6 -8 -13.333 -12 -22 -12h-32
c-10.667 0 -13.334 5.66699 -8.00098 17l51 96c4.66699 10.667 13.334 16 26.001 16zM251.999 0h-45c-48 0 -84.833 13.5 -110.5 40.5s-38.5 65.167 -38.5 114.5v338c0 11.333 5.66699 17 17 17h63c11.333 0 17 -5.66699 17 -17v-334c0 -49.333 24 -74 72 -74h48
c54.667 0 82 28.333 82 85v323c0 11.333 5.66699 17 17 17h63c12 0 18 -5.66699 18 -17v-476c0 -11.333 -6 -17 -18 -17h-63c-11.333 0 -17 5.66699 -17 17v36h-4c-16 -35.333 -49.667 -53 -101 -53z" />
    <glyph glyph-name="Uogonek" unicode="&#x172;" horiz-adv-x="557" 
d="M409 643h63.002c12 0 18 -5.33301 18 -16v-472c0 -48.667 -13.833 -86.667 -41.5 -114s-65.834 -41 -114.501 -41h-13l-43 -62h40c9.33301 0 15.666 -1.16699 18.999 -3.5s5 -6.83301 5 -13.5c0 -11.333 -9.66699 -20.333 -29 -27s-38.333 -10 -57 -10
s-30.667 5.16699 -36 15.5s-3.33301 21.5 6 33.5l44 67h-47c-48.667 0 -86.667 13.667 -114 41s-41 65.333 -41 114v471c0 11.333 5.66699 17 17 17h63c11.333 0 17 -5.66699 17 -17v-467c0 -49.333 24 -74 72 -74h82c48.667 0 73 24.667 73 74v467
c0 11.333 5.66699 17 17 17z" />
    <glyph glyph-name="uogonek" unicode="&#x173;" horiz-adv-x="502" 
d="M374 510h63c12 0 18 -5.66699 18 -17v-476c0 -11.333 -6 -17 -18 -17h-44c-8 -12 -16.833 -26 -26.5 -42s-14.167 -24 -13.5 -24c20 0 34 1 42 3c8.66699 0.666992 14.334 -0.333008 17.001 -3s3.33398 -6.66699 2.00098 -12
c-0.666992 -11.333 -10.334 -20.5 -29.001 -27.5s-36.334 -10.5 -53.001 -10.5s-26.167 7 -28.5 21s0.5 26.667 8.5 38l45 74v36h-4c-16 -35.333 -49.667 -53 -101 -53h-45c-48 0 -84.833 13.5 -110.5 40.5s-38.5 65.167 -38.5 114.5v338c0 11.333 5.66699 17 17 17h63
c11.333 0 17 -5.66699 17 -17v-334c0 -49.333 24 -74 72 -74h48c54.667 0 82 28.333 82 85v323c0 11.333 5.66699 17 17 17z" />
    <glyph glyph-name="Wcircumflex" unicode="&#x174;" horiz-adv-x="803" 
d="M506 707h-46c-7.33301 0 -12.333 3.33301 -15 10l-41 78l-40 -78c-2.66699 -6.66699 -8 -10 -16 -10h-45c-10 0 -12.333 4 -7 12l63 107c4.66699 6.66699 11.667 10 21 10h49c9.33301 0 16.333 -3.33301 21 -10l62 -107c5.33301 -8 3.33301 -12 -6 -12zM267 0h-106.003
c-12 0 -19 5.66699 -21 17l-119 609c-1.33301 11.333 4.33398 17 17.001 17h77c12.667 0 19.334 -5.66699 20.001 -17l81 -524h6l118 526c1.33301 10 7.33301 15 18 15h84c10.667 0 17 -5 19 -15l119 -526h6l81 523c0.666992 12 7.33398 18 20.001 18h77
c13.333 0 19 -6 17 -18l-119 -608c-2 -11.333 -8.66699 -17 -20 -17h-106c-11.333 0 -18 5.66699 -20 17l-113 506h-4l-113 -506c-2 -11.333 -8.33301 -17 -19 -17z" />
    <glyph glyph-name="wcircumflex" unicode="&#x175;" horiz-adv-x="690" 
d="M447 574l-46.001 -0.000976562c-8 0 -13.333 3.33301 -16 10l-40 78l-40 -78c-3.33301 -6.66699 -8.66602 -10 -15.999 -10h-46c-4 0 -6.66699 1.33301 -8 4s-1 5.33398 1 8.00098l64 107c4.66699 6.66699 11.667 10 21 10h48c9.33301 0 16.333 -3.33301 21 -10l63 -107
c5.33301 -8 3.33301 -12 -6 -12zM241.999 -0.000976562h-85.999c-10 0 -16.667 5.66699 -20 17l-115 476c-2.66699 11.333 1.33301 17 12 17h72c12 0 18.667 -5.66699 20 -17l73 -378h7l88 378c2 11.333 8.33301 17 19 17h66c11.333 0 18.333 -5.66699 21 -17l86 -378h7
l73 378c2 11.333 8.66699 17 20 17h72c11.333 0 15.333 -5.66699 12 -17l-115 -476c-2 -11.333 -8.66699 -17 -20 -17h-86c-10.667 0 -17.334 5.66699 -20.001 17l-80 371h-7l-79 -371c-2 -11.333 -8.66699 -17 -20 -17z" />
    <glyph glyph-name="Ycircumflex" unicode="&#x176;" horiz-adv-x="508" 
d="M353 707h-46c-7.33301 0 -12.333 3.33301 -15 10l-41 78l-40 -78c-2.66699 -6.66699 -8 -10 -16 -10h-45c-10 0 -12.333 4 -7 12l63 107c4.66699 6.66699 11.667 10 21 10h48c9.33301 0 16.333 -3.33301 21 -10l64 -107c5.33301 -8 3 -12 -7 -12zM286 0h-64
c-11.333 0 -17 5.66699 -17 17v221l-187 387c-2.66699 5.33301 -2.66699 9.66602 0 12.999s6.33398 5 11.001 5h80c8.66699 0 15.334 -5.66699 20.001 -17l123 -275h6l121 275c4 11.333 10.667 17 20 17h80c5.33301 0 9.16602 -1.66699 11.499 -5
s2.16602 -7.66602 -0.500977 -12.999l-187 -387v-221c0 -11.333 -5.66699 -17 -17 -17z" />
    <glyph glyph-name="ycircumflex" unicode="&#x177;" horiz-adv-x="467" 
d="M342 574h-46.001c-7.33301 0 -12.666 3.33301 -15.999 10l-40 78l-41 -78c-2 -6.66699 -7 -10 -15 -10h-45c-10 0 -12.333 4 -7 12l63 107c4.66699 6.66699 11.667 10 21 10h48c10 0 17.333 -3.33301 22 -10l63 -107c5.33301 -8 3 -12 -7 -12zM122.999 -162h-53.002
c-11.333 0 -17 5.66699 -17 17v51c0 12 5.66699 18 17 18h23c40.667 0 68.834 8 84.501 24s28.834 42.333 39.501 79h-40c-10 0 -17 5.66699 -21 17l-133 449c-2.66699 11.333 1.66602 17 12.999 17h67c10.667 0 17.334 -5.66699 20.001 -17l109 -392h4l109 392
c2 11.333 8.66699 17 20 17h64c12.667 0 18 -6 16 -18l-137 -481c-15.333 -56 -37 -98.833 -65 -128.5s-68 -44.5 -120 -44.5z" />
    <glyph glyph-name="Ydieresis" unicode="&#x178;" horiz-adv-x="508" 
d="M118 724v95c0 11.333 5.33301 17 16 17h60c10 0 15 -5.33301 15 -16v-96c0 -11.333 -5 -17 -15 -17h-60c-10.667 0 -16 5.66699 -16 17zM298 724v95c0 11.333 5 17 15 17h61c10 0 15 -5.33301 15 -16v-96c0 -11.333 -5 -17 -15 -17h-61c-10 0 -15 5.66699 -15 17zM286 0
h-64c-11.333 0 -17 5.66699 -17 17v221l-187 387c-2.66699 5.33301 -2.66699 9.66602 0 12.999s6.33398 5 11.001 5h80c8.66699 0 15.334 -5.66699 20.001 -17l123 -275h6l121 275c4 11.333 10.667 17 20 17h80c5.33301 0 9.16602 -1.66699 11.499 -5
s2.16602 -7.66602 -0.500977 -12.999l-187 -387v-221c0 -11.333 -5.66699 -17 -17 -17z" />
    <glyph glyph-name="Zacute" unicode="&#x179;" horiz-adv-x="506" 
d="M311 836h79.001c5.33301 0 8.83301 -1.66699 10.5 -5s0.833984 -7.33301 -2.49902 -12l-85 -100c-6 -8 -13.667 -12 -23 -12h-48c-10.667 0 -13.334 5.66699 -8.00098 17l52 96c5.33301 10.667 13.666 16 24.999 16zM46.001 17v47.001c0 17.333 3 29.666 9 36.999
l289 447v4h-265c-12 0 -18 5.66699 -18 17v57c0 11.333 6 17 18 17h354c11.333 0 17 -5.66699 17 -17v-66c0 -14.667 -3.66699 -27.667 -11 -39l-278 -426v-4h282c11.333 0 17 -5.33301 17 -16v-56c0 -12.667 -5.66699 -19 -17 -19h-380c-11.333 0 -17 5.66699 -17 17z" />
    <glyph glyph-name="zacute" unicode="&#x17a;" horiz-adv-x="432" 
d="M275 703h78.001c5.33301 0 9 -1.5 11 -4.5s1.33301 -7.16699 -2 -12.5l-85 -100c-7.33301 -8 -15.333 -12 -24 -12h-47c-10.667 0 -13.334 5.66699 -8.00098 17l52 96c4.66699 10.667 13 16 25 16zM32.001 17v26c0 16.667 4.66699 31 14 43l231 335v4h-219
c-12 0 -18 6 -18 18v50c0 11.333 6 17 18 17h316c11.333 0 17 -5.66699 17 -17v-46c0 -16 -4 -28.667 -12 -38l-219 -320v-4h223c12 0 18 -6 18 -18v-50c0 -11.333 -6 -17 -18 -17h-333c-12 0 -18 5.66699 -18 17z" />
    <glyph glyph-name="Zdotaccent" unicode="&#x17b;" horiz-adv-x="506" 
d="M227 727v95c0 11.333 5.33301 17 16 17h65c11.333 0 17 -5.33301 17 -16v-96c0 -11.333 -5.66699 -17 -17 -17h-65c-10.667 0 -16 5.66699 -16 17zM46 17v47.001c0 17.333 3 29.666 9 36.999l289 447v4h-265c-12 0 -18 5.66699 -18 17v57c0 11.333 6 17 18 17h354
c11.333 0 17 -5.66699 17 -17v-66c0 -14.667 -3.66699 -27.667 -11 -39l-278 -426v-4h282c11.333 0 17 -5.33301 17 -16v-56c0 -12.667 -5.66699 -19 -17 -19h-380c-11.333 0 -17 5.66699 -17 17z" />
    <glyph glyph-name="zdotaccent" unicode="&#x17c;" horiz-adv-x="432" 
d="M188 590v97c0 10.667 5.66699 16 17 16h65c11.333 0 17 -5.33301 17 -16v-97c0 -10.667 -5.66699 -16 -17 -16h-65c-11.333 0 -17 5.33301 -17 16zM32 17v26c0 16.667 4.66699 31 14 43l231 335v4h-219c-12 0 -18 6 -18 18v50c0 11.333 6 17 18 17h316
c11.333 0 17 -5.66699 17 -17v-46c0 -16 -4 -28.667 -12 -38l-219 -320v-4h223c12 0 18 -6 18 -18v-50c0 -11.333 -6 -17 -18 -17h-333c-12 0 -18 5.66699 -18 17z" />
    <glyph glyph-name="Zcaron" unicode="&#x17d;" horiz-adv-x="506" 
d="M247 707c-9.33301 0 -16.332 3.33301 -20.999 10l-62 107c-5.33301 8 -3 12 7 12h45c8 0 13 -3.33301 15 -10l41 -78l40 78c3.33301 6.66699 8.66602 10 15.999 10h46c9.33301 0 11.333 -4 6 -12l-63 -107c-4.66699 -6.66699 -11.667 -10 -21 -10h-49zM46.001 17v47.001
c0 17.333 3 29.666 9 36.999l289 447v4h-265c-12 0 -18 5.66699 -18 17v57c0 11.333 6 17 18 17h354c11.333 0 17 -5.66699 17 -17v-66c0 -14.667 -3.66699 -27.667 -11 -39l-278 -426v-4h282c11.333 0 17 -5.33301 17 -16v-56c0 -12.667 -5.66699 -19 -17 -19h-380
c-11.333 0 -17 5.66699 -17 17z" />
    <glyph glyph-name="zcaron" unicode="&#x17e;" horiz-adv-x="432" 
d="M212 574c-9.33301 0 -16.332 3.33301 -20.999 10l-63 107c-5.33301 8 -3 12 7 12h45c8 0 13 -3.33301 15 -10l41 -78l40 78c3.33301 6.66699 8.66602 10 15.999 10h46c10 0 12.333 -4 7 -12l-64 -107c-4.66699 -6.66699 -11.667 -10 -21 -10h-48zM32.001 17v26
c0 16.667 4.66699 31 14 43l231 335v4h-219c-12 0 -18 6 -18 18v50c0 11.333 6 17 18 17h316c11.333 0 17 -5.66699 17 -17v-46c0 -16 -4 -28.667 -12 -38l-219 -320v-4h223c12 0 18 -6 18 -18v-50c0 -11.333 -6 -17 -18 -17h-333c-12 0 -18 5.66699 -18 17z" />
    <glyph glyph-name="florin" unicode="&#x192;" horiz-adv-x="514" 
d="M84 -133h-50c-13.333 0 -20 5.33301 -20 16v52c0 11.333 6.33301 17 19 17h43c23.333 0 41 6 53 18s21 30.667 27 56l60 282c2 8 -1 12 -9 12h-65c-13.333 0 -20 5.66699 -20 17v50c0 11.333 6.33301 17 19 17h85c6.66699 0 11 3.66699 13 11l28 134
c12 54 32 93.167 60 117.5s66.667 36.5 116 36.5h37c13.333 0 20 -5.33301 20 -16v-52c0 -11.333 -6 -17 -18 -17h-37c-24 0 -42 -6 -54 -18s-20.667 -30.667 -26 -56l-28 -129c-2 -7.33301 0.666992 -11 8 -11h82c13.333 0 20 -5.66699 20 -17v-50
c0 -11.333 -5 -17 -15 -17h-105c-6.66699 0 -11 -3.66699 -13 -11l-64 -300c-10 -47.333 -28.167 -82.833 -54.5 -106.5s-63.5 -35.5 -111.5 -35.5z" />
    <glyph glyph-name="AEacute" unicode="&#x1fc;" horiz-adv-x="778" 
d="M486 836h79c5.33301 0 8.83301 -1.66699 10.5 -5s0.833984 -7.33301 -2.49902 -12l-84 -100c-6 -8 -13.667 -12 -23 -12h-48c-10.667 0 -13.334 5.66699 -8.00098 17l52 96c4.66699 10.667 12.667 16 24 16zM86 0h-69.999c-12.667 0 -16.334 6 -11.001 18l301 608
c5.33301 11.333 14.333 17 27 17h376c11.333 0 17 -5.66699 17 -17v-51c0 -11.333 -5.66699 -17 -17 -17h-228c-7.33301 0 -11 -3.33301 -11 -10v-169c0 -6.66699 3.66699 -10 11 -10h193c12 0 18 -5.66699 18 -17v-51c0 -11.333 -6 -17 -18 -17h-193
c-7.33301 0 -11 -3.33301 -11 -10v-178c0 -7.33301 3.66699 -11 11 -11h228c11.333 0 17 -5.66699 17 -17v-51c0 -11.333 -5.66699 -17 -17 -17h-320c-11.333 0 -17 5.66699 -17 17v130h-198l-66 -130c-4.66699 -11.333 -12 -17 -22 -17zM372.001 234v314h-4l-156 -314h160z
" />
    <glyph glyph-name="aeacute" unicode="&#x1fd;" horiz-adv-x="770" 
d="M435 703h78.999c5.33301 0 8.83301 -1.5 10.5 -4.5s0.833984 -7.16699 -2.49902 -12.5l-84 -100c-6.66699 -8 -14.667 -12 -24 -12h-47c-11.333 0 -14 5.66699 -8 17l52 96c4.66699 10.667 12.667 16 24 16zM439.999 189v-29.999c0 -49.333 24.333 -74 73 -74h190
c12 0 18 -5.66699 18 -17v-52c0 -10.667 -6 -16 -18 -16h-205c-57.333 0 -98.333 20.333 -123 61c-22 -40.667 -67.333 -61 -136 -61h-34c-48 0 -85.833 13.167 -113.5 39.5s-41.5 63.166 -41.5 110.499v16c0 48.667 13.5 85.667 40.5 111s65.167 38 114.5 38h130
c5.33301 0 8 2.66699 8 8v29c0 48.667 -24 73 -72 73h-160c-11.333 0 -17 5.66699 -17 17v51c0 11.333 5.66699 17 17 17h157c62 0 103.333 -19.667 124 -59c20.667 39.333 61 59 121 59h53c48.667 0 86.667 -13.5 114 -40.5s41 -65.167 41 -114.5v-138
c0 -12 -6 -18 -18 -18h-251c-8 0 -12 -3.33301 -12 -10zM634.999 278.001v73c0 49.333 -24.333 74 -73 74h-46c-50.667 0 -76 -24 -76 -72v-75c0 -7.33301 3.66699 -11 11 -11h173c7.33301 0 11 3.66699 11 11zM342.999 164.001v70c0 6.66699 -3.66699 10 -11 10h-112
c-27.333 0 -47.166 -6 -59.499 -18s-18.5 -30.667 -18.5 -56v-14c0 -26 6.16699 -45.167 18.5 -57.5s32.166 -18.5 59.499 -18.5h41c54.667 0 82 28 82 84z" />
    <glyph glyph-name="Oslashacute" unicode="&#x1fe;" horiz-adv-x="572" 
d="M502 488v-333c0 -48.667 -13.667 -86.667 -41 -114s-65.333 -41 -114 -41h-122c-45.333 0 -81.333 11.667 -108 35l-20 -28c-7.33301 -9.33301 -16 -11 -26 -5l-17 13c-9.33301 7.33301 -10.666 16 -3.99902 26l32 45c-8 20 -12 43 -12 69v333
c0 49.333 13.5 87.5 40.5 114.5s65.167 40.5 114.5 40.5h122c45.333 0 81.666 -11.667 108.999 -35l19 27c7.33301 10 16 11.667 26 5l17 -12c9.33301 -6.66699 11 -15 5 -25l-33 -46c8 -20 12 -43 12 -69zM167 484v-279l230 321c-10 21.333 -31.333 32 -64 32h-94
c-48 0 -72 -24.667 -72 -74zM405 159l0.000976562 279l-230 -321c11.333 -21.333 32.666 -32 63.999 -32h94c48 0 72 24.667 72 74zM300.001 707h-47c-12 0 -14.667 5.66699 -8 17l51 96c5.33301 10.667 13.666 16 24.999 16h79c5.33301 0 8.83301 -1.66699 10.5 -5
s0.833984 -7.33301 -2.49902 -12l-84 -100c-6.66699 -8 -14.667 -12 -24 -12z" />
    <glyph glyph-name="oslashacute" unicode="&#x1ff;" horiz-adv-x="520" 
d="M460 355v-199.999c0 -48.667 -13.667 -86.667 -41 -114s-65.666 -41 -114.999 -41h-87c-54 0 -95 16.667 -123 50l-31 -31c-9.33301 -8.66699 -17.333 -8.66699 -24 0l-14 13c-8.66699 8 -8.66699 16.333 0 25l43 43c-4.66699 16 -7 34.333 -7 55v200
c0 49.333 13.667 87.5 41 114.5s65.666 40.5 114.999 40.5h87c54.667 0 96 -16.667 124 -50l30 30c7.33301 9.33301 15.333 9.66602 24 0.999023l14 -13c9.33301 -8 9.33301 -16.333 0 -25l-43 -43c4.66699 -16 7 -34.333 7 -55zM159 351.001v-160l197 197
c-8.66699 24.667 -30.667 37 -66 37h-59c-48 0 -72 -24.667 -72 -74zM362 159.001v160l-197 -198c8.66699 -24 30.667 -36 66 -36h59c48 0 72 24.667 72 74zM283 574.001h-46.998c-10.667 0 -13.334 5.66699 -8.00098 17l52 96c5.33301 10.667 13.666 16 24.999 16h78
c6 0 9.83301 -1.5 11.5 -4.5s0.5 -7.16699 -3.5 -12.5l-84 -100c-6 -8 -14 -12 -24 -12z" />
    <glyph glyph-name="uni0218" unicode="&#x218;" horiz-adv-x="548" 
d="M61 156v25.999c0 11.333 5.66699 17 17 17h64c11.333 0 17 -5.66699 17 -17v-18c0 -28 6.16699 -48.167 18.5 -60.5s32.833 -18.5 61.5 -18.5h69c28.667 0 49.334 6.5 62.001 19.5s19 34.167 19 63.5v23c0 21.333 -8.16699 38.166 -24.5 50.499s-36.5 20.333 -60.5 24
s-50.333 8.83398 -79 15.501s-55 14.334 -79 23.001s-44.167 25 -60.5 49s-24.5 54.667 -24.5 92v42c0 48.667 13.833 86.834 41.5 114.501s65.834 41.5 114.501 41.5h106c49.333 0 87.833 -13.833 115.5 -41.5s41.5 -65.834 41.5 -114.501v-22
c0 -11.333 -5.66699 -17 -17 -17h-64c-11.333 0 -17 5.66699 -17 17v13c0 28.667 -6.16699 49.167 -18.5 61.5s-32.833 18.5 -61.5 18.5h-63c-28.667 0 -49.167 -6.5 -61.5 -19.5s-18.5 -35.167 -18.5 -66.5v-31c0 -30 21.667 -50.333 65 -61
c19.333 -4.66699 40.5 -8.66699 63.5 -12s46.167 -8.33301 69.5 -15s44.666 -15.5 63.999 -26.5s35 -27.667 47 -50s18 -49.5 18 -81.5v-39c0 -48.667 -13.833 -86.834 -41.5 -114.501s-65.834 -41.5 -114.501 -41.5h-112c-48.667 0 -87 13.833 -115 41.5
s-42 65.834 -42 114.501zM323 -48.001v-47c0 -20 -5.66699 -40 -17 -60l-43 -74c-4 -6 -9 -9 -15 -9c-8.66699 0 -13 5.33301 -13 16v173c0 11.333 5 17 15 17h58c10 0 15 -5.33301 15 -16z" />
    <glyph glyph-name="uni0219" unicode="&#x219;" horiz-adv-x="435" 
d="M268 -48v-47c0 -20.667 -6 -40.667 -18 -60l-43 -74c-4 -6 -8.66699 -9 -14 -9c-9.33301 0 -14 5.33301 -14 16v173c0 11.333 5.33301 17 16 17h57c10.667 0 16 -5.33301 16 -16zM245 0l-184 0.000976562c-11.333 0 -17 5.66699 -17 17v49c0 10.667 5.66699 16 17 16h168
c43.333 0 65 15 65 45v12c0 26.667 -15.667 47 -47 61l-109 52c-34 16 -58.667 33.667 -74 53s-23 44.666 -23 75.999c0 86 47.667 129 143 129h166c10.667 0 16 -5.66699 16 -17v-49c0 -11.333 -5.33301 -17 -16 -17h-146c-20 0 -35.333 -3.5 -46 -10.5
s-16 -16.167 -16 -27.5v-11c0 -21.333 17 -40 51 -56l110 -56c34.667 -15.333 58.5 -33.5 71.5 -54.5s19.5 -48.167 19.5 -81.5c0 -86.667 -49.667 -130 -149 -130z" />
    <glyph glyph-name="circumflex" unicode="&#x2c6;" horiz-adv-x="338" 
d="M271 574h-47c-7.33301 0 -12.333 3.33301 -15 10l-41 78l-40 -78c-2.66699 -6.66699 -8 -10 -16 -10h-45c-4 0 -6.66699 1.33301 -8 4s-1 5.33398 1 8.00098l63 107c4.66699 6.66699 12 10 22 10h47c10 0 17.333 -3.33301 22 -10l63 -107
c2 -2.66699 2.5 -5.33398 1.5 -8.00098s-3.5 -4 -7.5 -4z" />
    <glyph glyph-name="caron" unicode="&#x2c7;" horiz-adv-x="338" 
d="M145 574c-10 0 -17.333 3.33398 -22 10.001l-63 107c-2 3.33301 -2.33301 6.16602 -1 8.49902s4 3.5 8 3.5h45c8 0 13.333 -3.33301 16 -10l40 -78l41 78c2.66699 6.66699 7.66699 10 15 10h47c8.66699 0 10.667 -4 6 -12l-63 -107c-4.66699 -6.66699 -12 -10 -22 -10
h-47z" />
    <glyph glyph-name="uni02C9" unicode="&#x2c9;" horiz-adv-x="350" 
d="M275 605h-199c-12 0 -18 5.66699 -18 17v34c0 11.333 6 17 18 17h199c11.333 0 17 -5.66699 17 -17v-34c0 -11.333 -5.66699 -17 -17 -17z" />
    <glyph glyph-name="breve" unicode="&#x2d8;" horiz-adv-x="336" 
d="M58 680v11c0 8 4 12 12 12h38c8 0 12 -4 12 -12v-10c0 -20 3.5 -34.333 10.5 -43s18.167 -13 33.5 -13h7c16 0 27.5 4.33301 34.5 13s10.5 23 10.5 43v10c0 8 4 12 12 12h37c8 0 12 -4 12 -12v-11c0 -70.667 -32.333 -106 -97 -106h-25c-64.667 0 -97 35.333 -97 106z
" />
    <glyph glyph-name="dotaccent" unicode="&#x2d9;" horiz-adv-x="215" 
d="M58 590v97c0 10.667 5.66699 16 17 16h65c10.667 0 16 -5.33301 16 -16v-97c0 -10.667 -5.33301 -16 -16 -16h-65c-11.333 0 -17 5.33301 -17 16z" />
    <glyph glyph-name="ring" unicode="&#x2da;" horiz-adv-x="282" 
d="M90 657v-32.998c0 -12.667 2.66699 -21.334 8 -26.001s14.333 -7 27 -7h15c12.667 0 21.5 2.33301 26.5 7s7.5 13.334 7.5 26.001v33c0 13.333 -2.5 22.166 -7.5 26.499s-13.833 6.5 -26.5 6.5h-15c-12.667 0 -21.667 -2.33301 -27 -7s-8 -13.334 -8 -26.001zM53 612.002
v60c0 34.667 19 52 57 52h44c38.667 0 58 -17.333 58 -52v-60c0 -36.667 -19.333 -55 -58 -55h-44c-38 0 -57 18.333 -57 55z" />
    <glyph glyph-name="ogonek" unicode="&#x2db;" horiz-adv-x="243" 
d="M118 -66c20 0 34 1 42 3c15.333 1.33301 21.666 -3.66699 18.999 -15c-0.666992 -11.333 -10.5 -20.5 -29.5 -27.5s-36.667 -10.5 -53 -10.5s-25.833 7 -28.5 21s0.333008 26.667 9 38l47 77l40 -10c-1.33301 -2 -4.16602 -6.5 -8.49902 -13.5l-16.5 -25.5
c-16.667 -24.667 -23.667 -37 -21 -37z" />
    <glyph glyph-name="tilde" unicode="&#x2dc;" horiz-adv-x="359" 
d="M58 652v37.999c0 7.33301 3.33301 11 10 11h30c6 0 9 -3.66699 9 -11v-19c0 -16.667 1.5 -28 4.5 -34s7.66699 -9 14 -9s11.5 2.33301 15.5 7s10.667 14.834 20 30.501s18.333 26.167 27 31.5s19.667 8 33 8c44.667 0 67 -25.667 67 -77v-38c0 -8 -3 -12 -9 -12h-31
c-6 0 -9 4 -9 12v18c0 17.333 -1.5 28.833 -4.5 34.5s-8.33301 8.5 -16 8.5s-14.834 -5.66699 -21.501 -17c-1.33301 -2 -5.66602 -9.33301 -12.999 -22c-13.333 -24.667 -33 -37 -59 -37c-44.667 0 -67 25.667 -67 77z" />
    <glyph glyph-name="hungarumlaut" unicode="&#x2dd;" horiz-adv-x="401" 
d="M138 703h52.001c12 0 14.667 -5.66699 8 -17l-75 -100c-4.66699 -8 -11.667 -12 -21 -12h-32c-10.667 0 -13.334 5.66699 -8.00098 17l51 96c4.66699 10.667 13 16 25 16zM280.001 703h50.998c12.667 0 15.334 -5.66699 8.00098 -17l-75 -100
c-5.33301 -8 -12.333 -12 -21 -12h-32c-11.333 0 -14 5.66699 -8 17l51 96c4.66699 10.667 13.334 16 26.001 16z" />
    <glyph glyph-name="Mu" unicode="&#x39c;" horiz-adv-x="550" 
d="M237 0c-32 0 -52.667 6 -62 18v-134c0 -11.333 -6 -17 -18 -17h-63c-11.333 0 -17 5.66699 -17 17v609c0 11.333 5.66699 17 17 17h63c12 0 18 -5.66699 18 -17v-334c0 -49.333 23.667 -74 71 -74h48c54.667 0 82 28.333 82 85v323c0 11.333 5.66699 17 17 17h63
c12 0 18 -5.66699 18 -17v-476c0 -11.333 -6 -17 -18 -17h-63c-11.333 0 -17 5.66699 -17 17v36h-4c-16 -35.333 -49.667 -53 -101 -53h-34z" />
    <glyph glyph-name="Pi" unicode="&#x3a0;" horiz-adv-x="641" 
d="M220 0h-64c-11.333 0 -17 5.66699 -17 17v531c0 5.33301 -3.66699 8 -11 8h-76c-12 0 -18 6 -18 18v52c0 11.333 6 17 18 17h538c11.333 0 17 -5.66699 17 -17v-52c0 -12 -5.66699 -18 -17 -18h-77c-7.33301 0 -11 -3.33301 -11 -10v-529c0 -11.333 -5.66699 -17 -17 -17
h-63c-12 0 -18 5.66699 -18 17v529c0 6.66699 -3.33301 10 -10 10h-146c-7.33301 0 -11 -3.33301 -11 -10v-529c0 -11.333 -5.66699 -17 -17 -17z" />
    <glyph glyph-name="Sigma" unicode="&#x3a3;" horiz-adv-x="489" 
d="M63 575v51.001c0 11.333 5.66699 17 17 17h337c11.333 0 17 -5.66699 17 -17v-57c0 -12 -5.66699 -18 -17 -18h-240v-4l142 -211c8.66699 -13.333 8.66699 -26.333 0 -39l-142 -202v-4h240c12 0 18 -6 18 -18v-56c0 -11.333 -6 -17 -18 -17h-337
c-10.667 0 -16 5.66699 -16 17v50c0 15.333 3.66699 29 11 41l144 207v4l-145 216c-7.33301 11.333 -11 24.666 -11 39.999z" />
    <glyph glyph-name="uni0901" unicode="&#x901;" horiz-adv-x="0" 
d="M-53 694l-114 -0.000976562c-38.667 0 -68 10.833 -88 32.5s-30 52.834 -30 93.501v7c0 18 7.33301 27 22 27h39c13.333 0 20 -8.33301 20 -25v-9c0 -18 4 -31 12 -39s21.667 -12 41 -12h83c18.667 0 32 4 40 12s12 21 12 39v9c0 16.667 7.33301 25 22 25h37
c14.667 0 22 -9 22 -27v-7c0 -84 -39.333 -126 -118 -126zM-71 895.999v-43c0 -12.667 -6 -19 -18 -19h-41c-11.333 0 -17 6.33301 -17 19v43c0 12 5.66699 18 17 18h41c12 0 18 -6 18 -18z" />
    <glyph glyph-name="uni0902" unicode="&#x902;" horiz-adv-x="0" 
d="M-72 802v-59c0 -12.667 -6 -19 -18 -19h-63c-11.333 0 -17 6.33301 -17 19v59c0 12 5.66699 18 17 18h63c12 0 18 -6 18 -18z" />
    <glyph glyph-name="uni0903" unicode="&#x903;" horiz-adv-x="251" 
d="M175 428v-57c0 -15.333 -7.33301 -23 -22 -23h-53c-14.667 0 -22 7.66699 -22 23v57c0 14.667 7.33301 22 22 22h53c14.667 0 22 -7.33301 22 -22zM175 144v-56c0 -15.333 -7.33301 -23 -22 -23h-53c-14.667 0 -22 7.66699 -22 23v56c0 15.333 7.33301 23 22 23h53
c14.667 0 22 -7.66699 22 -23z" />
    <glyph glyph-name="uni0905" unicode="&#x905;" horiz-adv-x="605" 
d="M478 623l131 0.000976562c13.333 0 20 -6 20 -18v-43c0 -12.667 -6.66699 -19 -20 -19h-65c-7.33301 0 -11 -4 -11 -12v-512c0 -12.667 -6.33301 -19 -19 -19h-53c-12.667 0 -19 6.33301 -19 19v186c0 8 -3.66699 12 -11 12h-99v-21
c0 -50.667 -14.167 -89.834 -42.5 -117.501s-68.166 -41.5 -119.499 -41.5h-114c-13.333 0 -20 6.33301 -20 19v43c0 12.667 6.66699 19 20 19h108c52.667 0 79 25.333 79 76v28c0 25.333 -6.33301 44 -19 56s-32.667 18 -60 18h-52c-12.667 0 -19 6.66699 -19 20v42
c0 13.333 6.33301 20 19 20h52c52.667 0 79 25 79 75v14c0 26 -6.33301 45.167 -19 57.5s-32.667 18.5 -60 18.5h-77c-12.667 0 -19 6.33301 -19 19v43c0 12 6.33301 18 19 18h88c104.667 0 157 -53 157 -159v-16c0 -54 -20 -90.333 -60 -109v-4
c20.667 -7.33301 36 -20.333 46 -39h113c7.33301 0 11 4 11 12v277c0 11.333 3.16699 20.5 9.5 27.5s15.166 10.5 26.499 10.5z" />
    <glyph glyph-name="uni0906" unicode="&#x906;" horiz-adv-x="839" 
d="M477 623l367 0.000976562c12.667 0 19 -6 19 -18v-43c0 -12.667 -6.33301 -19 -19 -19h-66c-7.33301 0 -11 -4 -11 -12v-512c0 -12.667 -6.33301 -19 -19 -19h-53c-12.667 0 -19 6.33301 -19 19v512c0 8 -3.66699 12 -11 12h-122c-7.33301 0 -11 -4 -11 -12v-512
c0 -12.667 -6.33301 -19 -19 -19h-53c-12.667 0 -19 6.33301 -19 19v186c0 8 -3.66699 12 -11 12h-99v-21c0 -50.667 -14.167 -89.834 -42.5 -117.501s-68.166 -41.5 -119.499 -41.5h-114c-13.333 0 -20 6.33301 -20 19v43c0 12.667 6.66699 19 20 19h108
c52.667 0 79 25.333 79 76v28c0 25.333 -6.33301 44 -19 56s-32.667 18 -60 18h-52c-12.667 0 -19 6.66699 -19 20v42c0 13.333 6.33301 20 19 20h52c52.667 0 79 25 79 75v14c0 26 -6.33301 45.167 -19 57.5s-32.667 18.5 -60 18.5h-77c-12.667 0 -19 6.33301 -19 19v43
c0 12 6.33301 18 19 18h88c104.667 0 157 -53 157 -159v-16c0 -54 -20 -90.333 -60 -109v-4c20.667 -7.33301 36 -20.333 46 -39h113c7.33301 0 11 4 11 12v277c0 11.333 3.16699 20.5 9.5 27.5s15.166 10.5 26.499 10.5z" />
    <glyph glyph-name="uni0907" unicode="&#x907;" horiz-adv-x="471" 
d="M281 212l-92 -0.000976562c-87.333 0 -131 40.667 -131 122v15c0 38.667 11.5 67.834 34.5 87.501s55.167 29.5 96.5 29.5h103c7.33301 0 11 4 11 12v53c0 8 -3.66699 12 -11 12h-297c-12.667 0 -19 6 -19 18v44c0 12 6.33301 18 19 18h481c12.667 0 19 -6 19 -18v-44
c0 -12 -6.33301 -18 -19 -18h-72c-7.33301 0 -11 -4 -11 -12v-102c0 -28.667 -15.333 -43 -46 -43h-151c-18 0 -30.667 -3.5 -38 -10.5s-11 -18.833 -11 -35.5v-8c0 -15.333 3.83301 -26.166 11.5 -32.499s20.167 -9.5 37.5 -9.5h97c40.667 0 72.167 -9.5 94.5 -28.5
s33.5 -47.5 33.5 -85.5v-47c0 -38.667 -11.333 -69 -34 -91s-54 -33 -94 -33h-76c-36 0 -59.333 10.333 -70 31h-4v-73c0 -12.667 -6.66699 -19 -20 -19h-50c-12.667 0 -19 6.33301 -19 19v188c0 12.667 6.33301 19 19 19h50c13.333 0 20 -6.33301 20 -19v-10
c0 -37.333 19.667 -56 59 -56h79c18 0 30.667 3.5 38 10.5s11 18.833 11 35.5v39c0 15.333 -3.83301 26.166 -11.5 32.499s-20.167 9.5 -37.5 9.5z" />
    <glyph glyph-name="uni0908" unicode="&#x908;" horiz-adv-x="471" 
d="M312 712v-46.001c0 -17.333 3.33301 -28.833 10 -34.5s20 -8.5 40 -8.5h114c12.667 0 19 -6 19 -18v-44c0 -12 -6.33301 -18 -19 -18h-72c-7.33301 0 -11 -3.66699 -11 -11v-103c0 -28.667 -15.333 -43 -46 -43h-151c-18 0 -30.667 -3.5 -38 -10.5s-11 -18.833 -11 -35.5
v-8c0 -15.333 3.83301 -26.166 11.5 -32.499s20.167 -9.5 37.5 -9.5h97c40.667 0 72.167 -9.5 94.5 -28.5s33.5 -47.5 33.5 -85.5v-47c0 -38.667 -11.333 -69 -34 -91s-54 -33 -94 -33h-76c-36 0 -59.333 10.333 -70 31h-4v-73c0 -12.667 -6.66699 -19 -20 -19h-50
c-12.667 0 -19 6.33301 -19 19v188c0 12.667 6.33301 19 19 19h50c13.333 0 20 -6.33301 20 -19v-10c0 -37.333 19.667 -56 59 -56h79c18 0 30.667 3.5 38 10.5s11 18.833 11 35.5v39c0 15.333 -3.83301 26.166 -11.5 32.499s-20.167 9.5 -37.5 9.5h-92
c-87.333 0 -131 40.667 -131 122v15c0 38.667 11.5 67.834 34.5 87.501s55.167 29.5 96.5 29.5h103c7.33301 0 11 4 11 12v54c0 7.33301 -3.66699 11 -11 11h-297c-12.667 0 -19 6 -19 18v44c0 12 6.33301 18 19 18h247v4c-14 6.66699 -21 22 -21 46v42
c0 48.667 14.5 86.5 43.5 113.5s66.833 40.5 113.5 40.5h59c13.333 0 20 -6.33301 20 -19v-43c0 -12.667 -6.66699 -19 -20 -19h-54c-47.333 0 -71 -25.333 -71 -76z" />
    <glyph glyph-name="uni0909" unicode="&#x909;" horiz-adv-x="465" 
d="M411 214v-50c0 -51.333 -13.833 -91.5 -41.5 -120.5s-67.5 -43.5 -119.5 -43.5h-52c-51.333 0 -91.5 14.5 -120.5 43.5s-43.5 69.167 -43.5 120.5v39c0 15.333 6.66699 23 20 23h52c12 0 18 -7.66699 18 -23v-39c0 -55.333 28 -83 84 -83h33c53.333 0 80 29.333 80 88v26
c0 29.333 -6.16699 50.333 -18.5 63s-32.833 19 -61.5 19h-42c-13.333 0 -20 6.66699 -20 20v42c0 13.333 6.33301 20 19 20h43c52 0 78 24 78 72v38c0 49.333 -25.667 74 -77 74h-247c-12.667 0 -19 6.33301 -19 19v43c0 12 6.33301 18 19 18h474c13.333 0 20 -6 20 -18
v-43c0 -12.667 -6.66699 -19 -20 -19h-98v-4c24.667 -12.667 37 -37.334 37 -74.001v-42c0 -53.333 -20.333 -87.666 -61 -102.999v-4c42.667 -16.667 64 -50.667 64 -102z" />
    <glyph glyph-name="uni090A" unicode="&#x90a;" horiz-adv-x="657" 
d="M-5 623l667.001 0.000976562c12.667 0 19 -6 19 -18v-43c0 -12.667 -6.33301 -19 -19 -19h-291v-4c24.667 -12.667 37 -37.334 37 -74.001v-42c0 -53.333 -20.333 -87.666 -61 -102.999v-4h155c40 0 72 -11.167 96 -33.5s36 -54.833 36 -97.5v-55
c0 -42 -11.833 -73.5 -35.5 -94.5s-55.834 -31.5 -96.501 -31.5h-33c-13.333 0 -20 6.33301 -20 19v43c0 12.667 6.66699 19 20 19h10c24 0 41 5.16699 51 15.5s15 27.5 15 51.5v16c0 23.333 -5 40.166 -15 50.499s-27 15.5 -51 15.5h-69c0.666992 -4 1 -10.667 1 -20v-46
c0 -52 -13.833 -93 -41.5 -123s-67.5 -45 -119.5 -45h-52c-51.333 0 -91.5 14.5 -120.5 43.5s-43.5 69.167 -43.5 120.5v39c0 15.333 6.66699 23 20 23h52c12 0 18 -7.66699 18 -23v-39c0 -55.333 28 -83 84 -83h33c53.333 0 80 29.333 80 88v26
c0 29.333 -6.16699 50.333 -18.5 63s-32.833 19 -61.5 19h-42c-13.333 0 -20 6.66699 -20 20v42c0 13.333 6.33301 20 19 20h43c52 0 78 24 78 72v38c0 49.333 -25.667 74 -77 74h-247c-12.667 0 -19 6.33301 -19 19v43c0 12 6.33301 18 19 18z" />
    <glyph glyph-name="uni090B" unicode="&#x90b;" horiz-adv-x="776" 
d="M-5 623l785 -0.000976562c13.333 0 20 -6 20 -18v-43c0 -12.667 -6.66699 -19 -20 -19h-337c-8 0 -12 -4 -12 -12v-207l118 93c12 8.66699 23.333 13 34 13h108c12.667 0 19 -6.33301 19 -19v-188c0 -15.333 -9.33301 -23 -28 -23h-27c-35.333 0 -53 -16 -53 -48v-29
c0 -30.667 18.667 -46 56 -46h43c16 0 24 -7.33301 24 -22v-34c0 -14 -8.66699 -21 -26 -21h-51c-90 0 -135 38 -135 114v43c0 68.667 34 105.334 102 110.001c7.33301 0.666992 11 4.66699 11 12v89l-195 -152v-197c0 -12.667 -6.33301 -19 -19 -19h-52
c-12.667 -0 -19 6.33301 -19 19v127l-170 -134c-10.667 -8 -21 -12 -31 -12h-71c-10 0 -15 5 -15 15c0 8 4.66699 15.333 14 22l184 145l86 62v29c0 52 -28 78 -84 78h-33c-54 0 -81 -25.667 -81 -77v-31c0 -12.667 -6.33301 -19 -19 -19h-51c-13.333 0 -20 6.33301 -20 19
v36c0 49.333 14 87.5 42 114.5s67.333 40.5 118 40.5h26c48 0 81.667 -14.667 101 -44h4v141c0 8 -4 12 -12 12h-334c-12.667 0 -19 6.33301 -19 19v43c0 12 6.33301 18 19 18z" />
    <glyph glyph-name="uni090C" unicode="&#x90c;" horiz-adv-x="654" 
d="M686 -132c4 -5.33301 5.99902 -11.166 5.99902 -17.499s-5.66699 -13.5 -17 -21.5c-34 -28 -77.333 -42 -130 -42s-93 12.5 -121 37.5s-42 62.167 -42 111.5c0 81.333 36.333 128 109 140v208c0 27.333 -5.16699 46.5 -15.5 57.5s-27 16.5 -50 16.5
s-39.667 -5.66699 -50 -17s-15.5 -31.333 -15.5 -60v-66c0 -12.667 -6.33301 -19 -19 -19h-49c-12.667 0 -19 6.33301 -19 19v72c0 26 -5.33301 44.667 -16 56s-27 17 -49 17c-44.667 0 -67 -27.333 -67 -82v-85c0 -54.667 27.333 -82 82 -82h22c13.333 0 20 -6 20 -18v-44
c0 -12.667 -6.66699 -19 -20 -19h-34c-50.667 0 -90 13.667 -118 41s-42 66.666 -42 117.999v94c0 51.333 13.5 90.833 40.5 118.5s63.5 41.5 109.5 41.5c58.667 0 96 -20.333 112 -61h4c14 40 46.667 60 98 60c35.333 0 59.333 -10.333 72 -31h4v120
c0 7.33301 -3.33301 11.333 -10 12h-486c-12.667 0 -19 6.33301 -19 19v43c0 12 6.33301 18 19 18h663c13.333 0 20 -6 20 -18v-43c0 -12.667 -6.66699 -19 -20 -19h-65c-7.33301 0 -11 -4 -11 -12v-509c0 -13.333 -6.66699 -20 -20 -20h-35c-22 0 -37.333 -5.5 -46 -16.5
s-13 -28.5 -13 -52.5s6 -41.167 18 -51.5s33 -15.5 63 -15.5s59 11.667 87 35c4.66699 4 9.83398 6 15.501 6s10.5 -3.33301 14.5 -10z" />
    </font>
</defs>
</svg>
