<?xml version="1.0" encoding="UTF-8" standalone="no"?>
<svg xmlns:dc="http://purl.org/dc/elements/1.1/" xmlns:cc="http://creativecommons.org/ns#" xmlns:rdf="http://www.w3.org/1999/02/22-rdf-syntax-ns#" xmlns:svg="http://www.w3.org/2000/svg" xmlns="http://www.w3.org/2000/svg" height="500" viewBox="46.9 24 870.95165272 188.0535505847953" width="2500" version="1.1" id="svg6">
<metadata id="metadata12">
<rdf:RDF>
<cc:Work rdf:about="">
<dc:format>image/svg+xml</dc:format>
<dc:type rdf:resource="http://purl.org/dc/dcmitype/StillImage" />
<dc:title></dc:title>
</cc:Work>
</rdf:RDF>
</metadata>
<defs id="defs10" />
<path d="M 88.4,94.42677529239756 C 100.8,94.42677529239756 111.1,100.8267752923976 116,107.7267752923976 V 96.12677529239755 H 134.9 V 182.2267752923976 H 121.3 A 5.378000000000001,5.378000000000001 0 0 1 115.9,176.8267752923976 V 170.6267752923976 C 111.1,177.6267752923976 100.8,184.0267752923976 88.4,184.0267752923976 64.80000000000001,184.0267752923976 46.90000000000001,163.8267752923976 46.90000000000001,139.2267752923976 46.90000000000001,114.6267752923976 64.7,94.42677529239756 88.4,94.42677529239756 M 91.7,111.6267752923976 C 76.4,111.6267752923976 66,123.7267752923976 66,139.2267752923976 66,154.7267752923976 76.29999999999998,166.8267752923976 91.7,166.8267752923976 107,166.8267752923976 117.4,154.7267752923976 117.4,139.2267752923976 117.4,123.7267752923976 107.2,111.6267752923976 91.7,111.6267752923976 M 156.4,96.12677529239758 H 175.4 V 107.8267752923976 C 180.6,99.22677529239759 190.4,94.42677529239756 201.6,94.42677529239756 221.6,94.42677529239756 234.5,108.5267752923976 234.5,130.4267752923976 V 182.2267752923976 H 220.9 A 5.378000000000001,5.378000000000001 0 0 1 215.5,176.8267752923976 V 133.5267752923976 C 215.5,119.9267752923976 208.6,111.6267752923976 197.6,111.6267752923976 185,111.6267752923976 175.4,121.4267752923976 175.4,139.8267752923976 V 182.2267752923976 H 161.8 A 5.378000000000001,5.378000000000001 0 0 1 156.4,176.8267752923976 Z M 291,94.42677529239756 C 303.4,94.42677529239756 313.7,100.8267752923976 318.6,107.7267752923976 V 53.12677529239757 H 337.5 V 182.3267752923976 H 323.9 A 5.378000000000001,5.378000000000001 0 0 1 318.5,176.9267752923976 V 170.7267752923976 C 313.7,177.6267752923976 303.3,184.0267752923976 290.9,184.0267752923976 267.3,184.0267752923976 249.4,163.8267752923976 249.4,139.2267752923976 249.5,114.6267752923976 267.4,94.42677529239759 291,94.42677529239759 M 294.4,111.6267752923976 C 279.1,111.6267752923976 268.7,123.7267752923976 268.7,139.2267752923977 268.7,154.7267752923977 279,166.8267752923976 294.4,166.8267752923976 309.7,166.8267752923976 320.1,154.7267752923977 320.1,139.2267752923977 320.1,123.7267752923976 309.7,111.6267752923976 294.4,111.6267752923976 M 359,96.12677529239761 H 377.9 V 111.4267752923976 A 24.26,24.26 0 0 1 400.6,95.2267752923976 38.52000000000001,38.52000000000001 0 0 1 408,95.92677529239759 V 115.4267752923976 A 30.541,30.541 0 0 0 398.5,113.8267752923976 C 387.6,113.8267752923976 377.8,122.9267752923976 377.8,140.2267752923977 V 182.2267752923977 H 364.1999999999999 A 5.378000000000001,5.378000000000001 0 0 1 358.8,176.8267752923976 V 96.12677529239759 Z M 459.2,184.0267752923977 C 433.7,184.0267752923977 414.1,164.2267752923977 414.1,139.2267752923977 414.1,114.2267752923976 433.7,94.42677529239762 459.2,94.42677529239762 484.7,94.42677529239762 504.3,114.2267752923976 504.3,139.2267752923977 504.3,164.2267752923977 484.7,184.0267752923977 459.2,184.0267752923977 M 459.2,166.4267752923977 C 474.4,166.4267752923977 485,154.5267752923977 485,139.2267752923977 485,123.9267752923976 474.3,112.0267752923976 459.2,112.0267752923976 443.9,112.0267752923976 433.2,123.9267752923976 433.2,139.2267752923977 433.2,154.5267752923977 443.9,166.4267752923977 459.2,166.4267752923977 M 529.1,77.32677529239762 A 12.65,12.65 0 1 1 529.1,52.02677529239763 12.65,12.65 0 0 1 529.1,77.32677529239762 M 519.7,96.12677529239762 H 538.6 V 182.2267752923977 H 525 A 5.378000000000001,5.378000000000001 0 0 1 519.6,176.8267752923976 C 519.7,176.8267752923976 519.7,96.12677529239759 519.7,96.12677529239762 Z M 595.7,94.42677529239762 C 608.1,94.42677529239762 618.3999999999999,100.8267752923976 623.2999999999999,107.7267752923976 V 53.12677529239763 H 642.2 V 182.3267752923976 H 628.6 A 5.378000000000001,5.378000000000001 0 0 1 623.2,176.9267752923976 V 170.7267752923977 C 618.3999999999999,177.6267752923977 608,184.0267752923977 595.6,184.0267752923977 572,184.0267752923977 554.1,163.8267752923977 554.1,139.2267752923977 554.2,114.6267752923976 572.1,94.42677529239762 595.7,94.42677529239762 M 599.2,111.6267752923976 C 583.8999999999999,111.6267752923976 573.5,123.7267752923976 573.5,139.2267752923977 573.5,154.7267752923977 583.7999999999999,166.8267752923977 599.2,166.8267752923977 614.5,166.8267752923977 624.8999999999999,154.7267752923977 624.8999999999999,139.2267752923977 624.8999999999999,123.7267752923976 614.5000000000001,111.6267752923976 599.2,111.6267752923976" id="path2" />
<path d="M 851.2999999999999,150.0416367754133 A 9.599999999999999,9.599999999999999 0 1 1 860.8999999999998,140.4416367754134 9.602,9.602 0 0 1 851.2999999999999,150.0416367754133 M 745.5999999999999,150.0416367754133 A 9.599999999999999,9.599999999999999 0 1 1 755.1999999999999,140.4416367754134 9.602,9.602 0 0 1 745.5999999999999,150.0416367754133 M 854.6999999999999,92.44163677541334 873.8999999999998,59.34163677541334 A 3.963,3.963 0 1 0 867,55.44163677541335 L 847.6,88.94163677541334 A 117.178,117.178 0 0 0 798.5,78.34163677541333 119.152,119.152 0 0 0 749.2999999999999,88.84163677541333 L 729.7999999999999,55.34163677541334 A 3.963,3.963 0 1 0 722.8999999999998,59.24163677541334 L 742,92.34163677541334 A 113.107,113.107 0 0 0 683.3999999999998,182.7416367754134 H 913.0999999999999 A 112.654,112.654 0 0 0 854.6999999999999,92.44163677541335" fill="#3ddc84" id="path4" />
</svg>
