<?xml version="1.0" encoding="UTF-8" standalone="no"?>
<svg xmlns:dc="http://purl.org/dc/elements/1.1/" xmlns:cc="http://creativecommons.org/ns#" xmlns:rdf="http://www.w3.org/1999/02/22-rdf-syntax-ns#" xmlns:svg="http://www.w3.org/2000/svg" xmlns="http://www.w3.org/2000/svg" xmlns:sodipodi="http://sodipodi.sourceforge.net/DTD/sodipodi-0.dtd" xmlns:inkscape="http://www.inkscape.org/namespaces/inkscape" width="2500" height="500" viewBox="0 0 512 102.3564064801178" version="1.1" id="svg14" sodipodi:docname="angular-3.svg" inkscape:version="1.0.2-2 (e86c870879, 2021-01-15)">
<metadata id="metadata20">
<rdf:RDF>
<cc:Work rdf:about="">
<dc:format>image/svg+xml</dc:format>
<dc:type rdf:resource="http://purl.org/dc/dcmitype/StillImage" />
<dc:title></dc:title>
</cc:Work>
</rdf:RDF>
</metadata>
<defs id="defs18" />
<sodipodi:namedview pagecolor="#ffffff" bordercolor="#666666" borderopacity="1" objecttolerance="10" gridtolerance="10" guidetolerance="10" inkscape:pageopacity="0" inkscape:pageshadow="2" inkscape:window-width="1920" inkscape:window-height="1027" id="namedview16" showgrid="false" inkscape:zoom="0.4504" inkscape:cx="1250" inkscape:cy="339.5" inkscape:window-x="1912" inkscape:window-y="-8" inkscape:window-maximized="1" inkscape:current-layer="svg14" />
<g fill="none" fill-rule="evenodd" id="g12" transform="matrix(0.6194372038066528,0,0,0.6194372038066528,97.42407582549688,8.384724689165203)">
<g fill="#b52e31" id="g4">
<path d="M 150.6,102.8 V 39.8 H 158.7 L 197.2,90.5 V 39.8 H 204.9 V 102.8 H 196.8 L 158.3,51.6 V 102.8 Z M 267.6,100.3 C 262.5,102.2 257,103.2 251.2,103.2 228.4,103.2 217,92.29999999999998 217,70.4 217,49.7 228,39.30000000000001 250,39.30000000000001 256.3,39.30000000000001 262.2,40.2 267.6,41.90000000000001 V 48.90000000000001 C 262.2000000000001,46.80000000000001 256.6,45.80000000000001 250.9,45.80000000000001 233.7000000000001,45.80000000000001 225.1,54 225.1,70.2 225.1,87.7 233.6,96.4 250.5,96.4 253.2,96.4 256.2000000000001,96 259.5,95.30000000000001 V 74.2 H 267.6 Z M 280.6,78.5 V 39.8 H 288.7000000000001 V 78.5 C 288.7000000000001,90.59999999999999 294.7000000000001,96.7 306.8000000000001,96.7 318.8000000000001,96.7 324.9000000000001,90.59999999999999 324.9000000000001,78.5 V 39.8 H 333.0000000000001 V 78.5 C 333.0000000000001,95 324.3000000000001,103.3 306.8000000000001,103.3 289.3000000000001,103.3 280.6000000000001,95 280.6,78.5 Z M 355.6,39.8 V 96.19999999999997 H 388.6 V 102.8 H 347.5 V 39.79999999999999 Z M 400.3,102.8 H 391.8 L 423.1,31.5 454.4,102.8 H 445.4 L 437.3,83 H 416.5 L 418.7,76.4 H 434.6 L 422.8,47.90000000000001 Z M 463.1,102.8 V 39.8 H 490 C 502,39.8 508,44.8 508,54.9 508,63.1 502.1,69.2 490.4,73.09999999999999 L 512,102.8 H 501.3 L 481.3,74.5 V 69.2 C 493.3,67.29999999999998 499.4,62.7 499.4,55.30000000000001 499.4,49.50000000000001 496.1,46.60000000000001 489.4,46.60000000000001 H 471.4 V 102.8 Z" id="path2" />
</g>
<path d="M 0,23 64.5,0 130.7,22.6 120,107.9 64.49999999999998,138.6 9.899999999999984,108.3 Z" fill="#e23237" id="path6" />
<path d="M 130.7,22.6 64.5,0 V 138.6 L 120,107.9 Z" fill="#b52e31" id="path8" />
<path d="M 64.59999999999999,16.2 24.39999999999999,105.6 39.39999999999999,105.3 47.5,85.09999999999999 H 83.4 L 92.2,105.5 106.5,105.8 Z M 64.69999999999997,44.9 78.29999999999998,73.29999999999998 H 52.8 Z" fill="#ffffff" id="path10" />
</g>
</svg>
