<?xml version="1.0" encoding="UTF-8" standalone="no"?>
<svg xmlns:dc="http://purl.org/dc/elements/1.1/" xmlns:cc="http://creativecommons.org/ns#" xmlns:rdf="http://www.w3.org/1999/02/22-rdf-syntax-ns#" xmlns:svg="http://www.w3.org/2000/svg" xmlns="http://www.w3.org/2000/svg" width="2500" height="500" viewBox="0.276 0.525 124.326 24.86360779384035" version="1.1" id="svg4">
<metadata id="metadata10">
<rdf:RDF>
<cc:Work rdf:about="">
<dc:format>image/svg+xml</dc:format>
<dc:type rdf:resource="http://purl.org/dc/dcmitype/StillImage" />
<dc:title></dc:title>
</cc:Work>
</rdf:RDF>
</metadata>
<defs id="defs8" />
<path d="M 46.01574073757446,3.549461718066212 C 46.01574073757446,3.938043451626672 45.77912627554533,4.225503038149452 45.37321743252056,4.225503038149452 45.03519677247894,4.225503038149452 44.78153925196031,3.938043451626662 44.78153925196031,3.549461718066212 44.78153925196031,3.177354941045614 45.05195577999361,2.873136347008152 45.40701949852473,2.873136347008152 45.77912627554533,2.873136347008152 46.01574073757446,3.177354941045614 46.01574073757446,3.549461718066212 Z M 45.08007682650129,23.86904820216476 V 8.325778859746751 H 45.7172031630335 V 23.86904820216476 Z M 66.9085420888696,12.79446879569193 C 66.9085420888696,20.63086708916101 62.55830140942644,24.19315036443997 57.79647086746199,24.19315036443997 52.93209792358572,24.19315036443997 48.99287900471414,20.33999889094032 48.99287900471414,13.11857095796714 48.99287900471414,5.703704311138186 53.06929454442614,1.720457491168741 58.13903634310079,1.720457491168741 63.10595168888882,1.719889389219091 66.9085420888696,5.638088535953632 66.9085420888696,12.79446879569193 Z M 49.63852687049111,12.95637785134213 C 49.63852687049111,18.89815614272918 52.51823565326586,23.51398448363364 57.82658027079342,23.51398448363364 63.17185151504821,23.51398448363364 66.23761368633319,18.75613065531673 66.23761368633319,12.88877371933381 66.23761368633319,7.447777296563022 63.78114085604759,2.482282205649103 58.17567891885322,2.482282205649103 52.5702169816588,2.482282205649103 49.63852687049111,7.15747720029199 49.63852687049111,12.95637785134213 Z M 69.2468497136281,22.18490997242799 C 70.31573353189418,22.89730981728881 72.16064461338184,23.5852812783147 73.74735335875367,23.5852812783147 76.75886179384718,23.5852812783147 79.43717843547108,21.4784751980385 79.43717843547108,18.37749070587513 79.43717843547108,15.4997702799242 77.6530542625959,13.99827682699982 74.62393466706328,12.70840135032 71.91295216333453,11.55401818863164 69.47551074836214,10.30106933867904 69.47551074836214,7.224797281325476 69.47551074836214,4.019282030426581 72.00100796553024,1.751987149374301 75.43347994531424,1.751987149374301 77.27924317972635,1.751987149374301 78.67166105831798,2.270096127454913 79.31929728091874,2.723441483275433 L 79.06194709772739,3.282453801730824 C 78.51145630851675,2.894156119145194 77.02359730238397,2.399339321000234 75.40507484783175,2.399339321000234 71.77745984834305,2.399339321000234 70.1972842753922,5.14043122806044 70.1972842753922,7.158329353216449 70.1972842753922,9.945437518198279 72.35777598991032,10.87740876659874 75.14261174709353,12.20506302293028 78.38050880912246,13.79148771732731 80.09646074803964,15.19043876833989 80.09646074803964,18.23461306553821 80.09646074803964,21.50517598967203 77.76525439765175,24.15991640038546 73.62038257300694,24.15991640038546 71.90386253214013,24.15991640038546 69.92885610418267,23.5773278510196 68.95740177028152,22.83226214405391 Z" id="path2" style="stroke-width:0.284051" />
</svg>
