<?xml version="1.0" encoding="UTF-8" standalone="no"?>
<svg xmlns:dc="http://purl.org/dc/elements/1.1/" xmlns:cc="http://creativecommons.org/ns#" xmlns:rdf="http://www.w3.org/1999/02/22-rdf-syntax-ns#" xmlns:svg="http://www.w3.org/2000/svg" xmlns="http://www.w3.org/2000/svg" xmlns:sodipodi="http://sodipodi.sourceforge.net/DTD/sodipodi-0.dtd" xmlns:inkscape="http://www.inkscape.org/namespaces/inkscape" version="1.1" id="Layer_1" x="0px" y="0px" viewBox="0 0 2500 499.9999999999999" xml:space="preserve" sodipodi:docname="apple-11.svg" width="2500" height="500" inkscape:version="1.0.2-2 (e86c870879, 2021-01-15)"><metadata id="metadata11"><rdf:RDF><cc:Work rdf:about=""><dc:format>image/svg+xml</dc:format><dc:type rdf:resource="http://purl.org/dc/dcmitype/StillImage" /><dc:title></dc:title></cc:Work></rdf:RDF></metadata><defs id="defs9" /><sodipodi:namedview pagecolor="#ffffff" bordercolor="#666666" borderopacity="1" objecttolerance="10" gridtolerance="10" guidetolerance="10" inkscape:pageopacity="0" inkscape:pageshadow="2" inkscape:window-width="1920" inkscape:window-height="1027" id="namedview7" showgrid="false" inkscape:zoom="0.46461728904477" inkscape:cx="1211.749999999999" inkscape:cy="414.4999999999999" inkscape:window-x="1912" inkscape:window-y="-8" inkscape:window-maximized="1" inkscape:current-layer="Layer_1" />

<g id="g838" transform="matrix(0.5689963839597841,0,0,0.5689963839597841,560.5547371701624,14.16333842009277)"><path d="M 563.7,440.5 C 562.7,335.6 649.3999999999997,285.2 653.2999999999999,282.8 604.5000000000001,211.5 528.7,201.7 501.7000000000001,200.6 437.2000000000001,194 375.8000000000001,238.6 343.0000000000001,238.6 310.2000000000001,238.6 259.7000000000001,201.5 206.2000000000001,202.6 135.8,203.6 70.90000000000003,243.5 34.60000000000005,306.5 -38.4,433.1 16,621.1 87.29999999999998,724 122.2,774.2999999999999 163.6,831 218.2,828.8999999999997 270.8,826.7999999999999 290.6,794.8999999999997 354,794.8999999999997 417.4,794.8999999999997 435.3,828.8999999999997 490.8,827.8999999999997 547.2999999999999,826.7999999999999 583.1,776.5 617.7,726 657.5,667.5 674,611 675,608 673.7,607.5 564.8999999999997,565.7999999999999 563.7,440.5" id="path2" /><path d="M 459.4,132.4 C 488.4,97.30000000000001 507.9,48.60000000000001 502.6,0 460.9,1.7 410.4,27.8 380.5,62.9 353.7,93.9 330.2,143.5 336.6,191.1 382.9,194.7 430.5,167.4 459.4,132.4 M 929.3999999999997,543.6 881.3999999999997,689.1 H 819.6999999999999 L 976.7999999999999,226.7000000000001 H 1048.8 L 1206.5,689.1 H 1142.7 L 1093.3,543.6 Z M 1081,496.9 1035.8,363.8 C 1025.5,333.6 1018.7,306.1999999999999 1011.8,279.4 H 1010.5 C 1003.6,306.8 996.1,334.9 987.2,363.1 L 942,496.8 Z M 1253.3,465.4 C 1253.3,422.9 1252,388.5 1250.5,357 H 1304.7 L 1307.5,414 H 1308.8 C 1333.5,373.5 1372.6,349.5 1426.8,349.5 1507.1,349.5 1567.4,417.4 1567.4,518.2999999999999 1567.4,637.6999999999999 1494.7,696.5999999999999 1416.5,696.5999999999999 1372.6,696.5999999999999 1334.2,677.3999999999997 1314.3,644.4999999999995 H 1313 V 824.8999999999997 H 1253.3 Z M 1312.9,553.8999999999997 C 1312.9,562.8999999999997 1314.2,571 1315.7,578.6 1326.7,620.3999999999997 1363,649.2999999999999 1406.3,649.2999999999999 1470.1,649.2999999999999 1507.2,597.2 1507.2,521 1507.2,454.4 1472.2,397.6 1408.4,397.6 1367.3,397.6 1328.9,427.1 1317.1,472.4 1315,479.9 1313,488.9 1313,497.1 Z M 1629.8,465.4 C 1629.8,422.9 1628.5,388.5 1627,357 H 1681.2 L 1684,414 H 1685.3 C 1710,373.5 1749.1,349.5 1803.3,349.5 1883.6,349.5 1943.9,417.4 1943.9,518.2999999999999 1943.9,637.6999999999999 1871.2,696.5999999999999 1793,696.5999999999999 1749.1,696.5999999999999 1710.7,677.3999999999997 1690.8,644.4999999999995 H 1689.5 V 824.8999999999997 H 1629.8 Z M 1689.5,553.8999999999997 C 1689.5,562.8999999999997 1690.8,571 1692.3,578.6 1703.3,620.3999999999997 1739.6,649.2999999999999 1782.9,649.2999999999999 1846.7,649.2999999999999 1883.8,597.2 1883.8,521 1883.8,454.4 1848.8,397.6 1785,397.6 1743.9,397.6 1705.5,427.1 1693.7,472.4 1691.6,479.9 1689.6,488.9 1689.6,497.1 Z M 2006.4,202 H 2066.8 V 689 H 2006.4 Z M 2188.2,534 C 2189.5,615.6 2241.7,649.2999999999999 2302,649.2999999999999 2345.2,649.2999999999999 2371.3,641.7999999999999 2393.9,632.1999999999999 L 2404.2,675.3999999999997 C 2383,685 2346.6,696 2293.8,696 2191.6,696 2130.5,628.7999999999999 2130.5,528.6 2130.5,428.4000000000001 2189.5,349.5 2286.2,349.5 2394.6,349.5 2423.4,444.8 2423.4,505.9 2423.4,518.2999999999999 2422.099999999999,527.7999999999999 2421.3,534 Z M 2365.2,490.8 C 2365.9,452.4 2349.4,392.7000000000001 2281.5,392.7000000000001 2220.4,392.7000000000001 2193.7,449.0000000000001 2188.9,490.8000000000001 H 2365.2 Z" id="path4" /></g>
</svg>
