<?xml version="1.0" encoding="UTF-8" standalone="no"?>
<svg xmlns:dc="http://purl.org/dc/elements/1.1/" xmlns:cc="http://creativecommons.org/ns#" xmlns:rdf="http://www.w3.org/1999/02/22-rdf-syntax-ns#" xmlns:svg="http://www.w3.org/2000/svg" xmlns="http://www.w3.org/2000/svg" viewBox="0 0 537.0999999999999 107.4596774193548" width="2500" height="500" version="1.1" id="svg4">
<metadata id="metadata10">
<rdf:RDF>
<cc:Work rdf:about="">
<dc:format>image/svg+xml</dc:format>
<dc:type rdf:resource="http://purl.org/dc/dcmitype/StillImage" />
<dc:title></dc:title>
</cc:Work>
</rdf:RDF>
</metadata>
<defs id="defs8" />
<path d="M 514.2999999999999,13.92983870967741 C 514.2999999999999,7.829838709677408 519.1999999999999,2.829838709677407 525.1999999999999,2.829838709677407 528.0999999999999,2.829838709677407 530.7999999999999,4.029838709677408 532.8999999999998,6.029838709677409 535,8.129838709677407 536.1,10.92983870967741 536.1,13.82983870967741 536.1,16.72983870967741 535,19.52983870967741 532.8999999999998,21.62983870967741 530.7999999999999,23.72983870967741 528.1,24.92983870967741 525.1999999999999,24.92983870967741 519.1999999999999,24.92983870967741 514.2999999999999,20.02983870967741 514.2999999999999,13.92983870967741 M 513.3999999999998,13.92983870967741 C 513.3999999999998,20.52983870967741 518.6999999999999,25.92983870967741 525.2999999999999,25.92983870967741 528.5,25.92983870967741 531.3999999999998,24.72983870967741 533.5999999999999,22.42983870967741 535.7999999999998,20.12983870967741 537.0999999999999,17.12983870967741 537.0999999999999,13.92983870967741 537.0999999999999,10.72983870967741 535.8999999999997,7.729838709677407 533.5999999999999,5.429838709677407 531.2999999999999,3.129838709677407 528.3999999999997,1.929838709677407 525.2999999999999,1.929838709677407 518.6999999999999,1.929838709677407 513.3999999999998,7.329838709677408 513.3999999999998,13.92983870967741 M 520.7999999999999,21.02983870967741 H 522.5 V 15.42983870967741 H 526.2999999999999 C 526.8999999999998,15.42983870967741 527.3999999999998,15.42983870967741 527.7999999999999,15.62983870967741 528.2999999999999,15.92983870967741 528.5999999999999,16.52983870967741 528.6999999999999,17.32983870967741 L 528.8999999999998,19.52983870967741 V 20.52983870967741 C 529,20.72983870967741 529,20.82983870967741 529.1,20.92983870967741 H 531.2 V 20.6298387096774 C 530.8999999999999,20.5298387096774 530.7999999999999,20.22983870967741 530.7,19.8298387096774 530.6,19.6298387096774 530.6,19.2298387096774 530.6,18.7298387096774 L 530.5,17.0298387096774 C 530.5,16.2298387096774 530.2999999999999,15.7298387096774 530.1,15.42983870967741 529.7999999999999,15.1298387096774 529.3999999999998,14.82983870967741 528.8999999999998,14.6298387096774 529.5,14.3298387096774 529.8999999999998,13.92983870967741 530.1999999999999,13.42983870967741 530.4999999999997,12.92983870967741 530.5999999999999,12.32983870967741 530.5999999999999,11.5298387096774 530.5999999999999,10.0298387096774 529.9999999999997,9.029838709677401 528.8999999999997,8.429838709677401 528.2999999999998,8.129838709677402 527.4999999999997,8.029838709677402 526.5999999999999,8.029838709677402 H 520.8999999999997 Z M 522.3999999999998,13.92983870967741 V 9.429838709677406 H 526.3999999999998 C 527,9.429838709677406 527.5,9.529838709677406 527.7999999999999,9.729838709677407 528.3999999999998,10.02983870967741 528.6999999999999,10.72983870967741 528.6999999999999,11.62983870967741 528.6999999999999,12.52983870967741 528.4999999999997,13.12983870967741 527.9999999999997,13.42983870967741 527.5999999999999,13.72983870967741 526.9999999999997,13.92983870967741 526.1999999999999,13.92983870967741 Z M 48.6,30.42983870967741 0,106.8298387096774 H 33.2 L 80,33.82983870967742 Z M 248.7,28.72983870967741 V 0.429838709677407 H 154.2 C 141.3,1.229838709677407 135.7,7.429838709677407 131.5,11.82983870967741 127,16.52983870967741 124.5,26.42983870967741 124.5,26.42983870967741 V 0.6298387096774069 H 74.2 C 70.4,0.6298387096774069 66.79999999999998,2.229838709677407 64.09999999999999,6.029838709677409 61.30000000000001,9.729838709677407 49.80000000000001,28.72983870967741 49.80000000000001,28.72983870967741 Z M 505.7,28.72983870967741 V 0.429838709677407 H 404.6 C 391.8,1.229838709677407 386.1,7.429838709677407 381.9,11.82983870967741 377.4,16.52983870967741 374.9,26.42983870967741 374.9,26.42983870967741 V 28.72983870967741 Z M 281.9,0.5298387096774069 H 253.6 V 28.72983870967741 H 281.9 Z M 374.6,0.5298387096774069 H 346.4 V 28.72983870967741 H 374.6 Z M 374.6,38.92983870967741 346.8,37.2298387096774 V 69.92983870967741 C 346.8,69.92983870967741 346.6999999999999,79.32983870967741 337.6,79.32983870967741 H 290 C 290,79.32983870967741 281.9,78.62983870967741 281.9,70.0298387096774 V 32.82983870967741 L 253.9,30.82983870967741 V 80.92983870967741 C 258.4,104.9298387096774 280.1,106.8298387096774 280.1,106.8298387096774 280.1,106.8298387096774 282.3,106.9298387096774 282.7,107.0298387096774 H 347.2 C 347.2,107.0298387096774 374.8,104.8298387096774 374.8,78.22983870967742 Z M 95.7,106.8298387096774 H 227.9 C 250.9,102.2298387096774 253.3,81.22983870967742 253.3,81.22983870967742 254.4,75.0298387096774 253.8,69.92983870967742 253.8,69.92983870967742 253.1,65.72983870967742 245.1,47.12983870967742 227.9,45.52983870967743 217.6,44.52983870967743 125.9,37.22983870967742 125.9,37.22983870967742 127.7,46.42983870967743 131.8,51.12983870967742 134.6,53.72983870967742 141,59.82983870967742 151.1,61.62983870967742 151.1,61.62983870967742 L 221.8,67.5298387096774 C 224,67.62983870967741 228.1,68.22983870967742 228,73.62983870967741 228,74.32983870967741 227.4,79.0298387096774 222.1999999999999,79.0298387096774 H 123.2999999999999 V 37.02983870967742 L 95.79999999999992,35.02983870967742 C 95.69999999999993,35.02983870967742 95.69999999999993,106.8298387096774 95.7,106.8298387096774 Z M 374.8,107.0298387096774 H 476 C 501.4,105.5298387096774 505,81.42983870967741 505,81.42983870967741 505.9,75.12983870967741 505.2,69.92983870967741 505.2,69.92983870967741 504.5,64.2298387096774 496.4,47.02983870967741 479.1,45.32983870967741 468.9,44.32983870967741 376.6,38.92983870967741 376.6,38.92983870967741 379.3,48.42983870967741 383,51.32983870967741 385.8,53.92983870967741 392.1999999999999,60.12983870967741 401.6999999999999,61.52983870967741 401.6999999999999,61.52983870967741 404.0999999999999,61.72983870967742 473.0999999999999,67.5298387096774 473.0999999999999,67.5298387096774 475.2999999999999,67.62983870967738 479.7999999999999,67.8298387096774 479.7999999999999,73.22983870967739 479.7999999999999,74.8298387096774 478.9999999999999,76.5298387096774 477.9999999999999,77.42983870967741 477.9999999999999,77.42983870967741 475.5999999999999,78.72983870967739 473.2999999999999,78.72983870967739 H 375.0999999999999 Z" fill="#00539b" id="path2" />
</svg>
