<?xml version="1.0" encoding="UTF-8" standalone="no"?>
<svg xmlns:dc="http://purl.org/dc/elements/1.1/" xmlns:cc="http://creativecommons.org/ns#" xmlns:rdf="http://www.w3.org/1999/02/22-rdf-syntax-ns#" xmlns:svg="http://www.w3.org/2000/svg" xmlns="http://www.w3.org/2000/svg" clip-rule="evenodd" fill-rule="evenodd" height="500" image-rendering="optimizeQuality" shape-rendering="geometricPrecision" text-rendering="geometricPrecision" viewBox="-5.3 -0.02 8666.25 1731.591683708248" width="2500" version="1.1" id="svg4">
<metadata id="metadata10">
<rdf:RDF>
<cc:Work rdf:about="">
<dc:format>image/svg+xml</dc:format>
<dc:type rdf:resource="http://purl.org/dc/dcmitype/StillImage" />
<dc:title></dc:title>
</cc:Work>
</rdf:RDF>
</metadata>
<defs id="defs8" />
<path d="M 4621.128504180076,226.7791206908762 C 4616.576222042623,228.1114959506188 4615.398617646384,230.1537984320927 4610.886710516802,234.0129762677611 4607.252959808414,237.1184872898377 4604.187823794209,239.3222898027956 4600.661739773477,242.357144561098 4592.593467367258,249.3050104988965 4587.862862278373,253.6015842531672 4580.766954645048,259.5669916661051 4545.55658319756,289.1887891074511 4497.782855134217,335.3407876879761 4463.265587988515,367.6609814886995 4409.71823379962,417.8000120964842 4361.460005641826,466.0851569261929 4310.089537293976,515.9516562308484 4213.209705907548,609.9951433143398 4103.423330338362,722.9173111615061 4006.456019768213,813.5827559197917 3926.321722896275,888.5086767763719 3857.590001163902,955.8003565613468 3773.84887025549,1030.706089913992 3741.844947349756,1059.33197049452 3721.684360086178,1085.407496411197 3678.109632841417,1086.914830038381 3606.198379239204,1089.397893022446 3511.340662830314,1028.186016506044 3462.830090873326,1000.354177746979 3420.439697192781,976.0349646726886 3307.850623160551,909.8233163482623 3253.57315424599,907.9862534901325 L 3293.33917241492,962.6136391395754 C 3321.773271708062,1005.999949680938 3369.580645611297,1100.501020186968 3392.54056675393,1146.48478956803 3471.423238381867,1304.465466199215 3577.915686225579,1469.895331782597 3713.454587648475,1579.937415734967 3748.109802737737,1608.072067053065 3779.511465109395,1631.725092497483 3823.530317440737,1658.359139356376 3842.839664955035,1670.040974967048 3862.539304212087,1679.757893527998 3884.133204255085,1691.981427160939 3891.619403631164,1696.217438403403 3943.534934585272,1720.46263062993 3949.934373332822,1720.449172293973 3935.715641394257,1706.200159099504 3921.089794792993,1688.791801539131 3909.535813373913,1675.205611390544 3857.936553314794,1614.525339144443 3743.150405937584,1496.539472393458 3708.673513799753,1436.320148153884 3679.724633156256,1385.760544547443 3673.072850609512,1354.796278094387 3705.241638130718,1304.048257784548 3742.016541133207,1246.036100641921 3827.773057851179,1174.249336647311 3881.569391255278,1128.235286010345 4012.488718860935,1016.261930848147 4130.555335627664,914.846640244211 4267.534278997958,808.5358799359186 4332.437104150566,758.1646930328757 4399.917200638938,706.7807663490688 4469.715495495905,656.97482955622 4538.188144261105,608.1177054483388 4607.010709761188,561.0505400227385 4678.491296612777,513.8016870617184 L 4786.423786403887,445.1170695051947 C 4796.436788355892,439.3737246355472 4894.743203353761,380.8467861425653 4896.31446407674,378.8852336768333 L 4992.507920329362,325.8190149984021 C 5024.814655794129,307.569511440717 5056.186036909884,292.3346751373987 5090.397126912564,273.9102132122726 5190.786219399779,219.8514422570131 5390.154643682712,131.7397167465672 5504.402457621644,91.43536513935652 5541.904110765811,78.20582089363048 5577.639357315621,65.70975595756068 5615.57167721041,52.74937843097454 L 5729.257605623137,17.13862148876588 C 5720.058832996531,12.40801639988215 5594.445454341918,11.10592239604289 5571.303845663866,11.10255781205364 5478.165431673482,11.08909947609664 5421.02133720008,13.68655831579667 5332.105476116204,20.71180968534803 5264.053400349659,26.08841490016752 5137.417188162316,40.05816762352828 5075.532394848063,55.02047262371741 5064.392257259662,57.7121398151164 5051.203088021808,58.86282753943947 5039.98556500165,61.81693228199986 5018.529612902211,67.46943338393775 4993.968149780695,71.35889247550927 4971.994051746913,76.82970604202773 4926.6831991637,88.11115615797875 4885.544430727155,100.8932107331347 4842.958891175233,113.5911507085595 4799.125090963301,126.6591949228016 4759.480197817983,142.1497396093027 4720.265971423289,158.2829198377504 4697.097446073323,167.8147862792922 4627.080453257057,214.6228787377205 4621.131868764065,226.7824852748655 Z M 5530.868275281074,451.7587582999717 5613.536103896915,409.5433229868678 C 5642.212453237283,395.8898411584965 5671.871261102511,380.1940568486511 5698.87877678421,366.9947938588283 5753.677756217104,340.2160698883974 5785.240918620247,253.4501779736511 5784.443512214795,197.8268754633909 5774.766968661715,198.2339901260901 5735.397971403514,216.8939729304634 5724.71205265366,220.8069841099597 5717.363801221143,223.4952867173695 5710.580799898816,225.8101205019727 5703.696861056814,228.737308572619 5654.876747372815,249.4799688663376 5589.701390917078,274.0077861479609 5543.42490272895,295.8473008221745 5529.986754275892,302.1895416419083 5516.999460077391,307.4349280811471 5503.399811592847,313.2691167185044 5492.723986594962,317.848315527872 5469.185357006177,327.0840985783598 5464.797939484197,332.5313600569535 5450.108165787138,331.7844224113402 5151.000013726913,480.0078054737042 5113.717058542049,499.2868717320994 5060.63401694367,526.7351479163905 4993.880670596975,559.6340501632644 4942.860118984008,588.0210452805562 4936.817326139317,591.3822646858158 4781.275972900338,673.7035411507645 4775.078409192142,681.6305010294345 4764.836615528868,683.3397096959731 4658.219678077552,746.6510866216664 4641.204976843923,756.2536093269823 4430.235466966058,875.2959554505919 4196.588661000659,1025.050224228064 3994.511746606378,1162.103188446123 3938.353475241829,1200.193643788407 3866.623909175034,1250.16444519673 3810.179648171397,1292.692786820834 L 3764.872160172174,1326.513585080762 C 3759.663784156817,1330.483794188076 3753.520053792449,1333.114898867668 3750.518844874039,1339.073577112627 3770.665973801661,1356.414642993216 3904.12892690319,1411.405403713497 3935.967985193451,1422.881999700825 4114.67113461442,1487.286866423024 4281.931333887953,1532.160323087634 4469.951016375151,1564.430048128519 L 4589.272622969869,1582.679551686204 4683.258912125543,1590.969886635713 4606.711261786145,1584.217166569291 C 4621.320285467462,1585.87927105998 4635.821642461125,1588.254667356389 4650.033645231711,1589.613959288045 4671.055565996537,1591.622615929627 4691.909257561901,1593.335189180155 4713.560355532717,1595.50534585322 4754.339113482413,1599.596679984147 4801.688903963109,1602.382555527245 4843.60825588516,1603.12276400488 4895.722297294633,1604.037930849956 4924.435657058882,1606.699316785451 4967.162509138353,1588.65505285111 5000.283473928517,1574.668477207803 5027.240520850377,1557.270213399398 5053.568390566249,1537.092803215873 5151.632555516893,1461.944819816002 5238.876218358112,1344.409807319576 5308.476002759713,1238.038484499477 5381.315881542956,1126.717858631193 5446.921904749319,1002.339282300635 5503.473832440612,879.1147582783892 5532.278035972571,816.3551731269325 5559.299009990229,750.8736395281736 5584.745358700915,684.167397357328 5597.641809131705,650.3566928493676 5608.825686311968,617.7034052337086 5620.473876082747,581.8268461563491 5626.923783590137,561.9657068678142 5650.391756915149,489.4555573155146 5652.178351013439,473.2550854072819 5625.426543714921,476.9090236196061 5157.712358785464,729.2595519812397 5113.209006359671,753.1514628888949 5052.85173417654,785.5557712893498 4995.054910409224,819.3092778694929 4936.49432607635,851.1146903198613 4879.585752482196,882.0251234290897 4819.386615746559,918.5544118003629 4762.760667207501,950.0267304357959 4647.708717695141,1013.970649151468 4531.845903441371,1085.198892203864 4416.955453960496,1151.720082255301 4397.255814703444,1163.126021978854 4250.95697368293,1248.650382401568 4245.701493491724,1254.662893990355 4255.536172492297,1253.084904099398 4719.370992082151,1053.891438183905 4730.601973438262,1049.25167686273 4752.47513395237,1040.20767509963 5207.89176440112,844.7791786681061 5215.361140857254,844.4528140211489 5212.743494513618,854.9839619074975 5184.555009851691,907.6094200833371 5177.438914714432,923.0764126819133 5165.582120736318,948.8491260395588 5151.286003366,978.1815692578293 5138.328990423404,1003.812970087926 5064.890215690073,1149.092342159698 4985.186585568758,1323.535928250277 4824.84397097712,1387.930701220508 L 4815.211167015901,1393.714421098027 C 4806.61801950736,1393.909566969403 4783.14331701437,1403.451527162913 4772.790492079453,1406.294600633828 4757.205739041253,1410.574351468153 4742.142496521385,1413.54527913066 4726.433253875585,1416.761821424381 4652.530166551736,1431.895720208022 4540.805790604741,1424.005770753233 4463.790463090838,1411.957195487734 4375.968091803468,1398.216234475642 4314.473590231968,1382.799710636904 4229.346250719985,1362.221914958659 4209.024163424924,1357.309622334356 4062.146613958258,1316.049728874199 4053.661133137372,1310.44433194811 4058.445571570085,1302.103528238763 4142.445775445669,1248.276913578761 4149.797391462177,1243.169475083081 4312.330350230817,1130.196838476077 4582.304569528136,964.1882644465437 4757.882020423091,864.2937658057492 4776.464617795712,853.7188783275403 4793.735027412526,844.1129910382351 4810.726176558232,834.3758849733491 4824.850700145098,826.2806958952169 4850.704163518485,812.7853495143397 4862.113467826028,804.4950145648313 L 4944.263150507526,759.4365057808118 C 4972.041155922765,744.0267111100525 4997.548067145258,730.6760418407134 5026.806489515764,713.977611502072 5082.120250299014,682.4144490989298 5138.16412580793,655.9553606074777 5192.606459337965,625.2871775454755 5200.610804648386,620.7786349998821 5511.505094422948,457.4112594019096 5530.861546113097,451.762122883961 Z M 3417.431759106393,1304.509205791075 C 3414.201758476714,1297.648819036997 3358.063674616098,1238.082224091337 3346.910078691739,1225.629898747128 3276.112502389967,1146.578997919729 3207.478353593282,1072.94507731502 3136.320766804661,989.8936861244042 3086.74698630707,932.0362998452828 3042.58682144818,878.7244665356366 3000.455500734807,827.6063419869806 2982.825080631144,806.2176815673263 2886.076468020296,684.7696578914038 2871.295850555527,660.0063197305328 2869.408318937558,664.76720607532 2893.76454243573,764.3218817332007 2897.361282720236,777.4033842834002 2902.875835878615,797.4697631952795 2907.142128376983,815.7562771768461 2912.767712807007,836.2331353354143 2967.745015191331,1036.392236855822 3022.685307151773,1112.139116205779 3212.000354474832,1208.874270480669 3235.320286104315,1220.788262386599 3404.844850402613,1302.78653878858 3417.431759106393,1304.509205791075 Z" fill="#e50007" id="path2" style="stroke-width:0.336458" />
</svg>
