<?xml version="1.0" encoding="UTF-8" standalone="no"?>
<svg xmlns:dc="http://purl.org/dc/elements/1.1/" xmlns:cc="http://creativecommons.org/ns#" xmlns:rdf="http://www.w3.org/1999/02/22-rdf-syntax-ns#" xmlns:svg="http://www.w3.org/2000/svg" xmlns="http://www.w3.org/2000/svg" id="Layer_1" viewBox="0 0 334.2 66.84290030211481" width="2500" height="500" version="1.1">
<metadata id="metadata31">
<rdf:RDF>
<cc:Work rdf:about="">
<dc:format>image/svg+xml</dc:format>
<dc:type rdf:resource="http://purl.org/dc/dcmitype/StillImage" />
<dc:title></dc:title>
</cc:Work>
</rdf:RDF>
</metadata>
<defs id="defs29" />
<style id="style2">.st0{display:none}.st1{display:inline}.st2{fill:#ed1c24}</style>
<g class="st0" id="g6">
<path class="st1" d="M 71.5,88.2 H 53 L 48.4,71.7 H 23.4 L 18.6,88.2 H 0 L 23.1,11.60000000000001 C 24,8.600000000000008 25.5,6.100000000000009 27.7,4.000000000000009 29.8,1.9 32.4,0.8 35.4,0.8 38.7,0.8 41.6,1.9 44.1,4.200000000000001 46.6,6.5 48.3,9.3 49.3,12.6 Z M 43.4,55.7 36,18.3 27.8,55.7 Z M 119.1,18.5 H 102.9 V 88.2 H 84.7 V 18.5 H 68.29999999999999 V 2.1 H 119.1 Z M 187.5,88.2 H 169 L 164.4,71.7 H 139.4 L 134.6,88.2 H 116 L 139.1,11.60000000000001 C 140,8.600000000000008 141.5,6.100000000000009 143.7,4.000000000000009 145.8,1.900000000000009 148.4,0.8000000000000087 151.4,0.8000000000000087 154.7,0.8000000000000087 157.6,1.900000000000009 160.1,4.200000000000009 162.6,6.500000000000008 164.3,9.300000000000007 165.3,12.60000000000001 Z M 159.4,55.7 152,18.3 143.8,55.7 Z M 252.4,88.2 H 231.4 L 213.7,54.30000000000001 C 212.9,52.7 212.2,51.2 211.7,49.80000000000001 211.2,48.50000000000001 210.9,47.40000000000001 210.9,46.7 210.9,42.90000000000001 213.8,39.80000000000001 219.8,37.40000000000001 225.7,35.00000000000001 228.7,31.9 228.7,28.3 228.7,26.1 227.9,23.9 226.2,21.7 224.5,19.6 222.7,18.5 220.7,18.5 H 210.3 V 88.2 H 192.7 V 13.8 C 192.7,11.2 193.9,8.600000000000001 196.3,6.100000000000001 198.7,3.6 201.1,2.4 203.5,2.4 H 221 C 227.8,2.4 233.8,4.900000000000001 238.9,9.8 244,14.8 246.6,20.5 246.6,27 246.6,32.2 245.1,36.6 242.2,40.2 239.3,43.80000000000001 235.2,46.80000000000001 230.1,49.2 Z M 277.5,88.5 H 259.2 V 2.4 H 277.5 Z" id="path4" />
</g>
<g class="st0" id="g12">
<path class="st1" d="M 333.8,72.7 V 84.79999999999999 C 333.8,85.29999999999999 333.5,85.79999999999999 332.8,86.29999999999999 332.1,86.7 331.5,87 330.8,87 329.7,87 328.3,86.2 326.7,84.59999999999999 325,83 323.3,81.5 321.6,79.89999999999999 319.9,78.29999999999999 318.6,77.49999999999998 317.6,77.49999999999998 317.1,77.49999999999998 316.6,77.69999999999998 316.1,78.19999999999998 315.6,78.59999999999999 315.4,79.19999999999998 315.4,79.79999999999998 315.4,80.49999999999998 315.6,81.09999999999998 316.1,81.59999999999998 316.6,82.09999999999998 317.2,82.29999999999998 317.9,82.29999999999998 V 87 C 316,87 314.3,86.29999999999999 312.9,84.79999999999999 311.5,83.39999999999999 310.8,81.7 310.8,79.7 310.8,77.79999999999999 311.5,76.1 312.9,74.79999999999999 314.3,73.5 316,72.79999999999999 317.8,72.79999999999999 319.8,72.79999999999999 321.6999999999999,73.7 323.6999999999999,75.59999999999999 325.5999999999999,77.39999999999999 327.5,79.19999999999998 329.1999999999999,81 L 329.3,72.9 H 333.8 Z M 326.3,54.1 C 328.5,54.1 330.4,54.9 331.9,56.6 333.4,58.2 334.2000000000001,60.2 334.2000000000001,62.5 334.2000000000001,64.59999999999999 333.4,66.4 331.7000000000001,67.79999999999999 330.0000000000001,69.19999999999998 328.1,69.89999999999999 326.0000000000001,69.89999999999999 325.2000000000001,69.89999999999999 323.6000000000001,69.39999999999999 321.2000000000001,68.29999999999999 318.8000000000001,67.29999999999999 316.5000000000001,66.2 314.3000000000001,65 312.1000000000001,63.9 310.9000000000001,63.3 310.9000000000001,63.2 V 57.90000000000001 L 319.2000000000001,61.90000000000001 C 319.2000000000001,59.7 319.9000000000001,57.80000000000001 321.2000000000001,56.30000000000001 322.5000000000001,54.80000000000001 324.2000000000001,54.1 326.3,54.1 Z M 326.5,58.9 C 325.6,58.9 324.9,59.2 324.3,59.8 323.7000000000001,60.4 323.4,61.1 323.4,61.9 323.4,62.7 323.7000000000001,63.4 324.4,64 325.1,64.59999999999999 325.8,64.9 326.5000000000001,64.9 327.4,64.9 328.2000000000001,64.6 328.7000000000001,64.1 329.2000000000001,63.60000000000001 329.5000000000001,62.80000000000001 329.5000000000001,61.90000000000001 329.5000000000001,61.00000000000001 329.2000000000001,60.2 328.6000000000001,59.7 327.9000000000001,59.1 327.3000000000001,58.90000000000001 326.5,58.9 Z M 334,40.1 C 334,43.4 333,46.2 330.9,48.6 328.8,51 326.1,52.2 322.7,52.2 319.4,52.2 316.5,51 314.2,48.7 311.9,46.40000000000001 310.7,43.6 310.7,40.40000000000001 310.7,37.30000000000001 311.9,34.60000000000001 314.2,32.2 316.5,29.9 319.2,28.7 322.3,28.7 325.3,28.7 328,29.8 330.4,31.9 332.8,34 334.0000000000001,36.80000000000001 334,40.1 Z M 322.3,33.6 C 320.6,33.6 319,34.30000000000001 317.6,35.6 316.2000000000001,36.9 315.5,38.5 315.5,40.30000000000001 315.5,42.30000000000001 316.2,44.00000000000001 317.7,45.40000000000001 319.2,46.80000000000001 320.8,47.40000000000001 322.7,47.40000000000001 324.7,47.40000000000001 326.3,46.7 327.5,45.30000000000001 328.8,43.90000000000001 329.4,42.2 329.4,40.30000000000001 329.4,38.40000000000001 328.7,36.80000000000001 327.4,35.50000000000001 326.1,34.30000000000001 324.4,33.60000000000001 322.3,33.6 Z M 334,14.7 C 334,18 333,20.8 330.9,23.2 328.8,25.6 326.1,26.8 322.7,26.8 319.4,26.8 316.5,25.6 314.2,23.3 311.9,21 310.7,18.2 310.7,15 310.7,11.9 311.9,9.199999999999999 314.2,6.800000000000001 316.5,4.500000000000001 319.2,3.300000000000001 322.3,3.300000000000001 325.3,3.300000000000001 328,4.400000000000001 330.4,6.500000000000001 332.8,8.600000000000001 334.0000000000001,11.3 334,14.7 Z M 322.3,8.099999999999999 C 320.6,8.099999999999999 319,8.799999999999998 317.6,10.1 316.2000000000001,11.4 315.5,13 315.5,14.8 315.5,16.8 316.2,18.5 317.7,19.9 319.2,21.3 320.8,21.9 322.7,21.9 324.7,21.9 326.3,21.2 327.5,19.8 328.8,18.4 329.4,16.69999999999999 329.4,14.8 329.4,12.9 328.7,11.3 327.4,9.999999999999996 326.1,8.799999999999997 324.4,8.099999999999996 322.3,8.099999999999999 Z" id="path10" />
</g>
<g id="g861" transform="matrix(0.7360133840961861,0,0,0.7360133840961862,45.73139296253891,0.558452551162691)">
<path class="st2" d="M 71.5,88.2 H 53 L 48.4,71.7 H 23.4 L 18.6,88.2 H 0 L 23.1,11.60000000000001 C 24,8.600000000000008 25.5,6.100000000000012 27.7,4.000000000000009 29.8,1.9 32.4,0.8 35.4,0.8 38.7,0.8 41.6,1.9 44.1,4.200000000000001 46.6,6.5 48.3,9.3 49.3,12.6 Z M 43.4,55.7 36,18.3 27.8,55.7 Z M 119.1,18.5 H 102.9 V 88.2 H 84.7 V 18.5 H 68.29999999999998 V 2.1 H 119.1 Z M 187.5,88.2 H 169 L 164.4,71.7 H 139.4 L 134.6,88.2 H 116 L 139.1,11.60000000000001 C 140,8.600000000000008 141.5,6.100000000000012 143.7,4.000000000000009 145.8,1.900000000000009 148.4,0.8000000000000087 151.4,0.8000000000000087 154.7,0.8000000000000087 157.6,1.900000000000009 160.1,4.200000000000009 162.6,6.500000000000008 164.3,9.300000000000007 165.3,12.60000000000001 Z M 159.4,55.7 152,18.3 143.8,55.7 Z M 252.4,88.2 H 231.4 L 213.7,54.30000000000001 C 212.9,52.7 212.2,51.2 211.7,49.80000000000001 211.2,48.50000000000001 210.9,47.40000000000001 210.9,46.7 210.9,42.90000000000001 213.8,39.80000000000001 219.8,37.40000000000001 225.7,35.00000000000001 228.7,31.9 228.7,28.3 228.7,26.1 227.9,23.9 226.2,21.7 224.5,19.6 222.7,18.5 220.7,18.5 H 210.3 V 88.2 H 192.7 V 13.8 C 192.7,11.2 193.9,8.600000000000001 196.3,6.100000000000004 198.7,3.6 201.1,2.4 203.5,2.4 H 221 C 227.8,2.4 233.8,4.900000000000003 238.9,9.8 244,14.8 246.6,20.5 246.6,27 246.6,32.2 245.1,36.6 242.2,40.2 239.3,43.80000000000001 235.2,46.80000000000001 230.1,49.2 Z M 277.5,88.5 H 259.2 V 2.4 H 277.5 Z" id="path8" />
<g id="g16">
<path class="st2" d="M 318.8,73.7 V 86.09999999999999 C 318.8,86.59999999999999 318.5,87.09999999999999 317.8,87.59999999999999 317.1,88.09999999999999 316.4,88.30000000000001 315.7,88.30000000000001 314.6,88.30000000000001 313.2,87.50000000000001 311.4,85.9 309.7,84.30000000000001 307.9,82.7 306.2,81 304.5,79.4 303.1,78.5 302.1,78.5 301.6,78.5 301.1,78.7 300.6,79.2 300.1,79.59999999999999 299.9,80.2 299.9,80.9 299.9,81.59999999999999 300.1,82.2 300.6,82.7 301.1,83.2 301.7,83.4 302.5,83.4 V 88.2 C 300.5,88.2 298.8,87.5 297.3,86 295.9,84.5 295.1,82.79999999999998 295.1,80.79999999999998 295.1,78.79999999999998 295.8,77.09999999999999 297.3,75.7 298.6999999999999,74.29999999999998 300.4,73.59999999999999 302.4,73.59999999999999 304.4,73.59999999999999 306.5,74.59999999999999 308.4,76.50000000000001 310.4,78.4 312.3,80.20000000000001 314.1,82.00000000000001 L 314.2,73.59999999999999 H 318.8 Z M 311,54.6 C 313.3,54.6 315.2,55.4 316.8,57.1 318.4,58.80000000000001 319.1,60.80000000000001 319.1,63.1 319.1,65.29999999999998 318.2000000000001,67.09999999999999 316.5,68.5 314.8,69.9 312.8,70.7 310.6,70.7 309.7000000000001,70.7 308.1,70.2 305.7000000000001,69.09999999999999 303.3000000000001,68.00000000000001 300.9,66.9 298.6,65.7 296.3,64.5 295.1,63.90000000000001 295.1,63.90000000000001 V 58.40000000000001 L 303.7000000000001,62.50000000000001 C 303.7000000000001,60.20000000000001 304.4,58.30000000000001 305.8000000000001,56.80000000000001 307.1000000000001,55.40000000000001 308.9000000000001,54.6 311,54.6 Z M 311.2,59.5 C 310.3,59.5 309.5,59.8 308.9,60.4 308.3,61 307.9,61.8 307.9,62.6 307.9,63.4 308.2,64.2 308.9,64.79999999999998 309.6,65.39999999999999 310.3,65.7 311.1,65.7 312.1,65.7 312.8,65.4 313.4,64.9 313.9,64.30000000000001 314.2,63.60000000000001 314.2,62.60000000000001 314.2,61.60000000000001 313.9,60.90000000000001 313.3,60.30000000000001 312.7,59.80000000000001 312,59.50000000000002 311.2,59.5 Z M 318.9,40.3 C 318.9,43.6 317.8,46.6 315.7,49 313.6,51.5 310.8,52.7 307.3,52.7 303.9,52.7 300.9,51.5 298.6,49.1 296.2000000000001,46.7 295,43.80000000000001 295,40.6 295,37.4 296.2,34.6 298.6,32.2 301,29.8 303.8,28.6 306.9,28.6 310.0000000000001,28.6 312.8,29.7 315.3,31.9 317.7,34 318.9,36.80000000000001 318.9,40.3 Z M 306.9,33.5 C 305.1,33.5 303.5,34.2 302.1,35.6 300.7,37 300,38.6 300,40.4 300,42.5 300.6999999999999,44.2 302.1999999999999,45.6 303.6999999999999,47 305.3999999999999,47.7 307.3,47.7 309.3,47.7 311,47 312.3,45.5 313.6,44.1 314.1999999999999,42.3 314.1999999999999,40.3 314.1999999999999,38.4 313.5,36.8 312.1999999999999,35.4 310.8,34.2 309.0999999999999,33.5 306.9,33.5 Z M 318.9,14.1 C 318.9,17.4 317.8,20.4 315.7,22.8 313.6,25.3 310.8,26.5 307.3,26.5 303.9,26.5 300.9,25.3 298.6,22.89999999999999 296.2000000000001,20.5 295,17.59999999999999 295,14.4 295,11.2 296.2,8.399999999999995 298.6,5.999999999999995 301,3.599999999999995 303.8,2.399999999999995 306.9,2.399999999999995 310.0000000000001,2.399999999999995 312.8,3.499999999999995 315.3,5.699999999999994 317.7,7.799999999999994 318.9,10.59999999999999 318.9,14.1 Z M 306.9,7.3 C 305.1,7.3 303.5,8 302.1,9.4 300.7,10.8 300,12.4 300,14.2 300,16.3 300.6999999999999,18 302.1999999999999,19.4 303.6999999999999,20.8 305.3999999999999,21.5 307.3,21.5 309.3,21.5 311,20.8 312.3,19.3 313.6,17.9 314.1999999999999,16.1 314.1999999999999,14.1 314.1999999999999,12.2 313.5,10.6 312.1999999999999,9.200000000000001 310.8,8.000000000000001 309.0999999999999,7.300000000000001 306.9,7.3 Z" id="path14" />
</g>
<g id="g24">
<path d="M 322.3,6 V 2 H 320.8 V 1.3 H 324.7 V 2 H 323 V 6 Z M 325.1,6 V 1.3 H 326.3 L 327.5,5.1 328.7,1.3 H 329.8 V 6 H 329.1 V 2 L 327.9,6 H 327.2000000000001 L 325.9,2 V 6 Z" id="path22" />
</g>
</g>
</svg>
