<?xml version="1.0" encoding="UTF-8" standalone="no"?>
<svg xmlns:dc="http://purl.org/dc/elements/1.1/" xmlns:cc="http://creativecommons.org/ns#" xmlns:rdf="http://www.w3.org/1999/02/22-rdf-syntax-ns#" xmlns:svg="http://www.w3.org/2000/svg" xmlns="http://www.w3.org/2000/svg" height="500" viewBox="-1.33350127 -0.01706961 789.18056358 157.5705765659341" width="2500" version="1.1" id="svg14">
<metadata id="metadata20">
<rdf:RDF>
<cc:Work rdf:about="">
<dc:format>image/svg+xml</dc:format>
<dc:type rdf:resource="http://purl.org/dc/dcmitype/StillImage" />
<dc:title></dc:title>
</cc:Work>
</rdf:RDF>
</metadata>
<defs id="defs18" />
<g fill="#e22526" id="g12" transform="matrix(0.8737221038505852,0,0,0.8737221038505852,49.20074302150851,3.609332716583931)">
<path d="M 87.60299999999999,108.46 82.12299999999999,109.896 C 80.87299999999999,110.241 79.88899999999999,110.801 79.65099999999999,111.759 A 2.521,2.521 0 0 0 79.56799999999998,112.397 C 79.56799999999998,113.623 80.44899999999998,114.631 81.69499999999999,114.821 H 81.74899999999999 L 87.36399999999999,116.31 C 97.94899999999998,119.128 106.728,128.092 106.728,139.027 106.728,140.462 106.573,141.927 106.252,143.417 104.202,153.047 97.63199999999999,161.291 86.38199999999999,161.291 86.03199999999999,161.291 85.66199999999999,161.291 85.28699999999999,161.267 77.94699999999997,160.922 71.11099999999997,154.4 71.11099999999997,146.954 71.11099999999997,145.066 71.53399999999999,143.124 72.51699999999999,141.236 73.29099999999999,139.718 74.86299999999998,138.919 76.191,138.199 77.89499999999999,137.323 79.277,136.554 79.676,134.958 A 8.282999999999999,8.282999999999999 0 0 0 79.94299999999998,132.826 C 79.94299999999998,130.301 78.85299999999999,127.882 76.72199999999999,126.471 75.63199999999999,125.726 74.56599999999997,125.434 73.52899999999999,125.434 70.49699999999998,125.434 67.54299999999999,127.984 65.23199999999998,130.778 62.146,134.505 60.896,138.413 60.896,142.297 60.896,148.817 64.37999999999999,155.281 68.74099999999998,160.629 74.48799999999998,167.675 83.53499999999999,170.605 92.55299999999998,170.708 H 93.08299999999998 C 106.359,170.708 119.499,164.031 124.049,151.183 A 30.357,30.357 0 0 0 125.859,140.915 C 125.859,135.78 124.526,130.7 121.732,126.257 118.492,121.069 113.566,117.107 107.823,114.976 L 106.144,114.367 107.901,113.992 A 48.647,48.647 0 0 0 130.326,102.288 48.84300000000001,48.84300000000001 0 0 0 146.157,68.76799999999994 C 146.42,66.53399999999993 146.557,64.35299999999992 146.557,62.22199999999995 146.557,32.60899999999995 121.197,10.50499999999995 93.07899999999999,2.654999999999944 A 73.283,73.283 0 0 0 73.525,-0.0070000000000556 72.85999999999998,72.85999999999998 0 0 0 31.522,13.32299999999994 C 14.63000000000001,25.21599999999994 -0.0039999999999942,42.71699999999994 -0.0039999999999942,63.33599999999994 -0.0039999999999942,65.80799999999993 0.2100000000000058,68.30899999999994 0.6340000000000054,70.86399999999993 2.712000000000005,82.80699999999994 5.690000000000006,95.39199999999992 17.502,101.324 20.057,102.599 22.982,103.772 25.72200000000001,103.772 27.37200000000001,103.772 28.94300000000001,103.373 30.40300000000001,102.337 33.11900000000001,100.395 34.92400000000001,97.27999999999994 34.92400000000001,94.11699999999993 34.92400000000001,92.89099999999993 34.63200000000001,91.63999999999994 34.02400000000001,90.41799999999993 32.26700000000001,86.93399999999995 28.06200000000001,86.08199999999995 24.12500000000001,85.65399999999995 23.99500000000001,85.65399999999995 23.833,85.62999999999995 23.70200000000001,85.62999999999995 23.11300000000001,85.62999999999995 22.55800000000001,85.73699999999995 21.91600000000001,85.86799999999995 21.33200000000001,85.97499999999995 20.66600000000001,86.08199999999995 20.00300000000001,86.08199999999995 A 4.5,4.5 0 0 1 18.723,85.92199999999995 C 16.383,85.17699999999993 15.10800000000001,83.10399999999995 13.96400000000001,81.31799999999995 13.67200000000001,80.84099999999995 13.40400000000001,80.38799999999993 13.11200000000001,79.96499999999996 10.37200000000001,76.02299999999995 9.282000000000005,71.76999999999995 9.282000000000005,67.45799999999995 9.282000000000005,59.39799999999996 13.13700000000001,51.09699999999995 17.26400000000001,44.10299999999995 22.29100000000001,35.56299999999995 30.45700000000001,29.68299999999995 39.13000000000001,25.26399999999995 47.77800000000002,20.87899999999995 57.24800000000001,18.61599999999995 66.74299999999999,18.61599999999995 74.617,18.61599999999995 82.52000000000001,20.15899999999995 89.94199999999999,23.32699999999995 103.082,28.90899999999995 115.452,38.06299999999996 120.217,52.08399999999996 121.867,56.92599999999996 122.718,61.95399999999996 122.718,66.98099999999996 122.718,75.49299999999996 120.294,83.92599999999994 115.268,91.07999999999995 108.722,100.419 105.291,103.242 87.60000000000002,108.454" id="path2" />
<path d="M 43.228,39.976 29.743,45.378 C 28.916,45.694 28.303,46.308 28.303,46.945 28.303,47.052 28.332,47.183 28.385,47.32 28.595,47.957 29.13,48.327 29.714,48.327 29.845,48.327 29.981,48.303 30.113,48.278 L 30.166,48.249 H 30.249 L 34.26400000000001,48.17099999999999 H 34.31800000000001 C 36.045,48.17099999999999 37.29600000000001,49.55299999999999 38.22500000000001,50.566 38.25500000000001,50.61899999999999 38.30800000000001,50.673 38.33300000000001,50.697 39.743,52.24 40.86300000000001,54.211 40.86300000000001,56.362 L 41.20900000000001,152.131 C 41.20900000000001,154.9 39.98200000000002,157.401 38.41500000000002,159.367 37.05700000000001,161.1 35.27600000000001,162.482 33.30500000000001,163.305 L 33.25200000000001,163.334 H 33.22800000000001 L 28.20000000000001,164.555 C 27.15900000000001,164.799 26.44400000000001,165.383 26.44400000000001,166.181 26.44400000000001,167.086 27.18800000000001,167.777 28.20000000000001,167.777 L 55.22400000000001,167.884 C 56.07600000000001,167.884 56.82100000000001,167.271 57.48700000000001,166.365 58.07100000000001,165.597 58.23200000000002,164.555 58.23200000000002,163.387 L 58.28500000000001,37.76699999999997 C 58.28500000000001,36.70699999999997 58.20800000000001,35.80099999999998 57.56500000000001,35.21699999999997 57.19500000000001,34.86699999999997 56.66500000000002,34.81799999999997 55.96900000000001,34.81799999999997 H 55.03900000000001 L 43.22900000000002,39.97699999999997 Z M 178.92,110.68 208.397,110.442 H 208.528 C 209.701,110.442 210.762,110.412 211.453,109.697 211.828,109.269 211.935,108.709 212.043,107.887 212.066,107.595 212.091,107.273 212.173,106.957 212.388,105.969 212.465,104.986 212.465,103.974 212.465,100.728 211.482,97.45699999999996 210.417,94.26499999999997 205.627,80.18799999999997 192.037,71.27699999999997 177.267,71.27699999999997 H 176.945 C 164.389,71.38399999999997 153.829,79.20499999999995 146.515,89.07399999999995 139.862,98.06699999999996 138.027,109.295 138.027,120.361 V 121.076 C 138.134,137.33 141.647,154.704 155.587,164.121 161.917,168.404 169.178,171.197 176.892,171.197 189.876,171.197 200.758,162.871 207.965,152.281 211.026,147.79 213.737,143.001 214.404,137.599 L 214.696,135.312 V 135.259 C 214.725,135.152 214.749,135.02 214.749,134.884 214.749,134.354 214.486,133.847 213.98,133.555 A 1.13,1.13 0 0 0 213.42,133.395 C 212.837,133.395 212.223,133.823 211.77,134.407 L 210.145,136.563 A 33.243,33.243 0 0 1 201.555,146.7 C 196.261,150.822 189.954,153.985 183.175,153.985 182.216,153.985 181.233,153.907 180.245,153.775 172.585,152.71 166.628,147.522 161.995,141.829 A 38.46,38.46 0 0 1 154.812,128.052 39.28,39.28 0 0 1 153.299,117.355 C 153.299,115.252 153.484,113.15 153.859,111.048 L 153.936,110.6 H 154.36 L 178.917,110.678 Z M 173.654,102.013 157.264,101.959 C 156.31,101.959 155.112,101.667 154.606,100.548 154.475,100.28 154.446,99.98799999999998 154.446,99.74999999999998 154.446,99.51199999999998 154.475,99.27299999999998 154.499,99.05899999999998 154.523,98.84399999999996 154.553,98.65899999999996 154.553,98.47499999999998 154.927,90.46499999999997 159.872,83.12499999999998 167.668,80.59499999999998 A 19.395,19.395 0 0 1 173.814,79.58199999999996 C 176.154,79.58199999999996 178.496,80.03499999999998 180.676,80.96899999999996 186.978,83.70899999999997 191.212,89.87999999999998 191.212,96.66399999999997 191.212,97.38399999999998 191.159,98.12899999999999 191.052,98.87399999999998 191.022,99.05899999999998 191.022,99.27299999999998 191.022,99.51099999999998 191.022,100.071 191.022,100.869 190.438,101.453 189.932,101.983 189.241,102.037 188.735,102.037 H 187.674 L 187.621,102.067 Z M 258.8100000000001,111.53 288.287,111.292 H 288.418 C 289.591,111.292 290.652,111.262 291.343,110.547 291.718,110.119 291.8250000000001,109.559 291.932,108.737 A 5.92,5.92 0 0 1 292.063,107.807 C 292.278,106.819 292.355,105.836 292.355,104.824 292.355,101.578 291.372,98.30699999999997 290.307,95.11499999999996 285.5169999999999,81.04099999999995 271.9259999999999,72.12999999999996 257.161,72.12999999999996 H 256.8389999999999 C 244.2829999999999,72.23699999999996 233.723,80.05799999999996 226.4089999999999,89.92699999999996 219.756,98.91999999999994 217.9209999999999,110.148 217.9209999999999,121.214 V 121.929 C 218.0279999999999,138.183 221.5409999999999,155.557 235.4809999999999,164.974 241.811,169.257 249.072,172.05 256.786,172.05 269.7699999999999,172.05 280.6519999999999,163.724 287.8589999999999,153.134 290.9199999999999,148.643 293.6309999999999,143.854 294.298,138.452 L 294.5899999999999,136.165 V 136.112 C 294.6189999999999,136.005 294.6429999999999,135.873 294.6429999999999,135.737 294.6429999999999,135.207 294.3799999999999,134.7 293.8739999999999,134.408 A 1.13,1.13 0 0 0 293.3139999999999,134.248 C 292.7309999999999,134.248 292.1169999999999,134.676 291.6639999999999,135.26 L 290.0439999999999,137.416 A 33.248,33.248 0 0 1 281.4499999999999,147.548 C 276.1549999999999,151.675 269.848,154.838 263.069,154.838 262.11,154.838 261.127,154.76 260.139,154.628 252.479,153.563 246.522,148.375 241.889,142.682 A 38.441,38.441 0 0 1 234.706,128.9 39.21800000000001,39.21800000000001 0 0 1 233.192,118.208 C 233.192,116.105 233.377,114.003 233.752,111.901 L 233.83,111.448 H 234.253 L 258.81,111.531 Z M 254.1090000000001,102.215 237.7230000000001,102.162 C 236.7640000000001,102.162 235.5670000000001,101.87 235.0610000000001,100.751 234.9300000000001,100.483 234.9050000000001,100.191 234.9050000000001,99.95199999999998 234.9050000000001,99.71399999999998 234.9290000000001,99.47599999999998 234.9540000000001,99.26199999999998 234.9840000000001,99.04699999999998 235.0070000000001,98.86199999999998 235.0070000000001,98.67699999999999 235.3820000000001,90.66699999999997 240.3270000000001,83.32799999999997 248.1220000000001,80.79699999999999 A 19.436,19.436 0 0 1 254.2690000000001,79.78999999999999 C 256.609,79.78999999999999 258.9500000000001,80.23799999999998 261.1310000000001,81.17199999999999 267.4380000000001,83.91199999999999 271.6670000000001,90.08199999999999 271.6670000000001,96.86699999999999 271.6670000000001,97.58699999999997 271.6130000000001,98.33199999999999 271.5070000000001,99.07699999999998 271.4820000000001,99.26099999999998 271.4820000000001,99.47599999999998 271.4820000000001,99.71399999999998 271.4820000000001,100.274 271.4820000000001,101.072 270.8930000000001,101.656 270.3920000000001,102.186 269.7010000000001,102.24 269.1950000000001,102.24 H 268.1280000000001 L 268.0750000000001,102.27 254.1080000000001,102.216 Z M 337.6400000000001,71.72999999999997 A 47.39,47.39 0 0 0 308.9080000000001,88.22299999999998 C 301.8320000000001,96.73499999999998 298.0560000000002,107.456 298.0560000000002,118.444 298.0560000000002,119.481 298.0800000000002,120.517 298.1630000000002,121.559 298.1630000000002,133.156 301.3260000000002,144.515 308.0570000000002,153.907 311.0110000000002,158.057 314.2810000000002,161.887 318.4620000000002,164.759 324.3410000000002,168.827 331.2810000000002,171.197 338.4640000000002,171.197 H 338.8390000000002 C 349.2390000000002,171.09 358.4990000000002,165.425 365.4690000000002,157.79 370.2290000000002,152.602 373.5570000000002,146.271 375.2310000000002,139.355 L 376.1360000000001,136.294 C 376.2680000000001,135.817 376.3750000000001,135.282 376.3750000000001,134.804 376.3750000000001,134.114 376.1610000000001,133.608 375.6840000000001,133.286 A 1.976,1.976 0 0 0 374.7010000000001,133.024 C 373.6590000000002,133.024 372.7300000000001,133.846 372.7300000000001,134.936 V 135.072 L 372.6760000000002,135.175 371.2650000000002,137.944 C 369.6980000000002,141.083 367.6250000000002,143.984 365.0400000000001,146.324 359.8530000000001,151.084 353.0680000000002,153.478 346.1820000000001,153.478 344.8490000000001,153.478 343.5200000000002,153.4 342.1620000000002,153.215 334.4490000000001,152.174 327.9570000000002,147.6529999999999 323.0080000000002,141.905 316.5740000000001,134.376 315.3770000000002,124.3509999999999 315.3770000000002,114.881 V 113.2019999999999 C 315.4790000000002,105.221 315.9610000000002,96.60199999999994 320.9340000000002,89.73999999999992 324.2340000000002,85.18999999999994 328.2780000000002,80.47899999999994 334.1810000000002,79.20399999999993 335.8850000000002,78.83399999999993 337.6950000000002,78.59099999999992 339.5050000000002,78.59099999999992 342.5370000000002,78.59099999999992 345.5690000000003,79.31099999999993 348.0170000000002,81.46699999999994 349.7980000000002,83.03399999999993 351.0250000000002,85.18999999999994 351.8470000000002,87.31699999999993 352.2460000000002,88.35799999999993 352.3240000000002,89.41899999999994 352.4070000000002,90.40199999999991 352.4850000000002,91.46799999999993 352.5670000000002,92.42699999999993 352.9370000000002,93.30199999999993 354.9320000000002,97.93099999999994 359.1610000000002,101.9499999999999 363.7890000000002,101.9499999999999 365.1220000000002,101.9499999999999 366.5340000000002,101.6049999999999 367.9400000000002,100.8309999999999 371.1080000000002,99.07399999999992 372.7820000000002,95.53599999999993 373.2100000000002,91.86699999999993 373.2600000000002,91.49199999999993 373.2600000000002,91.14699999999993 373.2600000000002,90.77699999999991 373.2600000000002,85.93499999999993 369.3520000000002,82.26499999999991 365.6530000000001,78.83399999999993 365.4140000000002,78.61999999999993 365.2000000000002,78.40599999999993 364.9860000000002,78.22099999999993 359.6430000000001,73.24699999999991 352.6690000000002,70.60899999999992 345.5680000000002,70.60899999999992 342.9350000000002,70.60899999999992 340.2730000000001,70.98399999999992 337.6940000000001,71.70399999999993 L 337.6410000000001,71.72899999999994 Z" id="path4" />
<path d="M 382,105.44 381.6,156.091 C 381.577,158.086 380.482,159.79 379.392,161.118 A 10.17,10.17 0 0 1 375.454,164.048 L 375.401,164.072 H 375.347 L 370.427,164.87 C 369.362,165.055 368.617,165.561 368.617,166.282 368.617,167.133 369.284,167.771 370.189,167.771 L 410.465,168.063 C 411.317,168.063 411.978,167.396 412.037,166.544 V 166.467 C 412.037,165.591 411.287,164.841 410.436,164.841 H 410.3580000000001 L 406.9800000000001,164.442 C 404.5320000000001,164.15 402.9900000000001,162.13 401.7390000000001,160.505 400.7270000000001,159.152 399.9820000000001,157.609 399.6120000000001,155.906 L 399.5830000000001,155.853 V 155.799 L 399.1840000000001,98.923 V 98.84 C 399.1840000000001,98.203 399.2380000000001,97.56499999999998 399.5050000000001,96.899 399.7440000000001,96.26099999999999 400.1960000000001,95.75499999999999 400.5950000000001,95.33199999999999 400.7560000000001,95.14200000000001 400.8870000000001,94.986 401.0190000000001,94.796 404.347,90.674 408.6300000000001,87.24299999999999 413.818,85.754 416.29,85.034 418.9520000000001,84.45 421.585,84.45 423.925,84.45 426.242,84.902 428.393,86.075 433.61,88.917 436.72,94.426 436.773,100.305 L 437.2550000000001,155.852 V 155.93 C 437.2550000000001,157.794 436.773,159.712 435.523,161.172 434.5150000000001,162.344 433.235,163.035 431.878,163.488 L 427.8630000000001,164.841 C 427.7310000000001,164.894 427.6240000000001,164.948 427.4880000000001,164.977 426.2130000000001,165.401 425.3610000000001,165.747 425.3610000000001,166.544 V 166.651 C 425.4440000000001,167.61 426.242,168.247 427.3320000000001,168.247 L 466.4350000000001,168.223 C 467.5550000000001,168.223 468.4850000000001,167.533 468.5910000000001,166.52 V 166.335 C 468.5910000000001,165.323 467.7400000000001,164.471 466.6740000000001,164.471 H 466.5420000000001 L 466.4650000000001,164.495 466.3820000000001,164.471 463.0870000000001,163.78 C 461.2230000000001,163.38 459.734,162.237 458.59,160.88 457.393,159.497 456.4350000000001,157.77 456.41,155.799 L 455.9040000000001,103.712 C 455.8510000000001,98.709 455.1300000000001,93.706 453.1880000000001,89.10699999999998 450.5260000000001,82.69299999999998 446.672,76.57599999999999 440.3940000000001,73.51399999999999 437.1480000000001,71.91799999999999 433.6100000000001,71.256 430.0180000000001,71.256 427.8870000000001,71.256 425.7360000000001,71.49399999999998 423.6040000000001,71.893 419.1900000000001,72.769 415.2540000000001,75.05599999999998 411.3400000000001,77.349 407.3250000000001,79.68899999999999 403.6270000000001,82.483 400.2730000000001,85.617 L 399.3970000000001,86.444 V 85.24699999999998 L 398.8670000000001,29.96799999999999 C 398.8370000000002,29.088 398.3850000000001,28.23499999999999 397.6400000000002,27.788 A 2.258,2.258 0 0 0 396.4720000000002,27.46699999999999 C 396.0980000000001,27.46699999999999 395.7280000000001,27.544 395.3820000000002,27.70499999999999 L 370.0030000000002,38.611 C 369.0150000000002,39.039 368.3240000000002,39.677 368.3240000000002,40.368 368.3240000000002,40.504 368.3540000000002,40.636 368.4070000000002,40.79599999999999 368.6170000000002,41.43399999999999 369.2290000000002,41.83299999999999 369.8430000000002,41.83299999999999 370.1590000000002,41.83299999999999 370.4800000000002,41.72599999999999 370.7730000000002,41.512 L 370.9030000000002,41.43399999999999 H 371.0400000000002 L 374.2570000000002,41.24899999999999 C 374.3640000000002,41.21899999999999 374.4420000000002,41.21899999999999 374.5490000000002,41.21899999999999 376.0670000000001,41.21899999999999 377.3960000000001,41.91099999999999 378.5390000000002,42.73799999999999 380.1110000000002,43.90599999999999 380.5350000000001,45.76999999999998 380.9340000000001,47.36599999999999 381.1240000000001,48.11099999999998 381.3080000000002,48.826 381.5760000000001,49.46799999999998 L 381.6000000000001,49.57499999999998 V 49.65299999999999 L 382.0000000000001,105.439 Z" id="path6" />
<path d="M 501.26,72.09399999999999 A 47.39,47.39 0 0 0 472.528,88.58699999999997 C 465.452,97.09899999999997 461.6760000000001,107.82 461.6760000000001,118.808 461.6760000000001,119.845 461.7000000000001,120.881 461.7830000000001,121.923 461.7830000000001,133.52 464.9460000000001,144.879 471.6770000000001,154.271 474.6310000000001,158.417 477.9070000000001,162.251 482.0820000000001,165.123 487.9610000000001,169.191 494.905,171.561 502.0840000000001,171.561 H 502.4590000000001 C 512.859,171.454 522.119,165.789 529.089,158.154 533.849,152.966 537.177,146.635 538.8510000000001,139.719 L 539.7559999999997,136.658 C 539.888,136.181 539.9950000000001,135.646 539.9950000000001,135.168 539.9950000000001,134.478 539.7809999999999,133.972 539.3039999999997,133.65 A 1.976,1.976 0 0 0 538.3210000000001,133.388 C 537.2840000000001,133.388 536.3500000000001,134.21 536.3500000000001,135.3 V 135.436 L 536.296,135.539 534.8900000000002,138.308 C 533.3180000000002,141.447 531.2450000000002,144.348 528.6649999999998,146.688 523.4729999999999,151.448 516.6930000000002,153.842 509.8020000000002,153.842 508.4690000000002,153.842 507.1400000000002,153.764 505.7820000000002,153.579 498.0690000000002,152.538 491.5760000000002,148.0169999999999 486.6270000000002,142.269 480.1940000000002,134.74 478.9970000000002,124.715 478.9970000000002,115.245 V 113.566 C 479.0990000000002,105.585 479.5810000000002,96.96599999999995 484.5540000000002,90.10399999999994 487.8540000000002,85.55399999999994 491.8980000000002,80.84299999999994 497.8010000000002,79.56799999999994 499.5050000000002,79.19799999999993 501.3150000000002,78.95499999999994 503.1250000000002,78.95499999999994 506.1570000000002,78.95499999999994 509.1890000000003,79.67499999999994 511.6370000000002,81.83099999999994 513.4180000000002,83.39799999999992 514.6440000000002,85.55399999999994 515.4670000000002,87.68099999999994 515.8660000000002,88.71699999999994 515.9439999999998,89.78299999999994 516.027,90.76599999999993 516.1040000000001,91.83199999999993 516.1870000000001,92.79099999999992 516.5570000000001,93.66599999999992 518.5520000000001,98.29499999999994 522.7809999999999,102.3139999999999 527.4140000000001,102.3139999999999 528.743,102.3139999999999 530.1540000000001,101.9689999999999 531.5599999999999,101.1949999999999 534.7279999999999,99.43799999999993 536.402,95.89999999999993 536.83,92.23099999999992 536.884,91.85599999999992 536.884,91.51099999999992 536.884,91.14099999999993 536.884,86.29899999999993 532.9719999999997,82.62899999999993 529.273,79.19799999999993 529.0339999999996,78.98399999999992 528.82,78.76999999999992 528.6059999999996,78.58499999999993 523.263,73.61099999999993 516.2939999999997,70.97299999999994 509.188,70.97299999999994 506.555,70.97299999999994 503.893,71.34799999999994 501.314,72.06799999999994 L 501.261,72.09299999999994 Z" id="path8" />
<path d="M 552.96,75.95 540.9099999999998,81.006 C 539.6839999999998,81.50799999999999 538.7,82.06699999999999 538.7,82.91899999999999 538.7,82.97299999999998 538.725,83.07899999999999 538.725,83.15699999999999 538.8849999999996,84.009 539.6299999999996,84.569 540.4279999999996,84.569 540.749,84.569 541.041,84.49099999999998 541.3329999999998,84.32999999999998 L 541.4699999999999,84.25199999999999 H 541.6249999999995 L 545.5619999999995,84.408 C 547.6399999999996,84.515 549.5289999999996,85.474 550.9889999999999,86.885 552.9589999999999,88.77300000000001 553.7819999999999,91.37699999999999 553.8109999999999,93.96099999999998 L 553.8889999999995,158.234 C 553.8889999999995,160.361 552.1619999999999,161.826 550.8329999999998,162.834 549.4999999999995,163.821 547.9329999999996,164.298 546.3609999999996,164.483 L 541.7079999999998,165.096 C 540.2429999999998,165.281 539.0459999999998,165.763 539.0459999999998,166.716 V 166.906 C 539.1769999999994,167.836 539.9509999999994,168.449 540.8029999999996,168.449 540.9629999999997,168.449 541.1729999999995,168.42 541.3629999999997,168.367 L 541.4399999999997,168.342 H 541.5179999999993 L 585.0159999999997,168.42 C 585.3079999999996,168.42 585.5999999999994,168.396 585.8919999999997,168.342 586.7439999999993,168.128 587.3859999999997,167.622 587.4639999999997,166.8 V 166.639 C 587.4639999999997,165.602 586.5589999999997,164.751 585.5759999999994,164.751 585.3619999999996,164.751 585.1229999999997,164.804 584.8849999999996,164.911 L 584.7489999999994,164.965 584.6169999999997,164.935 579.8569999999997,164.376 C 577.8329999999997,164.138 576.1059999999996,163.179 574.6699999999997,161.879 572.8349999999993,160.229 571.4479999999997,157.913 571.4479999999997,155.359 L 571.2099999999993,95.26499999999994 C 571.1859999999993,93.40099999999995 572.3779999999997,91.96499999999996 573.3659999999996,90.71499999999996 573.4969999999996,90.52999999999994 573.6579999999994,90.33999999999996 573.7889999999996,90.15499999999994 574.8789999999994,88.74399999999994 576.1839999999996,87.36199999999995 577.8329999999996,86.37899999999996 577.9399999999992,86.32499999999996 578.0469999999993,86.24199999999996 578.1539999999996,86.19399999999994 579.1369999999996,85.60399999999995 580.3339999999996,84.88999999999994 581.7169999999996,84.88999999999994 H 581.9839999999993 C 583.0989999999997,84.96699999999995 583.9799999999994,85.57999999999995 584.7489999999994,86.11099999999996 585.1229999999997,86.34999999999996 585.4689999999997,86.59299999999996 585.8139999999997,86.77799999999996 586.8509999999995,87.30799999999996 587.8099999999997,88.02799999999996 588.7139999999997,88.71999999999995 590.5249999999997,90.07699999999995 592.1459999999997,91.29899999999993 594.2189999999997,91.35199999999996 H 594.5159999999997 C 598.1069999999997,91.35199999999996 601.4849999999994,89.59599999999996 603.3439999999997,86.48599999999996 604.2489999999994,84.99599999999996 604.6479999999994,83.45399999999996 604.6479999999994,81.93599999999996 604.6479999999994,77.81399999999996 601.7229999999997,73.76899999999996 597.8399999999993,71.58999999999996 596.2139999999997,70.65499999999994 594.4869999999997,70.30999999999994 592.6759999999997,70.30999999999994 590.1749999999997,70.30999999999994 587.5959999999995,70.99999999999994 585.1759999999997,71.82799999999996 582.3299999999993,72.78699999999996 579.9889999999993,74.64599999999994 577.5949999999993,76.53399999999996 577.3559999999996,76.69399999999994 577.1179999999997,76.87999999999996 576.9039999999996,77.06899999999994 A 52.559,52.559 0 0 0 571.3699999999995,82.09699999999996 L 570.4899999999995,83.00199999999996 570.4649999999993,81.72199999999996 570.3579999999997,74.40699999999995 C 570.3339999999997,73.13199999999996 569.7449999999995,71.88199999999996 568.6549999999997,71.21499999999997 568.2849999999997,70.97599999999997 567.8319999999996,70.86899999999997 567.3509999999995,70.86899999999997 566.9509999999994,70.86899999999997 566.5529999999996,70.92299999999997 566.1289999999994,70.97599999999997 565.8079999999996,71.02999999999997 565.4619999999996,71.05399999999997 565.1169999999998,71.08299999999995 Z M 669.24,122.54 669.187,93.944 C 669.187,89.102 668.072,84.284 665.274,80.34699999999999 661.7649999999996,75.427 656.2319999999997,72.68700000000001 650.2999999999999,71.43700000000001 A 63.756,63.756 0 0 0 637.9289999999997,70.186 C 633.9139999999996,70.186 630.1329999999999,70.60899999999999 627.2319999999997,71.543 619.3329999999998,74.09800000000001 611.3519999999997,77.793 607.8919999999999,85.427 607.8669999999998,85.51 607.8379999999998,85.617 607.7899999999998,85.69499999999999 606.6699999999998,88.143 605.6039999999999,90.56200000000001 605.6039999999999,93.039 605.6039999999999,93.623 605.6579999999999,94.182 605.7649999999996,94.742 606.7479999999998,99.20999999999999 609.5709999999999,103.414 614.1449999999997,103.414 H 614.4369999999995 C 618.8799999999996,103.254 621.4599999999999,99.102 622.5009999999997,94.81999999999999 622.5789999999998,94.42 622.6329999999998,94.022 622.6329999999998,93.593 622.6329999999998,92.878 622.5259999999998,92.13299999999999 622.3939999999995,91.33499999999999 622.2579999999998,90.56200000000001 622.1259999999997,89.70999999999999 622.1259999999997,88.86300000000001 622.1259999999997,88.56600000000001 622.1259999999997,88.30300000000001 622.1799999999997,88.01200000000001 622.3939999999995,86.17200000000001 622.6329999999993,84.15200000000001 623.5909999999995,82.34200000000001 626.0629999999996,77.58199999999999 631.4359999999993,75.802 636.4109999999997,75.66500000000002 636.6009999999995,75.66500000000002 636.7849999999997,75.641 636.9699999999993,75.641 641.3599999999994,75.641 645.8029999999996,77.26100000000002 648.7799999999996,80.69200000000002 651.0679999999996,83.35400000000001 652.4549999999992,86.73200000000001 652.4549999999992,90.245 V 90.32300000000002 L 652.3729999999992,107.191 619.2269999999996,120.361 C 614.4139999999996,122.273 609.8869999999996,124.881 606.6169999999996,128.818 602.5729999999996,133.714 600.2329999999996,139.808 600.2329999999996,145.948 600.2329999999996,149.063 600.8459999999995,152.178 602.1209999999996,155.18 605.7119999999996,163.56 613.5609999999993,169.201 622.6579999999994,170 623.3779999999997,170.077 624.0929999999996,170.106 624.8139999999996,170.106 633.3789999999994,170.106 641.3899999999996,165.663 645.9339999999996,158.241 648.1199999999995,154.727 649.2099999999993,150.605 649.6089999999993,146.431 649.7399999999995,144.805 649.9009999999996,143.208 649.9009999999996,141.612 649.9009999999996,139.009 649.5009999999996,136.429 648.0659999999993,134.006 646.6009999999995,131.534 643.5939999999992,129.086 640.8299999999992,129.086 639.6319999999996,129.086 638.4599999999993,129.538 637.4229999999995,130.682 636.4109999999996,131.796 635.9579999999995,133.154 635.9579999999995,134.536 635.9579999999995,136.055 636.4939999999993,137.597 637.4229999999995,138.901 637.8759999999995,139.5390000000001 638.6199999999995,139.8610000000001 639.5009999999995,140.259 640.3229999999995,140.6050000000001 641.3069999999994,141.0290000000001 641.9729999999995,141.8790000000001 643.1699999999995,143.4520000000001 643.7539999999994,145.3640000000001 643.7539999999994,147.253 643.7539999999994,147.389 643.7299999999994,147.52 643.7299999999994,147.6520000000001 643.6229999999992,150.1530000000001 642.3189999999995,152.3330000000001 640.7519999999991,154.037 638.4109999999991,156.621 635.1599999999995,157.8130000000001 631.8649999999995,157.8130000000001 630.8289999999996,157.8130000000001 629.7869999999993,157.6820000000001 628.7509999999995,157.443 623.9089999999995,156.353 620.7989999999995,152.309 618.9879999999991,148.08 618.0829999999995,146.002 617.6839999999995,143.7970000000001 617.6839999999995,141.6120000000001 617.6839999999995,138.556 618.4819999999995,135.4710000000001 619.8399999999993,132.6480000000001 621.9129999999994,128.419 625.4509999999994,125.0420000000001 629.8169999999994,123.1000000000001 L 629.8699999999994,123.0700000000001 652.6159999999994,115.2800000000001 652.8539999999992,156.3 C 652.8789999999994,160.4210000000001 653.4379999999994,164.572 656.3099999999991,167.473 658.9179999999994,170.0770000000001 662.6699999999995,171.036 666.4699999999993,171.036 670.9139999999994,171.036 675.1719999999993,169.04 678.1799999999991,165.639 L 682.8859999999995,160.3440000000001 C 683.0759999999994,160.1300000000001 683.2609999999995,159.9440000000001 683.4459999999993,159.7310000000001 684.3749999999994,158.7710000000001 685.2019999999994,157.842 685.2019999999994,156.991 685.2019999999994,156.699 685.0949999999993,156.353 684.7499999999994,155.979 A 2.427,2.427 0 0 0 682.9399999999991,155.18 C 682.1169999999995,155.18 681.2899999999995,155.609 680.8129999999995,156.353 L 680.7049999999992,156.485 680.5749999999992,156.538 676.0239999999995,158.5630000000001 C 675.5469999999993,158.7720000000001 675.0409999999992,158.8790000000001 674.5339999999995,158.8790000000001 673.3619999999995,158.8790000000001 672.2469999999995,158.3490000000001 671.3659999999995,157.711 670.0139999999995,156.699 669.7699999999995,155.102 669.5319999999992,153.798 669.4249999999996,153.268 669.3469999999996,152.762 669.2149999999993,152.28 L 669.1859999999993,152.202 V 152.148 Z M 695.99,117.46 695.883,158.003 C 695.859,159.517 695.859,161.41 694.71,162.816 A 6.018,6.018 0 0 1 691.07,164.948 L 688.33,165.371 C 686.865,165.609 685.8289999999999,165.877 685.8289999999999,166.836 685.8289999999999,167.819 686.5729999999997,168.51 687.4489999999999,168.51 687.6390000000001,168.51 687.849,168.486 688.0620000000001,168.403 L 688.1400000000001,168.349 H 688.2469999999998 L 722.037,168.563 C 722.3279999999997,168.563 722.6449999999997,168.51 722.966,168.433 723.8959999999998,168.189 724.562,167.605 724.562,166.753 L 724.532,166.675 C 724.509,165.663 723.6319999999999,164.894 722.6449999999997,164.894 722.4890000000001,164.894 722.3279999999997,164.918 722.1680000000001,164.972 L 722.0359999999999,164.996 721.8760000000002,164.972 718.9510000000002,164.174 A 8.305999999999999,8.305999999999999 0 0 1 714.7999999999999,161.458 C 713.6269999999999,160.13 712.6970000000003,158.426 712.6970000000003,156.514 L 712.4070000000001,86.45699999999999 C 712.4070000000001,86.18899999999999 712.4070000000001,85.927 712.3780000000001,85.63400000000001 712.3540000000001,85.31400000000002 712.325,84.992 712.325,84.64600000000001 712.325,83.90200000000001 712.4610000000003,83.07900000000002 713.0690000000004,82.35899999999999 713.8430000000004,81.507 714.9330000000004,81.05900000000001 716.1010000000004,81.05900000000001 L 742.6290000000002,81.10899999999999 C 743.8260000000002,81.10899999999999 744.9700000000002,81.697 745.7150000000001,82.62699999999999 A 4.22,4.22 0 0 1 746.6680000000003,85.337 C 746.6680000000003,85.712 746.6200000000003,86.111 746.5130000000001,86.486 L 746.5660000000001,147.484 C 746.5660000000001,153.446 747.0670000000003,159.587 750.8490000000005,164.137 754.4650000000001,168.473 759.6820000000002,171.296 765.3710000000005,171.374 H 765.5850000000006 C 771.0400000000006,171.374 775.9310000000006,168.473 780.1120000000006,164.804 781.9470000000003,163.178 783.5140000000003,161.266 784.9250000000006,159.164 L 786.5850000000006,156.714 C 787.0910000000003,155.969 787.5680000000005,155.088 787.5680000000005,154.372 787.5680000000005,153.998 787.4370000000003,153.652 786.9840000000006,153.389 A 1.807,1.807 0 0 0 786.1080000000006,153.146 C 785.4700000000002,153.146 784.8580000000006,153.521 784.5650000000006,154.134 L 784.5120000000006,154.241 784.4290000000006,154.319 782.3020000000007,156.154 C 782.2780000000007,156.183 782.2250000000007,156.207 782.1950000000007,156.236 781.3730000000007,156.952 780.4920000000006,157.726 779.4550000000007,158.232 A 10.273,10.273 0 0 1 774.9050000000006,159.268 C 773.6840000000006,159.268 772.4570000000004,159.054 771.3140000000006,158.708 768.6270000000007,157.881 766.3690000000007,156.076 764.8510000000004,153.759 763.2840000000004,151.419 762.7490000000008,148.625 762.7490000000008,145.861 L 762.5880000000006,85.84099999999999 C 762.5880000000006,85.495 762.5340000000009,85.15 762.4570000000009,84.72600000000001 762.4030000000009,84.29800000000001 762.3250000000009,83.846 762.3250000000009,83.36900000000001 762.3250000000009,82.73099999999999 762.4850000000009,82.04000000000002 763.0700000000008,81.45099999999999 763.7850000000006,80.736 764.7730000000009,80.415 765.7560000000006,80.415 L 778.206000000001,80.361 C 780.283000000001,80.361 782.1180000000008,78.84799999999998 782.1180000000008,76.799 782.1180000000008,74.828 780.4680000000007,73.26099999999999 778.5510000000009,73.26099999999999 778.3900000000011,73.26099999999999 778.2340000000009,73.28500000000001 778.0740000000007,73.31399999999999 H 778.0200000000011 L 766.9780000000007,73.33900000000001 H 766.3950000000011 C 765.6250000000011,73.33900000000001 764.720000000001,73.31399999999999 763.946000000001,72.75499999999999 762.9340000000012,72.06399999999999 762.2720000000008,70.92000000000001 762.2720000000008,69.69400000000001 762.2720000000008,69.53800000000001 762.297000000001,69.40200000000001 762.297000000001,69.27000000000001 L 762.1890000000012,50.22200000000001 C 762.1890000000012,48.81100000000001 761.8730000000009,47.53600000000001 760.8070000000011,47.21500000000001 760.6220000000013,47.19000000000001 760.4910000000012,47.16100000000001 760.3840000000011,47.16100000000001 759.6640000000012,47.16100000000001 759.2940000000012,47.85200000000001 758.7880000000011,49.07800000000001 758.5740000000012,49.55500000000001 758.3600000000011,50.06200000000001 758.0970000000012,50.46100000000001 757.3770000000012,51.49700000000002 757.0310000000008,52.72400000000001 756.6570000000009,53.99900000000001 756.393000000001,54.95700000000001 756.1010000000011,55.99400000000001 755.6200000000011,56.92300000000001 753.8380000000011,60.43700000000001 751.6050000000011,63.79000000000002 748.5970000000011,66.39300000000001 745.3800000000011,69.18700000000001 741.4920000000007,70.94400000000001 737.5600000000008,72.117 734.446000000001,73.04700000000002 731.2290000000009,73.55200000000002 727.9830000000008,73.55200000000002 H 727.6330000000009 L 716.755000000001,73.44500000000002 C 715.5830000000006,73.42100000000002 714.2000000000009,73.31400000000002 713.217000000001,72.30200000000002 A 4.053,4.053 0 0 1 712.0740000000007,69.50800000000002 C 712.0740000000007,69.32400000000002 712.0980000000007,69.16300000000002 712.1270000000007,68.97800000000002 L 712.1520000000009,50.22200000000002 C 712.1520000000009,47.82800000000003 712.818000000001,45.51200000000002 713.9860000000005,43.40900000000002 715.3980000000009,40.91200000000002 717.3390000000008,38.41100000000002 720.3460000000009,37.39900000000002 A 7.706000000000003,7.706000000000003 0 0 1 723.0040000000009,36.94600000000002 C 725.6660000000008,36.94600000000002 728.2210000000009,38.11900000000002 730.4790000000009,39.31600000000002 732.6640000000005,40.48400000000003 734.3680000000008,42.29400000000002 735.9890000000009,43.99800000000002 736.8110000000009,44.87400000000002 737.3700000000009,45.91000000000002 737.9060000000007,46.86800000000003 738.650000000001,48.19800000000002 739.3120000000009,49.39900000000002 740.4310000000009,50.19300000000002 742.4810000000009,51.60400000000002 744.9280000000009,52.56300000000002 747.2690000000009,52.56300000000002 748.9190000000005,52.56300000000002 750.5390000000005,52.08600000000002 751.9510000000009,50.96700000000002 753.9170000000009,49.42400000000002 754.6610000000008,47.24400000000002 754.6610000000008,44.84900000000001 754.6610000000008,42.90700000000001 754.1600000000006,40.85900000000001 753.3860000000006,39.02400000000001 752.1360000000006,35.93400000000001 749.182000000001,34.04500000000001 746.2810000000007,32.21100000000001 746.2030000000006,32.15700000000001 746.125000000001,32.10400000000002 746.0430000000009,32.07900000000001 741.7360000000005,29.339 736.6790000000006,28.30300000000001 731.5990000000009,28.30300000000001 729.895000000001,28.30300000000001 728.2210000000009,28.40500000000001 726.5470000000009,28.61900000000001 718.1670000000009,29.63100000000001 710.4780000000007,33.64600000000001 704.9980000000009,40.03100000000002 701.3780000000009,44.26100000000001 699.2510000000006,49.44800000000001 697.7610000000006,54.77200000000001 697.0410000000008,57.37600000000001 696.9100000000006,60.06200000000001 696.803000000001,62.80200000000001 696.696000000001,65.012 696.6180000000008,67.275 696.1650000000006,69.48399999999999 A 4.394000000000001,4.394000000000001 0 0 0 696.0830000000006,70.36000000000001 C 696.029000000001,70.99700000000001 696.005000000001,71.84999999999999 695.4450000000008,72.48699999999999 A 3.397,3.397 0 0 1 692.8650000000009,73.659 C 692.6270000000007,73.659 692.3890000000009,73.62999999999999 692.1450000000005,73.60599999999999 L 685.0690000000007,73.73699999999999 C 683.1810000000008,73.79100000000001 681.5850000000008,75.227 681.5610000000008,77.066 V 77.11499999999999 C 681.5610000000008,79.05600000000001 683.0500000000007,80.575 684.9620000000004,80.575 H 691.3770000000007 C 692.4370000000003,80.575 693.8770000000007,80.599 694.8850000000004,81.558 696.0050000000004,82.62399999999999 695.9750000000008,84.22000000000001 695.9750000000008,85.31 V 85.388 L 696.0050000000004,117.473 Z" id="path10" />
</g>
</svg>
