<?xml version="1.0" encoding="UTF-8" standalone="no"?>
<svg xmlns:dc="http://purl.org/dc/elements/1.1/" xmlns:cc="http://creativecommons.org/ns#" xmlns:rdf="http://www.w3.org/1999/02/22-rdf-syntax-ns#" xmlns:svg="http://www.w3.org/2000/svg" xmlns="http://www.w3.org/2000/svg" viewBox="0 -0.3 700 139.7608370702541" width="2500" height="500" version="1.1" id="svg26">
<metadata id="metadata32">
<rdf:RDF>
<cc:Work rdf:about="">
<dc:format>image/svg+xml</dc:format>
<dc:type rdf:resource="http://purl.org/dc/dcmitype/StillImage" />
<dc:title></dc:title>
</cc:Work>
</rdf:RDF>
</metadata>
<defs id="defs30" />
<g id="g894" transform="matrix(0.7373695158670607,0,0,0.7373695158670608,91.92066944652874,0.8575796563169859)">
<path d="M 0,124.7 36,103.7 V 186.7 L 0,166.7 Z" fill="#e32e27" id="path2" />
<path d="M 0,41.7 36,62.7 V 103.7 L 0,124.7 Z M 72,124.7 108,144.7 36,186.7 V 144.7 Z" fill="#ef382c" id="path4" />
<g id="g866">
<path d="M 108,103.7 V 144.7 L 72,124.7 Z" fill="#f26c65" id="path6" />
<path d="M 72,41.7 108,62.7 72,82.7 Z" fill="#f7a9a7" id="path8" />
<path d="M 108,20.7 V 62.7 L 72,41.7 Z" fill="#f26b65" id="path10" />
<path d="M 72,82.7 V 124.7 L 108,103.7 Z" fill="#f7a9a7" id="path12" />
<path d="M 36,103.7 72,124.7 V 82.7 Z" fill="#fbcbc8" id="path14" />
<path d="M 72,-0.3 V 41.7 L 108,20.7 Z" fill="#ef382c" id="path16" />
<path d="M 36,20.7 0,41.7 36,62.7 72,41.7 V -0.2999999999999971 Z" fill="#e32e27" id="path18" />
<path d="M 36,103.7 72,124.7 36,144.7 Z" fill="#fdeaea" id="path20" />
<path d="M 226.4,110 C 228.9,113.3 230.1,117.4 230.1,122.2 230.1,128.9 227.8,134.2 223.1,137.9 218.5,141.6 212,143.5 203.7,143.5 H 170 V 65.29999999999998 H 202.6 C 210.6,65.29999999999998 216.9,67.09999999999999 221.4,70.7 225.9,74.30000000000001 228.1,79.29999999999998 228.1,85.79999999999998 228.1,90 227,93.59999999999999 224.9,96.59999999999999 222.7,99.59999999999999 219.7,101.9 215.9,103.3 220.4,104.5 223.9,106.7 226.4,110 Z M 181.2,99.29999999999998 H 200.9 C 211.8,99.29999999999998 217.2,95.09999999999999 217.2,86.7 217.2,78.59999999999999 211.8,74.5 200.9,74.5 H 181.2 Z M 215.1,131.3 C 217.7,129.2 219,126 219,121.6 219,117.1 217.7,113.8 215,111.7 212.3,109.5 208.2,108.5 202.6,108.5 H 181.1 V 134.6 H 202.6 C 208.3,134.4 212.5,133.4 215.1,131.3 Z M 239.6,143.6 V 62.7 H 250.5 V 143.6 Z M 312.8,88.20000000000001 V 143.6 H 301.9 V 134.1 C 300.3,137.4 297.9,139.9 294.7000000000001,141.7 291.5000000000001,143.5 287.8000000000001,144.3 283.6,144.3 278.7000000000001,144.3 274.4,143.1 270.7000000000001,140.8 267.0000000000001,138.5 264.1,135.1 262.1,130.9 260.1,126.6 259,121.6 259,115.9 259,110.2 260,105.1 262.1,100.7 264.2000000000001,96.29999999999998 267.1,92.9 270.8,90.5 274.5,88.09999999999999 278.8,86.9 283.5,86.9 287.7,86.9 291.4,87.80000000000001 294.6,89.59999999999999 297.7000000000001,91.4 300.1,93.9 301.8,97.2 V 88.2 Z M 297.8,130.3 C 300.5,126.8 301.9,121.9 301.9,115.6 301.9,109.2 300.5000000000001,104.3 297.8,100.9 295.1,97.5 291.2,95.7 286.1,95.7 281.1,95.7 277.3,97.5 274.4,101 271.6,104.6 270.2000000000001,109.5 270.2000000000001,115.8 270.2000000000001,122 271.6,126.9 274.4,130.3 277.2000000000001,133.7000000000001 281.1,135.5 286.2000000000001,135.5 291.2000000000001,135.5 295.1,133.8 297.8,130.3 Z M 375.1,62.70000000000002 V 143.6 H 364.2000000000001 V 134.1 C 362.6,137.4 360.2000000000001,139.9 357.0000000000001,141.7 353.8000000000001,143.5 350.1000000000001,144.3 345.9,144.3 341.2000000000001,144.3 336.9,143.1 333.2000000000001,140.7 329.5000000000001,138.3 326.6,134.9 324.5000000000001,130.5 322.4000000000001,126.1000000000001 321.4,121.1 321.4,115.4 321.4,109.7000000000001 322.4,104.7 324.5000000000001,100.3 326.5000000000001,96.00000000000004 329.4,92.60000000000003 333.1000000000001,90.30000000000002 336.8000000000001,88.00000000000004 341.1000000000001,86.80000000000002 346.0000000000001,86.80000000000002 350.2000000000001,86.80000000000002 353.8000000000001,87.70000000000004 357.0000000000001,89.40000000000003 360.2000000000001,91.20000000000003 362.6000000000001,93.70000000000003 364.2000000000001,96.90000000000003 V 62.7 Z M 360.1,130.3 C 362.8,126.8 364.2000000000001,121.9 364.2000000000001,115.6 364.2000000000001,109.3 362.8000000000001,104.4 360.1,100.9 357.4,97.4 353.5,95.7 348.6,95.7 343.6,95.7 339.6,97.4 336.8,100.9 334,104.3 332.6,109.2 332.6,115.4 332.6,121.7 334,126.6 336.8,130.2 339.6,133.8 343.5,135.5 348.5,135.5 353.4,135.5 357.3,133.8 360.1,130.3 Z M 434,116.4 H 394.6 C 395,129.4 400.8,135.9 412.2000000000001,135.9 418.5000000000001,135.9 424.3000000000001,133.8 429.6,129.6 L 433,137.5 C 430.5,139.7 427.4,141.4 423.5,142.7 419.6,144 415.8,144.6 412,144.6 403.2,144.6 396.2,142.1 391.2,137 386.2,131.9 383.6,124.9 383.6,116.1 383.6,110.5 384.7,105.4 386.9,101 389.1,96.59999999999999 392.2,93.2 396.3,90.79999999999998 400.3,88.39999999999999 404.9,87.2 410,87.2 417.3999999999999,87.2 423.3,89.59999999999999 427.6,94.5 431.9,99.29999999999998 434,106 434,114.6 Z M 400.1,99.2 C 397.5,101.7 395.8,105.2 395.1,109.9 H 424.3 C 423.9,105.2 422.4,101.6 420,99.2 417.6,96.7 414.3,95.5 410.3,95.5 406.1,95.4 402.7,96.7 400.1,99.2 Z" fill="#010101" id="path22" />
</g>
<path d="M 539.7,66.4 H 557.2999999999999 V 143.5 H 539.7 Z M 509,113.8 C 509,123.7 504.4,128.7 495.3,128.7 486.2000000000001,128.7 481.6,123.9 481.6,114.4 V 66.39999999999999 H 464 V 114.4 C 464,124 466.9,131.4 472.6,136.7 478.3000000000001,142 485.9,144.6 495.3,144.6 504.9,144.6 512.5,142 518.1,136.7 523.7,131.4 526.6,123.7 526.6,113.7 V 66.4 H 509 Z M 640.1,143.5 H 656.7999999999999 V 85.5 H 640.1 Z M 686,85.5 V 62.7 H 669.2999999999999 V 143.6 H 686 V 97.79999999999998 H 700 V 85.5 Z M 634,85.5 H 615.6 L 595.7999999999999,112 V 66.4 H 578.1999999999999 V 143.5 H 595.7999999999999 V 117.3 L 616.5,143.5 H 635.8999999999997 L 611.8999999999997,114.5 Z" fill="#ef382c" id="path24" />
</g>
</svg>
