<?xml version="1.0" encoding="UTF-8" standalone="no"?>
<svg xmlns:dc="http://purl.org/dc/elements/1.1/" xmlns:cc="http://creativecommons.org/ns#" xmlns:rdf="http://www.w3.org/1999/02/22-rdf-syntax-ns#" xmlns:svg="http://www.w3.org/2000/svg" xmlns="http://www.w3.org/2000/svg" width="2500" height="500" viewBox="5.749 89.122 1149.031 230.0238568588469" version="1.1" id="svg6">
<metadata id="metadata12">
<rdf:RDF>
<cc:Work rdf:about="">
<dc:format>image/svg+xml</dc:format>
<dc:type rdf:resource="http://purl.org/dc/dcmitype/StillImage" />
<dc:title></dc:title>
</cc:Work>
</rdf:RDF>
</metadata>
<defs id="defs10" />
<g fill="#573e7d" id="g4" transform="matrix(0.9514456466924453,0,0,0.9514456466924453,28.17468945800292,9.255506308777611)">
<path d="M 5.752,89.561 C 6.696,89.388 7.47,89.12 8.240999999999999,89.12200000000001 40.057,89.245 71.875,89.19799999999999 103.687,89.64200000000001 114.529,89.79200000000001 124.491,93.617 133.398,99.95699999999999 153.729,114.424 155.607,155.754 127.697,170.579 126.277,171.333 124.863,172.095 122.935,173.125 128.239,175.56 133.457,177.192 137.831,180.097 154.618,191.249 161.455,216.201 153.94,238.117 147.382,257.238 131.812,265.134 113.705,269.334 107.758,270.714 101.53,271.43 95.42200000000002,271.473 65.68100000000002,271.688 35.93800000000003,271.569 5.749000000000024,271.569 5.752000000000024,210.969 5.752000000000024,150.361 5.752,89.561 Z M 37.561,244.895 C 59.681,244.895 81.16299999999999,245.399 102.605,244.713 116.084,244.282 125.824,229.834 125.013,215.781 124.214,201.929 115.684,190.149 102.499,189.5330000000001 81.24199999999999,188.5400000000001 59.92699999999999,188.8210000000001 38.635,188.5990000000001 38.317,188.597 37.994,189.0650000000001 37.56,189.4020000000001 Z M 37.635,164.886 C 57.406,164.886 76.47299999999998,165.606 95.45499999999998,164.647 109.434,163.94 117.324,152.763 116.801,137.484 116.338,123.956 108.35,115.82 93.96899999999999,115.44 75.93799999999997,114.967 57.887,115.186 39.84300000000001,115.144 39.109,115.142 38.374,115.538 37.635,115.748 Z M 1023.55,139.882 H 1050.071 V 154.096 C 1053.024,151.819 1056.62,149.29 1059.938,146.441 1080.258,129.001 1128.458,131.141 1144.954,166.262 1159.149,196.488 1158.532,226.885 1139.37,255.025 1128.757,270.611 1112.323,276.181 1093.708,275.179 1077.534,274.306 1063.294,269.222 1052.089,254.248 V 320.525 H 1023.552 C 1023.55,260.2570000000001 1023.55,200.241 1023.55,139.882 Z M 1050.492,206.438 C 1051.687,213.057 1052.344,219.835 1054.191,226.268 1058.314,240.624 1070.869,251.24 1083.873,252.157 1101.268,253.384 1113.76,246.957 1120.047,231.535 1128.039,211.936 1127.756,192.17 1116.076,173.853 1102.301,152.246 1069.289,154.052 1057.615,176.687 1052.81,186.005 1050.458,195.812 1050.492,206.438 Z M 1004.761,252.715 C 1004.761,258.132 1004.952,263.633 1004.622,269.106 1004.542,270.457 1002.847,272.739 1001.749,272.833 993.4779999999999,273.522 985.0709999999999,274.728 976.9049999999997,273.876 969.7059999999999,273.124 965.7389999999998,267.022 963.5199999999997,259.966 946.4299999999998,273.879 926.8319999999996,276.888 905.9849999999994,274.305 888.5509999999999,272.146 874.1099999999994,257.831 872.8679999999999,241.937 871.1529999999999,220.031 879.5689999999998,205.7669999999999 899.2389999999999,200.574 913.0339999999996,196.934 927.4029999999999,195.471 941.5099999999996,193.012 944.9319999999999,192.4159999999999 948.3949999999997,191.93 951.7369999999998,191.0159999999999 958.1569999999998,189.2639999999999 962.7879999999995,185.7099999999999 963.2579999999998,178.4019999999999 963.7439999999998,170.8479999999999 960.8149999999998,164.9619999999999 953.7149999999998,162.1029999999999 941.5979999999998,157.2279999999999 929.2619999999998,157.3489999999999 917.3319999999996,162.9309999999999 911.8889999999995,165.4769999999999 908.6559999999997,170.6009999999999 905.8049999999997,179.3039999999999 H 877.85 C 877.873,168.6469999999999 881.5819999999996,159.6899999999999 888.6609999999999,152.1489999999999 898.013,142.1869999999999 910.2,138.2759999999999 923.3269999999995,136.9029999999999 937.067,135.4659999999999 950.729,135.5299999999999 964.0769999999995,140.0309999999999 982.028,146.0839999999999 990.624,157.9269999999999 990.5979999999999,176.8869999999999 990.5729999999997,197.0129999999999 990.5899999999999,217.1389999999999 990.586,237.2679999999999 990.5819999999996,251.5519999999999 990.58,251.5519999999999 1004.761,252.715 Z M 961.5559999999999,207.299 C 952.7449999999995,208.825 944.6849999999999,209.995 936.7299999999999,211.659 928.3629999999999,213.409 919.8349999999999,214.925 911.8569999999997,217.847 904.0349999999998,220.713 901.3769999999998,228.023 901.6359999999998,235.873 901.8819999999998,243.378 907.0089999999999,247.583 913.6159999999996,249.892 924.9479999999997,253.851 936.3069999999999,253.363 947.1159999999996,248.308 954.8559999999996,244.687 960.7489999999999,238.767 961.4419999999995,229.722 962.0129999999999,222.1880000000001 961.5559999999999,214.5750000000001 961.5559999999999,207.299 Z M 242.249,136.079 C 286.09,135.564 311.799,167.7 309.087,211.457 308.146,226.666 304.059,240.88 294.048,252.9 283.26,265.851 269.379,272.671 252.738,274.521 238.842,276.0699999999999 225.339,275.16 212.463,269.316 193.288,260.611 182.35,245.42 177.749,225.179 174.594,211.306 174.732,197.491 178.269,183.768 186.072,153.496 209.383,136.197 242.249,136.079 Z M 204.086,205.907 C 205.237,212.33 205.838,218.913 207.645,225.146 212.244,241.015 224.769,251.493 239.089,252.187 256.79,253.045 269.175,245.599 275.753,229.111 282.176,213.015 282.186,196.542 275.144,180.64 264.711,157.081 236.287,151.057 217.984,168.568 207.547,178.552 204.853,191.819 204.086,205.907 Z M 394.354,136.081 C 433.896,136.019 460.801,162.665 461.301,202.298 461.513,219.033 458.787,234.991 448.963,249.01 434.901,269.08 414.5889999999999,276.102 391.204,275.037 382.588,274.644 373.656,272.73 365.626,269.578 346.772,262.177 335.53,247.605 330.534,228.101 326.149,210.974 326.637,193.955 332.215,177.215 340.77,151.537 364.238,136.126 394.354,136.081 Z M 432.255,202.348 C 431.617,198.833 430.988,192.041 429.093,185.621 424.276,169.293 411.545,159.38 395.505,158.683 380.399,158.025 366.812,166.932 360.953,182.531 354.052,200.904 354.56,219.205 364.958,236.324 375.79,254.158 400.345,258.066 416.449,244.76 428.7359999999999,234.607 431.742,220.589 432.255,202.348 Z M 676.7359999999996,176.492 C 667.7129999999998,176.492 658.9249999999999,176.566 650.144,176.398 649.062,176.378 647.378,175.294 647.0289999999996,174.323 642.091,160.607 630.4719999999997,158.976 618.4569999999996,158.907 613.475,158.877 608.1739999999997,160.09 603.561,162.025 593.7019999999995,166.161 592.6059999999996,177.316 601.846,182.659 608.2559999999997,186.366 615.782,188.357 623.0119999999999,190.393 633.2419999999998,193.274 643.8030000000001,195.009 653.9669999999996,198.08 679.9550000000001,205.935 690.1119999999998,231.991 675.5610000000001,253.471 668.5810000000001,263.772 658.1430000000001,269.348 646.1740000000002,272.237 628.4850000000002,276.506 610.873,276.819 593.5860000000002,270.576 575.089,263.893 565.3180000000002,250.481 563.8760000000002,230.18 H 592.1 C 600.125,251.127 622.801,259.285 644.0449999999998,248.581 648.9589999999999,246.103 652.2400000000001,242.58 652.5679999999997,236.788 652.9180000000001,230.598 650.527,225.275 644.9719999999997,223.203 635.0679999999997,219.509 624.724,216.976 614.556,213.995 606.134,211.525 597.445,209.741 589.3179999999997,206.525 573.6399999999996,200.316 566.8279999999997,189.634 566.9239999999997,173.349 567.0079999999999,159.145 575.3109999999999,146.975 590.033,141.637 610.2949999999998,134.29 630.974,133.376 651.326,141.349 665.086,146.739 673.287,157.369 676.697,171.681 677.0049999999996,173.002 676.7359999999996,174.466 676.7359999999996,176.492 Z M 523.5009999999997,139.515 H 549.624 V 160.876 H 524.0259999999999 C 523.845,163.434 523.6119999999998,165.224 523.609,167.013 523.5839999999999,188.574 523.5739999999999,210.134 523.619,231.691 523.624,234.56 523.846,237.437 524.129,240.295 524.691,245.996 527.8559999999996,249.382 533.596,249.694 538.8559999999996,249.983 544.1449999999997,249.756 549.715,249.756 V 271.115 C 537.7839999999996,274.0679999999999 525.658,273.912 513.9189999999997,271.297 500.25,268.253 494.697,258.848 494.577,241.046 494.412,216.818 494.528,192.586 494.523,168.356 V 161.233 H 472.827 V 139.628 H 494.23 V 100.066 H 523.504 C 523.5009999999997,113.007 523.5009999999997,125.853 523.5009999999997,139.515 Z M 767.8099999999999,271.938 C 756.5699999999999,271.938 745.9289999999997,272.288 735.3239999999999,271.838 725.0449999999998,271.402 717.1289999999999,264.585 714.8829999999999,254.411 A 86.37999999999999,86.37999999999999 0 0 1 712.8599999999994,236.749 C 712.6329999999999,213.954 712.7659999999998,191.153 712.7659999999998,168.355 V 161.146 H 691.1409999999998 V 139.827 H 712.4439999999998 V 100.104 H 741.7739999999995 V 139.183 H 767.7719999999999 V 160.657 H 742.8249999999999 C 742.5279999999999,162.592 742.1389999999995,163.93 742.1389999999995,165.271 742.1179999999999,188.48 742.0429999999995,211.689 742.1939999999998,234.896 742.2739999999995,247.17 745.4869999999998,250.124 757.6529999999994,250.037 760.9029999999994,250.016 764.1569999999998,250.0349999999999 767.8109999999998,250.0349999999999 Z M 816.5969999999997,139.956 V 162.431 C 827.8609999999996,143.308 843.4489999999999,133.343 866.47,136.74 V 164.467 C 855.5339999999996,162.823 844.9859999999996,162.53 835.644,169.243 823.3899999999996,178.052 819.1109999999996,190.924 818.806,205.113 818.335,227.048 818.6829999999996,249.003 818.6829999999996,271.429 H 789.956 V 139.954 C 798.658,139.956 807.177,139.956 816.5969999999997,139.956 Z" id="path2" />
</g>
</svg>
