<?xml version="1.0" encoding="UTF-8" standalone="no"?>
<svg xmlns:dc="http://purl.org/dc/elements/1.1/" xmlns:cc="http://creativecommons.org/ns#" xmlns:rdf="http://www.w3.org/1999/02/22-rdf-syntax-ns#" xmlns:svg="http://www.w3.org/2000/svg" xmlns="http://www.w3.org/2000/svg" height="700" viewBox="15 7.979 190 52.12749576988156" width="2500" version="1.1" id="svg6">
<metadata id="metadata12">
<rdf:RDF>
<cc:Work rdf:about="">
<dc:format>image/svg+xml</dc:format>
<dc:type rdf:resource="http://purl.org/dc/dcmitype/StillImage" />
<dc:title></dc:title>
</cc:Work>
</rdf:RDF>
</metadata>
<defs id="defs10" />
<g id="g839" transform="matrix(0.5955066672992192,0,0,0.5955066672992192,44.49426659708588,3.08265400538802)">
<path d="M 195.212,50.172 C 188.432,50.172 184.092,54.109 184.092,60.83100000000001 184.092,67.34999999999999 188.834,70.94399999999997 195.212,70.94399999999997 202.102,70.94399999999997 205,68.28999999999999 205,68.08499999999999 V 59.16499999999999 H 195.52 V 62.41199999999999 H 201.444 V 66.36599999999998 C 199.473,67.78399999999999 195.212,67.54299999999999 195.212,67.54299999999999 191.279,67.54299999999999 187.651,65.85999999999998 187.651,60.83099999999999 187.651,56.37099999999999 190.915,53.57499999999999 195.212,53.57499999999999 198.336,53.57499999999999 200.573,54.41499999999999 201.788,55.15599999999999 L 203.251,52.01299999999999 C 201.641,51.09299999999999 198.901,50.17199999999999 195.212,50.172 Z M 15,50.519 V 70.686 H 27.73 C 33.20600000000001,70.686 34.44,67.68400000000001 34.44,64.50799999999999 34.44,62.91400000000001 33.576,60.89400000000001 31.543,60.05800000000001 32.89500000000001,59.06200000000001 33.318,57.79300000000002 33.318,56.15200000000001 33.318,52.08900000000001 31.124,50.51900000000001 26.416,50.51900000000001 Z M 174.362,50.525 V 64.26999999999999 L 162.38,50.902 162.056,50.545 H 159.266 V 70.703 H 162.822 V 56.74 L 175.362,70.694 H 177.918 V 50.52500000000001 Z M 66.19599999999998,50.538 V 70.68199999999997 H 83.206 V 67.27999999999998 H 69.754 V 62.25999999999999 H 79.5 V 59.00999999999999 H 69.75499999999999 V 53.93999999999999 H 83.18599999999999 V 50.53999999999999 Z M 99.876,50.538 V 53.938 H 107.389 V 70.69999999999997 H 110.945 V 53.93999999999999 H 118.458 V 50.53999999999999 Z M 89.74099999999998,50.542 V 70.68199999999997 H 93.29699999999999 V 50.54199999999999 Z M 40.991,50.545 V 70.703 H 44.549 V 62.39500000000001 L 49.823,62.39700000000001 55.025,70.68700000000001 H 59.221 L 53.825,62.39700000000001 C 56.849,62.15400000000001 59.396,60.33400000000001 59.396,56.42700000000002 59.396,51.59300000000002 55.637,50.54500000000003 52.14099999999999,50.54500000000003 H 40.99 Z M 125.291,50.545 V 70.70799999999998 H 140.992 V 67.30499999999999 H 128.846 V 50.54499999999999 Z M 146.756,50.545 V 70.703 H 150.314 V 50.545 Z M 18.482,53.705 H 26.28 C 28.43,53.705 29.806,54.565 29.806,56.231 29.806,57.225 29.516,58.949 27.079,58.949 L 18.482,58.947 Z M 44.549,53.795 H 52.188 C 53.53500000000001,53.795 55.85,54.152 55.85,56.70600000000001 55.85,58.856 53.747,59.149 52.16600000000001,59.149 L 44.54900000000001,59.147 Z M 18.482,62.13500000000001 H 27.249 C 29.162,62.13500000000001 30.805,62.55600000000001 30.805,64.83799999999999 30.805,67.102 28.868,67.50300000000001 27.73,67.50300000000001 H 18.482 Z M 97.61299999999998,80.513 C 95.16599999999999,80.513 93.31699999999999,81.13299999999999 92.265,82.301 91.569,83.075 91.259,84.052 91.37099999999999,85.123 91.43499999999997,85.748 91.69299999999998,86.66300000000001 92.56299999999997,87.48099999999999 L 92.86799999999999,87.77000000000001 92.52799999999999,88.019 C 92.26799999999998,88.206 92.05699999999997,88.38900000000001 91.88499999999999,88.57899999999999 91.12099999999999,89.409 90.77499999999999,90.49899999999999 90.88199999999999,91.72900000000001 91.06099999999999,93.793 92.91799999999999,96.00000000000001 97.60099999999998,96.00000000000001 H 97.61299999999998 C 102.293,96.00000000000001 104.154,93.79300000000002 104.335,91.72900000000001 104.439,90.49599999999999 104.092,89.40900000000002 103.333,88.57899999999999 A 4.209,4.209 0 0 0 102.696,88.024 L 102.353,87.774 102.66,87.48699999999999 C 103.535,86.66599999999999 103.794,85.74799999999999 103.858,85.12299999999999 103.971,84.05299999999998 103.66,83.07499999999997 102.96,82.30099999999997 101.91,81.13199999999999 100.06,80.51299999999999 97.61299999999998,80.513 Z M 113.153,80.513 C 110.705,80.513 108.857,81.13299999999999 107.806,82.301 107.108,83.075 106.797,84.04999999999998 106.908,85.123 A 3.74,3.74 0 0 0 108.1,87.48099999999999 L 108.409,87.77000000000001 108.068,88.019 C 107.806,88.206 107.595,88.38900000000001 107.423,88.57899999999999 106.661,89.409 106.314,90.49899999999999 106.42,91.72900000000001 106.6,93.793 108.46,96.00000000000001 113.14,96.00000000000001 H 113.152 C 117.832,96.00000000000001 119.692,93.79300000000002 119.873,91.72900000000001 119.978,90.49400000000001 119.631,89.40700000000001 118.871,88.581 A 4.116,4.116 0 0 0 118.235,88.02400000000001 L 117.892,87.77400000000001 118.201,87.48699999999999 C 119.075,86.66400000000001 119.332,85.748 119.398,85.123 119.509,84.048 119.196,83.07299999999999 118.498,82.301 117.447,81.132 115.6,80.513 113.152,80.513 Z M 84.70999999999999,80.917 V 95.73699999999999 H 87.57599999999999 V 80.917 Z M 126.205,80.917 121.959,90.167 121.939,92.74899999999999 H 130.368 V 95.72799999999999 H 132.958 V 92.74799999999999 H 134.65 V 90.15999999999999 H 132.958 V 80.917 Z M 97.61299999999998,83.10099999999998 C 99.25899999999998,83.10099999999998 100.508,83.441 101.04,84.033 101.247,84.26099999999999 101.321,84.513 101.287,84.85399999999998 101.202,85.661 100.033,86.474 97.61299999999998,86.474 95.19599999999998,86.474 94.02799999999999,85.661 93.94499999999996,84.85699999999998 93.90799999999997,84.51399999999999 93.98499999999998,84.259 94.18699999999998,84.031 94.72099999999997,83.43899999999999 95.96999999999998,83.10099999999998 97.61299999999998,83.10099999999998 Z M 113.153,83.10099999999998 C 114.796,83.10099999999998 116.045,83.441 116.579,84.033 116.785,84.26099999999999 116.86,84.513 116.824,84.85399999999998 116.741,85.661 115.572,86.474 113.153,86.474 110.735,86.474 109.568,85.661 109.481,84.85699999999998 109.447,84.51399999999999 109.524,84.259 109.728,84.031 110.26,83.43899999999999 111.508,83.10099999999998 113.153,83.10099999999998 Z M 127.857,83.522 H 130.367 V 90.16000000000001 H 124.809 Z M 97.61299999999998,89.31699999999999 C 98.29,89.31699999999999 100.565,89.39 101.425,90.32899999999999 101.698,90.626 101.8,90.989 101.755,91.50499999999999 101.635,92.91000000000001 99.52899999999999,93.41000000000001 97.60099999999998,93.41000000000001 95.679,93.41000000000001 93.581,92.91000000000001 93.459,91.50499999999999 93.415,90.98999999999999 93.516,90.626 93.789,90.32899999999999 94.379,89.686 95.772,89.31699999999999 97.61299999999998,89.31699999999999 Z M 113.153,89.31699999999999 C 113.829,89.31699999999999 116.102,89.39 116.962,90.32899999999999 117.236,90.626 117.339,90.98800000000001 117.294,91.50499999999999 117.173,92.91000000000001 115.068,93.41000000000001 113.14,93.41000000000001 111.218,93.41000000000001 109.12,92.91000000000001 109,91.50300000000001 108.953,90.98999999999999 109.055,90.629 109.33,90.32899999999999 109.908,89.69600000000001 111.34,89.31699999999999 113.153,89.31699999999999 Z" fill="#07213f" id="path2" />
<path d="M 112.878,24.822 C 111.826,24.175 112.858,23.207 113.838,23.207 115.406,23.207 116.83,24.573 116.83,24.573 116.83,24.573 114.116,25.586 112.878,24.822 M 98.28799999999999,38.471 C 94.65999999999999,39.441 95.62199999999998,31.477 100.229,25.114 104.924,18.631 108.606,16.684 108.606,16.684 107.81,26.152 102.156,37.434 98.28799999999999,38.471 M 120.903,12.744 C 118.593,11.65 115.323,12.197 112.339,13.287 L 112.331,13.277 C 112.556,9.172999999999994 111.924,7.978999999999996 111.924,7.978999999999996 L 108.525,8.929999999999996 C 108.525,8.929999999999996 108.975,11.312 108.751,14.987 H 108.753 C 99.917,20.1 93.962,28.65 92.32099999999998,34.4 90.53099999999999,40.662 95.521,42.79 99.72299999999998,39.708 110.092,32.098 112.199,14.78 112.199,14.78 115.323,13.824 117.811,14.337 119.273,15.597 122.947,18.762 118.179,23.625 118.179,23.625 118.179,23.625 116.951,22.186 114.627,21.975 110.913,21.641 109.027,26.102 113.955,26.579 114.778,26.658 116.965,26.343 117.779,25.94 118.603,27.466 118.354,34.536 113.582,36.62600000000001 109.296,38.50400000000001 107.706,35.86900000000001 107.706,35.86900000000001 107.572,35.86900000000001 105.395,38.73300000000001 105.531,38.99900000000001 105.531,38.99900000000001 107.801,42.38800000000001 112.78,40.93400000000001 116.707,39.78900000000001 118.596,36.36400000000001 119.601,33.90600000000002 121.278,29.81400000000001 120.069,26.21100000000001 119.421,25.25900000000001 125.948,20.70300000000001 124.99,14.50500000000002 120.904,12.74500000000002" fill="#ffc72c" id="path4" />
</g>
</svg>
