<?xml version="1.0" encoding="UTF-8" standalone="no"?>
<svg xmlns:dc="http://purl.org/dc/elements/1.1/" xmlns:cc="http://creativecommons.org/ns#" xmlns:rdf="http://www.w3.org/1999/02/22-rdf-syntax-ns#" xmlns:svg="http://www.w3.org/2000/svg" xmlns="http://www.w3.org/2000/svg" width="2500" height="500" viewBox="0 0 288.028802880288 57.6" preserveAspectRatio="xMinYMin meet" version="1.1" id="svg14">
<metadata id="metadata20">
<rdf:RDF>
<cc:Work rdf:about="">
<dc:format>image/svg+xml</dc:format>
<dc:type rdf:resource="http://purl.org/dc/dcmitype/StillImage" />
<dc:title></dc:title>
</cc:Work>
</rdf:RDF>
</metadata>
<defs id="defs18" />
<g id="g851" transform="matrix(0.1868748365557545,0,0,0.1868748365557545,120.1334792018476,1.912725075704627)">
<path d="M 255.569,84.71999999999998 C 255.567,79.89 254.534,75.62199999999998 252.445,71.959 250.393,68.35699999999998 247.32,65.33799999999999 243.198,62.95100000000001 209.173,43.33200000000001 175.115,23.77300000000001 141.101,4.13400000000001 131.931,-1.159999999999992 123.04,-0.9669999999999925 113.938,4.403000000000008 100.395,12.39 32.59000000000001,51.237 12.385,62.94 4.064,67.757 0.015,75.129 0.013,84.71099999999998 0,124.166 0.013,163.62 0,203.076 0.002,207.8 0.991,211.985 2.988,215.593 5.041000000000003,219.304 8.157,222.406 12.374,224.847 32.58,236.55 100.394,275.394 113.934,283.383 123.04,288.756 131.931,288.948 141.104,283.652 175.119,264.012 209.179,244.454 243.209,224.835 247.426,222.395 250.542,219.291 252.595,215.583 254.589,211.975 255.58,207.79 255.582,203.065 255.582,203.065 255.582,124.176 255.569,84.71999999999997" fill="#5c8dbc" id="path2" />
<path d="M 128.182,143.509 2.988,215.593 C 5.041000000000003,219.304 8.157,222.406 12.374,224.847 32.58,236.55 100.394,275.394 113.934,283.383 123.04,288.756 131.931,288.948 141.104,283.652 175.119,264.012 209.179,244.454 243.209,224.835 247.426,222.395 250.542,219.291 252.595,215.583 L 128.182,143.509" fill="#1a4674" id="path4" />
<path d="M 91.10099999999998,164.861 C 98.38599999999999,177.579 112.081,186.157 127.791,186.157 143.598,186.157 157.371,177.47 164.619,164.616 L 128.182,143.509 91.10100000000001,164.861" fill="#1a4674" id="path6" />
<path d="M 255.569,84.71999999999998 C 255.567,79.89 254.534,75.62199999999998 252.445,71.959 L 128.182,143.509 252.595,215.583 C 254.589,211.975 255.58,207.79 255.582,203.065 255.582,203.065 255.582,124.176 255.569,84.72000000000001" fill="#1b598e" id="path8" />
<path d="M 248.728,148.661 H 239.006 V 158.385 H 229.282 V 148.661 H 219.561 V 138.94 H 229.282 V 129.218 H 239.006 V 138.94 H 248.728 V 148.661 M 213.253,148.661 H 203.532 V 158.385 H 193.81 V 148.661 H 184.088 V 138.94 H 193.81 V 129.218 H 203.532 V 138.94 H 213.253 V 148.661" fill="#ffffff" id="path10" />
<path d="M 164.619,164.616 C 157.371,177.47 143.598,186.157 127.791,186.157 112.081,186.157 98.38599999999999,177.579 91.10099999999998,164.861 A 42.062,42.062 0 0 1 85.527,143.893 C 85.527,120.552 104.45,101.63 127.791,101.63 143.4,101.63 157.023,110.101 164.344,122.689 L 201.285,101.417 C 186.602,76.07100000000002 159.189,59.01900000000003 127.791,59.01900000000003 80.91499999999999,59.01900000000003 42.916,97.01900000000003 42.916,143.893 42.916,159.271 47.007,173.692 54.157,186.131 68.80299999999998,211.611 96.29399999999999,228.768 127.791,228.768 159.346,228.768 186.88,211.542 201.505,185.987 L 164.619,164.616" fill="#ffffff" id="path12" />
</g>
</svg>
