<?xml version="1.0" encoding="UTF-8" standalone="no"?>
<svg xmlns:dc="http://purl.org/dc/elements/1.1/" xmlns:cc="http://creativecommons.org/ns#" xmlns:rdf="http://www.w3.org/1999/02/22-rdf-syntax-ns#" xmlns:svg="http://www.w3.org/2000/svg" xmlns="http://www.w3.org/2000/svg" width="2500" height="500" viewBox="0 0 28.72666396103896 5.7458" version="1.1" id="svg10">
<metadata id="metadata16">
<rdf:RDF>
<cc:Work rdf:about="">
<dc:format>image/svg+xml</dc:format>
<dc:type rdf:resource="http://purl.org/dc/dcmitype/StillImage" />
<dc:title></dc:title>
</cc:Work>
</rdf:RDF>
</metadata>
<defs id="defs14" />
<g id="g851" transform="translate(-1.969300899585921)">
<g id="g844" transform="matrix(0.2372533781690567,0,0,0.2372533781690568,2.646465854308385,0.2269316999695937)">
<path d="M 11.21,20.789 C 11.156,19.584 12.096,18.643 12.096,18.603 L 17.89,12.755 17.877,22.304 H 11.21 Z" fill="#cf4037" id="path2" />
<path d="M 22.034,8.596999999999999 C 21.498,9.147 21.163,9.964999999999999 21.229,10.542 V 22.305 H 27.922 V 2.669 Z M 5.577,0 H 25.521 L 19.834,5.646 A 2.805,2.805 0 0 1 17.755,6.612 L 5.575999999999999,6.666000000000003 V 0 Z" fill="#397db7" id="path4" />
<path d="M 5.443,16.698 5.577,10.126 15.435,10.072 9.653999999999998,15.813 C 9.237999999999999,16.376 8.513999999999999,16.738 7.696,16.738 7.67,16.739 5.443,16.698 5.443,16.698 Z" fill="#cf4037" id="path6" />
</g>
<path d="M 10.90969491534012,1.861208497712778 C 11.09870338767685,1.60048404473767 11.35004444131607,1.483861795849058 11.70996483012747,1.483861795849058 12.16841091196543,1.483861795849058 12.45594507732873,1.726489692962143 12.57256732621733,2.184935774800109 H 13.44455322164308 C 13.40970059553844,1.915498165298848 13.32860121556418,1.654773712323759 13.17578585495152,1.438955527598849 A 1.548260890417716,1.548260890417716 0 0 0 12.56452441250089,0.9262197781748099 2.016090371591555,2.016090371591553 0 0 0 11.65634540535109,0.7191147499760697 C 11.38690779584983,0.737211305838089 11.12618334287472,0.7734044175621437 10.89226860228781,0.872600353398441 10.66773726103676,0.9536997333726922 10.46934538936418,1.097131694649491 10.29039055917304,1.28546992417649 10.14628835508655,1.447668684125016 10.00218615100004,1.672200025376068 9.921757013835479,1.924211321825017 9.822561077999193,2.166839218938088 9.777654809748995,2.436947071249056 9.768271410413126,2.742577792474373 V 2.796867460060443 C 9.768271410413126,2.850486884836828 9.7508450973608,2.886009753751175 9.7508450973608,2.913489708949055 9.7508450973608,3.308932966674796 9.813847921473044,3.650756799624162 9.930470170361653,3.938290964987445 9.957950125559541,3.992580632573528 9.975376438611867,4.046200057349899 10.00218615100004,4.091776568409819 10.17309806747473,4.397407289635133 10.39762940872578,4.640035186748207 10.68583381689878,4.79285054736087 10.97403822507177,4.945665907973523 11.29709525934941,5.026765287947783 11.65634540535109,5.026765287947783 11.99816923830046,5.026765287947783 12.28570340366376,4.955049307309391 12.537044457303,4.820330502558769 12.77967235441607,4.684941454998416 12.98677738261481,4.514699781333433 13.13959274322745,4.280785040746519 13.2025955673397,4.172875948384065 13.25621499211607,4.056253699495465 13.31050465970214,3.938961207797149 13.36479432728822,3.804242403046517 13.40970059553843,3.669523598295885 13.44522346445277,3.516708237683237 H 12.57323756902704 A 1.126007920303794,1.126007920303793 0 0 1 12.39361249602619,3.938961207797149 C 12.23141373607768,4.163492549048219 11.98007268243844,4.280785040746519 11.63891909229878,4.280785040746519 11.41438775104773,4.280785040746519 11.23409243523718,4.209069060108117 11.09937363048654,4.092446811219504 A 2.136063834528684,2.136063834528684 0 0 1 10.93784511334773,3.938961207797167 0.9597877034970432,0.9597877034970432 0 0 1 10.75754979753718,3.597807617657501 1.789548301911386,1.789548301911385 0 0 1 10.6315441493127,2.968449619344841 C 10.6315441493127,2.951023306292523 10.6315441493127,2.932926750430489 10.62216074997684,2.932926750430489 10.62216074997684,2.869923926318263 10.62216074997684,2.80692110220603 10.6315441493127,2.743918278093788 10.65835386170088,2.373944247136828 10.74816639820131,2.077026682437668 10.90969491534012,1.861208497712778 Z M 16.35809871542914,2.625285300776069 A 1.211128757136283,1.211128757136283 0 0 0 15.89026923425528,2.01402385832544 C 15.69254760539242,1.861208497712778 15.42310999589115,1.789492517074375 15.06385984988948,1.789492517074375 14.7220360169401,1.789492517074375 14.45259840743884,1.861208497712778 14.22739682337808,2.01402385832544 A 1.15147714707257,1.15147714707257 0 0 0 13.7515244284878,2.571665875999704 C 13.72404447328991,2.625955543585779 13.70661816023759,2.688288124888303 13.68852160437557,2.742577792474373 A 2.457110140377206,2.457110140377206 0 0 0 13.61680562373716,3.327029522536831 C 13.61680562373716,3.55156086378788 13.63490217959918,3.758665891986616 13.67980844784941,3.938290964987458 13.8413369649882,4.630651787412354 14.31787960268821,4.981188776887879 15.1268626740017,4.981188776887879 15.33396770220044,4.981188776887879 15.54040248758946,4.94499566516383 15.71131440406414,4.855183128663402 15.89093947706499,4.792180304551179 16.05246799420381,4.666174656326703 16.16976048590212,4.531455851576073 16.30447929065276,4.396737046825426 16.385578670627,4.208398817298427 16.45796489407511,4.010006945625853 H 15.63892818061607 A 0.5650146885810104,0.5650146885810104 0 0 1 15.44991970827933,4.261347999265083 0.5737278451071711,0.5737278451071706 0 0 1 15.12619243119201,4.360543935101383 C 14.80246515410465,4.360543935101383 14.58664696937977,4.217111973824581 14.47873787701732,3.937620722177752 A 1.181638073509279,1.181638073509278 0 0 1 14.39763849704307,3.560274020314033 H 16.49214727737005 V 3.425555215563408 A 2.365957118257376,2.365957118257375 0 0 0 16.39362158434346,2.741907549664682 C 16.38490842781731,2.697001281414461 16.36681187195529,2.661478412500122 16.35809871542914,2.625285300776069 Z M 14.43383160876711,3.066305069561722 C 14.45192816462913,2.940299421337249 14.47873787701732,2.83239032897481 14.52431438807724,2.742577792474373 14.63222348043967,2.518046451223325 14.81184855344053,2.410137358860881 15.06385984988948,2.410137358860881 15.21667521050214,2.410137358860881 15.36949057111477,2.47314018297311 15.46868650695108,2.590432674671426 15.51292253239157,2.635338942921638 15.5584990434515,2.680245211171846 15.58530875583968,2.743248035284078 15.63959842342575,2.8330605717845 15.66640813581396,2.940969664146952 15.6757915351498,3.066975312371426 H 14.43383160876711 Z M 25.06857427035062,1.915498165298848 C 24.91575890973796,1.825685628798426 24.73613383673712,1.789492517074375 24.51160249548605,1.789492517074375 24.09806268189828,1.789492517074375 23.79243196067298,1.960404433549057 23.58532693247424,2.302228266498425 V 1.879975296384501 H 22.82125012941095 V 4.891376240387457 H 23.62084980138861 V 3.156117606062144 C 23.62084980138861,2.985205689587457 23.65704291311265,2.85987028417269 23.71937549441518,2.742577792474373 A 0.3766764590540073,0.3766764590540072 0 0 1 23.76428176266538,2.661478412500122 C 23.86280745569197,2.526759607749492 24.03371937216666,2.454373384301387 24.24015415755567,2.454373384301387 24.47473914095229,2.454373384301387 24.60945794570293,2.508663051887456 24.68117392634134,2.607188744914033 24.69860023939365,2.652095013164244 24.71669679525567,2.697001281414461 24.72540995178182,2.741907549664682 24.75288990697974,2.831720086165099 24.7616030635059,2.930916022001387 24.7616030635059,3.047538270889981 V 4.890705997577756 H 25.56187297829323 V 2.741907549664682 C 25.55248957895736,2.552899077327958 25.51696671004301,2.391370560189154 25.4445804865949,2.256651755438509 25.36616207785946,2.095123238299704 25.22205987377297,1.995927302463408 25.06857427035062,1.915498165298848 Z M 19.18049118709538,3.345126078398849 A 1.620647113865818,1.620647113865818 0 0 0 18.5518034315924,3.066305069561722 C 18.3178886910055,3.003302245449475 18.07526079389241,2.949682820673109 17.86815576569369,2.895393153087034 17.71534040508103,2.850486884836828 17.61614446924474,2.805580616586616 17.56252504446835,2.742577792474373 A 0.1441022040864974,0.1441022040864974 0 0 1 17.53571533208019,2.661478412500122 C 17.53571533208019,2.454373384301387 17.69724384921901,2.373944247136828 18.02097112630633,2.373944247136828 18.20997959864305,2.373944247136828 18.34469840339368,2.410137358860881 18.43451093989409,2.472469940163409 A 0.507373806946412,0.5073738069464116 0 0 1 18.56922974464472,2.741907549664682 H 19.35140310357004 A 1.463810296394931,1.463810296394931 0 0 0 19.23478085468144,2.319654579550757 C 19.18049118709538,2.184935774800109 19.04577238234474,2.050216970049493 18.83866735414601,1.942307877687039 18.65032912461901,1.843782184660461 18.36212471644599,1.789492517074375 18.0028745704443,1.789492517074375 17.73343696094305,1.789492517074375 17.50890561969198,1.843782184660461 17.32861030388143,1.924211321825017 17.14027207435444,2.01402385832544 17.0048830267941,2.131316350023758 16.91507049029367,2.284131710636403 A 1.356571446842189,1.356571446842189 0 0 0 16.78035168554305,2.742577792474373 V 2.814293773112774 C 16.78035168554305,3.065634826752016 16.8614510655173,3.272739854950754 17.04107613851814,3.389362103839351 17.20327489846667,3.532794065116153 17.39161312799368,3.613893445090414 17.63491126791647,3.668183112676488 17.85072945264136,3.7130893809267 18.09335734975444,3.784805361565083 18.31855893381519,3.830381872625002 A 0.6447735829358629,0.6447735829358625 0 0 1 18.55247367440213,3.938290964987458 C 18.61547649851436,3.983197233237669 18.64228621090255,4.037486900823743 18.64228621090255,4.091776568409819 18.64228621090255,4.17287594838408 18.60609309917851,4.244591929022496 18.51628056267808,4.31630790966088 18.4351811827038,4.37931073377311 18.31855893381519,4.397407289635133 18.12955046147849,4.397407289635133 17.68048777897638,4.397407289635133 17.4820959073038,4.262688484884497 17.4820959073038,3.957057763659184 H 16.68249623532618 C 16.68249623532618,4.145395993186198 16.70930594771436,4.298211353798851 16.78102192835275,4.41550384549717 16.86212130832702,4.550222650247802 16.97003040068945,4.649418586084079 17.10474920544011,4.739231122584516 17.22137145432869,4.820330502558769 17.37418681494136,4.873949927335148 17.56319528727808,4.928239594921223 17.73410720375276,4.955719550119116 17.92244543327975,4.982529262507283 18.12955046147849,4.982529262507283 18.39898807097975,4.982529262507283 18.61547649851436,4.946336150783245 18.82191128390339,4.856523614282821 19.02901631210211,4.775424234308554 19.18116142990507,4.650088828893784 19.2890705222675,4.488560311754985 A 1.005364214556959,1.005364214556959 0 0 0 19.43317272635402,3.939631450606868 V 3.92153489474485 C 19.43250248354431,3.668183112676488 19.35140310357004,3.479844883149488 19.18049118709538,3.345126078398849 Z M 22.17446581804599,3.345126078398849 A 1.506705836216029,1.506705836216029 0 0 0 21.54510781973333,3.066305069561722 C 21.31119307914641,3.003302245449475 21.06923542484303,2.949682820673109 20.87084355317046,2.895393153087034 20.70931503603164,2.850486884836828 20.61011910019535,2.805580616586616 20.55649967541899,2.742577792474373 A 0.1454426897059066,0.1454426897059066 0 0 1 20.52901972022111,2.661478412500122 C 20.52901972022111,2.454373384301387 20.6999316366958,2.373944247136828 21.02365891378311,2.373944247136828 21.20328398678396,2.373944247136828 21.33867303434429,2.410137358860881 21.42848557084472,2.472469940163409 A 0.4564353534088595,0.4564353534088593 0 0 1 21.56320437559536,2.741907549664682 H 22.34537773452067 C 22.32728117865865,2.607188744914033 22.30047146627046,2.454373384301387 22.22808524282237,2.319654579550757 22.17446581804599,2.184935774800109 22.03974701329537,2.050216970049493 21.83264198509661,1.942307877687039 21.65234666928609,1.843782184660461 21.35609934739663,1.789492517074375 21.0055623579211,1.789492517074375 20.72741159189366,1.789492517074375 20.51159340716877,1.843782184660461 20.32258493483207,1.924211321825017 20.13357646249536,2.01402385832544 19.99885765774471,2.131316350023758 19.91775827777048,2.284131710636403 A 1.186329773177211,1.186329773177211 0 0 0 19.77432631649367,2.742577792474373 V 2.814293773112774 C 19.77432631649367,3.065634826752016 19.8641388529941,3.272739854950754 20.03505076946878,3.389362103839351 20.20596268594347,3.532794065116153 20.39430091547047,3.613893445090414 20.62821565605738,3.668183112676488 20.85341724011815,3.7130893809267 21.08733198070508,3.784805361565083 21.31186332195611,3.830381872625002 A 0.6394116404582256,0.6394116404582256 0 0 1 21.54577806254305,3.938290964987458 C 21.60878088665526,3.983197233237669 21.63626084185315,4.037486900823743 21.63626084185315,4.091776568409819 21.63626084185315,4.17287594838408 21.6000677301291,4.244591929022496 21.51896835015484,4.31630790966088 21.42915581365442,4.37931073377311 21.31186332195611,4.397407289635133 21.12352509242911,4.397407289635133 20.68317556645316,4.397407289635133 20.47607053825445,4.262688484884497 20.47607053825445,3.957057763659184 H 19.6764708662768 C 19.6764708662768,4.145395993186198 19.71199373519115,4.298211353798851 19.7749965593034,4.41550384549717 19.86480909580381,4.550222650247802 19.96333478883038,4.649418586084079 20.09805359358101,4.739231122584516 20.21534608527934,4.820330502558769 20.37687460241815,4.873949927335148 20.55716991822868,4.928239594921223 20.72808183470337,4.955719550119116 20.9164200642304,4.982529262507283 21.12352509242911,4.982529262507283 21.39296270193039,4.982529262507283 21.61749404318144,4.946336150783245 21.82459907138017,4.856523614282821 22.02232070024303,4.775424234308554 22.17513606085569,4.650088828893784 22.28371539602786,4.488560311754985 22.38224108905444,4.326361551806455 22.43653075664049,4.155449635331764 22.43653075664049,3.939631450606868 V 3.92153489474485 C 22.4351902710211,3.668183112676488 22.34537773452067,3.479844883149488 22.17446581804599,3.345126078398849 Z M 28.59271096377761,4.63936494393851 A 1.5315048201751,1.5315048201751 0 0 1 28.56590125138943,4.31563766685118 V 2.679574968362145 C 28.56590125138943,2.562282476663827 28.52970813966539,2.418850515387039 28.47608871488901,2.302228266498425 28.43989560316496,2.167509461747796 28.32260311146666,2.050887212859203 28.13426488193963,1.942307877687039 27.94592665241265,1.843782184660461 27.69391535596368,1.789492517074375 27.334665209962,1.789492517074375 27.06522760046073,1.789492517074375 26.82125921772823,1.825685628798426 26.65101754406326,1.915498165298848 26.47072222825271,1.978500989411091 26.33600342350208,2.095123238299704 26.22809433113965,2.257321998248215 26.13828179463922,2.392040802998849 26.09337552638899,2.544856163611509 26.05718241466496,2.742577792474373 26.0477990153291,2.769387504862562 26.0477990153291,2.796867460060459 26.03975610161263,2.83239032897481 H 26.80383290467592 C 26.80383290467592,2.796867460060459 26.81321630401179,2.769387504862562 26.82125921772823,2.742577792474373 26.84873917292615,2.634668700111933 26.89297519836664,2.544856163611509 26.96536142181475,2.491236738835145 27.04646080178901,2.436947071249056 27.18117960653964,2.410137358860881 27.334665209962,2.410137358860881 27.62219937532528,2.410137358860881 27.79311129179996,2.526759607749492 27.81120784766198,2.742577792474373 V 2.778100661388721 C 27.81120784766198,2.895393153087034 27.73010846768772,2.985205689587457 27.54109999535101,3.003302245449475 L 26.82192946053794,3.119924494338087 C 26.5705884068987,3.156117606062144 26.34538682283795,3.254643299088721 26.19324170503501,3.407458659701387 26.05852290028435,3.533464307925862 25.97809376311982,3.7130893809267 25.95061380792192,3.937620722177752 25.94190065139577,3.991910389763827 25.94190065139577,4.045529814540207 25.94190065139577,4.108532638652437 25.94190065139577,4.31563766685118 25.99552007617213,4.486549583325858 26.09471601200843,4.621268388076479 26.17581539198267,4.755987192827124 26.31053419673332,4.837086572801386 26.45463640081982,4.890705997577756 26.58935520557044,4.95370882168998 26.7421705661831,4.980518534078178 26.89431568398605,4.980518534078178 27.02903448873667,4.980518534078178 27.16375329348731,4.95370882168998 27.27166238584976,4.926228866492103 27.38895487754806,4.890035754768048 27.48748057057466,4.83641632999168 27.57729310707508,4.791510061741467 27.65839248704933,4.719794081103071 27.74820502354977,4.64807810046467 27.82930440352402,4.566978720490414 27.82930440352402,4.64807810046467 27.86549751524808,4.773413505879435 27.90102038416241,4.890035754768048 H 28.72742976852824 V 4.791510061741467 A 0.1983918716725732,0.1983918716725732 0 0 1 28.59271096377761,4.63936494393851 Z M 27.69391535596368,4.172205705574374 A 0.6675618384658207,0.6675618384658202 0 0 1 27.41509434712656,4.378640490963404 C 27.31656865409998,4.414833602687457 27.21737271826369,4.45035647160181 27.12756018176327,4.45035647160181 A 0.4222529701139226,0.4222529701139224 0 0 1 26.85812257226201,4.360543935101383 C 26.77702319228775,4.297541110989143 26.74083008056368,4.207728574488726 26.74083008056368,4.091106325600123 26.74083008056368,4.036816658014036 26.75021347989954,3.983197233237669 26.75825639361601,3.937620722177752 A 0.3049604784156109,0.3049604784156109 0 0 1 26.8574523294523,3.784805361565083 0.5067035641367072,0.5067035641367072 0 0 1 27.14498649481557,3.650086556814451 C 27.27099214304005,3.614563687900109 27.38761439192866,3.57837057617607 27.52233319667929,3.560274020314033 27.63895544556791,3.532794065116134 27.74686453793035,3.479174640339774 27.81053760485227,3.425555215563408 V 3.830381872625002 C 27.81053760485227,3.866574984349056 27.81053760485227,3.911481252599268 27.80115420551644,3.938290964987445 A 0.5563015320548504,0.5563015320548504 0 0 1 27.69391535596368,4.172205705574374 Z" id="path8" style="stroke-width:0.670243" />
</g>
</svg>
