<?xml version="1.0" encoding="UTF-8" standalone="no"?>
<svg xmlns:dc="http://purl.org/dc/elements/1.1/" xmlns:cc="http://creativecommons.org/ns#" xmlns:rdf="http://www.w3.org/1999/02/22-rdf-syntax-ns#" xmlns:svg="http://www.w3.org/2000/svg" xmlns="http://www.w3.org/2000/svg" height="700" viewBox="0.265 0.264 79.625 22.1240614334471" width="2500" version="1.1" id="svg4">
<metadata id="metadata10">
<rdf:RDF>
<cc:Work rdf:about="">
<dc:format>image/svg+xml</dc:format>
<dc:type rdf:resource="http://purl.org/dc/dcmitype/StillImage" />
<dc:title></dc:title>
</cc:Work>
</rdf:RDF>
</metadata>
<defs id="defs8" />
<path d="M 28.73182397216189,4.879295485423056 C 24.62420476747723,4.879295485423056 22.10546185606555,8.087646973479959 22.10546185606555,11.32603071672355 22.10546185606555,15.22455742774996 25.28434773526004,17.77276594802404 28.76185622734857,17.77276594802404 31.07093999877773,17.77276594802404 33.25989474946014,16.75336921064955 35.11849469308901,15.10386176067894 V 19.93168844351977 C 33.1692313375758,21.10124645682769 30.50089379655498,21.8208872886596 28.4320680666193,21.8208872886596 22.49531452716819,21.8208872886596 17.51789321471819,16.99306060581876 17.51789321471819,11.32659736304783 17.51789321471819,5.328646020574787 22.52421348970632,0.8311741447874945 28.46210032180599,0.8311741447874945 30.74115183804846,0.8311741447874945 33.40948937906929,1.520782721432718 35.1485269482757,2.390584829198057 V 7.127748100154563 C 32.95957219759328,5.688466436490744 30.74115183804846,4.878728839098776 28.73182397216189,4.878728839098776 Z M 47.739974920037,21.8208872886596 C 41.7731891253992,21.8208872886596 36.73570330257584,17.17325413693888 36.73570330257584,11.32659736304783 36.73570330257584,5.418742786134846 41.74202357756396,0.8311741447874945 48.00913192406864,0.8311741447874945 50.28761679398682,0.8311741447874945 53.10668225726537,1.43068595587266 54.84571982647176,2.240423553264627 V 6.947554569034447 C 52.86699086209616,5.808595457237489 50.31821569549778,4.879295485423056 48.09922868962868,4.879295485423056 43.99104283861975,4.879295485423056 41.32213865127464,8.086513680831405 41.32213865127464,11.32546407039928 41.32213865127464,15.13332736954134 44.47099227528245,17.89232832244651 48.15929320000206,17.89232832244651 48.93843189588307,17.89232832244651 49.68810498290167,17.83226381207313 50.64800385622706,17.47244339615718 V 13.6946123522018 H 47.29005773856101 V 9.706555521939616 H 54.96584884721851 V 20.32154111462241 C 52.77632745021182,21.31090559681022 50.31821569549779,21.8208872886596 47.73884162738846,21.8208872886596 Z M 58.31926179429035,21.40100236237028 V 1.251059071076819 H 62.63710678528181 V 21.40100236237028 Z" fill="#e11937" id="path2" style="stroke-width:0.566646" />
</svg>
