<?xml version="1.0" encoding="UTF-8" standalone="no"?>
<svg xmlns:dc="http://purl.org/dc/elements/1.1/" xmlns:cc="http://creativecommons.org/ns#" xmlns:rdf="http://www.w3.org/1999/02/22-rdf-syntax-ns#" xmlns:svg="http://www.w3.org/2000/svg" xmlns="http://www.w3.org/2000/svg" width="2500" height="500" viewBox="0 0 538.5839999999999 107.7166" version="1.1" id="svg44">
<metadata id="metadata50">
<rdf:RDF>
<cc:Work rdf:about="">
<dc:format>image/svg+xml</dc:format>
<dc:type rdf:resource="http://purl.org/dc/dcmitype/StillImage" />
<dc:title></dc:title>
</cc:Work>
</rdf:RDF>
</metadata>
<defs id="defs48" />
<path d="M 0,0 H 538.5839999999999 V 538.5829999999999 H 0 Z" fill="none" id="path2" />
<linearGradient id="a" gradientUnits="userSpaceOnUse" x1="-825.5079956054688" y1="1338.301025390625" x2="-825.5079956054688" y2="1419.10205078125" gradientTransform="matrix(0.9999999999999996,0,0,-0.9999999999999996,1045.93,1658.759)">
<stop offset=".387" stop-color="#d1d3d4" stop-opacity="0" id="stop12" />
<stop offset="1" stop-color="#d1d3d4" id="stop14" />
</linearGradient>
<linearGradient id="b" gradientUnits="userSpaceOnUse" x1="-724.552001953125" y1="1378.60205078125" x2="-724.552001953125" y2="1462.590942382812" gradientTransform="matrix(0.9999999999999996,0,0,-0.9999999999999996,1045.93,1658.759)">
<stop offset=".387" stop-color="#d1d3d4" stop-opacity="0" id="stop19" />
<stop offset="1" stop-color="#d1d3d4" id="stop21" />
</linearGradient>
<linearGradient id="c" gradientUnits="userSpaceOnUse" x1="-874.10302734375" y1="1302.262939453125" x2="-680.0390014648438" y2="1302.262939453125" gradientTransform="matrix(0.9999999999999996,0,0,-0.9999999999999996,1045.93,1658.759)">
<stop offset="0" stop-color="#e8e7e5" id="stop26" />
<stop offset="1" stop-color="#fff" id="stop28" />
</linearGradient>
<linearGradient id="d" gradientUnits="userSpaceOnUse" x1="-883.031982421875" y1="1442.031005859375" x2="-672.3410034179688" y2="1442.031005859375" gradientTransform="matrix(0.9999999999999996,0,0,-0.9999999999999996,1045.93,1658.759)">
<stop offset="0" stop-color="#e8e7e5" id="stop35" />
<stop offset="1" stop-color="#fff" id="stop37" />
</linearGradient>
<g id="g863" transform="matrix(0.2056869387320714,0,0,0.2056869387320714,213.9023585819017,-1.531444261567602)">
<path d="M 405.5,467.454 269.29,504.13 133.078,467.454 101.646,126.929 H 436.936 Z" fill="#2062af" id="path4" />
<path d="M 269.289,154.511 V 474.878 L 269.597,474.9620000000001 379.826,445.28 405.269,154.511 Z" fill="#3c9cd7" id="path6" />
<path d="M 191.985,76.899 V 56.631 H 221.556 V 34.45300000000001 H 169.807 V 97.137 H 221.556 V 76.899 Z M 274.751,56.631 H 295.425 V 34.45300000000001 H 243.671 V 56.631 C 250.595,63.555 254.206,66.86899999999998 264.22,76.88299999999999 258.366,76.88299999999999 243.671,76.90399999999999 243.671,76.90299999999999 V 97.137 H 295.425 V 76.899 Z M 348.1030000000001,56.631 H 368.7760000000001 V 34.45300000000001 H 317.02 V 56.631 C 323.944,63.555 327.557,66.86899999999998 337.571,76.88299999999999 331.719,76.88299999999999 317.02,76.90399999999999 317.02,76.90299999999999 V 97.137 H 368.777 V 76.899 Z" id="path8" />
<path d="M 269.168,239.656 171.678,280.258 174.911,320.457 269.168,280.156 369.433,237.288 373.59,196.166 Z" fill="#ffffff" id="path10" />
<path d="M 171.677,280.258 174.91,320.457 269.167,280.156 V 239.656 Z" fill="url(#a)" id="path17" style="fill:url(#a)" />
<path d="M 373.59,196.167 269.168,239.656 V 280.156 L 369.433,237.288 Z" fill="url(#b)" id="path24" style="fill:url(#b)" />
<path d="M 171.827,280.258 175.061,320.457 319.686,320.918 316.451,374.516 268.861,387.9140000000001 223.113,376.3630000000001 220.341,343.095 H 177.833 L 183.378,407.3200000000001 269.323,432.732 354.802,407.781 365.8919999999999,280.258 Z" fill="url(#c)" id="path31" style="fill:url(#c)" />
<path d="M 269.168,280.258 H 171.678 L 174.911,320.457 269.168,320.758 Z M 269.168,387.786 268.706,387.915 222.964,376.364 220.192,343.096 H 177.685 L 183.229,407.321 269.168,432.733 Z" opacity="0.05" id="path33" />
<path d="M 162.898,196.167 H 373.59 L 369.433,237.289 H 167.98 Z" fill="url(#d)" id="path40" style="fill:url(#d)" />
<path d="M 269.168,196.167 H 162.898 L 167.98,237.289 H 269.168 Z" opacity="0.05" id="path42" />
</g>
</svg>
