<?xml version="1.0" encoding="UTF-8" standalone="no"?>
<svg xmlns:dc="http://purl.org/dc/elements/1.1/" xmlns:cc="http://creativecommons.org/ns#" xmlns:rdf="http://www.w3.org/1999/02/22-rdf-syntax-ns#" xmlns:svg="http://www.w3.org/2000/svg" xmlns="http://www.w3.org/2000/svg" height="500" viewBox="20.7 244.9 600.3 500.000009863471" width="2500" version="1.1" id="svg10">
<metadata id="metadata16">
<rdf:RDF>
<cc:Work rdf:about="">
<dc:format>image/svg+xml</dc:format>
<dc:type rdf:resource="http://purl.org/dc/dcmitype/StillImage" />
<dc:title></dc:title>
</cc:Work>
</rdf:RDF>
</metadata>
<defs id="defs14" />
<g fill="#0091e2" id="g8" transform="matrix(2.698422780357273,0,0,2.698422780357272,-545.0708164143593,-374.6667360383955)">
<path d="M 303,290 C 299.8,289.9 297.2,292.4 297.1,295.5 V 324.3 C 283.4,313.3 263.3,315.5 252.3,329.2 247.8,334.9 245.3,341.9 245.3,349.2 245,366.8 259,381.3 276.6,381.6 294.2000000000001,381.8999999999999 308.7000000000001,367.9 309,350.3 V 295.9 C 309,294.3 308.4,292.8 307.3,291.7 306.1,290.6 304.6,290 303,290 M 295.5,356.9 C 293.5,361.7 289.7,365.5 284.9,367.6 279.9,369.7 274.3,369.7 269.3,367.6 264.5,365.6 260.8,361.7 258.8,357 256.6999999999999,352.1 256.6999999999999,346.5 258.8,341.5 260.8,336.6999999999999 264.6,332.8999999999999 269.3,330.8999999999999 274.3,328.7999999999999 279.9,328.7999999999999 284.9,330.8999999999999 289.7,333 293.5,336.7999999999999 295.5,341.5999999999999 297.6,346.3999999999999 297.6,351.9999999999999 295.5,356.8999999999999 M 369.5,326.6999999999999 C 357.1,314.3 336.9,314.3 324.5,326.6999999999999 318.5,332.6999999999999 315.2,340.8 315.2,349.1999999999999 314.9,366.8 328.9,381.3 346.5,381.5999999999999 364.1,381.8999999999999 378.6,367.8999999999999 378.9,350.2999999999999 V 349.1999999999999 C 378.9,344.9999999999999 378.1,340.8999999999999 376.5,336.9999999999999 374.9,333.0999999999999 372.5,329.5999999999999 369.5,326.6999999999999 M 365.4,356.7999999999999 C 364.4,359.1999999999999 362.9,361.2999999999999 361.1,363.0999999999999 359.3,364.8999999999999 357.1,366.3999999999999 354.8,367.3999999999999 349.8,369.5 344.1999999999999,369.5 339.1999999999999,367.3999999999999 334.3999999999999,365.3999999999999 330.5999999999999,361.5 328.5999999999999,356.7999999999999 326.4999999999999,351.8999999999999 326.4999999999999,346.2999999999999 328.5999999999999,341.2999999999999 330.5999999999999,336.4999999999999 334.3999999999999,332.7999999999999 339.1999999999999,330.6999999999999 344.1999999999999,328.5999999999999 349.8,328.5999999999999 354.8,330.6999999999999 357.1999999999999,331.6999999999999 359.3,333.1999999999999 361.1,334.9999999999999 362.9,336.7999999999999 364.4,338.9999999999999 365.4,341.2999999999999 367.5,346.3999999999999 367.5,351.9999999999999 365.4,356.7999999999999 M 501.2,323.1999999999999 C 501.2,322.3999999999999 501,321.5999999999999 500.7,320.8999999999999 500.4,320.1999999999999 499.9,319.5999999999999 499.4,318.9999999999999 498.9,318.4999999999999 498.2,317.9999999999999 497.5,317.6999999999999 496.8,317.3999999999999 496,317.1999999999999 495.2,317.1999999999999 494.1,317.1999999999999 493,317.4999999999999 492,318.0999999999999 L 458,340.1999999999999 V 295.9999999999999 C 458,294.3999999999999 457.4,292.8999999999999 456.3,291.7999999999999 455.2000000000001,290.6999999999999 453.7,289.9999999999999 452.1,289.9999999999999 448.8,289.9999999999999 446.2000000000001,292.5999999999999 446.1,295.8999999999999 V 374.9999999999999 C 446.1,376.5999999999999 446.7000000000001,378.0999999999999 447.8,379.1999999999999 448.9,380.3999999999999 450.4,380.9999999999999 452,380.9999999999999 453.6,380.9999999999999 455.1,380.3999999999999 456.2,379.1999999999999 457.3,378.0999999999999 458,376.5999999999999 457.9,374.9999999999999 V 354.4999999999999 L 464.8,349.9999999999999 491.1,379.4999999999999 C 492.2,380.4999999999999 493.6,381.0999999999999 495.1,380.9999999999999 495.9,380.9999999999999 496.7,380.8999999999999 497.4,380.4999999999999 498.1,380.1999999999999 498.7,379.7999999999999 499.3,379.1999999999999 499.8,378.5999999999999 500.3,377.9999999999999 500.6,377.2999999999999 500.9,376.5999999999999 501.1,375.7999999999999 501.1,374.9999999999999 501.1,373.4999999999999 500.5,371.9999999999999 499.5,370.8999999999999 L 475.1,343.3999999999999 498.9,327.8999999999999 C 500.5,326.8999999999999 501.3,325.0999999999999 501.2,323.1999999999999 M 402.5,334.9999999999999 C 404.3,333.1999999999999 406.5,331.6999999999999 408.9,330.6999999999999 411.4,329.6999999999999 414,329.0999999999999 416.7,329.0999999999999 419.1,329.0999999999999 421.4,329.4999999999998 423.6,330.2999999999998 425.8,331.1999999999998 427.9,332.3999999999999 429.7,333.9999999999998 430.8,334.8999999999998 432.2,335.2999999999998 433.6,335.2999999999998 435.2,335.3999999999999 436.8,334.7999999999998 437.9,333.5999999999999 439,332.4999999999998 439.6,330.8999999999999 439.6,329.2999999999998 439.6,327.5999999999999 438.9,325.8999999999999 437.5,324.7999999999998 431.8,319.6999999999998 424.3999999999999,316.8999999999999 416.6999999999999,317.0999999999999 399.0999999999999,317.0999999999999 384.8,331.3999999999999 384.8,348.9999999999998 384.8,366.5999999999998 399,380.7999999999998 416.5,380.8999999999998 424.1999999999999,380.8999999999998 431.6,378.1999999999998 437.3999999999999,373.1999999999998 438.5999999999999,372.0999999999998 439.2999999999999,370.4999999999998 439.2999999999999,368.7999999999998 439.3999999999999,365.5999999999999 436.8999999999999,362.9999999999998 433.7999999999999,362.8999999999999 H 433.3999999999999 C 432,362.8999999999999 430.6999999999999,363.2999999999998 429.5999999999999,364.0999999999999 427.7999999999999,365.6999999999999 425.7999999999999,366.8999999999999 423.5999999999999,367.7999999999998 421.3999999999999,368.5999999999999 418.9999999999999,368.9999999999998 416.6999999999999,368.9999999999998 414,368.9999999999998 411.3999999999999,368.4999999999998 408.8999999999999,367.3999999999998 406.5,366.3999999999998 404.3999999999999,364.8999999999998 402.5,363.0999999999998 394.6999999999999,355.2999999999998 394.6999999999999,342.6999999999998 402.3999999999999,334.8999999999998 402.5,335.0999999999998 402.5,335.0999999999998 402.5,334.9999999999998 M 619.2999999999999,321.2999999999998 C 618.0999999999999,320.1999999999998 616.7999999999999,319.3999999999999 615.2999999999999,318.8999999999999 613.5999999999999,318.2999999999998 611.7999999999999,317.8999999999999 610,317.6999999999999 608.2,317.4999999999999 606.3999999999997,317.3999999999999 604.6,317.3999999999999 601,317.3999999999999 597.2999999999999,317.9999999999999 593.8999999999997,319.2999999999998 590.5,320.4999999999998 587.3999999999997,322.2999999999998 584.6,324.4999999999998 V 323.2999999999998 C 584.5,319.9999999999998 581.7,317.4999999999998 578.3999999999997,317.5999999999999 A 5.900000000000003,5.900000000000003 0 0 0 572.6999999999999,323.2999999999998 V 375.1999999999998 C 572.7999999999999,378.4999999999998 575.5999999999999,380.9999999999998 578.8999999999997,380.8999999999998 A 5.900000000000003,5.900000000000003 0 0 0 584.6,375.1999999999998 V 349.2999999999998 C 584.6,346.5999999999999 585.1,343.9999999999998 586.2,341.4999999999998 587.2,339.0999999999999 588.6,336.9999999999998 590.5,335.1999999999998 592.2999999999999,333.3999999999998 594.5,331.8999999999998 596.7999999999999,330.8999999999998 599.2999999999999,329.8999999999998 601.8999999999997,329.2999999999998 604.5999999999999,329.2999999999998 607.2999999999998,329.2999999999998 609.8999999999997,329.7999999999998 612.3999999999997,330.6999999999998 613.1999999999998,331.0999999999997 613.9999999999995,331.2999999999998 614.8999999999997,331.2999999999998 615.6999999999998,331.2999999999998 616.4999999999995,331.1999999999998 617.1999999999998,330.7999999999998 617.8999999999997,330.4999999999998 618.4999999999995,330.0999999999998 619.0999999999994,329.4999999999998 619.5999999999994,328.9999999999998 620.0999999999994,328.2999999999998 620.3999999999997,327.5999999999998 620.6999999999997,326.8999999999998 620.8999999999997,326.0999999999998 620.8999999999997,325.2999999999998 620.9999999999995,323.7999999999998 620.3999999999997,322.3999999999998 619.2999999999997,321.2999999999998 M 564.0999999999994,336.9999999999998 C 558.9999999999995,325.1999999999998 547.3999999999996,317.4999999999998 534.5999999999994,317.3999999999998 516.9999999999995,317.3999999999998 502.7999999999997,331.5999999999997 502.6999999999997,349.1999999999998 502.6999999999997,366.7999999999998 516.9999999999995,381.0999999999997 534.5999999999994,381.0999999999997 542.1999999999997,381.0999999999997 549.5999999999994,378.3999999999998 555.3999999999996,373.3999999999998 L 555.5999999999994,373.1999999999998 C 556.0999999999994,372.7999999999998 556.5999999999994,372.2999999999998 556.8999999999996,371.6999999999998 558.7999999999996,368.8999999999998 558.0999999999994,365.1999999999998 555.3999999999996,363.2999999999998 553.0999999999994,361.7999999999998 550.0999999999994,362.0999999999998 548.0999999999994,363.9999999999998 547.8999999999996,364.1999999999998 547.2999999999997,364.6999999999998 547.2999999999997,364.7999999999998 L 547.1999999999997,364.8999999999998 C 545.4999999999995,366.2999999999998 543.5999999999994,367.4999999999998 541.4999999999995,368.1999999999998 539.2999999999996,368.9999999999998 536.9999999999995,369.3999999999998 534.5999999999994,369.2999999999998 532.3999999999996,369.2999999999998 530.2999999999997,368.9999999999998 528.1999999999997,368.2999999999998 526.1999999999997,367.5999999999999 524.2999999999997,366.6999999999998 522.5999999999994,365.3999999999999 520.8999999999996,364.1999999999999 519.3999999999996,362.6999999999999 518.1999999999997,360.9999999999999 516.8999999999997,359.2999999999999 515.9999999999995,357.2999999999999 515.3999999999997,355.2999999999999 H 560.3999999999997 C 561.9999999999995,355.2999999999999 563.4999999999995,354.6999999999999 564.5999999999994,353.5999999999999 565.7999999999998,352.4999999999999 566.3999999999997,350.9999999999999 566.2999999999998,349.3999999999999 566.3999999999997,345.0999999999999 565.5999999999994,340.8999999999999 564.0999999999994,337 M 515.3999999999997,343.3999999999999 C 515.9999999999995,341.2999999999999 516.8999999999997,339.3999999999999 518.1999999999997,337.6999999999999 519.3999999999997,336 520.8999999999997,334.5 522.5999999999994,333.3 524.2999999999996,332.1 526.1999999999997,331.1 528.1999999999997,330.4 530.1999999999997,329.7 532.3999999999997,329.4 534.4999999999995,329.4 536.5999999999994,329.4 538.7999999999996,329.7 540.7999999999996,330.4 544.7999999999996,331.7 548.2999999999996,334.3 550.7999999999996,337.7 552.0999999999994,339.4 552.9999999999995,341.4 553.6999999999992,343.4 Z M 598.9999999999995,372.3999999999999 C 596.6999999999998,372.3999999999999 594.8999999999997,374.2999999999999 594.8999999999997,376.5999999999999 594.8999999999997,378.8999999999999 596.7999999999997,380.6999999999999 599.0999999999994,380.6999999999999 601.3999999999997,380.6999999999999 603.1999999999998,378.8 603.1999999999998,376.5999999999999 603.1999999999998,374.1999999999999 601.2999999999998,372.3999999999999 598.9999999999995,372.3999999999999 Z M 598.9999999999995,379.7999999999999 C 597.1999999999998,379.8999999999999 595.6999999999998,378.4999999999999 595.5999999999994,376.6999999999999 595.4999999999995,374.8999999999999 596.8999999999997,373.3999999999999 598.6999999999998,373.2999999999999 600.4999999999995,373.1999999999999 601.9999999999995,374.5999999999999 602.0999999999994,376.3999999999999 V 376.5999999999999 C 602.1999999999998,378.2999999999999 600.7999999999998,379.7999999999999 599.0999999999994,379.7999999999999 Z" id="path2" />
<path d="M 600,376.6 C 600.5,376.5 600.7999999999999,376.1 600.7999999999999,375.6 600.7999999999999,375.2000000000001 600.6999999999999,374.9 600.3999999999997,374.7000000000001 600,374.5000000000001 599.5,374.4 599,374.4 598.5,374.4 597.8999999999997,374.4 597.3999999999997,374.5000000000001 V 378.6000000000001 H 598.2999999999999 V 377.0000000000001 H 598.6999999999999 C 599.1999999999999,377.0000000000001 599.4999999999995,377.2000000000001 599.5999999999999,377.6000000000001 599.6999999999999,377.9000000000001 599.7999999999999,378.3000000000001 599.8999999999997,378.6000000000001 H 600.8999999999997 C 600.6999999999998,378.3000000000001 600.5999999999999,377.9000000000001 600.5999999999999,377.6000000000001 600.6999999999999,377.2000000000001 600.3999999999997,376.8000000000001 599.9999999999995,376.6000000000001 M 598.7999999999998,376.3000000000001 H 598.2999999999998 V 375.1000000000001 H 598.7999999999998 C 599.3999999999997,375.1000000000001 599.6999999999998,375.4000000000001 599.6999999999998,375.7000000000001 599.7999999999998,376.1000000000001 599.2999999999998,376.4000000000001 598.7999999999998,376.3000000000001 M 234.3999999999999,303.4000000000001 C 233.7999999999999,302.9000000000001 228.3999999999999,298.8000000000001 216.7999999999999,298.8000000000001 213.7999999999999,298.8000000000001 210.6999999999999,299.1000000000001 207.6999999999999,299.6000000000001 205.4999999999999,284.3000000000001 192.7999999999999,276.9000000000001 192.2999999999999,276.5000000000001 L 189.1999999999999,274.7000000000001 187.1999999999999,277.6 C 184.6999999999999,281.5 182.7999999999999,285.9 181.6999999999999,290.4 179.5999999999999,299.1 180.8999999999999,307.3 185.2999999999999,314.3 179.9999999999999,317.3 171.3999999999999,318 169.5999999999999,318.1 H 27.59999999999988 C 23.89999999999988,318.1 20.89999999999988,321.1 20.89999999999988,324.8 20.69999999999988,337.2 22.79999999999988,349.6 27.09999999999988,361.3 31.99999999999988,374.1 39.29999999999989,383.6 48.69999999999988,389.4 59.29999999999989,395.9 76.59999999999988,399.6 96.09999999999988,399.6 104.8999999999999,399.6 113.6999999999999,398.8 122.3999999999999,397.2000000000001 134.4999999999999,395.0000000000001 146.0999999999999,390.8000000000001 156.7999999999999,384.7000000000001 165.5999999999999,379.6 173.4999999999999,373.1 180.1999999999999,365.5000000000001 191.4999999999999,352.8000000000001 198.1999999999999,338.6000000000001 203.0999999999999,326.0000000000001 H 205.0999999999999 C 217.3999999999999,326.0000000000001 224.9999999999999,321.1000000000001 229.1999999999999,316.9 231.9999999999999,314.3 234.0999999999999,311.1 235.5999999999999,307.5000000000001 L 236.4999999999999,304.9 Z" id="path4" />
<path d="M 40.8,314 H 59.8 C 60.7,314 61.5,313.3 61.5,312.3 V 295.3 C 61.5,294.4 60.8,293.6 59.8,293.6 H 40.8 C 39.9,293.6 39.1,294.3 39.1,295.3 V 312.3 C 39.2,313.3 39.89999999999999,314 40.8,314 Z M 67,314 H 86 C 86.9,314 87.7,313.3 87.7,312.3 V 295.3 C 87.7,294.4 87,293.6 86,293.6 H 67 C 66.09999999999999,293.6 65.29999999999998,294.3 65.29999999999998,295.3 V 312.3 C 65.39999999999999,313.3 66.09999999999999,314 67,314 M 93.7,314 H 112.7 C 113.6,314 114.4,313.3 114.4,312.3 V 295.3 C 114.4,294.4 113.7,293.6 112.7,293.6 H 93.7 C 92.79999999999998,293.6 92,294.3 92,295.3 V 312.3 C 92,313.3 92.7,314 93.7,314 Z M 120,314 H 139 C 139.9,314 140.7,313.3 140.7,312.3 V 295.3 C 140.7,294.4 140,293.6 139,293.6 H 120 C 119.1,293.6 118.3,294.3 118.3,295.3 V 312.3 C 118.3,313.3 119.1,314 120,314 Z M 67,289.7 H 86 C 86.9,289.7 87.7,288.9 87.7,288 V 271 C 87.7,270.1 87,269.3 86,269.3 H 67 C 66.09999999999999,269.3 65.29999999999998,270 65.29999999999998,271 V 288 C 65.39999999999999,288.9 66.09999999999999,289.7 67,289.7 M 93.7,289.7 H 112.7 C 113.6,289.7 114.4,288.9 114.4,288 V 271 C 114.4,270.1 113.7,269.3 112.7,269.3 H 93.7 C 92.79999999999998,269.3 92,270 92,271 V 288 C 92,288.9 92.7,289.7 93.7,289.7 M 120,289.7 H 139 C 139.9,289.7 140.7,288.9 140.7,288 V 271 C 140.7,270.1 139.9,269.3 139,269.3 H 120 C 119.1,269.3 118.3,270 118.3,271 V 288 C 118.3,288.9 119.1,289.7 120,289.7 M 120,265.3 H 139 C 139.9,265.3 140.7,264.6 140.7,263.6 V 246.6 C 140.7,245.7 139.9,244.9 139,244.9 H 120 C 119.1,244.9 118.3,245.6 118.3,246.6 V 263.6 C 118.3,264.5 119.1,265.3 120,265.3 M 146.5,314 H 165.5 C 166.4,314 167.2,313.3 167.2,312.3 V 295.3 C 167.2,294.4 166.5,293.6 165.5,293.6 H 146.5 C 145.6,293.6 144.8,294.3 144.8,295.3 V 312.3 C 144.9,313.3 145.6,314 146.5,314" id="path6" />
</g>
</svg>
