<?xml version="1.0" encoding="UTF-8" standalone="no"?>
<svg xmlns:dc="http://purl.org/dc/elements/1.1/" xmlns:cc="http://creativecommons.org/ns#" xmlns:rdf="http://www.w3.org/1999/02/22-rdf-syntax-ns#" xmlns:svg="http://www.w3.org/2000/svg" xmlns="http://www.w3.org/2000/svg" height="500" viewBox="55.36 226.06 700.98 500.0000101957499" width="2500" version="1.1" id="svg8">
<metadata id="metadata14">
<rdf:RDF>
<cc:Work rdf:about="">
<dc:format>image/svg+xml</dc:format>
<dc:type rdf:resource="http://purl.org/dc/dcmitype/StillImage" />
<dc:title></dc:title>
</cc:Work>
</rdf:RDF>
</metadata>
<defs id="defs12" />
<g fill="#2aa9e0" id="g6" transform="matrix(2.532997199852347,0,0,2.532997199852347,-622.1669135600749,-323.9998254614881)">
<path d="M 383.67,259.71 H 354.21 L 354.2600000000001,314.83 C 354.2600000000001,330.94 347.35,343.97 331.2600000000001,343.97 315.1700000000001,343.97 308.1800000000001,330.97 308.1800000000001,314.83 V 259.76 H 278.77 V 314.83 C 278.77,346.66 299.24,372.46 331.0700000000001,372.46 362.9000000000001,372.46 383.6700000000001,346.66 383.6700000000001,314.83 Z M 649.3099999999999,226.12 H 678.6299999999996 V 369.61 H 649.3099999999999 Z M 700.2699999999997,231.41 V 226.26 H 723.12 V 231.41 H 714.7599999999996 V 254.13 H 708.6299999999996 V 231.41 Z M 734.9399999999999,226.26 741.4699999999999,245.43 H 741.5399999999998 L 747.7099999999999,226.2599999999999 H 756.3399999999999 V 254.1299999999999 H 750.5999999999999 V 234.3799999999999 H 750.5199999999997 L 743.6899999999998,254.1299999999999 H 738.9999999999995 L 732.1699999999997,234.5699999999999 H 732.0899999999993 V 254.1299999999999 H 726.3499999999994 V 226.2599999999999 Z M 254.81,258.51 C 229.5399999999999,252.68 213.5999999999999,277.78 212.9399999999999,279.13 212.6099999999999,279.79 212.5999999999999,280.13 211.4799999999999,280.13 210.56,280.13 210.4799999999999,279.13 210.4799999999999,279.13 L 207.3499999999999,259.93 H 181.0499999999999 V 369.52 H 210.4899999999999 V 310.2 C 210.4899999999999,305.35 223.5499999999999,282.11 248.8399999999999,288.09 261.6299999999999,291.09 267.0499999999999,296.54 267.0499999999999,296.54 V 263.16 A 46.7,46.7 0 0 0 254.81,258.51 Z M 423.62,405.62 V 351.42 C 423.62,351.42 423.67,350.24 424.73,350.23 425.79,350.22 425.89,350.85 426.12,351.42 428.36,356.98 440.6299999999999,378.14 467.87,371.5 A 58,58 0 1 0 394.0899999999999,315.65 V 405.65 Z M 452.15,286.28 A 29.38,29.38 0 1 1 422.78,315.65 29.37,29.37 0 0 1 452.15,286.28 Z" id="path2" />
<path d="M 607.8999999999997,369.57 H 637.4099999999998 V 315.65 A 58,58 0 1 0 563.6299999999996,371.5 C 590.87,378.14 603.1399999999996,356.98 605.3799999999996,351.42 605.61,350.85 605.82,350.22 606.7699999999997,350.23 607.7199999999999,350.24 607.8799999999996,351.42 607.8799999999996,351.42 M 608.73,315.65 A 29.37,29.37 0 1 1 579.36,286.28 29.38,29.38 0 0 1 608.73,315.65 Z M 88.84000000000003,369.34 H 55.36000000000004 V 226.06 H 91.28000000000001 C 134.79,226.06 167.79,234.06 167.79,297.7000000000001 167.79,360.7500000000001 132.84,369.34 88.84000000000003,369.34 Z M 96.84000000000003,250.9 H 85.00000000000001 V 344.48 L 97.15000000000003,344.79 C 122.08,344.79 138.15,342.53 138.15,297.7000000000001 138.1400000000001,254.7200000000001 124,250.9 96.83000000000004,250.9 Z" id="path4" />
</g>
</svg>
