<?xml version="1.0" encoding="UTF-8" standalone="no"?>
<svg xmlns:dc="http://purl.org/dc/elements/1.1/" xmlns:cc="http://creativecommons.org/ns#" xmlns:rdf="http://www.w3.org/1999/02/22-rdf-syntax-ns#" xmlns:svg="http://www.w3.org/2000/svg" xmlns="http://www.w3.org/2000/svg" width="2500" height="500" viewBox="0 0 256 51.18733509234828" preserveAspectRatio="xMidYMid" version="1.1" id="svg39">
<metadata id="metadata43">
<rdf:RDF>
<cc:Work rdf:about="">
<dc:format>image/svg+xml</dc:format>
<dc:type rdf:resource="http://purl.org/dc/dcmitype/StillImage" />
<dc:title></dc:title>
</cc:Work>
</rdf:RDF>
</metadata>
<defs id="defs5">
<clipPath id="a">
<path d="M 68.367,0 A 13.648,13.648 0 0 0 58.70300000000001,4.011000000000001 L 2.087,60.783 A 7.152000000000001,7.152000000000001 0 0 0 2.091,70.885 L 122.759,191.721 A 7.150000000000001,7.150000000000001 0 0 0 132.871,191.728 L 253.903,70.864 A 7.150000000000001,7.150000000000001 0 0 0 253.933,60.777 L 197.836,4.052 A 13.642,13.642 0 0 0 188.132,0 Z" id="path2" />
</clipPath>
</defs>
<g clip-path="url(#a)" id="g37" transform="matrix(0.2335876785848645,0,0,0.2335876785848645,98.10073106542954,2.956816965316083)">
<path d="M 65.4,-0.004 H 191.118 A 6.5,6.5 0 0 1 195.738,1.926 L 258.938,65.83199999999999 127.813,196.776 -2.95,65.83199999999999 60.8,1.905 A 6.5,6.5 0 0 1 65.39999999999999,-0.004" fill="#57bbfb" id="path7" />
<path d="M 194.649,1.045 A 6.489,6.489 0 0 0 191.118,-0.0050000000000001 H 65.4 A 6.497,6.497 0 0 0 60.79900000000001,1.905 L 62.88500000000001,4.543000000000001 94.80299999999998,35.915 161.093,35.64200000000001 194.65,1.045 Z" fill="#48acec" id="path9" />
<path d="M 128.405,196.185 127.813,196.777 -2.95,65.83199999999999 -1.846,64.72599999999998 H 67.25 L 128.404,192.503 V 196.185 Z" fill="#2b8fcf" id="path11" />
<path d="M 84.47799999999999,109.075 95.35099999999998,131.125 H 160.918 L 171.694,109.577 127.488,65.64199999999999 Z" fill="#2d91d1" id="path13" />
<path d="M 193.848,65.64199999999999 H 258.779 L 193.375,0.042 160.549,32.725 193.848,65.64099999999999 Z" fill="#7acbff" id="path15" />
<path d="M 160.549,32.726 127.904,0.456 95.162,33.284 127.489,65.644 160.549,32.72700000000001 Z" fill="#55b9f9" id="path17" />
<path d="M 127.488,65.64199999999999 H 62.886 L 84.47799999999999,109.082 127.488,65.64699999999999 171.695,109.583 193.848,65.643 H 127.488 Z" fill="#3b9fdf" id="path19" />
<path d="M 62.886,65.64199999999999 H 127.488 L 95.162,33.282 Z" fill="#52b6f7" id="path21" />
<path d="M 160.549,32.726 127.489,65.643 H 193.848 V 65.64199999999999 L 160.548,32.726 Z" fill="#8fd3ff" id="path23" />
<path d="M 160.549,32.726 127.904,0.456 Z" fill="#ff2690" id="path25" />
<path d="M 95.162,33.283 62.636,0.7229999999999997 -2.904000000000003,65.643 H 62.886 V 65.64199999999999 L 95.162,33.282 Z" fill="#41a5e5" id="path27" />
<path d="M 127.903,197.14 160.918,131.125 H 95.35099999999998 Z" fill="#3ca0e0" id="path29" />
<path d="M 171.695,109.578 160.919,131.126 H 193.376 Z" fill="#4eb2f2" id="path31" />
<path d="M 62.643,131.125 H 95.35099999999998 L 84.47799999999999,109.075 Z" fill="#1a7ebe" id="path33" />
<path d="M 177.459,65.12399999999999 C 182.795,63.993 192.539,54.16799999999999 193.391,49.356 193.435,49.108 193.836,49.111 193.908,49.35099999999999 195.372,54.26599999999999 205.342,64.19799999999999 209.752,65.12399999999999 210.01,65.17799999999998 210.04,66.02599999999999 209.782,66.08399999999997 205.226,67.11599999999998 195.294,77.14599999999998 193.922,81.93399999999998 193.847,82.19399999999997 193.428,82.19699999999997 193.365,81.93299999999996 192.275,77.37799999999998 182.558,67.43599999999996 177.428,66.08299999999998 177.171,66.01599999999999 177.198,65.17899999999997 177.458,65.12299999999999" fill="#ffffff" id="path35" />
</g>
</svg>
