<?xml version="1.0" encoding="UTF-8" standalone="no"?>
<svg xmlns:dc="http://purl.org/dc/elements/1.1/" xmlns:cc="http://creativecommons.org/ns#" xmlns:rdf="http://www.w3.org/1999/02/22-rdf-syntax-ns#" xmlns:svg="http://www.w3.org/2000/svg" xmlns="http://www.w3.org/2000/svg" width="2500" height="500" viewBox="-0.122 175.062 480.244 96.06139053254435" version="1.1" id="svg6">
<metadata id="metadata12">
<rdf:RDF>
<cc:Work rdf:about="">
<dc:format>image/svg+xml</dc:format>
<dc:type rdf:resource="http://purl.org/dc/dcmitype/StillImage" />
<dc:title></dc:title>
</cc:Work>
</rdf:RDF>
</metadata>
<defs id="defs10" />
<g fill="#121110" id="g4" transform="matrix(0.701120371635469,0,0,0.701120371635469,71.73111080748739,54.82415663394541)" style="fill:#00ffff">
<path d="M 92.375,230.65 H 52.019 A 1.887,1.887 0 0 0 50.133,232.536 V 252.267 A 1.89,1.89 0 0 0 52.019,254.156 H 67.762 V 278.669 C 67.762,278.669 64.227,279.875 54.454,279.875 42.924,279.875 26.817,275.661 26.817,240.243 26.817,204.818 43.589,200.156 59.335,200.156 72.965,200.156 78.837,202.557 82.57299999999999,203.712 83.74700000000001,204.072 84.83300000000001,202.904 84.83300000000001,201.861 L 89.33499999999999,182.798 C 89.33499999999999,182.311 89.17,181.723 88.614,181.324 87.09699999999999,180.2420000000001 77.84,175.062 54.45400000000001,175.062 27.51300000000001,175.062 -0.1219999999999928,186.525 -0.1219999999999928,241.624 -0.1219999999999928,296.727 31.51800000000001,304.937 58.18000000000001,304.937 80.256,304.937 93.64800000000001,295.503 93.64800000000001,295.503 94.20000000000001,295.197 94.26,294.426 94.26,294.072 V 232.535 C 94.26,231.495 93.41600000000001,230.65 92.375,230.65 M 300.354,181.664 A 1.88,1.88 0 0 0 298.481,179.768 H 275.757 A 1.889,1.889 0 0 0 273.875,181.664 L 273.881,225.577 H 238.462 V 181.664 A 1.882,1.882 0 0 0 236.587,179.768 H 213.865 A 1.887,1.887 0 0 0 211.988,181.664 V 300.568 C 211.988,301.616 212.831,302.469 213.865,302.469 H 236.587 C 237.626,302.469 238.462,301.615 238.462,300.568 V 249.708 H 273.881 L 273.819,300.568 C 273.819,301.616 274.663,302.469 275.7019999999999,302.469 H 298.4789999999999 C 299.5199999999999,302.469 300.3519999999999,301.615 300.3539999999999,300.568 V 181.664 M 135.254,197.268 C 135.254,189.085 128.694,182.473 120.601,182.473 112.516,182.473 105.951,189.085 105.951,197.268 105.951,205.441 112.516,212.07 120.601,212.07 128.694,212.07 135.254,205.441 135.254,197.268 M 133.629,275.486 V 220.6 A 1.89,1.89 0 0 0 131.749,218.705 H 109.098 C 108.059,218.705 107.129,219.777 107.129,220.82 V 299.454 C 107.129,301.766 108.569,302.452 110.433,302.452 H 130.841 C 133.08,302.452 133.629,301.352 133.629,299.418 V 275.486 M 386.71,218.884 H 364.161 C 363.127,218.884 362.285,219.736 362.285,220.785 V 279.087 C 362.285,279.087 356.556,283.279 348.4260000000001,283.279 340.2960000000001,283.279 338.1390000000001,279.59 338.1390000000001,271.629 V 220.785 C 338.1390000000001,219.736 337.2980000000001,218.884 336.2640000000001,218.884 H 313.378 C 312.3460000000001,218.884 311.499,219.736 311.499,220.785 V 275.478 C 311.499,299.124 324.678,304.909 342.809,304.909 357.682,304.909 369.673,296.693 369.673,296.693 369.673,296.693 370.244,301.022 370.502,301.536 370.761,302.048 371.434,302.565 372.161,302.565 L 386.721,302.501 C 387.753,302.501 388.6,301.647 388.6,300.603 L 388.592,220.786 C 388.592,219.7359999999999 387.749,218.884 386.71,218.884 M 439.445,283.207 C 431.624,282.969 426.319,279.419 426.319,279.419 V 241.766 C 426.319,241.766 431.552,238.558 437.973,237.984 446.093,237.257 453.917,239.71 453.917,259.079 453.918,279.5049999999999 450.3870000000001,283.536 439.445,283.207 Z M 448.339,216.214 C 435.532,216.214 426.821,221.928 426.821,221.928 V 181.665 C 426.821,180.615 425.982,179.768 424.946,179.768 H 402.1590000000001 A 1.887,1.887 0 0 0 400.2810000000001,181.665 V 300.568 C 400.2810000000001,301.616 401.1230000000001,302.469 402.162,302.469 H 417.973 C 418.684,302.469 419.223,302.102 419.621,301.46 420.014,300.821 420.581,295.978 420.581,295.978 420.581,295.978 429.899,304.8079999999999 447.538,304.8079999999999 468.246,304.8079999999999 480.122,294.3039999999999 480.122,257.6539999999999 480.122,221.0029999999999 461.155,216.2139999999999 448.339,216.2139999999999 M 198.936,218.695 H 181.891 L 181.865,196.176 C 181.865,195.324 181.426,194.898 180.441,194.898 H 157.213 C 156.31,194.898 155.825,195.296 155.825,196.163 V 219.434 C 155.825,219.434 144.185,222.243 143.398,222.471 A 1.886,1.886 0 0 0 142.037,224.283 V 238.906 C 142.037,239.958 142.877,240.804 143.916,240.804 H 155.825 V 275.982 C 155.825,302.112 174.153,304.679 186.521,304.679 192.172,304.679 198.932,302.865 200.048,302.451 200.723,302.203 201.115,301.504 201.115,300.746 L 201.134,284.66 C 201.134,283.61 200.248,282.763 199.25,282.763 198.257,282.763 195.716,283.167 193.1,283.167 184.728,283.167 181.891,279.274 181.891,274.235 L 181.89,240.8029999999999 H 198.936 C 199.975,240.8029999999999 200.816,239.9559999999999 200.816,238.905 V 220.5879999999999 A 1.884,1.884 0 0 0 198.936,218.6949999999999" id="path2" style="fill:#00ffff" />
</g>
</svg>
