<?xml version="1.0" encoding="UTF-8" standalone="no"?>
<svg xmlns:dc="http://purl.org/dc/elements/1.1/" xmlns:cc="http://creativecommons.org/ns#" xmlns:rdf="http://www.w3.org/1999/02/22-rdf-syntax-ns#" xmlns:svg="http://www.w3.org/2000/svg" xmlns="http://www.w3.org/2000/svg" id="Layer_1" viewBox="0 0 961.3 192.2773393461105" width="2500" height="500" version="1.1">
<metadata id="metadata29">
<rdf:RDF>
<cc:Work rdf:about="">
<dc:format>image/svg+xml</dc:format>
<dc:type rdf:resource="http://purl.org/dc/dcmitype/StillImage" />
<dc:title>wm_no_bg</dc:title>
</cc:Work>
</rdf:RDF>
</metadata>
<defs id="defs27" />
<style id="style2">.st0{fill:#8c929d}.st1{fill:#e24329}.st2{fill:#fc6d26}.st3{fill:#fca326}</style>
<title id="title4">wm_no_bg</title>
<g id="Page-1" transform="matrix(0.5408223249017948,0,0,0.5408223249017948,220.5128058981406,3.678332952032136)">
<g id="wm_no_bg">
<g id="word" transform="translate(498,107)">
<path id="Fill-2" class="st0" d="M 237,3.1 H 220.6 L 220.7,125 H 286.9 V 109.9 H 237 Z" />
<path id="Fill-3" class="st0" d="M 350,103.5 C 345.9,107.8 339,112.1 329.7,112.1 317.2,112.1 312.2,106 312.2,98 312.2,85.9 320.6,80.09999999999999 338.4,80.09999999999999 341.7,80.09999999999999 347.1,80.5 349.9,81 V 103.5 Z M 333.1,29.7 C 319.9,29.7 307.8,34.40000000000001 298.3,42.2 L 304.1,52.2 C 310.8,48.30000000000001 319,44.40000000000001 330.7000000000001,44.40000000000001 344.1,44.40000000000001 350.1,51.30000000000001 350.1,62.80000000000001 V 68.80000000000001 C 347.5,68.20000000000001 342.1,67.9 338.8,67.9 310.1,67.9 295.6,77.9 295.6,99 295.6,117.8 307.1,127.3 324.6,127.3 336.4,127.3 347.7000000000001,121.9 351.6,113.2 L 354.6,125.1 H 366 V 62.6 C 366,42.90000000000001 357.4,29.7 333.1,29.7 Z" />
<path id="Fill-5" class="st0" d="M 418.8,112.7 C 412.7,112.7 407.3,112 403.2,110.1 V 53.6 C 408.8,48.9 415.7,45.6 424.4,45.6 440.2,45.6 446.4,56.8 446.4,74.79999999999998 446.4,100.6 436.5,112.7 418.8,112.7 M 425.6999999999999,29.69999999999999 C 411.0999999999999,29.69999999999999 403.1999999999999,39.69999999999999 403.1999999999999,39.69999999999999 V 23.9 L 403.0999999999999,3.099999999999998 H 387.0999999999999 L 387.1999999999999,122 C 395.1999999999999,125.3 406.1999999999999,127.2 418.0999999999999,127.2 448.5999999999999,127.2 463.2999999999999,107.7 463.2999999999999,74 463.2999999999999,47.3 449.6999999999999,29.7 425.6999999999999,29.7" />
<path id="Fill-7" class="st0" d="M 59,16.3 C 73.5,16.3 82.79999999999998,21.1 89,26 L 96,13.8 C 86.4,5.400000000000003 73.5,0.8 59.8,0.8 25,0.8 0.6,22 0.6,64.79999999999998 0.6,109.6 26.9,127.1 57,127.1 72.09999999999999,127.1 84.9,123.6 93.29999999999998,120 L 93,72.09999999999999 V 57 H 48.3 V 72.09999999999999 H 76.79999999999998 L 77.09999999999999,108.5 C 73.39999999999999,110.4 66.89999999999999,111.8 58.1,111.8 33.89999999999999,111.8 17.69999999999999,96.59999999999999 17.69999999999999,64.5 17.69999999999999,32.1 34.5,16.3 59,16.3" />
<path id="Fill-9" class="st0" d="M 174.2,3.1 H 158.2 L 158.3,23.6 V 94.2 C 158.3,113.9 166.9,127.1 191.2,127.1 194.6,127.1 197.9,126.8 201.1,126.2 V 111.8 C 198.8,112.2 196.3,112.4 193.7,112.4 180.3,112.4 174.4,105.5 174.4,93.99999999999997 V 45.3 H 201 V 31.9 H 174.2 Z" />
<path id="Fill-11" class="st0" d="M 117.6,124.9 H 133.6 V 31.9 H 117.6 Z" />
<path id="Fill-13" class="st0" d="M 117.6,19.1 H 133.6 V 3.100000000000001 H 117.6 Z" />
</g>
<g id="logo">
<path id="Fill-14" class="st1" d="M 185.4,341.1 253.4,131.8 H 117.4 Z" />
<path id="Fill-16" class="st2" d="M 185.4,341.1 117.4,131.8 H 22.1 Z" />
<path id="Fill-18" class="st3" d="M 22.1,131.8 1.4,195.4 C -0.5,201.2 1.6,207.6 6.5,211.1 L 185.4,341.1 Z" />
<path id="Fill-20" class="st1" d="M 22.1,131.8 H 117.4 L 76.4,5.700000000000001 C 74.29999999999998,-0.8 65.09999999999999,-0.8 63,5.700000000000001 Z" />
<path id="Fill-21" class="st2" d="M 185.4,341.1 253.4,131.8 H 348.7 Z" />
<path id="Fill-22" class="st3" d="M 348.7,131.8 369.4,195.4 C 371.3,201.2 369.2,207.6 364.3,211.1 L 185.4,341.1 Z" />
<path id="Fill-23" class="st1" d="M 348.7,131.8 H 253.4 L 294.4,5.700000000000017 C 296.5,-0.7999999999999829 305.7,-0.7999999999999829 307.8,5.700000000000017 Z" />
</g>
</g>
</g>
</svg>
