<?xml version="1.0" encoding="UTF-8" standalone="no"?>
<svg xmlns:dc="http://purl.org/dc/elements/1.1/" xmlns:cc="http://creativecommons.org/ns#" xmlns:rdf="http://www.w3.org/1999/02/22-rdf-syntax-ns#" xmlns:svg="http://www.w3.org/2000/svg" xmlns="http://www.w3.org/2000/svg" height="500pt" viewBox="0 0 2500.101214574899 499.9999999999999" width="2500pt" version="1.1" id="svg8">
<metadata id="metadata14">
<rdf:RDF>
<cc:Work rdf:about="">
<dc:format>image/svg+xml</dc:format>
<dc:type rdf:resource="http://purl.org/dc/dcmitype/StillImage" />
<dc:title></dc:title>
</cc:Work>
</rdf:RDF>
</metadata>
<defs id="defs12" />
<path d="M 1126.550637806263,149.9999923702962 H 1165.150637806263 C 1156.640637806263,150.5299923702962 1148.200637806264,153.4399923702962 1141.540637806263,158.8399923702963 1133.380637806263,165.2799923702962 1127.920637806263,174.9799923702962 1126.550637806263,185.2799923702962 Z M 1334.680637806263,149.9999923702962 H 1373.550637806263 V 192.6399923702962 C 1373.400637806263,185.9199923702962 1372.550637806263,179.0899923702962 1369.450637806263,173.0399923702962 1363.230637806263,159.7299923702962 1349.310637806263,150.6799923702963 1334.680637806263,149.9999923702962 Z M 1360.730637806263,339.2199923702962 C 1368.300637806263,332.2399923702963 1372.610637806263,322.2699923702962 1373.550637806263,312.0999923702962 V 349.9999923702962 H 1338.070637806263 C 1346.500637806263,348.8799923702962 1354.600637806263,345.1399923702962 1360.730637806263,339.2199923702962 Z M 1126.550637806263,315.1999923702962 C 1128.700637806264,332.8499923702962 1143.640637806263,347.7899923702962 1161.280637806263,349.9999923702962 H 1126.550637806263 Z" fill="#ffffff" id="path2" />
<path d="M 1062.102576458374,28.62429353903484 H 1437.400798687011 C 1469.788063426025,30.12964829108742 1500.603560703336,50.16414903531659 1514.373129170641,79.62925454975746 1521.23577583441,93.02248432904876 1523.117469274476,108.1424445592239 1523.449532822723,123.0188915206847 V 145.3335619628759 C 1521.767077511605,151.2664306915537 1516.808261857785,156.6458601731533 1510.277678742263,156.5351723237377 1503.149381239896,157.1771618503483 1496.131771586945,151.1114677023718 1496.397422425543,143.8060696409402 1496.441697565309,129.4830619265576 1496.840173823205,114.6730276747462 1491.040130513826,101.2133851858055 1480.23699641086,73.36432227283279 1451.524568272446,53.86112320579866 1421.638848930226,54.10463647451305 1306.523485537969,54.10463647451305 1191.385984575831,54.01608619498055 1076.270621183575,54.1489116142793 1038.061175565299,54.1489116142793 1003.858630095869,87.66519241733226 1003.283053278908,125.8967756054911 1003.105952719843,207.1195195066809 1003.283053278908,288.3644009777539 1003.194502999375,369.6092824488268 1003.01740244031,385.7475708936257 1008.241868932728,401.8637217685416 1017.893849401771,414.8142001501703 1031.287079181062,433.1219704435157 1053.513199343721,444.8106073418063 1076.270621183575,444.8327449116894 1192.072249242208,444.7884697719232 1307.896014870723,444.8106073418063 1423.697642929356,444.8327449116894 1455.243680012811,444.76633220204 1484.664510387486,421.7875346633551 1493.276025072022,391.5918893427711 1498.323391005375,374.7230610918289 1495.666882619399,356.9687300455618 1496.331009715893,339.6792879668402 1365.874310394631,339.635012827074 1235.417611073368,339.7014255367234 1104.960911752106,339.635012827074 1090.925692446204,340.0999017946196 1076.558409592055,328.8982914337578 1076.912610710185,314.176807461479 1076.757647721003,265.5405664282508 1076.80192286077,216.9043253950226 1076.890473140302,168.2680843617945 1076.624822301705,161.2504747088435 1082.292040191785,154.14431477636 1089.575300683334,154.1664523462432 1097.389862852077,152.9488860026712 1104.805948762924,160.1878713544535 1103.986858677249,167.9802959533139 1103.876170827833,211.524895913423 1104.031133817015,255.047358303649 1103.898308397716,298.5919582637582 1103.986858677249,302.2003821547077 1103.809758118184,305.941631464956 1104.983049321989,309.4172299366068 1106.864742762055,312.6493151395433 1110.760955061485,311.8302250538676 1113.860214845123,312.0294631828157 1237.786331050863,311.9187753334001 1361.734584826486,312.0294631828157 1485.660701032226,311.9630504731663 1495.379094210918,312.3615267310626 1506.005127754819,310.679071419945 1514.926568417719,315.4607865147003 1521.523564242891,318.8256971369355 1523.471670392606,326.5295714562633 1523.449532822723,333.4143556899156 V 387.4743013445096 C 1521.368601253709,409.9882099156489 1511.827308634081,432.0593670891257 1495.069168232555,447.5113908675477 1481.498837894199,460.6168322383583 1463.567406288866,468.8962833746475 1444.905434877391,471.3756912015576 H 1053.535336913604 C 1014.48466363977,466.4832882573868 981.4111342343791,433.4097588519963 976.6515567095068,394.3369480082789 V 106.725640086704 C 979.6844037834953,83.92394310708407 991.7715169396822,62.45050032045171 1009.835773964313,48.19390531571848 1024.579395506475,36.23961757883036 1043.263504487834,29.79758474284065 1062.102576458374,28.62429353903484 Z" id="path4" style="stroke-width:2.21376;fill:#000000" />
<path d="M 1163.758297361689,156.4908971839714 C 1189.216502727284,149.5839753804361 1217.596867317452,168.6444230498077 1220.62971439144,194.8331682215459 1222.068656433843,210.9493190964617 1220.873227660154,227.1982953906764 1221.293841487934,243.3808589752415 1221.891555874778,258.2351683668192 1215.67089873762,273.3551285969943 1203.84943642003,282.6086328081411 1189.127952447752,294.6071956847954 1166.835419575444,296.1568255766143 1150.652855990878,286.1949191292075 1136.684049394626,278.0261558423339 1127.65192088231,261.9985552469506 1128.249635269155,245.7717165226191 1128.36032311857,230.2532800345477 1128.227497699272,214.7127059765931 1128.316047978804,199.1721319186386 1128.847349655999,179.1154936045263 1144.166548015122,160.7855857412979 1163.758297361689,156.4908971839714 M 1167.300308542989,181.3956633024883 C 1160.149873470739,184.2292722475285 1154.261279881828,191.2026067607132 1154.327692591477,199.1278567788724 1154.327692591477,216.0630977394639 1154.194867172179,232.9983387000554 1154.394105301127,249.9335796606468 1155.12464510727,263.4596348592369 1171.506446820783,272.0490119738899 1183.350046708256,265.9833178259133 1190.411931500973,262.8176453326263 1195.34860958491,255.4901097013116 1195.215784165611,247.675547532568 1195.237921735494,231.4487088082366 1195.41502229456,215.199732514022 1195.127233886079,198.9507562198074 1194.728757628182,185.6239391501655 1179.431696838942,176.4811227884343 1167.300308542989,181.3956633024883 Z M 1276.704178905399,156.424484474322 C 1300.856267647889,150.447340605878 1328.461817292147,165.6115759758194 1334.616061719656,190.0514531267906 1336.741268428437,199.4599203271192 1326.757224411147,208.6691493984997 1317.592270479532,205.0607255075501 1311.371613342374,203.4668204759651 1309.224269063711,197.135475489391 1306.944099365749,191.9110089969732 1300.059315132097,179.226181453942 1280.688941484361,176.9238741860969 1271.1919240045,187.9262464180106 1262.62468445973,196.9362373604429 1266.321658630212,210.1966417204355 1265.546843684303,221.353976941531 1265.967457512083,231.5593966576521 1264.550653039562,241.9419169328383 1266.454484049511,252.0366487995439 1270.284283639292,266.2046935247446 1290.230234103989,272.248250102838 1301.121918486487,262.3084812253144 1308.515866827451,257.3053904317279 1308.095252999672,245.1740021357747 1317.747233468714,243.0045202872283 1327.022875249744,239.5289218155776 1336.896231417618,249.3137277039193 1334.394686020825,258.6115070548323 1328.262579163199,281.5238918838679 1303.136437345851,296.1789631464974 1280.069089527634,292.2163381374178 1258.573509171118,289.449141902027 1239.933675329526,270.5879323616035 1239.247410663149,248.6053254676593 1238.804659265487,232.1128359047303 1238.716108985954,215.5539336321519 1239.313823372799,199.061444069223 1240.000088039176,178.3849537983832 1256.758228440702,160.453522193051 1276.704178905399,156.424484474322 Z M 1350.820762874105,167.9138832436645 C 1350.776487734339,160.984823870246 1357.174245430562,154.9855424319189 1364.036892094331,155.2733308403995 1370.988089037633,154.8969921523863 1377.319434024207,160.9626863003629 1377.297296454324,167.9138832436645 1377.474397013389,180.3994726577476 1377.253021314558,192.9071996417139 1377.34157159409,205.4149266256802 1392.882145652045,190.1400034063231 1407.957830742454,174.3780536495373 1423.719780499239,159.3687812687778 1429.763337077333,153.3916374003338 1441.230598276792,155.3840186898151 1444.68405917856,163.2207184284418 1447.495530553717,168.5115976305089 1445.945900661898,175.3299691545118 1441.606936964805,179.3368693033576 1430.582427163009,190.5163420943363 1419.380816802147,201.5408518961331 1408.312031860584,212.6760495473455 1420.775483704784,231.0723701202234 1433.416036108048,249.3580028436855 1445.968038231781,267.7100482767972 1449.819975391445,272.6245887908511 1449.886388101095,280.0628122715816 1446.034450941431,285.0216279254018 1440.898534728545,291.3972480517422 1429.586236518268,291.3086977722096 1425.003759552461,284.3132256891418 1412.983059105923,266.9130957610046 1401.050908938918,249.4465531232181 1389.140896341796,231.9800104854315 1385.156133762834,235.8098100752124 1381.215646323637,239.7281599445257 1377.34157159409,243.6686473837222 1377.164471035025,256.1985119375715 1377.673635142337,268.7283764914209 1377.142333465142,281.2361034753872 1375.636978713089,290.0689938587545 1364.678881620942,294.5186454052629 1357.218520570329,289.9804435792221 1352.591768464755,287.3903479028963 1350.400149046326,281.9223681417641 1350.754350164456,276.808589498762 1350.820762874105,240.5029748904351 1350.710075024689,204.1973602821083 1350.820762874105,167.9138832436645 Z" id="path6" style="stroke-width:2.21376;fill:#000000" />
</svg>
