<svg height="200pt" viewBox="0 0 247.01 200" width="247pt" xmlns="http://www.w3.org/2000/svg"><path d="m0 0h38.6c-8.51.53-16.95 3.44-23.61 8.84-8.16 6.44-13.62 16.14-14.99 26.44zm208.13 0h38.87v42.64c-.15-6.72-1-13.55-4.1-19.6-6.22-13.31-20.14-22.36-34.77-23.04zm26.05 189.22c7.57-6.98 11.88-16.95 12.82-27.12v37.9h-35.48c8.43-1.12 16.53-4.86 22.66-10.78zm-234.18-24.02c2.15 17.65 17.09 32.59 34.73 34.8h-34.73z" fill="#fff"/><path d="m38.6 0h169.53c14.63.68 28.55 9.73 34.77 23.04 3.1 6.05 3.95 12.88 4.1 19.6v10.08c-.76 2.68-3 5.11-5.95 5.06-3.22.29-6.39-2.45-6.27-5.75.02-6.47.2-13.16-2.42-19.24-4.88-12.58-17.85-21.39-31.35-21.28-52 0-104.01-.04-156.01.02-17.26 0-32.71 15.14-32.97 32.41-.08 36.69 0 73.39-.04 110.09-.08 7.29 2.28 14.57 6.64 20.42 6.05 8.27 16.09 13.55 26.37 13.56 52.31-.02 104.63-.01 156.94 0 14.25-.03 27.54-10.41 31.43-24.05 2.28-7.62 1.08-15.64 1.38-23.45-58.93-.02-117.86.01-176.79-.02-6.34.21-12.83-4.85-12.67-11.5-.07-21.97-.05-43.94-.01-65.91-.12-3.17 2.44-6.38 5.73-6.37 3.53-.55 6.88 2.72 6.51 6.24-.05 19.67.02 39.33-.04 59 .04 1.63-.04 3.32.49 4.89.85 1.46 2.61 1.09 4.01 1.18 55.98-.05 111.97 0 167.95-.03 4.39.18 9.19-.58 13.22 1.58 2.98 1.52 3.86 5 3.85 8.11v24.42c-.94 10.17-5.25 20.14-12.82 27.12-6.13 5.92-14.23 9.66-22.66 10.78h-176.79c-17.64-2.21-32.58-17.15-34.73-34.8v-129.92c1.37-10.3 6.83-20 14.99-26.44 6.66-5.4 15.1-8.31 23.61-8.84z"/><path d="m84.52 57.76c11.5-3.12 24.32 5.49 25.69 17.32.65 7.28.11 14.62.3 21.93.27 6.71-2.54 13.54-7.88 17.72-6.65 5.42-16.72 6.12-24.03 1.62-6.31-3.69-10.39-10.93-10.12-18.26.05-7.01-.01-14.03.03-21.05.24-9.06 7.16-17.34 16.01-19.28m1.6 11.25c-3.23 1.28-5.89 4.43-5.86 8.01 0 7.65-.06 15.3.03 22.95.33 6.11 7.73 9.99 13.08 7.25 3.19-1.43 5.42-4.74 5.36-8.27.01-7.33.09-14.67-.04-22.01-.18-6.02-7.09-10.15-12.57-7.93zm49.42-11.28c10.91-2.7 23.38 4.15 26.16 15.19.96 4.25-3.55 8.41-7.69 6.78-2.81-.72-3.78-3.58-4.81-5.94-3.11-5.73-11.86-6.77-16.15-1.8-3.87 4.07-2.2 10.06-2.55 15.1.19 4.61-.45 9.3.41 13.86 1.73 6.4 10.74 9.13 15.66 4.64 3.34-2.26 3.15-7.74 7.51-8.72 4.19-1.57 8.65 2.85 7.52 7.05-2.77 10.35-14.12 16.97-24.54 15.18-9.71-1.25-18.13-9.77-18.44-19.7-.2-7.45-.24-14.93.03-22.38.31-9.34 7.88-17.44 16.89-19.26zm33.48 5.19c-.02-3.13 2.87-5.84 5.97-5.71 3.14-.17 6 2.57 5.99 5.71.08 5.64-.02 11.29.02 16.94 7.02-6.9 13.83-14.02 20.95-20.8 2.73-2.7 7.91-1.8 9.47 1.74 1.27 2.39.57 5.47-1.39 7.28-4.98 5.05-10.04 10.03-15.04 15.06 5.63 8.31 11.34 16.57 17.01 24.86 1.74 2.22 1.77 5.58.03 7.82-2.32 2.88-7.43 2.84-9.5-.32-5.43-7.86-10.82-15.75-16.2-23.64-1.8 1.73-3.58 3.5-5.33 5.28-.08 5.66.15 11.32-.09 16.97-.68 3.99-5.63 6-9 3.95-2.09-1.17-3.08-3.64-2.92-5.95.03-16.4-.02-32.8.03-49.19z"/></svg>