<?xml version="1.0" encoding="UTF-8" standalone="no"?>
<svg xmlns:dc="http://purl.org/dc/elements/1.1/" xmlns:cc="http://creativecommons.org/ns#" xmlns:rdf="http://www.w3.org/1999/02/22-rdf-syntax-ns#" xmlns:svg="http://www.w3.org/2000/svg" xmlns="http://www.w3.org/2000/svg" width="2500" height="500" viewBox="0 0 1874.849922749409 374.9150244462176" version="1.1" id="svg32">
<metadata id="metadata38">
<rdf:RDF>
<cc:Work rdf:about="">
<dc:format>image/svg+xml</dc:format>
<dc:type rdf:resource="http://purl.org/dc/dcmitype/StillImage" />
<dc:title>SVG export Illustrator</dc:title>
</cc:Work>
</rdf:RDF>
</metadata>
<defs id="defs36" />
<title id="title2">SVG export Illustrator</title>
<g id="g877" transform="matrix(0.2303856438397213,0,0,0.2303856438397213,707.0393175349832,14.65215234824903)">
<path d="M 1941,884.11 C 1941,840.5199999999997 1896.37,801.61 1848.12,801.61 H 1635.16 L 2000,326.46 H 1696.11 L 1332.11,801.6099999999994 V 326.46 H 1009.11 V 1049.22 H 968.1 V 326.46 H 718 V 801.61 H 359.39 V 0 H 0 V 1224.08 H 359.39 V 1049.22 H 718 V 1224.08 H 1333 V 1049.22 H 1691.53 V 1224.08 H 1941 Z" style="fill:#ed1c24;fill-rule:evenodd" id="path4" />
<polygon points="86.31999999999999,1425.5 35.4,1425.5 35.4,1496.94 0,1496.94 0,1336.88 35.4,1336.88 35.4,1399.1 86.31999999999999,1399.1 86.31999999999999,1336.88 122.53,1336.88 122.53,1496.94 86.31999999999999,1496.94 " style="fill:#231f20" id="polygon6" />
<polygon points="197.16,1469.32 264.18,1469.32 264.18,1496.94 160.96,1496.94 160.96,1336.88 261.89,1336.88 257.35,1363.1 196.7,1363.1 196.7,1400.2 247.39,1400.2 247.39,1426.44 197.16,1426.44 " style="fill:#231f20" id="polygon8" />
<path d="M 390.06,1367.92 C 381.06,1361.92 371.7,1358.92 361.77,1358.92 349.84,1358.92 338.08,1364.24 331.77,1372.77 324.82,1381.98 321.77,1395.35 321.77,1414.01 321.77,1435.88 323.84,1448.1 329.15,1456.85 336.23,1468.57 347.99,1474.77 363.31,1474.77 374.31,1474.77 383.17,1472.05 393.61,1464.41 L 409.9,1484.7 C 395.9,1495.09 380.9,1499.7 360.76,1499.7 336.23,1499.7 317.39,1492.53 302.92,1477.56 288.67,1463.07 281.5,1443.73 281.5,1420.22 281.5,1400.22 285.31,1384.3 293.43,1370.47 307.2599999999999,1347.23 332.67,1333.41 361.25,1333.41 378.86,1333.41 396.42,1338.49 406.11,1346.08 Z" style="fill:#231f20" id="path10" />
<polygon points="466.48,1413.32 466.48,1496.94 430.05,1496.94 430.05,1336.88 466.48,1336.88 466.48,1409.89 516.88,1336.88 560.74,1336.88 504.24,1411.02 567.12,1496.94 520.24,1496.94 " style="fill:#231f20" id="polygon12" />
<polygon points="625.1799999999999,1470.22 688.64,1470.22 682.27,1496.94 588.75,1496.94 588.75,1336.88 625.1799999999999,1336.88 " style="fill:#231f20" id="polygon14" />
<polygon points="748.8,1469.32 815.77,1469.32 815.77,1496.94 712.59,1496.94 712.59,1336.88 813.47,1336.88 808.87,1363.1 748.3,1363.1 748.3,1400.2 798.98,1400.2 798.98,1426.44 748.8,1426.44 " style="fill:#231f20" id="polygon16" />
<path d="M 906.94,1336.63 C 922.49,1336.63 935.25,1341.46 944.1400000000001,1349.49 953.6000000000001,1357.61 958.9700000000001,1369.58 958.9700000000001,1383.83 958.9700000000001,1407.83 941.3900000000001,1427.58 919.4600000000001,1428.04 A 34,34 0 0 1 926.8600000000001,1434.76 C 937.0800000000001,1446.24 969.3900000000001,1496.94 969.3900000000001,1496.94 H 927.3900000000001 C 920.57,1486.29 917.7,1481.94 910.82,1470.65 893.22,1441.87 887.6299999999996,1434.25 881.5599999999999,1431.55 A 15.33,15.33 0 0 0 875.9199999999998,1430.12 V 1496.94 H 841 V 1336.63 Z M 875.94,1405.94 H 887.94 C 903.21,1405.94 909.7999999999999,1404.54 914.6699999999998,1400.65 918.97,1396.94 921.5499999999999,1391.24 921.5499999999999,1384.57 921.5499999999999,1374.63 917.21,1367.92 908.83,1364.98 904.7699999999997,1363.53 897.35,1362.63 888.74,1362.63 H 875.8999999999997 Z" style="fill:#231f20" id="path18" />
<path d="M 1214.55,1418.61 C 1214.55,1427.16 1214.08,1435.9 1212.47,1443.49 A 70.09,70.09 0 0 1 1206.39,1462.84 L 1244.31,1496.94 H 1197 L 1186.3,1487.24 C 1174.86,1496.24 1159.3,1500.14 1137.66,1500.14 1096.92,1500.14 1073.73,1484.26 1073.73,1456.62 1073.73,1438.67 1084.17,1425.76 1105.56,1416.75 1096.37,1410.31 1091.8,1405.94 1089.04,1400.44 1086.68,1396.04 1084.92,1388.23 1084.92,1382.24 1084.92,1359.42 1105.81,1343.52 1135.86,1343.52 1166.22,1343.52 1187.63,1358.52 1187.63,1379.91 A 32,32 0 0 1 1178.89,1402.03 C 1173.89,1407.1 1168.18,1410.81 1156.5,1416.31 L 1154.22,1417.46 1183.77,1442.78 A 46.88,46.88 0 0 0 1185.77,1430.78 C 1186.04,1425.95 1186.04,1422.72 1186.04,1418.58 Z M 1110.11,1454.78 C 1110.11,1469.32 1120.5,1477.56 1138.59,1477.56 1150.83,1477.56 1159.74,1475.02 1165.38,1469.75 L 1123.85,1433.6 C 1114.64,1438.67 1110.11,1445.6 1110.11,1454.78 M 1151.88,1380.34 C 1151.88,1371.42 1145.21,1364.98 1136.05,1364.98 1126.41,1364.98 1119.75,1370.92 1119.75,1379.91 1119.75,1386.58 1122.31,1390.29 1133,1400.2 1133.51,1400.65 1134.26,1401.39 1135,1402.03 1145.93,1396.94 1151.84,1389.37 1151.84,1380.34" style="fill:#231f20" id="path20" />
<polygon points="1387.78,1413.32 1387.78,1496.94 1351.44,1496.94 1351.44,1336.88 1387.78,1336.88 1387.78,1409.89 1438.24,1336.88 1482.09,1336.88 1425.56,1411.02 1488.41,1496.94 1441.59,1496.94 " style="fill:#231f20" id="polygon22" />
<path d="M 1627.31,1353.45 C 1642.55,1367.45 1651.04,1388.9 1651.04,1416.05 1651.04,1452.21 1637.04,1479.17 1611.53,1492.12 1600.83,1497.37 1590.88,1499.41 1576.05,1499.41 1549.32,1499.41 1532.05,1492.76 1518.52,1476.89 1505.03,1461.23 1498.1,1440.96 1498.1,1417.46 1498.1,1382.93 1512.9,1355.28 1538.1,1342.63 1548.59,1337.54 1561.6,1334.79 1574.83,1334.79 1596.5,1334.79 1614.34,1341.46 1627.33,1353.45 M 1546.79,1373.73 C 1540.68,1384.07 1537.91,1398.15 1537.91,1417.46 1537.91,1445.06 1543.26,1462.16 1553.69,1469.32 1559.31,1472.96 1566.43,1474.79 1574.83,1474.79 1583.48,1474.79 1590.64,1472.79 1596,1468.09 1605.62,1459.83 1610,1443.29 1610,1416.99 1610,1400.65 1608.51,1388.9 1605.38,1379.91 1602.63,1371.91 1593.2,1359.68 1574.38,1359.68 1562.38,1359.68 1551.69,1365.14 1546.85,1373.68" style="fill:#231f20" id="path24" />
<path d="M 1778.1,1367.92 A 49.66,49.66 0 0 0 1749.83,1358.92 C 1737.83,1358.92 1726.15,1364.24 1719.77,1372.77 1712.9,1381.98 1709.86,1395.35 1709.86,1414.01 1709.86,1435.88 1711.91,1448.1 1717.26,1456.85 1724.36,1468.57 1736.1,1474.77 1751.33,1474.77 1762.33,1474.77 1771.23,1472.05 1781.71,1464.41 L 1798.01,1484.7 C 1784.01,1495.09 1768.94,1499.7 1748.82,1499.7 1724.36,1499.7 1705.52,1492.53 1691,1477.56 1676.69,1463.07 1669.63,1443.73 1669.63,1420.22 1669.63,1400.22 1673.42,1384.3 1681.56,1370.47 1695.33,1347.23 1720.81,1333.41 1749.4,1333.41 1766.94,1333.41 1784.48,1338.49 1794.22,1346.08 Z" style="fill:#231f20" id="path26" />
<polygon points="1904.75,1425.5 1853.79,1425.5 1853.79,1496.94 1818.41,1496.94 1818.41,1336.88 1853.79,1336.88 1853.79,1399.1 1904.75,1399.1 1904.75,1336.88 1940.95,1336.88 1940.95,1496.94 1904.75,1496.94 " style="fill:#231f20" id="polygon28" />
<path d="M 1858.49,641.57 C 1882.89,641.57 1902.37,660.75 1902.37,684.73 1902.37,709.1 1882.89,728.12 1858.27,728.12 1833.84,728.12 1813.99,709.12 1813.99,684.73 1813.99,660.73 1833.84,641.57 1858.27,641.57 Z M 1858.27,648.25 C 1838.63,648.25 1822.53,664.5599999999999 1822.53,684.73 1822.53,705.2699999999997 1838.63,721.3999999999997 1858.53,721.3999999999997 1878.39,721.5699999999999 1894.26,705.2699999999997 1894.26,684.9299999999999 1894.26,664.5899999999999 1878.39,648.25 1858.53,648.25 Z M 1850,709.8899999999996 H 1842 V 661.7 A 94.2,94.2 0 0 1 1856.11,660.5599999999999 C 1863.65,660.5599999999999 1868.61,662.08 1871.59,664.1799999999999 1874.57,666.2799999999997 1876.15,669.58 1876.15,674.1799999999999 1876.15,680.5299999999997 1871.78,684.36 1866.43,685.9099999999998 V 686.2899999999998 C 1870.8,687.0599999999999 1873.76,690.8999999999997 1874.73,697.9900000000001 1875.96,705.4600000000001 1877.15,708.3600000000001 1877.96,709.9199999999998 H 1869.57 C 1868.41,708.3600000000001 1867.22,703.9199999999998 1866.22,697.6300000000001 1865.06,691.4800000000001 1861.83,689.19 1855.49,689.19 H 1850 Z M 1850,683.21 H 1855.75 C 1862.28,683.21 1867.83,680.86 1867.83,674.94 1867.83,670.72 1864.69,666.5100000000001 1855.75,666.5100000000001 A 34.9,34.9 0 0 0 1850,666.8900000000001 Z" style="fill:#ed1c24" id="path30" />
</g>
</svg>
