<?xml version="1.0" encoding="UTF-8" standalone="no"?>
<svg xmlns:dc="http://purl.org/dc/elements/1.1/" xmlns:cc="http://creativecommons.org/ns#" xmlns:rdf="http://www.w3.org/1999/02/22-rdf-syntax-ns#" xmlns:svg="http://www.w3.org/2000/svg" xmlns="http://www.w3.org/2000/svg" width="2500" height="500" viewBox="221.807 89.47 621.1180124223603 124.2122" enable-background="new 221.807 89.47 440 621.061" version="1.1" id="svg29">
<metadata id="metadata35">
<rdf:RDF>
<cc:Work rdf:about="">
<dc:format>image/svg+xml</dc:format>
<dc:type rdf:resource="http://purl.org/dc/dcmitype/StillImage" />
<dc:title></dc:title>
</cc:Work>
</rdf:RDF>
</metadata>
<defs id="defs33" />
<filter id="a" width="1.5" height="1.5" x="-0.05000000074505806" y="-0.05000000074505806">
<feFlood flood-color="#000" result="floodFill" flood-opacity=".5" id="feFlood2" />
<feComposite in="floodFill" in2="SourceAlpha" operator="in" result="coloredAlpha" id="feComposite4" />
<feGaussianBlur in="coloredAlpha" result="blur" stdDeviation="8" id="feGaussianBlur6" />
<feComposite in="blur" in2="SourceGraphic" operator="out" result="maskedOffsetBlur" id="feComposite8" />
<feMerge id="feMerge14">
<feMergeNode in="maskedOffsetBlur" id="feMergeNode10" />
<feMergeNode in="SourceGraphic" id="feMergeNode12" />
</feMerge>
</filter>
<g id="g870" transform="matrix(0.6955547084611819,0,0,0.6955547084611818,373.9930716836841,200.4272475346209)">
<path fill="#e44d26" d="M 275.9974740721393,442.760499289056 235.9554740721393,-6.364500710943901 H 675.955474072139 L 635.8694740721391,442.689499289056 455.6854740721393,492.6434992890557 Z" id="path17" style="filter:url(#a)" transform="matrix(0.1941806790543668,0,0,0.1941806790543668,172.4094545652442,-106.8548658578492)" />
<path fill="#f16529" d="M 455.9554740721393,454.461499289056 601.5514740721389,414.0944992890557 635.8094740721392,30.359499289056 H 455.9554740721393 Z" id="path19" style="filter:url(#a)" transform="matrix(0.1941806790543668,0,0,0.1941806790543668,172.4094545652442,-106.8548658578492)" />
<path fill="#ebebeb" d="M 455.9554740721393,196.933499289056 H 383.0674740721393 L 378.0324740721393,140.527499289056 H 455.9554740721393 V 85.44349928905596 H 317.8314740721393 L 319.1514740721393,100.221499289056 332.6894740721393,252.0154992890561 H 455.9554740721393 Z M 455.9554740721393,339.9894992890558 455.7134740721393,340.055499289056 394.3674740721393,323.4894992890558 390.4454740721393,279.559499289056 H 335.1514740721393 L 342.8694740721393,366.0484992890559 455.7034740721393,397.3714992890559 455.9554740721393,397.3004992890554 Z" id="path21" style="filter:url(#a)" transform="matrix(0.1941806790543668,0,0,0.1941806790543668,172.4094545652442,-106.8548658578492)" />
<path d="M 276.8934740721393,-128.416500710944 H 304.8854740721393 V -100.760500710944 H 330.4914740721393 V -128.416500710944 H 358.4844740721393 V -44.66650071094401 H 330.4914740721393 V -72.710500710944 H 304.8854740721393 V -44.66650071094401 H 276.8954740721393 Z M 395.2974740721393,-100.642500710944 H 370.6554740721393 V -128.416500710944 H 447.9484740721393 V -100.642500710944 H 423.2944740721393 V -44.66650071094401 H 395.2984740721392 V -100.642500710944 Z M 460.2134740721393,-128.416500710944 H 489.4034740721393 L 507.3584740721393,-98.98850071094399 525.2964740721389,-128.416500710944 H 554.4964740721392 V -44.66650071094401 H 526.614474072139 V -86.17850071094399 L 507.3554740721393,-56.40050071094402 H 506.8744740721393 L 487.6024740721393,-86.17850071094399 V -44.66650071094401 H 460.2124740721393 V -128.416500710944 Z M 568.4254740721393,-128.416500710944 H 596.4254740721393 V -72.34850071094399 H 635.793474072139 V -44.66650071094401 H 568.4254740721393 Z" id="path23" style="filter:url(#a)" transform="matrix(0.1941806790543668,0,0,0.1941806790543668,172.4094545652442,-106.8548658578492)" />
<path fill="#ffffff" d="M 455.7654740721393,196.933499289056 V 252.015499289056 H 523.5954740721391 L 517.2004740721389,323.4554992890556 455.7654740721393,340.035499289056 V 397.342499289056 L 568.6894740721393,366.0484992890559 569.5154740721391,356.7394992890558 582.4614740721392,211.7254992890561 583.8054740721394,196.9334992890561 H 568.9634740721393 Z M 455.7654740721393,85.44349928905596 V 140.527499289056 H 588.8184740721391 L 589.9214740721389,128.145499289056 592.431474072139,100.221499289056 593.7494740721388,85.44349928905596 Z" id="path25" style="filter:url(#a)" transform="matrix(0.1941806790543668,0,0,0.1941806790543668,172.4094545652442,-106.8548658578492)" />
</g>
</svg>
