<?xml version="1.0" encoding="UTF-8" standalone="no"?>
<svg xmlns:dc="http://purl.org/dc/elements/1.1/" xmlns:cc="http://creativecommons.org/ns#" xmlns:rdf="http://www.w3.org/1999/02/22-rdf-syntax-ns#" xmlns:svg="http://www.w3.org/2000/svg" xmlns="http://www.w3.org/2000/svg" width="2500" height="500" viewBox="0 0 192.756 38.5512" version="1.1" id="svg8">
<metadata id="metadata14">
<rdf:RDF>
<cc:Work rdf:about="">
<dc:format>image/svg+xml</dc:format>
<dc:type rdf:resource="http://purl.org/dc/dcmitype/StillImage" />
<dc:title></dc:title>
</cc:Work>
</rdf:RDF>
</metadata>
<defs id="defs12" />
<g fill-rule="evenodd" clip-rule="evenodd" id="g6" transform="matrix(0.1849748724437041,0,0,0.1849748724437041,78.55049174362063,1.448091743620685)">
<path fill="#ffffff" d="M 0,0 H 192.756 V 192.756 H 0 Z" id="path2" />
<path fill="#377bbf" d="M 25.2,57.541 H 36.202 V 67.85399999999998 H 25.2 Z M 25.024,73.414 H 36.36700000000001 V 117.464 H 25.024 Z M 131.803,99.31 C 136.953,99.31 141.332,102.663 141.727,108.796 H 121.456 C 122.029,103.315 125.873,99.31 131.803,99.31 Z M 165.295,117.476 V 57.528 H 154.154 V 110.76 L 153.24,110.768 C 151.931,99.15299999999999 143.211,90.30899999999998 131.761,90.30899999999998 120.146,90.30899999999998 111.273,98.49099999999998 109.845,108.918 H 109.357 C 105.171,108.918 103.668,107.451 103.668,103.204 L 103.664,81.94299999999998 H 111.842 V 73.35099999999998 H 103.309 V 57.54099999999998 H 92.76 V 73.35099999999998 H 85.25799999999999 V 82.00199999999998 H 92.25499999999999 V 106.557 C 92.25499999999999,115.548 96.57100000000001,118.05 103.238,118.05 106,118.05 109.718,117.964 109.718,117.964 111.396,130.123 121.864,137.42 131.802,137.42 141.493,137.42 150.081,131.205 152.042,122.373 H 140.757 C 139.366,125.767 136.341,127.933 131.761,127.933 125.011,127.933 121.906,121.798 121.454,117.476 Z M 56.58700000000001,87.194 C 57.95600000000001,84.22199999999999 60.79000000000002,82.81799999999998 63.878,82.81799999999998 69.284,82.81799999999998 71.968,86.402 71.968,92.4 V 117.477 H 83.287 C 83.287,117.477 83.28800000000001,90.36299999999998 83.304,90.36299999999998 83.304,87.07099999999998 83.21099999999998,85.22799999999999 82.471,82.60399999999998 80.98099999999999,77.32899999999999 76.006,72.465 67.90100000000001,72.465 60.37500000000002,72.465 57.58600000000001,76.558 55.69500000000001,79.80599999999998 H 55.44300000000001 L 55.59400000000001,73.37899999999999 H 44.20400000000001 V 117.477 H 55.54 V 93.483 C 55.54,90.894 55.84000000000001,88.813 56.58700000000001,87.194 Z M 179.439,106.112 C 182.609,106.112 185.265,108.614 185.265,111.891 185.265,115.231 182.609,117.733 179.439,117.733 176.255,117.733 173.584,115.231 173.584,111.891 173.584,108.614 176.256,106.112 179.439,106.112 Z M 179.439,116.878 C 182.127,116.878 184.209,114.733 184.209,111.892 184.209,109.111 182.127,106.967 179.439,106.967 176.722,106.967 174.638,109.111 174.638,111.892 174.639,114.733 176.723,116.878 179.439,116.878 Z M 177.172,108.521 H 179.795 C 181.412,108.521 182.174,109.157 182.174,110.461 182.174,111.69 181.397,112.201 180.389,112.311 L 182.328,115.309 H 181.195 L 179.347,112.388 H 178.228 V 115.309 H 177.171 V 108.521 Z M 178.229,111.534 H 179.333 C 180.265,111.534 181.12,111.488 181.12,110.416 181.12,109.515 180.343,109.374 179.626,109.374 H 178.23 V 111.534 Z" id="path4" />
</g>
</svg>
