<?xml version="1.0" encoding="UTF-8" standalone="no"?>
<svg xmlns:dc="http://purl.org/dc/elements/1.1/" xmlns:cc="http://creativecommons.org/ns#" xmlns:rdf="http://www.w3.org/1999/02/22-rdf-syntax-ns#" xmlns:svg="http://www.w3.org/2000/svg" xmlns="http://www.w3.org/2000/svg" width="2500" height="500" viewBox="6.527 4.399 540.9765625 108.1812" version="1.1" id="svg16">
<metadata id="metadata22">
<rdf:RDF>
<cc:Work rdf:about="">
<dc:format>image/svg+xml</dc:format>
<dc:type rdf:resource="http://purl.org/dc/dcmitype/StillImage" />
<dc:title></dc:title>
</cc:Work>
</rdf:RDF>
</metadata>
<defs id="defs20" />
<g id="g870" transform="matrix(1.033812592556833,0,0,1.033812592556833,-57.63534887867583,8.734350052102325)">
<path d="M 302.4093585013793,88.25652162132394 H 302.0209027772748 V 88.03912371976325 H 303.0670825035571 V 88.25652162132394 H 302.6809151784165 V 89.34122273016348 H 302.4093585013793 Z M 304.4959969565344,88.31315949567789 H 304.4898945592976 L 304.1046807337252,89.34160412999078 H 303.9284740135129 L 303.5459299867316,88.31315949567789 H 303.541353188804 V 89.34160412999078 H 303.2852432047724 V 88.03950511959057 H 303.6620662341442 L 304.0167680735327,88.96153920208691 304.3703257134392,88.03950511959057 H 304.7458138434155 V 89.34160412999078 H 304.4958062566207 Z" fill="#e76f00" id="path2" style="stroke-width:0.1907" />
<path d="M 267.6213081536585,61.63080897763801 C 267.6213081536585,61.63080897763801 264.9175647779329,63.20312976567986 269.545470282384,63.73518252476253 275.1520477436855,64.37479003514366 278.017504646186,64.28306337667814 284.1959911485229,63.11369150617814 284.1959911485229,63.11369150617814 285.8203730129911,64.13221974498121 288.088939185768,65.01439754552478 274.2384044573897,70.95050445761289 256.7424501796836,64.67056560121436 267.6213081536585,61.63080897763801 M 265.9288464200174,53.88457848518685 C 265.9288464200174,53.88457848518685 262.8963363931597,56.12930716875757 267.5276744960565,56.60834535184564 273.5167959841392,57.22621307207069 278.2465352424793,57.27674854918787 286.4308034365839,55.70080446278667 286.4308034365839,55.70080446278667 287.5629888239222,56.84843654313061 289.3429818179286,57.47602995895181 272.5966689007794,62.37282234164901 253.9445010466151,57.86219728409247 265.9288464200174,53.88457848518685" fill="#5382a1" id="path4" style="stroke-width:0.1907" />
<path d="M 280.1968232593749,40.74440093515369 C 283.6095889140501,44.67358195599229 279.3003429653076,48.20953975488518 279.3003429653076,48.20953975488518 279.3003429653076,48.20953975488518 287.9655563416367,43.73610118049032 283.9860305435946,38.13429121703013 280.2690985266481,32.91006708259638 277.4187069173259,30.31464125782384 292.8495718301194,21.36528501015667 292.849762530033,21.36509431024302 268.628203697729,27.41447697103907 280.1968232593749,40.74440093515369" fill="#e76f00" id="path6" style="stroke-width:0.1907" />
<path d="M 298.5152662646522,67.3603878832435 C 298.5152662646522,67.3603878832435 300.516089758665,69.00917933665887 296.3117287624298,70.28438965923449 288.3170162824931,72.70627856258576 263.0368822295195,73.43761273143239 256.0141672094554,70.38107451545488 253.4896817525605,69.28264301283256 258.2238071089145,67.75856930294411 259.7129827346051,67.43876554775353 261.2660428313683,67.10198950024816 262.1535602294941,67.1647297718389 262.1535602294941,67.1647297718389 259.3460761007431,65.18698096737779 244.0071285463288,71.04795211348792 254.3621338575079,72.72668345334631 282.6017398704114,77.30634187964405 305.8404313477648,70.66445458713836 298.5152662646522,67.3603878832435 M 268.9215001649222,45.85859121941157 C 268.9215001649222,45.85859121941157 256.0624142876087,48.91284103642531 264.3677769268808,50.02195173421201 267.8745576389853,50.49145492161759 274.8652350735563,50.38523506971471 281.3766836251256,49.83964261676288 286.6983554154344,49.39073502003147 292.0421483957265,48.43647265212833 292.0421483957265,48.43647265212833 292.0421483957265,48.43647265212833 290.1656612454134,49.2400820882482 288.8080685601411,50.16688366858578 275.7498919729773,53.60138911341703 250.5239166954802,52.00351453694613 257.7861508070885,48.49063142760486 263.9278322260909,45.52181517190619 268.9215001649222,45.85859121941157 268.9215001649222,45.85859121941157 M 291.9891338197319,58.75257518092296 C 305.2633734090608,51.85476860429935 299.1260780880722,45.22584890592185 294.8420045279315,46.11908730145707 293.7920108033762,46.33762940249964 293.3238425153662,46.5269944167538 293.3238425153662,46.5269944167538 293.3238425153662,46.5269944167538 293.7138238387798,45.91637329324743 294.457934901841,45.65206321292894 302.9328297643477,42.67256776206589 309.4505714130675,54.43970593382115 291.7221539406223,59.10041182342003 291.7221539406223,59.10041182342003 291.9279191474503,58.91695850648901 291.9891338197319,58.75257518092296" fill="#5382a1" id="path8" style="stroke-width:0.1907" />
<path d="M 283.9860305435946,6.914236253695423 C 283.9860305435946,6.914236253695423 291.3375122147908,14.26800632385548 277.0134696008203,25.57651120328318 265.5270417019574,34.64753399585887 274.3942062868416,39.81969705386625 277.0087021029791,45.72929667795708 270.3040745388826,39.67972331724737 265.3836353668928,34.35461892849291 268.6846508721693,29.39832817273699 273.5295728783538,22.12293576708696 286.9521770005022,18.59555946430831 283.9860305435946,6.91423625369542" fill="#e76f00" id="path10" style="stroke-width:0.1907" />
<path d="M 270.2258875742862,77.44402721729912 C 282.9675023047915,78.25965074797892 302.5336948450789,76.99149632220836 302.996904935334,70.96270925208648 302.996904935334,70.96270925208648 302.1063363385899,73.24805701726457 292.4666464035108,75.06332949529614 281.5916024278088,77.10973026867114 268.1783426014293,76.87097397678172 260.2229143037044,75.55933997069901 260.2232957035317,75.55895857087172 261.8516822661866,76.90701626046154 270.2258875742862,77.44402721729909" fill="#5382a1" id="path12" style="stroke-width:0.1907" />
<path d="M 363.0242731565445,56.11860619862592 C 361.8222916008104,57.16116262654892 360.5528022756443,57.74642066153992 359.4135609915009,57.74642066153992 357.7874628278099,57.74642066153992 356.9089083256257,56.77137200304892 356.9089083256257,55.20744201120767 356.9089083256257,53.51574307722111 357.8503937993143,52.27886343728907 361.6266334894058,52.27886343728907 H 363.0240824566309 L 363.0242731565445,56.11860619862592 M 366.3409260547403,59.86071060417422 V 48.2772164492636 C 366.3409260547403,45.31793518924743 364.6532318189403,43.36554947330172 360.5840770614829,43.36554947330172 358.2085282371484,43.36554947330172 356.1276107794028,43.95214240768821 354.4362932452435,44.70025816893603 L 354.9244850241868,46.7506636404977 C 356.2561425212027,46.26189976181349 357.9798790406824,45.80688976784529 359.6717686745826,45.80688976784529 362.0158520131648,45.80688976784529 363.0242731565445,46.7506636404977 363.0242731565445,48.70190515696151 V 50.16609909396396 H 361.8543291863035 C 356.159076265155,50.16609909396396 353.5899670284661,52.37688319290504 353.5899670284661,55.69506169040992 353.5899670284661,58.55899299360133 355.2830008618483,60.18680745651522 358.4707406184168,60.18680745651522 360.5198111905829,60.18680745651522 362.0494151979672,59.34067193965142 363.4792831505127,58.10264810023753 L 363.73882573299,59.86109200400143 Z M 377.4097211427103,59.86071060417422 H 373.2732493157344 L 368.2948373699952,43.65884594049498 H 371.9074565341752 L 374.9964137354732,53.61319073309613 375.6831241245258,56.60698867748293 C 377.2459099168852,52.27848203746182 378.3513973163125,47.88704442593632 378.9042363659831,43.65884594049498 H 382.4182636748062 C 381.476587501204,48.99386672475925 379.7824094683399,54.84987967311448 377.4097211427103,59.86071060417422 M 393.2786237571571,56.11860619862592 C 392.0743538024592,57.16116262654892 390.802766778243,57.74642066153992 389.6633347941859,57.74642066153992 388.0400971291996,57.74642066153992 387.1592542280516,56.77137200304892 387.1592542280516,55.20744201120767 387.1592542280516,53.51574307722111 388.1026467008767,52.27886343728907 391.8786956910546,52.27886343728907 H 393.2786237571571 V 56.11860619862592 M 396.5948952555255,59.86071060417422 V 48.2772164492636 C 396.5948952555255,45.31793518924743 394.903196321539,43.36554947330172 390.8384276620954,43.36554947330172 388.4613532384518,43.36554947330172 386.3796729810516,43.95214240768821 384.6891182465469,44.70025816893603 L 385.1767379257492,46.7506636404977 C 386.5087768225925,46.26189976181349 388.2357552406042,45.80688976784529 389.9263099751089,45.80688976784529 392.2686770144682,45.80688976784529 393.2786237571571,46.7506636404977 393.2786237571571,48.70190515696151 V 50.16609909396396 H 392.106582087866 C 386.4098035674083,50.16609909396396 383.8416478302876,52.37688319290504 383.8416478302876,55.69506169040992 383.8416478302876,58.55899299360133 385.5333467642742,60.18680745651522 388.7205144211017,60.18680745651522 390.7709198926634,60.18680745651522 392.2999518003068,59.34067193965142 393.7321081518161,58.10264810023753 L 393.9926042338616,59.86109200400143 Z M 349.9533196751662,62.61193825839852 C 349.0078295032909,63.99241493330873 347.4807045947841,65.08455333878072 345.8088384518171,65.70242105900571 L 344.171298293307,63.77539843157542 C 345.4438388170915,63.12244192723882 346.5352144229088,62.06787140475593 347.0422854933034,61.08576684945992 347.4808952946977,60.21217054503053 347.6624416124922,59.08627825484272 347.6624416124922,56.39378617402253 V 37.89684804956904 H 351.1861946169116 V 56.14034598878203 C 351.1860039169979,59.73980685892033 350.8982377473005,61.19389370049933 349.9533196751662,62.61193825839852" fill="#e76f00" id="path14" style="stroke-width:0.1907" />
</g>
</svg>
