<?xml version="1.0" encoding="UTF-8" standalone="no"?>
<svg xmlns:dc="http://purl.org/dc/elements/1.1/" xmlns:cc="http://creativecommons.org/ns#" xmlns:rdf="http://www.w3.org/1999/02/22-rdf-syntax-ns#" xmlns:svg="http://www.w3.org/2000/svg" xmlns="http://www.w3.org/2000/svg" width="2500" height="500" viewBox="0 0 512 102.3506366307542" preserveAspectRatio="xMidYMid" version="1.1" id="svg47">
<metadata id="metadata51">
<rdf:RDF>
<cc:Work rdf:about="">
<dc:format>image/svg+xml</dc:format>
<dc:type rdf:resource="http://purl.org/dc/dcmitype/StillImage" />
<dc:title></dc:title>
</cc:Work>
</rdf:RDF>
</metadata>
<defs id="defs19">
<linearGradient x1="37.16379059155861" y1="71.07008561478966" x2="106.3168394062967" y2="85.8180707616845" id="a" gradientTransform="scale(0.7447049222664356,1.34281373749565)" gradientUnits="userSpaceOnUse">
<stop stop-color="#919191" offset="0%" id="stop2" />
<stop stop-color="#FFF" offset="100%" id="stop4" />
</linearGradient>
<linearGradient x1="33.75604320116853" y1="100.2822673940327" x2="73.69130962821679" y2="109.6271440412176" id="b" gradientTransform="scale(0.7800711610780094,1.281934328424682)" gradientUnits="userSpaceOnUse">
<stop stop-color="#900" offset="0%" id="stop7" />
<stop stop-color="#E80000" offset="100%" id="stop9" />
</linearGradient>
<linearGradient x1="133.5208695751858" y1="327.5651419180321" x2="133.5208695751858" y2="60.93925413895317" id="c" gradientTransform="scale(1.631725096442355,0.6128483297709256)" gradientUnits="userSpaceOnUse">
<stop stop-color="#1A1A1A" offset="0%" id="stop12" />
<stop stop-color="#4A4A4C" offset="40.26%" id="stop14" />
<stop stop-color="#333" offset="100%" id="stop16" />
</linearGradient>
</defs>
<g id="g889" transform="matrix(0.4573700940537975,0,0,0.4573700940537976,139.1161103225331,3.457665957210066)">
<path d="M 459.303,4.292 C 459.203,4.691 459.203,5.09 459.303,5.489 459.303,5.489 460.6,13.973 459.103,17.765 L 397.623,177.753 C 393.232,189.53 399.12,202.604 410.897,207.096 422.674,211.586 435.749,205.798 440.44,194.121 L 501.92,34.13299999999998 C 503.117,31.03899999999998 510.004,24.95099999999998 510.004,24.95099999999998 510.304,24.65099999999998 510.603,24.35199999999998 510.802,24.05299999999998 V 23.95299999999998 C 510.802,23.85299999999998 510.9020000000001,23.85299999999998 510.9020000000001,23.75299999999998 512.499,19.66199999999998 502.2190000000001,11.87699999999998 488.047,6.387999999999983 473.874,0.898 461,-0.2 459.403,3.992 459.403,3.992 459.303,4.092 459.303,4.292 Z" opacity="0.1" id="path21" />
<path d="M 63.27600000000001,2.894 C 63.176,3.294 63.176,3.693 63.27600000000001,4.092000000000004 63.27600000000001,4.092000000000004 64.57399999999998,12.575 63.076,16.368 L 1.597,176.356 C -2.793,188.133 3.095,201.207 14.872,205.698 26.649,210.189 39.723,204.401 44.414,192.724 L 105.894,32.73599999999999 C 107.092,29.64199999999999 113.978,23.55399999999999 113.978,23.55399999999999 114.278,23.25399999999999 114.578,22.95499999999999 114.777,22.65599999999999 V 22.55599999999999 C 114.777,22.45599999999998 114.877,22.45599999999998 114.877,22.35599999999999 116.474,18.26399999999999 106.194,10.47999999999999 92.02100000000001,4.989999999999988 77.84799999999998,-0.499 64.97299999999998,-1.597 63.376,2.595 63.376,2.695 63.376,2.795 63.27600000000001,2.895 Z" fill="url(#a)" transform="translate(394.23)" id="path23" style="fill:url(#a)" />
<path d="M 82.63899999999999,75.253 38.225,190.628 C 34.932,198.912 25.45,203.203 16.967,199.91 8.483000000000002,196.616 3.992000000000003,186.935 7.087000000000005,178.651 L 35.43100000000001,104.895 C 35.43100000000001,104.895 38.92400000000001,99.206 45.911,95.11499999999999 52.897,91.022 58.586,91.92000000000001 66.271,88.52700000000001 74.055,85.13400000000001 82.63899999999999,75.25300000000001 82.63899999999999,75.253 Z" fill="url(#b)" transform="translate(394.23)" id="path25" style="fill:url(#b)" />
<path d="M 498.406,19.019 C 499.291,16.71 492.923,12.103 484.184,8.728999999999999 475.444,5.354999999999999 467.6420000000001,4.490999999999999 466.758,6.799000000000003 465.8730000000001,9.108 472.241,13.714 480.98,17.089 489.72,20.463 497.5220000000001,21.327 498.406,19.019 Z" fill="#333333" id="path27" />
<path d="M 457.093,4.08 C 457.093,4.08 458.382,12.54 456.894,16.322 L 395.816,175.859 C 391.454,187.602 397.304,200.64 409.004,205.119 410.987,205.915 413.069,206.412 415.151,206.512 A 23.035,23.035 0 0 1 407.516,180.238 L 467.405,23.88599999999999 C 467.405,23.88599999999999 459.175,16.22199999999999 457.093,4.08 Z" opacity="0.3" fill="#ffffff" id="path29" />
<g transform="translate(420.01,104.5)" fill="#ffffff" opacity="0.5" id="g41">
<ellipse cx="17.45100021362305" cy="2.48799991607666" rx="1.784999966621399" ry="1.791000008583069" id="ellipse31" />
<ellipse cx="29.05200004577637" cy="15.32699966430664" rx="2.677000045776367" ry="2.687000036239624" id="ellipse33" />
<ellipse cx="11.30300045013428" cy="30.65299987792969" rx="5.057000160217285" ry="5.076000213623047" id="ellipse35" />
<ellipse cx="3.17300009727478" cy="40.00899887084961" rx="2.677000045776367" ry="2.687000036239624" id="ellipse37" />
<ellipse cx="13.7819995880127" cy="59.91299819946289" rx="1.784999966621399" ry="1.791000008583069" id="ellipse39" />
</g>
<path d="M 120.465,97.135 C 123.159,99.325 128.05,98.031 131.343,94.44799999999999 134.837,90.66600000000001 135.336,85.79 132.641,83.59999999999999 129.946,81.41000000000001 125.056,82.70399999999999 121.762,86.486 118.269,90.268 117.67,95.046 120.465,97.13599999999999 Z M 112.381,104.201 C 111.681,104.201 110.384,105.495 111.482,105.993 112.979,106.49 113.678,107.784 113.678,109.576 112.381,117.04 103.098,125.5 99.506,128.386 98.60699999999998,129.281 99.905,131.272 100.803,130.576 102.799,128.983 106.991,125.699 110.384,121.32 104.795,133.76 93.81699999999999,149.883 89.625,155.556 73.257,178.148 48.405,198.948 31.339,198.948 17.665,198.948 6.088999999999999,189.692 3.593,176.158 3.393,174.664 1.397,174.366 1.796,176.356 4.89,194.967 19.262,202.232 36.628,202.232 55.691,202.232 78.048,188.498 90.423,174.366 110.384,151.575 123.259,125.3 119.866,110.471 118.469,104.998 114.576,104.101 112.381,104.201 Z M 235.041,153.864 C 240.331,152.57 244.622,149.684 244.622,145.106 244.622,144.608 243.724,144.608 243.724,145.106 243.724,147.793 240.63,150.082 237.137,150.58 228.953,151.873 212.784,142.319 205.199,132.466 213.383,135.551 230.051,131.073 237.935,125.4 245.221,120.125 248.115,114.353 248.615,109.675 249.513,101.912 241.029,97.33499999999996 229.152,101.912 221.567,104.998 212.485,111.666 203.004,124.206 212.984,107.784 232.646,80.91299999999998 251.908,63.79499999999998 275.362,42.99499999999999 288.936,46.97499999999998 267.877,69.06999999999996 259.194,78.12599999999997 242.826,89.86999999999997 231.547,94.94599999999998 228.055,96.43899999999996 229.751,98.42899999999997 232.247,97.33399999999997 244.223,92.05999999999997 260.192,81.21099999999998 269.873,72.15399999999999 298.417,44.786 274.563,24.184 243.025,53.146 221.567,72.85099999999998 207.595,93.453 195.418,120.225 191.227,125.3 188.133,129.48 184.34,132.665 183.84,133.063 183.542,133.461 183.242,133.86 172.762,142.817 156.295,154.959 146.015,155.058 138.729,155.258 135.635,149.783 136.933,142.718 138.929,131.67 150.406,118.632 160.187,114.154 172.862,108.381 180.347,119.628 163.68,128.584 157.293,131.869 149.7079999999999,133.66 146.614,133.66 143.021,133.66 143.3199999999999,135.153 146.414,135.253 151.504,135.452 159.688,133.263 165.078,130.774 182.144,122.614 183.242,107.386 164.678,106.889 144.518,106.192 120.365,123.31 120.565,144.907 120.765,154.66 128.549,159.935 139.228,159.935 157.093,159.735 172.962,146.2 186.037,134.258 187.933,132.665 189.729,130.973 191.526,129.182 186.935,140.727 184.639,151.475 185.737,159.437 186.436,165.21 189.729,167.897 192.324,170.087 192.824,170.484 193.921,170.087 193.223,168.991 189.43,164.513 190.528,151.077 195.718,138.04 200.109,146.798 217.176,157.845 235.041,153.864 Z M 213.583,116.144 C 234.443,97.534 242.626,114.154 229.352,124.305 222.465,129.58 208.792,133.561 204.501,130.973 L 203.602,130.476 C 203.103,129.58 202.504,128.684 202.105,127.789 205.598,123.509 209.591,119.727 213.583,116.144 Z M 329.556,94.94599999999998 C 337.94,95.84099999999999 334.446,85.68999999999998 325.963,88.27799999999999 322.171,89.37199999999998 318.478,96.63799999999999 315.783,102.908 307.4,115.348 293.427,132.367 283.646,141.324 274.963,148.788 266.9789999999999,150.779 276.759,136.845 280.752,131.272 285.842,125.3 288.7359999999999,119.329 295.6229999999999,104.301 280.9509999999999,97.63299999999998 269.074,106.689 262.1879999999999,111.964 252.906,122.812 245.62,128.784 243.6239999999999,130.376 244.1229999999999,132.764 246.12,131.172 251.908,126.495 262.088,115.746 270.8709999999999,109.476 278.1569999999999,103.903 281.0509999999999,107.486 276.8589999999999,112.163 271.0709999999999,118.831 260.8899999999999,130.476 258.2959999999999,137.84 254.703,148.888 258.9939999999999,153.764 266.2799999999999,153.764 276.2599999999999,153.764 291.1309999999999,138.239 301.1119999999999,125.898 304.4049999999999,121.718 307.9979999999999,116.841 311.0919999999999,112.163 302.4089999999999,128.983 293.3269999999999,146.001 282.0489999999999,161.428 266.0799999999999,183.124 246.1189999999999,199.446 227.1559999999999,199.446 213.4829999999999,199.446 201.7059999999999,190.19 199.2109999999999,176.655 199.0109999999999,175.162 197.2149999999999,174.863 197.4139999999999,176.854 200.5079999999999,195.464 214.8799999999999,202.73 232.2459999999999,202.73 251.3089999999999,202.73 269.673,191.683 282.548,178.148 308.4979999999999,150.778 311.591,120.026 319.576,102.808 323.3679999999999,94.94600000000002 326.762,94.64800000000002 329.556,94.94599999999998 Z M 435.15,68.67 C 438.943,62.201 438.743,57.12600000000001 429.86,57.12600000000001 423.173,57.325 410.997,62.002 405.3079999999999,66.381 404.0109999999999,67.67499999999998 404.61,68.37099999999999 406.2069999999999,67.67499999999998 407.3039999999999,67.277 408.6019999999999,66.57999999999998 409.8,66.08299999999998 416.187,62.599 413.5919999999999,69.86499999999999 412.1949999999999,72.55199999999999 404.61,85.78899999999997 391.1359999999999,104.399 384.05,113.655 A 140.677,140.677 0 0 1 373.1709999999999,126.593 C 366.384,133.063 352.911,144.508 342.6309999999999,148.289 309.5949999999999,160.63 351.7129999999999,104.499 355.2059999999999,99.92100000000002 362.9909999999999,90.16800000000002 380.4559999999999,73.14900000000001 385.7459999999999,64.59 389.5389999999999,58.12000000000002 389.3399999999999,53.04500000000003 380.4559999999999,53.04500000000003 373.7699999999999,53.24500000000002 361.5939999999999,57.92200000000002 355.9049999999999,62.30100000000003 354.6069999999999,63.59500000000002 355.2059999999999,64.29100000000001 356.8029999999999,63.59500000000002 357.901,63.19700000000001 359.1979999999999,62.50000000000002 360.396,62.00200000000001 366.7839999999999,58.51900000000001 364.189,65.784 362.7909999999999,68.47199999999999 355.206,81.70800000000001 341.733,100.319 334.646,109.575 328.858,117.338 321.7719999999999,125.1 316.282,129.479 314.087,131.271 315.384,132.963 317.58,131.47 319.576,130.176 322.47,127.29 325.764,123.906 319.775,135.8490000000001 314.885,152.669 330.654,154.6590000000001 344.128,156.4500000000001 360.097,142.8160000000001 370.476,132.6640000000001 L 374.169,128.9820000000001 375.067,128.0860000000001 C 369.079,140.0290000000001 364.189,156.8490000000001 379.957,158.8390000000001 397.224,161.2280000000001 418.682,138.0390000000001 426.967,129.479 428.563,127.887 428.064,125.1 425.369,127.887 420.479,132.9630000000001 403.911,147.991 391.935,152.4690000000001 358.899,164.8100000000001 401.0169999999999,108.6790000000001 404.5099999999999,104.1010000000001 412.3949999999999,94.14900000000004 429.86,77.13000000000005 435.1499999999999,68.67100000000003 Z" opacity="0.1" id="path43" />
<path d="M 118.668,95.44299999999998 C 121.363,97.63299999999999 126.253,96.33899999999998 129.547,92.756 133.04,88.974 133.539,84.09799999999998 130.844,81.908 128.15,79.718 123.259,81.012 119.966,84.79399999999999 116.473,88.57599999999999 115.973,93.25399999999999 118.668,95.444 Z M 110.684,102.51 C 109.985,102.51 108.688,103.803 109.786,104.301 111.283,104.799 111.981,106.092 111.981,107.884 110.684,115.348 101.401,123.808 97.80900000000001,126.694 96.91100000000001,127.59 98.209,129.58 99.10599999999999,128.884 101.103,127.291 105.294,124.007 108.688,119.628 103.098,132.068 92.12,148.191 87.92800000000001,153.864 71.56000000000001,176.456 46.70800000000001,197.256 29.64200000000001,197.256 15.96900000000001,197.256 4.392000000000011,188 1.896000000000011,174.466 1.696000000000011,172.972 -0.2989999999999884,172.674 0.1000000000000114,174.664 3.194000000000011,193.275 17.56600000000001,200.54 34.93200000000001,200.54 53.99500000000001,200.54 76.35099999999998,186.806 88.727,172.674 108.687,149.883 121.563,123.609 118.169,108.78 116.672,103.206 112.879,102.31 110.684,102.51 Z M 233.244,152.172 C 238.534,150.878 242.826,147.992 242.826,143.414 242.826,142.916 241.927,142.916 241.927,143.414 241.927,146.101 238.834,148.39 235.34,148.888 227.156,150.181 210.988,140.628 203.403,130.774 211.587,133.86 228.254,129.381 236.139,123.708 243.425,118.433 246.319,112.661 246.818,107.983 247.716,100.22 239.233,95.64299999999997 227.356,100.22 219.771,103.306 210.688,109.974 201.207,122.514 211.187,106.092 230.849,79.22099999999997 250.112,62.10299999999998 273.566,41.30299999999997 287.139,45.28299999999997 266.08,67.37799999999997 257.3970000000001,76.43399999999995 241.03,88.17799999999995 229.751,93.25399999999997 226.258,94.74699999999997 227.955,96.73699999999998 230.4500000000001,95.64199999999998 242.4270000000001,90.36799999999998 258.395,79.51999999999998 268.076,70.46199999999997 296.621,43.094 272.767,22.49199999999999 241.229,51.454 219.771,71.06 205.799,91.76099999999999 193.622,118.533 189.43,123.609 186.336,127.789 182.543,130.973 182.044,131.371 181.745,131.77 181.446,132.168 170.966,141.125 154.498,153.267 144.218,153.366 136.933,153.566 133.838,148.091 135.136,141.026 137.132,129.978 148.61,116.94 158.391,112.462 171.066,106.69 178.551,117.936 161.884,126.892 155.496,130.177 147.911,131.969 144.817,131.969 141.224,131.969 141.524,133.461 144.617,133.561 149.707,133.76 157.892,131.571 163.281,129.082 180.348,120.922 181.446,105.694 162.881,105.197 142.721,104.5 118.568,121.618 118.768,143.215 118.968,152.968 126.752,158.243 137.432,158.243 155.297,158.043 171.166,144.509 184.24,132.566 186.136,130.973 187.933,129.281 189.73,127.49 185.138,139.035 182.843,149.783 183.94,157.745 184.64,163.518 187.933,166.205 190.528,168.395 191.027,168.792 192.125,168.395 191.426,167.3 187.634,162.821 188.731,149.385 193.921,136.348 198.412,145.106 215.479,156.153 233.244,152.172 Z M 211.786,114.352 C 232.646,95.742 240.83,112.362 227.556,122.514 220.669,127.789 206.996,131.77 202.704,129.182 L 201.806,128.684 C 201.306,127.789 200.708,126.893 200.309,125.997 203.802,121.817 207.794,117.936 211.786,114.353 Z M 327.76,93.25499999999999 C 336.143,94.15099999999999 332.65,83.99899999999999 324.167,86.58699999999997 320.374,87.68099999999998 316.681,94.94699999999997 313.987,101.217 305.603,113.657 291.63,130.676 281.85,139.633 273.1659999999999,147.097 265.182,149.088 274.963,135.154 278.955,129.581 284.045,123.61 286.9399999999999,117.638 293.826,102.61 279.1549999999999,95.94199999999996 267.278,104.998 260.391,110.273 251.11,121.121 243.824,127.093 241.828,128.685 242.3269999999999,131.073 244.323,129.481 250.1119999999999,124.804 260.292,114.055 269.074,107.785 276.36,102.212 279.254,105.795 275.0629999999999,110.472 269.274,117.141 259.0939999999999,128.785 256.4989999999999,136.15 252.9059999999999,147.197 257.1979999999999,152.073 264.4829999999999,152.073 274.4629999999999,152.073 289.3349999999999,136.548 299.3149999999999,124.207 302.6089999999999,120.027 306.2019999999999,115.15 309.2949999999999,110.472 300.6129999999999,127.292 291.5309999999999,144.311 280.2529999999999,159.737 264.2829999999999,181.433 244.3229999999999,197.755 225.3599999999999,197.755 211.6869999999999,197.755 199.9099999999999,188.499 197.4139999999999,174.964 197.2139999999999,173.471 195.4179999999999,173.172 195.6179999999999,175.163 198.7119999999999,193.773 213.084,201.039 230.4499999999999,201.039 249.5129999999999,201.039 267.877,189.992 280.752,176.457 306.701,149.087 309.795,118.335 317.7789999999999,101.117 321.572,93.25499999999999 325.0649999999999,92.85699999999998 327.759,93.25499999999999 Z M 433.354,66.87999999999999 C 437.146,60.411 436.947,55.335 428.064,55.335 421.377,55.535 409.201,60.21200000000001 403.512,64.59099999999999 402.2139999999999,65.88499999999999 402.8129999999999,66.58099999999997 404.41,65.88499999999999 405.508,65.48699999999999 406.805,64.78999999999999 408.003,64.29199999999997 414.391,60.80899999999999 411.796,68.07399999999998 410.398,70.76199999999998 402.813,83.99799999999999 389.34,102.609 382.253,111.865 A 140.677,140.677 0 0 1 371.375,124.803 C 364.588,131.272 351.115,142.717 340.835,146.499 307.799,158.84 349.917,102.709 353.41,98.12999999999999 361.195,88.37699999999999 378.66,71.35899999999999 383.95,62.8 387.743,56.33 387.543,51.255 378.66,51.255 371.973,51.454 359.797,56.131 354.108,60.51 352.8109999999999,61.804 353.41,62.501 355.007,61.804 356.1039999999999,61.40599999999999 357.4019999999999,60.71 358.6,60.21200000000001 364.987,56.729 362.3919999999999,63.994 360.995,66.68099999999998 353.41,79.91799999999999 339.9359999999999,98.52899999999999 332.85,107.784 327.061,115.547 319.975,123.31 314.486,127.689 312.29,129.48 313.588,131.172 315.783,129.679 317.779,128.386 320.673,125.499 323.967,122.116 317.979,134.059 313.088,150.878 328.857,152.869 342.331,154.66 358.3,141.025 368.68,130.874 L 372.373,127.191 373.271,126.296 C 367.283,138.239 362.392,155.058 378.161,157.049 395.428,159.437 416.886,136.249 425.17,127.689 426.766,126.097 426.267,123.31 423.573,126.097 418.6830000000001,131.172 402.115,146.2 390.138,150.679 357.1030000000001,163.02 399.22,106.889 402.713,102.31 410.698,92.358 428.0630000000001,75.34 433.353,66.87999999999999 Z" fill="url(#c)" id="path45" style="fill:url(#c)" />
</g>
</svg>
