<?xml version="1.0" encoding="UTF-8" standalone="no"?>
<svg xmlns:dc="http://purl.org/dc/elements/1.1/" xmlns:cc="http://creativecommons.org/ns#" xmlns:rdf="http://www.w3.org/1999/02/22-rdf-syntax-ns#" xmlns:svg="http://www.w3.org/2000/svg" xmlns="http://www.w3.org/2000/svg" xmlns:xlink="http://www.w3.org/1999/xlink" data-name="Layer 1" viewBox="0 0 675 134.8920863309353" width="2500" height="500" version="1.1" id="svg39">
<metadata id="metadata43">
<rdf:RDF>
<cc:Work rdf:about="">
<dc:format>image/svg+xml</dc:format>
<dc:type rdf:resource="http://purl.org/dc/dcmitype/StillImage" />
<dc:title>logo_Kotlin</dc:title>
</cc:Work>
</rdf:RDF>
</metadata>
<defs id="defs21">
<linearGradient id="b" x1="-23.81999969482422" y1="136.072998046875" x2="107.8369979858398" y2="4.414999961853027" gradientUnits="userSpaceOnUse">
<stop offset=".108" stop-color="#c757bc" id="stop2" />
<stop offset=".173" stop-color="#cd5ca9" id="stop4" />
<stop offset=".492" stop-color="#e8744f" id="stop6" />
<stop offset=".716" stop-color="#f88316" id="stop8" />
<stop offset=".823" stop-color="#ff8900" id="stop10" />
</linearGradient>
<linearGradient id="a" x1="45.15399932861328" y1="173.0030059814453" x2="109.3259963989258" y2="108.8300018310547" gradientUnits="userSpaceOnUse">
<stop offset=".296" stop-color="#00afff" id="stop13" />
<stop offset=".694" stop-color="#5282ff" id="stop15" />
<stop offset="1" stop-color="#945dff" id="stop17" />
</linearGradient>
<linearGradient id="c" x1="-1.699000000953674" y1="45.04399871826172" x2="43.31900024414062" y2="0.0260000005364418" xlink:href="#a" />
<linearGradient xlink:href="#a" id="linearGradient887" gradientUnits="userSpaceOnUse" x1="45.15399932861328" y1="173.0030059814453" x2="109.3259963989258" y2="108.8300018310547" />
</defs>
<title id="title23">logo_Kotlin</title>
<g id="g885" transform="matrix(0.7761989343987243,0,0,0.7761989343987243,75.78124329943798,9.23112308556332)">
<path fill="url(#b)" d="M 71.03499999999999,5.994 0,80.69599999999998 V 147.477 L 70.932,76.42 141.483,5.994 Z" id="path33" style="fill:url(#b)" />
<g id="g873">
<g fill="#000400" data-name="&lt;Group&gt;" id="g31">
<path data-name="&lt;Compound Path&gt;" d="M 187.058,6.065000000000003 H 218.19 V 67.92499999999998 L 275.602,6.064999999999998 H 313.203 L 255.589,66.10499999999997 315.831,147.575 H 278.432 L 234.565,87.33299999999998 218.19,104.313 V 147.574 H 187.058 Z" id="path25" />
<path data-name="&lt;Compound Path&gt;" d="M 299.286,94.00199999999999 V 93.59999999999999 C 299.286,62.467 324.354,37.197 358.114,37.197 391.672,37.197 416.538,62.063 416.538,93.19499999999999 V 93.59999999999999 C 416.538,124.732 391.47,150 357.71,150 324.1520000000001,150 299.2860000000001,125.135 299.286,94.00199999999999 Z M 386.214,94.00199999999999 V 93.59999999999999 C 386.214,77.628 374.691,63.67999999999999 357.71,63.67999999999999 340.122,63.67999999999999 329.61,77.22299999999998 329.61,93.19499999999999 V 93.59999999999999 C 329.61,109.57 341.133,123.518 358.114,123.518 375.702,123.518 386.214,109.974 386.214,94.00199999999999 Z" id="path27" />
<path data-name="&lt;Compound Path&gt;" d="M 425.02,116.847 V 65.49899999999999 H 412.082 V 39.22 H 425.02 V 11.523 H 455.748 V 39.219 H 481.22 V 65.49899999999999 H 455.748 V 111.794 C 455.748,118.868 458.78,122.306 465.654,122.306 A 31.232,31.232 0 0 0 480.815,118.463 V 143.127 C 474.346,146.968 466.867,149.394 456.557,149.394 437.757,149.394 425.02,141.914 425.02,116.847 Z M 490.04,0 H 520.768 V 147.574 H 490.04 Z M 531.875,0 H 564.219 V 27.291 H 531.875 Z M 532.6849999999999,39.219 H 563.4119999999999 V 147.574 H 532.6839999999998 Z M 575.1009999999996,39.219 H 605.8289999999999 V 54.582 C 612.9049999999997,45.485 622.0019999999999,37.197 637.567,37.197 660.816,37.197 674.36,52.56100000000001 674.36,77.42699999999999 V 147.574 H 643.6319999999999 V 87.12999999999999 C 643.6319999999999,72.57499999999997 636.758,65.09499999999998 625.033,65.09499999999998 613.307,65.09499999999998 605.8289999999999,72.575 605.8289999999999,87.12999999999999 V 147.574 H 575.1 Z" id="path29" />
</g>
<path data-name="&lt;Path&gt;" fill="url(#a)" d="M 0,147.477 70.932,76.42 141.483,147.477 Z" id="path35" style="fill:url(#linearGradient887)" />
</g>
<path fill="url(#c)" d="M 0,5.994 H 71.03499999999999 L 0,80.69599999999998 Z" id="path37" style="fill:url(#c)" />
</g>
</svg>
