<?xml version="1.0" encoding="UTF-8" standalone="no"?>
<svg xmlns:dc="http://purl.org/dc/elements/1.1/" xmlns:cc="http://creativecommons.org/ns#" xmlns:rdf="http://www.w3.org/1999/02/22-rdf-syntax-ns#" xmlns:svg="http://www.w3.org/2000/svg" xmlns="http://www.w3.org/2000/svg" width="2500" height="500" viewBox="0 0 192.756 38.5512" version="1.1" id="svg10">
<metadata id="metadata16">
<rdf:RDF>
<cc:Work rdf:about="">
<dc:format>image/svg+xml</dc:format>
<dc:type rdf:resource="http://purl.org/dc/dcmitype/StillImage" />
<dc:title></dc:title>
</cc:Work>
</rdf:RDF>
</metadata>
<defs id="defs14" />
<g fill-rule="evenodd" clip-rule="evenodd" id="g8" transform="matrix(0.1817534292517818,0,0,0.1817534292517818,78.86096799557175,1.758567995571772)">
<path fill="#ffffff" d="M 0,0 H 192.756 V 192.756 H 0 Z" id="path2" />
<path d="M 189.922,92.897 H 176.197 C 177.998,86.12 179.627,80.373 179.627,80.373 179.627,80.373 173.451,86.97799999999999 167.961,92.897 H 113.576 C 113.234,92.897 113.234,93.069 113.576,93.069 113.748,93.069 166.931,94.012 166.931,94.012 162.642,98.558 160.326,101.132 160.242,101.218 160.07,101.39 160.242,101.476 160.412,101.304 160.498,101.218 163.588,98.38599999999999 167.961,94.012 L 174.738,94.09799999999998 C 174.308,96.07099999999998 173.967,97.87199999999998 173.451,100.017 165.131,104.478 151.578,111.769 151.578,111.769 151.406,111.855 151.492,112.027 151.664,111.941 151.75,111.855 164.359,105.507 173.193,101.046 171.736,107.651 170.793,112.196 170.793,112.282 170.707,112.368 170.879,112.454 170.965,112.282 170.965,112.196 172.25,107.651 174.139,100.616 182.029,96.58599999999998 189.922,92.897 189.922,92.897 Z M 169.076,92.897 C 173.193,88.86499999999999 176.625,85.605 176.625,85.605 176.625,85.605 176.025,88.436 174.996,92.897 Z M 175.854,94.099 184.088,94.27000000000001 C 184.088,94.27000000000001 179.971,96.50000000000001 174.395,99.50199999999999 174.91,97.61499999999999 175.338,95.986 175.854,94.099 Z" fill="#2d509f" id="path4" />
<path fill="#696a6c" d="M 4.122,96.93 H 6.523 L 5.58,101.391 H 7.810000000000004 L 7.467000000000004,103.105 H 2.834 Z M 16.13,96.84399999999999 C 18.275,96.84399999999999 19.047,98.131 18.618,100.018 18.189,101.905 16.903,103.192 14.758,103.192 12.699,103.192 11.927,101.905 12.356,100.018 12.7,98.131 14.072,96.84399999999999 16.13,96.84399999999999 Z M 15.101,101.646 C 15.53,101.646 15.788,101.39 16.13,100.017 16.388,98.64399999999997 16.216,98.38599999999998 15.787,98.38599999999998 15.444,98.38599999999998 15.1,98.64399999999997 14.844,100.017 14.5,101.391 14.758,101.646 15.101,101.646 Z M 28.74,100.789 C 28.397,102.506 26.939,103.191 25.395,103.191 23.25,103.191 22.564,101.904 22.993,100.017 23.336,98.04399999999999 24.708,96.84299999999997 26.767,96.84299999999997 28.311,96.84299999999997 29.512,97.44299999999998 29.083,99.24499999999999 H 26.853 C 27.025,98.55699999999997 26.767,98.38599999999999 26.51,98.38599999999999 25.823,98.38599999999999 25.652,99.07399999999998 25.481,100.017 25.223,100.96 25.138,101.646 25.738,101.646 26.081,101.646 26.339,101.476 26.51,100.789 Z M 34.83100000000001,96.93 H 37.14700000000001 L 36.63200000000001,99.58799999999999 38.43400000000001,96.93 H 41.00700000000001 L 38.77700000000001,99.846 39.89200000000001,103.105 H 37.31800000000001 L 36.46000000000002,100.361 35.86000000000002,103.105 H 33.54400000000001 Z M 48.556,100.789 H 47.52600000000001 L 47.097,103.105 H 44.695 L 45.98199999999999,96.93 H 48.384 L 47.95499999999999,98.98799999999998 H 48.984 L 49.414,96.93 H 51.815 L 50.528,103.105 H 48.126 Z M 57.305,96.93 H 61.938 L 61.594,98.55900000000001 H 59.278 L 59.106,99.24599999999999 H 61.25100000000001 L 60.908,100.789 H 58.763 L 58.592,101.477 H 60.994 L 60.65,103.105 H 55.933 Z M 67.513,96.93 H 72.14500000000001 L 71.802,98.55900000000001 H 69.486 L 69.31399999999999,99.24599999999999 H 71.459 L 71.20199999999998,100.789 H 68.971 L 68.885,101.477 H 71.28800000000001 L 70.94400000000001,103.105 H 66.22600000000001 Z M 77.721,96.93 H 80.637 C 83.039,96.93 83.554,98.30300000000001 83.21099999999998,100.104 82.78199999999999,101.905 81.32399999999998,103.106 79.43699999999998,103.106 H 76.435 Z M 79.093,101.646 H 79.34999999999999 C 79.77900000000001,101.646 80.03600000000001,101.56 80.20800000000001,101.304 80.465,101.046 80.55100000000001,100.616 80.72300000000001,100.017 80.80900000000001,99.41499999999999 80.894,98.98799999999998 80.72300000000001,98.72999999999997 80.63700000000001,98.47199999999999 80.46599999999999,98.38599999999999 80.03600000000001,98.38599999999999 H 79.86499999999999 Z M 98.99399999999998,98.73 97.19299999999998,103.105 H 94.962 L 95.048,98.73 94.105,103.105 H 92.046 L 93.33300000000001,96.93 H 96.67800000000001 L 96.59200000000001,100.617 98.05100000000001,96.93 H 101.396 L 100.109,103.105 H 98.05100000000001 Z M 108.088,96.93 H 111.176 L 111.862,103.106 H 109.374 L 109.288,102.077 H 107.573 L 107.143,103.106 H 104.829 Z M 109.287,100.617 V 98.30299999999998 L 108.258,100.617 Z M 118.381,96.93 H 121.985 C 123.27,96.93 123.958,97.358 123.7,98.47300000000001 123.528,99.24599999999999 123.184,99.76 122.155,99.93200000000001 V 100.018 C 122.757,100.018 123.014,100.276 123.014,100.789 123.098,101.305 122.842,102.162 122.928,103.105 H 120.612 C 120.526,102.591 120.612,101.818 120.698,101.304 120.698,101.046 120.526,100.874 120.182,100.874 H 119.84 L 119.41,103.104 H 117.008 Z M 120.354,99.50199999999999 C 120.87,99.50199999999999 121.211,99.33000000000001 121.297,98.90200000000001 121.383,98.47199999999999 121.125,98.38599999999999 120.611,98.38599999999999 H 120.439 L 120.181,99.501 H 120.354 Z M 130.391,98.64499999999999 H 128.932 L 129.275,96.92999999999999 H 134.68 L 134.336,98.64499999999999 H 132.877 L 131.934,103.105 H 129.447 Z M 140.084,96.93 H 142.484 L 141.199,103.105 H 138.797 Z M 148.232,96.93 H 151.148 L 151.664,100.617 152.521,96.93 H 154.408 L 153.121,103.105 H 150.205 L 149.775,99.32999999999998 H 149.689 L 148.918,103.105 H 146.945 Z" id="path6" />
</g>
</svg>
