<?xml version="1.0" encoding="UTF-8" standalone="no"?>
<svg xmlns:dc="http://purl.org/dc/elements/1.1/" xmlns:cc="http://creativecommons.org/ns#" xmlns:rdf="http://www.w3.org/1999/02/22-rdf-syntax-ns#" xmlns:svg="http://www.w3.org/2000/svg" xmlns="http://www.w3.org/2000/svg" width="2500" height="500" viewBox="0 0 192.756 38.5512" version="1.1" id="svg10">
<metadata id="metadata16">
<rdf:RDF>
<cc:Work rdf:about="">
<dc:format>image/svg+xml</dc:format>
<dc:type rdf:resource="http://purl.org/dc/dcmitype/StillImage" />
<dc:title></dc:title>
</cc:Work>
</rdf:RDF>
</metadata>
<defs id="defs14" />
<g id="g846" transform="matrix(2.59108987167544,0,0,2.59108987167544,51.43904610485346,-25.66312075608005)">
<path d="M 7.768093412755185,23.2900638373202 V 17.6337358054968 H 7.733722114267072 L 5.725250583241972,23.2900638373202 H 4.439836001563599 L 2.431364470538496,17.6337358054968 H 2.396993172050386 V 23.2900638373202 H 0.5099908896089182 V 15.37116860187897 H 3.165938504195379 L 5.08263326962396,20.81209116621406 6.999148080610189,15.37116860187897 H 9.655095695196649 V 23.2900638373202 Z M 14.34740777937186,20.91484515279369 C 14.34740777937186,22.0638542671737 13.49640322151704,22.34530301500304 13.07081096536845,22.34530301500304 12.74887246801123,22.34530301500304 12.17391802471536,22.22149435866891 12.17391802471536,21.6807312594188 12.17391802471536,21.03901371801252 12.8294920581823,20.91484515279369 13.19749889278012,20.85869936678171 13.87592714042501,20.74622784031538 13.81834171887426,20.7798793210341 14.34740777937186,20.5547563136591 Z M 16.38449206673,23.28016634299116 V 23.17867203750795 C 16.05157634838966,23.09985199176035 16.0287221342117,22.71726884733249 16.04005926407951,22.09750574789243 L 16.07443056256762,19.48456724502669 C 16.08594764687777,18.81999548944245 16.02854217976936,17.34436906220423 13.40426654703582,17.34436906220423 12.77154672774685,17.34436906220423 10.7371617570239,17.29092259282743 10.65672212129518,19.02964241477569 H 12.3231002574203 C 12.3231002574203,18.43957179832274 13.08214809523626,18.49337817658424 13.39256950828332,18.49337817658424 13.58817998711356,18.49337817658424 14.31267657199906,18.5045353520097 14.33571074061937,19.24792715334154 V 19.4053872903944 C 14.30115948768891,19.96882464938012 13.84119593305221,19.84465608416129 12.55308203473865,20.04746474068537 11.49548977707047,20.20528478662292 10.38085196117857,20.53172214503879 10.38085196117857,21.83819139647166 10.38085196117857,22.31129162539963 10.55324831694616,23.49395222049836 12.41505697745917,23.49395222049836 13.12803647803452,23.49395222049836 13.91011848447078,23.27998638854882 14.36990208466513,22.71690893844779 H 14.40409342871089 L 14.55291575253114,23.27998638854882 H 16.38449206673 Z M 20.7264328516573,19.16226883878478 C 19.72750574219396,19.16226883878478 18.92400915711851,19.61359458018887 18.92400915711851,21.62188615677162 V 23.2900638373202 H 17.17701143082233 V 17.55851484859612 H 18.92400915711851 V 18.49337817658424 C 19.37173580967567,17.55851484859612 20.20978364768158,17.34436906220422 20.97872897982657,17.34436906220422 H 21.18531667963992 V 19.17342601421024 C 21.03595449249264,19.16226883878478 20.8754351299199,19.16226883878478 20.7264328516573,19.16226883878478 Z M 23.56845335962966,23.28970392843551 C 22.396230122187,23.28970392843551 21.99493171575514,22.9533690756906 21.99493171575514,21.77448752388113 V 15.82861279432282 H 23.74210939649367 V 17.54717771872831 H 24.98181554981612 V 18.69582692422363 H 23.74210939649367 V 21.45776770535195 C 23.74210939649367,21.80813900459986 23.68452397494291,22.23841007624945 24.43097500179463,22.23841007624945 24.6832711299639,22.23841007624945 24.98073582316205,22.24506839061625 24.98073582316205,22.24506839061625 L 24.98181554981612,23.29348297172478 C 24.98163559537378,23.29348297172478 23.94761736965294,23.28970392843551 23.56845335962966,23.28970392843551 Z M 25.87762876381513,23.2900638373202 V 17.54699776428596 H 27.62480644455366 V 23.2900638373202 Z M 32.43012991852224,23.2900638373202 V 19.97134401157296 C 32.43012991852224,19.40718683481786 32.37326431474087,18.49337817658424 31.44739870887005,18.49337817658424 30.30468799997215,18.49337817658424 30.2818337857942,19.81352396563541 30.2818337857942,20.06168114163072 V 23.28988388287785 H 28.53465610505567 V 17.55833489415378 H 30.21291123437563 V 18.24540095503127 C 30.68169255668729,17.61448068016576 31.4472187544277,17.34418910776188 32.22444199092062,17.34418910776188 33.01624153724358,17.34418910776188 34.17730759926077,17.55815493971143 34.17730759926077,19.68881553708954 V 23.28970392843551 H 32.43012991852224 Z" id="path4" style="clip-rule:evenodd;fill-rule:evenodd;stroke-width:0.179954" />
<path fill="#fce22f" d="M 27.05705017895164,15.78272441152456 24.35035541162357,12.36988841243029 32.58830987334449,11.19316631392898 Z" id="path6" style="clip-rule:evenodd;fill-rule:evenodd;stroke-width:0.179954" />
</g>
</svg>
