<?xml version="1.0" encoding="UTF-8" standalone="no"?>
<svg xmlns:dc="http://purl.org/dc/elements/1.1/" xmlns:cc="http://creativecommons.org/ns#" xmlns:rdf="http://www.w3.org/1999/02/22-rdf-syntax-ns#" xmlns:svg="http://www.w3.org/2000/svg" xmlns="http://www.w3.org/2000/svg" width="2500" height="500" viewBox="0 0 1033.746 206.6432584269663" version="1.1" id="svg12">
<metadata id="metadata18">
<rdf:RDF>
<cc:Work rdf:about="">
<dc:format>image/svg+xml</dc:format>
<dc:type rdf:resource="http://purl.org/dc/dcmitype/StillImage" />
<dc:title></dc:title>
</cc:Work>
</rdf:RDF>
</metadata>
<defs id="defs16" />
<g id="g848" transform="matrix(0.8169643719338573,0,0,0.8169643719338573,94.6057657032455,13.17165318151185)">
<path d="M 1033.746,99.83799999999999 V 81.65799999999998 H 1011.17 V 53.39500000000001 L 1010.41,53.62900000000001 989.205,60.11700000000001 988.787,60.24400000000001 V 81.659 H 955.3179999999997 V 69.72900000000001 C 955.3179999999997,64.174 956.5599999999999,59.92300000000003 959.008,57.08800000000002 961.4389999999998,54.28700000000002 964.916,52.86300000000002 969.3509999999996,52.86300000000002 972.5389999999996,52.86300000000002 975.84,53.61400000000001 979.162,55.09500000000002 L 979.995,55.46700000000002 V 36.321 L 979.6029999999999,36.177 C 976.5039999999999,35.063 972.2889999999996,34.502 967.0639999999998,34.502 960.4789999999999,34.502 954.4959999999997,35.935 949.278,38.77500000000001 944.057,41.61900000000001 939.95,45.679 937.0729999999997,50.84100000000001 934.206,55.99700000000001 932.7509999999997,61.95200000000001 932.7509999999997,68.542 V 81.658 H 917.0309999999999 V 99.83799999999999 H 932.7509999999997 V 176.427 H 955.3179999999997 V 99.83799999999999 H 988.787 V 148.509 C 988.787,168.554 998.2419999999998,178.712 1016.889,178.712 1019.953,178.712 1023.178,178.353 1026.471,177.65 1029.823,176.928 1032.106,176.207 1033.45,175.437 L 1033.747,175.261 V 156.913 L 1032.829,157.52 C 1031.604,158.336 1030.079,159.003 1028.291,159.499 1026.495,160.004 1024.995,160.257 1023.833,160.257 1019.465,160.257 1016.233,159.08 1014.228,156.757 1012.2,154.413 1011.171,150.314 1011.171,144.58 V 99.83799999999999 Z M 866.6349999999996,160.26 C 858.4439999999998,160.26 851.9859999999996,157.544 847.4349999999999,152.194 842.8559999999996,146.817 840.5359999999999,139.151 840.5359999999999,129.411 840.5359999999999,119.362 842.8559999999996,111.497 847.4369999999995,106.025 851.9909999999996,100.589 858.3869999999999,97.83000000000001 866.4509999999999,97.83000000000001 874.2759999999999,97.83000000000001 880.5049999999996,100.465 884.9669999999996,105.666 889.4509999999999,110.894 891.7269999999997,118.696 891.7269999999997,128.862 891.7269999999997,139.153 889.5869999999996,147.058 885.3669999999998,152.346 881.1759999999998,157.594 874.8739999999994,160.26 866.6349999999996,160.26 M 867.6379999999999,79.37500000000001 C 852.0109999999998,79.37500000000001 839.5989999999999,83.95399999999999 830.7489999999999,92.98500000000001 821.9049999999997,102.017 817.4209999999999,114.516 817.4209999999999,130.138 817.4209999999999,144.976 821.7979999999995,156.911 830.4319999999999,165.606 839.0659999999999,174.304 850.8159999999999,178.71 865.3529999999999,178.71 880.5009999999997,178.71 892.6659999999999,174.067 901.5119999999999,164.911 910.3569999999997,155.765 914.8379999999998,143.384 914.8379999999998,128.127 914.8379999999998,113.057 910.6329999999999,101.033 902.336,92.39599999999998 894.0349999999998,83.75499999999998 882.359,79.37499999999998 867.638,79.37499999999998 M 781.0359999999999,79.37499999999998 C 770.4059999999999,79.37499999999998 761.613,82.09399999999996 754.8959999999998,87.45499999999998 748.138,92.84799999999998 744.71,99.92099999999996 744.71,108.48 744.71,112.929 745.45,116.881 746.9059999999999,120.233 748.3709999999997,123.596 750.638,126.557 753.6499999999997,129.042 756.6390000000001,131.507 761.253,134.089 767.3669999999998,136.716 772.5069999999999,138.831 776.34,140.62 778.7749999999997,142.03 781.1549999999997,143.412 782.844,144.801 783.7980000000001,146.154 784.7250000000001,147.478 785.195,149.29 785.195,151.526 785.195,157.893 780.4270000000001,160.991 770.6160000000002,160.991 766.9770000000002,160.991 762.8260000000002,160.231 758.2790000000002,158.733 A 46.347,46.347 0 0 1 745.6450000000002,152.327 L 744.7079999999998,151.655 V 173.382 L 745.0520000000002,173.542 C 748.2450000000002,175.016 752.2709999999999,176.259 757.0160000000003,177.237 761.7519999999999,178.216 766.0549999999999,178.714 769.7930000000003,178.714 781.3280000000003,178.714 790.6170000000003,175.982 797.3950000000003,170.589 804.2160000000003,165.159 807.6730000000003,157.919 807.6730000000003,149.064 807.6730000000003,142.676 805.8120000000003,137.198 802.1440000000003,132.78 798.5010000000003,128.398 792.1780000000003,124.375 783.3590000000001,120.819 776.3330000000004,117.999 771.8320000000003,115.658 769.9750000000002,113.861 768.1850000000004,112.125 767.2760000000004,109.67 767.2760000000004,106.561 767.2760000000004,103.805 768.3980000000002,101.597 770.7010000000002,99.80900000000001 773.022,98.01200000000001 776.2530000000001,97.09800000000001 780.3050000000004,97.09800000000001 784.065,97.09800000000001 787.9120000000001,97.69199999999999 791.738,98.85599999999999 795.5610000000001,100.02 798.9190000000004,101.579 801.7220000000004,103.486 L 802.6440000000003,104.116 V 83.506 L 802.2900000000004,83.35399999999998 C 799.7040000000004,82.245 796.2940000000004,81.29599999999999 792.152,80.52599999999999 788.0290000000003,79.76099999999999 784.2890000000003,79.375 781.036,79.375 M 685.8790000000002,160.26 C 677.69,160.26 671.2300000000002,157.544 666.6800000000004,152.194 662.1000000000002,146.817 659.7840000000004,139.153 659.7840000000004,129.411 659.7840000000004,119.362 662.1030000000004,111.497 666.6850000000004,106.025 671.2350000000003,100.589 677.6300000000004,97.83000000000001 685.6980000000004,97.83000000000001 693.5200000000004,97.83000000000001 699.7490000000002,100.465 704.2120000000004,105.666 708.6970000000003,110.894 710.9720000000004,118.696 710.9720000000004,128.862 710.9720000000004,139.153 708.8310000000002,147.058 704.6110000000004,152.346 700.4200000000004,157.594 694.1210000000004,160.26 685.8790000000002,160.26 M 686.8850000000004,79.37500000000001 C 671.2540000000002,79.37500000000001 658.8410000000003,83.95399999999999 649.9960000000004,92.98500000000001 641.152,102.017 636.6650000000004,114.516 636.6650000000004,130.138 636.6650000000004,144.982 641.0450000000004,156.911 649.6790000000004,165.606 658.3130000000004,174.304 670.0620000000003,178.71 684.599,178.71 699.7450000000003,178.71 711.9130000000003,174.067 720.7590000000003,164.911 729.6020000000003,155.765 734.0850000000001,143.384 734.0850000000001,128.127 734.0850000000001,113.057 729.8790000000002,101.033 721.5800000000001,92.39599999999998 713.277,83.75499999999998 701.6030000000004,79.37499999999998 686.8850000000003,79.37499999999998 M 602.4089999999996,98.06999999999999 V 81.658 H 580.1169999999998 V 176.425 H 602.4089999999996 V 127.948 C 602.4089999999996,119.705 604.278,112.933 607.966,107.818 611.6069999999997,102.764 616.4589999999999,100.203 622.383,100.203 624.3909999999998,100.203 626.6449999999997,100.534 629.086,101.189 631.5019999999999,101.84 633.2519999999999,102.547 634.2839999999996,103.291 L 635.221,103.97 V 81.49599999999999 L 634.86,81.34099999999999 C 632.7839999999996,80.45899999999997 629.8469999999997,80.01399999999999 626.1309999999997,80.01399999999999 620.5289999999996,80.01399999999999 615.5159999999998,81.81399999999999 611.2219999999997,85.35799999999997 607.4529999999997,88.47299999999998 604.7289999999999,92.74399999999998 602.6459999999998,98.06999999999999 Z M 540.196,79.375 C 529.969,79.375 520.8469999999997,81.56799999999998 513.0879999999998,85.891 505.3130000000001,90.224 499.3000000000001,96.41000000000001 495.2090000000001,104.276 491.1360000000001,112.123 489.068,121.289 489.068,131.511 489.068,140.465 491.073,148.682 495.0360000000001,155.924 499.001,163.178 504.6130000000001,168.853 511.717,172.7890000000001 518.811,176.7200000000001 527.0099999999996,178.7130000000001 536.0879999999998,178.7130000000001 546.6820000000001,178.7130000000001 555.7269999999997,176.5950000000001 562.979,172.4180000000001 L 563.272,172.2500000000001 V 151.8270000000001 L 562.335,152.5110000000001 C 559.0499999999999,154.9040000000001 555.379,156.8140000000001 551.4289999999997,158.1900000000001 547.489,159.5650000000001 543.897,160.2600000000001 540.7469999999998,160.2600000000001 532.0000000000001,160.2600000000001 524.9779999999999,157.5230000000001 519.8809999999997,152.127 514.7730000000001,146.7240000000001 512.1830000000001,139.137 512.1830000000001,129.59 512.1830000000001,119.983 514.8840000000001,112.201 520.2070000000001,106.459 525.5140000000001,100.734 532.5489999999997,97.83000000000002 541.1150000000001,97.83000000000002 548.4420000000001,97.83000000000002 555.5820000000001,100.311 562.3370000000001,105.211 L 563.272,105.89 V 84.37099999999999 L 562.97,84.20099999999999 C 560.4279999999996,82.77799999999999 556.961,81.60299999999999 552.657,80.71199999999997 548.3709999999997,79.82299999999999 544.1789999999997,79.37499999999998 540.196,79.37499999999998 M 473.715,81.65899999999999 H 451.423 V 176.425 H 473.715 Z M 462.797,41.28799999999999 C 459.128,41.28799999999999 455.928,42.53699999999999 453.299,45.012 450.6590000000001,47.49399999999999 449.3200000000001,50.61899999999999 449.3200000000001,54.30699999999999 449.3200000000001,57.93699999999999 450.643,61.00499999999999 453.258,63.42099999999999 455.8560000000001,65.82999999999998 459.066,67.05099999999997 462.7980000000001,67.05099999999997 466.5290000000001,67.05099999999997 469.751,65.82999999999998 472.3800000000001,63.42499999999999 475.0260000000001,61.00499999999999 476.3680000000001,57.93799999999999 476.3680000000001,54.30699999999999 476.3680000000001,50.74799999999999 475.0620000000001,47.65499999999999 472.489,45.11199999999999 469.918,42.57399999999999 466.656,41.28799999999999 462.797,41.28799999999999 M 407.177,74.66699999999997 V 176.425 H 429.927 V 44.189 H 398.44 L 358.418,142.41 319.579,44.189 H 286.81 V 176.424 H 308.189 V 74.65699999999999 H 308.923 L 349.936,176.425 H 366.07 L 406.443,74.66700000000001 Z" fill="#706d6e" id="path2" />
<path d="M 104.868,104.868 H 0 V 0 H 104.868 Z" fill="#f1511b" id="path4" />
<path d="M 220.654,104.868 H 115.788 V 0 H 220.654 Z" fill="#80cc28" id="path6" />
<path d="M 104.865,220.695 H 0 V 115.828 H 104.865 Z" fill="#00adef" id="path8" />
<path d="M 220.654,220.695 H 115.788 V 115.828 H 220.654 Z" fill="#fbbc09" id="path10" />
</g>
</svg>
