<?xml version="1.0" encoding="UTF-8" standalone="no"?>
<svg xmlns:dc="http://purl.org/dc/elements/1.1/" xmlns:cc="http://creativecommons.org/ns#" xmlns:rdf="http://www.w3.org/1999/02/22-rdf-syntax-ns#" xmlns:svg="http://www.w3.org/2000/svg" xmlns="http://www.w3.org/2000/svg" width="2500" height="500" viewBox="0.501 0.498 760.825 152.2155172413793" version="1.1" id="svg8">
<metadata id="metadata14">
<rdf:RDF>
<cc:Work rdf:about="">
<dc:format>image/svg+xml</dc:format>
<dc:type rdf:resource="http://purl.org/dc/dcmitype/StillImage" />
<dc:title></dc:title>
</cc:Work>
</rdf:RDF>
</metadata>
<defs id="defs12" />
<g id="g842" transform="matrix(0.9298210508722473,0,0,0.9298210508722473,26.72792494384556,26.88915685160146)">
<path d="M 0.5,15.075 43.946,9.102999999999996 V 51.027 H 0.504 Z M 43.946,56.39200000000001 V 97.84199999999998 L 0.506,91.879 0.5049999999999998,56.394 H 43.947 V 56.39200000000001 Z M 48.75,8.444 106.56,0.4970000000000008 V 51.027 H 48.75 Z M 106.56,56.39200000000001 V 106.441 L 48.75,98.5 V 56.39200000000001 Z" fill="#0dadea" id="path2" />
<g fill="#00adef" id="g6">
<path d="M 204.703,84.786 H 194.66 V 45.955 C 194.66,42.772 194.859,38.885 195.256,34.278 H 195.088 C 194.461,36.9 193.908,38.782 193.428,39.93 L 175.216,84.786 H 168.237 L 149.981,40.266 C 149.471,38.95600000000001 148.931,36.96 148.365,34.283 H 148.197 C 148.426,36.683 148.538,40.601 148.538,46.04 V 84.786 H 139.175 V 24.782 H 153.43 L 169.473,64.74399999999998 C 170.692,67.81199999999998 171.487,70.102 171.854,71.60599999999999 H 172.066 C 173.116,68.45299999999997 173.966,66.10799999999997 174.619,64.57399999999998 L 190.961,24.782 H 204.706 L 204.702,84.786 Z M 223.555,32.94 C 221.939,32.94 220.552,32.426 219.407,31.393 218.257,30.361 217.683,29.048 217.683,27.45899999999999 217.683,25.86999999999999 218.257,24.544 219.407,23.48199999999999 220.557,22.42399999999999 221.939,21.89199999999999 223.555,21.89199999999999 225.227,21.89199999999999 226.649,22.42399999999999 227.811,23.48199999999999 228.973,24.544 229.557,25.86499999999999 229.557,27.45899999999999 229.557,28.963 228.973,30.25499999999999 227.811,31.329 226.644,32.405 225.227,32.94 223.555,32.94 Z M 228.446,84.786 H 218.577 V 41.936 H 228.447 V 84.786 Z M 272.576,82.819 C 269.089,84.799 264.958,85.789 260.192,85.789 253.724,85.789 248.504,83.801 244.532,79.828 240.562,75.855 238.574,70.70099999999999 238.574,64.36599999999998 238.574,57.308 240.709,51.64 244.978,47.356 249.248,43.074 254.955,40.932 262.106,40.932 266.077,40.932 269.581,41.61599999999999 272.615,42.98499999999999 V 52.02199999999999 C 269.577,49.792 266.345,48.67399999999999 262.915,48.67399999999999 258.745,48.67399999999999 255.327,50.064 252.661,52.838 249.995,55.61299999999999 248.659,59.246 248.659,63.737 248.659,68.173 249.912,71.67399999999999 252.423,74.23999999999999 254.933,76.80699999999997 258.3030000000001,78.08999999999997 262.53,78.08999999999997 266.0770000000001,78.08999999999997 269.4210000000001,76.84999999999999 272.571,74.36799999999999 Z M 307.679,51.185 C 306.486,50.26300000000001 304.771,49.805 302.529,49.805 299.607,49.805 297.166,51.1 295.209,53.696 293.251,56.288 292.271,59.819 292.271,64.281 V 84.786 H 282.397 V 41.936 H 292.271 V 50.765 H 292.439 C 293.403,47.752 294.8850000000001,45.402 296.8850000000001,43.71500000000001 298.8850000000001,42.02900000000001 301.1200000000001,41.18300000000001 303.5870000000001,41.18300000000001 305.376,41.18300000000001 306.737,41.45100000000001 307.6750000000001,41.97800000000001 Z M 334.062,85.789 C 327.339,85.789 321.972,83.78799999999999 317.954,79.78499999999999 313.94,75.783 311.931,70.47499999999999 311.931,63.865 311.931,56.666 314.022,51.045 318.209,47 322.396,42.955 328.03,40.932 335.125,40.932 341.935,40.932 347.237,42.90000000000001 351.039,46.83400000000001 354.842,50.76900000000001 356.739,56.22 356.739,63.19300000000001 356.739,70.03 354.691,75.503 350.59,79.61499999999999 346.494,83.733 340.985,85.78900000000001 334.062,85.789 Z M 334.529,48.674 C 330.671,48.674 327.62,50 325.382,52.647 323.139,55.298 322.02,58.952 322.02,63.609 322.02,68.09999999999999 323.156,71.63599999999999 325.425,74.21499999999997 327.6929999999999,76.79399999999998 330.7309999999999,78.08499999999999 334.533,78.08499999999999 338.423,78.08499999999999 341.408,76.81499999999998 343.491,74.27899999999999 345.573,71.73799999999998 346.619,68.12599999999999 346.619,63.439 346.619,58.72699999999999 345.578,55.08599999999999 343.491,52.51899999999999 341.404,49.957 338.418,48.67399999999999 334.529,48.674 Z M 364.106,83.44799999999999 V 74.45299999999997 C 367.796,77.21499999999997 371.866,78.59499999999998 376.316,78.59499999999998 382.276,78.59499999999998 385.252,76.86599999999998 385.252,73.40699999999998 385.252,72.42999999999996 384.9979999999999,71.60199999999997 384.4879999999999,70.91699999999997 383.978,70.23299999999997 383.2909999999999,69.62599999999999 382.422,69.09899999999997 381.553,68.57199999999997 380.534,68.09599999999997 379.359,67.67599999999997 378.179,67.25499999999998 376.869,66.78299999999998 375.422,66.25199999999998 A 41.822,41.822 0 0 1 370.592,64.03399999999996 C 369.157,63.25199999999998 367.969,62.36899999999998 367.018,61.37899999999998 A 9.936999999999999,9.936999999999999 0 0 1 364.871,58.00899999999998 C 364.387,56.75599999999998 364.149,55.28899999999998 364.149,53.61599999999998 364.149,51.55099999999998 364.646,49.73199999999998 365.639,48.15599999999998 366.634,46.57899999999998 367.964,45.25399999999998 369.637,44.18299999999998 371.313,43.10799999999998 373.21,42.30099999999998 375.34,41.75699999999998 A 26.507,26.507 0 0 1 381.934,40.94099999999998 C 385.961,40.94099999999998 389.564,41.53999999999997 392.741,42.73799999999997 V 51.23199999999997 C 389.677,49.16699999999998 386.16,48.13399999999997 382.189,48.13399999999997 380.9399999999999,48.13399999999997 379.812,48.26199999999997 378.806,48.50799999999998 377.799,48.75899999999997 376.939,49.10799999999998 376.23,49.55399999999998 375.5219999999999,49.99999999999997 374.9689999999999,50.53499999999998 374.571,51.16399999999998 A 3.793,3.793 0 0 0 373.975,53.23399999999998 C 373.975,54.15499999999997 374.174,54.93699999999999 374.571,55.57899999999997 374.969,56.21999999999997 375.556,56.78499999999998 376.338,57.27399999999997 377.116,57.76299999999997 378.054,58.20899999999998 379.147,58.61199999999998 380.24,59.01599999999998 381.493,59.45799999999997 382.915,59.92999999999997 A 55.287,55.287 0 0 1 387.9569999999999,62.23299999999997 C 389.4479999999999,63.01399999999997 390.718,63.89799999999997 391.7679999999999,64.88799999999996 A 10.36,10.36 0 0 1 394.1919999999999,68.32099999999995 C 394.7589999999999,69.61699999999997 395.0439999999999,71.15999999999995 395.0439999999999,72.94399999999997 395.0439999999999,75.11999999999997 394.5339999999999,77.01399999999998 393.5099999999999,78.63399999999997 392.4899999999999,80.25299999999997 391.1249999999999,81.59099999999996 389.4269999999999,82.64899999999997 387.7239999999999,83.71099999999997 385.7579999999999,84.49699999999997 383.5329999999999,85.01099999999995 381.3029999999998,85.52999999999997 378.9569999999998,85.78499999999995 376.4899999999998,85.78499999999995 371.7199999999999,85.78899999999997 367.5929999999999,85.01099999999995 364.106,83.44799999999999 Z M 423.765,85.789 C 417.042,85.789 411.671,83.78799999999999 407.656,79.78499999999999 403.642,75.783 401.637,70.47499999999999 401.637,63.865 401.637,56.666 403.729,51.045 407.916,47 412.098,42.955 417.737,40.932 424.828,40.932 431.638,40.932 436.939,42.90000000000001 440.742,46.83400000000001 444.544,50.76900000000001 446.4449999999999,56.22 446.4449999999999,63.19300000000001 446.4449999999999,70.03 444.3969999999999,75.503 440.2969999999999,79.61499999999999 436.1969999999999,83.733 430.6829999999999,85.78900000000001 423.765,85.789 Z M 424.232,48.674 C 420.373,48.674 417.322,50 415.08,52.647 412.837,55.298 411.718,58.952 411.718,63.609 411.718,68.09999999999999 412.855,71.63599999999999 415.1229999999999,74.21499999999997 417.3919999999999,76.79399999999998 420.4289999999999,78.08499999999999 424.2319999999999,78.08499999999999 428.1159999999999,78.08499999999999 431.1019999999999,76.81499999999998 433.1889999999999,74.27899999999999 435.2759999999999,71.73799999999998 436.3169999999999,68.12599999999999 436.3169999999999,63.439 436.3169999999999,58.72699999999999 435.2759999999999,55.08599999999999 433.1889999999999,52.51899999999999 431.1019999999999,49.957 428.1159999999999,48.67399999999999 424.232,48.674 Z M 481.168,29.26 C 479.838,28.508 478.317,28.13 476.614,28.13 471.818,28.13 469.424,30.794 469.424,36.122 V 41.939 H 479.552 V 49.554 H 469.467 V 84.786 H 459.5940000000001 V 49.554 H 452.1490000000001 V 41.939 H 459.5940000000001 V 34.992 C 459.5940000000001,30.472 461.0980000000001,26.911 464.1050000000001,24.302 467.1120000000001,21.692 470.8720000000001,20.388 475.3830000000001,20.388 477.8240000000001,20.388 479.7510000000001,20.652 481.1680000000001,21.183 Z M 509.635,84.32699999999998 C 507.708,85.27499999999999 505.167,85.751 502.017,85.751 493.565,85.751 489.339,81.76099999999999 489.339,73.786 V 49.558 H 482.063 V 41.944 H 489.339 V 32.02600000000001 L 499.213,29.265 V 41.944 H 509.639 V 49.558 H 499.213 V 70.98 C 499.213,73.51700000000001 499.679,75.331 500.617,76.41900000000001 501.555,77.507 503.114,78.05100000000001 505.297,78.05100000000001 506.9690000000001,78.05100000000001 508.417,77.57900000000002 509.6350000000001,76.62699999999999 Z M 593.379,84.786 H 582.274 L 576.7859999999999,69.51099999999999 H 552.7879999999995 L 547.5119999999999,84.786 H 536.4459999999999 L 559.2949999999998,24.782 H 570.6979999999997 L 593.3779999999999,84.786 Z M 574.1029999999999,61.396 565.638,37.461 C 565.383,36.679 565.1109999999996,35.426 564.83,33.696 H 564.662 C 564.407,35.286 564.1219999999998,36.543 563.8099999999999,37.461 L 555.4280000000001,61.396 Z M 632.8669999999998,45.997 609.336,77.20999999999999 H 632.7809999999999 V 84.78599999999997 H 595.504 V 81.14499999999998 L 619.546,49.51099999999998 H 597.8029999999996 V 41.93499999999998 H 632.8669999999998 Z M 679.205,84.786 H 669.336 V 78.00499999999999 H 669.168 C 666.3029999999996,83.19299999999998 661.8479999999999,85.789 655.8079999999996,85.789 645.5099999999996,85.789 640.36,79.709 640.36,67.54399999999999 V 41.935 H 650.2329999999999 V 66.54099999999999 C 650.2329999999999,74.24099999999998 653.253,78.09 659.2989999999997,78.09 662.219,78.09 664.6219999999998,77.03199999999999 666.5100000000001,74.912 668.3980000000001,72.79200000000001 669.3400000000001,70.01700000000001 669.3400000000001,66.584 V 41.935 H 679.214 Z M 717.3759999999997,51.185 C 716.1839999999998,50.26300000000001 714.4679999999998,49.805 712.2259999999995,49.805 709.3049999999999,49.805 706.8629999999999,51.1 704.9059999999999,53.696 702.9489999999999,56.288 701.9679999999998,59.819 701.9679999999998,64.281 V 84.786 H 692.0979999999999 V 41.936 H 701.9679999999998 V 50.765 H 702.1359999999998 C 703.1,47.752 704.5819999999996,45.402 706.5819999999996,43.71500000000001 708.5829999999998,42.02900000000001 710.817,41.18300000000001 713.2839999999996,41.18300000000001 715.0689999999998,41.18300000000001 716.4339999999998,41.45100000000001 717.3669999999998,41.97800000000001 L 717.3769999999999,51.18500000000001 Z M 761.3329999999998,65.99699999999998 H 731.6299999999996 C 731.7419999999998,69.95699999999999 732.9819999999997,73.012 735.354,75.162 737.7219999999997,77.308 740.9759999999995,78.38299999999999 745.12,78.38299999999999 749.773,78.38299999999999 754.042,77.01500000000001 757.927,74.28300000000001 V 82.105 C 753.9569999999996,84.56100000000002 748.7069999999996,85.78900000000001 742.182,85.78900000000001 735.769,85.78900000000001 730.744,83.843 727.0969999999997,79.95100000000002 723.4499999999999,76.05900000000002 721.6309999999997,70.58600000000002 721.6309999999997,63.52900000000003 721.6309999999997,56.86200000000003 723.6359999999998,51.42700000000002 727.6549999999997,47.22900000000003 731.6689999999997,43.03100000000003 736.6549999999997,40.93200000000003 742.6139999999999,40.93200000000003 748.5719999999995,40.93200000000003 753.1779999999996,42.81500000000004 756.4409999999999,46.57900000000003 759.7029999999997,50.34400000000003 761.3359999999994,55.57400000000003 761.3359999999994,62.27100000000003 L 761.3319999999996,65.99700000000001 Z M 751.8009999999999,59.135 C 751.7579999999999,55.647 750.9369999999994,52.935 749.2909999999999,50.998 747.6439999999995,49.061 745.3759999999997,48.092 742.4809999999996,48.092 739.6459999999998,48.092 737.239,49.112 735.269,51.147 733.2989999999997,53.182 732.085,55.847 731.6309999999997,59.13900000000001 H 751.8009999999999 Z" id="path4" />
</g>
</g>
</svg>
