<?xml version="1.0" encoding="UTF-8" standalone="no"?>
<svg xmlns:dc="http://purl.org/dc/elements/1.1/" xmlns:cc="http://creativecommons.org/ns#" xmlns:rdf="http://www.w3.org/1999/02/22-rdf-syntax-ns#" xmlns:svg="http://www.w3.org/2000/svg" xmlns="http://www.w3.org/2000/svg" width="2500" height="500" viewBox="0 0 512 102.3842917251052" version="1.1" id="svg20">
<metadata id="metadata26">
<rdf:RDF>
<cc:Work rdf:about="">
<dc:format>image/svg+xml</dc:format>
<dc:type rdf:resource="http://purl.org/dc/dcmitype/StillImage" />
<dc:title></dc:title>
</cc:Work>
</rdf:RDF>
</metadata>
<defs id="defs24" />
<g id="g860" transform="matrix(0.6513614876596697,0,0,0.6513614876596697,89.44297382553756,3.604001254880961)">
<g fill="none" fill-rule="evenodd" id="g18">
<path d="M 476.713,60.463 C 476.253,60.555 475.791,61.57 475.791,62.123 475.699,65.81499999999998 475.607,75.59699999999999 475.607,82.24099999999998 475.607,82.426 475.883,82.795 476.16,82.795 477.544,82.887 480.866,82.97899999999998 483.727,82.97899999999998 487.695,82.97899999999998 490.002,82.426 491.295,81.873 494.616,80.21099999999998 496.185,76.61199999999999 496.185,72.643 496.185,63.693 489.91,60.278 480.5889999999999,60.278 479.9429999999999,60.186 478.0989999999999,60.186 476.713,60.463 Z M 500.523,101.713 C 500.523,92.57699999999998 493.786,87.50099999999999 481.605,87.50099999999999 481.0510000000001,87.50099999999999 477.175,87.40899999999999 476.252,87.59299999999997 475.975,87.68599999999999 475.607,87.87099999999999 475.607,88.14799999999999 475.607,94.69899999999998 475.514,105.128 475.7910000000001,109.188 475.9750000000001,110.941 477.268,113.433 478.8370000000001,114.171 480.4970000000001,115.094 484.2810000000001,115.278 486.8650000000001,115.278 494.1550000000001,115.278 500.5230000000001,111.218 500.523,101.713 Z M 457.889,55.38799999999999 C 458.811,55.38799999999999 461.579,55.664 468.685,55.664 475.422,55.664 480.774,55.48 487.326,55.48 495.354,55.48 506.428,58.34000000000001 506.428,70.33699999999997 506.428,76.24299999999999 502.275,80.94999999999997 496.831,83.25699999999999 496.555,83.34899999999997 496.555,83.53299999999998 496.831,83.62499999999998 504.582,85.56399999999999 511.412,90.36199999999998 511.412,99.40499999999998 511.412,108.265 505.8750000000001,113.894 497.8460000000001,117.401 492.955,119.523 486.8650000000001,120.261 480.6820000000001,120.261 475.9750000000001,120.261 463.3330000000001,119.708 456.3200000000001,119.893 455.5820000000001,119.615 456.9660000000001,116.293 457.6110000000001,115.74 459.273,115.647 460.564,115.555 462.318,115.001 464.8100000000001,114.356 465.086,113.617 465.455,109.834 465.6400000000001,106.604 465.6400000000001,95.15999999999995 465.6400000000001,87.03999999999996 465.6400000000001,75.87399999999998 465.7330000000001,68.30699999999997 465.6400000000001,64.61599999999998 465.5480000000001,61.756 464.533,60.83199999999999 462.503,60.27799999999999 460.9330000000001,60.00199999999998 458.35,59.63199999999999 456.227,59.35599999999999 455.7650000000001,58.89399999999999 457.3340000000001,55.756 457.889,55.38799999999999 Z M 404.641,112.787 C 406.857,114.539 411.194,115.277 415.07,115.277 420.053,115.277 425.036,114.356 429.835,110.017 434.726,105.589 438.14,98.75999999999997 438.14,87.87099999999998 438.14,77.44199999999996 434.172,68.95199999999998 426.051,63.96999999999999 421.437,61.10799999999998 415.531,59.90999999999998 408.702,59.90999999999998 406.672,59.90999999999998 404.734,60.00199999999998 403.535,60.55499999999999 403.257,60.73999999999999 402.612,61.57 402.612,62.03099999999999 402.427,63.87699999999998 402.427,78.08799999999996 402.427,86.39399999999997 402.427,94.97599999999997 402.427,106.973 402.612,108.357 402.612,109.742 403.257,111.864 404.642,112.787 Z M 383.693,55.387 C 385.4470000000001,55.387 392.1830000000001,55.664 395.4130000000001,55.664 401.2280000000001,55.664 405.3800000000001,55.38799999999999 416.3610000000001,55.38799999999999 425.5890000000001,55.38799999999999 433.3410000000001,57.87899999999999 438.878,62.585 445.614,68.399 449.1220000000001,76.42799999999998 449.1220000000001,86.20899999999997 449.1220000000001,100.144 442.7540000000001,108.173 436.3860000000001,112.787 430.0200000000001,117.493 421.7140000000001,120.261 409.9020000000001,120.261 403.6270000000001,120.261 392.8300000000001,120.077 383.8780000000001,119.984 H 383.7860000000001 C 383.3250000000001,119.154 384.5240000000001,115.924 385.2620000000001,115.832 387.6620000000001,115.555 388.3080000000001,115.462 389.5080000000001,115.002 391.4450000000001,114.263 391.8150000000001,113.248 392.0920000000001,109.834 392.3680000000001,103.466 392.2760000000001,95.80699999999997 392.2760000000001,87.13199999999999 392.2760000000001,80.94999999999997 392.3680000000001,68.85999999999998 392.1830000000001,64.98399999999999 391.9070000000001,61.755 390.5230000000001,60.92399999999999 387.7540000000001,60.37 386.3700000000001,60.094 384.5240000000001,59.724 381.9410000000002,59.448 381.5710000000001,58.801 383.2320000000001,55.941 383.6930000000002,55.388 Z" fill="#8e714e" id="path2" />
<path d="M 272.033,116.385 C 269.726,116.108 268.065,115.74 266.035,114.817 265.758,114.632 265.2960000000001,113.71 265.2960000000001,113.34 265.112,110.11 265.112,100.882 265.112,94.7 265.112,89.71599999999999 264.282,85.379 262.1590000000001,82.334 259.667,78.82599999999999 256.0690000000001,76.79699999999999 251.454,76.79699999999999 247.394,76.79699999999999 241.949,79.56499999999998 237.4270000000001,83.441 237.335,83.533 236.597,84.18 236.6890000000001,83.164 236.6890000000001,82.149 236.8740000000001,80.11899999999998 236.966,78.73399999999999 237.059,77.44199999999999 236.3200000000001,76.79700000000001 236.3200000000001,76.79700000000001 233.3670000000001,78.27300000000001 225.062,80.21100000000001 222.0160000000001,80.48699999999999 219.8020000000001,80.95 219.2480000000001,83.072 221.556,83.81 H 221.6480000000001 C 224.1380000000001,84.548 225.8,85.379 227.0910000000001,86.20999999999999 228.0140000000001,86.94799999999999 227.9220000000001,87.96299999999999 227.9220000000001,88.79400000000001 228.0140000000001,95.71400000000001 228.0140000000001,106.327 227.7380000000001,112.141 227.6460000000001,114.448 227.0000000000001,115.278 225.3380000000001,115.647 L 225.5230000000001,115.555 C 224.2310000000001,115.832 223.2160000000001,116.108 221.6470000000001,116.293 221.0930000000001,116.847 221.0930000000001,119.8 221.6470000000001,120.446 222.662,120.446 228.014,120.169 232.4450000000001,120.169 238.5350000000001,120.169 241.6730000000001,120.446 243.241,120.446 243.887,119.708 244.072,116.939 243.703,116.293 241.949,116.201 240.657,116.017 239.458,115.647 237.797,115.277 237.335,114.448 237.242,112.51 237.059,107.618 237.059,97.28300000000001 237.059,90.27000000000002 237.059,88.33200000000002 237.612,87.40900000000002 238.165,86.855 240.288,85.01 243.703,83.718 246.748,83.718 249.701,83.718 251.638,84.641 253.115,85.84100000000002 255.145,87.501 255.791,89.90100000000002 256.068,91.65400000000002 256.529,95.62200000000001 256.345,103.466 256.345,110.295 256.345,113.986 256.068,114.909 254.685,115.37 254.038,115.647 252.377,116.017 250.439,116.2 249.793,116.847 249.978,119.708 250.439,120.354 253.115,120.354 256.253,120.077 260.867,120.077 266.588,120.077 270.28,120.354 271.757,120.354 272.2169999999999,119.8 272.4019999999999,117.124 272.033,116.385 Z M 297.595,81.135 C 292.705,81.135 289.6590000000001,84.918 289.6590000000001,90.82299999999999 289.6590000000001,96.822 292.335,103.743 299.9020000000001,103.743 301.194,103.743 303.5940000000001,103.189 304.7000000000001,101.897 306.4540000000001,100.237 307.6540000000001,96.914 307.6540000000001,93.40700000000001 307.6540000000001,85.748 303.8700000000001,81.13400000000001 297.595,81.13400000000001 Z M 296.949,121.922 C 295.104,121.922 293.811,122.476 292.981,122.938 289.105,125.428 287.352,127.828 287.352,130.69 287.352,133.365 288.367,135.487 290.582,137.333 293.258,139.64 296.949,140.748 301.655,140.748 311.068,140.748 315.221,135.672 315.221,130.69 315.221,127.182 313.4669999999999,124.875 309.869,123.584 307.285,122.476 302.579,121.922 296.949,121.922 Z M 297.595,145.916 C 291.966,145.916 287.905,144.716 284.399,142.04 280.984,139.456 279.508,135.58 279.508,132.904 279.508,132.166 279.693,130.135 281.354,128.29 282.368,127.182 284.584,125.06 289.844,121.461 290.028,121.369 290.12,121.277 290.12,121.091 290.12,120.907 289.935,120.722 289.751,120.631 285.414,118.97 284.122,116.293 283.752,114.817 V 114.632 C 283.661,114.078 283.4759999999999,113.525 284.307,112.971 284.953,112.51 285.876,111.956 286.89,111.311 288.459,110.387 290.12,109.372 291.135,108.541 291.32,108.357 291.32,108.173 291.32,107.988 291.32,107.803 291.135,107.618 290.95,107.527 284.492,105.404 281.262,100.605 281.262,93.40700000000001 281.262,88.70099999999999 283.384,84.456 287.167,81.78000000000001 289.751,79.75000000000001 296.211,77.25799999999999 300.456,77.25799999999999 H 300.733 C 305.0699999999999,77.34999999999999 307.4689999999999,78.27300000000001 310.8829999999999,79.47300000000001 312.7289999999999,80.11900000000001 314.483,80.39500000000001 316.8829999999999,80.39500000000001 320.4809999999999,80.39500000000001 322.0499999999999,79.28800000000001 323.341,77.99700000000001 323.434,78.18100000000001 323.619,78.64300000000001 323.711,79.84200000000001 323.8029999999999,81.04200000000001 323.434,82.79500000000001 322.511,84.087 321.773,85.102 320.112,85.84100000000002 318.451,85.84100000000002 H 317.989 C 316.328,85.65600000000002 315.589,85.471 315.589,85.471 L 315.221,85.65600000000002 C 315.129,85.84100000000002 315.221,86.025 315.313,86.30200000000002 L 315.406,86.48700000000002 C 315.59,87.31700000000002 315.959,89.80800000000002 315.959,90.45500000000002 315.959,98.022 312.914,101.343 309.684,103.835 306.5460000000001,106.142 302.948,107.618 298.887,107.988 298.795,107.988 298.427,107.988 297.595,108.08 297.134,108.08 296.488,108.173 296.395,108.173 H 296.3030000000001 C 295.5650000000001,108.357 293.72,109.28 293.72,110.848 293.72,112.232 294.55,113.894 298.518,114.171 299.348,114.263 300.1780000000001,114.263 301.102,114.356 306.362,114.724 312.9140000000001,115.186 315.9590000000001,116.201 320.2040000000001,117.769 322.8800000000001,121.553 322.8800000000001,126.075 322.8800000000001,132.905 317.9900000000001,139.272 309.869,143.239 305.901,144.993 301.932,145.916 297.595,145.916 Z M 350.1950000000001,81.596 C 348.258,81.596 346.5040000000001,82.05599999999998 345.2120000000001,82.97899999999998 341.614,85.194 339.768,89.62399999999999 339.768,96.08299999999998 339.768,108.173 345.858,116.663 354.533,116.663 357.117,116.663 359.147,115.924 360.9,114.448 363.576,112.232 364.961,107.803 364.961,101.62 364.961,89.62399999999999 358.962,81.59499999999998 350.196,81.59499999999998 Z M 351.857,121.092 C 336.169,121.092 330.54,109.557 330.54,98.76 330.54,91.19300000000001 333.585,85.379 339.675,81.22600000000001 344.013,78.55000000000002 349.181,77.07400000000002 353.795,77.07400000000002 365.791,77.07400000000002 374.189,85.65600000000003 374.189,98.022 374.189,106.419 370.867,113.063 364.499,117.124 361.454,119.154 356.194,121.092 351.856,121.092 Z M 187.411,81.59499999999998 C 185.473,81.59499999999998 183.72,82.05599999999998 182.427,82.97899999999998 178.829,85.194 176.983,89.62399999999999 176.983,96.08299999999998 176.983,108.173 183.073,116.663 191.748,116.663 194.332,116.663 196.362,115.924 198.116,114.448 200.791,112.232 202.176,107.803 202.176,101.62 202.176,89.62399999999999 196.27,81.59499999999998 187.411,81.59499999999998 Z M 189.072,121.092 C 173.384,121.092 167.755,109.557 167.755,98.75999999999999 167.755,91.19299999999998 170.8,85.37899999999999 176.89,81.22599999999998 181.228,78.54999999999998 186.396,77.07399999999998 191.01,77.07399999999998 203.007,77.07399999999998 211.404,85.656 211.404,98.02199999999999 211.404,106.419 208.082,113.063 201.714,117.124 198.761,119.154 193.501,121.092 189.072,121.092 Z M 83.59399999999999,120.169 C 83.409,119.893 83.224,119.062 83.31699999999999,118.047 83.31699999999999,117.308 83.50199999999999,116.847 83.59399999999999,116.663 85.53200000000001,116.385 86.54700000000001,116.108 87.65400000000001,115.832 89.50000000000001,115.37 90.23800000000001,114.356 90.33000000000001,112.049 90.608,106.512 90.608,95.99099999999998 90.51500000000001,88.70099999999999 V 88.51599999999999 C 90.51500000000001,87.68599999999999 90.51500000000001,86.66999999999997 89.50000000000001,85.93199999999997 88.02300000000001,85.00999999999999 86.27000000000001,84.17999999999999 83.96299999999999,83.53199999999998 83.13299999999999,83.25699999999997 82.57899999999999,82.79499999999997 82.671,82.24199999999997 82.671,81.68799999999997 83.22499999999999,81.04199999999997 84.42500000000001,80.85699999999997 87.47000000000001,80.57999999999995 95.40500000000001,78.64299999999997 98.543,77.25799999999995 98.72799999999999,77.44199999999996 99.00499999999999,77.99699999999997 99.00499999999999,78.73499999999997 L 98.91300000000001,79.74899999999996 C 98.81999999999999,80.76499999999997 98.72799999999999,81.96499999999996 98.72799999999999,83.16399999999997 98.72799999999999,83.53299999999997 99.09800000000001,83.80999999999997 99.46599999999999,83.80999999999997 99.65100000000001,83.80999999999997 99.83600000000001,83.71799999999997 100.02,83.62499999999997 105.926,79.01099999999995 111.278,77.34999999999996 114.046,77.34999999999996 118.569,77.34999999999996 122.076,79.47299999999997 124.752,83.90199999999994 124.936,84.17999999999996 125.121,84.27199999999996 125.398,84.27199999999996 125.582,84.27199999999996 125.858,84.17999999999996 125.951,83.99499999999996 131.396,79.84199999999995 136.841,77.34999999999996 140.439,77.34999999999996 149.021,77.34999999999996 154.097,83.71799999999996 154.097,94.51499999999994 154.097,97.55999999999994 154.097,101.528 154.005,105.128 154.005,108.357 153.913,111.31 153.913,113.433 153.913,113.893 154.558,115.37 155.573,115.647 156.865,116.293 158.619,116.57 160.926,116.939 H 161.018 C 161.203,117.585 160.834,119.984 160.465,120.446 159.911,120.446 159.08,120.446 158.158,120.354 A 136.208,136.208 0 0 0 151.144,120.169 C 145.423,120.169 142.47,120.261 139.608,120.446 139.425,119.708 139.332,117.493 139.608,116.939 141.27,116.663 142.1,116.385 143.116,116.109 144.962,115.555 145.423,114.724 145.516,112.325 145.516,110.572 145.884,95.62199999999994 145.33,92.02299999999995 144.777,88.33199999999996 142.008,83.99499999999996 135.917,83.99499999999996 133.61,83.99499999999996 130.012,84.91799999999996 126.505,87.59299999999996 126.321,87.77799999999996 126.135,88.23899999999996 126.135,88.51599999999996 V 88.60899999999996 C 126.505,90.54599999999996 126.505,92.76199999999997 126.505,96.17599999999994 V 102.174 C 126.505,106.327 126.412,110.203 126.505,113.155 126.505,115.186 127.705,115.647 128.72,116.017 129.274,116.108 129.642,116.201 130.104,116.293 130.934,116.478 131.765,116.663 133.057,116.939 133.242,117.309 133.242,118.508 132.965,119.523 132.872,120.077 132.687,120.353 132.595,120.446 129.458,120.354 126.228,120.261 121.522,120.261 120.138,120.261 117.738,120.354 115.708,120.354 114.046,120.354 112.478,120.446 111.556,120.446 111.463,120.261 111.278,119.616 111.278,118.6 111.278,117.77 111.463,117.124 111.648,116.939 112.109,116.847 112.478,116.755 112.94,116.755 114.046,116.57 114.97,116.385 115.892,116.201 117.462,115.74 118.015,114.909 118.107,112.879 118.384,108.265 118.661,95.06899999999994 118.015,91.74599999999995 116.908,86.39399999999993 113.863,83.71799999999994 108.971,83.71799999999994 106.111,83.71799999999994 102.511,85.10199999999994 99.55899999999995,87.31799999999994 99.09699999999996,87.68599999999993 98.72799999999996,88.60799999999993 98.72799999999996,89.43899999999993 V 94.88399999999991 C 98.72799999999996,101.5279999999999 98.72799999999996,109.8339999999999 98.81999999999996,113.4329999999999 98.91299999999995,114.5389999999999 99.28099999999996,115.8319999999999 101.404,116.2929999999999 101.866,116.3849999999999 102.604,116.5699999999999 103.527,116.6629999999999 L 105.187,116.9389999999999 C 105.373,117.4929999999999 105.28,119.7079999999999 104.911,120.4459999999999 103.988,120.4459999999999 102.881,120.3539999999999 101.588,120.3539999999999 99.65099999999998,120.2609999999999 97.15899999999996,120.1689999999999 94.39099999999997,120.1689999999999 91.16099999999997,120.1689999999999 88.85399999999997,120.2609999999999 87.00799999999998,120.3539999999999 85.71599999999996,120.1689999999999 84.70099999999996,120.1689999999999 83.59399999999999,120.169 Z" fill="#442d22" id="path4" />
<path d="M 35.053,142.317 31.26999999999999,141.024 C 31.26999999999999,141.024 31.73199999999999,121.738 24.80999999999999,120.354 20.19699999999999,115.001 25.54999999999999,-106.659 42.16,119.615 42.16,119.615 36.438,122.475 35.423,127.367 34.315,132.166 35.053,142.317 35.053,142.317 Z" fill="#ffffff" id="path6" />
<path d="M 35.053,142.317 31.26999999999999,141.024 C 31.26999999999999,141.024 31.73199999999999,121.738 24.80999999999999,120.354 20.19699999999999,115.001 25.54999999999999,-106.659 42.16,119.615 42.16,119.615 36.438,122.475 35.423,127.367 34.315,132.166 35.053,142.317 35.053,142.317 Z" fill="#a6a385" id="path8" />
<path d="M 37.08400000000001,123.676 C 37.08400000000001,123.676 70.21399999999998,101.897 62.461,56.586 54.987,23.643 37.361,12.846 35.423,8.692999999999997 33.301,5.740000000000001 31.27,0.5729999999999999 31.27,0.5729999999999999 L 32.655,92.20699999999999 C 32.655,92.29999999999998 29.794,120.261 37.085,123.677" fill="#ffffff" id="path10" />
<path d="M 37.08400000000001,123.676 C 37.08400000000001,123.676 70.21399999999998,101.897 62.461,56.586 54.987,23.643 37.361,12.846 35.423,8.692999999999997 33.301,5.740000000000001 31.27,0.5729999999999999 31.27,0.5729999999999999 L 32.655,92.20699999999999 C 32.655,92.29999999999998 29.794,120.261 37.085,123.677" fill="#499d4a" id="path12" />
<path d="M 29.333,124.875 C 29.333,124.875 -1.767,103.65 0.079,66.277 1.832,28.903 23.795,10.539 28.04,7.217 30.809,4.264000000000002 30.901,3.156 31.086,0.2029999999999994 33.024,4.355999999999999 32.655,62.309 32.931,69.137 33.761,95.43699999999998 31.455,119.893 29.333,124.875 Z" fill="#ffffff" id="path14" />
<path d="M 29.333,124.875 C 29.333,124.875 -1.767,103.65 0.079,66.277 1.832,28.903 23.795,10.539 28.04,7.217 30.809,4.264000000000002 30.901,3.156 31.086,0.2029999999999994 33.024,4.355999999999999 32.655,62.309 32.931,69.137 33.761,95.43699999999998 31.455,119.893 29.333,124.875 Z" fill="#58aa50" id="path16" />
</g>
</g>
</svg>
