<?xml version="1.0" encoding="UTF-8" standalone="no"?>
<svg xmlns:dc="http://purl.org/dc/elements/1.1/" xmlns:cc="http://creativecommons.org/ns#" xmlns:rdf="http://www.w3.org/1999/02/22-rdf-syntax-ns#" xmlns:svg="http://www.w3.org/2000/svg" xmlns="http://www.w3.org/2000/svg" width="2500" height="500" viewBox="0 0 1886.832 377.4529109589041" version="1.1" id="svg10">
<metadata id="metadata16">
<rdf:RDF>
<cc:Work rdf:about="">
<dc:format>image/svg+xml</dc:format>
<dc:type rdf:resource="http://purl.org/dc/dcmitype/StillImage" />
<dc:title></dc:title>
</cc:Work>
</rdf:RDF>
</metadata>
<defs id="defs14" />
<g fill="#005daa" id="g8" transform="matrix(0.7634312199194313,0,0,0.7634312199194313,223.1816270816599,20.44178481017198)">
<path d="M 1603.571,440.835 1724.251,108.015 C 1724.251,108.015 1634.044,108.015 1543.827,126.119 L 1429.743,440.834 H 1603.571 Z M 1582.981,18.10899999999998 1559.819,82.04099999999998 C 1650.581,63.91099999999999 1740.229,63.91099999999999 1740.229,63.91099999999999 L 1763.397,0 C 1763.405,0.011 1673.203,0.011 1582.981,18.10899999999998 Z M 931.614,422.719 C 992.908,434.59 1056.231,440.834 1121.014,440.834 H 1121.035 C 1223.844,440.834 1266.103,430.607 1319.441,403.385 1364.884,380.141 1394.754,355.483 1407.593,313.014 1418.597,276.621 1404.536,242.274 1371.921,220.419 1339.292,198.569 1307.689,188.24 1270.167,167.539 1237.337,149.446 1219.442,135.808 1221.632,116.83 1226.237,77.01500000000001 1268.8,63.91000000000001 1327.45,63.91000000000001 1384.608,63.91000000000001 1440.532,69.08499999999999 1494.792,78.97499999999999 L 1516.88,18.10800000000001 C 1455.586,6.252 1392.235,0 1327.451,0 1224.637,0 1182.396,10.226 1129.051,37.46500000000001 1083.594,60.7 1053.727,85.358 1040.885,127.85 1029.889,164.236 1043.942,198.562 1076.586,220.413 1109.188,242.26 1140.775,252.602 1178.336,273.332 1211.143,291.418 1229.066,305.045 1226.834,324.021 1222.221,363.8490000000001 1179.664,376.898 1121.037,376.898 H 1121.008 C 1063.885,376.898 1007.953,371.74 953.6739999999997,361.83 Z M 865.47,440.835 977.355,132.235 C 986.451,107.217 987.0389999999996,62.13499999999996 961.908,37.49399999999996 936.7569999999999,12.759 906.8049999999999,0.01 851.4479999999997,0.01 796.095,-0.008 751.153,14.527 715.0409999999999,28.678 695.6249999999995,36.23900000000001 666.7999999999999,51.02600000000001 634.1899999999999,70.772 631.0399999999998,58.26100000000001 625.2939999999997,46.53 616.1039999999999,37.50100000000001 590.937,12.767 560.988,0.018 505.643,0.018 450.269,0.003 405.365,14.535 369.229,28.686 349.822,36.246 320.989,51.033 288.379,70.77899999999999 285.234,58.268 279.483,46.538 270.293,37.508 245.133,12.775 215.19,0.026 159.824,0.026 L -0.001,440.864 H 173.849 L 253.773,220.419 C 268.259,180.44 307.685,142.368 329.328,125.645 356.86,104.382 480.066,70.53299999999998 446.503,163.114 L 345.818,440.835 H 519.6749999999999 L 599.5919999999996,220.375 C 614.0929999999998,180.41 653.5109999999998,142.361 675.138,125.646 702.6699999999998,104.383 825.8769999999999,70.53399999999996 792.306,163.115 L 691.6219999999998,440.835 Z" id="path2" />
<g id="g6">
<path d="M 1845.68,6.449 H 1835.27 V 33.287 H 1826.69 V 6.449 H 1816.29 V 0.01 H 1845.675 V 6.449 Z M 1886.832,33.288 H 1878.266 V 11.008 L 1872.11,25.45799999999999 H 1866.219 L 1860.071,11.008 V 33.288 H 1852.007 V 0.011 H 1861.917 L 1869.394,16.695 1876.83,0.011 H 1886.836 V 33.28800000000001 Z" id="path4" />
</g>
</g>
</svg>
