<?xml version="1.0" encoding="UTF-8" standalone="no"?>
<svg xmlns:dc="http://purl.org/dc/elements/1.1/" xmlns:cc="http://creativecommons.org/ns#" xmlns:rdf="http://www.w3.org/1999/02/22-rdf-syntax-ns#" xmlns:svg="http://www.w3.org/2000/svg" xmlns="http://www.w3.org/2000/svg" width="2500" height="500" viewBox="0 0 192.756 38.5512" version="1.1" id="svg12">
<metadata id="metadata18">
<rdf:RDF>
<cc:Work rdf:about="">
<dc:format>image/svg+xml</dc:format>
<dc:type rdf:resource="http://purl.org/dc/dcmitype/StillImage" />
<dc:title></dc:title>
</cc:Work>
</rdf:RDF>
</metadata>
<defs id="defs16" />
<g id="g850" transform="matrix(0.3696710121807837,0,0,0.3696710121807837,60.75003202354649,-14.256693321176)">
<path d="M 8.503999999999999,128.215 H 14.304 V 105.238 L 23.362,125.271 C 24.388,127.679 25.861,128.572 28.716,128.572 31.57199999999999,128.572 32.955,127.679 34.02600000000001,125.271 L 43.039,105.238 V 128.215 H 48.884 V 105.238 C 48.884,103.008 47.99099999999999,101.935 46.11699999999999,101.355 41.69999999999999,100.017 38.75499999999999,101.177 37.41699999999999,104.166 L 28.53899999999999,123.977 19.97199999999999,104.166 C 18.67799999999999,101.178 15.68799999999999,100.018 11.22699999999999,101.355 9.397999999999987,101.935 8.504999999999988,103.007 8.504999999999988,105.238 V 128.215 Z M 53.702,109.521 H 59.547 V 122.148 C 59.503,122.861 59.77000000000001,124.468 62.938,124.511 64.58899999999998,124.556 75.51999999999999,124.511 75.60899999999999,124.511 V 109.431 H 81.45399999999999 V 130.089 C 81.45399999999999,135.175 75.16299999999999,136.29 72.21799999999997,136.335 H 53.835 V 132.454 H 72.262 C 76.01,132.052 75.56399999999999,130.179 75.56399999999999,129.554 V 128.036 H 63.205 C 57.449,127.991 53.746,125.448 53.702,122.548 53.702,122.281 53.835,109.609 53.702,109.521 Z M 179.076,94.88599999999999 C 175.508,94.79699999999999 172.74,95.15399999999999 170.42,96.13599999999999 169.752,96.405 168.68,96.405 168.592,97.25199999999999 168.949,97.60699999999998 168.992,98.188 169.305,98.67999999999999 169.84,99.57299999999999 170.778,100.776 171.625,101.401 172.563,102.116 173.5,102.829 174.48,103.454 176.22,104.524 178.183,105.149 179.878,106.22 180.86,106.845 181.841,107.648 182.823,108.318 183.313,108.675 183.626,109.256 184.251,109.478 V 109.343 C 183.9389999999999,108.943 183.849,108.363 183.538,107.915 183.091,107.47 182.645,107.067 182.198,106.622 180.905,104.882 179.298,103.364 177.557,102.116 176.129,101.134 173.006,99.79599999999999 172.426,98.14499999999998 L 172.338,98.05499999999996 C 173.318,97.96499999999997 174.479,97.60799999999997 175.416,97.33999999999997 176.934,96.93999999999995 178.316,97.02799999999996 179.877,96.62699999999998 180.592,96.44799999999996 181.305,96.22499999999998 182.02,96.00199999999998 V 95.60099999999998 C 181.217,94.79799999999997 180.637,93.72699999999997 179.79,92.96899999999996 177.515,91.00599999999998 175.015,89.08699999999997 172.427,87.48099999999998 171.044,86.58899999999998 169.259,86.00799999999998 167.788,85.25099999999997 167.251,84.98299999999997 166.36,84.84899999999997 166.048,84.40299999999996 165.243,83.42199999999998 164.798,82.12799999999997 164.218,80.96699999999998 162.925,78.51299999999999 161.675,75.79199999999997 160.56,73.20399999999996 159.757,71.46399999999998 159.265,69.72399999999997 158.285,68.11799999999998 153.689,60.53299999999998 148.691,55.93699999999999 141.017,51.43099999999999 139.367,50.49399999999999 137.404,50.09199999999999 135.306,49.60199999999998 134.191,49.55699999999998 133.076,49.46799999999998 131.96,49.42299999999998 131.245,49.11099999999998 130.532,48.26299999999999 129.907,47.86099999999998 127.364,46.25499999999998 120.805,42.77499999999999 118.93,47.36999999999999 117.725,50.26999999999998 120.715,53.125 121.741,54.59799999999999 122.501,55.62399999999999 123.481,56.78399999999999 124.018,57.94399999999999 124.329,58.70199999999999 124.418,59.506 124.731,60.30899999999999 125.444,62.27199999999999 126.114,64.45799999999998 127.051,66.28799999999999 127.5409999999999,67.22499999999999 128.0759999999999,68.20699999999999 128.7009999999999,69.05499999999999 129.0579999999999,69.54599999999999 129.6829999999999,69.76899999999999 129.816,70.57199999999997 129.191,71.46499999999997 129.1479999999999,72.80299999999998 128.7909999999999,73.91899999999998 127.1839999999999,78.96099999999998 127.8089999999999,85.20699999999996 130.084,88.90999999999998 130.799,90.02499999999996 132.4939999999999,92.47899999999998 134.77,91.54199999999997 136.778,90.73899999999999 136.331,88.19599999999998 136.911,85.96499999999997 137.0459999999999,85.42999999999999 136.9559999999999,85.07299999999999 137.223,84.71599999999999 V 84.80499999999999 C 137.848,86.05399999999997 138.473,87.25899999999998 139.053,88.50799999999999 140.436,90.69399999999997 142.846,92.96999999999998 144.854,94.48699999999999 145.924,95.28999999999999 146.772,96.67399999999999 148.11,97.164 V 97.02899999999999 H 148.022 C 147.754,96.62899999999999 147.352,96.45 146.995,96.137 146.192,95.334 145.3,94.352 144.675,93.45999999999999 142.802,90.96199999999997 141.152,88.19499999999999 139.679,85.33999999999997 138.964,83.95699999999999 138.339,82.43999999999998 137.761,81.05699999999997 137.491,80.52099999999998 137.491,79.71799999999997 137.046,79.45099999999999 136.376,80.43199999999997 135.396,81.28099999999999 134.903,82.48499999999998 134.055,84.403 133.967,86.768 133.655,89.22199999999999 133.475,89.26699999999999 133.565,89.22199999999999 133.475,89.31099999999999 132.049,88.95499999999998 131.557,87.48199999999998 131.022,86.23299999999997 129.684,83.06499999999998 129.46,77.97899999999998 130.62,74.31999999999999 130.932,73.38299999999999 132.272,70.43799999999997 131.737,69.54599999999999 131.467,68.69799999999999 130.577,68.20799999999998 130.085,67.53799999999999 129.505,66.68999999999998 128.882,65.61999999999999 128.48,64.68299999999999 127.41,62.18399999999999 126.875,59.41799999999999 125.714,56.91899999999999 125.177,55.759 124.241,54.55399999999999 123.482,53.48399999999999 122.634,52.27899999999999 121.699,51.43099999999999 121.029,50.00399999999999 120.806,49.51299999999999 120.494,48.71 120.851,48.17499999999999 120.939,47.81799999999999 121.119,47.68399999999999 121.474,47.59499999999999 122.054,47.10399999999999 123.706,47.72899999999999 124.286,47.996 125.936,48.66499999999999 127.319,49.28999999999999 128.702,50.22599999999999 129.327,50.67199999999999 129.997,51.51999999999999 130.8,51.74399999999999 H 131.738 C 133.166,52.05599999999999 134.771,51.83299999999999 136.109,52.234 138.474,52.993 140.615,54.108 142.535,55.313 148.379,59.016 153.199,64.28099999999999 156.455,70.572 156.99,71.59799999999998 157.213,72.53499999999999 157.705,73.60599999999999 158.643,75.793 159.803,78.02300000000001 160.738,80.165 161.676,82.262 162.568,84.40400000000001 163.906,86.144 164.576,87.081 167.252,87.57100000000001 168.457,88.06200000000001 169.35,88.46299999999999 170.732,88.82100000000001 171.537,89.311 173.053,90.248 174.57,91.319 175.998,92.34500000000001 176.711,92.879 178.943,93.99400000000001 179.076,94.88599999999999 Z" fill="#00678c" id="path4" style="clip-rule:evenodd;fill-rule:evenodd" />
<path d="M 133.566,56.114 C 132.808,56.114 132.273,56.20300000000001 131.738,56.33700000000001 V 56.426 H 131.826 C 132.183,57.14 132.808,57.631 133.254,58.255 133.611,58.969 133.924,59.68299999999999 134.281,60.397 L 134.369,60.308 C 134.994,59.862 135.307,59.14800000000001 135.307,58.077 135.039,57.765 134.995,57.452 134.772,57.14 134.504,56.694 133.924,56.47100000000001 133.566,56.114 Z" fill="#00678c" id="path6" style="clip-rule:evenodd;fill-rule:evenodd" />
<path d="M 85.91599999999999,128.215 H 102.692 C 104.655,128.215 106.53,127.815 108.046,127.1 110.589,125.94 111.794,124.379 111.794,122.327 V 118.044 C 111.794,116.394 110.411,114.831 107.646,113.761 106.218,113.226 104.433,112.913 102.693,112.913 H 95.64399999999999 C 93.27899999999999,112.913 92.16399999999997,112.198 91.85099999999998,110.638 91.80699999999997,110.46 91.80699999999997,110.281 91.80699999999997,110.103 V 107.47 C 91.80699999999997,107.335 91.80699999999997,107.158 91.85099999999998,106.98 92.16299999999998,105.775 92.78799999999998,105.462 94.84099999999996,105.24 H 112.018 V 101.357 H 95.68699999999998 C 93.322,101.357 92.07299999999999,101.492 90.95799999999998,101.849 87.52199999999999,102.919 86.00499999999999,104.615 86.00499999999999,107.603 V 110.996 C 86.00499999999999,113.627 88.94999999999997,115.859 93.947,116.394 94.48199999999998,116.439 95.06199999999998,116.439 95.64199999999999,116.439 H 101.666 C 101.889,116.439 102.111,116.439 102.289,116.484 104.119,116.662 104.922,116.974 105.457,117.642 105.814,117.999 105.904,118.312 105.904,118.714 V 122.1050000000001 C 105.904,122.5050000000001 105.636,123.0430000000001 105.101,123.488 104.564,123.933 103.716,124.246 102.601,124.291 102.378,124.291 102.246,124.336 102.021,124.336 H 85.91599999999999 Z M 148.111,121.479 C 148.111,125.45 151.101,127.68 157.08,128.127 157.66,128.172 158.195,128.215 158.775,128.215 H 173.945 V 124.334 H 158.642 C 155.249,124.334 153.956,123.486 153.956,121.434 V 101.356 H 148.11 V 121.479 Z M 115.496,121.656 V 107.826 C 115.496,104.301 117.994,102.158 122.859,101.49 123.394,101.445 123.929,101.4 124.42,101.4 H 135.484 C 136.064,101.4 136.556,101.445 137.136,101.49 141.999,102.158 144.452,104.301 144.452,107.826 V 121.656 C 144.452,124.511 143.427,126.029 141.016,127.056 L 146.727,132.23 H 139.991 L 135.35,128.037 130.664,128.305 H 124.418 C 123.393,128.305 122.232,128.172 121.027,127.86 117.326,126.832 115.496,124.869 115.496,121.656 Z M 121.787,121.346 C 121.787,121.524 121.877,121.701 121.922,121.926 122.234,123.531 123.75,124.424 126.07,124.424 H 131.336 L 126.518,120.051 H 133.254 L 137.492,123.889 C 138.297,123.442 138.787,122.817 138.965,122.014 139.01,121.836 139.01,121.614 139.01,121.434 V 108.182 C 139.01,108.004 139.01,107.827 138.965,107.647 138.653,106.131 137.137,105.284 134.861,105.284 H 126.07 C 123.482,105.284 121.787,106.399 121.787,108.182 Z M 176.623,128.26 H 177.471 V 125.004 H 178.586 V 124.334 H 175.463 V 125.004 H 176.623 Z M 183.092,128.26 H 183.895 V 124.334 H 182.692 L 181.71,127.012 180.64,124.334 H 179.48 V 128.26 H 180.238 V 125.272 H 180.283 L 181.398,128.26 H 181.978 L 183.093,125.272 V 128.26 Z" fill="#ce8b2c" id="path8" style="clip-rule:evenodd;fill-rule:evenodd" />
</g>
</svg>
