<?xml version="1.0" encoding="UTF-8" standalone="no"?>
<svg xmlns:dc="http://purl.org/dc/elements/1.1/" xmlns:cc="http://creativecommons.org/ns#" xmlns:rdf="http://www.w3.org/1999/02/22-rdf-syntax-ns#" xmlns:svg="http://www.w3.org/2000/svg" xmlns="http://www.w3.org/2000/svg" enable-background="new 0 0 1921.3 423.7" viewBox="0 0 2499.999936464732 499.9999855947239" version="1.1" id="svg10" width="2500" height="500">
<metadata id="metadata16">
<rdf:RDF>
<cc:Work rdf:about="">
<dc:format>image/svg+xml</dc:format>
<dc:type rdf:resource="http://purl.org/dc/dcmitype/StillImage" />
<dc:title></dc:title>
</cc:Work>
</rdf:RDF>
</metadata>
<defs id="defs14" />
<g id="g845" transform="translate(289.3035087405651,38.06810841592754)">
<path d="M 319.9,423.3 194.2,421 C 153.5,420.2 112.7,421.8 72.79999999999998,413.5 12.09999999999998,401.1 7.799999999999983,340.3 3.299999999999983,289.3 -2.900000000000017,217.6 -0.5000000000000166,144.6 11.19999999999998,73.5 17.79999999999998,33.6 43.79999999999999,9.799999999999997 83.99999999999998,7.200000000000003 219.7,-2.199999999999997 356.3,-1.099999999999998 491.7,3.300000000000003 506,3.700000000000003 520.3999999999997,5.900000000000003 534.5,8.400000000000002 604.1,20.6 605.7999999999999,89.5 610.2999999999999,147.5 614.7999999999999,206.1 612.8999999999997,265 604.2999999999999,323.2 597.3999999999997,371.4 584.1999999999999,411.8 528.5,415.7 458.7,420.8 390.5,424.9 320.5,423.6 320.5,423.3 320.1,423.3 319.9,423.3 Z M 246,301.3 C 298.6,271.1 350.2,241.4 402.5,211.4 349.8,181.2 298.3,151.5 246,121.5 Z" fill="#ff0000" id="path2" />
<g fill="#282828" id="g8">
<path d="M 1621.8,368.5 C 1619.4,378.3 1617.3,386 1615.2,394.2 H 1566 V 14.69999999999999 H 1623.4 V 154.7 C 1626.4,150.9 1627.9,149.3 1629.2,147.6 1639,134.1 1651.7,125.3 1668.1,121.9 1694.2,116.8 1716.5,128.3 1724.4,153.4 1729.5,169 1732.8,185.7 1733.2,202 1734,243.9 1733.4,285.7 1731.9,327.6 1731.3,340.4 1727.4,353.5 1722.5,365.5 1706.4,405.1 1653.8,411.1 1627.7,376.8 1626.1,374.6999999999999 1624.6,372.4 1621.8,368.5 Z M 1624.6,264.1 V 333.5 C 1624.6,344.8 1630.6,351.7 1641.9,354.3 1653,356.9 1662,352.6 1666.5,342.3 1668.4,338 1670.3,333.5 1670.4,329 1671.5,286.6 1672.5,244.2 1672.8,201.7 1672.8,193.8 1670.9,185.6 1668.5,177.9 1664,164 1651.6,159.9 1639.4,168 1630.2,174.2 1624.6,183 1624.6,194.7 Z M 1468.6,127.3 H 1528.7 V 394.4 H 1481.8 C 1480.1,384.3 1478.4,373.9 1476.4,361.7000000000001 1473.2,366.4 1471.3,369.4 1469.3,372.4 1453.7,394.9 1431.6,402.6 1405.5,398.5000000000001 1383.2,394.9 1369.8,377.7000000000001 1366.8,349.5000000000001 1365.9,341.1000000000001 1365.5,332.6000000000001 1365.5,324.2000000000001 1365.3,261.7000000000001 1365.5,199.0000000000001 1365.5,136.5000000000001 V 127.1000000000001 H 1426.3 V 138.0000000000001 C 1426.3,198.4000000000001 1426.1,258.7000000000001 1426.5,319.1 1426.5,327.7000000000001 1427.4,336.6 1428.9,345.2000000000001 1430.6,354.0000000000001 1437,357.2000000000001 1445.6,356.6 1459.5,355.5 1469.1,345.2000000000001 1469.1,331.4 V 139.1 C 1468.6,135.2 1468.6,131.6 1468.6,127.3 Z M 1054.8,127.1 H 1115.2 V 138.4 C 1115.2,198.5 1115,258.5 1115.4,318.4 1115.4,327 1116.2,335.9 1118,344.3 1120.3,354.1999999999999 1126.1,357.4 1136,356.1 1149.7,354.2 1158,344.7 1158.1,330.8 V 139.5 127.5 H 1218.2 V 394.3999999999999 H 1171.5 C 1169.8,384.5 1168.1,374.2999999999999 1165.9,361.3999999999999 1162.9,365.8999999999999 1161.2,368.5 1159.5,371.1999999999999 1143.9,394.0999999999999 1122,402.5 1095.3,398.3999999999999 1073.9,395.1999999999999 1060.8,379.3999999999999 1056.8,353.5 1055.7,345.3999999999999 1054.9,337.3999999999999 1054.9,329.3 1054.7,264.4 1054.7,199.2 1054.7,134.3 Z M 1023.8,269.7 C 1023.6,278.7 1023,287.7 1022.5,296.7 1020.2,323.7 1019.1,362 997.2999999999999,381.7 983.3999999999997,394.1 965.7999999999999,398.6 947.5999999999999,399.2 939.4999999999995,399.4 931.2999999999999,399.4 923.1999999999999,398.3 884.8999999999997,392.5 867.0999999999999,375.6 860.6999999999999,333.5 853.3999999999997,284.9 852.7999999999999,235.5 861.4999999999995,186.9 870.4999999999995,136.6 901.4999999999995,118.8 949.6999999999999,122.1 994.6999999999999,125.3 1014.8,154.8 1020.1,196.8 1023,220.9 1024.4,245.3 1023.8,269.7 Z M 962.5999999999999,260.5 C 962.5999999999999,243.4 962.9999999999995,226.2 962.3999999999997,209.1 961.9999999999995,199.2 960.6999999999998,189.2 958.5999999999999,179.4 956.1999999999999,168.1 948.9999999999995,162.7 939.9999999999995,162.9 931.1999999999999,163.1 924.9999999999995,168.5 921.7999999999998,179 920.6999999999998,182.9 919.4999999999995,186.9 919.4999999999995,190.8 919.4999999999995,217.6 919.2999999999998,244.5 919.0999999999999,271.3 918.8999999999997,296.3 915.6999999999999,322.5 923.5999999999999,346.4 925.9999999999995,353.7 932.1999999999999,357.7 940.2999999999999,357.7 948.1999999999999,357.7 953.3999999999997,353.8 956.2999999999999,346.8 958.5999999999999,341.4 960.5999999999999,335.5 960.5999999999999,329.7 961.2999999999999,306.7 962.5999999999999,283.6 962.5999999999999,260.5 Z M 772.4999999999995,210.2 C 777.7999999999998,184.3 782.7999999999998,159 788.2999999999998,133.6 795.1999999999998,101.3 802.8999999999997,69 809.6999999999998,36.6 811.3999999999997,28.69999999999999 814.5999999999994,26.79999999999999 822.0999999999994,26.99999999999999 838.1999999999998,27.59999999999999 854.5999999999994,27.19999999999999 871.7999999999998,27.19999999999999 866.1999999999998,47.8 860.6999999999998,67.39999999999999 855.2999999999998,86.69999999999997 838.1999999999998,147.3 821.0999999999994,208.1 804.1999999999998,268.9 802.8999999999997,273.6 802.2999999999998,278.7 802.2999999999998,283.7 802.0999999999994,316.9 802.2999999999998,350 802.2999999999998,383.2 V 394 H 743.5999999999994 C 743.3999999999997,391 742.9999999999995,388 742.9999999999995,385 742.9999999999995,366.2 741.4999999999995,347.3 743.1999999999998,328.7 747.4999999999995,284 733.2999999999998,242.9 721.7999999999998,201.3 706.5999999999994,146.3 691.1999999999998,91.09999999999998 675.9999999999995,36.1 675.1999999999999,33.5 674.8999999999997,30.69999999999999 674.0999999999999,27.49999999999999 H 733.9999999999995 C 746.5999999999999,88.19999999999997 759.2999999999998,148.9 772.4999999999995,210.2 Z M 1921,279.9 H 1819.8 C 1820.9,300.2 1821.3,319.5 1823.4,338.6 1824.9,351.9 1832.2,357.6 1843.7,357.7 1855.7,357.9 1862.7,351.9 1865.5,338.7 1866.4,334.4 1867,330.1 1867.4,325.7 1867.8,321.8 1868,317.6 1868.3,312 1885.4,312.9 1902.1,313.9 1918.6,314.6 1928.2,343.1 1910.9,379.7000000000001 1881.8,391 1858.9,400 1835.4,400 1812,393.1 1794.7,388 1781.8,377 1776,360.1 1770.6,344.3 1765.5,327.8 1764.4,311.3 1761.4,270.6 1760.3,229.5 1766.5,188.7 1767.6,181.9 1769.5,175.4 1771.6,168.8 1780,141.6 1798.3,124.9 1826.6,122.1 1842,120.6 1857.9,121.2 1873.1,123.8 1897.7,128.1 1910.8,145.8 1916.5,169 1919.1,179.9 1921,191.1 1921.4,202.2 1921.5,227.7 1921,253 1921,279.9 Z M 1863.5,244.8 C 1863.5,224.7 1863.7,205.8 1863.3,186.8 1863.3,182.3 1861.6,177.6 1859.9,173.3 1856.5,164.9 1849.4,162.6 1840.9,162.6 1832.4,162.6 1827,166.9 1824.9,174.6 1818.5,197.7 1820.6,221.3 1820.8,245 1836.1,244.8 1850,244.8 1863.5,244.8 Z" id="path4" />
<path d="M 1264.6,76.2 H 1205.1 V 28 H 1382.7 V 75.9 H 1323.6 V 394 H 1264.7 Z" id="path6" />
</g>
</g>
</svg>
