<?xml version="1.0" encoding="UTF-8" standalone="no"?>
<svg xmlns:dc="http://purl.org/dc/elements/1.1/" xmlns:cc="http://creativecommons.org/ns#" xmlns:rdf="http://www.w3.org/1999/02/22-rdf-syntax-ns#" xmlns:svg="http://www.w3.org/2000/svg" xmlns="http://www.w3.org/2000/svg" width="2500" height="500" viewBox="0 0 512 102.4667931688805" preserveAspectRatio="xMinYMin meet" version="1.1" id="svg6">
<metadata id="metadata12">
<rdf:RDF>
<cc:Work rdf:about="">
<dc:format>image/svg+xml</dc:format>
<dc:type rdf:resource="http://purl.org/dc/dcmitype/StillImage" />
<dc:title></dc:title>
</cc:Work>
</rdf:RDF>
</metadata>
<defs id="defs10" />
<g fill="#009900" id="g4" transform="matrix(0.9066422442661595,0,0,0.9066422442661595,23.97487636103559,2.499003849024542)">
<path d="M 96.174,107.15 C 93.284,107.15 90.44000000000001,106.026 88.31399999999999,103.896 L 22.544,38.12 V 96.037 C 22.544,102.177 17.569,107.151 11.43,107.151 5.295,107.151 0.3159999999999989,102.176 0.3159999999999989,96.037 V 11.28700000000001 C 0.3159999999999989,6.78800000000001 3.027999999999999,2.738000000000007 7.179999999999999,1.018000000000006 A 11.096,11.096 0 0 1 19.29,3.428000000000006 L 85.06,69.20399999999999 V 11.287 C 85.06,5.147000000000002 90.03499999999999,0.173 96.174,0.173 102.314,0.173 107.288,5.148 107.288,11.287 V 96.037 A 11.12,11.12 0 0 1 96.174,107.151 M 147.64,0.28 144.586,5.980000000000003 120.967,48.905 117.913,54.325 120.967,59.73900000000001 144.587,101.279 147.778,106.973 H 209.602 L 212.656,100.723 230.3,65.15699999999999 238.218,49.042 H 220.298 L 175.149,49.18 C 169.277,49.1 163.875,54.421 163.875,60.294 163.875,66.16599999999999 169.277,71.49199999999999 175.149,71.408 L 202.378,71.26999999999999 195.71,84.74399999999998 H 160.7 L 143.331,54.181 160.838,22.507 H 198.078 L 206.76,40.324 H 229.13 L 215.03,6.535000000000001 211.971,0.28 H 147.641 M 260.232,0.142 C 254.408,0.213 249.181,5.575000000000001 249.256,11.394 V 40.357 H 271.484 V 11.394 C 271.554,5.480000000000003 266.14,0.067 260.232,0.142 M 295.859,107.364 A 11.117,11.117 0 0 1 284.749,96.25 V 11.5 C 284.749,5.361 289.724,0.3870000000000004 295.8629999999999,0.3870000000000004 302.0029999999999,0.3870000000000004 306.9769999999999,5.361000000000001 306.9769999999999,11.501 V 69.417 L 372.749,3.64 A 11.102,11.102 0 0 1 384.859,1.23 11.117,11.117 0 0 1 391.718,11.5 V 96.25 C 391.718,102.388 386.743,107.363 380.604,107.363 374.4640000000001,107.363 369.4900000000001,102.388 369.4900000000001,96.24899999999999 V 38.33400000000001 L 303.7180000000001,104.11 A 11.1,11.1 0 0 1 295.8580000000001,107.364 M 474.044,53.79 508.617,19.34299999999999 C 512.9649999999999,15.013 512.9779999999999,7.974999999999996 508.644,3.622999999999996 504.314,-0.7250000000000039 497.281,-0.7340000000000044 492.929,3.595999999999996 L 458.303,38.103 423.676,3.595999999999996 C 419.324,-0.738000000000003 412.291,-0.7240000000000037 407.962,3.622999999999997 403.627,7.974999999999997 403.64,15.013 407.984,19.34299999999999 L 442.557,53.791 408.086,88.14099999999999 C 403.734,92.47599999999998 403.725,99.50899999999998 408.059,103.856 A 11.059,11.059 0 0 0 415.932,107.128 C 418.769,107.128 421.605,106.048 423.774,103.883 L 458.3029999999999,69.47899999999998 492.8269999999999,103.883 A 11.075,11.075 0 0 0 500.673,107.128 C 503.5269999999999,107.128 506.3729999999999,106.039 508.5459999999999,103.856 512.8759999999997,99.50899999999998 512.8669999999998,92.47599999999998 508.519,88.14199999999998 L 474.044,53.79 M 260.232,107.048 C 254.408,106.978 249.181,101.616 249.256,95.79699999999999 V 49.274 H 271.484 V 95.79699999999999 C 271.554,101.705 266.1400000000001,107.119 260.232,107.048" id="path2" />
</g>
</svg>
