<?xml version="1.0" encoding="UTF-8" standalone="no"?>
<svg xmlns:dc="http://purl.org/dc/elements/1.1/" xmlns:cc="http://creativecommons.org/ns#" xmlns:rdf="http://www.w3.org/1999/02/22-rdf-syntax-ns#" xmlns:svg="http://www.w3.org/2000/svg" xmlns="http://www.w3.org/2000/svg" width="2500" height="500" viewBox="0 0 512 102.4011299435028" preserveAspectRatio="xMinYMin meet" version="1.1" id="svg12">
<metadata id="metadata18">
<rdf:RDF>
<cc:Work rdf:about="">
<dc:format>image/svg+xml</dc:format>
<dc:type rdf:resource="http://purl.org/dc/dcmitype/StillImage" />
<dc:title></dc:title>
</cc:Work>
</rdf:RDF>
</metadata>
<defs id="defs16" />
<g id="g855" transform="matrix(0.6655413147140723,0,0,0.6655413147140723,85.34239756508564,2.914695142120893)">
<g id="g847">
<g fill="#83cd29" id="g6">
<path d="M 471.05,51.611 C 469.806,51.611 468.596,51.868 467.525,52.474 L 433.6370000000001,72.04399999999999 C 431.4440000000001,73.30799999999999 430.1110000000001,75.694 430.1110000000001,78.233 V 117.302 C 430.1110000000001,119.839 431.4440000000001,122.222 433.6370000000001,123.489 L 442.4870000000001,128.598 C 446.7870000000001,130.717 448.3720000000001,130.684 450.3290000000001,130.684 456.6950000000001,130.684 460.33,126.821 460.33,120.108 V 81.542 C 460.33,80.99699999999998 459.8580000000001,80.60699999999998 459.323,80.60699999999998 H 455.078 C 454.5340000000001,80.60699999999998 454.071,80.99699999999998 454.071,81.542 V 120.108 C 454.071,123.083 450.971,126.076 445.941,123.561 L 436.7310000000001,118.165 C 436.405,117.988 436.155,117.675 436.155,117.302 V 78.23199999999998 C 436.155,77.86199999999999 436.4020000000001,77.48499999999998 436.7310000000001,77.29699999999999 L 470.547,57.8 A 0.998,0.998 0 0 1 471.554,57.8 L 505.371,77.298 C 505.693,77.492 505.9470000000001,77.85099999999998 505.9470000000001,78.23399999999999 V 117.303 C 505.9470000000001,117.676 505.7590000000001,118.058 505.443,118.238 L 471.554,137.736 C 471.264,137.909 470.864,137.909 470.547,137.736 L 461.841,132.556 A 0.905,0.905 0 0 0 460.978,132.556 C 458.575,133.918 458.123,134.076 455.869,134.858 455.314,135.052 454.471,135.353 456.157,136.298 L 467.525,142.988 A 6.995,6.995 0 0 0 471.0510000000001,143.924 6.949,6.949 0 0 0 474.576,142.989 L 508.465,123.49 C 510.658,122.215 511.99,119.84 511.99,117.303 V 78.233 C 511.99,75.69499999999999 510.658,73.313 508.465,72.046 L 474.576,52.47600000000002 C 473.514,51.86900000000001 472.2960000000001,51.61200000000001 471.0510000000001,51.61200000000001 Z" id="path2" />
<path d="M 480.116,79.528 C 470.466,79.528 464.719,83.635 464.719,90.465 464.719,97.873 470.423,99.909 479.685,100.825 490.765,101.91 491.628,103.537 491.628,105.718 491.628,109.501 488.612,111.114 481.484,111.114 472.527,111.114 470.559,108.878 469.9,104.423 469.822,103.945 469.453,103.559 468.964,103.559 H 464.575 C 464.035,103.559 463.568,104.025 463.568,104.567 463.568,110.27 466.67,117.014 481.484,117.014 492.207,117.014 498.392,112.805 498.392,105.43 498.392,98.11999999999999 493.396,96.15699999999999 482.994,94.78199999999999 472.484,93.39099999999999 471.482,92.70999999999999 471.482,90.24899999999999 471.482,88.21699999999998 472.332,85.49899999999999 480.116,85.49899999999999 487.07,85.49899999999999 489.64,86.99899999999999 490.693,91.68799999999997 490.785,92.12799999999998 491.173,92.47899999999998 491.628,92.47899999999998 H 496.018 C 496.288,92.47899999999998 496.55,92.31299999999997 496.737,92.11899999999998 496.921,91.91199999999999 497.051,91.67899999999997 497.025,91.39999999999999 496.345,83.32599999999999 490.961,79.52799999999999 480.116,79.528 Z" id="path4" />
</g>
<path d="M 271.821,0.383 A 2.181,2.181 0 0 0 270.741,0.6699999999999999 2.18,2.18 0 0 0 269.662,2.541 V 57.583 C 269.662,58.123 269.4110000000001,58.607 268.943,58.878 A 1.501,1.501 0 0 1 267.432,58.878 L 258.438,53.698 A 4.31,4.31 0 0 0 254.121,53.698 L 218.218,74.41899999999999 C 216.876,75.194 216.06,76.68299999999999 216.06,78.233 V 119.676 C 216.06,121.224 216.877,122.642 218.218,123.417 L 254.121,144.139 A 4.3,4.3 0 0 0 258.438,144.139 L 294.341,123.417 A 4.308,4.308 0 0 0 296.5,119.676 V 16.356 A 4.386000000000001,4.386000000000001 0 0 0 294.27,12.542 L 272.9,0.5979999999999997 C 272.565,0.411 272.193,0.378 271.821,0.383 Z M 40.861,52.115 C 40.177,52.14200000000001 39.533,52.262 38.919,52.618 L 3.015,73.34 A 4.3,4.3 0 0 0 0.8570000000000002,77.081 L 0.929,132.7 C 0.929,133.473 1.328,134.192 2.008,134.57 A 2.096,2.096 0 0 0 4.167,134.57 L 25.464,122.339 C 26.813,121.537 27.694,120.143 27.694,118.597 V 92.623 C 27.694,91.07299999999999 28.509,89.65100000000001 29.853,88.881 L 38.918,83.629 A 4.251000000000002,4.251000000000002 0 0 1 41.077,83.05300000000001 C 41.817,83.05300000000001 42.577,83.23800000000001 43.235,83.629 L 52.301,88.881 A 4.296000000000002,4.296000000000002 0 0 1 54.46,92.623 V 118.596 C 54.46,120.142 55.35,121.546 56.69,122.338 L 77.98699999999999,134.57 A 2.096,2.096 0 0 0 80.146,134.57 2.164,2.164 0 0 0 81.22599999999998,132.699 L 81.29599999999999,77.08099999999997 A 4.280000000000002,4.280000000000002 0 0 0 79.13799999999999,73.33999999999997 L 43.235,52.618 C 42.628,52.262 41.982,52.143 41.293,52.115 Z M 363.485,52.618 C 362.735,52.618 362,52.808 361.327,53.194 L 325.424,73.91599999999999 A 4.306,4.306 0 0 0 323.265,77.65699999999999 V 119.1 C 323.265,120.659 324.143,122.071 325.495,122.842 L 361.111,143.132 C 362.426,143.882 364.032,143.939 365.356,143.202 L 386.941,131.187 C 387.626,130.807 388.089,130.097 388.092,129.317 A 2.126,2.126 0 0 0 387.013,127.446 L 350.894,106.724 C 350.218,106.338 349.743,105.557 349.743,104.781 V 91.831 C 349.743,91.05600000000001 350.223,90.346 350.894,89.96000000000002 L 362.118,83.48400000000002 A 2.155,2.155 0 0 1 364.277,83.48400000000002 L 375.5,89.95999999999999 A 2.152,2.152 0 0 1 376.58,91.82999999999998 V 102.047 A 2.15,2.15 0 0 0 377.659,103.917 C 378.332,104.306 379.146,104.307 379.817,103.917 L 401.331,91.4 A 4.325000000000001,4.325000000000001 0 0 0 403.49,87.658 V 77.658 C 403.49,76.11299999999998 402.67,74.69199999999999 401.331,73.91599999999999 L 365.644,53.194 A 4.279,4.279 0 0 0 363.485,52.61899999999999 Z M 256.135,83.557 C 256.323,83.557 256.543,83.60299999999999 256.711,83.7 L 269.015,90.82299999999999 C 269.349,91.016 269.591,91.373 269.591,91.75799999999999 V 106.004 C 269.591,106.391 269.351,106.747 269.015,106.94 L 256.711,114.063 A 1.088,1.088 0 0 1 255.632,114.063 L 243.329,106.94 C 242.994,106.746 242.753,106.391 242.753,106.004 V 91.75799999999999 C 242.753,91.37199999999998 242.995,91.018 243.329,90.82299999999999 L 255.632,83.70099999999999 A 0.948,0.948 0 0 1 256.136,83.55799999999999 V 83.55699999999997 Z" fill="#404137" id="path8" />
</g>
<path d="M 148.714,52.402 C 147.966,52.402 147.226,52.592 146.556,52.978 L 110.653,73.628 C 109.31,74.40099999999999 108.494,75.893 108.494,77.441 V 118.884 C 108.494,120.434 109.311,121.85 110.653,122.626 L 146.556,143.347 A 4.297,4.297 0 0 0 150.873,143.347 L 186.776,122.626 A 4.308,4.308 0 0 0 188.934,118.884 V 77.441 C 188.934,75.891 188.118,74.40099999999999 186.776,73.628 L 150.873,52.978 A 4.297,4.297 0 0 0 148.714,52.402 Z M 363.413,89.385 C 363.27,89.385 363.111,89.385 362.982,89.45699999999999 L 356.0750000000001,93.486 A 0.84,0.84 0 0 0 355.643,94.206 V 102.12 C 355.643,102.418 355.8150000000001,102.691 356.0750000000001,102.84 L 362.982,106.797 C 363.241,106.947 363.5170000000001,106.947 363.773,106.797 L 370.68,102.839 A 0.8459999999999999,0.8459999999999999 0 0 0 371.112,102.12 V 94.20499999999998 A 0.8459999999999999,0.8459999999999999 0 0 0 370.68,93.486 L 363.773,89.456 C 363.645,89.381 363.557,89.38599999999999 363.413,89.38599999999999 Z" fill="#83cd29" id="path10" />
</g>
</svg>
