<?xml version="1.0" encoding="UTF-8" standalone="no"?>
<svg xmlns:dc="http://purl.org/dc/elements/1.1/" xmlns:cc="http://creativecommons.org/ns#" xmlns:rdf="http://www.w3.org/1999/02/22-rdf-syntax-ns#" xmlns:svg="http://www.w3.org/2000/svg" xmlns="http://www.w3.org/2000/svg" viewBox="0 0 946.4 189.1578947368421" width="2500" height="500" version="1.1" id="svg6">
<metadata id="metadata12">
<rdf:RDF>
<cc:Work rdf:about="">
<dc:format>image/svg+xml</dc:format>
<dc:type rdf:resource="http://purl.org/dc/dcmitype/StillImage" />
<dc:title></dc:title>
</cc:Work>
</rdf:RDF>
</metadata>
<defs id="defs10" />
<g id="g839" transform="matrix(0.985968324946551,0,0,0.985968324946551,6.639788635292152,5.989693371973454)">
<path d="M 578.2,34 V 152 H 611.5 V 34 Z M 316.2000000000001,33.8 V 151.9 H 349.8000000000001 V 60.2 L 376.0000000000001,60.30000000000001 C 384.6000000000001,60.30000000000001 390.6000000000001,62.40000000000001 394.7000000000001,66.80000000000001 400.0000000000001,72.4 402.1,81.50000000000001 402.1,98.00000000000001 V 151.9 H 434.7000000000001 V 86.7 C 434.7000000000001,40.1 405.0000000000001,33.80000000000001 376.0000000000001,33.80000000000001 Z M 631.8999999999997,34 V 152 H 685.8999999999997 C 714.7,152 724.1000000000001,147.2 734.2,136.5 741.3999999999997,129 746,112.4 746,94.29999999999998 746,77.69999999999997 742.1,62.9 735.2,53.7 723,37.2 705.2,34 678.6,34 Z M 664.8999999999997,59.6 H 679.2 C 700,59.6 713.3999999999997,68.9 713.3999999999997,93.09999999999999 713.3999999999997,117.3 700.0000000000001,126.7 679.2,126.7 H 664.8999999999997 Z M 530.2,34 502.4,127.5 475.8,34 H 439.8 L 477.8,152 H 525.7999999999999 L 564.1999999999999,34 Z M 761.6,152 H 794.8999999999997 V 34 H 761.6 Z M 855,34 808.5,151.9 H 841.2999999999999 L 848.6999999999999,131 H 903.6999999999999 L 910.6999999999999,151.8 H 946.3999999999997 L 899.5,34 Z M 876.6,55.5 896.7999999999999,110.7 H 855.7999999999999 Z" id="path2" />
<path d="M 101.3,53.6 V 37.4 C 102.9,37.3 104.5,37.2 106.1,37.2 150.5,35.8 179.6,75.4 179.6,75.4 179.6,75.4 148.2,119 114.5,119 110,119 105.6,118.3 101.4,116.9 V 67.7 C 118.7,69.79999999999998 122.2,77.4 132.5,94.7 L 155.6,75.30000000000001 C 155.6,75.30000000000001 138.7,53.20000000000001 110.3,53.20000000000001 107.3,53.10000000000001 104.3,53.30000000000001 101.3,53.60000000000001 M 101.3,0 V 24.2 L 106.1,23.9 C 167.8,21.8 208.1,74.5 208.1,74.5 208.1,74.5 161.9,130.7 113.8,130.7 109.6,130.7 105.5,130.3 101.4,129.6 V 144.6 C 104.8,145 108.3,145.3 111.7,145.3 156.5,145.3 188.9,122.4 220.3,95.39999999999996 225.5,99.59999999999998 246.8,109.7 251.2,114.1 221.4,139.1 151.9,159.2 112.5,159.2 108.7,159.2 105.1,159 101.5,158.6 V 179.7 H 271.7 V 0 Z M 101.3,116.9 V 129.7 C 59.9,122.3 48.4,79.20000000000001 48.4,79.20000000000001 48.4,79.20000000000001 68.29999999999998,57.20000000000002 101.3,53.60000000000002 V 67.60000000000002 H 101.2 C 83.9,65.50000000000001 70.30000000000001,81.70000000000001 70.30000000000001,81.70000000000001 70.30000000000001,81.70000000000001 78.00000000000001,109 101.3,116.9 M 27.8,77.4 C 27.8,77.4 52.3,41.2 101.4,37.40000000000001 V 24.2 C 47,28.6 0,74.59999999999999 0,74.59999999999999 0,74.59999999999999 26.6,151.6 101.3,158.6 V 144.6 C 46.5,137.8 27.8,77.39999999999999 27.8,77.4 Z" fill="#76b900" id="path4" />
</g>
</svg>
