<?xml version="1.0" encoding="UTF-8" standalone="no"?>
<svg xmlns:dc="http://purl.org/dc/elements/1.1/" xmlns:cc="http://creativecommons.org/ns#" xmlns:rdf="http://www.w3.org/1999/02/22-rdf-syntax-ns#" xmlns:svg="http://www.w3.org/2000/svg" xmlns="http://www.w3.org/2000/svg" height="500" viewBox="-12.38118457 -2.3 750.37118457 150.9644760504202" width="2500" version="1.1" id="svg22">
<metadata id="metadata28">
<rdf:RDF>
<cc:Work rdf:about="">
<dc:format>image/svg+xml</dc:format>
<dc:type rdf:resource="http://purl.org/dc/dcmitype/StillImage" />
<dc:title></dc:title>
</cc:Work>
</rdf:RDF>
</metadata>
<defs id="defs26" />
<g id="g863" transform="matrix(0.7248550698308875,0,0,0.7248550698308873,95.33288694740241,0.6758914588636839)">
<path d="M 52.86,115.02 H 0.0899999999999963 L 0.1199999999999963,115.79 C 0.1399999999999963,116.29 0.1799999999999963,116.78 0.2099999999999963,117.28 0.2199999999999963,117.49 0.2299999999999963,117.7 0.2499999999999963,117.91 0.2899999999999963,118.49 0.3399999999999963,119.06 0.3899999999999963,119.63 0.4099999999999965,119.76 0.4199999999999964,119.89 0.4299999999999963,120.01 0.4899999999999963,120.65 0.5599999999999959,121.28 0.6299999999999963,121.91 0.6399999999999963,121.98 0.6399999999999963,122.04 0.6499999999999962,122.1 0.7399999999999963,122.78 0.8199999999999963,123.46 0.9199999999999961,124.14 0.9199999999999961,124.15 0.9199999999999961,124.16 0.9299999999999963,124.16 1.529999999999996,128.37 2.439999999999996,132.53 3.649999999999997,136.62 3.659999999999997,136.64 3.669999999999997,136.66 3.669999999999997,136.68 3.859999999999997,137.32 4.059999999999997,137.96 4.259999999999998,138.6 4.279999999999997,138.64 4.29,138.67 4.299999999999998,138.71 4.309999999999997,138.75 4.319999999999997,138.79 4.339999999999998,138.82 4.519999999999997,139.4 4.719999999999997,139.97 4.919999999999999,140.55 4.969999999999997,140.69 5.019999999999997,140.84 5.069999999999998,140.98 L 5.609999999999998,142.48 C 5.700000000000001,142.7 5.779999999999998,142.93 5.87,143.15 6.029999999999998,143.56 6.189999999999998,143.97 6.349999999999998,144.39 6.469999999999998,144.69 6.599999999999998,145 6.729999999999998,145.31 6.859999999999998,145.63 7,145.95 7.129999999999999,146.27 7.299999999999998,146.67 7.479999999999998,147.06 7.649999999999999,147.45 7.75,147.68 7.860000000000002,147.91 7.959999999999999,148.15 8.179999999999996,148.62 8.399999999999998,149.08 8.619999999999997,149.55 8.689999999999997,149.7 8.759999999999998,149.85 8.839999999999998,150 9.099999999999997,150.54 9.359999999999997,151.07 9.629999999999999,151.6 L 9.749999999999998,151.84 C 10.05,152.43 10.36,153.01 10.68,153.59 10.69,153.62 10.71,153.64 10.72,153.67 10.78,153.79 10.86,153.91 10.92,154.03 L 55.99,126.9 56.14999999999999,126.8 A 36.119,36.119 0 0 1 52.86,115.02 Z" fill="#93d500" id="path2" />
<path d="M 65.82999999999998,139.23 65.7,139.36 28.53,176.5 C 28.72,176.68 28.91,176.86 29.11,177.03 29.46,177.35 29.81,177.66 30.16,177.97 L 30.7,178.45 C 31.12,178.81 31.55,179.17 31.97,179.52 L 32.32,179.81 C 32.79,180.2 33.28,180.59 33.77000000000001,180.97 L 33.95,181.12 C 34.48000000000001,181.53 35.01000000000001,181.94 35.55000000000001,182.34 35.57000000000001,182.36 35.59000000000001,182.37 35.61000000000001,182.39 A 91,91 0 0 0 42.56000000000001,187.09 C 42.64000000000001,187.14 42.73000000000001,187.19 42.81000000000001,187.24 43.27000000000001,187.51 43.72000000000002,187.78 44.18000000000001,188.05 44.46000000000001,188.21 44.74000000000001,188.37 45.02000000000001,188.52 45.29000000000002,188.68 45.55000000000001,188.82 45.82000000000001,188.97 A 67,67 0 0 0 47.27000000000001,189.76 C 47.34000000000001,189.79 47.40000000000001,189.83 47.47000000000002,189.86 48.82000000000002,190.57 50.20000000000001,191.23 51.58000000000001,191.86 L 52.90000000000001,188.66 71.59999999999999,143.29 71.66000000000001,143.12 A 35.65,35.65 0 0 1 65.82999999999998,139.23 Z" fill="#4d5a31" id="path4" />
<path d="M 61.96,135.53 C 61.55000000000001,135.08 61.17,134.63 60.80000000000001,134.16 60.46,133.75 60.14000000000001,133.34 59.83000000000001,132.92 59.48000000000001,132.44 59.13,131.96 58.80000000000001,131.46 58.47000000000002,130.97 58.14000000000001,130.47 57.84000000000001,129.96 L 12.72000000000001,157.12 A 84.04,84.04 0 0 0 14.87000000000001,160.5 C 14.89000000000001,160.54 14.92000000000001,160.58 14.94000000000001,160.62 14.95000000000001,160.63 14.96000000000001,160.64 14.97000000000001,160.66 14.99000000000001,160.69 15.02000000000001,160.73 15.04000000000001,160.77 L 15.05000000000001,160.78 15.23000000000001,161.05 C 15.23000000000001,161.05 15.23000000000001,161.06 15.24000000000001,161.06 V 161.07 C 16.03,162.23 16.83,163.37 17.66,164.48 17.68,164.5 17.7,164.52 17.72,164.55 17.74,164.57 17.75,164.59 17.77,164.62 18.13,165.0999999999999 18.49,165.5699999999999 18.87,166.0399999999999 18.92,166.1099999999999 18.96,166.1699999999999 19.02,166.2299999999999 19.4,166.7199999999999 19.79,167.1999999999999 20.18,167.6799999999999 20.28,167.7899999999999 20.37,167.8999999999999 20.47,168.0199999999999 20.82,168.4399999999999 21.18,168.8699999999999 21.54,169.2899999999999 L 22.02,169.8299999999999 22.95,170.8799999999999 C 23.13,171.0699999999999 23.31,171.2599999999999 23.48,171.46 23.56,171.54 23.64,171.6299999999999 23.73,171.7199999999999 23.96,171.9699999999999 24.19,172.2199999999999 24.42,172.46 24.51,172.56 24.61000000000001,172.6599999999999 24.71,172.76 25.12,173.18 25.53,173.61 25.95,174.03 L 63.18,136.83 C 62.75,136.41 62.35,135.97 61.96,135.53 Z" fill="#6ba43a" id="path6" />
<path d="M 111.29,139.21 C 110.88,139.54 110.47,139.86 110.05,140.17 L 110.14,140.33 137.28,185.35 C 138.54,184.53 139.78,183.68 140.99,182.8 143.62,180.86 146.16,178.76 148.61,176.5 L 111.44,139.36 Z" fill="#4d5a31" id="path8" />
<path d="M 133.34,185.72 132.42,184.19 107.08,142.17 C 106.57,142.48 106.05,142.75 105.52,143.04 104.99,143.32 104.46,143.59 103.92,143.84 A 35.915,35.915 0 0 1 88.51,147.33 C 85.06000000000001,147.33 81.60000000000002,146.83 78.26,145.83 77.69000000000002,145.66 77.14000000000001,145.44 76.58000000000001,145.24 76.01,145.04 75.44000000000001,144.87 74.89000000000001,144.64 L 56.21000000000002,189.98 55.48000000000002,191.76 54.85000000000002,193.28 C 54.90000000000001,193.3 54.95000000000002,193.32 54.99000000000003,193.34 55.05000000000002,193.36 55.10000000000002,193.38 55.15000000000001,193.4 55.17000000000003,193.41 55.18000000000002,193.41 55.19000000000001,193.41 55.63000000000001,193.6 56.07000000000002,193.75 56.52000000000001,193.92 57.07000000000001,194.14 57.63000000000001,194.36 58.18000000000001,194.56 58.47000000000002,194.67 58.75000000000001,194.79 59.03000000000001,194.89 H 59.04000000000002 C 64.89,196.95 70.94000000000001,198.4 77.09999999999999,199.21 L 77.81999999999999,199.3 78.58000000000001,199.39 C 79.05000000000001,199.44 79.53000000000001,199.5 80.00000000000001,199.54 L 80.36000000000001,199.57 C 80.94000000000001,199.63 81.52000000000001,199.68 82.09999999999999,199.72 82.30000000000001,199.73 82.50000000000001,199.74 82.7,199.76 83.20999999999999,199.79 83.71999999999998,199.82 84.23,199.84 84.54,199.86 84.85999999999998,199.87 85.17,199.88 85.57999999999998,199.9 85.98,199.91 86.39,199.93 86.96999999999998,199.94 87.56,199.94 88.15,199.9500000000001 H 88.56 C 93.48,199.9500000000001 98.4,199.5400000000001 103.26,198.7300000000001 103.34,198.7200000000001 103.42,198.7000000000001 103.51,198.6900000000001 104.02,198.6000000000001 104.53,198.5000000000001 105.05,198.4100000000001 105.34,198.3500000000001 105.64,198.3 105.92,198.2400000000001 106.22,198.1800000000001 106.53,198.1200000000001 106.83,198.0500000000001 107.33,197.9500000000001 107.83,197.8400000000001 108.33,197.7200000000001 L 108.6,197.6600000000001 A 88.95099999999999,88.95099999999999 0 0 0 129.84,189.7400000000001 C 130.28,189.5100000000001 130.71,189.2500000000001 131.15,189.0100000000001 131.67,188.7200000000001 132.18,188.4300000000001 132.7,188.1300000000001 133.06,187.9300000000001 133.42,187.7400000000001 133.78,187.5300000000001 133.78,187.5200000000001 133.79,187.5200000000001 133.79,187.5200000000001 133.8,187.5100000000001 133.8,187.5100000000001 133.81,187.5100000000001 L 133.82,187.5000000000001 133.75,187.3900000000001 133.82,187.5000000000001 H 133.83 L 133.84,187.4900000000001 A 0.21,0.21 0 0 0 133.9,187.4500000000001 C 134.02,187.3800000000001 134.13,187.3100000000002 134.25,187.2500000000001 Z M 65.84999999999999,83.7 C 66.26,83.35999999999998 66.67,83.04 67.09,82.73 L 67,82.57999999999998 39.86,37.56 C 38.6,38.38 37.36,39.23 36.14,40.12 A 87.98499999999998,87.98499999999998 0 0 0 28.53,46.4 L 65.7,83.54999999999998 Z" fill="#93d500" id="path10" />
<path d="M 25.95,48.87 C 25.53,49.3 25.13,49.73 24.72,50.16 24.31,50.59000000000001 23.89,51.02000000000001 23.48,51.45 A 89.397,89.397 0 0 0 15.96,60.77000000000001 C 15.85,60.92 15.75,61.08 15.64,61.23 15.38,61.6 15.13,61.97 14.88,62.35 14.62,62.73 14.37,63.13 14.12,63.52000000000001 14.02,63.66 13.93,63.8 13.84,63.95 5.290000000000001,77.34999999999999 0.7100000000000008,92.54999999999998 0.0900000000000016,107.88 0.0700000000000016,108.48 0.0600000000000016,109.07 0.0400000000000016,109.67 0.0300000000000016,110.26 0.0100000000000016,110.86 0.0100000000000016,111.45 H 52.66000000000001 C 52.66000000000001,110.86 52.71,110.26 52.74,109.67 52.77000000000001,109.07 52.78,108.48 52.84000000000001,107.88 53.52000000000001,101.03 56.17,94.34 60.78,88.71999999999998 61.15,88.26999999999999 61.58,87.84 61.98000000000001,87.4 62.38000000000001,86.95999999999999 62.75000000000001,86.5 63.18000000000001,86.06999999999999 Z M 134.57,35.82 C 134.5,35.77000000000001 134.42,35.72999999999999 134.35,35.68999999999999 133.89,35.39999999999999 133.42,35.12999999999999 132.95,34.85999999999999 132.68,34.7 132.41,34.54999999999999 132.14,34.39 131.86,34.24 131.59,34.09000000000001 131.32,33.93999999999999 130.84,33.67999999999999 130.36,33.41999999999999 129.89,33.16999999999999 129.81,33.12999999999999 129.74,33.08999999999999 129.66,33.04999999999999 A 87.459,87.459 0 0 0 120.17,28.77999999999999 C 120.08,28.74999999999999 120,28.71999999999999 119.92,28.68999999999999 119.21,28.41999999999999 118.5,28.15999999999999 117.79,27.90999999999999 112.04,25.90999999999999 106.09,24.49999999999999 100.05,23.70999999999999 99.81000000000001,23.66999999999999 99.56000000000001,23.63999999999999 99.31000000000001,23.60999999999999 L 98.57000000000002,23.51999999999999 C 98.09,23.46999999999999 97.62,23.40999999999999 97.14000000000001,23.36999999999999 97.01,23.35999999999999 96.87999999999999,23.34999999999999 96.73999999999999,23.32999999999999 96.18,23.27999999999999 95.61000000000001,23.22999999999999 95.04,23.18999999999999 94.81999999999999,23.16999999999999 94.59999999999999,23.15999999999999 94.37999999999999,23.14999999999999 93.89000000000001,23.11999999999999 93.4,23.07999999999999 92.92000000000001,23.05999999999999 L 92.14000000000001,23.02999999999999 V 75.76999999999999 C 94.84999999999999,76.04999999999998 97.53000000000001,76.61999999999999 100.13,77.50999999999999 L 138.97,38.69999999999999 C 137.53,37.69999999999999 136.07,36.72999999999999 134.57,35.82 Z" fill="#4d5a31" id="path12" />
<path d="M 86.79,22.99 C 86.19000000000001,23 85.59,23 85,23.03 81.28,23.17999999999999 77.56,23.56 73.87,24.17 73.79,24.19 73.70999999999999,24.2 73.62999999999999,24.21 73.11000000000001,24.3 72.59999999999999,24.4 72.09,24.49 71.79999999999998,24.55 71.5,24.6 71.20999999999999,24.66 70.91000000000001,24.72 70.61000000000001,24.79 70.30000000000001,24.85 69.80000000000001,24.95 69.30000000000001,25.06 68.81000000000001,25.18 68.71000000000002,25.2 68.62,25.22 68.53000000000001,25.24 A 88.95099999999999,88.95099999999999 0 0 0 47.29000000000002,33.16 C 46.85000000000002,33.39 46.43000000000002,33.65 45.99000000000003,33.89 45.47000000000002,34.17999999999999 44.95000000000003,34.46999999999999 44.43000000000002,34.77000000000001 44.05000000000002,34.99 43.66000000000002,35.19 43.28000000000002,35.42 43.27000000000003,35.42 43.27000000000003,35.42999999999999 43.26000000000002,35.42999999999999 43.24000000000003,35.43999999999999 43.21000000000002,35.46 43.18000000000002,35.46999999999999 43.08000000000002,35.53 42.98000000000002,35.57999999999999 42.88000000000003,35.64 V 35.64999999999999 L 43.81000000000003,37.17999999999999 70.06000000000003,80.73999999999999 C 70.57000000000003,80.42999999999999 71.09000000000003,80.14999999999999 71.62000000000003,79.86999999999999 72.14000000000001,79.57999999999998 72.68000000000003,79.31999999999999 73.21000000000003,79.05999999999997 76.96000000000003,77.27999999999998 80.95000000000003,76.16999999999997 85.00000000000001,75.75999999999999 85.59000000000003,75.69999999999997 86.19000000000002,75.64999999999999 86.78000000000001,75.61999999999999 87.38000000000002,75.58999999999997 87.97000000000001,75.55999999999997 88.57000000000003,75.55999999999997 V 22.94999999999999 C 87.97000000000004,22.94999999999999 87.38000000000002,22.97999999999999 86.79,22.99 Z" fill="#6ba43a" id="path14" />
<path d="M 177.02,107.1 176.93,105.68 C 176.92,105.45 176.9,105.21 176.88,104.98 176.85,104.42 176.8,103.86 176.75,103.31 176.74,103.17 176.72,103.02 176.71,102.88 176.65,102.26 176.58,101.64 176.51,101.02 176.5,100.97 176.5,100.92 176.49,100.87 176.49,100.84 176.49,100.82 176.48,100.8 176.4,100.13 176.31,99.45999999999996 176.22,98.78999999999996 176.22,98.76999999999998 176.21,98.74999999999997 176.21,98.72999999999997 175.6,94.52999999999997 174.7000000000001,90.37999999999998 173.49,86.28999999999996 173.4800000000001,86.25999999999997 173.47,86.23999999999998 173.46,86.20999999999996 173.27,85.57999999999998 173.08,84.93999999999998 172.88,84.30999999999997 172.85,84.22999999999997 172.82,84.14999999999996 172.8,84.05999999999997 172.61,83.49999999999997 172.42,82.92999999999996 172.22,82.35999999999997 172.17,82.20999999999996 172.12,82.05999999999997 172.06,81.89999999999996 171.89,81.40999999999998 171.71,80.91999999999997 171.53,80.42999999999996 L 171.26,79.73999999999998 C 171.11,79.32999999999998 170.95,78.92999999999996 170.79,78.52999999999998 L 170.4,77.56999999999999 170.01,76.63999999999998 C 169.83,76.23999999999998 169.66,75.83999999999997 169.48,75.43999999999998 169.38,75.20999999999996 169.28,74.98999999999998 169.18,74.75999999999997 168.96,74.28999999999996 168.74,73.80999999999997 168.51,73.33999999999997 168.44,73.19999999999997 168.37,73.04999999999995 168.3,72.90999999999995 168.04,72.36999999999996 167.78,71.82999999999995 167.5,71.28999999999996 167.47,71.21999999999997 167.43,71.14999999999996 167.39,71.06999999999996 167.09,70.47999999999996 166.77,69.88999999999994 166.46,69.29999999999995 A 0.21,0.21 0 0 0 166.42,69.23999999999996 88.60099999999998,88.60099999999998 0 0 0 161.39,61.06999999999997 L 122.54,99.89999999999996 C 123.42,102.5 124,105.18 124.28,107.89 H 177.05 Z" fill="#4d5a31" id="path16" />
<path d="M 124.48,111.45 C 124.48,112.05 124.43,112.64 124.4,113.24 124.37,113.83 124.36,114.43 124.3,115.02 A 35.722,35.722 0 0 1 116.36,134.18 C 115.99,134.64 115.56,135.07 115.16,135.51 114.76,135.9500000000001 114.39,136.41 113.96,136.83 L 151.19,174.03 C 151.61,173.61 152.01,173.17 152.42,172.74 152.83,172.3100000000001 153.25,171.8900000000001 153.65,171.4500000000001 A 87.04999999999998,87.04999999999998 0 0 0 161.19,162.11 C 161.29,161.9800000000001 161.37,161.8500000000001 161.46,161.7300000000001 161.74,161.33 162,160.93 162.28,160.5300000000001 162.51,160.1700000000001 162.75,159.8100000000001 162.98,159.4500000000001 163.1,159.27 163.21,159.09 163.32,158.9200000000001 171.86,145.52 176.43,130.34 177.04,115.02 177.06,114.4200000000001 177.08,113.83 177.09,113.23 177.1,112.64 177.12,112.05 177.12,111.45 Z" fill="#6ba43a" id="path18" />
<path d="M 192.76,7.33 C 183.13,-2.300000000000001 167.51,-2.300000000000001 157.88,7.33 150.2,15 148.66,26.48 153.24,35.7 L 99.52000000000001,89.37999999999999 C 90.30000000000001,84.81 78.81,86.34999999999999 71.12999999999999,94.01999999999999 61.50000000000001,103.65 61.50000000000001,119.25 71.12999999999999,128.88 80.76,138.5 96.37999999999999,138.5 106.01,128.88 113.69,121.2 115.23,109.72 110.65,100.5 L 164.37,46.82 C 173.59,51.39 185.07,49.86 192.76,42.18 202.39,32.56 202.39,16.95 192.76,7.33 Z M 204.21,92.39999999999999 C 204.21,66.01999999999999 223.51,47.12999999999999 250.03,47.12999999999999 276.42,47.12999999999999 295.72,66.01999999999998 295.72,92.39999999999999 295.72,118.77 276.42,137.67 250.03,137.67 223.51,137.67 204.21,118.77 204.21,92.39999999999999 Z M 276.55,92.39999999999999 C 276.55,75.98999999999999 266.18,63.66 250.03,63.66 233.75,63.66 223.3799999999999,75.98999999999999 223.3799999999999,92.39999999999999 223.3799999999999,108.67 233.75,121.13 250.03,121.13 266.18,121.13 276.55,108.67 276.55,92.39999999999999 Z M 305.56,48.57 H 346.5199999999999 C 365.56,48.57 375.93,61.42999999999999 375.93,76.78 375.93,92 365.43,104.86 346.5199999999999,104.86 H 324.1999999999999 V 136.09 H 305.56 Z M 356.9,76.78 C 356.9,69.43 351.25,64.96999999999998 343.9,64.96999999999998 H 324.2 V 88.45999999999999 H 343.9 C 351.25,88.45999999999999 356.9,84 356.9,76.78 Z M 384.33,136.09 V 48.57000000000001 H 446.3 V 64.96999999999998 H 402.98 V 83.34 H 445.3799999999999 V 99.75 H 402.98 V 119.69 H 446.3 V 136.09 Z M 517.98,136.09 476.23,79.01 V 136.09 H 457.58 V 48.57000000000001 H 476.7600000000001 L 517.33,103.55 V 48.57000000000002 H 535.97 V 136.09 Z M 614.58,136.09 609.0599999999999,121.26 H 571.5199999999997 L 566.0000000000001,136.09 H 544.8600000000001 L 578.6100000000001,48.57000000000001 H 601.9800000000001 L 635.7200000000001,136.09 Z M 590.2899999999998,67.2 576.6400000000001,104.86 H 603.95 Z M 640.57,48.57000000000001 H 681.5299999999997 C 700.57,48.57000000000001 710.94,61.43000000000001 710.94,76.78 710.94,92 700.44,104.86 681.5299999999997,104.86 H 659.21 V 136.09 H 640.57 Z M 691.9099999999998,76.78 C 691.9099999999998,69.43 686.2600000000001,64.96999999999998 678.9099999999998,64.96999999999998 H 659.21 V 88.45999999999999 H 678.9099999999998 C 686.2600000000001,88.45999999999999 691.9099999999998,84 691.9099999999998,76.78 Z M 719.34,136.09 V 48.57000000000001 H 737.99 V 136.09 Z" fill="#424143" id="path20" />
</g>
</svg>
