<?xml version="1.0" encoding="UTF-8" standalone="no"?>
<svg xmlns:dc="http://purl.org/dc/elements/1.1/" xmlns:cc="http://creativecommons.org/ns#" xmlns:rdf="http://www.w3.org/1999/02/22-rdf-syntax-ns#" xmlns:svg="http://www.w3.org/2000/svg" xmlns="http://www.w3.org/2000/svg" height="500" viewBox="72.8 74.08 248.401 50.09450063211126" width="2500" version="1.1" id="svg18">
<metadata id="metadata24">
<rdf:RDF>
<cc:Work rdf:about="">
<dc:format>image/svg+xml</dc:format>
<dc:type rdf:resource="http://purl.org/dc/dcmitype/StillImage" />
<dc:title></dc:title>
</cc:Work>
</rdf:RDF>
</metadata>
<defs id="defs22" />
<path d="M 126.6620225826535,79.37042671138462 C 128.5641118261353,79.43721007884109 130.0558543784681,81.04001089779588 129.9912971232602,82.93962668322376 129.956668710505,83.85975307929041 129.5710565998953,84.71062264984665 128.8980286634176,85.33888099554806 128.2252480727452,85.96961279930343 127.3496439216495,86.29610926242384 126.424570609475,86.26395430772258 124.5249548240471,86.1946974822122 123.0361804213791,84.59437012131135 123.0980168727276,82.69475433588344 123.1301718274289,81.77462793981682 123.5157839380385,80.92128491120662 124.1912853325702,80.29302656550521 A 3.419555759575608,3.419555759575608 0 0 1 126.6620225826535,79.37042671138462 Z M 129.0884849335712,82.86789639965944 C 129.1330071785421,81.51491484415285 128.0741197856493,80.37712413933924 126.7213855759481,80.33012843631435 126.0661665374587,80.30539385577492 125.4426077620598,80.53789891284553 124.9652303576489,80.98559482060913 A 2.421020743198992,2.421020743198992 0 0 0 124.1883171829055,82.6922808778295 C 124.1437949379346,84.0452624333361 125.2026823308274,85.18305313814967 126.55319042828,85.23252229922853 127.2111302706287,85.25230996366008 127.8344417002223,85.01980490658948 128.3142925626871,84.57458245687982 A 2.428441117360819,2.428441117360819 0 0 0 129.0884849335712,82.86789639965944 Z" fill="#ffffff" id="path4" style="stroke-width:0.247346" />
<g id="g922" transform="translate(15.43350760794702)">
<g id="g905" transform="matrix(1.502092462713006,0,0,1.502092462713006,-32.99321934006382,-68.64969209503279)">
<path style="fill:#73ba25;stroke-width:0.383463" d="M 97.93597754265165,110.3401458796891 V 112.0388854756304 C 97.93597754265165,112.764013370873 97.51416861363688,113.1934915531425 96.81626656744886,113.1934915531425 H 92.45629609208731 V 114.4742568466964 C 92.45629609208731,115.1065867775557 92.81291636843613,115.4367481301755 93.49164528148715,115.4367481301755 H 95.90746005675346 C 96.26791495972966,115.4367481301755 96.53250419702074,115.685998860957 96.53250419702074,116.0272806307962 V 116.2190119621665 C 96.53250419702074,116.5641283586331 96.26791495972966,116.8133790894146 95.90746005675346,116.8133790894146 H 92.96246680690501 C 91.87343284472146,116.8133790894146 90.95312245414382,115.847053179308 90.95312245414382,114.7123871602585 V 110.3286419998069 C 90.95312245414382,109.2089310246042 91.90027523111332,108.3043426031988 93.06600172584498,108.3043426031988 L 93.06983635247239,108.3120118564537 H 95.8192636443231 C 96.98499013905474,108.3116283937909 97.93597754265168,109.2242695311137 97.93597754265165,110.3401458796891 Z" id="path876" />
<path d="M 167.0359493685225,104.607379071716 C 167.0359493685225,104.6802369776367 166.9745953424841,104.741974466338 166.8982862725986,104.741974466338 H 166.8369322465601 A 0.1361292452729421,0.1361292452729421 0 0 1 166.7023368519381,104.607379071716 V 103.4650437994115 H 166.0581195785338 V 104.607379071716 C 166.0581195785338,104.6802369776367 165.9929309258679,104.741974466338 165.9162383933198,104.741974466338 H 165.8591024565715 A 0.1361292452729421,0.1361292452729421 0 0 1 165.7245070619495,104.607379071716 V 103.4650437994115 H 165.2413441068961 A 0.1227080520770183,0.1227080520770182 0 0 1 165.1148014281918,103.3385011207071 V 103.2733124680412 C 165.1148014281918,103.1966199354929 165.1723208276029,103.1506044159641 165.2413441068961,103.1506044159641 H 166.9324144495826 C 166.9976031022486,103.1506044159641 167.0436186217775,103.1739956383912 167.0666263815418,103.2119584420026 L 167.3849003916166,103.6912867704285 167.7031744016914,103.2119584420026 C 167.7300167880831,103.1774468023559 167.7683630543573,103.1506044159641 167.8373863336507,103.1506044159641 H 168.0525088874481 V 104.6192664142609 C 168.0525088874481,104.6882896935543 167.9873202347822,104.7534783462202 167.910627702234,104.7534783462202 L 167.8914545690969,104.7423579290007 H 167.8301005430585 A 0.1361292452729421,0.1361292452729421 0 0 1 167.6955051484366,104.6077625343787 V 103.6491058775269 L 167.4846006839291,103.9712145142291 C 167.4615929241647,104.0018915272485 167.4194120312633,104.017230033758 167.3810657649892,104.017230033758 H 167.357674542562 C 167.3193282762879,104.017230033758 167.273312756759,104.0018915272485 167.2506884596573,103.9712145142291 L 167.0355659058598,103.6491058775269 V 104.607379071716 Z M 164.7735196583525,115.305987362181 V 115.6165921190009 C 164.7735196583525,116.2991556586793 164.2554616009899,116.7976571202422 163.5383864216648,116.7976571202422 H 154.2091232998467 C 153.5303943867957,116.7976571202422 153.0242236719781,116.2876517787972 153.0242236719781,115.6165921190009 V 103.9133116521554 C 153.0242236719781,103.2384173657317 153.5495675199327,102.7322466509141 154.2321310596112,102.7322466509141 L 154.2359656862386,102.7437505307963 H 163.1514725949594 C 163.8685477742845,102.7437505307963 164.3900569956119,103.2384173657317 164.3900569956119,103.9205974427474 V 104.2315856622301 C 164.3900569956119,104.9137657392457 163.8685477742845,105.4084325741813 163.1514725949594,105.4084325741813 H 155.9001936425331 V 108.4722992494793 H 161.4949138919196 C 162.2119890712448,108.4722992494793 162.7334982925721,108.9750188003323 162.7334982925721,109.6571988773481 V 109.9643524702033 C 162.7334982925721,110.6507506365091 162.2119890712448,111.1450340087819 161.4949138919196,111.1450340087819 H 155.9001936425331 V 114.1283735249044 H 163.5387698843275 C 164.25967969028,114.1287569875671 164.7735196583525,114.6310930757574 164.7735196583525,115.305987362181 Z" fill="#73ba25" id="path2" style="stroke-width:0.383463" />
<path d="M 150.5662280038103,111.3908335755986 V 113.2659659964005 C 150.5662280038103,115.413740370411 149.2854627102565,116.7976571202422 147.2876222373774,116.7976571202422 H 139.6682191287201 C 138.951143949395,116.7976571202422 138.4334693546951,116.2953210320519 138.4334693546951,115.6165921190009 V 115.305987362181 C 138.4334693546951,114.6268749864672 138.951143949395,114.1287569875671 139.6682191287201,114.1287569875671 H 146.8968737840446 C 147.6829722426631,114.1287569875671 147.7055965397647,113.0512269052657 147.7055965397647,112.9323534798161 V 111.8088078779859 C 147.7055965397647,111.440683721755 147.5598807279233,111.0073709128579 146.8968737840446,111.0073709128579 H 141.6008709489332 C 140.0938626843622,111.0073709128579 138.4606952037497,109.7726211388329 138.4606952037497,107.7824499192087 V 106.0453640569934 C 138.4606952037497,104.6879062308915 139.7414604973035,102.7322466509141 142.0495222643397,102.7322466509141 V 102.7475851574236 H 148.2696701166564 C 148.9944145492362,102.7475851574236 149.5312622770732,103.2575904988687 149.5312622770732,103.9248155320375 V 104.2354202888574 C 149.5312622770732,104.910314575281 148.9978657132009,105.4164852900988 148.2961290403854,105.4164852900988 H 142.5211813395108 C 141.7619252672841,105.4164852900988 141.3286124583872,105.7884440729572 141.3286124583872,106.4403305996164 V 107.4718451623889 C 141.3286124583872,107.8936540914036 141.6813981081086,108.4722992494793 142.4678800293899,108.4722992494793 H 147.6829722426631 C 149.1205737652779,108.472682712142 150.5662280038103,109.37765459621 150.5662280038103,111.3908335755986 Z M 134.7330546592475,102.7322466509141 C 135.4275055414709,102.7322466509141 135.9681878959352,103.2767636320058 135.9681878959352,103.9704475889036 V 113.1850553745622 C 135.9681878959352,115.3286116592826 134.2844033438409,116.8820189060452 131.9610030702951,116.8820189060452 H 127.6547173677173 C 125.3309336315087,116.8820189060452 123.6479160047399,115.3286116592826 123.6479160047399,113.1850553745622 V 103.9704475889036 A 1.227080520770182,1.227080520770182 0 0 1 124.8826657787648,102.7322466509141 H 125.2737976947604 C 125.9644139503563,102.7322466509141 126.5123820954128,103.2882675118879 126.5123820954128,103.9704475889036 V 112.8441570673857 C 126.5123820954128,113.553562993456 127.0837414628964,114.1249223609396 127.7893127623392,114.1249223609396 H 131.8195053477439 C 132.5212420205592,114.1249223609396 133.0964360146703,113.553562993456 133.0964360146703,112.8441570673857 V 103.9708310515664 A 1.240501713966106,1.240501713966106 0 0 1 134.33463695266,102.7326301135768 H 134.7330546592475 Z M 121.1738149047371,111.3908335755986 V 113.2659659964005 C 121.1738149047371,115.413740370411 119.8853803579282,116.7976571202422 117.8952091383042,116.7976571202422 H 110.2719714030194 C 109.5510615970669,116.7976571202422 109.033387002367,116.2953210320519 109.033387002367,115.6165921190009 V 115.305987362181 C 109.033387002367,114.6268749864672 109.5548962236943,114.1287569875671 110.2719714030194,114.1287569875671 H 117.5002425956813 C 118.2825064276723,114.1287569875671 118.3016795608093,113.0512269052657 118.3016795608093,112.9323534798161 V 111.8088078779859 C 118.3016795608093,111.4406837217548 118.1636330022226,111.0073709128579 117.5002425956813,111.0073709128579 H 112.2046232232325 C 110.6899457054067,111.0073709128579 109.0640640153863,109.7726211388329 109.0640640153863,107.7824499192087 V 106.0453640569934 C 109.0640640153863,104.6879062308915 110.3409946823127,102.7322466509139 112.653274538639,102.7322466509139 L 112.6609437918938,102.7475851574236 H 118.8845428081751 C 119.6054526141277,102.7475851574236 120.1461349685921,103.2575904988687 120.1461349685921,103.9248155320375 V 104.2354202888574 C 120.1461349685921,104.910314575281 119.6131218673824,105.4164852900987 118.9075505679396,105.4164852900987 H 113.1326028670649 C 112.3695121682109,105.4164852900987 111.9361993593139,105.7884440729572 111.9361993593139,106.4403305996164 V 107.4718451623889 C 111.9361993593139,107.8936540914035 112.2889850090354,108.4722992494793 113.0750834676538,108.4722992494793 H 118.2863410542997 C 119.7243260395773,108.472682712142 121.1738149047371,109.37765459621 121.1738149047371,111.3908335755986 Z" id="path10" style="fill:#73ba25;stroke-width:0.383463" />
<path style="fill:#73ba25;stroke-width:0.383463" d="M 83.3605617318783,114.4853772639158 C 83.3605617318783,114.8454487042295 83.55996231650347,115.1564369237121 83.85522856681382,115.3174912420632 L 83.50244291709236,116.0955369847639 C 83.43725426442645,116.0955369847639 83.36439635850571,116.210959246249 83.36439635850571,116.3179453291536 V 120.0336985311109 C 83.36439635850571,120.37498030095 83.08446861470504,120.6587426713781 82.73935221823845,120.6587426713781 H 82.4939361140844 C 82.14115046436296,120.6587426713781 81.86889197381711,120.3788149275774 81.86889197381711,120.0336985311109 V 108.8404234057103 C 81.86889197381711,108.5417059914354 82.09130031820666,108.3039591405361 82.35588955549775,108.3039591405361 H 82.63581729929846 C 82.87356415019765,108.3039591405361 83.06529548156801,108.4876377559889 83.10747637446948,108.583503421674 L 83.29153845258501,108.9477929512777 C 83.33755397211392,109.0129816039436 83.41808113128948,109.0513278702177 83.50244291709242,109.0513278702177 L 83.85139394018645,109.8029146891895 A 0.9329646584480791,0.9329646584480787 0 0 0 83.36056173187836,110.6354121299995 Z" id="path880" />
<path style="fill:#ffffff;stroke-width:0.383463" d="M 96.42513465145333,111.8893350371615 V 110.5280425844321 C 96.42513465145333,110.0525488826336 96.05701049522231,109.6844247264025 95.58535142005125,109.6844247264025 H 93.29224469686198 C 92.81675099506354,109.6844247264025 92.4524614654599,110.0602181358884 92.4524614654599,110.5280425844321 V 111.8893350371615 Z" id="path878" />
<path style="fill:#73ba25;stroke-width:0.383463" d="M 102.0658704203688,108.7794528423346 C 102.5643718819317,108.5420894540981 103.1855813955716,108.2502743677524 104.0061914938367,108.2502743677524 H 104.2592768512455 C 105.6934272098957,108.2502743677524 106.6214068537281,109.1053961056641 106.6214068537281,110.4206730388647 V 116.1802822332298 C 106.6214068537281,116.5288497936609 106.3376444833,116.8126121640891 105.9963627134608,116.8126121640891 H 105.7509466093068 C 105.4019955862128,116.8126121640891 105.1259024690395,116.5288497936609 105.1259024690395,116.1802822332298 V 110.6277428767446 C 105.1259024690395,110.1062336554173 104.7002589133973,109.6805900997752 104.1825843186974,109.6805900997752 H 102.1003820600155 A 0.9456189263185216,0.9456189263185214 0 0 0 101.1570639096734,110.6277428767446 V 116.1802822332298 C 101.1570639096734,116.5288497936609 100.8733015392453,116.8126121640891 100.5320197694061,116.8126121640891 H 100.2866036652521 C 99.93765264215801,116.8126121640891 99.66155952498478,116.5288497936609 99.66155952498478,116.1802822332298 V 108.8408068683731 C 99.66155952498478,108.5267509475885 99.87246398949214,108.3043426031988 100.1638956131751,108.3043426031988 H 100.4054770907017 C 100.6355546883461,108.3043426031988 100.804278259952,108.4040428955114 100.8963092990098,108.5996088535092 L 101.068867497243,108.9140482369566 C 101.1417254031637,109.0444255422885 101.1800716694378,109.0517113328804 101.275937335123,109.0517113328804 101.4906764262578,109.0517113328804 101.7552656635488,108.9213340275486 102.0658704203688,108.7794528423346 Z" id="path874" />
<path d="M 86.47427855333265,108.2541089943799 C 87.9122635386102,108.2541089943799 88.83640855581525,109.1088472696288 88.83640855581525,110.4241242028294 V 114.6962817284233 C 88.83640855581525,116.0341829587256 87.93143667174726,116.8624623102455 86.47427855333265,116.8624623102455 H 86.21735856929642 C 85.39291384440393,116.8624623102455 84.77170433076402,116.57908340248 84.27703749582855,116.3524569688003 83.970267365636,116.210959246249 83.70951275497235,116.0955369847639 83.50244291709236,116.0955369847639 L 83.85522856681382,115.3174912420632 C 83.98944049877302,115.3899656853212 84.14282556386932,115.4325300408854 84.30387988222041,115.4325300408854 H 86.3860821409023 A 0.9433181503420776,0.9433181503420774 0 0 0 87.32940029124438,114.4853772639158 V 110.6354121299995 C 87.32940029124438,110.1058501927545 86.91526061548444,109.6920939796573 86.3860821409023,109.6920939796573 H 84.30387988222041 C 84.13899093724191,109.6920939796573 83.98560587214562,109.7338914098961 83.85139394018641,109.8029146891895 L 83.50244291709236,109.0513278702177 C 83.70951275497235,109.0513278702177 83.970267365636,108.9290032808035 84.2693682425737,108.7832874689619 84.77170433076402,108.5455406180627 85.38907921777654,108.2498909050896 86.21352394266897,108.2498909050896 V 108.2541089943799 Z M 79.74067419560627,110.3286419998069 V 114.7465153372422 C 79.74067419560627,115.8815648189547 78.82036380502866,116.8057098361598 77.69298357657105,116.8057098361598 H 74.84002136578037 C 73.71647576395018,116.8057098361598 72.79999999999995,115.8815648189547 72.79999999999995,114.7465153372422 V 110.3286419998069 C 72.79999999999995,109.2089310246042 73.7471527769694,108.3043426031988 74.91287927170108,108.3043426031988 H 77.62779492390514 C 78.79352141863681,108.3039591405361 79.74067419560627,109.2127656512315 79.74067419560627,110.3286419998069 Z M 78.23750055766282,114.5735736763462 V 110.5472157175691 C 78.23750055766282,110.0793912690254 77.8425340150399,109.6844247264025 77.37854419312367,109.6844247264025 H 75.15446074922772 C 74.6828016740567,109.6844247264025 74.29550438468861,110.0717220157707 74.29550438468861,110.5472157175691 V 114.5735736763462 C 74.29550438468861,115.0567366313995 74.66362854091967,115.4325300408854 75.13528761609066,115.4325300408854 H 77.37854419312367 C 77.8540378949221,115.4325300408854 78.23750055766282,115.0452327515173 78.23750055766282,114.5735736763462 Z" id="path14" style="fill:#73ba25;stroke-width:0.383463" />
</g>
<g id="g896" transform="translate(31.14222952262689,2.22444496590191)">
<g id="g884" transform="translate(-17.57311523062519,-7.52972561989026)">
<path style="fill:#73ba25;stroke-width:0.247346" d="M 272.6833642056687,101.966613277268 272.9359042729761,101.9196175742431 C 273.0049137526811,101.9740336514298 272.9950199204653,102.0853392638572 272.9727587979799,102.1842775860149 272.9260104407603,102.4143091850316 272.8144574825276,102.8323235961479 272.7377802828553,103.0302002404633 L 272.6734703734528,103.1934484720235 C 272.5846732293164,103.4358473613099 272.4953813935689,103.6658789603265 272.3247127878469,103.8043926113473 271.8550031034032,104.2323008546793 271.1030718550047,104.5736380661234 269.9257058213279,105.0881173413435 268.1052406936263,105.884570834713 265.1544052352728,106.3866828196633 262.4138137115045,106.3693686132857 261.4316035182837,106.3471074908003 260.48179562557,106.2382753364268 259.6482402613913,106.144283930377 257.0958788955279,105.8524158800118 255.2506791872868,105.6446454034806 254.8670458431201,107.9647490580787 254.3822480645476,110.8735357295152 257.1181400180134,114.4056338305452 257.1453480566067,114.437541439441 L 257.1426272527475,114.5342536493502 257.0538301086108,114.5565147718356 C 257.0538301086108,114.5565147718356 252.6931235595102,112.5480668320343 252.5865175173853,112.4887038387397 L 252.4480038663645,112.3900128623874 252.3366982539371,112.2834068202624 C 252.0077283327627,111.9670515351632 251.3473150323601,111.2571690736817 250.0067007671231,109.7035900700003 247.4070963524294,106.6983385344601 244.3647429460802,106.3025852458293 242.0199047109426,106.87395405629 241.4485359004819,107.0099942492569 240.7213392326226,107.4280086603732 240.2489087443197,107.8979656906223 239.0245470076181,109.1050132209462 239.1630606586389,111.5364224879718 239.2323174841492,112.4219204712832 239.3139415999293,113.42367098313 239.3658842190622,113.4978747247482 239.3881453415476,113.5794988405284 L 239.373304593224,113.68091062074 239.286733561336,113.6908044529558 239.2372644002572,113.6561760402006 235.6606440542562,111.9074411960632 235.5246038612893,111.3237050953327 C 235.4330859132935,110.9378456389177 235.3267272169739,110.5099373955856 235.1239036565506,109.9731969978801 233.8451258426623,106.6018736703563 230.970967583981,104.0665791650652 227.8049412749345,103.5199449351439 225.6654000582742,103.1513996851064 221.7647567072068,103.1093508981894 219.6994192321647,107.0075207912029 218.8361823713388,108.6350561906971 218.8881249904716,110.7548097429259 219.8354594251316,112.5406464578725 220.8001080661692,114.3687793055414 222.5241083297671,115.5409510773048 224.5647112242698,115.7660357602136 226.5879999123948,115.9864208728198 228.1091766155695,115.5186899548193 228.9625196441797,114.413054204707 229.8232830469517,113.2975246223789 229.9840578204579,111.7788213772581 229.3731136811341,110.5420923502869 228.7176472968394,109.2140927211251 227.7282640752623,108.5089098299461 226.3530213972702,108.3929046472162 225.3067486404525,108.2989132411663 224.5300828115146,108.7342418586602 224.2505820514191,109.1794643083699 224.1689579356389,109.3182253051961 224.0205504524024,109.5754649428061 224.0180769943484,109.9412893889842 V 109.9536566792539 C 224.0180769943484,110.9504602749928 224.9307830162532,111.2225406609265 225.116292370299,111.2351552970016 225.1731819055396,111.2351552970016 225.4477357495273,111.2277349228398 225.8113340834568,111.1362169748439 L 225.9869496052867,111.0795747854086 226.10814904993,111.0372786526862 226.1971935398719,111.020211792114 C 226.8600802983285,110.8990123474708 227.4982324762457,111.2898187199937 227.6837418302913,111.9353912720727 227.7158967849926,112.0538699128566 227.7332109913702,112.1728432452512 227.7332109913702,112.2913218860351 227.7332109913702,112.7192301293671 227.5155466826233,113.1174568760519 227.1544218067477,113.3598557653383 L 227.1692625550713,113.354661503425 227.1296872262082,113.3769226259105 227.0703242329136,113.4140244967196 C 226.87986796276,113.5352239413628 226.7042524409301,113.6020073088192 226.5187430868844,113.6588968440599 225.9993168955565,113.8293181039766 225.5392536975232,113.9087161075081 225.0767170414359,113.9087161075081 223.4986508030205,113.9062426494542 221.2997465930656,112.5483141778397 221.2700650964183,109.9981789242249 221.2552243480946,108.5586263368303 221.9774740998458,107.2476935682408 223.2488315395723,106.4042443718463 224.7131187075063,105.4371222727548 227.2434662966896,105.1081523515805 229.5907779898811,106.547704938975 232.479776996886,108.316227447544 233.2341817033385,111.7788213772581 232.479776996886,114.1412211645787 231.3840350789895,117.5620136531813 228.302106343777,119.3898991550448 224.2332678450415,119.0263008211153 221.3516892121984,118.7690611835052 218.6754075978325,117.2478844803306 217.0825006110935,114.9574623223797 216.3750916076659,113.9430971744579 215.8507185002301,112.8129741896116 215.5687442820806,111.6850773170137 214.9182248138937,109.1052605667516 215.5761646562425,106.3646690429833 216.0659093509231,105.1502011384974 217.6241879249069,101.2891331162931 220.6071783379617,97.96727894984819 224.9233626420914,95.27368312910475 L 225.1954430280251,95.10301452338268 C 234.37691932426,89.46080935653428 240.8746936319671,89.68836749749698 245.6311534696987,89.85408918711115 251.2412036818459,90.04949237337264 257.2242513685276,91.98373657155572 258.0503863585443,92.25829041554335 258.0531071624036,92.07278106149766 258.085262117105,90.40072341703246 258.085262117105,90.40072341703246 L 258.1099966976443,90.34383388179179 258.1743066070469,90.3265196754142 C 258.5505195770515,90.37846229454696 266.611272029045,91.57561599265517 270.0075772829135,93.55438243580927 270.4278178062783,93.8017282412035 270.6355882828095,94.05896787881353 270.895548724279,94.32610134863932 271.8329893267231,95.29569690578483 273.0746652698024,99.33485390787305 273.2057585466613,100.1684092720517 L 273.1562893855823,100.2525068458858 C 273.1068202245036,100.2698210522634 272.9905676959681,100.3563920841513 272.8347398385698,100.4602773224169 272.0432332613083,101.0143319265001 270.1906131789053,102.310423946766 267.8160934471202,102.0977065541269 265.6814991465679,101.9097237420273 262.8939119197747,100.6853620053257 259.5324824244667,98.47161704704707 259.6811372535087,98.82037463265301 260.3808785369691,100.4775915287946 260.4996045235583,100.75709228889 L 260.5441267685293,100.8115083660768 C 261.0316453509612,101.0638010875789 265.7015341568049,103.4432677354717 268.0191643533491,103.3962720324468 269.8883566047135,103.3591701616376 271.8844372542451,102.4464641397328 272.6833642056687,101.966613277268 Z" id="path12" />
<path style="fill:#ffffff;stroke-width:0.247346" d="M 269.8127172597577,97.01686453796294 C 269.8772745149657,95.11724875253507 268.3855319626329,93.51444793358028 266.4834427191512,93.4476645661238 265.5633163230843,93.41550961142256 264.6852387139348,93.74200607454298 264.0127054690678,94.37026442024441 263.3374514203416,94.99852276594583 262.9515919639265,95.851865794556 262.9194370092251,96.77199219062264 262.8576005578767,98.67160797605052 264.3466223063502,100.2719353369514 266.2459907459727,100.3411921624618 267.1710640581472,100.373347117163 268.0466682092427,100.0468506540426 268.7194487999151,99.41611885028723 269.3922293905875,98.78786050458585 269.7780888470026,97.93699093402959 269.8127172597577,97.01686453796294 Z" id="path872" />
</g>
<g id="g888" transform="translate(124.029194704711,7.200505161089767)">
<path d="M 126.7213855759481,80.33012843631435 C 128.0743671314547,80.37712413933927 129.1330071785421,81.51491484415285 129.0884849335712,82.86789639965944 A 2.428441117360819,2.428441117360819 0 0 1 128.3142925626871,84.57458245687982 2.459359343035101,2.459359343035101 0 0 1 126.55319042828,85.23252229922853 C 125.2026823308274,85.18305313814967 124.1440422837399,84.0452624333361 124.1883171829055,82.6922808778295 124.208104847337,82.03681449353473 124.4876056074326,81.43081727031881 124.9652303576489,80.98559482060915 A 2.414589752258741,2.414589752258741 0 0 1 126.7213855759481,80.33012843631435 Z M 128.2104073244215,82.28663375698293 C 128.2104073244215,81.88346009419028 127.7228887419894,81.5594370891238 127.1220857806868,81.5594370891238 126.5212828193841,81.5594370891238 126.036237695006,81.88346009419028 126.036237695006,82.28663375698293 126.036237695006,82.68486050366769 126.5210354735788,83.01135696678808 127.1220857806868,83.01135696678808 127.7231360877948,83.01135696678808 128.2104073244215,82.68486050366769 128.2104073244215,82.28663375698293 Z" fill="#73ba25" id="path6" style="stroke-width:0.247346" />
<path d="M 127.1220857806868,81.5594370891238 C 127.7231360877948,81.5594370891238 128.2104073244215,81.88346009419028 128.2104073244215,82.28663375698293 128.2104073244215,82.68486050366769 127.7228887419894,83.01135696678808 127.1220857806868,83.01135696678808 126.5212828193841,83.01135696678808 126.036237695006,82.68486050366769 126.036237695006,82.28663375698293 126.036237695006,81.88346009419028 126.5210354735788,81.5594370891238 127.1220857806868,81.5594370891238 Z" fill="#ffffff" id="path8" style="stroke-width:0.247346" />
</g>
</g>
</g>
</svg>
