<?xml version="1.0" encoding="UTF-8" standalone="no"?>
<svg xmlns:dc="http://purl.org/dc/elements/1.1/" xmlns:cc="http://creativecommons.org/ns#" xmlns:rdf="http://www.w3.org/1999/02/22-rdf-syntax-ns#" xmlns:svg="http://www.w3.org/2000/svg" xmlns="http://www.w3.org/2000/svg" height="500" viewBox="3.041 2.826 72.45314792000001 13.2603305785124" width="2500" version="1.1" id="svg8">
<metadata id="metadata14">
<rdf:RDF>
<cc:Work rdf:about="">
<dc:format>image/svg+xml</dc:format>
<dc:type rdf:resource="http://purl.org/dc/dcmitype/StillImage" />
<dc:title></dc:title>
</cc:Work>
</rdf:RDF>
</metadata>
<defs id="defs12" />
<g id="g842" transform="matrix(0.4104827985112727,0,0,0.4104827985112727,23.17849543079379,1.70994439854997)">
<path d="M 51.13900000000001,7.716000000000001 46.634,2.826 33.744,17.029 46.646,17.022 Z" fill="#ff0000" id="path2" />
<path d="M 47.734,17.022 51.768,8.397999999999996 59.725,17.055 Z" fill="#0047ff" id="path4" />
<path d="M 6.255,15.567 H 16.419 C 20.717,15.567 21.21,18.13 20.778,20.164 20.094,23.383 17.994,25.291 14.67,25.291 H 8.296999999999997 L 7.147999999999997,30.7 H 3.040999999999997 Z M 8.881999999999999,22.536 H 13.287 C 14.557,22.536 16.048,22.493 16.48,20.461 16.898,18.49 15.727,18.319 14.563,18.319 H 9.778 Z M 22.881,19.338 H 26.607 L 24.194,30.7 H 20.467 Z M 23.735,15.313 H 27.462 L 26.904,17.94 H 23.176 Z M 29.105,19.338 H 32.70600000000001 L 32.37900000000001,20.884 H 32.42100000000001 C 34.16300000000001,19.36 35.48000000000001,19.041 37.04700000000001,19.041 40.73500000000001,19.041 43.21200000000001,21.031 42.36600000000001,25.015 41.58300000000001,28.707 38.31400000000001,31.124 34.73500000000001,31.124 32.63900000000001,31.124 31.237,30.445 30.73300000000001,29.428 H 30.691 L 29.524,34.91600000000001 H 25.797 Z M 34.283,28.367 C 36.167,28.367 38.037,27.243 38.496,25.078 38.95600000000001,22.918 37.56200000000001,21.795 35.679,21.795 33.816,21.795 31.946,22.918 31.488,25.078 31.027,27.243 32.42,28.367 34.283,28.367 Z M 57.783,27.307 C 56.132,30.001 53.309,31.124 49.9,31.124 45.412,31.124 42.791,29.301 43.701,25.015 44.609,20.736 48.003,18.912 52.493,18.912 57.40600000000002,18.912 59.25,21.391 58.341,25.672 L 58.269,26.012 H 47.34300000000001 L 47.33400000000001,26.05499999999999 C 47.104,27.13799999999999 47.854,28.79199999999999 50.396,28.79199999999999 51.899,28.79199999999999 53.066,28.28199999999999 53.801,27.30699999999999 Z M 54.884,23.808 54.89200000000001,23.764 C 55.02300000000001,23.152 54.64500000000001,21.244 51.91300000000001,21.244 48.97000000000002,21.244 47.87900000000001,23.489 47.82100000000001,23.764 L 47.81100000000001,23.808 Z M 61.551,19.338 H 65.15 L 64.67800000000001,21.561 H 64.72000000000001 C 66.44499999999999,19.825 67.67000000000001,19.041 69.78600000000001,19.041 70.21100000000001,19.041 70.71400000000001,19.062 71.11900000000001,19.146 L 70.37699999999999,22.642 C 69.739,22.451 69.09399999999999,22.302 68.39500000000001,22.302 65.85400000000001,22.302 64.373,23.594 63.90500000000001,25.8 L 62.86500000000001,30.7 H 59.13700000000001 Z M 73.83799999999999,17.088 A 1.5,1.5 0 0 1 75.34999999999999,18.588 C 75.34999999999999,19.455 74.66000000000001,20.105 73.83799999999999,20.105 73.01200000000001,20.105 72.31800000000001,19.456 72.31800000000001,18.588 72.31800000000001,17.736 73.01200000000001,17.088 73.83799999999999,17.088 M 73.83799999999999,19.882 C 74.53500000000001,19.882 75.075,19.325 75.075,18.588 75.075,17.866 74.53499999999999,17.31 73.83799999999999,17.31 73.132,17.31 72.59200000000001,17.867 72.59200000000001,18.588 72.59200000000001,19.325 73.132,19.882 73.83799999999999,19.882 Z M 73.25000000000001,17.713 H 73.93000000000002 C 74.35000000000002,17.713 74.54800000000001,17.878 74.54800000000001,18.217 74.54800000000001,18.536 74.34500000000001,18.66900000000001 74.084,18.696 L 74.58800000000002,19.475 H 74.29400000000002 L 73.81400000000002,18.716 H 73.52400000000001 V 19.475 H 73.25000000000001 Z M 73.52300000000001,18.495 H 73.80900000000001 C 74.05000000000001,18.495 74.27300000000001,18.483 74.27300000000001,18.205 74.27300000000001,17.971 74.07100000000001,17.934 73.88599999999999,17.934 H 73.52300000000001 Z" id="path6" />
</g>
</svg>
