<?xml version="1.0" encoding="UTF-8" standalone="no"?>
<svg xmlns:dc="http://purl.org/dc/elements/1.1/" xmlns:cc="http://creativecommons.org/ns#" xmlns:rdf="http://www.w3.org/1999/02/22-rdf-syntax-ns#" xmlns:svg="http://www.w3.org/2000/svg" xmlns="http://www.w3.org/2000/svg" width="2500" height="500" viewBox="5.591 3.262 474.801 94.90564738292011" version="1.1" id="svg27">
<metadata id="metadata33">
<rdf:RDF>
<cc:Work rdf:about="">
<dc:format>image/svg+xml</dc:format>
<dc:type rdf:resource="http://purl.org/dc/dcmitype/StillImage" />
<dc:title></dc:title>
</cc:Work>
</rdf:RDF>
</metadata>
<defs id="defs31" />
<linearGradient id="a" gradientUnits="userSpaceOnUse" x1="-2031.31201171875" y1="275.8680114746094" x2="-1922.296020507812" y2="182.0749969482422" gradientTransform="matrix(0.5624999999999999,0,0,-0.5679999999999997,1145.56,166.282)">
<stop offset="0" stop-color="#5a9fd4" id="stop4" />
<stop offset="1" stop-color="#306998" id="stop6" />
</linearGradient>
<linearGradient id="b" gradientUnits="userSpaceOnUse" x1="-1880.151000976562" y1="125.3050003051758" x2="-1919.079956054688" y2="180.3840026855469" gradientTransform="matrix(0.5624999999999999,0,0,-0.5679999999999997,1145.56,166.282)">
<stop offset="0" stop-color="#ffd43b" id="stop11" />
<stop offset="1" stop-color="#ffe873" id="stop13" />
</linearGradient>
<radialGradient id="c" cx="-3393.238037109375" cy="376.7909851074219" r="29.03700065612793" gradientTransform="matrix(0,-0.2399,-1.0547,0,458.797,-680.0999999999999)" gradientUnits="userSpaceOnUse">
<stop offset="0" stop-color="#b8b8b8" stop-opacity=".498" id="stop20" />
<stop offset="1" stop-color="#7f7f7f" stop-opacity="0" id="stop22" />
</radialGradient>
<g id="g863" transform="matrix(0.6817650301733557,0,0,0.6817650301733557,77.32859592395901,1.516272936545107)">
<path d="M 184.614,61.929 C 184.614,47.36700000000001 180.462,39.89100000000001 172.157,39.482 168.852,39.326 165.627,39.852 162.488,41.071 159.983,41.967 158.297,42.855 157.41,43.752 V 78.51 C 162.722,81.84399999999999 167.439,83.394 171.553,83.15 180.256,82.57299999999999 184.614,75.507 184.614,61.929 Z M 194.858,62.533 C 194.858,69.93099999999998 193.123,76.072 189.633,80.95499999999998 185.744,86.48199999999998 180.354,89.328 173.463,89.48399999999999 168.268,89.649 162.916,88.02199999999999 157.409,84.60999999999998 V 116.201 L 148.5,113.023 V 42.90299999999999 C 149.962,41.10999999999999 151.844,39.57 154.124,38.26299999999999 159.427,35.17299999999999 165.869,33.585 173.453,33.50699999999999 L 173.579,33.63299999999999 C 180.5100000000001,33.54599999999999 185.85,36.39199999999999 189.603,42.16199999999999 193.103,47.45499999999999 194.858,54.23899999999999 194.858,62.533 Z M 249.305,83.266 C 249.305,93.18899999999999 248.311,100.06 246.323,103.881 244.325,107.701 240.523,110.752 234.909,113.024 230.357,114.817 225.434,115.792 220.152,115.958 L 218.679,110.344 C 224.05,109.614 227.832,108.882 230.025,108.151 234.343,106.689 237.306,104.448 238.934,101.445 240.24,98.99899999999999 240.883,94.32999999999998 240.883,87.41999999999997 V 85.09999999999999 C 234.791,87.86899999999998 228.407,89.24299999999999 221.731,89.24299999999999 217.344,89.24299999999999 213.475,87.86899999999998 210.141,85.09999999999999 206.398,82.08799999999999 204.527,78.268 204.527,73.63799999999999 V 36.55799999999999 L 213.436,33.50699999999999 V 70.82799999999997 C 213.436,74.81399999999999 214.722,77.88499999999999 217.295,80.03899999999997 219.868,82.19299999999998 223.202,83.22699999999997 227.286,83.14799999999998 231.37,83.05999999999997 235.746,81.48099999999998 240.395,78.39099999999997 V 34.85099999999998 H 249.304 V 83.26599999999997 Z M 284.082,88.99699999999998 A 35.51,35.51 0 0 1 281.148,89.123 C 276.109,89.123 272.18,87.92500000000001 269.374,85.51700000000001 266.576,83.11000000000001 265.173,79.787 265.173,75.546 V 40.45600000000001 H 259.071 V 34.85200000000001 H 265.173 V 19.968 L 274.072,16.8 V 34.85200000000001 H 284.0819999999999 V 40.45600000000001 H 274.072 V 75.30199999999999 C 274.072,78.64599999999998 274.968,81.01399999999999 276.761,82.39899999999998 278.301,83.53899999999997 280.748,84.19199999999999 284.081,84.35799999999997 V 88.99699999999998 Z M 338.023,88.266 H 329.114 V 53.878 C 329.114,50.379 328.2960000000001,47.367 326.668,44.853 324.787,42.006 322.175,40.583 318.821,40.583 314.737,40.583 309.6300000000001,42.737 303.499,47.045 V 88.26599999999999 H 294.591 V 6.069 L 303.499,3.262 V 40.7 C 309.191,36.557 315.41,34.481 322.165,34.481 326.883,34.481 330.703,36.07 333.628,39.238 336.5620000000001,42.405 338.0240000000001,46.353 338.0240000000001,51.071 V 88.26599999999999 Z M 385.374,60.52600000000001 C 385.374,54.93100000000001 384.312,50.31100000000001 382.196,46.65600000000002 379.681,42.20200000000001 375.773,39.85200000000001 370.49,39.60900000000001 360.723,40.17400000000001 355.849,47.17200000000001 355.849,60.58500000000001 355.849,66.73500000000001 356.863,71.87200000000001 358.91,75.995 361.522,81.24899999999999 365.441,83.84199999999998 370.6659999999999,83.754 380.471,83.67500000000001 385.374,75.936 385.374,60.52600000000001 Z M 395.131,60.58400000000001 C 395.131,68.548 393.0940000000001,75.176 389.0290000000001,80.468 384.554,86.39500000000001 378.376,89.367 370.4900000000001,89.367 362.6730000000001,89.367 356.5810000000001,86.394 352.1850000000001,80.468 348.198,75.176 346.2090000000001,68.548 346.2090000000001,60.58400000000001 346.2090000000001,53.09900000000001 348.3630000000001,46.80200000000001 352.6720000000001,41.67500000000001 357.2240000000001,36.23600000000001 363.2080000000001,33.50700000000001 370.6070000000001,33.50700000000001 378.0040000000001,33.50700000000001 384.0280000000001,36.23600000000001 388.6680000000001,41.67500000000001 392.9770000000001,46.80200000000001 395.1310000000001,53.09900000000001 395.131,60.58400000000001 Z M 446.205,88.266 H 437.296 V 51.929 C 437.296,47.94300000000001 436.098,44.833 433.7,42.591 431.302,40.359 428.104,39.277 424.118,39.36400000000001 419.889,39.44200000000001 415.862,40.82600000000001 412.042,43.50700000000001 V 88.266 H 403.133 V 42.40600000000002 C 408.26,38.67400000000001 412.978,36.23600000000001 417.286,35.09600000000001 421.35,34.03400000000002 424.937,33.50700000000001 428.027,33.50700000000001 430.141,33.50700000000001 432.131,33.71100000000001 434.002,34.121 437.501,34.93 440.348,36.43100000000001 442.54,38.634 444.987,41.071 446.205,43.994 446.205,47.416 Z" fill="#646464" id="path2" />
<path d="M 60.51,6.398 C 55.926,6.419 51.549,6.81 47.698,7.492 36.35200000000001,9.496999999999999 34.292,13.692 34.292,21.43 V 31.649 H 61.104 V 35.055 H 24.229 C 16.437,35.055 9.612999999999999,39.739 7.479,48.649 5.017000000000003,58.862 4.908000000000003,65.23499999999998 7.479,75.899 9.384999999999999,83.837 13.937,89.49299999999999 21.729,89.49299999999999 H 30.948 V 77.24299999999999 C 30.948,68.393 38.60500000000001,60.58700000000001 47.698,60.58700000000001 H 74.47899999999998 C 81.93399999999998,60.58700000000001 87.885,54.449 87.885,46.96200000000001 V 21.429 C 87.885,14.163 81.75499999999999,8.703999999999998 74.47899999999998,7.490999999999998 69.87199999999998,6.724999999999998 65.09399999999999,6.375999999999998 60.51,6.398 Z M 46.01,14.616 C 48.78,14.616 51.041,16.915 51.041,19.741 51.041,22.557 48.77900000000001,24.835 46.01,24.835 43.231,24.835 40.979,22.558 40.979,19.741 40.979,16.915 43.231,14.616 46.01,14.616 Z" fill="url(#a)" id="path9" style="fill:url(#a)" />
<path d="M 91.22899999999998,35.054 V 46.96 C 91.22899999999998,56.191 83.403,63.96 74.47899999999998,63.96 H 47.698 C 40.362,63.96 34.292,70.23799999999998 34.292,77.58499999999999 V 103.116 C 34.292,110.383 40.61,114.657 47.698,116.741 56.185,119.237 64.32399999999998,119.688 74.47899999999998,116.741 81.22899999999998,114.787 87.885,110.853 87.885,103.116 V 92.89799999999999 H 61.104 V 89.49199999999999 H 101.291 C 109.084,89.49199999999999 111.987,84.05599999999998 114.697,75.89799999999999 117.497,67.5 117.378,59.422 114.697,48.64800000000001 112.771,40.891 109.093,35.054 101.291,35.054 Z M 76.16599999999999,99.70999999999999 C 78.94499999999999,99.70999999999999 81.197,101.987 81.197,104.804 81.197,107.63 78.94499999999999,109.929 76.16599999999999,109.929 73.396,109.929 71.13499999999999,107.63 71.13499999999999,104.804 71.13499999999999,101.988 73.39699999999999,99.70999999999999 76.16599999999999,99.70999999999999 Z" fill="url(#b)" id="path16" style="fill:url(#b)" />
<path d="M 463.554,26.909 H 465.116 V 17.113 H 468.815 V 15.945 H 459.853 V 17.113 H 463.553 V 26.909 M 470.201,26.909 H 471.535 V 17.962 L 474.431,26.908 H 475.9160000000001 L 478.9350000000001,17.992 V 26.909 H 480.3910000000001 V 15.946 H 478.4650000000001 L 475.1660000000001,25.339 472.3540000000001,15.946 H 470.2010000000001 V 26.909" fill="#646464" id="path18" />
<path d="M 97.33899999999998,134.098 C 97.33899999999998,137.946 81.25199999999999,141.065 61.407,141.065 41.563,141.065 25.476,137.946 25.476,134.098 25.476,130.25 41.563,127.13 61.407,127.13 81.25199999999999,127.13 97.33899999999998,130.25 97.33899999999998,134.098 Z" opacity="0.444" fill="url(#c)" id="path25" style="fill:url(#c)" />
</g>
</svg>
