<?xml version="1.0" encoding="UTF-8" standalone="no"?>
<svg xmlns:dc="http://purl.org/dc/elements/1.1/" xmlns:cc="http://creativecommons.org/ns#" xmlns:rdf="http://www.w3.org/1999/02/22-rdf-syntax-ns#" xmlns:svg="http://www.w3.org/2000/svg" xmlns="http://www.w3.org/2000/svg" width="2500" height="500" viewBox="0 0 192.756 38.5512" version="1.1" id="svg22">
<metadata id="metadata28">
<rdf:RDF>
<cc:Work rdf:about="">
<dc:format>image/svg+xml</dc:format>
<dc:type rdf:resource="http://purl.org/dc/dcmitype/StillImage" />
<dc:title></dc:title>
</cc:Work>
</rdf:RDF>
</metadata>
<defs id="defs26" />
<g id="g870" transform="matrix(0.5174808524262511,0,0,0.5174808524262511,46.50423040486275,-30.59816959513723)">
<path d="M 161.152,74.04399999999999 C 149.324,66.80799999999999 124.834,61.799 96.44699999999997,61.799 67.92099999999999,61.799 43.29099999999999,66.80799999999999 31.60199999999999,74.04399999999999 26.73199999999999,77.10499999999997 24.08799999999999,80.30599999999998 24.08799999999999,83.78399999999999 24.08799999999999,86.70599999999997 25.89699999999999,89.48999999999999 29.23599999999999,91.99399999999998 28.67999999999999,91.01999999999999 28.40199999999999,89.90699999999999 28.40199999999999,88.93299999999999 28.40199999999999,77.80099999999997 58.87599999999999,68.756 96.44699999999997,68.756 133.878,68.756 164.353,77.79999999999998 164.353,88.93299999999999 164.353,89.90699999999999 164.074,91.01999999999999 163.519,91.99399999999998 166.857,89.48999999999999 168.667,86.706 168.667,83.78399999999999 168.668,80.30599999999998 165.885,76.96699999999998 161.152,74.04399999999999 Z" id="path4" style="clip-rule:evenodd;fill-rule:evenodd" />
<path d="M 31.881,88.79399999999999 C 31.881,79.471 60.824,71.81699999999999 96.447,71.81699999999999 132.07,71.81699999999999 160.874,79.46999999999998 160.874,88.79399999999999 160.874,98.25699999999999 132.069,105.771 96.44700000000001,105.771 60.82500000000002,105.771 31.88100000000001,98.25799999999999 31.881,88.79399999999999 Z" fill="#cf4044" id="path6" style="clip-rule:evenodd;fill-rule:evenodd" />
<path d="M 111.059,88.93399999999998 C 111.059,87.125 109.528,85.59499999999998 107.719,85.59499999999998 105.91,85.59499999999998 104.379,87.125 104.379,88.93399999999998 V 97.00399999999999 C 104.379,98.81299999999997 105.91,100.344 107.719,100.344 109.528,100.344 111.059,98.81299999999997 111.059,97.00399999999999 Z M 89.629,95.474 A 2.792,2.792 0 0 0 92.412,92.691 C 92.412,91.15999999999999 91.159,89.769 89.629,89.769 88.09799999999998,89.769 86.846,91.161 86.846,92.691 A 2.792,2.792 0 0 0 89.629,95.474 Z" fill="#ffffff" id="path8" style="clip-rule:evenodd;fill-rule:evenodd" />
<path d="M 107.998,77.245 H 92.27299999999999 C 89.62899999999999,77.245 88.79399999999999,78.07999999999998 86.70699999999999,80.028 85.31499999999998,81.55900000000001 73.62699999999999,93.38599999999999 72.79099999999999,94.08299999999998 70.56499999999998,96.44799999999999 72.096,98.67399999999999 72.652,99.23099999999999 74.04399999999999,100.762 75.852,100.901 77.24399999999998,99.50999999999999 78.07899999999999,98.67399999999999 90.04599999999999,86.42899999999997 91.57699999999998,85.03799999999999 92.68999999999998,83.78499999999999 93.804,84.62099999999999 93.804,86.56799999999998 V 97.00399999999999 C 93.804,98.81299999999997 95.19499999999999,100.344 97.143,100.344 98.95399999999999,100.344 100.483,98.81299999999997 100.483,97.00399999999999 V 86.29 C 100.483,85.03800000000001 100.762,84.62 101.876,84.62 H 107.024 C 109.528,84.62 111.477,83.22799999999999 111.477,80.724 111.477,78.63599999999999 109.666,77.245 107.998,77.245 Z M 107.719,83.507 C 106.328,83.507 105.074,82.394 105.074,80.86299999999998 105.074,79.33299999999998 106.328,78.21899999999999 107.719,78.21899999999999 109.25,78.21899999999999 110.364,79.33199999999999 110.364,80.86299999999998 110.363,82.394 109.25,83.507 107.719,83.507 Z" fill="#ffffff" id="path10" style="clip-rule:evenodd;fill-rule:evenodd" />
<path d="M 23.254,90.325 C 21.584,88.23799999999998 20.749,86.01099999999999 20.749,83.646 20.749,81.837 21.306,80.028 22.418,78.21899999999999 L 22.835,77.80099999999997 C 13.792,83.22899999999998 8.503999999999999,89.769 8.503999999999999,96.727 8.503999999999999,102.85 12.4,108.415 19.219,113.424 19.358,113.565 19.497,113.565 19.636,113.703 19.775,113.842 19.914,113.842 20.053,113.98 23.115,116.068 26.593,118.015 30.629,119.826 V 96.72599999999998 C 27.29,94.778 24.785,92.55199999999999 23.254,90.325 Z M 183.695,92.96899999999999 C 182.164,87.26399999999999 177.156,81.97599999999998 169.502,77.52299999999999 169.641,77.66299999999999 169.781,77.941 169.92,78.21899999999999 171.172,80.02799999999999 171.729,81.83699999999997 171.729,83.64599999999998 171.729,85.45499999999998 171.311,86.98499999999998 170.338,88.65499999999998 169.225,91.43799999999997 166.442,94.22099999999997 162.406,96.58699999999997 V 119.547 C 175.902,113.424 184.252,105.354 184.252,96.58699999999997 184.252,95.33399999999997 184.113,94.22099999999997 183.695,92.96899999999999 Z M 46.91,106.189 C 48.02300000000001,106.605 48.58,106.884 48.58,107.718 V 109.388 C 48.58,110.224 48.02300000000001,110.224 46.91,109.806 L 38.422,107.302 V 103.683 Z M 34.665,113.424 38.422,114.537 V 109.527 L 42.04,110.64 48.58,117.458 53.589,118.712 46.492,111.894 48.579,112.589 C 51.08400000000001,113.284 52.197,113.005 52.197,111.196 V 108.135 C 52.197,106.326 51.08400000000001,105.213 48.579,104.518 L 34.664,100.342 V 113.424 Z" id="path12" style="clip-rule:evenodd;fill-rule:evenodd" />
<path d="M 59.711,114.26 63.329,109.528 66.808,115.374 Z M 52.336,118.295 55.954,119.129 58.181,116.346 68.33899999999998,117.877 70.426,121.078 74.60099999999998,121.773 65.27799999999999,107.302 61.65999999999999,106.743 Z M 79.19299999999998,119.547 V 111.338 L 85.87199999999998,111.754 C 89.48999999999999,112.033 91.299,113.565 91.299,116.207 91.299,119.408 88.933,120.242 84.063,119.826 Z M 75.43599999999999,121.773 84.89799999999999,122.33 C 87.81999999999999,122.607 90.04599999999999,122.469 91.57699999999998,121.773 93.804,120.939 95.19499999999999,118.99 95.19499999999999,116.486 95.19499999999999,112.451 91.99499999999999,109.806 85.87199999999998,109.527 L 75.43499999999997,108.693 V 121.773 Z M 97.69899999999998,109.668 114.26,109.389 V 111.615 L 101.457,111.754 V 114.676 L 108.971,114.537 V 116.764 L 101.457,116.902 V 120.104 L 114.398,119.965 V 122.33 L 97.69899999999998,122.607 Z M 120.381,119.129 V 110.92 L 132.906,109.25 V 117.459 Z M 116.625,112.172 V 118.99 C 116.625,121.494 117.598,121.912 120.66,121.635 L 132.627,119.965 C 135.688,119.547 136.662,118.713 136.662,116.346 V 109.528 C 136.662,107.024 135.687,106.606 132.627,107.024 L 120.66,108.555 C 117.598,108.971 116.625,109.807 116.625,112.172 Z M 139.445,106.049 141.949,105.215 153.5,109.25 155.17,109.945 V 101.039 L 158.51,100.066 V 113.005 L 156.004,113.841 144.037,109.527 C 143.48,109.388 142.7849999999999,109.111 142.7849999999999,109.111 V 117.877 L 139.4449999999999,118.713 Z M 36.891,118.156 V 121.494 L 43.848,123.582 V 122.33 L 40.23,121.355 V 120.382 L 46.074,122.052 V 124 C 46.074,124.975 45.51700000000001,124.975 43.708,124.557 L 37.02900000000001,122.608 C 35.22,122.053 34.664,121.635 34.664,120.661 V 117.739 C 34.664,116.764 35.221,116.764 37.02900000000001,117.182 L 43.708,119.129 C 45.378,119.686 46.074,120.104 46.074,121.078 V 121.217 L 43.847,120.66 V 120.242 Z M 60.546,123.721 C 61.242,123.862 61.52000000000001,124 61.52000000000001,124.278 V 124.975 C 61.52000000000001,125.252 61.242,125.252 60.546,125.252 L 55.537,124.277 V 122.748 Z M 53.311,126.783 55.538,127.201 V 125.113 L 57.625,125.531 61.521,128.314 64.72199999999999,128.871 60.26899999999999,126.088 61.521,126.227 C 63.05199999999999,126.504 63.608,126.366 63.608,125.67 V 124.418 C 63.608,123.721 63.051,123.305 61.521,123.025 L 53.31099999999999,121.494 Z M 72.93099999999998,127.617 75.018,125.67 77.105,128.035 Z M 68.61799999999999,129.287 70.84399999999999,129.566 71.95699999999999,128.453 78.07999999999998,129.01 79.19299999999998,130.401 81.69799999999999,130.54 76.27099999999998,124.696 74.04399999999998,124.557 Z M 93.94299999999998,126.645 C 94.63899999999999,126.645 94.917,126.784 94.917,127.061 V 127.758 C 94.917,128.035 94.63899999999999,128.035 93.94299999999998,128.035 L 88.93299999999999,127.896 V 126.503 Z M 86.70699999999999,130.818 88.93299999999999,130.957 V 128.871 L 94.91699999999997,129.01 C 96.44799999999999,129.149 97.14299999999998,128.871 97.14299999999998,128.035 V 126.922 C 97.14299999999998,126.088 96.44799999999999,125.809 94.91699999999997,125.809 L 86.70699999999999,125.532 Z M 102.85,125.67 105.074,125.531 V 127.617 L 112.172,127.201 V 125.113 H 114.398 V 130.4 L 112.172,130.539 V 128.174 L 105.074,128.592 V 130.818 L 102.85,130.957 Z M 121.912,124.139 124.139,123.861 V 129.148 L 121.912,129.566 Z M 133.879,123.443 V 126.783 L 140.002,125.67 V 124.834 L 142.229,124.418 V 124.975 C 142.229,125.948 141.672,126.366 139.864,126.645 L 134.159,127.758 C 132.348,128.174 131.653,128.035 131.653,126.922 V 124.139 C 131.653,123.164 132.348,122.748 134.159,122.469 L 139.864,121.356 C 141.673,121.079 142.229,121.217 142.229,122.192 V 122.749 L 140.002,123.165 V 122.331 Z M 150.855,119.408 V 120.521 L 156.839,118.572 C 158.648,118.015 159.204,118.015 159.204,118.99 V 119.826 C 159.204,120.799 158.647,121.217 156.839,121.773 L 150.855,123.861 C 149.046,124.418 148.49,124.418 148.49,123.304 V 123.163 L 150.439,122.606 V 122.885 L 157.255,120.658 V 119.545 L 151.273,121.492 C 149.464,122.051 148.908,122.051 148.908,120.937 V 120.38 C 148.908,119.405 149.465,118.987 151.273,118.431 L 156.701,116.622 C 158.369,115.927 159.066,116.065 159.066,116.899 V 117.04 L 157.117,117.735 V 117.317 Z" id="path14" style="clip-rule:evenodd;fill-rule:evenodd" />
<path d="M 43.431,90.186 C 43.431,81.41900000000001 69.17399999999999,73.349 100.9,73.349 H 103.265 C 101.038,73.20999999999999 98.81199999999998,73.20999999999999 96.447,73.20999999999999 63.46800000000001,73.20999999999999 36.75100000000001,80.168 36.75100000000001,88.79500000000001 36.75100000000001,93.80500000000002 45.65700000000001,98.11800000000002 59.29300000000002,101.04 49.41500000000002,98.25800000000002 43.43100000000001,94.361 43.431,90.186 Z M 150.299,87.542 C 150.299,96.16899999999999 124.557,104.378 92.83000000000001,104.378 91.995,104.378 91.16000000000001,104.378 90.32500000000001,104.239 92.55200000000002,104.378 94.91700000000001,104.378 97.14300000000001,104.378 130.123,104.378 156.84,97.421 156.84,88.79399999999999 156.84,83.92399999999999 148.072,79.471 134.436,76.688 144.1760000000001,79.471 150.299,83.22899999999998 150.299,87.542 Z" fill="#ffffff" id="path16" style="clip-rule:evenodd;fill-rule:evenodd" />
<path d="M 178.547,76.131 V 76.549 H 177.434 V 80.86299999999998 H 176.877 V 76.549 H 175.764 V 76.131 Z M 179.66,80.86299999999998 H 179.104 V 76.131 H 179.938 L 181.051,80.028 182.164,76.131 H 183.139 V 80.86299999999998 H 182.582 V 76.549 L 181.33,80.86299999999998 H 180.773 L 179.66,76.549 Z" id="path18" style="clip-rule:evenodd;fill-rule:evenodd" />
</g>
</svg>
