<?xml version="1.0" encoding="UTF-8" standalone="no"?>
<svg xmlns:dc="http://purl.org/dc/elements/1.1/" xmlns:cc="http://creativecommons.org/ns#" xmlns:rdf="http://www.w3.org/1999/02/22-rdf-syntax-ns#" xmlns:svg="http://www.w3.org/2000/svg" xmlns="http://www.w3.org/2000/svg" clip-rule="evenodd" fill-rule="evenodd" height="500" image-rendering="optimizeQuality" shape-rendering="geometricPrecision" text-rendering="geometricPrecision" viewBox="-2.273736754432321e-13 -13.05000000000535 10641.85 2133.840025493945" width="2500" version="1.1" id="svg13">
<metadata id="metadata19">
<rdf:RDF>
<cc:Work rdf:about="">
<dc:format>image/svg+xml</dc:format>
<dc:type rdf:resource="http://purl.org/dc/dcmitype/StillImage" />
<dc:title></dc:title>
</cc:Work>
</rdf:RDF>
</metadata>
<defs id="defs17" />
<linearGradient id="a" gradientUnits="userSpaceOnUse" x1="3341.169921875" x2="7132.330078125" y1="5621.330078125" y2="1929.93994140625" gradientTransform="matrix(0.305984634330039,0,0,0.305984634330039,3695.202518957602,31.80178234511116)">
<stop offset="0" stop-color="#9d141c" id="stop2" />
<stop offset=".6" stop-color="#c04215" id="stop4" />
<stop offset="1" stop-color="#e4700d" id="stop6" />
</linearGradient>
<path d="M 5043.75635845501,419.0926537093281 C 5070.162832397692,408.3587127370304 5080.722362128421,395.5501959439749 5112.489686864568,394.7270972776271 5123.988589422689,382.1694878847223 5161.395210969538,377.5950176014882 5166.624488370237,364.146992922683 5170.479894762795,354.2300309240465 5168.295164473679,353.2111020917275 5178.542589877392,347.3851546540835 5190.723838170071,340.4607223791947 5210.713814330852,338.0832217704503 5226.172158057206,338.7900462757527 5251.244538994209,339.9374886544903 5270.206406783641,332.3429500304188 5275.28575171352,344.1172387594387 5267.434185996612,347.5962840517712 5262.195729056881,346.1703956557933 5255.965881901922,351.8280515445557 5248.986372392853,358.168053167874 5253.704655454223,354.6278109486755 5245.137085692981,358.1037963946648 5238.044361869211,360.9800519573671 5243.50312774566,359.633719566315 5238.307508654736,362.6048303656596 5235.917768660618,356.0169811885339 5228.647573748937,348.7376067378223 5219.440496101946,348.7314870451356 5217.944231240071,348.7314870451356 5191.237892355746,353.5782836529235 5190.338297530814,353.868969055537 5195.14531613614,379.6328752661263 5215.946151577896,344.1478372228717 5229.458433029911,383.2465537975641 5229.767477510585,382.8763123900247 5230.033684142452,381.7043912405407 5230.146898457153,381.9736577187511 5230.260112771856,382.2429241969615 5230.670132181858,381.0036864279248 5230.823124499022,380.7252404106845 5234.513299189044,374.0823139993793 5231.484051309175,376.8208764766332 5234.663231659865,374.8289165071447 5238.757306067202,380.5355299373999 5241.942606110575,392.5668457592571 5246.725145945156,374.4097175581126 5255.424289099159,382.9375093168907 5272.314640914177,374.2995630897537 5290.101527707782,369.0366273792771 5301.040478385079,365.7962501017219 5324.022984269608,356.038400112937 5335.934966084078,358.2935068679494 5334.368324756308,367.6902949882249 5321.780116899971,369.6883746504 5320.121680181901,378.9505295315703 5328.266991147766,378.0325756285802 5339.438490147156,368.9968493768141 5349.594120160571,365.7503524065725 5376.670700452436,357.0971069477189 5406.6939127729,359.4684878637767 5433.192182105881,359.9029860445254 5448.375139661337,360.1508335983327 5463.114419497015,358.6209104266825 5478.300436898815,360.153893444676 5485.328903949376,360.7903414840825 5491.935112204562,362.2101101873739 5498.590278001241,363.1127648586475 5511.86695128482,364.9150143548515 5545.650714761201,364.7620220376864 5553.315629851168,378.3783382653732 5553.566537251318,378.822015985152 5554.196865598039,380.3305202323991 5554.383516224979,380.746659335088 L 5555.362667054835,383.2067757951012 C 5566.570884210345,380.1805877615771 5567.192033018034,381.4228853769573 5578.384950941827,383.92889953212 5626.865156405079,394.7729949727766 5585.958070641497,398.1051676406308 5611.694438234995,408.2852764247912 5648.651262369377,422.9082820994237 5679.485333970816,446.5180564843295 5686.04564453085,449.4708082056144 5697.930087728231,454.8163597673602 5696.403224402924,437.4884499252501 5726.132691474431,458.3657815255886 L 5779.419915543006,491.6752688187567 C 5805.756013019792,506.6440371301822 5824.873932972735,544.8462187262875 5837.113318345936,549.0290286775791 5829.922679439178,538.1849332369225 5800.860258870512,510.9767795522955 5801.579322761187,495.2920071965377 5824.772958043406,487.8106828871683 5843.970434001272,525.1499878144629 5860.689434421065,547.7530727524228 L 5906.024117843403,619.6043845858026 C 5912.596667788812,627.4590101490543 5908.398558605805,618.4630618997515 5911.498182951568,627.4834889198011 5915.130220561065,638.0644375749338 5921.069382313411,644.952151693703 5929.774645160101,653.4799434524812 5933.96357480408,657.5831973988468 5941.392881725611,660.7715572885661 5943.874417110028,668.1457869759198 5953.638386791501,697.1561901567509 5964.451883768724,686.3273939478106 5973.955766511016,724.8477995636191 5978.22425215992,742.14817078864 5986.143134496381,753.5858764198967 5988.945953746844,770.6475796301396 6016.980265944162,864.1258854179664 6048.14786079702,983.8087152898178 6053.031375560927,1099.908465093664 6053.569908517349,1099.391351061646 6054.328750410486,1098.70900532709 6055.821955426017,1097.708435572831 6056.782747177813,1107.974220054604 6055.408876169673,1114.185708131504 6057.654803385654,1124.702400013427 6060.007825223652,1135.723966541995 6059.955807835815,1139.444739695448 6058.279012039687,1151.059916414617 6054.515401037429,1177.181824647372 6064.104959477332,1158.033306230998 6050.35401001054,1201.639176469372 L 6049.527851497849,1202.609147760198 C 6044.840166899914,1241.16933137847 6035.954373118966,1278.233250134867 6021.612873307918,1312.552486721325 5997.67569536428,1386.790478702479 5990.800220630883,1419.21261055609 5949.620808542746,1483.252134675023 5937.008121915663,1502.868809581922 5947.533993336616,1492.569366790373 5926.635242811875,1519.688784931044 L 5899.399550510157,1553.503146870858 C 5886.471699709713,1571.443025981628 5894.139674646025,1566.920573086229 5872.717690396579,1587.895819769554 5863.461655208096,1596.959084638409 5851.702665710791,1607.595110527721 5844.882268211576,1621.612266626381 L 5817.251855731572,1649.52724481631 C 5811.499344606168,1654.337323267978 5809.859266966159,1653.446907982078 5809.687915570933,1662.109332979961 5800.707266553346,1659.025007865914 5807.233918803606,1659.037247251287 5799.214061537816,1667.029565899988 5788.617813650967,1677.582975938031 5768.805308578097,1685.679329362404 5760.197960814392,1699.326244053523 5751.446800272555,1698.087006284487 5751.878238606958,1695.810480605072 5743.374925618928,1704.439247293178 5743.032222828478,1704.788069776315 5742.123448464519,1705.85901599647 5741.771566135038,1706.207838479606 L 5739.993795409582,1707.875454736705 C 5739.504219994653,1708.300773378424 5736.992086146803,1710.130561491717 5736.058833012097,1710.901642770229 5732.968388205364,1713.456614466885 5731.395627184908,1715.417975972941 5728.990587959073,1717.979067362283 5738.880011340619,1717.260003471607 5738.641343325843,1713.33116076681 5747.028382152829,1718.499241240644 L 5753.802881956896,1721.904850220737 C 5746.682619516035,1728.018423214651 5747.719907426414,1732.302208095272 5736.444373651353,1732.473559490497 5740.645542680704,1726.020343552476 5740.559866983091,1730.074639957349 5743.980775194901,1722.95437751649 5735.336709275078,1724.083460817167 5730.572528518559,1728.455981241743 5723.265615450757,1732.002343153628 5719.330653053273,1733.914747118191 5724.596648610094,1732.390943639228 5720.095614639099,1732.901937978559 5715.117244638548,1733.468009552069 5723.023887589637,1732.360345175794 5716.384021024676,1732.739766122364 5709.973642935461,1733.10694768356 5709.982822474491,1734.523656540508 5705.827551140288,1739.942644414493 L 5701.029712073995,1745.331033825045 C 5691.363657475509,1753.289694163969 5681.174369152317,1758.876973586836 5671.076876219426,1764.641724097614 5660.655039574146,1770.590065388989 5655.422702327102,1771.835422850713 5645.591416026078,1779.696168106651 5645.450663094286,1787.015320559826 5648.225943727659,1786.571642840048 5644.529649344953,1790.748333098652 L 5652.739217084027,1792.324153965452 C 5639.073943314848,1801.271144673262 5645.059002762342,1786.889866859751 5628.199249410758,1801.49145360998 5623.713514671479,1805.377458465972 5623.903225144765,1804.771608889998 5622.844518309982,1811.950008411381 L 5649.850722135952,1802.510382442299 C 5646.383916228993,1804.184118392084 5643.321010039348,1806.797227169263 5639.080063007534,1808.89934160711 5629.545581801809,1813.620684514823 5632.134211808242,1809.26040347562 5628.251266798594,1818.403224349401 5620.742403872135,1810.695471410628 5616.314806213379,1819.611863655005 5611.914747171714,1827.059529654598 5618.006901241225,1825.789693422129 5618.285347258464,1823.357115579205 5623.37081188103,1825.333776316976 5619.962143054593,1826.931016108179 5612.704187528284,1828.662889138487 5609.76979488506,1832.307166133358 5604.993374743167,1838.240208193017 5609.463810250729,1841.786570104903 5601.32461897755,1845.198298777683 L 5605.67266063138,1834.455178266355 C 5591.747299923021,1833.855448383068 5601.94576778524,1838.950092544663 5592.37762826974,1843.772410381705 5583.363320942377,1848.316282201506 5585.35834075821,1842.542352151698 5576.677556682266,1851.801447186525 5571.090277259399,1857.762027863274 5572.626320123737,1851.0364856007 5572.142864401494,1859.512259971642 5571.66552837194,1867.880939720568 5574.110345600236,1865.485080033764 5578.843927893322,1869.998353390132 L 5582.209758870953,1873.00006265291 C 5585.21146813373,1875.518316193446 5583.3296626326,1873.670169002093 5585.906053253659,1877.3664633848 5595.663903242445,1877.9600735754 5597.346818731261,1876.852409199126 5600.626974011277,1872.44317061843 5605.507428928843,1865.892039597423 5597.092851484765,1872.36973430619 5604.118258688983,1867.568835393552 5613.619081584932,1866.265340851306 5615.201022144417,1869.530196899607 5621.905145482588,1871.356925166558 5627.966701088666,1861.834683346207 5621.810290245946,1868.260360667138 5631.546721310329,1864.108149179279 5635.625496485948,1862.367096609942 5638.379358194918,1860.154827703735 5644.229784403309,1858.937008859102 5643.896261151889,1859.273591956865 5643.464822817483,1859.377626732537 5643.317950193005,1860.026314157317 5642.467312909568,1863.698129769278 5636.45165499864,1866.146006843918 5633.84772576049,1868.318497747661 5633.572339589593,1868.547986223409 5633.202098182054,1868.887629167515 5632.938951396529,1869.129357028636 5623.453427732299,1877.840739568012 5630.365620621814,1874.799252302771 5615.320356151806,1875.665188817925 5615.109226754118,1875.677428203298 5614.576813490384,1875.677428203298 5614.224931160905,1875.784522825314 L 5614.24940993165,1877.742824485026 C 5614.794062580758,1882.341773539006 5617.272538118832,1879.128934878541 5613.619081584932,1885.172131406559 5606.709948541759,1896.588418113413 5608.659070662441,1885.349602494471 5604.85568165772,1893.286843908992 5606.761965929595,1901.156768703961 5610.314447534167,1900.272473110747 5618.144594326672,1900.57233805239 L 5621.011670350346,1906.857262441529 C 5621.556322999453,1906.661432275558 5623.835908525212,1903.525089773675 5624.163312083945,1903.36291791748 5628.951971611209,1900.985417308736 5630.175910148529,1904.816344930548 5640.646704335304,1897.273823694313 5648.648202523035,1891.512133029878 5650.031253070205,1887.668966022693 5661.233350533028,1883.871696710657 5670.856567282708,1880.612960355042 5686.431185170107,1880.132564479144 5689.925529694156,1870.056490470656 5692.706930020216,1862.045812743895 5688.328289902953,1867.890119259599 5689.662382908632,1859.73256890836 5689.931649386843,1858.080251882978 5690.708850358041,1855.36616817647 5690.999535760653,1852.716341243173 L 5705.356334803421,1849.870684143903 C 5704.095678109981,1849.258714875243 5701.819152430565,1847.600278157174 5700.139296788093,1845.77966958291 5701.093968847202,1844.821937677457 5701.898708435491,1844.191609330738 5702.605532940793,1843.487844671779 L 5705.695977747526,1840.27194616497 C 5696.219633622326,1841.480585470573 5700.381024649214,1841.50506424132 5694.705009682392,1847.282054137471 L 5689.946948618559,1838.940913005634 5686.385287474958,1846.480374395526 C 5684.549379668977,1849.800307678007 5685.843694672194,1848.827276540838 5681.388558396349,1850.195027856293 5681.498712864708,1849.873743990247 5681.83529596247,1849.087363480018 5681.887313350306,1849.307672416736 L 5683.815016546585,1843.111483571553 C 5671.471596397713,1842.793259551849 5679.200768260889,1847.425866915607 5672.970921105929,1853.089642497055 5663.194712039085,1861.975436278 5664.599181510659,1848.463154825985 5663.675107914982,1867.792204176614 5651.423483156408,1867.77996479124 5660.541825259443,1872.048450440144 5652.078290273874,1875.610111583746 5647.592555534596,1867.015003205415 5655.508378024715,1876.806511503976 5651.325568073422,1870.126866936552 5648.764476684081,1866.035852375559 5653.880539770078,1870.818392210138 5648.911349308558,1868.033932037735 5648.580885903482,1867.850341257136 5647.993395405568,1867.672870169225 5647.659872154148,1867.51987785206 5647.243733051459,1867.330167378775 5645.331329086897,1866.874250273624 5644.826454440252,1866.623342873473 5645.123259535553,1866.250041619591 5645.566937255332,1865.221933248241 5645.707690187124,1865.503439111825 L 5649.578395811397,1859.910039996272 C 5650.630982953493,1857.970097414619 5652.212923512979,1855.249894015425 5650.924728202448,1851.770848723092 5639.701211815225,1848.533531291881 5627.9972995521,1863.101459732334 5617.587702292192,1863.532898066739 5623.285136183418,1860.482231262469 5644.951908140327,1845.874524819553 5652.766755701117,1845.207478316713 5664.819490447377,1844.176310099021 5651.989554729919,1852.759179091979 5680.880623903361,1838.953152391007 5695.157866941201,1832.13275489179 5693.578986228058,1833.081307258214 5687.291001992573,1820.324807852995 5693.064932042382,1815.985945738194 5700.350426185781,1814.602895191023 5707.632860482834,1810.949438657122 5712.449058627191,1808.535219892258 5713.34865345212,1806.341310064111 5720.120093409845,1805.022516290149 5714.948953089668,1829.547184731701 5704.429201361401,1807.956908933374 5693.389275754771,1828.806701916623 5700.408563266303,1833.277137424185 5691.929729049018,1829.69405735618 5701.525407181607,1830.345804627303 5705.567464201109,1830.6211907982 5705.240060642376,1830.896576969097 5709.438169825383,1831.85430887455 5708.921055793365,1826.303747607803 5709.031210261724,1827.659259537885 5706.488477950441,1824.119017318687 L 5713.100805898314,1822.035261958899 C 5715.475246660715,1827.656199691542 5708.44371976381,1825.514307251231 5716.377901331989,1828.289587884605 5717.191820459306,1826.882058566686 5724.030577036583,1811.665442701454 5724.685384154048,1809.710200888085 5725.009727866438,1810.059023371221 5725.352430656887,1810.218135381073 5725.496243435023,1810.888241730256 5725.636996366813,1811.552228386752 5726.102093010997,1811.787836555186 5726.307102715997,1812.05098334071 5730.355279428184,1817.323098590216 5731.790347363193,1817.953426936936 5739.078901352932,1816.910019333871 5739.592955538609,1816.836583021632 5740.982125778466,1816.585675621481 5741.428863344588,1816.518359001928 5741.719548747201,1816.475521153122 5742.264201396309,1816.392905301853 5742.515108796459,1816.35312729939 5742.762956350267,1816.319468989614 5743.384105157957,1816.242972831032 5743.579935323929,1816.215434213942 5743.775765489899,1816.190955443196 5744.292879521916,1816.184835750509 5744.638642158711,1816.105279745583 5745.2597909664,1812.901620624148 5744.461171070799,1806.485122842247 5742.166286313324,1802.794948152227 5735.973157314483,1792.835148304784 5739.755127394803,1806.876783174189 5736.380116878141,1797.403498895331 5738.2496829939,1795.689984943083 5746.189984254763,1791.094095735446 5750.504367598818,1790.528024161935 L 5753.897737193537,1798.110323400634 5767.183590016146,1790.677956632757 C 5764.968261263597,1800.692833714379 5761.394360734623,1795.833797721218 5754.344474759659,1803.351840186707 5756.067168250938,1808.556638816661 5751.884358299646,1804.695112731416 5760.259157741259,1807.727420457627 5753.233750537041,1812.43040428728 5758.689456567145,1811.595066235558 5753.894677347195,1819.336477484108 L 5750.501307752474,1812.31107027989 5744.788574629531,1821.255001141357 C 5741.630813203247,1827.169684122957 5739.143158126143,1829.189182709535 5730.13803033781,1830.492677251781 5727.466784480108,1825.795813114815 5728.152190061007,1823.577424515922 5723.066725438442,1821.842491639271 5718.978770723793,1834.32972456628 5727.723811572946,1839.479445962054 5706.494597643128,1836.48079654562 L 5710.245969260014,1855.461023413112 C 5722.846416501725,1853.126360653174 5721.668375659554,1845.002468611711 5734.954228482164,1845.525702336416 5736.156748095081,1827.75717462087 5735.896661155901,1834.314425334563 5750.501307752474,1833.307735887617 5756.520025509747,1826.251730219966 5753.68660779585,1822.417742751811 5768.728812419513,1823.026652174128 5767.076495394132,1830.309086471183 5766.840887225697,1828.834240533713 5761.694225676265,1831.548324240219 L 5765.653666844497,1833.98702177583 C 5769.065395517277,1836.474676852933 5767.406958799208,1833.647378831724 5769.558030778548,1837.420169373013 L 5757.232969707735,1841.030788058107 5759.182091828416,1845.296213860668 C 5759.313665221179,1855.852683745055 5755.271608201679,1838.708364683542 5758.986261662445,1847.682894008443 5770.124102352058,1844.506773504097 5770.02312742273,1842.787139859162 5780.668332851072,1847.193318593514 L 5783.868932126164,1837.75063277809 C 5796.891638163251,1838.686945759139 5798.439920412962,1833.962543005084 5803.595761501423,1840.091415230714 5792.424262502033,1843.460306054688 5775.28912297955,1850.660124500474 5762.275596481494,1855.684392196173 5749.693508317843,1860.543428189334 5732.9286102029,1868.590824072214 5719.609099070514,1871.516037176409 5720.582130207683,1880.839388984446 5723.222777601951,1873.085738350522 5719.587680146109,1879.113635646824 5706.779163353055,1880.157043249889 5719.59685968514,1878.565923151373 5713.520004847346,1875.946694681508 5709.588102296204,1874.251539807319 5709.132185191052,1875.674368356954 5706.522136260217,1877.944774343684 5697.988224808754,1885.364901726187 5704.361884741847,1882.057207829079 5691.329999165732,1884.777411228273 5680.819426976494,1886.974380902763 5671.863256729654,1894.146660731458 5660.740715271757,1898.228495753421 5638.302862036335,1906.462542263243 5665.553853569768,1902.680572182924 5631.736431783612,1910.002784482441 5606.382544983025,1915.492148822322 5616.755424086814,1918.472439160696 5603.766376359503,1925.222460194017 5603.463451571517,1925.381572203869 5602.851482302858,1925.565162984467 5602.441462892856,1925.828309769991 5609.886069046105,1924.962373254837 5611.250760515215,1921.767893672431 5614.641070263593,1923.836349800502 5607.315798117732,1933.438147625778 5583.406158791183,1933.991979813916 5578.397190327201,1934.864036021756 5570.196802127155,1936.296044110421 5546.418736193369,1940.778719003356 5543.478223857457,1947.589936963543 5549.851883790552,1950.533509145798 5556.060312021108,1945.744849618533 5565.154175353396,1945.940679784504 5560.60418384091,1952.458152495734 5559.181355291274,1948.4772924031 5550.313920588389,1956.038172717395 L 5544.735820704553,1961.524477210933 C 5572.901706294634,1957.203974174193 5571.022960639847,1950.255063128557 5576.604120370026,1945.028845574201 5580.747152318856,1941.148960410895 5582.858446295733,1941.883323533288 5587.142231176353,1939.104983053571 L 5589.57786886562,1940.585948683728 C 5596.69813130648,1945.38072790368 5598.325969561115,1946.809676146001 5615.54678478121,1941.981238616273 5634.367899638851,1936.70300367408 5626.696864856196,1937.988139138266 5632.694163689066,1933.257616691524 5635.255255078408,1931.235058258603 5635.769309264082,1931.069826556065 5639.860323825076,1931.042287938975 L 5634.159830087506,1936.598968898408 5646.5399683925,1937.051826157216 5644.003355773905,1944.502552003153 C 5643.207795724646,1949.477862157359 5647.311049671013,1949.499281081763 5639.664493659104,1952.075671702821 5629.313033479718,1955.560836687841 5624.438698254842,1951.30459042431 5615.85276941554,1949.7563081746 5605.522728160558,1947.898981444217 5603.17888586159,1951.5371387464 5595.792416788864,1954.156367216266 5587.515532430234,1957.090759859491 5555.888960625882,1959.801783719655 5534.087555429868,1972.126844790469 5529.877206861487,1974.507405245557 5522.184753154429,1978.968661214089 5517.723497185897,1981.26048612522 5505.679941978667,1987.450555277717 5499.866233926396,1986.737611079728 5498.446465223104,1993.389717030064 L 5499.391957743185,2003.407653958029 C 5503.30856106261,2010.475899011053 5499.648984836021,2004.218513239003 5502.760848567158,2007.31201789208 5506.530579262104,2003.802374136314 5507.160907608825,2006.091139201103 5505.245443797918,2001.636002925258 5501.897971898348,1993.863993213275 5506.340868788819,2007.431351899469 5501.028975536851,1998.334428720837 5507.51890963099,1996.002825807242 5509.256902353986,1993.408076108123 5514.639172071851,1989.858654349895 5516.175214936188,1992.413626046551 5516.986074217162,1988.968239063995 5515.413313196705,1995.83453425836 5512.292269926539,1991.367158597141 5514.660590996253,1993.06231347133 5508.74284816831,1994.01698553044 L 5508.464402151071,2006.660270620957 C 5517.52154732724,2004.469420639154 5522.062359300697,1999.328878782409 5527.524185023487,1994.420885247756 5537.588019646604,1985.372919610617 5535.436947667263,1988.405227336827 5547.878282899122,1987.826916377943 5548.05269414069,1983.029077311648 5547.156159162103,1982.469125430824 5544.974488719331,1979.513313863196 L 5558.391914934702,1980.327232990514 C 5557.391345180443,1987.845275456003 5553.630794024526,1986.728431540698 5554.102010361395,1996.213955204929 5568.461869250504,1995.191966526267 5590.915021717642,1988.882563366382 5604.445662247717,1984.926182044494 5613.713936821573,1982.218218030674 5620.604710786687,1979.932512812228 5628.798979294045,1976.869606622585 5639.832785207986,1972.744933751816 5645.830084040854,1973.525194569357 5642.280662282626,1961.004303332572 L 5635.114502146617,1968.302036861344 C 5629.392589484645,1967.812461446415 5629.646556731139,1968.170463468581 5625.81868895567,1964.559844783487 5628.144172176578,1960.704438390928 5641.537119621204,1956.873510769116 5646.922449185412,1954.339957996864 5660.284798166605,1948.048913915038 5661.055879445118,1950.398875906694 5667.356103065973,1959.498858931668 5673.497214676976,1958.559486104275 5674.864965992433,1957.179495403446 5680.412467412836,1955.5791957659 5689.836794150201,1952.858992366706 5690.356968028562,1955.827043319708 5695.448552343814,1954.826473565448 5718.027158511027,1950.401935753036 5711.03846946293,1942.651344965456 5725.113762642112,1941.360089808584 5744.112348587664,1939.619037239245 5735.012365562688,1934.340802297052 5746.988604150365,1932.275406015324 5752.064889233901,1931.400289961141 5752.94612498077,1930.717944226584 5757.052438773481,1928.609710096051 5763.358782087022,1925.369332818496 5768.572760256007,1922.765403580347 5774.808727103652,1919.332255983164 5790.692389471725,1910.593334826698 5789.180825378134,1915.158625570903 5790.374165452022,1908.00776466661 5811.514643837885,1903.92898949099 5809.568581563546,1909.2225236649 5833.692410134125,1893.43371653347 L 5940.545304288519,1822.289229205392 C 5942.491366562858,1824.630011658017 5943.687766483088,1826.652570090939 5947.411599482883,1826.83004117885 5951.349621726712,1827.019751652134 5951.052816631411,1825.538786021977 5955.238686429046,1823.861990225849 5952.490944412764,1832.655988616494 5950.339872433422,1828.02644109908 5948.194920146769,1834.699965973819 5952.328772556568,1833.901346078217 5993.759092044855,1794.775090886435 5997.538002278832,1790.763632330368 6009.630515027553,1777.93369661291 6022.989804162402,1772.949206919673 6048.701692985157,1745.208639971312 6058.995016084018,1734.107517437819 6066.623213017867,1737.907846596198 6077.99360202957,1726.996434535988 6085.594260346329,1719.70176085356 6094.085333948988,1711.35755987538 6100.951629143354,1702.459526709062 6111.425483176471,1688.889108176525 6107.591495708315,1685.055120708369 6125.243749262816,1678.959906792515 6133.444137462862,1676.126489078619 6141.742440745892,1659.278975112407 6146.145559633901,1651.204040612437 6146.313851182782,1650.803200741465 6146.356689031589,1649.667997748101 6146.393407187709,1649.918905148251 6146.427065497485,1650.163692855715 6146.57087827562,1648.915275547649 6146.622895663455,1648.679667379214 6148.192596837569,1641.02699167462 6146.674913051292,1646.130815375245 6156.965176303811,1636.275050303475 6163.066509912352,1630.433803634114 6166.242630416699,1628.383706584103 6170.838519624336,1619.611127117861 6179.727373251624,1602.628979912544 6185.534961611208,1594.192983544065 6204.980285122881,1596.184943513553 6217.819400379369,1561.067087031494 6231.610127848624,1552.343465106745 6242.82446469682,1522.130542312997 6249.718298508277,1503.557275009164 6250.630132718581,1514.150463049669 6257.441350678766,1499.457080909141 6265.415310249408,1501.014542697881 6259.993262529078,1499.689629231232 6265.959962898515,1505.059659563724 L 6281.926241117856,1453.938806706205 C 6283.808046618986,1449.364336422971 6288.061233036173,1443.881091775776 6290.698820584098,1439.049594399705 6295.065221315989,1431.057275751004 6291.974776509256,1411.364104685523 6292.62652378038,1399.455182717398 6293.091620424559,1390.8906728025 6295.937277523828,1390.697902482872 6298.798233854814,1384.458875788883 6302.02943159334,1377.408989813918 6301.441941095426,1371.71767561538 6303.525696455214,1365.362374760345 6305.416681495375,1359.603743942253 6308.387792294718,1357.703579363064 6311.264047857423,1351.103490800565 6313.216229824446,1346.62999544666 6314.7675719205,1339.79735856207 6317.665246407605,1335.421778291151 6327.068154220567,1321.230210950923 6337.003475297266,1320.994602782489 6333.203146138886,1306.962147452114 6328.839805253339,1290.861235993667 6321.750141275912,1307.779126425775 6330.941919691186,1275.66909889918 6342.964055974013,1233.675767683726 6341.418833570646,1260.522859499843 6349.903787480619,1248.072344728954 6351.234820639954,1233.926675083876 6352.914676282426,1220.711198727162 6355.087167186169,1206.61754646992 L 6359.432148993656,1138.107586843425 C 6359.11086512761,1126.217023953359 6362.473636258898,1126.672941058511 6363.838327728009,1117.361828635848 6366.48203496862,1099.342393520152 6359.897245637838,1107.567260490943 6368.018077832956,1097.399391092156 6373.020926604253,1091.138945473764 6373.513561865524,1085.92496730478 6370.325201975806,1076.864762282267 6368.385259394152,1071.357038864327 6363.49562493756,1065.944170683028 6361.984060843969,1061.13409223136 L 6357.718635041408,1017.79136877851 C 6359.422969454626,1008.706684985251 6364.474775767414,1009.566501807719 6365.851706621901,1000.405321855878 6366.944071766459,993.1320670978522 6365.867005853617,985.142808295495 6368.697363721169,979.1271503845666 6374.17754852202,967.4813752019651 6373.504382326495,974.6230565672285 6372.402837642905,959.7430237997587 6371.800047913277,951.6191317582957 6373.825666192541,943.6115138778787 6373.421766475225,937.9630375281464 6372.451795184399,924.423217459042 6369.030886972589,940.7811560103262 6371.806167605963,917.6089396525123 6368.948271121321,914.1604928236127 6363.767951262112,911.8013512929283 6362.439977949119,906.5965526629742 6360.625489067541,899.4701705294274 6363.994379891516,897.4384325574761 6360.833558618886,887.6836424150345 L 6351.6478998963,835.7764090472863 C 6351.005332164207,824.3662420331198 6352.174193467347,827.6310980814211 6347.575244413365,819.4184704960028 6341.761536361096,809.0394716995278 6342.462241173711,795.8270551891567 6338.32532891757,787.8316766941129 6334.289391590757,777.5536528269668 6334.286331744413,781.8772157100499 6333.481592156124,768.6066621191567 6333.0134356656,760.8927894876962 6331.021475696112,754.5436083253478 6328.689872782518,748.2739831679258 6320.66389582404,726.6990066013142 6323.423877225697,724.9946721880963 6313.127494280492,712.2871303243699 6315.526413813639,704.9220801760455 6317.94675227119,707.109870311505 6315.489695657518,700.5587392904996 6314.259637427512,697.2847037031677 6310.866267832791,693.0957740591896 6309.397541588007,687.9032148146091 6306.218361237319,676.6552196566364 6311.196731237869,681.3949216424088 6302.724016713269,657.3139309206347 6300.77795443893,651.7847885782909 6298.831892164592,649.04928594738 6297.09695928794,644.3065241152648 6295.233512864871,639.2118799536694 6295.184555323377,634.000961631029 6293.027363651352,629.5305261234675 6290.860992440294,625.0417315378452 6287.874582409233,623.1507464976861 6285.154379010039,618.7568071487066 6282.449474842562,614.3842867241306 6281.032765985614,610.9388997415744 6279.209097565008,606.0003077434872 L 6271.46156662377,606.0768039020698 C 6273.940042161843,598.0049292484432 6278.6644449159,596.4872454621666 6275.408768406628,588.0267703229405 6272.734462702585,581.0839789699919 6268.019239487557,579.8845192034187 6264.846178829555,574.7072591905541 6253.543106437402,556.2533258941095 6264.463698036643,554.0808349903662 6241.407755839873,526.8237237642464 6229.584509569362,512.8432858217068 6244.137138778098,521.0467338680953 6213.238810403449,482.0214536056421 6182.563850811864,443.2807390531159 6202.673160980034,455.6516978190793 6188.499952717867,435.4964899557597 6184.846496183966,430.3039307111789 6183.032007302389,425.5856476498097 6179.256156914756,420.9622198250828 6174.424659538683,415.0383573044536 6171.811550761506,416.237817071027 6166.398682580207,410.0171494550974 6154.771266475667,396.6670398592777 6160.976634859879,404.7756326690237 6153.954287502006,398.7416156800357 6148.109980986301,393.7204078306795 6150.034624336238,389.7456674307322 6145.08685279912,383.8860616833123 6141.185548711412,379.268753551272 6136.152101476684,378.6506645899253 6129.512234911721,374.6116674167688 6126.216780399987,361.686876462668 6137.036397069898,356.4453596765944 6122.076808297501,349.1384466087931 6110.987925149382,343.7225185811514 6110.544247429603,341.0543325697934 6103.889081632924,331.7401603007869 6095.205237710638,319.5925703178844 6084.838478299537,298.8835302664273 6067.810433399069,296.9741861482079 L 6066.614033478839,294.30600013685 C 6064.010104240691,288.6146859383113 6066.402904081151,290.1231901855583 6062.0181442712,287.0358052251682 6058.692091296034,284.6950227725434 6054.328750410489,285.1539997240385 6049.295303175757,284.8357757043352 6044.549481497299,269.1387639632043 6038.815329449955,268.0831169747656 6029.234950549081,258.7781242447891 6019.272090855295,249.09983026093 5989.095886217666,227.2158092136456 5976.486259436926,219.936434762934 5968.26751215882,215.1906130844751 5969.35069776435,212.8834889416266 5963.402356472974,209.0709203978743 5957.597827959732,205.3501472444211 5953.825037418443,204.361816875535 5948.179620915054,200.6900012635746 5937.543595025741,193.7778083740589 5930.151006260328,189.5399211885879 5920.06575271281,182.9887901675818 5914.469293750913,179.3536927117409 5910.714862287683,176.65490823695 5904.604349140113,174.5068961039531 5898.551973073063,172.377243049016 5890.455619648691,172.8882373883472 5885.694498738516,169.9813833622118 5875.407295332341,163.6903392803862 5891.150204768621,161.8085337792565 5828.255063182082,134.0740865235818 5818.166749788219,129.625069940423 5740.315079275628,95.84742615672998 5734.388156908656,88.63536832557097 5728.767219176012,81.79355190195131 5732.907191278499,81.10202662836542 5721.090064700671,78.27472860715586 5714.027939340335,76.58569342565402 5708.477378073588,75.82991137885882 5701.611082879221,73.93586649235591 5690.399805877369,70.84848153196578 5677.043576588864,67.29294008105073 5664.911285837677,64.99499547723218 5645.478201711376,61.31400032624178 5642.748818773153,65.78443583380366 5626.764181475751,55.44827488613493 5616.412721296366,48.75333108699368 5602.817823993083,49.02565741154742 5589.262704692261,47.29378438123941 5561.950516231961,43.80249970353366 5553.591016022065,47.59670916922615 5544.864334250973,46.32993278309977 5535.712333838161,41.7554624998657 5511.833292975044,40.69063597239716 5499.936610392293,42.76827163949813 5478.756354003968,46.46456602220499 5460.486011488122,35.77652274505673 5431.931525412443,40.58048150403835 5419.291300168269,42.70401486628882 5421.451551686638,40.87422675299519 5411.840574322332,38.11424535133823 5401.776739699216,35.22575040326267 5272.066793360369,33.1052768873555 5261.917283039642,33.89165739758369 5235.822913423977,35.91421583050525 5217.837136618057,27.80868286710251 5193.02178277389,34.46996835646746 5183.438344026674,37.04329913118309 5185.552697849894,41.72486403643269 5178.668043577468,47.20504883728369 5163.457547404922,46.5471818734741 5179.683912563445,42.45922715882478 5163.433068634175,42.63669824673622 5153.678278491734,42.74379286875173 5156.637149905704,46.4370274051153 5148.097118761555,47.2662457641497 5090.657683205119,52.83822595529971 5118.349292611987,54.73227084180265 5102.254500846229,57.76151872167003 5090.728059671016,59.93094977907001 5080.456155496556,58.07974274137328 5061.882888192722,72.10607837906229 5058.985213705617,72.74558626481206 5034.775709437425,79.09170758081707 5033.383479351224,79.81689116417926 5028.224578416418,82.50343625359701 5029.316943560977,85.16856241861164 5020.813630572944,85.97636185324292 5013.341485802606,86.6862462048886 4997.200796341697,81.51816573105429 4975.393271452994,91.48408527118361 4965.118307432191,96.1809494081497 4963.980044592483,104.5924670058825 4952.842203902871,105.8745426237254 4940.887384239596,107.2484136318673 4934.461706918665,110.770296773006 4923.495217624275,112.6000848862996 L 4892.003279059028,118.6126829508849 C 4888.827158554682,120.1609652005949 4886.165092236012,123.8113618881523 4882.51163570211,126.0328103333883 4871.627762258992,132.6451382812605 4863.158107580736,127.7065462831737 4851.166569761341,150.2912721430738 4838.90882531008,150.5850173920307 4832.764653852734,147.4241961194014 4821.66353131924,153.338879101001 4810.17686814649,159.4585717876018 4811.654773930304,163.2283024825478 4809.671993499845,177.1077654957584 4792.873437075127,182.5328730624301 4774.777505800848,187.278694740889 4766.717870532595,198.9764873113263 4758.691893574117,199.3987461067018 4747.180751630621,206.5343077792783 4741.088597561109,213.5841937542424 4723.056923060042,234.4431662765211 4729.926278100751,226.8853458085692 4715.786728148358,230.3735706399316 4701.53702372761,233.8862742420405 4701.830768976566,246.7253894985289 4694.952234396826,250.403324803176 4683.257501672733,256.6607105752253 4683.869470941393,247.1048104450982 4672.186977602671,263.6065617745172 4667.649225475556,270.0169398637315 4668.808907239667,264.26748858467 4663.454176138892,271.7732916647859 4648.659819069034,292.5068104869894 4648.436450285975,277.6481966439227 4620.530651635074,301.7842645998762 L 4581.832774931354,334.2431146096067 C 4577.496972662897,338.2056156241808 4578.626055963575,336.5410592134253 4576.104742576696,341.4796512115122 4572.5859192819,342.4190240389054 4575.202087905422,340.9411182550913 4571.242646737191,344.0897001423475 L 4559.009381056676,357.3449545015248 C 4547.002544005566,370.5237127021195 4551.824861842607,360.9831118037089 4542.281201097854,376.2089072079716 4534.6101663152,388.4452327348299 4521.030568243632,392.6464017641813 4505.630361597802,410.8524875068186 4494.734248769308,423.7375004584566 4484.174719038578,434.3215089599326 4474.254697193598,449.063848641954 4470.133084169174,455.1896610212413 4471.525314255375,453.3537532152611 4466.167523308256,457.7109744081208 4461.7399256495,461.3124135541854 4445.743048966726,480.1243488727962 4448.279661585323,490.9745640061394 4432.105313814637,491.3692841844251 4438.433076052581,500.0684273384281 4424.412860107579,517.9777079857652 4410.738406799369,535.4463707596672 4393.67058389644,563.4286655691493 4380.877366335102,579.6489110349843 4372.159864103038,590.7010760269856 4366.486908982559,596.6708362427644 4360.159146744615,612.1964965886706 4349.544539779705,622.3398872167113 4332.277826864461,650.377259260373 4327.954263981378,665.7560469818008 4324.695527625764,677.3406252375361 4322.060999924181,688.3162940709546 4319.200043593195,699.2950227507164 4317.716018116694,704.9955164882848 4315.561886291012,709.863732020476 4313.181325835924,715.6284825312538 4309.179046818886,725.3159560541427 4310.929278927254,723.8380502703289 4309.521749609337,734.1497324472511 4308.141758908507,744.2594647655153 4305.654103831405,738.782339811008 4304.124180659754,749.5988966345748 4302.796207346762,758.9956847548504 4303.447954617886,758.3806556398469 4299.81897685473,766.6942581545941 4291.410519103342,785.949871192983 4299.64150576682,793.3455198047402 4296.658155582102,800.9675970459016 4295.721842601052,803.3603968863626 4290.758771832219,808.6753499846754 4288.476126460116,813.1090673361175 4284.17704234778,821.4563281606411 4286.404610485701,822.2121102074364 4284.590121604124,830.8959541297228 4283.026540122697,838.3650390537191 4269.199094497324,855.956095681353 4280.055429323353,860.7478150549613 4272.785234411671,865.6864070530483 4273.473699838915,865.5640131993162 4272.289539304058,876.056226310493 4270.891189525168,888.4486040008599 4268.782955394634,924.9892890325531 4278.299077522298,933.801646501258 L 4282.64711917613,936.7513383761998 C 4265.784305978199,960.1591629024478 4269.850841768447,962.7355535235064 4271.16963554241,988.8727609879784 4271.695929113458,999.2609393234833 4268.431073065155,1000.931615426925 4268.375995830975,1010.869996349965 4268.290320133363,1025.493002024598 4271.937656974578,1039.497918737883 4271.426662635247,1055.048057854536 4270.903428910542,1071.023515612907 4267.99963473075,1084.168615503726 4269.967115929493,1099.795250778961 4272.522087626148,1120.094271420415 4287.129794069063,1147.981710993256 4293.934892336565,1169.48631109397 4302.517761329521,1196.599609541955 4308.346768613509,1213.621534749735 4312.578536106293,1243.739602306841 4314.233912978019,1255.513891035861 4321.2073027944,1272.750005487672 4319.986424103423,1281.984621751752 4317.419213021395,1301.39628695365 4304.889142245579,1296.329181409145 4318.952196039387,1315.802043537909 4331.375172193187,1333.004499679943 4324.89747748442,1370.805841405077 4338.578050485317,1399.807065046878 4343.271854775939,1409.75768535529 4336.169951413139,1401.370646528304 4343.51358263706,1415.066518760917 L 4354.730979331598,1439.49021227314 C 4359.804204568791,1448.333168205278 4356.888171003626,1450.814703589695 4360.235642903197,1457.619801857195 4364.52248763016,1466.331184396571 4379.1883311536,1481.391748098295 4387.336701965808,1500.130247104668 4391.745940546505,1510.264458193678 4392.070284258895,1505.748124990967 4399.96468782461,1511.503695962715 4398.422525267586,1512.599120953617 4401.075412047227,1511.265027947938 4396.556018998172,1513.437518851681 4394.717051345849,1514.318754598552 4395.53403031951,1513.660887634741 4393.13205094002,1514.900125403778 4393.444155267035,1532.261693555665 4397.828915076986,1528.106422221462 4400.383886773642,1534.23223460075 4402.433983823652,1539.152467520777 4397.109851186311,1536.533239050912 4402.562497370071,1542.692709739975 4405.69578002561,1546.229892112831 4405.729438335386,1542.827342979081 4410.019342908693,1548.836881197323 4407.302199355844,1551.134825801141 4404.557517185902,1550.403522525093 4400.901000805659,1549.941485727254 4401.546628384096,1560.9049151753 4428.011239407301,1596.316516906315 4436.90315288093,1601.548854153359 4446.68242179412,1607.30748497145 4439.253114872585,1606.120264590249 4447.355587989645,1613.307843650662 4452.860251561242,1618.188298568226 4454.439132274385,1618.531001358676 4459.680649060459,1624.705771279456 4465.170013400341,1631.17122660285 4475.735662823756,1643.927726008069 4479.168810420939,1651.093886144079 L 4486.478783335083,1643.685998146948 C 4488.339169911811,1654.891155456114 4488.712471165694,1654.897275148801 4495.281961264759,1660.395819027711 4502.943816508383,1666.806197116926 4501.588304578302,1671.307231087921 4506.138296090789,1674.957627775478 4513.59208178307,1680.930447837601 4517.15374292667,1674.376256970251 4522.496234642074,1684.158585729782 4525.295994046193,1689.277708662124 4526.504633351796,1697.490336247542 4529.720531858604,1702.416688860256 4534.435755073632,1709.644045923131 4549.533036931476,1718.811345567659 4556.206561806214,1726.736347596807 4563.654227805806,1735.582363375289 4572.628757130706,1749.431227925066 4579.611326486117,1755.927281711893 4584.975237125923,1760.920950944159 4583.803315976439,1757.396007956677 4587.921869154522,1761.021925873488 L 4590.22899329737,1763.815565584921 C 4591.933327710588,1765.685131700678 4591.789514932454,1765.458703071273 4593.76923551657,1767.147738252775 4598.511997348685,1771.198974811305 4606.0178004288,1783.184392938012 4617.945081474986,1793.951992220087 L 4643.712047531917,1818.957056537537 C 4648.71183645687,1823.761015296519 4650.174443008969,1829.235080404684 4654.807050372724,1833.442369126722 L 4689.211962656795,1863.499239756961 C 4694.943054857796,1868.765235313781 4691.130486314043,1865.304549099508 4697.770352879006,1868.58776422587 4706.591889886741,1872.951105111416 4702.907834889408,1876.840169813751 4708.88065495153,1882.871126956396 4712.038416377816,1886.059486846115 4719.354508984646,1889.648686606807 4723.48224170176,1893.727461782426 4732.496549029123,1902.625494948744 4737.429021334522,1913.656241016341 4747.899815521296,1920.247150039811 4759.294683303746,1927.419429868506 4773.978885905245,1943.942600122328 4790.193011678395,1956.004514407619 4809.047784845812,1970.030850045308 4814.405575792929,1990.311511608702 4849.529551967675,1998.447643035538 L 4910.986565772864,2013.53268550801 C 4923.63903040241,2017.085167112581 4924.740575085998,2014.150774469356 4936.016108861061,2015.298216848094 4941.349421037433,2019.0863066211 4940.34579143683,2020.971171968573 4945.379238671561,2024.716423892772 4948.561478868592,2027.084744962488 4954.160997676833,2028.935952000184 4957.796095132674,2031.105383057583 4968.735045809972,2037.6289754615 4978.872316745327,2034.266204330213 4987.296073728432,2038.86209353785 4991.625756304202,2041.224294914878 4993.033285622121,2045.156197466019 4996.68674215602,2048.139547650738 5002.148567878813,2052.597743772926 5003.516319194268,2050.99744413538 5009.746166349227,2053.803323232186 5019.302066479353,2058.10852703721 5012.460250055734,2063.298026435447 5033.303923346297,2069.21576926339 5059.370754344872,2076.614477721492 5073.381790750845,2074.735732066705 5101.085639543088,2073.597469226996 5124.13546204717,2072.651976706917 5136.022965090892,2076.452305865295 5142.157957009208,2065.727544432028 5144.281490371457,2062.009831124918 5137.026594691494,2066.400710627553 5143.923488349292,2063.530574757538 5151.94028576874,2060.195342243341 5148.29600877387,2070.70897427892 5147.785014434537,2074.683714678868 5158.641349260567,2076.6787344947 5190.534127696788,2076.326852165221 5200.977383266472,2073.560751070876 5225.046134602873,2067.184031291439 5251.369992694287,2069.218829109734 5274.30966073001,2058.68377814975 5292.561644167795,2050.30285901545 5290.655359895918,2059.901596994383 5317.649324336515,2042.497190993691 5327.847792198735,2035.921581201938 5330.953536237186,2037.63815500053 5343.77123256927,2037.445384680902 5346.056937787717,2028.599368902421 5355.872924857025,2020.077696836329 5367.016885239325,2020.469357168271 5369.70343032874,2024.869416209938 5368.075592074106,2027.895604243462 5370.410254834045,2031.897883260498 5381.590933372463,2017.440109288404 5374.645082173173,2021.714714629995 5375.804763937283,2007.253880811557 5386.670278302343,2001.877730786379 5396.960541554863,1995.24092406776 5407.073333719469,1989.390497859369 5414.918779743691,1984.846626039568 5417.26262204266,1988.383808412423 5422.146136806567,1980.709713783426 5425.264120230391,1975.810899787802 5428.596292898245,1968.895647051944 5431.206341829079,1964.311997229679 5439.945262985545,1948.972987510714 5448.356780583279,1949.0709025937 5455.213896238615,1939.059085358421 5459.356928187444,1933.009769137716 5459.154978328785,1929.077866586575 5464.577026049113,1922.979592824377 5476.541025251419,1909.519328760199 5464.528068507622,1898.91390133432 5481.176692461518,1864.876170611447 5498.835065708705,1828.782223145875 5468.004053953611,1836.520574548082 5462.661562238207,1817.944247397905 5459.222294948338,1805.9802481956 5473.765744618044,1793.523613732024 5458.402256128333,1781.406622212555 5449.767369747541,1774.598464098712 5449.819387135376,1781.00272249524 5438.283766421133,1779.956255045831 5429.560144496384,1775.433802150433 5425.199863457181,1764.115430526565 5420.144997298049,1757.500042732349 5412.122080185916,1756.279164041372 5408.003527007833,1757.625496432425 5401.320822594065,1756.909492388092 L 5391.431399212518,1749.97282072783 C 5391.272287202667,1749.724973174023 5391.039738880574,1749.168081139542 5390.770472402366,1748.810079117376 5358.354460241442,1751.869925460676 5368.265302547391,1737.571263498434 5359.018446897935,1733.452710320352 5345.267497431145,1732.491918568556 5335.111867417732,1732.109437775642 5322.884721429903,1728.792564339505 5306.994939369144,1724.481240841795 5305.281425416896,1719.098971123929 5292.353574616451,1728.91801803958 5278.81681439369,1722.167997006259 5269.511821663714,1727.41563348502 5255.314134630801,1725.132988112918 5238.527817591454,1722.42808394544 5235.330278162706,1724.123238819629 5219.917832131502,1729.303558678836 5216.411248222079,1754.091373905913 5204.419710402685,1748.130793229164 5201.993252252447,1737.412151488582 5201.86473870603,1736.843020068728 5201.546514686326,1735.040770572524 5201.436360217966,1734.551195157596 L 5200.726475866322,1731.867709914522 C 5183.468942490108,1732.039061309747 5165.841167706354,1735.716996614394 5161.875606845436,1718.526779857732 5165.718773852621,1713.465794005913 5167.517963502483,1713.113911676433 5173.96811959416,1710.436546126046 L 5185.258952600936,1706.718832818936 C 5188.805314512823,1705.445936740123 5187.532418434009,1706.210898325948 5189.196974844765,1704.950241632508 5182.60912566764,1699.962692092929 5183.098701082567,1702.649237182346 5175.207357363196,1703.493754773097 5168.093214615022,1704.255656512579 5164.051157595523,1702.820588577571 5156.75342406675,1703.613088780486 5152.959214601059,1708.891323722679 5150.321627053132,1716.238014792943 5146.426442658113,1721.78857605969 5129.744160394438,1723.942707885374 5129.205627438017,1714.071643581886 5123.704023712763,1704.059826346608 5120.056686871549,1697.416899935303 5106.942185444164,1691.82350081975 5097.447482240901,1689.727506074589 5095.278051183502,1703.031717975259 5098.625523083072,1705.014498405718 5085.789467672929,1708.609817859096 5062.299027295412,1715.191547343535 5057.984643951357,1704.2005792784 5043.881812155085,1690.409851809145 5035.950690433252,1682.653141328878 5029.525013112321,1686.150545699271 5020.373012699508,1681.762726042978 L 5000.725739329177,1670.77787767053 C 4994.569328486456,1667.353909612377 4987.822367299479,1661.852305887123 4981.788350310492,1657.488965001576 4957.679820971628,1640.04478099842 4934.80134986277,1619.635605888607 4914.753236621467,1598.960224146926 4906.259103172464,1590.199884066057 4893.762690706425,1570.525072078636 4885.699995591829,1565.194819748606 4870.593534194956,1555.204421437731 4875.045610624458,1550.657489771586 4865.538668035823,1539.559427084436 4861.022334833111,1534.28731183493 4859.21396564422,1535.300120974562 4855.750219583605,1532.335129867904 4850.777969275742,1528.081943450716 4853.831695926355,1528.498082553405 4850.722892041562,1522.243756627699 4847.770140320278,1516.307654721697 4846.524782858555,1517.638687881032 4842.029868580246,1513.838358722653 4836.571102703798,1509.224110436956 4833.691787294753,1501.819282286169 4827.419102290987,1495.84952207039 4812.964388165235,1496.296259636512 4813.79360652427,1496.446192107334 4803.18817909839,1484.840194927195 4796.67070638716,1477.707693100962 4791.600540996312,1471.159621926299 4785.817431407474,1463.179542662972 L 4768.318170170139,1441.68718194763 C 4762.103622246896,1432.366889985937 4765.025775504748,1420.996500974233 4752.679295509531,1416.088507439579 4751.941872540794,1426.51952362389 4753.214768619608,1432.067025044294 4752.960801373114,1440.659073576281 4741.532275280887,1448.776845925057 4737.964494444599,1439.49939181217 4726.511489581626,1427.458896451283 4718.035715210685,1418.548623899593 4711.977219450949,1411.232531292761 4702.678346413659,1402.126428575099 4672.976417959243,1373.048708774716 4674.705231143208,1369.970503353355 4672.563338702896,1333.67766587547 4668.989438173923,1337.239327019071 4671.431195555876,1335.516633527793 4669.72074144997,1338.484684480795 4665.53793149868,1345.745699853446 4671.70352188043,1341.330341580064 4664.522062512703,1344.062784364631 4659.060236789912,1340.397088445357 4662.658616089634,1343.505892330151 4660.054686851485,1336.10718387205 4657.07439651311,1327.643648886481 4650.339674711506,1321.490297890104 4649.932715147848,1311.949696991694 4606.409460760743,1233.039319644319 4562.081466785351,1091.649939813095 4583.365757949348,939.2848911484524 4585.140468828461,919.0072894314009 4584.265352774277,927.3361911778642 4596.535336610912,922.7127633531376 4602.492857441317,904.3720443713951 4604.769383120734,837.6123168532672 4606.874557404925,827.943202408438 4611.699935088308,805.8082739610028 4634.560047119106,757.2270935684227 4634.835433290003,750.8993313304775 4646.872868804547,739.3881893869813 4640.012693302867,730.147453430214 4671.097672304455,705.2892617372419 4681.048292612868,697.3306013983172 4683.970445870721,696.1097227073407 4691.558864802106,685.0391986372796 4697.715275644826,676.0585496196932 4702.57737148433,669.8684804671966 4708.418618153691,661.2029956229698 4714.550550225665,652.0999527516509 4721.349528800478,647.6142180123727 4728.292320153426,640.3348435616612 4748.025269221371,619.6472224346071 4738.769234032887,623.7259976102265 4759.052955442626,609.9566890653748 4763.853854355264,606.6979527097601 4769.058652985218,604.8804039818396 4772.146037945609,602.8088880074253 L 4791.294556361983,580.3679749256601 4829.313147177489,547.8846461451832 4932.622739266341,476.4341741827759 C 4940.244816507502,471.9147811337212 4949.084712593296,468.4969327682547 4955.531808838631,463.8796246362144 L 4956.333488580576,460.9207532222429 C 4956.452822587964,460.5321527366438 4956.945457849235,458.6656464672305 4957.132108476176,458.1852505913324 4959.231163067682,452.7632028710041 4960.663171156345,452.4205000805545 4971.608241526331,447.3778733067954 4979.563842018912,443.7152372338649 4986.338341822979,440.6706901222809 4994.924270662279,436.9376775834545 5008.442671806981,431.0597127579744 5034.833846517947,426.3506092356351 5043.753298608668,419.0926537093266 Z M 5427.133686346146,350.6683697804448 C 5435.450348707237,349.2118829210338 5432.610811300653,347.4279925028897 5441.120243981371,345.1881849795938 5445.593739335276,344.0101441374232 5451.991878039119,343.4563119492858 5457.747449010867,342.7617268293566 L 5458.888771696917,337.2999011065654 C 5436.570252468884,315.7616426960739 5431.43889015117,333.7780179654266 5417.899070082065,327.2819641785999 5400.442646693536,318.9071647369867 5386.489747368086,325.623527460531 5371.129318724719,320.9909200967742 5365.009626038116,319.1458327517642 5354.309343375596,308.3476350062571 5329.5766053827,316.8448283016023 5314.938300476351,321.8752156899881 5297.087156909536,316.1380037962999 5278.862712088838,316.3277142695845 L 5283.596294381924,332.9396200673623 C 5289.755765070988,332.2480947937764 5312.588338484696,327.854155444797 5317.667683414574,330.5039823780952 5313.677643782911,337.5416289676861 5304.409369209053,334.8397846465518 5292.166923989509,335.136589741852 5281.090280226761,335.4089160664057 5284.872250307081,335.6231053104367 5283.871680552821,336.8225650770105 5275.643753735687,351.8953681641082 5309.806938158635,347.1954441807989 5319.31388074727,345.6563414701188 5354.162470751119,340.0170446594161 5350.120413731619,334.8091861831188 5357.008127850387,348.7804445866285 5366.123410107079,349.6157826383495 5369.519839548142,348.8018635110316 5377.594774048113,347.7706952933394 5387.655548824885,346.4855598291532 5400.754751020553,353.8965076726268 5418.388645496994,351.9718643226908 5428.90839722526,350.8244219439531 5420.799804415513,347.146486639306 5427.133686346145,350.6653099341015 Z M 4777.17336548765,1561.299635353587 C 4773.146607699866,1559.093486140067 4775.178345671818,1555.210541130419 4770.603875388585,1549.663039710015 4755.494354145366,1531.349859345363 4764.891142265642,1550.82578132047 4756.819267612017,1521.151391483142 4754.668195632675,1513.244748532054 4751.651187138181,1512.143203848466 4750.922943708476,1504.720016619619 L 4761.292762965921,1498.000594049732 C 4759.649625479569,1489.123979807817 4759.441555928225,1498.832872255109 4754.582519935062,1479.442625977615 4752.774150746173,1472.224448453769 4748.123184304356,1469.409389817933 4739.653529626099,1469.68477598883 4730.786094923217,1482.153649837779 4733.790864032337,1489.843043698493 4723.580156784743,1493.025283895525 4722.175687313168,1489.983796630285 4720.235744731517,1485.354249112871 4718.944489574643,1480.534991122173 4716.257944485226,1470.510934501521 4718.825155567255,1478.215627593951 4722.301141013244,1469.571561674128 4695.224560721379,1466.043558840303 4702.721184262465,1478.729681779626 4712.102673151024,1491.085341313873 4719.140319740615,1500.356675734073 4724.941788407512,1510.175722649725 4731.551056509041,1517.448977407749 4738.720276491394,1525.340321127121 4768.725129733797,1561.116044572989 4777.176425333994,1561.299635353587 Z M 5763.407739628515,1881.420759789675 C 5763.621928872546,1873.079618657837 5763.725963648218,1877.672448019131 5765.935172708082,1875.004262007773 L 5770.537181608406,1871.23759115917 C 5764.044187667921,1867.48315969594 5749.828141556949,1884.777411228274 5745.489279442148,1888.28705498404 5739.002405194351,1893.528571770113 5723.189119292175,1903.473072385839 5711.913585517113,1898.387607763274 5715.172321872729,1895.1105123296 5727.460664787422,1892.069025064359 5732.258503853718,1890.300433877931 5729.663754154599,1888.427807915831 5732.451274173346,1889.403898899344 5728.155249907353,1888.638937313519 5725.627816827784,1888.189139901054 5724.663965229647,1888.299294369413 5722.060035991497,1888.541022230533 5679.225247031636,1892.54330124757 5697.673060635393,1908.439203001016 5663.993331934685,1923.811871029757 5673.145332347497,1929.475646611206 5694.402084894405,1915.666560063891 5700.613572971305,1911.312398717375 5712.338904158832,1903.099771131956 5729.336350595865,1904.244153664351 5744.632522466024,1908.124038827656 5737.698910652105,1914.672110002318 5737.545918334941,1910.23227295819 5731.144719784756,1913.659300862686 5743.237232533479,1923.909786112743 5753.105236990623,1917.97368420674 5760.812989929397,1908.570776393778 5756.878027531913,1906.009685004436 5753.99259243018,1910.088460180055 5745.942136700958,1903.041634051434 5748.827571802689,1897.133070762521 5810.309064378623,1867.743246635121 5817.964799929563,1861.64191302658 5791.732737228448,1859.876381686495 5800.306426682375,1867.951316186465 5788.825883202312,1870.613382505136 5773.315522088122,1874.205642112171 5773.401197785735,1886.959081671047 5763.404679782172,1881.423819636017 Z M 5699.946526468464,1759.537900396989 5698.257491286964,1768.472651719426 C 5703.997763026995,1769.785325800702 5702.425002006539,1768.71743942689 5704.19665303931,1768.784756046443 5710.007301245236,1769.005064983161 5706.809761816487,1767.787246138527 5709.432050132696,1769.427323778536 5705.44813019372,1777.092238868504 5707.262619075297,1764.253123612016 5698.508398687115,1774.993184276999 5690.396746031025,1784.940744739069 5694.55507721157,1777.716447522537 5686.581117640929,1783.609711579733 5684.469823664051,1785.170233214817 5683.255064665762,1786.727695003556 5682.783848328894,1790.020089668948 L 5683.227526048673,1795.885815109055 C 5684.69013260077,1802.262534888492 5685.657044045253,1803.985228379771 5694.512239362765,1808.305731416511 5698.428842682188,1803.758799750366 5699.340676892493,1802.886743542526 5695.723938514712,1798.275555103172 5696.146197310086,1798.046066627425 5696.862201354419,1797.366780739212 5697.061091366734,1797.737022146751 5697.064151213076,1797.743141839438 5701.048071152054,1797.268865656226 5702.896218343405,1793.187030634263 L 5694.674411218958,1792.048767794556 C 5710.925255148227,1787.376382428336 5711.916645363457,1790.858487567012 5728.745800251608,1781.629990995618 5738.775976564947,1776.128387270364 5747.603633265369,1769.259032229655 5757.018780463705,1763.980797287461 5749.378344144482,1760.119271202216 5752.251539860842,1766.91824977703 5748.359415312163,1759.250274840719 5750.302417740161,1755.400988140847 5749.662909854409,1757.414367034738 5751.911896916734,1755.296953365174 5753.154194532115,1754.131151908377 5752.355574636514,1756.196548190105 5755.381762670039,1752.377859953666 L 5737.047163380982,1760.737360163562 C 5734.412635679401,1755.688613697117 5729.519941376463,1749.559741471486 5739.819384168013,1749.348612073799 5749.317147217618,1749.155841754171 5751.896597685019,1752.797058902698 5754.289397525481,1741.362413117785 L 5722.907613428591,1751.71387329717 C 5715.946462997582,1754.75536056241 5722.216088155006,1750.150291815743 5716.576791344304,1755.762050009356 5704.162994729534,1768.11464969726 5708.269308522242,1763.956318516714 5699.949586314808,1759.537900396989 Z" fill="url(#a)" id="path9" style="fill:url(#a);stroke-width:0.305985" />
<path d="M 3692.803709577438,892.2246958424307 H 3908.302567843398 C 3934.862034103245,892.2246958424307 4113.330631922584,888.4978029962908 4122.084852310767,894.4675632120701 4126.85209291363,899.5928058370981 4125.068202495484,910.6021329802928 4125.059022956455,919.9866817151951 4125.046783571081,935.8060873100585 4127.730268814157,993.334258410449 4122.103211388826,998.1259777840572 4113.159280527361,1002.636191294082 3737.875246214252,1000.004723438844 3692.803709577438,1000.004723438844 V 1324.776814316748 L 3801.100851205868,1324.694198465478 3801.106970898555,1108.549712621082 4000.223411842485,1108.274326450185 4125.254853122426,1324.694198465478 4249.88239468505,1324.80741278018 C 4242.912064715013,1305.398807424626 4130.606524376858,1122.092592536529 4127.060162464973,1108.39060061123 4166.513821215488,1107.194200691 4191.292456903534,1089.557246368216 4208.681563672512,1069.343901424374 4232.520826533164,1041.627813246759 4233.753944609516,1016.038318277738 4233.753944609516,972.5915600492153 4233.753944609516,902.3986849339045 4246.914343732049,828.8430386873064 4170.653793317975,793.3610604903947 4140.569384070645,779.3622634697957 4096.372963488013,783.4655174161612 4059.324343963332,783.4655174161612 H 3692.806769423781 V 892.2277556887735 Z M 5012.267589889091,891.5760084176512 5385.559664232707,892.2399950741474 C 5381.034151490965,899.458172597993 5341.559073816049,931.5804395099602 5331.828762444352,940.2245054297841 5323.414185000277,947.6966502001237 5314.448835214407,955.6094128438983 5305.397809730923,962.9469243751328 L 5170.406568603541,1079.147649108309 C 5126.623227277254,1114.678584846713 5079.68824421737,1159.364580844272 5036.373059381609,1194.534454714166 5031.462006000612,1198.521434499487 5027.606599608056,1202.431918126225 5022.615990222131,1206.22918743826 5017.123566035907,1210.411997389552 5012.839781155286,1212.16222949792 5012.270649735432,1221.889481023272 5010.434741929452,1253.408958205609 5012.405282974537,1291.917124436045 5012.389983742821,1324.24134120667 L 5552.921019825866,1324.394333523835 5552.939378903924,1216.565348385929 5179.521850860232,1216.216525902793 C 5183.325239864954,1209.763309964772 5223.087943096144,1177.307519801385 5231.796265789175,1169.38557761858 5240.467870326088,1161.494233899208 5248.986482545838,1154.679956092678 5258.309834353874,1146.702936675694 5267.272124293402,1139.038021585727 5276.323149776882,1130.556127522098 5285.680159894695,1123.151299371311 L 5325.935498387156,1088.755566626272 C 5372.659352049352,1047.677129467464 5432.898547009906,999.10206876757 5475.353915023199,959.8625992610856 L 5529.097056196928,913.5059271600849 C 5541.345621109159,903.5185886955521 5552.541598879295,896.8603630525308 5553.074012143029,886.196798546129 5554.524379309756,856.892650116341 5554.184736365647,813.513208507371 5552.706830581833,784.0897260701947 5509.431423748536,782.1681425666022 5462.202695439696,783.8694171334773 5418.49279042565,783.8694171334773 5357.981269140542,783.8694171334773 5023.999040769303,781.2318295855524 5012.328786815955,785.1208942878874 L 5012.267589889091,891.5729485713076 Z M 6949.046290422564,1324.394333523835 V 783.6460483504163 L 6841.633444387346,783.6613475821332 6840.752208640476,1156.561761593808 C 6831.612447613038,1151.699665754304 6666.530677545639,955.9368164026316 6653.009216554593,941.1546987181474 6616.731678308426,901.4899105699445 6572.097699698701,843.6955328376865 6536.869688748284,806.1634575907643 6532.82457188244,801.8551939393968 6529.164995655853,797.6326059856427 6524.966886472848,792.5991587509134 6520.291441260284,786.9874005573007 6520.291441260284,783.5970908089238 6509.698253219778,783.5144749576547 6477.683080929826,783.2758069428771 6440.502888012382,782.1773221056321 6408.958932059299,783.8143398992979 L 6408.086875851458,1323.626312091667 6516.769558119144,1324.412692601895 6516.797096736236,951.1022591802167 C 6524.064231801574,955.8266619342729 6763.87050941871,1236.588982856487 6798.973066669052,1277.082989363724 L 6840.449283852491,1324.094468582192 6949.046290422564,1324.400453216521 Z M 5703.789803628635,1324.372914599432 6244.320839711677,1324.83495139727 6244.253523092124,1216.293022061376 6047.383009364179,1216.372578066302 5812.88862499901,1216.207346363763 5812.224638342514,1108.650687550411 6045.476725092303,1108.476276308843 6244.522789570336,1107.754152571824 6244.36061771414,1000.05674082668 6035.41595031553,1000.270930070711 5703.777564243261,999.9955438998139 5703.78674378229,1324.366794906746 Z M 4648.80986169284,1324.492248606821 4668.096073194661,1324.155665509058 C 4668.457135063171,1222.002695337974 4668.689683385261,1240.113925843969 4668.047115653168,1125.296251657965 4667.915542260407,1101.475347875372 4673.778207854171,1099.517046215659 4695.344004881751,1070.7024732008 4708.170880752866,1053.564273831974 4899.276643970037,791.1396120451591 4901.681683195871,783.9091951359404 L 4768.143869081553,783.8816565188507 4614.187700318396,996.5562766099441 C 4609.080816771426,991.137288735959 4584.598986178681,958.0572899185389 4582.239844647995,951.827442763579 4574.198568457803,944.7622575568987 4558.480137792268,919.8122704736272 4551.16710503178,910.0574803311857 4540.494360986348,895.8230751421522 4530.926221470847,882.9411220368579 4521.10105486251,868.8566493186456 4513.402481462768,857.8259032510479 4463.426011137641,790.8978841840385 4461.945045507483,784.4691470167645 L 4327.137395160699,783.8724769798209 C 4329.340484527875,790.952961418218 4471.66617734015,987.2696429580279 4487.947619732851,1008.927235375908 4502.130007534047,1027.794247928698 4515.057858334493,1046.685739252235 4528.55484055479,1065.017278694947 4535.861753622592,1074.94036038627 4541.427614121054,1083.021414578927 4548.434662247213,1092.64769117495 4560.325225137277,1108.987270648175 4559.948864037051,1104.694306228524 4559.884607263842,1130.387835973217 4559.728555100335,1192.900496766844 4557.127685708529,1262.114221052299 4559.924385266305,1323.843561182041 L 4648.806801846495,1324.489188760477 Z M 5703.909137636022,783.8112800529551 5703.569494691916,892.2614139985508 6017.439353048641,892.4144063157157 6244.461592643468,891.7626590445926 6243.659912901523,783.0830366232494 5703.909137636022,783.8051603602685 Z" fill="#121210" id="path11" style="stroke-width:0.305985" />
</svg>
