<?xml version="1.0" encoding="UTF-8" standalone="no"?>
<svg xmlns:dc="http://purl.org/dc/elements/1.1/" xmlns:cc="http://creativecommons.org/ns#" xmlns:rdf="http://www.w3.org/1999/02/22-rdf-syntax-ns#" xmlns:svg="http://www.w3.org/2000/svg" xmlns="http://www.w3.org/2000/svg" width="2500" height="500" viewBox="0 0 200.777 40.15602409638555" version="1.1" id="svg4">
<metadata id="metadata10">
<rdf:RDF>
<cc:Work rdf:about="">
<dc:format>image/svg+xml</dc:format>
<dc:type rdf:resource="http://purl.org/dc/dcmitype/StillImage" />
<dc:title></dc:title>
</cc:Work>
</rdf:RDF>
</metadata>
<defs id="defs8" />
<path d="M 158.0083768059716,10.04430002552344 C 156.4395006406913,1.03561769331372 129.3715020103386,-1.775716446082169 97.54802709145332,3.764772605004455 84.18327101095644,6.092800936707797 72.11556749640733,9.52651342298957 62.71782686240469,13.38951180504582 64.16142280642809,13.42111920031703 65.23205148625116,13.75213483079373 65.88258914892412,14.40094845372463 66.39118087283364,14.91011485754817 66.64806279440151,15.60892563299899 66.64806279440151,16.4795657027424 V 17.37319296904669 H 63.52755086126176 V 16.58415744709442 C 63.52755086126176,15.92672362545319 63.13332044024263,15.51927556641155 62.43508434470584,15.51927556641155 61.84833615248932,15.51927556641155 61.48686248656945,15.78420300677572 61.37020246402297,16.30601236870774 A 1.511408173878002,1.511408173878002 0 0 0 61.38284542213146,16.92896539550765 C 61.71673445217827,18.29383019131003 66.35037859893809,19.14148306449255 66.85437288353543,21.66030512765122 66.92046107364797,21.98442459915966 67.01011114023539,22.67806325538428 66.86873988138596,23.67053546690036 66.57967588463289,25.70202896296832 64.79472007168037,26.4858923656944 62.52243569163718,26.4858923656944 59.35077724614947,26.4858923656944 58.06234487891203,24.98367907044076 58.06234487891203,22.91253266030527 L 58.06464359856811,21.93270340689767 H 61.40985537809049 L 61.41157941783257,23.15332354428052 C 61.41157941783257,23.83949136162285 61.9104015832037,24.21820542496339 62.58967324157777,24.21820542496339 63.23331474528247,24.21820542496339 63.60915540905289,23.95902478373944 63.73903306962187,23.4291699030111 63.79937446059419,23.18550561946575 63.8258097366392,22.82633067320197 63.71604587306099,22.55163367429943 63.09711560565924,20.99884854661184 58.77035053298719,20.27360249511601 58.23762225268876,17.76282595075365 58.1186635104862,17.198490275184 58.10889395194782,16.71805786706156 58.20773889715961,16.11062119794025 A 3.221655598007635,3.221655598007635 0 0 1 58.48473461571824,15.24227984785293 C 48.0606156552722,20.11728955850201 41.9626870875842,25.48135187598385 42.76838832704311,30.11269730308759 44.33898853206538,39.12252899512537 71.40641248250412,41.93098973495114 103.2293127214754,36.39050068386453 117.2181711886002,33.95558188815307 129.7944664270588,30.31038719351118 139.3657603950962,26.22556236464242 139.2272625358168,26.23245852361068 139.0927874359357,26.24740020137525 138.9491174574302,26.24740020137525 136.7710805832866,26.24740020137525 134.8263637542359,25.43135472346394 134.6246511044142,23.2050447365425 134.5890209497449,22.79989539715695 134.5826994706906,22.63036482252044 134.5815501108625,22.39934349708358 L 134.5826994706906,17.28124418280317 C 134.5826994706906,17.0605670958187 134.6085600668216,16.67323283376784 134.6332713031245,16.47324422368816 134.8913025845204,14.32164262558959 136.5923551300257,13.43433683833954 138.9502668172582,13.43433683833954 140.7748755442782,13.43433683833954 143.0121044495661,13.95787024001363 143.2580674527675,16.47496826343023 143.2908242078668,16.79104221614235 143.2873761283826,17.1283793256733 143.2868014484686,17.23929254907956 V 17.7225983567721 H 140.1352567999717 V 17.00137506467442 C 140.1352567999717,16.98585870699583 140.1306593606595,16.71633382731949 140.0961785658182,16.54795261251103 140.0444573735562,16.29107069094317 139.8255043263138,15.69570230001632 138.9278543006113,15.69570230001632 138.0411231932753,15.69570230001632 137.8112512276665,16.29222005077121 137.7537832362643,16.54852729242505 137.721026481165,16.68932387136045 137.7055101234865,16.89161120109621 137.7055101234865,17.11573636756481 V 22.67806325538428 C 137.7026367239163,22.87115570649568 137.7124062824547,23.02229652388349 137.7319453995314,23.13320974728974 137.74746175721,23.2205610942211 137.9066480933942,23.98718409952651 138.9387732189778,23.98718409952651 139.9634275056791,23.98718409952651 140.1220391619492,23.2205610942211 140.1364061597997,23.13320974728974 140.1634161157587,22.98264360981597 140.1668641952429,22.80334347664109 140.1657148354148,22.67806325538428 V 20.95459819323213 H 138.9255555809553 V 19.0983820709409 H 143.3109380048575 V 22.40049285691163 C 143.3097886450295,22.62519270329425 143.3063405655453,22.79127519844662 143.2684116912199,23.2050447365425 143.2155411391299,23.7889195291889 143.0316435666428,24.28314425524787 142.7431542498037,24.70553399205408 152.8937255711753,19.88569355315111 158.8037338069781,14.60840790268659 158.0083768059716,10.04430002552344 Z M 75.49123731137288,26.01063207679817 73.89477651021961,15.16297401971788 H 73.83730851881739 L 72.20004544376857,26.01063207679817 H 68.83529454716942 L 71.0983840485883,13.76018034959004 H 76.58830126724096 L 78.8375984507233,26.01063207679817 Z M 91.67537305006196,26.01063207679817 91.6012393411531,15.37273218833593 H 91.54721942923504 L 89.56744712542908,26.01063207679817 H 86.40958099787789 L 84.43957825261027,15.37273218833593 H 84.38325962103613 L 84.31142463178338,26.01063207679817 H 81.18229249993328 L 81.45354141935169,13.76018034959004 H 86.48658810635683 L 87.95202188711309,22.86023678812927 H 88.02385687636584 L 89.49331341652022,13.76018034959004 H 94.52406138386929 L 94.79416094345964,26.01063207679817 Z M 106.4107407255015,23.63662935197306 C 106.0739782958845,26.00948271697013 103.7493980436653,26.42440161489404 102.1063881694763,26.42440161489404 99.37838261761359,26.42440161489404 97.69112239004482,25.2583760693433 97.69112239004482,22.88552270434624 L 97.69284642978689,21.9177617291331 H 100.9978306153277 L 101.0001293349838,23.12344018875137 C 101.0001293349838,23.77800061082249 101.4615973059435,24.17855251089586 102.1742003993309,24.17855251089586 102.8097963842393,24.17855251089586 103.1821889685256,23.92339462907007 103.3114919491805,23.39928654748195 103.3712586602388,23.15504758402258 103.3959698965418,22.79874603732891 103.2902287923617,22.52979583756658 102.6810680834983,21.00631938549412 98.38820912575359,20.25981017717947 97.86639976382156,17.78811186697062 97.74686634170494,17.22779895079912 97.73824614299464,16.75196398198886 97.83651640829241,16.15084879192179 98.19971411395434,13.9101718071498 100.3501663522249,13.44468107679193 102.0811022532593,13.44468107679193 103.6292899416347,13.44468107679193 104.756237253032,13.7825928662369 105.4320608319219,14.45841644512684 105.9360551165192,14.9629854096382 106.191212998345,15.65547470603478 106.191212998345,16.51691989715384 V 17.40077760491975 H 103.1005844207344 V 16.62093696159183 C 103.1005844207344,15.9531589014982 102.6862402027245,15.56697399927538 102.020186182373,15.56697399927538 101.4294152307583,15.56697399927538 101.0719643242366,15.82960271998346 100.9547296217761,16.34623996268929 A 1.48842097731712,1.48842097731712 0 0 0 100.9696712995407,16.96229683052093 C 101.3006869300174,18.32084014726906 105.8935288028816,19.15125262303093 106.3963737276509,21.64651280971469 106.4613125579354,21.96488548208291 106.5503879446088,22.64817989985513 106.4107407255015,23.63662935197306 Z M 117.8572152529927,22.52347435851235 C 117.8618126923049,22.75334632412116 117.8394001756581,23.21251557542478 117.8267572175496,23.33032495779931 117.6382622057503,25.34860081584477 116.1946662617269,26.37440446237413 113.5471158978273,26.37440446237413 110.8892212954753,26.37440446237413 109.4444759916239,25.34860081584477 109.2571303396527,23.33032495779931 A 9.744847302071969,9.744847302071971 0 0 1 109.2266723042095,22.52577307816844 V 13.75730695001993 H 112.3885611911589 V 22.80219411681304 C 112.3851131116747,23.0044814465488 112.3954573501271,23.15389822419454 112.4155711471179,23.25791528863253 112.4546493812714,23.45905325854025 112.6546379913511,24.1118896408693 113.5471158978273,24.1118896408693 114.4367204047335,24.1118896408693 114.6367090148131,23.45847857862623 114.6786606485368,23.26021400828861 114.6964757258714,23.15332354428051 114.7073946442379,22.99643592775249 114.7073946442379,22.80161943689902 V 13.75730695001993 H 117.8572152529927 Z M 131.4800026148855,25.88592653545538 H 127.0802531931327 L 124.1269731149733,16.182456187193 H 124.0775506423674 L 124.2413344178637,25.88592653545538 H 121.174842396642 V 13.76018034959004 H 125.759064070796 L 128.4887936624007,23.08148855502776 H 128.5525831328571 L 128.3910980770169,13.76018034959004 H 131.4800026148855 Z" fill="#2d4f9e" id="path2" style="stroke-width:0.57468" />
</svg>
