<?xml version="1.0" encoding="UTF-8" standalone="no"?>
<svg xmlns:dc="http://purl.org/dc/elements/1.1/" xmlns:cc="http://creativecommons.org/ns#" xmlns:rdf="http://www.w3.org/1999/02/22-rdf-syntax-ns#" xmlns:svg="http://www.w3.org/2000/svg" xmlns="http://www.w3.org/2000/svg" width="2500" height="500" viewBox="0 0 512 102.4" version="1.1" id="svg4">
<metadata id="metadata10">
<rdf:RDF>
<cc:Work rdf:about="">
<dc:format>image/svg+xml</dc:format>
<dc:type rdf:resource="http://purl.org/dc/dcmitype/StillImage" />
<dc:title></dc:title>
</cc:Work>
</rdf:RDF>
</metadata>
<defs id="defs8" />
<path fill="#cf649a" d="M 304.1459996456135,58.62368297668262 C 299.4809424995676,58.6500053661659 295.4413678758966,59.77040093436989 292.053337546366,61.43861494508721 290.8023725016162,58.96274662735334 289.5514074568665,56.79935895308924 289.3431739004592,55.18378972133848 289.1086179545686,53.30734215421384 288.8219384651468,52.16036357880892 289.1086179545686,49.91931182468327 289.3950368262728,47.67773883512231 290.6981254145537,44.4982026797167 290.6981254145537,44.23758496206051 290.6718030250705,44.00302901616992 290.4111853074143,42.85631105848265 287.727083433273,42.83024928671704 285.0429815591319,42.80418751495142 282.7232232542741,43.35148472202943 282.4626055366179,44.05515255970116 282.2019878189616,44.75882039737291 281.6807523836493,46.37465024684132 281.3419493506962,48.042603639841 280.8728374589151,50.49241018580925 275.9732243669786,59.17098018376063 273.1846147880572,63.73179024274409 272.2724527762605,61.95958976268196 271.4905996232919,60.39588345674477 271.3339683749806,59.14465779427735 271.0996730468077,57.2684708448704 270.8127329396682,56.12149226946548 271.0996730468077,53.88044051533983 271.3863525362294,51.63886752577888 272.6894411245104,48.4595919880909 272.6894411245104,48.19897427043472 272.6633793527449,47.96441832454413 272.4027616350886,46.81770036685687 269.7186597609475,46.79163859509124 267.034036651371,46.76557682332562 264.7147995819485,47.31287403040363 264.4541818642923,48.01654186807538 264.1935641466361,48.72020970574709 263.9068846572142,50.38816309874677 263.3335256783706,52.0039929482152 262.7859678535749,53.61982279768362 256.27052491217,68.11016789936823 254.5765097474047,71.8891248053831 253.7164712791393,73.81769591603895 252.9609405156539,75.35534045021051 252.4133826908583,76.39781132083531 251.8660854837802,77.44028219146009 252.3873209190927,76.47599663613218 252.3351973755614,76.58024372319465 251.8660854837802,77.46634396322572 251.605467766124,77.9615176267725 251.605467766124,77.9615176267725 V 77.98784001625578 C 251.2406029614054,78.63938431039628 250.8496763849211,79.26460621505349 250.6669833648441,79.26460621505349 250.536674506016,79.26460621505349 250.2760567883598,77.51846750675697 250.7191069083753,75.1210451220376 251.6833924637033,70.09086255355533 254.028951922609,62.24652986982143 254.0031507685611,61.95985038039961 254.0031507685611,61.82954152157151 254.445940270859,60.448007000276 252.4913073884375,59.74459978032193 250.5887980495472,59.04093194265019 249.9114526013588,60.21371167210309 249.7548213530474,60.21371167210309 249.5984507224537,60.21371167210309 249.4681418636256,60.63070002035299 249.4681418636256,60.63070002035299 249.4681418636256,60.63070002035299 251.5791453766408,51.79602000952555 245.4285672399545,51.79602000952555 241.5714250186428,51.79602000952555 236.2548235784564,55.99196526379034 233.6225846301288,59.82304571333645 231.9546312371291,60.73520772513313 228.4102302770048,62.66351821807134 224.6573351427556,64.72265880527295 223.2239376956465,65.50451195824156 221.7384167050061,66.33848865474139 220.3310810296627,67.09428003594437 L 220.0446621579585,66.7810175393216 C 212.5909954329912,58.83217715080758 198.8043181689784,53.20283444943371 199.377677147822,42.5175080255296 199.586171321947,38.63430403245225 200.9413834537592,28.39202772856367 225.8566978794094,15.98662436812867 246.2630651718897,5.822533379536952 262.6037960689333,8.611142958458268 265.4442685736682,14.81384463867578 269.4838431973392,23.6748470389865 256.7135750321855,40.1458867948582 235.4995534326887,42.5175080255296 227.4204041853465,43.42967003732629 223.1720747698329,40.30225742545192 222.1038027451601,39.12947769599903 220.9831465592385,37.9045744230149 220.8267759286447,37.85245087948366 220.4097875803948,38.08700682537424 219.7321815144887,38.45187163009291 220.1491698627386,39.54646604424894 220.4097875803948,40.19801033838944 221.0352701027697,41.83990195962348 223.6414472793317,44.75882039737291 228.0719484794871,46.2182796162476 231.9548918548468,47.49530643276299 241.44163739525,48.19897427043472 252.9088169721227,43.76847307027935 265.7572704525733,38.79067466304597 275.7910525823369,24.97793562726749 272.8460723728218,13.43257073509792 269.8489686197755,1.678711668803401 250.354763339092,-2.178430552508326 231.9290907007988,4.363074160662239 220.9568241697552,8.272339925505207 209.0726562446326,14.37079451866024 200.5243951055093,22.37175845070551 190.3603041169176,31.85824337339111 188.7444742674491,40.1458867948582 189.4220803333553,43.58604066792001 191.7939621817443,55.86113516952692 208.7077914399139,63.8620991015722 215.483852098975,69.77812129236788 215.145049066022,69.96029307700958 214.8323078048345,70.1427254793689 214.5456283154127,70.29935672768029 211.1575979858822,71.96704950296229 198.2570209619004,78.71730900797545 195.0253612629635,85.85797385403763 191.3767132157767,93.93712310137976 195.5987202418072,99.74915882283063 198.4133915924941,100.5310119757992 207.1180233622111,102.9547567500019 216.031149306053,98.60244086514337 220.8525770826927,91.43545362959793 225.6476824698491,84.26846639405249 225.0745841087231,74.96441387372622 222.8593335086454,70.7163450759302 L 222.7808875756309,70.55997444533647 225.4391882957241,68.99626813939929 C 227.1595258499727,67.97985904054011 228.853541014738,67.04163525697782 230.3388013876607,66.23345971452594 229.5050853088785,68.50083385813486 228.9054039405516,71.18519634999368 228.5929232970818,75.09446211483665 228.2280584923631,79.6815945633034 230.1045060594877,85.62341790814707 232.5803743772216,87.96897736705282 233.6749687913776,88.98512584819435 234.9780573796586,89.01144823767764 235.7859723043929,89.01144823767764 238.652767198611,89.01144823767764 239.955855786892,86.63956638928858 241.3892532340011,83.79909388455368 243.1614537140632,80.33287823972625 244.7251600200004,76.3193653878208 244.7251600200004,76.3193653878208 244.7251600200004,76.3193653878208 242.770527137579,87.18712421408424 248.113190349531,87.18712421408424 250.0678232319525,87.18712421408424 252.022456114374,84.65913235281912 252.9085563544051,83.35604376453815 V 83.38210553630376 C 252.9085563544051,83.38210553630376 252.9606798979363,83.3039202210069 253.0649269849988,83.12148781864756 A 9.416118138918426,9.416118138918426 0 0 0 253.3776682461862,82.62657477281842 V 82.5744512292872 C 254.1595213991548,81.21923909747496 255.9056601074513,78.11788825736621 258.5118372840133,72.98371921953912 261.8735452240606,66.3640291910717 265.1054655407151,58.0763857696046 265.1054655407151,58.0763857696046 265.1054655407151,58.0763857696046 265.4182068019025,60.10920396732295 266.3824923572305,63.44511075332228 266.9555907183565,65.42606602522702 268.2065557631062,67.58893246405582 269.1708413184341,69.69993597707104 268.3889881654656,70.79453039122707 267.9198762736844,71.4202735313196 267.9198762736844,71.4202735313196 L 267.94593804545,71.44633530308524 C 267.3207161407928,72.28031199958503 266.6167876854034,73.1666728573338 265.8873186936837,74.05251247964721 263.2290179735905,77.2320486350528 260.0494818181849,80.85489552819164 259.632493469935,81.89736639881643 259.1373198063882,83.1220090540829 259.2415668934507,84.0341710658796 260.2058524487786,84.76416129303459 260.9095202864503,85.285396728347 262.1604853312001,85.38938319769182 263.4896356912467,85.285396728347 265.8873186936837,85.12876548003562 267.5552720866834,84.52960534714402 268.3892487831832,84.1644799247077 269.6923373714642,83.69536803292653 271.1778583621045,82.9917001952548 272.6112558092136,81.94922932463002 275.2174329857756,80.02091883169181 276.8072010634784,77.28443279630172 276.6508304328847,73.63578474911496 276.5726451175878,71.62902832316224 275.9211008234473,69.64833366897514 275.1131858987131,67.77188610185049 275.3477418446037,67.43308306889746 275.5825584082119,67.09401941822675 275.8168537363848,66.72941523122572 279.9346136753528,60.70888533564989 283.1141498307584,54.08945592490012 283.1141498307584,54.08945592490012 283.1141498307584,54.08945592490012 283.4268910919458,56.12227412261846 284.3911766472737,59.4581809086178 284.8860896931029,61.15219607338309 285.8766976379141,63.00284248645974 286.7627978779451,64.82716651005311 282.9056556566334,67.98064089369307 280.4819108824307,71.62928894087986 279.6479341859309,74.02697194331688 278.1102896517594,78.45747314347222 279.3091311529779,80.46422956942495 281.5765052965868,80.93334146120612 282.5926537777283,81.14183563533109 284.0523736143207,80.6727237435499 285.1467074107591,80.20361185176876 286.5019195425713,79.76056173175322 288.1438111638053,79.00450973283261 289.6556545439289,77.88411416462859 292.2618317204909,75.95554305397278 294.7637618099904,73.27118056211394 294.6334529511623,69.64859428669277 294.5552676358655,67.98064089369307 294.1122175158499,66.33874927245904 293.5127967652407,64.77504296652186 296.7965800077087,63.41983083470963 301.0443881877871,62.63797768174103 306.4394355609881,63.28952197588152 318.0369239966888,64.64473410769376 320.3303599120634,71.88990665853604 319.8875704097655,74.91307218334797 319.44452028975,77.93649832587753 317.0207755155473,79.60419110115955 316.2125999730955,80.12542653647194 315.4046850483613,80.62060020001868 315.1440673307051,80.80329322009572 315.2222526460019,81.16789740709674 315.3264997330644,81.7154552318924 315.6913645377831,81.68913284240913 316.3950323754548,81.58514637306431 317.3593179307828,81.42851512475291 322.4934869686098,79.10927805533043 322.7019811427348,73.53231951520545 323.0147224039222,66.36428980878937 316.2125999730955,58.54575827910344 304.1459996456135,58.62368297668262 Z M 214.7019989460064,88.77715290950472 C 210.8709184964603,92.97309816376947 205.4761317409771,94.5628662414723 203.1826958256025,93.20765410966006 200.7068275078686,91.77425666255099 201.6708524454789,85.5976167540991 206.3882937527737,81.14105378217811 209.2550886469919,78.43062951855365 212.9819220094755,75.92869942905414 215.4317285554438,74.3910548948826 215.9790257625218,74.05225186192954 216.8130024590217,73.55733881610042 217.8033497861152,72.95765744777349 217.9597204167089,72.85367097842869 218.0639675037714,72.80128681717978 218.0639675037714,72.80128681717978 218.2463999061307,72.69703973011731 218.4548940802557,72.5667308712892 218.6633882543807,72.4364220124611 220.4095269626772,78.79549432327233 218.7415735696775,84.37271348111497 214.7019989460064,88.77715290950472 Z M 242.7184035940477,69.72599774883668 C 241.3892532340011,72.98371921953913 238.5745818833142,81.34954795630309 236.8805667185489,80.88043606452195 235.4208468819565,80.48950948803765 234.5350072596431,74.15649894899203 236.5936266114094,67.90167372524329 237.6360974820342,64.74793872388563 239.8513480821119,60.99530420735405 241.1544366703929,59.53558437076169 243.2657008011257,57.19002491185591 245.5588760987826,56.40817175888731 246.1324956953439,57.37245731421522 246.81010176125,58.62368297668262 243.5523802905476,67.69317955111831 242.7184035940477,69.72599774883668 Z M 265.8351951501525,80.77618897745945 C 265.2618361713088,81.06312908459892 264.7406007359964,81.27136264100622 264.5060447901058,81.11525262813016 264.3236123877465,81.01100554106767 264.7403401182788,80.62007896458337 264.7403401182788,80.62007896458337 264.7403401182788,80.62007896458337 267.6331967842626,77.51872812447464 268.7799147419498,76.08533067736554 269.4314590360903,75.25161459858338 270.2133121890589,74.28732904325543 271.0472888855587,73.19247401138171 V 73.50521527256918 C 271.0475495032764,77.25784978910076 267.4510249996209,79.75977987860026 265.8351951501525,80.77618897745945 Z M 283.6611864201187,76.71055258202275 C 283.2441980718688,76.39781132083531 283.2965822331177,75.43352576550739 284.7036572907435,72.41036024069549 285.2512151155392,71.21151873947695 286.5019195425713,69.20476231352425 288.6650465991177,67.30225297463401 288.9256643167739,68.0841061276026 289.0822955650853,68.83963689108792 289.0559731756021,69.5435653464773 289.0301720215541,74.23468426428885 285.6942652355547,75.9808229725854 283.6611864201187,76.71055258202275 Z" id="path2" style="stroke-width:0.260618" />
</svg>
