<?xml version="1.0" encoding="UTF-8" standalone="no"?>
<svg xmlns:dc="http://purl.org/dc/elements/1.1/" xmlns:cc="http://creativecommons.org/ns#" xmlns:rdf="http://www.w3.org/1999/02/22-rdf-syntax-ns#" xmlns:svg="http://www.w3.org/2000/svg" xmlns="http://www.w3.org/2000/svg" enable-background="new 0 0 2500 632.6" viewBox="0 0 2500 500.0000192966041" version="1.1" id="svg16" width="2500" height="500">
<metadata id="metadata22">
<rdf:RDF>
<cc:Work rdf:about="">
<dc:format>image/svg+xml</dc:format>
<dc:type rdf:resource="http://purl.org/dc/dcmitype/StillImage" />
<dc:title></dc:title>
</cc:Work>
</rdf:RDF>
</metadata>
<defs id="defs20" />
<g id="g854" transform="matrix(0.7192224259653094,0,0,0.7192224259653094,350.9719675433632,22.50994666717264)">
<path clip-rule="evenodd" d="M 799.7999999999999,498.1 831,425.6 C 864.7,450.8 909.6,463.9 953.8999999999997,463.9 986.6,463.9 1007.3,451.3 1007.3,432.2000000000001 1006.8,378.8000000000001 811.3999999999997,420.6 809.8999999999997,286.7000000000001 809.3999999999997,218.7000000000001 869.7999999999999,166.3 955.3999999999997,166.3 1006.3,166.3 1057.1,178.9 1093.4,207.6 L 1064.2,281.6 C 1031,260.4 989.7,245.3 950.3999999999997,245.3 923.7,245.3 906.1000000000001,257.9 906.1000000000001,274 906.6000000000001,326.4 1103.5,297.7 1105.5,425.6 1105.5,495.1 1046.6,544 962.0000000000002,544 900.0000000000002,543.8999999999997 843.1000000000002,529.2999999999999 799.7999999999999,498.1 M 1997.9,399.4 C 1982.3,426.6 1953.1,445.2000000000001 1919.3,445.2000000000001 1869.4,445.2000000000001 1829.2,404.9 1829.2,355.1 1829.2,305.3 1869.5,265 1919.3,265 1953,265 1982.3,283.6 1997.9,310.8 L 2084,263 C 2051.8,205.6 1989.8,166.3 1919.3,166.3 1815,166.3 1730.4,250.9 1730.4,355.2000000000001 1730.4,459.5000000000001 1815,544.1 1919.3,544.1 1990.3,544.1 2051.8,505.3 2084,447.4 Z M 1148.8,9.600000000000022 H 1256.6 V 536.8999999999997 H 1148.8 Z M 2126.3,9.600000000000022 V 536.8999999999997 H 2234.1 V 378.7 L 2362,536.8999999999997 H 2500 L 2337.300000000001,349 2487.900000000001,173.7 H 2355.900000000001 L 2234,319.2 V 9.599999999999964 Z" fill-rule="evenodd" id="path2" />
<path d="M 1576.9,400.4 C 1561.3,426.1 1529.1,445.2 1492.8,445.2 1442.9,445.2 1402.7,404.9 1402.7,355.1 1402.7,305.3000000000001 1443,265 1492.8,265 1529.1,265 1561.3,285.1 1576.9,311.3 Z M 1576.9,173.8 V 216.6 C 1559.3,186.9 1515.5,166.2 1469.6,166.2 1374.9,166.2 1300.4,249.8 1300.4,354.6 1300.4,459.4 1374.9,544 1469.6,544 1515.4,544 1559.2,523.3999999999997 1576.9,493.6 V 536.3999999999997 H 1684.7 V 173.8 Z" id="path4" />
<g clip-rule="evenodd" fill-rule="evenodd" id="g14">
<path d="M 133.5,399.9 C 133.5,436.7 103.8,466.4 67,466.4 30.2,466.4 0.5,436.6 0.5,399.9 0.5,363.2 30.2,333.4 67,333.4 H 133.5 Z M 166.7,399.9 C 166.7,363.1 196.4,333.4 233.2,333.4 270,333.4 299.7,363.1 299.7,399.9 V 566.0999999999999 C 299.7,602.8999999999997 270,632.5999999999999 233.2,632.5999999999999 196.4,632.5999999999999 166.7,602.8999999999997 166.7,566.0999999999999 Z" fill="#e01e5a" id="path6" />
<path d="M 233.2,133 C 196.4,133 166.7,103.3 166.7,66.5 166.7,29.7 196.4,0 233.2,0 270,0 299.7,29.7 299.7,66.5 V 133 Z M 233.2,166.7 C 270,166.7 299.7,196.4 299.7,233.2 299.7,270 270,299.7 233.2,299.7 H 66.5 C 29.7,299.7 0,269.9 0,233.2 0,196.5 29.7,166.7 66.5,166.7 Z" fill="#36c5f0" id="path8" />
<path d="M 499.6,233.2 C 499.6,196.4 529.2999999999999,166.7 566.1,166.7 602.8999999999997,166.7 632.6,196.4 632.6,233.2 632.6,270 602.8999999999997,299.7 566.1,299.7 H 499.6 Z M 466.4,233.2 C 466.4,270 436.7000000000001,299.7 399.9,299.7 363.1,299.7 333.4,270 333.4,233.2 V 66.5 C 333.4,29.7 363.1,0 399.9,0 436.7000000000001,0 466.4,29.7 466.4,66.5 Z" fill="#2eb67d" id="path10" />
<path d="M 399.9,499.6 C 436.7,499.6 466.4,529.2999999999999 466.4,566.1 466.4,602.8999999999997 436.7,632.6 399.9,632.6 363.1,632.6 333.4,602.8999999999997 333.4,566.1 V 499.6 Z M 399.9,466.4 C 363.1,466.4 333.4,436.7000000000001 333.4,399.9 333.4,363.1 363.1,333.4 399.9,333.4 H 566.5999999999999 C 603.3999999999997,333.4 633.0999999999999,363.1 633.0999999999999,399.9 633.0999999999999,436.7000000000001 603.3999999999997,466.4 566.5999999999999,466.4 Z" fill="#ecb22e" id="path12" />
</g>
</g>
</svg>
