<?xml version="1.0" encoding="UTF-8" standalone="no"?>
<svg xmlns:dc="http://purl.org/dc/elements/1.1/" xmlns:cc="http://creativecommons.org/ns#" xmlns:rdf="http://www.w3.org/1999/02/22-rdf-syntax-ns#" xmlns:svg="http://www.w3.org/2000/svg" xmlns="http://www.w3.org/2000/svg" enable-background="new 0 0 2498 483" viewBox="0 0 2500 500" version="1.1" id="svg4" width="2500" height="500">
<metadata id="metadata10">
<rdf:RDF>
<cc:Work rdf:about="">
<dc:format>image/svg+xml</dc:format>
<dc:type rdf:resource="http://purl.org/dc/dcmitype/StillImage" />
<dc:title></dc:title>
</cc:Work>
</rdf:RDF>
</metadata>
<defs id="defs8" />
<path d="M 1117.142934782609,481.4299168975069 1298.442934782609,181.2299168975069 C 1303.942934782609,172.2299168975069 1308.342934782609,162.629916897507 1311.842934782609,152.7299168975069 1313.842934782609,146.929916897507 1314.742934782609,140.629916897507 1314.642934782609,133.929916897507 H 1425.942934782609 C 1449.042934782609,133.929916897507 1434.142934782609,143.129916897507 1442.342934782609,147.2299168975069 1459.442934782609,134.129916897507 1472.042934782609,133.929916897507 1498.042934782609,133.929916897507 H 1589.642934782609 C 1662.342934782609,133.929916897507 1640.242934782609,183.7299168975069 1612.342934782609,229.7299168975069 L 1549.242934782609,333.9299168975069 C 1502.742934782609,410.7299168975069 1423.842934782609,395.7299168975069 1347.442934782609,395.7299168975069 1334.942934782609,395.7299168975069 1324.742934782609,396.2299168975069 1321.142934782609,391.2299168975069 1312.442934782609,379.329916897507 1300.242934782609,390.529916897507 1295.142934782609,401.629916897507 1284.142934782609,425.4299168975069 1259.742934782609,458.129916897507 1254.842934782609,472.329916897507 1252.842934782609,478.129916897507 1251.942934782609,484.529916897507 1251.942934782609,491.4299168975069 H 1120.242934782609 C 1114.442934782609,491.129916897507 1113.342934782609,487.629916897507 1117.142934782609,481.4299168975069 Z M 1475.542934782609,187.929916897507 H 1446.142934782609 C 1435.842934782609,187.929916897507 1428.142934782609,189.429916897507 1423.142934782609,192.429916897507 1418.042934782609,195.329916897507 1412.742934782609,201.629916897507 1406.842934782609,211.329916897507 L 1346.642934782609,311.029916897507 C 1341.442934782609,319.629916897507 1337.842934782609,326.629916897507 1335.942934782609,332.2299168975069 1332.142934782609,343.2299168975069 1338.242934782609,348.7299168975069 1354.442934782609,348.7299168975069 H 1384.942934782609 C 1395.642934782609,348.7299168975069 1403.442934782609,346.7299168975069 1408.542934782609,342.829916897507 1413.642934782609,338.9299168975069 1420.842934782609,329.329916897507 1429.942934782609,314.129916897507 L 1485.442934782609,222.529916897507 C 1487.142934782609,219.529916897507 1489.042934782609,216.529916897507 1490.942934782609,213.629916897507 1493.842934782609,209.029916897507 1495.842934782609,205.429916897507 1496.842934782609,202.629916897507 1498.742934782609,197.2299168975069 1498.042934782609,193.429916897507 1494.842934782609,191.329916897507 1491.542934782609,189.029916897507 1485.242934782609,187.929916897507 1475.542934782609,187.929916897507 Z M 1052.042934782609,274.329916897507 1014.342934782609,275.329916897507 C 1003.842934782609,275.629916897507 996.5429347826086,276.529916897507 992.3429347826083,279.029916897507 988.1429347826084,281.4299168975069 983.1429347826084,287.2299168975068 977.6429347826084,296.529916897507 L 968.2429347826084,312.329916897507 C 964.9429347826084,317.9299168975069 962.9429347826084,321.629916897507 962.3429347826083,323.329916897507 960.2429347826084,329.329916897507 960.7429347826084,333.329916897507 963.5429347826086,335.4299168975069 966.4429347826084,337.629916897507 972.8429347826083,338.7299168975069 982.3429347826083,338.7299168975069 H 1014.042934782609 C 1025.442934782609,338.7299168975069 1032.942934782609,337.829916897507 1036.642934782609,335.829916897507 1040.242934782609,333.9299168975069 1044.942934782609,328.7299168975069 1049.942934782609,319.829916897507 L 1066.142934782609,291.129916897507 C 1074.342934782609,277.129916897507 1067.642934782609,273.9299168975069 1052.042934782609,274.329916897507 Z M 960.2429347826085,134.929916897507 H 1200.942934782609 C 1212.342934782609,134.929916897507 1220.942934782609,136.029916897507 1226.942934782609,138.029916897507 1232.842934782609,140.2299168975069 1238.042934782609,143.929916897507 1242.642934782609,149.329916897507 1247.842934782609,155.629916897507 1251.042934782609,163.429916897507 1252.142934782609,172.929916897507 1253.242934782609,182.329916897507 1252.142934782609,191.929916897507 1249.042934782609,200.929916897507 1245.742934782609,210.429916897507 1239.742934782609,222.429916897507 1230.842934782609,237.029916897507 L 1162.142934782609,350.4299168975069 C 1156.742934782609,359.4299168975069 1152.242934782609,369.029916897507 1148.842934782609,378.9299168975069 1146.942934782609,384.529916897507 1145.842934782609,390.829916897507 1145.742934782609,397.7299168975069 H 1018.442934782609 C 1018.642934782609,391.329916897507 1019.842934782609,384.829916897507 1022.142934782609,378.029916897507 L 1024.342934782609,371.7299168975069 C 1015.942934782609,381.2299168975069 1007.242934782609,387.829916897507 997.9429347826089,391.7299168975069 988.7429347826088,395.629916897507 977.4429347826089,397.629916897507 964.1429347826089,397.629916897507 H 887.9429347826089 C 863.8429347826089,397.629916897507 847.0429347826088,392.2299168975069 837.5429347826088,381.329916897507 826.1429347826089,368.629916897507 823.8429347826089,352.629916897507 830.4429347826089,333.4299168975069 832.9429347826089,326.2299168975069 836.9429347826089,318.129916897507 842.5429347826088,309.129916897507 L 857.9429347826089,283.629916897507 C 872.0429347826088,260.329916897507 886.7429347826088,244.129916897507 902.3429347826089,235.2299168975069 917.7429347826088,226.429916897507 938.7429347826088,221.929916897507 965.1429347826086,221.929916897507 H 1088.242934782609 C 1097.842934782609,221.929916897507 1104.442934782609,220.7299168975069 1107.742934782609,218.529916897507 1114.042934782609,214.529916897507 1118.542934782609,208.429916897507 1121.442934782609,200.2299168975069 1123.342934782609,194.7299168975069 1122.742934782609,190.8299168975069 1119.342934782609,188.9299168975068 1116.042934782609,186.8299168975069 1109.042934782609,185.9299168975068 1098.342934782609,185.9299168975068 H 970.2429347826088 C 945.3429347826089,185.7299168975069 925.5429347826088,189.1299168975069 910.8429347826089,196.1299168975069 Z M 671.2429347826085,134.929916897507 C 688.1429347826085,135.029916897507 678.4429347826087,147.429916897507 702.4429347826087,139.429916897507 709.0429347826086,137.2299168975069 718.5429347826086,134.929916897507 731.9429347826087,134.929916897507 H 818.5429347826086 C 842.8429347826083,134.929916897507 859.0429347826086,141.929916897507 867.2429347826085,155.829916897507 874.7429347826085,169.129916897507 875.3429347826086,184.7299168975069 869.0429347826086,202.7299168975069 865.0429347826086,214.2299168975069 858.1429347826086,228.2299168975069 848.3429347826083,244.529916897507 L 783.9429347826087,350.6299168975069 C 778.5429347826086,359.5299168975068 774.1429347826086,369.0299168975068 770.7429347826085,378.8299168975069 768.7429347826085,384.9299168975069 767.6429347826085,391.2299168975068 767.6429347826085,397.6299168975069 H 615.8429347826083 C 626.4429347826084,387.5299168975068 634.6429347826084,378.5299168975068 640.6429347826084,370.6299168975069 646.6429347826084,362.7299168975068 654.2429347826084,351.4299168975069 663.1429347826084,336.5299168975068 L 733.6429347826084,220.1299168975069 C 740.7429347826084,208.2299168975069 744.6429347826084,201.3299168975069 745.3429347826083,199.4299168975068 747.6429347826084,192.8299168975069 745.2429347826084,188.5299168975068 738.2429347826084,186.6299168975069 736.5429347826083,186.1299168975069 732.0429347826083,185.8299168975069 724.9429347826084,185.8299168975069 H 693.9429347826084 C 683.6429347826085,185.8299168975069 675.8429347826083,187.5299168975068 670.5429347826086,190.8299168975069 665.2429347826085,194.1299168975069 659.6429347826085,200.8299168975069 653.5429347826086,210.9299168975068 L 568.9429347826084,350.6299168975069 C 563.5429347826086,359.6299168975069 559.0429347826086,369.2299168975068 555.6429347826085,379.1299168975069 553.6429347826085,385.1299168975069 552.6429347826085,391.4299168975069 552.6429347826085,397.7299168975068 H 400.9429347826088 C 411.2429347826088,387.6299168975069 419.4429347826088,378.6299168975069 425.6429347826086,370.7299168975068 431.8429347826087,362.8299168975069 439.3429347826087,351.5299168975068 448.3429347826087,336.6299168975069 L 541.9429347826084,182.2299168975069 C 547.2429347826084,173.3299168975068 551.7429347826084,163.8299168975068 555.1429347826085,154.0299168975068 557.1429347826085,148.2299168975069 558.0429347826086,141.8299168975069 558.0429347826086,134.9299168975069 Z M 2296.942934782609,132.2299168975069 C 2313.842934782609,132.3299168975069 2304.142934782609,144.7299168975069 2328.142934782609,136.7299168975069 2334.742934782609,134.5299168975068 2344.342934782609,132.2299168975069 2357.642934782609,132.2299168975069 H 2444.242934782609 C 2468.542934782608,132.2299168975069 2484.742934782609,139.2299168975069 2492.942934782609,153.1299168975069 2500.442934782609,166.429916897507 2501.042934782607,182.029916897507 2494.742934782609,200.029916897507 2490.742934782609,211.529916897507 2483.842934782609,225.529916897507 2474.042934782608,241.829916897507 L 2409.742934782609,347.9299168975069 C 2404.542934782608,356.629916897507 2400.042934782608,366.029916897507 2396.542934782608,376.129916897507 2394.542934782608,382.2299168975069 2393.442934782609,388.529916897507 2393.442934782609,395.029916897507 H 2241.742934782609 C 2252.342934782609,384.9299168975069 2260.542934782608,375.9299168975069 2266.542934782608,368.029916897507 2272.542934782608,360.129916897507 2280.142934782609,348.829916897507 2289.042934782608,333.9299168975069 L 2359.542934782608,217.5299168975068 C 2366.642934782609,205.6299168975069 2370.542934782608,198.7299168975069 2371.242934782609,196.8299168975069 2373.542934782608,190.2299168975069 2371.142934782609,185.9299168975068 2364.142934782609,184.0299168975068 2362.442934782609,183.5299168975068 2357.942934782609,183.2299168975069 2350.842934782609,183.2299168975069 H 2319.842934782609 C 2309.542934782608,183.2299168975069 2301.642934782609,184.9299168975068 2296.442934782609,188.2299168975069 2291.142934782609,191.5299168975068 2285.542934782608,198.2299168975069 2279.442934782609,208.3299168975069 L 2194.842934782609,347.9299168975069 C 2189.442934782609,356.9299168975069 2184.942934782609,366.5299168975068 2181.542934782608,376.4299168975069 2179.542934782608,382.4299168975069 2178.542934782608,388.7299168975068 2178.542934782608,395.0299168975068 H 2026.842934782609 C 2037.142934782609,384.9299168975069 2045.342934782609,375.9299168975069 2051.542934782608,368.0299168975068 2057.642934782609,360.1299168975069 2065.242934782609,348.8299168975069 2074.242934782609,333.9299168975069 L 2167.842934782609,179.5299168975068 C 2173.242934782609,170.5299168975068 2177.642934782609,161.0299168975068 2181.042934782607,151.3299168975069 2183.042934782607,145.5299168975068 2184.042934782607,139.1299168975069 2183.942934782609,132.2299168975069 Z M 599.5429347826086,8.629916897506902 544.7429347826085,110.929916897507 C 534.7429347826085,101.5299168975069 496.4429347826088,98.6299168975069 479.3429347826087,98.6299168975069 H 310.5429347826088 C 301.1429347826087,98.6299168975069 294.1429347826087,99.3299168975069 289.6429347826087,100.8299168975069 285.1429347826087,102.3299168975069 280.6429347826087,105.2299168975069 276.5429347826088,109.629916897507 274.1429347826087,112.229916897507 268.5429347826088,123.629916897507 263.3429347826087,131.829916897507 254.8429347826088,145.2299168975069 267.0429347826088,150.7299168975069 282.7429347826088,150.7299168975069 H 403.0429347826088 C 424.1429347826087,150.7299168975069 453.5429347826088,152.829916897507 461.6429347826087,158.7299168975069 474.1429347826087,167.7299168975069 485.4429347826088,191.129916897507 479.9429347826088,206.829916897507 462.5429347826088,256.329916897507 430.4429347826088,316.4299168975069 394.2429347826088,356.029916897507 375.5429347826088,376.4299168975069 348.7429347826088,389.629916897507 321.5429347826088,394.329916897507 310.0429347826088,396.329916897507 288.8429347826087,397.829916897507 258.0429347826088,397.629916897507 L 0.9429347826087449,395.7299168975069 61.44293478260875,293.2299168975069 C 94.84293478260875,317.7299168975069 188.0429347826087,303.7299168975069 228.8429347826088,303.7299168975069 251.4429347826088,303.7299168975069 255.2429347826088,332.029916897507 303.4429347826088,337.529916897507 327.3429347826087,340.2299168975069 336.7429347826088,333.4299168975069 337.4429347826088,326.9299168975069 338.7429347826088,315.2299168975069 304.5429347826088,318.829916897507 300.7429347826088,311.829916897507 287.2429347826088,286.4299168975069 296.8429347826087,260.9299168975069 308.9429347826088,253.129916897507 324.5429347826088,243.129916897507 358.0429347826088,259.129916897507 361.2429347826088,255.7299168975069 372.9429347826088,243.2299168975069 306.9429347826088,207.7299168975069 288.6429347826089,222.829916897507 L 263.3429347826087,243.529916897507 C 254.0429347826087,251.2299168975069 198.0429347826087,251.1299168975069 169.8429347826088,251.929916897507 120.3429347826088,253.329916897507 101.9429347826088,234.029916897507 114.4429347826088,198.329916897507 129.7429347826088,154.829916897507 163.5429347826087,111.129916897507 187.8429347826088,71.1299168975069 211.1429347826089,32.7299168975069 232.4429347826088,20.4299168975069 278.3429347826087,10.6299168975069 290.7429347826088,8.029916897506902 304.8429347826087,8.629916897506902 320.9429347826089,8.629916897506902 Z M 1901.242934782609,136.129916897507 H 2060.342934782609 C 2072.542934782608,136.129916897507 2081.442934782609,136.7299168975069 2086.942934782609,138.029916897507 2092.642934782609,139.2299168975069 2097.942934782609,141.7299168975069 2103.242934782609,145.529916897507 2111.242934782609,151.329916897507 2116.242934782609,159.429916897507 2118.242934782609,169.829916897507 2120.242934782609,180.2299168975069 2119.042934782608,191.7299168975069 2114.442934782609,204.329916897507 2111.342934782609,212.929916897507 2106.242934782609,222.929916897507 2099.242934782609,234.329916897507 L 2039.942934782609,330.2299168975068 C 2031.142934782609,344.4299168975069 2023.342934782609,355.1299168975069 2016.442934782609,362.4299168975069 2009.542934782609,369.7299168975068 2000.842934782609,376.529916897507 1990.342934782609,382.7299168975068 1980.642934782609,388.7299168975068 1969.842934782609,392.9299168975069 1958.642934782609,395.1299168975069 1947.442934782609,397.3299168975069 1931.442934782609,398.4299168975069 1910.542934782609,398.4299168975069 H 1752.242934782609 C 1731.842934782609,398.4299168975069 1718.342934782609,397.7299168975068 1711.842934782609,396.2299168975068 1705.342934782609,394.829916897507 1699.442934782609,391.2299168975068 1694.342934782609,385.6299168975069 1682.642934782609,372.2299168975068 1680.742934782609,354.7299168975068 1688.542934782609,332.9299168975069 1690.842934782609,326.6299168975069 1694.642934782609,319.2299168975068 1699.942934782609,310.7299168975068 L 1700.34293478261,310.029916897507 C 1739.74293478261,310.529916897507 1775.142934782609,310.9299168975069 1818.84293478261,310.329916897507 1835.04293478261,310.529916897507 1826.84293478261,326.529916897507 1824.84293478261,332.129916897507 1822.942934782609,337.4299168975069 1823.642934782609,341.129916897507 1826.642934782609,343.4299168975069 1829.742934782609,345.829916897507 1835.642934782609,346.829916897507 1844.242934782609,347.029916897507 L 1873.442934782609,347.529916897507 C 1884.942934782609,347.7299168975069 1893.242934782609,346.2299168975069 1898.142934782609,343.529916897507 1903.142934782609,340.829916897507 1908.54293478261,334.7299168975069 1914.34293478261,325.329916897507 L 1977.34293478261,223.629916897507 C 1982.24293478261,215.629916897507 1985.54293478261,209.429916897507 1987.142934782609,205.129916897507 1989.442934782609,198.7299168975069 1989.04293478261,194.029916897507 1985.84293478261,191.329916897507 1982.642934782609,188.529916897507 1976.34293478261,187.129916897507 1966.942934782609,187.129916897507 H 1934.542934782609 C 1922.342934782609,187.129916897507 1913.442934782609,188.629916897507 1907.742934782609,191.629916897507 1902.142934782609,194.529916897507 1896.242934782609,200.829916897507 1890.142934782609,210.429916897507 1885.442934782609,220.029916897507 1880.04293478261,218.429916897507 1858.34293478261,220.329916897507 L 1755.24293478261,220.929916897507 1770.74293478261,195.829916897507 C 1784.84293478261,173.329916897507 1801.24293478261,157.829916897507 1820.14293478261,149.129916897507 1839.24293478261,140.329916897507 1866.14293478261,136.129916897507 1901.242934782609,136.129916897507 Z M 1614.742934782609,284.029916897507 1631.642934782609,259.1299168975069 C 1648.542934782609,241.2299168975069 1669.442934782609,233.929916897507 1694.242934782609,237.2299168975069 L 1859.242934782609,236.2299168975069 C 1879.842934782609,234.2299168975069 1874.842934782609,243.8299168975069 1866.242934782609,255.1299168975069 L 1852.342934782609,282.9299168975069 C 1844.342934782609,290.9299168975069 1833.742934782609,294.8299168975069 1820.542934782609,294.8299168975069 L 1626.742934782609,292.8299168975069 C 1616.042934782609,292.6299168975069 1612.042934782609,289.7299168975068 1614.742934782609,284.029916897507 Z" fill="#ff0000" id="path2" />
</svg>
