<?xml version="1.0" encoding="UTF-8" standalone="no"?>
<svg xmlns:dc="http://purl.org/dc/elements/1.1/" xmlns:cc="http://creativecommons.org/ns#" xmlns:rdf="http://www.w3.org/1999/02/22-rdf-syntax-ns#" xmlns:svg="http://www.w3.org/2000/svg" xmlns="http://www.w3.org/2000/svg" width="2500" height="500" viewBox="0 0 192.756 38.5512" version="1.1" id="svg18">
<metadata id="metadata24">
<rdf:RDF>
<cc:Work rdf:about="">
<dc:format>image/svg+xml</dc:format>
<dc:type rdf:resource="http://purl.org/dc/dcmitype/StillImage" />
<dc:title></dc:title>
</cc:Work>
</rdf:RDF>
</metadata>
<defs id="defs22" />
<g id="g862" transform="matrix(1.058086692143046,0,0,1.175605932009677,-5.59775017201644,-94.02753631819463)">
<path fill="#236bb3" d="M 63.493,98.227 H 182.445 V 108.219 H 63.493 Z" id="path4" style="clip-rule:evenodd;fill-rule:evenodd" />
<path d="M 70.337,104.836 C 69.86499999999999,105.465 69.393,106.174 68.37,106.174 67.74099999999998,106.174 66.876,105.779 66.876,104.678 66.876,103.184 68.292,101.61 69.629,101.61 70.41600000000001,101.61 70.73099999999999,102.005 70.73099999999999,102.397 70.73099999999999,102.87 70.495,103.106 70.18,103.106 69.86499999999999,103.106 69.629,102.948 69.629,102.633 69.629,102.318 69.787,102.16 69.787,102.082 69.787,101.924 69.629,101.924 69.551,101.924 68.76399999999999,101.924 68.135,103.891 68.135,104.6 68.135,105.387 68.60699999999998,105.543 68.843,105.543 69.31499999999998,105.543 69.62999999999999,105.229 70.02300000000001,104.678 Z M 82.84699999999999,103.105 C 82.84699999999999,104.521 81.66699999999997,106.173 80.09399999999999,106.173 79.30699999999997,106.173 78.51999999999999,105.7 78.51999999999999,104.755 78.51999999999999,103.261 79.77899999999999,101.609 81.27299999999999,101.609 81.667,101.609 82.84699999999999,101.768 82.84699999999999,103.105 Z M 79.69999999999997,105.229 C 79.69999999999997,105.387 79.69999999999997,105.938 80.17199999999998,105.938 81.11599999999998,105.938 81.66699999999997,103.184 81.66699999999997,102.475 81.66699999999997,102.004 81.43099999999998,101.846 81.19499999999999,101.846 80.17099999999999,101.846 79.69999999999997,104.6 79.69999999999997,105.229 Z M 95.513,104.836 C 95.19799999999999,105.387 94.72599999999998,106.174 93.93899999999999,106.174 93.78200000000001,106.174 93.31,106.174 93.31,105.543 93.31,104.836 94.096,102.711 94.096,102.475 94.096,102.397 94.018,102.241 93.861,102.241 93.625,102.241 92.68099999999998,102.792 91.81499999999998,106.095 H 90.63499999999999 C 91.10699999999998,104.206 91.65699999999999,102.634 91.65699999999999,102.32 91.65699999999999,102.084 91.343,102.084 91.10599999999999,102.084 V 101.848 C 91.34199999999998,101.848 92.286,101.77 93.07299999999999,101.612 L 92.44399999999997,103.423 H 92.52299999999998 C 93.15199999999998,102.4 93.70299999999997,101.612 94.56899999999997,101.612 94.80399999999997,101.612 95.27699999999998,101.612 95.27699999999998,102.321 95.27699999999998,102.95 94.41199999999999,104.995 94.41199999999999,105.309 94.41199999999999,105.389 94.48999999999999,105.467 94.56899999999997,105.467 94.80399999999997,105.467 95.04099999999998,105.153 95.27699999999998,104.758 Z M 106.369,103.105 106.133,103.025 C 106.055,102.554 105.819,101.923 105.268,101.923 104.717,101.923 104.717,102.396 104.717,102.396 104.717,103.025 106.055,103.89 106.055,104.914 106.055,105.857 105.268,106.174 104.639,106.174 104.166,106.174 103.932,106.016 103.774,106.016 103.696,106.016 103.538,106.016 103.46,106.174 H 103.224 L 103.382,104.6 H 103.696 C 103.852,105.858 104.481,105.858 104.639,105.858 104.953,105.858 105.19,105.624 105.19,105.387 105.19,105.073 104.954,104.678 104.639,104.364 104.088,103.813 103.852,103.341 103.852,102.792 103.852,101.925 104.481,101.61 105.112,101.61 105.583,101.61 105.741,101.768 106.055,101.768 106.213,101.768 106.213,101.768 106.291,101.61 H 106.605 Z M 118.721,103.105 C 118.721,104.521 117.541,106.173 115.967,106.173 115.18,106.173 114.395,105.7 114.395,104.755 114.395,103.261 115.653,101.609 117.227,101.609 117.541,101.609 118.721,101.768 118.721,103.105 Z M 115.574,105.229 C 115.574,105.387 115.574,105.938 116.047,105.938 116.99,105.938 117.541,103.184 117.541,102.475 117.541,102.004 117.383,101.846 117.068,101.846 116.047,101.846 115.574,104.6 115.574,105.229 Z M 126.824,101.846 C 127.847,101.768 128.162,101.768 128.791,101.61 L 128.24,103.262 128.318,103.34 C 128.554,102.711 129.183,101.61 129.814,101.61 129.814,101.61 130.365,101.61 130.365,102.241 130.365,102.634 130.049,102.948 129.814,102.948 129.419,102.948 129.341,102.555 129.183,102.555 128.947,102.555 128.398,103.498 128.24,104.049 127.926,104.678 127.847,105.151 127.533,106.094 H 126.351 C 126.902,104.285 127.374,102.711 127.374,102.397 127.374,102.161 127.216,102.083 126.823,102.083 V 101.846 Z M 140.355,102.082 H 139.568 C 139.254,103.262 138.703,104.992 138.703,105.307 138.703,105.465 138.861,105.465 138.861,105.465 139.097,105.465 139.49,104.914 139.648,104.678 L 139.804,104.836 C 139.49,105.387 139.017,106.174 138.232,106.174 137.523,106.174 137.523,105.543 137.523,105.465 137.523,105.072 137.996,103.656 138.466,102.082 H 137.915 V 101.768 C 138.31,101.61 139.017,101.295 139.726,100.274 H 140.04 L 139.647,101.69 H 140.354 V 102.082 Z M 149.953,104.836 C 149.402,105.543 149.01,106.174 148.301,106.174 147.75,106.174 147.672,105.701 147.672,105.465 147.672,105.072 148.381,102.633 148.381,102.397 148.381,102.083 148.145,102.083 147.83,102.083 V 101.847 C 148.223,101.847 149.1660000000001,101.691 149.7970000000001,101.611 149.4020000000001,102.949 148.8520000000001,104.994 148.8520000000001,105.308 148.8520000000001,105.388 148.9320000000001,105.466 148.9320000000001,105.466 149.1660000000001,105.466 149.5610000000001,104.993 149.7170000000001,104.679 Z M 149.482,99.408 C 149.875,99.408 150.189,99.72199999999999 150.189,100.037 A 0.7039999999999998,0.7039999999999998 0 0 1 149.482,100.744 C 149.087,100.744 148.851,100.273 148.851,100.037 148.851,99.80100000000001 149.088,99.408 149.482,99.408 Z M 162.383,104.914 C 162.227,105.228 161.676,106.174 160.811,106.174 160.733,106.174 160.182,106.174 160.182,105.623 160.182,105.15 160.338,104.836 160.418,104.6 V 104.522 C 159.631,105.543 159.236,106.174 158.529,106.174 157.742,106.174 157.742,105.623 157.742,105.387 157.742,104.678 158.451,102.948 158.451,102.397 158.451,102.161 158.293,102.161 157.978,102.083 V 101.847 C 158.765,101.769 159.867,101.611 159.945,101.611 L 159.08,104.601 C 158.922,104.915 158.922,105.074 158.922,105.23 158.922,105.388 159,105.466 159.158,105.466 159.551,105.466 160.101,104.523 160.26,104.286 160.653,103.499 160.889,102.712 161.203,101.69 H 162.383 C 162.149,102.397 161.362,104.993 161.362,105.307 161.362,105.465 161.44,105.465 161.518,105.465 161.754,105.465 162.069,104.914 162.149,104.756 Z M 170.645,101.846 C 171.668,101.768 171.903,101.768 172.534,101.61 L 171.983,103.421 C 172.612,102.556 173.241,101.61 174.106,101.61 174.106,101.61 174.737,101.61 174.737,102.241 174.737,102.634 174.579,102.948 174.501,103.184 174.972,102.397 175.603,101.61 176.388,101.61 176.8610000000001,101.61 177.097,101.924 177.097,102.319 177.097,102.948 176.232,104.993 176.232,105.307 176.232,105.465 176.388,105.465 176.468,105.465 176.624,105.465 176.939,104.992 177.097,104.756 L 177.333,104.836 C 177.019,105.387 176.546,106.174 175.759,106.174 175.603,106.174 175.13,106.174 175.13,105.543 175.13,104.836 175.917,102.711 175.917,102.475 175.917,102.397 175.837,102.319 175.759,102.319 175.286,102.319 174.816,103.106 174.657,103.421 174.264,104.05 174.186,104.442 173.636,106.095 H 172.534 C 173.241,103.657 173.555,102.792 173.555,102.476 173.555,102.32 173.477,102.32 173.399,102.32 173.319,102.32 172.219,102.556 171.352,106.095 H 170.172 C 170.723,104.05 171.117,102.712 171.117,102.32 171.117,102.084 170.801,102.084 170.644,102.084 V 101.846 Z" fill="#ffffff" id="path6" style="clip-rule:evenodd;fill-rule:evenodd" />
<path d="M 74.9,87.921 H 76.31699999999999 L 73.013,99.17200000000001 H 72.855 L 70.73099999999999,92.16900000000001 68.686,99.17200000000001 H 68.528 L 65.224,87.921 H 66.71899999999999 L 68.686,94.766 70.02300000000001,90.12399999999999 69.394,87.921 H 70.888 L 72.855,94.766 Z M 123.441,87.685 H 124.857 L 121.553,98.936 H 121.396 L 119.35,91.933 117.227,98.936 H 117.148 L 113.766,87.685 H 115.26 L 117.227,94.52899999999999 118.643,89.88799999999999 117.934,87.68499999999997 H 119.43 L 121.396,94.52899999999998 Z M 163.406,87.685 H 164.902 L 161.598,98.936 H 161.439 L 159.316,91.933 157.27,98.936 H 157.113 L 153.809,87.685 H 155.225 L 157.27,94.52899999999999 158.607,89.88799999999999 157.979,87.68499999999997 H 159.395 L 161.439,94.52899999999998 Z M 165.924,88.944 H 170.33 V 90.43899999999999 H 167.418 V 92.248 H 170.33 V 93.74299999999999 H 167.418 V 96.33900000000001 H 170.33 V 97.834 H 165.924 Z M 172.848,88.944 H 175.994 C 177.252,88.944 178.353,90.046 178.353,91.304 178.353,91.933 178.119,92.406 177.802,92.799 178.511,93.349 178.904,94.057 178.904,95.00199999999999 178.904,96.575 177.646,97.83499999999999 176.15,97.83499999999999 H 172.847 V 88.944 Z M 174.342,92.248 H 175.994 C 176.467,92.248 176.859,91.85399999999998 176.859,91.304 A 0.872,0.872 0 0 0 175.994,90.43899999999999 H 174.342 Z M 174.342,96.33899999999998 H 176.151 C 176.86,96.33899999999998 177.489,95.78799999999999 177.489,95.00199999999999 177.489,94.29399999999999 176.86,93.74299999999999 176.151,93.74299999999999 H 174.342 Z M 79.85699999999998,88.787 C 81.82399999999998,88.787 82.92499999999998,90.911 82.92499999999998,93.429 82.92499999999998,95.947 81.82299999999999,97.99099999999998 79.85699999999998,97.99099999999998 77.81199999999998,97.99099999999998 76.70999999999999,95.947 76.70999999999999,93.429 76.70999999999999,90.911 77.81199999999998,88.787 79.85699999999998,88.787 Z M 79.85699999999998,96.49599999999999 C 80.72199999999999,96.49599999999999 81.352,95.08000000000001 81.352,93.42800000000001 81.352,91.69700000000001 80.72299999999998,90.281 79.85699999999998,90.281 78.99099999999998,90.281 78.284,91.69799999999999 78.284,93.42800000000001 78.284,95.08000000000001 78.992,96.49599999999999 79.85699999999998,96.49599999999999 Z M 91.81499999999998,97.834 H 90.006 L 87.881,94.84399999999999 H 86.78 V 97.834 H 85.28499999999999 V 88.944 H 88.11799999999999 A 2.987,2.987 0 0 1 91.10699999999998,91.933 2.852,2.852 0 0 1 89.45499999999998,94.52900000000001 Z M 89.61199999999999,91.933 C 89.61199999999999,91.146 88.98299999999997,90.43899999999999 88.11699999999999,90.43899999999999 H 86.78 V 93.42800000000001 H 88.117 C 88.983,93.42800000000001 89.61199999999999,92.72000000000001 89.61199999999999,91.933 Z M 95.27599999999999,96.33899999999998 H 98.188 V 97.834 H 93.78199999999999 V 88.944 H 95.27599999999999 Z M 99.21099999999998,88.944 H 101.334 C 103.537,88.944 105.268,90.989 105.268,93.42799999999998 105.268,95.86699999999999 103.538,97.834 101.334,97.834 H 99.21099999999998 Z M 100.705,96.33899999999998 H 101.334 C 102.594,96.33899999999998 103.695,95.00199999999999 103.695,93.42799999999998 103.695,91.77599999999999 102.593,90.43899999999999 101.334,90.43899999999999 H 100.705 Z M 130.994,88.944 H 133.039 C 135.242,88.944 137.051,90.989 137.051,93.42799999999998 137.051,95.86699999999999 135.242,97.834 133.039,97.834 H 130.994 Z M 132.488,96.33899999999998 H 133.039 C 134.377,96.33899999999998 135.398,95.00199999999999 135.398,93.42799999999998 135.398,91.77599999999999 134.377,90.43899999999999 133.039,90.43899999999999 H 132.488 Z M 139.412,88.944 H 143.896 V 90.43899999999999 H 140.906 V 92.248 H 143.896 V 93.74299999999999 H 140.906 V 96.33900000000001 H 143.896 V 97.834 H 139.412 Z M 126.746,88.944 H 128.082 V 97.834 H 126.746 Z M 56.727,82.57099999999998 57.357,86.033 55.312,89.96599999999999 C 55.312,89.96599999999999 54.525,88.31399999999999 53.187,87.37 52.086,86.58299999999998 51.377,86.426 50.27600000000001,86.662 48.86,86.97599999999998 47.208,88.70699999999999 46.5,90.831 45.635,93.349 45.635,94.52899999999999 45.635,95.709 45.556,97.519 45.871,98.54099999999999 45.871,98.54099999999999 45.871,98.54099999999999 44.612,96.25999999999999 44.612,92.87699999999999 44.612,90.51699999999999 45.006,88.31399999999999 46.10699999999999,86.18999999999998 47.12899999999999,84.30199999999999 48.545,83.2 49.804,83.04299999999999 51.141,82.88599999999999 52.243,83.51499999999998 53.03,84.22299999999998 53.89500000000001,84.93099999999998 54.761,86.58299999999998 54.761,86.58299999999998 Z M 57.042,102.396 C 57.042,102.396 56.098,103.97 55.54700000000001,104.599 54.99600000000001,105.228 53.97400000000001,106.329 52.71500000000001,106.88 51.45600000000001,107.431 50.82700000000001,107.509 49.64700000000001,107.431 48.38800000000001,107.273 47.20800000000001,106.566 46.81500000000001,106.329 46.42100000000001,106.015 45.39900000000001,105.149 44.84800000000002,104.284 44.29700000000001,103.497 43.35300000000001,101.845 43.35300000000001,101.845 43.35300000000001,101.845 43.90400000000001,103.497 44.21800000000001,104.204 A 14.59,14.59 0 0 0 45.71300000000001,106.88 C 46.42100000000001,107.903 47.91600000000001,109.556 50.04000000000002,109.948 52.24300000000001,110.341 53.73700000000001,109.397 54.13100000000001,109.161 54.44500000000001,108.925 55.23200000000002,108.218 55.70400000000001,107.745 56.25500000000001,107.194 56.72600000000002,106.487 57.04200000000001,106.015 L 57.51400000000001,105.072 Z" id="path8" style="clip-rule:evenodd;fill-rule:evenodd" />
<path fill="#236bb3" d="M 19.437,82.72899999999998 24.393,99.408 29.271,82.72899999999998 H 32.811 L 24.708,110.186 H 24.393 L 19.28,93.11299999999998 14.166,110.186 H 13.851 L 5.669,82.72899999999998 H 9.288999999999999 L 14.166,99.408 17.549,88.15699999999999 15.897,82.72899999999998 Z" id="path10" style="clip-rule:evenodd;fill-rule:evenodd" />
<path d="M 42.95900000000001,101.373 C 42.95900000000001,103.812 42.33000000000001,105.937 40.993,107.668 39.656,109.32 37.92500000000001,110.186 35.801,110.186 34.22700000000001,110.186 32.89,109.635 31.71,108.692 30.53,107.669 29.665,106.331 29.114,104.6 L 31.867,103.42 C 32.26,104.441 32.811,105.307 33.441,105.858 34.149,106.489 34.935,106.803 35.801,106.803 36.74500000000001,106.803 37.61,106.252 38.24,105.151 38.869,104.128 39.262,102.87 39.262,101.374 39.262,99.72399999999997 38.869,98.46399999999998 38.16000000000001,97.51999999999999 37.37300000000001,96.49699999999998 36.115,95.94599999999998 34.30500000000001,95.94599999999998 H 32.96800000000001 V 94.29399999999999 L 37.76700000000001,86.11199999999999 H 32.024 L 30.372,88.78699999999999 H 29.35 V 82.72899999999998 H 42.64500000000001 V 84.38099999999998 L 37.61,93.03499999999998 C 39.341,93.58599999999998 40.678,94.60799999999997 41.623,96.10399999999998 42.488,97.59799999999998 42.95900000000001,99.32799999999997 42.95900000000001,101.373 Z" fill="#236bb3" id="path12" style="clip-rule:evenodd;fill-rule:evenodd" />
<path d="M 185.277,104.914 C 184.804,104.914 184.334,105.15 184.017,105.465 183.703,105.779 183.466,106.252 183.466,106.723 183.466,107.196 183.702,107.668 184.017,107.983 184.333,108.297 184.804,108.534 185.277,108.534 185.75,108.534 186.142,108.298 186.535,107.983 186.851,107.669 187.086,107.196 187.086,106.723 187.086,106.252 186.852,105.78 186.535,105.465 186.221,105.15 185.75,104.914 185.277,104.914 Z M 186.852,106.723 C 186.852,107.118 186.694,107.51 186.379,107.825 186.065,108.141 185.67,108.298 185.277,108.298 184.884,108.298 184.49,108.142 184.175,107.825 A 1.555,1.555 0 0 1 183.7019999999999,106.723 C 183.7019999999999,106.33 183.8599999999999,105.938 184.175,105.623 184.489,105.307 184.884,105.15 185.277,105.15 185.67,105.15 186.064,105.306 186.379,105.623 186.693,105.938 186.852,106.33 186.852,106.723 Z M 185.277,105.701 H 184.568 V 107.668 H 184.963 V 106.803 H 185.277 L 185.75,107.668 H 186.143 L 185.67,106.803 C 185.986,106.723 186.143,106.489 186.143,106.252 186.143,105.857 185.906,105.701 185.277,105.701 Z M 185.277,105.938 C 185.591,105.938 185.75,106.016 185.75,106.252 185.75,106.488 185.592,106.566 185.277,106.566 H 184.963 V 105.937 H 185.277 Z" id="path14" style="clip-rule:evenodd;fill-rule:evenodd" />
</g>
</svg>
