<?xml version="1.0" encoding="UTF-8" standalone="no"?>
<svg xmlns:dc="http://purl.org/dc/elements/1.1/" xmlns:cc="http://creativecommons.org/ns#" xmlns:rdf="http://www.w3.org/1999/02/22-rdf-syntax-ns#" xmlns:svg="http://www.w3.org/2000/svg" xmlns="http://www.w3.org/2000/svg" xmlns:xlink="http://www.w3.org/1999/xlink" width="750" height="750" viewBox="0 0 750 750" version="1.1" id="SVGRoot">
<title id="title29">Magnificent Eagle</title>
<defs id="defs10">
<linearGradient id="linearGradient839">
<stop style="stop-color:#ff0000;stop-opacity:1" offset="0" id="stop835" />
<stop style="stop-color:#2b1100;stop-opacity:1" offset="1" id="stop837" />
</linearGradient>
<color-profile name="Agfa-:-Swop-Standard" xlink:href="file:///C:/WINDOWS/system32/spool/drivers/color/RSWOP.icm" id="color-profile5" />
<radialGradient xlink:href="#linearGradient839" id="radialGradient841" cx="362.0585021972656" cy="455.6526184082031" fx="362.0585021972656" fy="455.6526184082031" r="375" gradientUnits="userSpaceOnUse" gradientTransform="matrix(1.26597729330904,-1.123236486231837,0.9355555026439413,1.054445824628503,-505.375066613004,411.4099406514187)" />
</defs>
<metadata id="metadata13">
<rdf:RDF>
<cc:Work rdf:about="">
<dc:format>image/svg+xml</dc:format>
<dc:type rdf:resource="http://purl.org/dc/dcmitype/StillImage" />
<dc:title>Magnificent Eagle</dc:title>
<dc:date>3/29/21</dc:date>
<dc:creator>
<cc:Agent>
<dc:title>Miciah Martin</dc:title>
</cc:Agent>
</dc:creator>
<dc:rights>
<cc:Agent>
<dc:title>Copyright CC</dc:title>
</cc:Agent>
</dc:rights>
<dc:publisher>
<cc:Agent>
<dc:title>Miciah Martin</dc:title>
</cc:Agent>
</dc:publisher>
<dc:identifier>ME13</dc:identifier>
<dc:language>XML,SVG.EN-US,PNG,HTML</dc:language>
<dc:subject>
<rdf:Bag>
<rdf:li>Miciah Martin</rdf:li>
<rdf:li>Logo</rdf:li>
<rdf:li>Eagle</rdf:li>
</rdf:Bag>
</dc:subject>
<dc:coverage>Global</dc:coverage>
<dc:description>A composite logo drawing that  includes two forms: the letter &quot;M&quot; and an Eagle. Designed by Miciah Martin.</dc:description>
<dc:contributor>
<cc:Agent>
<dc:title>Jesus Christ Talent Provisioners and Miciah Martin</dc:title>
</cc:Agent>
</dc:contributor>
<cc:license rdf:resource="http://creativecommons.org/licenses/by-nc/4.0/" />
</cc:Work>
<cc:License rdf:about="http://creativecommons.org/licenses/by-nc/4.0/">
<cc:permits rdf:resource="http://creativecommons.org/ns#Reproduction" />
<cc:permits rdf:resource="http://creativecommons.org/ns#Distribution" />
<cc:requires rdf:resource="http://creativecommons.org/ns#Notice" />
<cc:requires rdf:resource="http://creativecommons.org/ns#Attribution" />
<cc:prohibits rdf:resource="http://creativecommons.org/ns#CommercialUse" />
<cc:permits rdf:resource="http://creativecommons.org/ns#DerivativeWorks" />
</cc:License>
</rdf:RDF>
<rdf:RDF>
<cc:Work rdf:about="">
<dc:title />
</cc:Work>
</rdf:RDF>
</metadata>
<path id="path901" style="fill:url(#radialGradient841);fill-opacity:1;stroke:none;stroke-width:0.296275px;stroke-linecap:butt;stroke-linejoin:miter;stroke-opacity:1" d="M 0.2586369493176335,7.831431895843595 C 20.26880766646843,26.79940848580224 40.27897838361923,45.76738507576079 60.28914910076969,64.73536166571955 60.38511152348986,272.4117527505223 60.48107394621059,480.0881438353285 60.57703636893075,687.7645349201352 40.38469091262039,668.6238718380667 20.19234545631025,649.4832087559998 0,630.3425456739312 0.0862123164391733,422.8388410812332 0.1724246328783465,215.3351364885429 0.2586369493176335,7.831431895843595 Z M 65.92253384096659,70.07534158816416 C 85.92974919739265,89.04051674210177 105.9369645538189,108.0056918960387 125.9441799102448,126.9708670499762 126.0401281599939,334.647244699981 126.1360764097425,542.323622349993 126.2320246594916,750 106.042661469827,730.8621638585268 85.85329828016244,711.7243277170537 65.66393509049783,692.5864915755812 65.75013467398696,485.0827749131004 65.83633425747734,277.5790582506424 65.92253384096659,70.07534158816416 Z M 749.7413630506829,0 C 729.7311923335319,18.96797658995865 709.721021616383,37.93595317991719 689.7108508992311,56.90392976987585 689.6148884765125,265.4521490539523 689.518926053788,474.0003683380221 689.4229636310692,682.5485876220973 709.6153090873795,663.4079245400289 729.8076545436902,644.2672614579612 750,625.1265983758926 749.9137876835625,416.7510655839341 749.8275753671205,208.3755327919611 749.7413630506829,0 Z M 684.0774661590343,62.24390969232116 C 664.0702508026072,81.20908484625806 644.0630354461825,100.1742600001956 624.0558200897553,119.1394351541325 623.9598718400053,328.1814959931628 623.8639235902587,537.2235568321889 623.7679753405086,746.2656176712149 643.9573385301746,726.6339265399917 664.1467017198376,707.0022354087664 684.3360649095028,687.3705442775426 684.2498653260122,478.9949994157942 684.1636657425235,270.6194545540681 684.0774661590343,62.24390969232116 Z M 619.1082848434432,123.8292868328895 C 605.9493591245939,137.7453210427955 588.6153548259417,149.866235737802 578.0304344333509,164.8889909600919 578.030434433351,240.6477330279616 578.0304344333501,316.4064750958303 578.030434433351,392.1652171637001 591.7960585152204,374.2789903810319 609.3515385837963,357.7550645527047 620.8049314391759,339.0376835474075 620.2393825739304,267.3015513092334 619.6738337086883,195.5654190710625 619.1082848434432,123.8292868328895 Z M 131.8325039408278,132.5525082036151 C 130.9484363098707,202.2622638503547 130.0643686789138,271.9720194970921 129.1803010479563,341.6817751438312 144.1905437231233,359.4520555047122 159.2007863982899,377.222335865594 174.2110290734568,394.9926162264751 174.2110290734568,320.903018578013 174.2110290734569,246.8134209295498 174.2110290734568,172.7238232810876 160.0848540292466,159.3333849219296 145.9586789850378,145.9429465627731 131.8325039408278,132.5525082036151 Z M 572.7729702917297,167.7513089949484 C 558.5772222301186,182.5813848564289 540.505886928433,195.6136703903324 528.6863861199558,211.5460293544715 527.7125325825059,228.7530931399092 526.7386790450564,245.9601569253474 525.7648255076062,263.1672207107854 493.0471515221177,289.6872969035289 460.3294775366307,316.2073730962716 427.6118035511419,342.7274492890149 424.4692086347775,326.3352455895879 416.7269774622889,309.2743721225867 416.328997271818,293.2811653847995 426.5093344121995,288.3367915345946 441.5018458477266,291.3707402259179 453.4475102471334,289.3531826961579 448.4621715770118,280.1471674143884 449.1573641909406,261.2541591832875 433.9504181297867,263.5203286969775 408.9093127409153,260.9926965801217 383.9362750608464,250.3583940402043 358.9552311293764,257.8487866956622 342.0391355233273,255.4653290505249 339.4402907495221,269.5884639404616 336.0193812074602,282.7638269204081 330.9079156325666,298.3090484873711 326.6526947474065,311.4706331778125 335.2878814341266,288.747556380539 341.4315452631147,273.0731712231661 345.5193605337352,262.8871173539729 337.5332794690335,284.9337601771495 332.0172173995818,300.2964902848738 327.3175472160747,313.5702187276195 336.6155912118913,291.0262856649893 345.6877515365555,268.0411732876357 336.2410907716232,297.3132953071519 333.9252479586117,306.4633575393813 329.5897374799578,316.9618045339573 328.2091789643741,336.523070092803 322.0462578660304,341.416860532673 289.7379045857504,316.0319993769479 257.4295513054695,290.6471382212223 225.1211980251898,265.2622770654974 223.5154203926162,249.6968203503491 225.8870350929423,232.3311365098389 221.8389327799561,217.8711123923879 207.7154529249965,204.4832288483455 193.5919730700373,191.0953453043034 179.468493215078,177.7074617602606 179.4684932150778,252.2105085831487 179.4684932150781,326.7135554060366 179.468493215078,401.2166022289247 206.3282411945558,433.0157260269625 233.1879891740344,464.8148498250011 260.0477371535117,496.6139736230387 271.985258040551,483.0053774782725 283.9227789275901,469.3967813335066 295.8602998146293,455.7881851887403 290.2599008840083,477.7720626665621 284.6595019533878,499.7559401443818 279.059103022767,521.7398176222036 310.7447128048589,560.6473007688839 342.4303225869509,599.554783915564 374.1159323690431,638.4622670622442 406.0962313614534,599.7290629397607 438.0765303538658,560.9958588172785 470.0568293462764,522.2626546947955 465.1931534414548,500.9765113244882 460.3294775366287,479.6903679541788 455.4658016318069,458.4042245838718 467.6980117291653,470.4430734894142 479.9302218265229,482.481922394956 492.1624319238816,494.5207713004991 519.0326113798303,462.4917475130949 545.9027908357809,430.4627237256896 572.7729702917297,398.4336999382852 572.7729702917297,321.5395696238409 572.7729702917299,244.6454393093928 572.7729702917297,167.7513089949484 Z M 365.4630226359582,274.445298414956 C 383.3277611359511,271.4326600595662 414.2046231761691,281.2283467710786 389.591543278324,284.3760359925118 382.8170294545043,278.7455202622039 373.4947835635912,277.5935720686472 365.4630226359582,274.445298414956 Z" />
</svg>
