<?xml version="1.0" encoding="UTF-8" standalone="no"?>
<svg xmlns:dc="http://purl.org/dc/elements/1.1/" xmlns:cc="http://creativecommons.org/ns#" xmlns:rdf="http://www.w3.org/1999/02/22-rdf-syntax-ns#" xmlns:svg="http://www.w3.org/2000/svg" xmlns="http://www.w3.org/2000/svg" xmlns:xlink="http://www.w3.org/1999/xlink" xmlns:sodipodi="http://sodipodi.sourceforge.net/DTD/sodipodi-0.dtd" xmlns:inkscape="http://www.inkscape.org/namespaces/inkscape" width="750" height="750" viewBox="0 0 750 750" version="1.1" id="SVGRoot" sodipodi:docname="M2-Eagle-Logo-750x750px-black.svg" inkscape:version="1.0.2-2 (e86c870879, 2021-01-15)">
<sodipodi:namedview pagecolor="#ffffff" bordercolor="#666666" borderopacity="1" objecttolerance="10" gridtolerance="10" guidetolerance="10" inkscape:pageopacity="0" inkscape:pageshadow="2" inkscape:window-width="1920" inkscape:window-height="1027" id="namedview15" showgrid="false" inkscape:zoom="0.5853333336421762" inkscape:cx="373.7089398812353" inkscape:cy="557.8513733627217" inkscape:window-x="1912" inkscape:window-y="-8" inkscape:window-maximized="1" inkscape:current-layer="SVGRoot" />
<title id="title29">Magnificent Eagle</title>
<defs id="defs10">
<color-profile name="Agfa-:-Swop-Standard" xlink:href="file:///C:/WINDOWS/system32/spool/drivers/color/RSWOP.icm" id="color-profile4" />
</defs>
<metadata id="metadata13">
<rdf:RDF>
<cc:Work rdf:about="">
<dc:format>image/svg+xml</dc:format>
<dc:type rdf:resource="http://purl.org/dc/dcmitype/StillImage" />
<dc:title>Magnificent Eagle</dc:title>
<dc:date>3/29/21</dc:date>
<dc:creator>
<cc:Agent>
<dc:title>Miciah Martin</dc:title>
</cc:Agent>
</dc:creator>
<dc:rights>
<cc:Agent>
<dc:title>Copyright CC</dc:title>
</cc:Agent>
</dc:rights>
<dc:publisher>
<cc:Agent>
<dc:title>Miciah Martin</dc:title>
</cc:Agent>
</dc:publisher>
<dc:identifier>ME13</dc:identifier>
<dc:language>XML,SVG.EN-US,PNG,HTML</dc:language>
<dc:subject>
<rdf:Bag>
<rdf:li>Miciah Martin</rdf:li>
<rdf:li>Logo</rdf:li>
<rdf:li>Eagle</rdf:li>
</rdf:Bag>
</dc:subject>
<dc:coverage>Global</dc:coverage>
<dc:description>A composite logo drawing that  includes two forms: the letter &quot;M&quot; and an Eagle. Designed by Miciah Martin.</dc:description>
<dc:contributor>
<cc:Agent>
<dc:title>Jesus Christ Talent Provisioners and Miciah Martin</dc:title>
</cc:Agent>
</dc:contributor>
<cc:license rdf:resource="http://creativecommons.org/licenses/by-nc/4.0/" />
</cc:Work>
<cc:License rdf:about="http://creativecommons.org/licenses/by-nc/4.0/">
<cc:permits rdf:resource="http://creativecommons.org/ns#Reproduction" />
<cc:permits rdf:resource="http://creativecommons.org/ns#Distribution" />
<cc:requires rdf:resource="http://creativecommons.org/ns#Notice" />
<cc:requires rdf:resource="http://creativecommons.org/ns#Attribution" />
<cc:prohibits rdf:resource="http://creativecommons.org/ns#CommercialUse" />
<cc:permits rdf:resource="http://creativecommons.org/ns#DerivativeWorks" />
</cc:License>
</rdf:RDF>
<rdf:RDF>
<cc:Work rdf:about="">
<dc:title />
</cc:Work>
</rdf:RDF>
</metadata>
<path id="path901" style="fill:#000000;stroke:none;stroke-width:0.296275px;stroke-linecap:butt;stroke-linejoin:miter;stroke-opacity:1" d="M 0.258636949317442,7.831431895843622 60.28914910076975,64.73536166571932 60.57703636893053,687.7645349201353 0,630.3425456739312 Z M 65.92253384096656,70.07534158816416 125.9441799102448,126.9708670499762 126.2320246594916,750 65.6639350904976,692.5864915755812 Z M 749.7413630506829,0 689.7108508992311,56.90392976987583 689.4229636310692,682.5485876220973 750,625.1265983758926 Z M 684.0774661590343,62.24390969232108 624.0558200897555,119.1394351541325 623.7679753405086,746.2656176712149 684.3360649095028,687.3705442775426 Z M 619.1082848434433,123.8292868328895 578.030434433351,162.7676705157749 V 392.1652171637001 L 620.8216548538823,341.1589380712394 Z M 131.8325039408278,132.552508203615 129.1803010479563,341.6817751438312 174.2110290734567,394.9926162264751 V 172.7238232810875 Z M 572.7729702917298,167.7513089949482 528.8062528663193,209.4280981963376 525.7648255076062,263.1672207107854 427.6118035511419,342.7274492890149 415.2329008159036,295.0973627823334 417.4450257951348,291.4319411776737 453.6976663698926,289.338738855134 444.4130003430043,265.2622770654974 387.8209365507171,255.8400855658105 379.8643278721029,254.2697203158627 343.1676975800281,260.5511813156539 329.0187036810372,304.5177002498479 343.1676975800281,268.9258446379848 329.9027713119943,306.6127566045599 341.3995623181139,279.9184013876194 323.7142978952944,342.7274492890149 225.1211980251896,265.2622770654974 223.3784894871745,219.3304840286531 179.4684932150778,177.7074617602606 V 401.2166022289247 L 260.0477371535117,496.6139736230387 295.8602998146293,455.7881851887403 279.059103022767,521.7398176222036 374.1159323690431,638.4622670622442 470.0568293462764,522.2626546947955 455.4658016318069,458.4042245838718 492.1624319238816,494.5207713004991 572.7729702917298,398.4336999382852 Z M 365.4630226359582,274.445298414956 C 365.4630226359582,274.445298414956 385.8217639153182,275.7843833173781 390.3460058240925,276.2307313968919 394.8702477328669,276.6770794764009 402.7874974181595,278.462986132355 402.7874974181596,278.462986132355 L 389.9685167692812,286.4965075349805 C 389.9685167692812,286.4965075349805 392.6077512189488,283.371434648821 379.035025492621,278.9079538537097 Z" />
</svg>
