<?xml version="1.0" encoding="UTF-8" standalone="no"?>
<svg xmlns:dc="http://purl.org/dc/elements/1.1/" xmlns:cc="http://creativecommons.org/ns#" xmlns:rdf="http://www.w3.org/1999/02/22-rdf-syntax-ns#" xmlns:svg="http://www.w3.org/2000/svg" xmlns="http://www.w3.org/2000/svg" xmlns:xlink="http://www.w3.org/1999/xlink" xmlns:sodipodi="http://sodipodi.sourceforge.net/DTD/sodipodi-0.dtd" xmlns:inkscape="http://www.inkscape.org/namespaces/inkscape" width="750" height="750" viewBox="0 0 750 750" version="1.1" id="SVGRoot" sodipodi:docname="M2-Eagle-Logo-750x750px-white-gradient-padded-wth-strk.svg" inkscape:version="1.0.2-2 (e86c870879, 2021-01-15)" inkscape:export-filename="C:\Users\Martin Dynamx\Desktop\MEAGLE\M2-Eagle-Logo-750x750px-white.png" inkscape:export-xdpi="96" inkscape:export-ydpi="96">
<sodipodi:namedview pagecolor="#ffffff" bordercolor="#666666" borderopacity="1" objecttolerance="10" gridtolerance="10" guidetolerance="10" inkscape:pageopacity="0" inkscape:pageshadow="2" inkscape:window-width="1920" inkscape:window-height="1027" id="namedview50" showgrid="false" inkscape:zoom="0.8277863387274366" inkscape:cx="360.4930899413437" inkscape:cy="372.8770375523915" inkscape:window-x="1672" inkscape:window-y="-8" inkscape:window-maximized="1" inkscape:current-layer="SVGRoot" />
<title id="title29">Magnificent Eagle</title>
<defs id="defs10">
<linearGradient id="linearGradient935">
<stop style="stop-color:#b3b3b3;stop-opacity:1" offset="0" id="stop931" />
<stop style="stop-color:#999999;stop-opacity:0.2494172454" offset="1" id="stop933" />
</linearGradient>
<linearGradient id="linearGradient925">
<stop style="stop-color:#999999;stop-opacity:1" offset="0" id="stop921" />
<stop style="stop-color:#000000;stop-opacity:1" offset="1" id="stop923" />
</linearGradient>
<linearGradient id="linearGradient915">
<stop style="stop-color:#ffffff;stop-opacity:1" offset="0" id="stop911" />
<stop style="stop-color:#999999;stop-opacity:1" offset="1" id="stop913" />
</linearGradient>
<linearGradient id="linearGradient905">
<stop style="stop-color:#cccccc;stop-opacity:1" offset="0" id="stop901" />
<stop style="stop-color:#4d4d4d;stop-opacity:0.235431239" offset="1" id="stop903" />
</linearGradient>
<linearGradient id="linearGradient893">
<stop style="stop-color:#b3b3b3;stop-opacity:0" offset="0" id="stop889" />
<stop style="stop-color:#666666;stop-opacity:1" offset="1" id="stop891" />
</linearGradient>
<linearGradient id="linearGradient885">
<stop style="stop-color:#ffffff;stop-opacity:1" offset="0" id="stop881" />
<stop style="stop-color:#000000;stop-opacity:1" offset="1" id="stop883" />
</linearGradient>
<linearGradient id="linearGradient858">
<stop style="stop-color:#f2f2f2;stop-opacity:1" offset="0" id="stop854" />
<stop style="stop-color:#cccccc;stop-opacity:1" offset="1" id="stop856" />
</linearGradient>
<linearGradient id="linearGradient873">
<stop style="stop-color:#cccccc;stop-opacity:1" offset="0" id="stop869" />
<stop style="stop-color:#1a1a1a;stop-opacity:1" offset="1" id="stop871" />
</linearGradient>
<color-profile name="Agfa-:-Swop-Standard" xlink:href="file:///C:/WINDOWS/system32/spool/drivers/color/RSWOP.icm" id="color-profile27" />
<radialGradient xlink:href="#linearGradient873" id="radialGradient875" cx="379.6566467285156" cy="527.366943359375" fx="379.6566467285156" fy="527.366943359375" r="374.4676039564795" gradientTransform="matrix(2.356797854650432,-0.9278498620813955,0.6206649300390058,1.754532475337422,-839.4150918595413,-26.21427482245118)" gradientUnits="userSpaceOnUse" />
<radialGradient xlink:href="#linearGradient873" id="radialGradient877" gradientUnits="userSpaceOnUse" gradientTransform="matrix(1.666619748738234,-0.6219595035208599,0.4389058771888899,1.176104229647834,-483.7788601662107,120.5813553166154)" cx="379.6566467285156" cy="527.366943359375" fx="379.6566467285156" fy="527.366943359375" r="374.4676039564795" />
<radialGradient xlink:href="#linearGradient873" id="radialGradient879" gradientUnits="userSpaceOnUse" gradientTransform="matrix(1.666619748738234,-0.6219595035208599,0.4389058771888899,1.176104229647834,-483.7788601662107,120.5813553166154)" cx="379.6566467285156" cy="527.366943359375" fx="379.6566467285156" fy="527.366943359375" r="374.4676039564795" />
<radialGradient xlink:href="#linearGradient873" id="radialGradient881" gradientUnits="userSpaceOnUse" gradientTransform="matrix(1.666619748738234,-0.6219595035208599,0.4389058771888899,1.176104229647834,-483.7788601662107,120.5813553166154)" cx="379.6566467285156" cy="527.366943359375" fx="379.6566467285156" fy="527.366943359375" r="374.4676039564795" />
<radialGradient xlink:href="#linearGradient873" id="radialGradient883" gradientUnits="userSpaceOnUse" gradientTransform="matrix(1.666619748738234,-0.6219595035208599,0.4389058771888899,1.176104229647834,-483.7788601662107,120.5813553166154)" cx="379.6566467285156" cy="527.366943359375" fx="379.6566467285156" fy="527.366943359375" r="374.4676039564795" />
<radialGradient xlink:href="#linearGradient905" id="radialGradient885" gradientUnits="userSpaceOnUse" gradientTransform="matrix(-0.052756652885195,0.9454663445484252,-0.9275747320614563,-0.0517585063001339,806.5622424984369,369.5867279891392)" cx="72.18603515625" cy="467.0356140136719" fx="72.18603515625" fy="467.0356140136719" r="374.4676039564795" />
<linearGradient xlink:href="#linearGradient893" id="linearGradient895" x1="381.7409973144531" y1="357.5801696777344" x2="379.3249206542969" y2="263.3529968261719" gradientUnits="userSpaceOnUse" />
<radialGradient xlink:href="#linearGradient915" id="radialGradient919" gradientUnits="userSpaceOnUse" gradientTransform="matrix(-7.022937271415038e-4,1.151227747195062,-1.380335417813738,-8.420583224292546e-4,462.1939305643419,492.8520343761235)" cx="-48.35765075683594" cy="64.20550537109375" fx="-48.35765075683594" fy="64.20550537109375" r="374.4676039564795" />
<radialGradient xlink:href="#linearGradient935" id="radialGradient929" gradientUnits="userSpaceOnUse" gradientTransform="matrix(-7.022936985240791e-4,0.5705434940443987,-1.380334628940686,-0.0016990822293855,462.1938799157323,464.8265337153306)" cx="-48.35765075683594" cy="64.20550537109375" fx="-48.35765075683594" fy="64.20550537109375" r="374.4676039564795" />
<linearGradient xlink:href="#linearGradient893" id="linearGradient939" gradientUnits="userSpaceOnUse" x1="381.7409973144531" y1="357.5801696777344" x2="391.4053344726562" y2="864.95751953125" />
</defs>
<metadata id="metadata13">
<rdf:RDF>
<cc:Work rdf:about="">
<dc:format>image/svg+xml</dc:format>
<dc:type rdf:resource="http://purl.org/dc/dcmitype/StillImage" />
<dc:title>Magnificent Eagle</dc:title>
<dc:date>3/29/21</dc:date>
<dc:creator>
<cc:Agent>
<dc:title>Miciah Martin</dc:title>
</cc:Agent>
</dc:creator>
<dc:rights>
<cc:Agent>
<dc:title>Copyright CC</dc:title>
</cc:Agent>
</dc:rights>
<dc:publisher>
<cc:Agent>
<dc:title>Miciah Martin</dc:title>
</cc:Agent>
</dc:publisher>
<dc:identifier>ME13</dc:identifier>
<dc:language>XML,SVG.EN-US,PNG,HTML</dc:language>
<dc:subject>
<rdf:Bag>
<rdf:li>Miciah Martin</rdf:li>
<rdf:li>Logo</rdf:li>
<rdf:li>Eagle</rdf:li>
</rdf:Bag>
</dc:subject>
<dc:coverage>Global</dc:coverage>
<dc:description>A composite logo drawing that  includes two forms: the letter &quot;M&quot; and an Eagle. Designed by Miciah Martin.</dc:description>
<dc:contributor>
<cc:Agent>
<dc:title>Jesus Christ Talent Provisioners and Miciah Martin</dc:title>
</cc:Agent>
</dc:contributor>
<cc:license rdf:resource="http://creativecommons.org/licenses/by-nc/4.0/" />
</cc:Work>
<cc:License rdf:about="http://creativecommons.org/licenses/by-nc/4.0/">
<cc:permits rdf:resource="http://creativecommons.org/ns#Reproduction" />
<cc:permits rdf:resource="http://creativecommons.org/ns#Distribution" />
<cc:requires rdf:resource="http://creativecommons.org/ns#Notice" />
<cc:requires rdf:resource="http://creativecommons.org/ns#Attribution" />
<cc:prohibits rdf:resource="http://creativecommons.org/ns#CommercialUse" />
<cc:permits rdf:resource="http://creativecommons.org/ns#DerivativeWorks" />
</cc:License>
</rdf:RDF>
<rdf:RDF>
<cc:Work rdf:about="">
<dc:title />
</cc:Work>
</rdf:RDF>
</metadata>
<g id="layer1" style="display:inline" />
<g id="g957" style="fill:#ffffff;fill-opacity:1;stroke:none" transform="matrix(1.390167265509616,0,0,1.396431549273126,-146.3127238126831,-148.6637857701514)">
<path id="path927" style="opacity:0.205761;fill:#ffffff;fill-opacity:1;stroke:none;stroke-width:2.9;stroke-linecap:butt;stroke-linejoin:miter;stroke-miterlimit:4;stroke-dasharray:none;stroke-opacity:0.979021;paint-order:fill markers stroke" d="M 110.3762583799131,115.7237901200921 152.7668250565333,155.9065195791684 152.9701167493564,595.8587832494994 110.19362180974,555.3102259141195 Z M 156.7448416165433,159.6773482268252 199.1291475062052,199.8541429808901 199.3324091742828,639.80637819026 156.5622320204999,599.2638095900837 Z M 639.6237416200871,110.1936218097399 597.2331749434678,150.3763512688164 597.0298832506438,592.1755402819666 639.80637819026,551.6269829465866 Z M 593.2551583834571,154.1471799164739 550.870852493795,194.3239746705375 550.6675908257183,637.1693428322247 593.4377679794995,595.5805666225502 Z M 547.3771487883426,197.6357150366745 518.3700106791749,225.1320679850677 V 387.1212239679168 L 548.5870456069143,351.1031225507541 Z M 203.2871895332704,203.7956207895642 201.414335553838,351.4723241282915 233.2127995423804,389.1177927826154 V 232.1626086637115 Z M 514.6574505783552,228.6512660007467 483.6103380387881,258.0813449421303 481.462633069749,296.0292446759262 412.1518430624944,352.2107272833669 403.4104766643931,318.5767254147718 404.9725694746716,315.9883866956516 430.5723840091646,314.510271160048 424.0160139204008,297.5086694369818 384.0535087280071,290.8551856885895 378.4349467897109,289.7462717305241 352.5216087645608,294.181927562786 342.5302918860862,325.228899937712 352.5216087645608,300.0956989306501 343.1545765458971,326.7083246987675 351.2730394449392,307.8580966371078 338.7845839272222,352.2107272833669 269.1630327508141,297.5086694369818 267.9324185209662,265.0739180826579 236.9253596432014,235.68180667939 V 393.5128626258569 L 293.8264202955909,460.8777490465139 319.1154736609307,432.0486045877183 307.2513028030242,478.6203723755605 374.3757153401895,561.0439699481279 442.1244125371651,478.9895739530981 431.8209533287861,433.8959217008593 457.7342913539359,459.3996335109109 514.6574505783552,391.5477152220126 Z M 368.2654601742552,303.9932631020322 C 368.2654601742552,303.9932631020322 382.6417922881216,304.9388583636318 385.8365872585721,305.2540472125601 389.0313822290232,305.5692360614852 394.6221508007308,306.8303546570833 394.6221508007308,306.8303546570833 L 385.5700232334763,312.5032285417316 C 385.5700232334763,312.5032285417316 387.4337195423066,310.296457254893 377.8493346309505,307.1445687656259 Z" />
<path id="path917" style="opacity:0.205761;fill:#ffffff;fill-opacity:1;stroke:none;stroke-width:2.9;stroke-linecap:butt;stroke-linejoin:miter;stroke-miterlimit:4;stroke-dasharray:none;stroke-opacity:0.979021;paint-order:fill markers stroke" d="M 110.3762583799131,115.723790120092 152.7668250565332,155.9065195791684 152.9701167493564,595.8587832494995 110.1936218097399,555.3102259141196 Z M 156.7448416165432,159.6773482268252 199.1291475062052,199.8541429808901 199.3324091742829,639.8063781902601 156.5622320204999,599.2638095900838 Z M 639.6237416200872,110.1936218097399 597.2331749434679,150.3763512688163 597.0298832506439,592.1755402819667 639.8063781902601,551.6269829465866 Z M 593.2551583834572,154.1471799164738 550.8708524937951,194.3239746705374 550.6675908257184,637.1693428322248 593.4377679794996,595.5805666225503 Z M 547.3771487883426,197.6357150366744 518.370010679175,225.1320679850676 V 387.1212239679168 L 548.5870456069144,351.1031225507541 Z M 203.2871895332704,203.7956207895641 201.414335553838,351.4723241282915 233.2127995423805,389.1177927826155 V 232.1626086637114 Z M 514.6574505783553,228.6512660007467 483.6103380387882,258.0813449421302 481.4626330697491,296.0292446759262 412.1518430624946,352.2107272833669 403.4104766643932,318.5767254147718 404.9725694746717,315.9883866956515 430.5723840091648,314.510271160048 424.016013920401,297.5086694369818 384.0535087280072,290.8551856885894 378.434946789711,289.7462717305241 352.5216087645609,294.1819275627859 342.5302918860863,325.228899937712 352.5216087645609,300.0956989306501 343.1545765458972,326.7083246987675 351.2730394449393,307.8580966371078 338.7845839272223,352.2107272833669 269.1630327508142,297.5086694369818 267.9324185209663,265.0739180826578 236.9253596432015,235.6818066793899 V 393.5128626258569 L 293.8264202955911,460.877749046514 319.1154736609308,432.0486045877184 307.2513028030243,478.6203723755605 374.3757153401896,561.043969948128 442.1244125371653,478.9895739530981 431.8209533287862,433.8959217008593 457.7342913539361,459.399633510911 514.6574505783553,391.5477152220126 Z M 368.2654601742553,303.9932631020322 C 368.2654601742553,303.9932631020322 382.6417922881217,304.9388583636317 385.8365872585723,305.25404721256 389.0313822290233,305.5692360614851 394.6221508007309,306.8303546570832 394.6221508007309,306.8303546570832 L 385.5700232334764,312.5032285417315 C 385.5700232334764,312.5032285417315 387.4337195423067,310.2964572548929 377.8493346309506,307.1445687656258 Z" />
<path id="path875" style="display:inline;opacity:1;fill:#ffffff;fill-opacity:1;stroke:none;stroke-width:2.9;stroke-linecap:butt;stroke-linejoin:miter;stroke-miterlimit:4;stroke-dasharray:none;stroke-opacity:0.979021;paint-order:fill markers stroke" d="M 110.376258379913,115.7237901200918 152.7668250565329,155.906519579169 152.9701167493563,595.8587832494996 110.1936218097401,555.3102259141196 Z M 156.744841616543,159.6773482268248 199.1291475062052,199.8541429808901 199.3324091742827,639.80637819026 156.5622320204997,599.2638095900839 Z M 639.6237416200873,110.19362180974 597.233174943468,150.3763512688159 597.029883250644,592.1755402819668 639.8063781902598,551.6269829465868 Z M 593.2551583834574,154.1471799164739 550.8708524937951,194.3239746705379 550.6675908257176,637.1693428322248 593.4377679795004,595.5805666225495 Z M 547.3771487883434,197.635715036674 518.3700106791751,225.1320679850679 V 387.121223967917 L 548.5870456069144,351.1031225507539 Z M 203.2871895332703,203.7956207895639 201.414335553838,351.472324128291 233.2127995423804,389.1177927826148 V 232.162608663711 Z M 514.6574505783546,228.651266000746 483.6103380387881,258.0813449421299 481.4626330697488,296.0292446759259 412.1518430624948,352.210727283367 403.4104766643932,318.5767254147719 404.9725694746717,315.988386695651 430.5723840091646,314.5102711600479 424.0160139204011,297.5086694369819 384.0535087280073,290.8551856885889 378.4349467897107,289.746271730524 352.5216087645606,294.181927562786 342.5302918860864,325.2288999377119 352.5216087645606,300.09569893065 343.1545765458974,326.7083246987669 351.2730394449393,307.8580966371079 338.784583927222,352.210727283367 269.1630327508141,297.5086694369819 267.9324185209664,265.073918082658 236.9253596432014,235.68180667939 V 393.5128626258569 L 293.8264202955909,460.8777490465139 319.1154736609308,432.0486045877179 307.2513028030244,478.620372375561 374.3757153401896,561.0439699481279 442.1244125371658,478.9895739530979 431.8209533287859,433.8959217008591 457.734291353936,459.399633510911 514.6574505783546,391.547715222012 Z M 368.2654601742552,303.9932631020318 C 368.2654601742552,303.9932631020318 382.6417922881216,304.938858363632 385.8365872585721,305.2540472125598 389.0313822290234,305.569236061485 394.6221508007308,306.8303546570829 394.6221508007308,306.8303546570829 L 385.5700232334764,312.5032285417309 C 385.5700232334764,312.5032285417309 387.4337195423068,310.296457254893 377.8493346309505,307.1445687656259 Z" />
<path id="path937" style="display:inline;opacity:1;fill:#ffffff;fill-opacity:1;stroke:none;stroke-width:2.9;stroke-linecap:butt;stroke-linejoin:miter;stroke-miterlimit:4;stroke-dasharray:none;stroke-opacity:0.979021;paint-order:fill markers stroke" d="M 110.376258379913,115.7237901200918 152.7668250565329,155.906519579169 152.9701167493563,595.8587832494996 110.1936218097401,555.3102259141196 Z M 156.744841616543,159.6773482268248 199.1291475062052,199.8541429808901 199.3324091742827,639.80637819026 156.5622320204997,599.2638095900839 Z M 639.6237416200873,110.19362180974 597.233174943468,150.3763512688159 597.029883250644,592.1755402819668 639.8063781902598,551.6269829465868 Z M 593.2551583834574,154.1471799164739 550.8708524937951,194.3239746705379 550.6675908257176,637.1693428322248 593.4377679795004,595.5805666225495 Z M 547.3771487883434,197.635715036674 518.3700106791751,225.1320679850679 V 387.121223967917 L 548.5870456069144,351.1031225507539 Z M 203.2871895332703,203.7956207895639 201.414335553838,351.472324128291 233.2127995423804,389.1177927826148 V 232.162608663711 Z M 514.6574505783546,228.651266000746 483.6103380387881,258.0813449421299 481.4626330697488,296.0292446759259 412.1518430624948,352.210727283367 403.4104766643932,318.5767254147719 404.9725694746717,315.988386695651 430.5723840091646,314.5102711600479 424.0160139204011,297.5086694369819 384.0535087280073,290.8551856885889 378.4349467897107,289.746271730524 352.5216087645606,294.181927562786 342.5302918860864,325.2288999377119 352.5216087645606,300.09569893065 343.1545765458974,326.7083246987669 351.2730394449393,307.8580966371079 338.784583927222,352.210727283367 269.1630327508141,297.5086694369819 267.9324185209664,265.073918082658 236.9253596432014,235.68180667939 V 393.5128626258569 L 293.8264202955909,460.8777490465139 319.1154736609308,432.0486045877179 307.2513028030244,478.620372375561 374.3757153401896,561.0439699481279 442.1244125371658,478.9895739530979 431.8209533287859,433.8959217008591 457.734291353936,459.399633510911 514.6574505783546,391.547715222012 Z M 368.2654601742552,303.9932631020318 C 368.2654601742552,303.9932631020318 382.6417922881216,304.938858363632 385.8365872585721,305.2540472125598 389.0313822290234,305.569236061485 394.6221508007308,306.8303546570829 394.6221508007308,306.8303546570829 L 385.5700232334764,312.5032285417309 C 385.5700232334764,312.5032285417309 387.4337195423068,310.296457254893 377.8493346309505,307.1445687656259 Z" />
<path id="path907" style="opacity:0.205761;fill:#ffffff;fill-opacity:1;stroke:none;stroke-width:2.9;stroke-linecap:square;stroke-linejoin:miter;stroke-miterlimit:4;stroke-dasharray:none;stroke-opacity:0.979021;paint-order:fill markers stroke" d="M 110.376258379913,115.7237901200919 152.7668250565329,155.9065195791683 152.9701167493562,595.8587832494996 110.1936218097398,555.3102259141196 Z M 156.7448416165432,159.6773482268251 199.1291475062051,199.85414298089 199.3324091742829,639.8063781902601 156.5622320204998,599.2638095900838 Z M 639.6237416200872,110.1936218097399 597.2331749434679,150.3763512688163 597.0298832506439,592.1755402819667 639.8063781902601,551.6269829465866 Z M 593.2551583834572,154.1471799164737 550.8708524937951,194.3239746705374 550.6675908257184,637.1693428322248 593.4377679794996,595.5805666225503 Z M 547.3771487883431,197.6357150366742 518.370010679175,225.1320679850676 V 387.1212239679165 L 548.5870456069144,351.1031225507538 Z M 203.2871895332702,203.7956207895639 201.4143355538379,351.4723241282913 233.2127995423805,389.1177927826153 V 232.1626086637112 Z M 514.6574505783553,228.6512660007466 483.6103380387882,258.0813449421301 481.4626330697491,296.0292446759262 412.1518430624946,352.2107272833667 403.4104766643932,318.5767254147718 404.9725694746717,315.9883866956512 430.5723840091648,314.510271160048 424.016013920401,297.5086694369817 384.0535087280072,290.8551856885893 378.434946789711,289.746271730524 352.5216087645608,294.1819275627856 342.5302918860863,325.2288999377119 352.5216087645608,300.0956989306501 343.1545765458972,326.7083246987673 351.2730394449393,307.8580966371078 338.7845839272223,352.2107272833667 269.1630327508141,297.5086694369817 267.9324185209662,265.0739180826579 236.9253596432014,235.6818066793898 V 393.5128626258569 L 293.8264202955911,460.877749046514 319.1154736609308,432.0486045877184 307.2513028030243,478.6203723755605 374.3757153401896,561.043969948128 442.1244125371653,478.9895739530981 431.8209533287862,433.8959217008593 457.7342913539361,459.399633510911 514.6574505783553,391.5477152220126 Z M 368.2654601742552,303.9932631020322 C 368.2654601742552,303.9932631020322 382.6417922881216,304.9388583636315 385.8365872585723,305.2540472125598 389.0313822290233,305.5692360614852 394.6221508007309,306.8303546570829 394.6221508007309,306.8303546570829 L 385.5700232334763,312.5032285417314 C 385.5700232334763,312.5032285417314 387.4337195423067,310.2964572548928 377.8493346309505,307.1445687656257 Z" />
<path id="path901" style="opacity:1;fill:#ffffff;fill-opacity:1;stroke:none;stroke-width:2.9;stroke-linecap:butt;stroke-linejoin:miter;stroke-miterlimit:4;stroke-dasharray:none;stroke-opacity:0.979021;paint-order:fill markers stroke" d="M 110.376258379913,115.7237901200921 152.766825056533,155.9065195791687 152.9701167493563,595.8587832494994 110.19362180974,555.3102259141196 Z M 156.7448416165436,159.6773482268255 199.1291475062052,199.8541429808902 199.3324091742832,639.8063781902601 156.5622320204999,599.2638095900837 Z M 639.623741620087,110.1936218097398 597.2331749434679,150.3763512688167 597.0298832506439,592.1755402819666 639.8063781902599,551.6269829465868 Z M 593.255158383457,154.1471799164739 550.8708524937949,194.3239746705378 550.6675908257191,637.1693428322248 593.4377679794996,595.5805666225503 Z M 547.3771487883426,197.6357150366744 518.370010679175,225.132067985068 V 387.1212239679169 L 548.5870456069151,351.1031225507539 Z M 203.2871895332702,203.7956207895641 201.414335553838,351.4723241282916 233.2127995423805,389.1177927826155 V 232.1626086637116 Z M 514.657450578356,228.6512660007468 483.6103380387881,258.0813449421303 481.462633069749,296.0292446759266 412.1518430624948,352.2107272833671 403.4104766643933,318.5767254147722 404.9725694746718,315.9883866956512 430.572384009165,314.5102711600484 424.0160139204012,297.5086694369821 384.0535087280074,290.8551856885895 378.4349467897112,289.7462717305244 352.5216087645611,294.1819275627856 342.5302918860864,325.2288999377121 352.5216087645611,300.0956989306504 343.1545765458974,326.7083246987676 351.2730394449394,307.8580966371081 338.7845839272225,352.2107272833671 269.1630327508143,297.5086694369821 267.9324185209663,265.0739180826581 236.9253596432017,235.68180667939 V 393.5128626258572 L 293.8264202955913,460.8777490465142 319.1154736609309,432.0486045877187 307.2513028030245,478.6203723755606 374.3757153401897,561.043969948128 442.124412537165,478.9895739530983 431.8209533287864,433.8959217008596 457.734291353936,459.3996335109114 514.657450578356,391.5477152220129 Z M 368.2654601742554,303.9932631020325 C 368.2654601742554,303.9932631020325 382.6417922881218,304.9388583636315 385.8365872585725,305.2540472125601 389.0313822290234,305.5692360614855 394.622150800731,306.830354657083 394.622150800731,306.830354657083 L 385.5700232334765,312.5032285417312 C 385.5700232334765,312.5032285417312 387.4337195423068,310.2964572548926 377.8493346309507,307.1445687656255 Z" />
</g>
</svg>
