<?xml version="1.0" encoding="UTF-8" standalone="no"?>
<svg
   data-name="Layer 1"
   width="512"
   height="512"
   viewBox="0 0 512 511.99999"
   version="1.1"
   id="svg110"
   xmlns:xlink="http://www.w3.org/1999/xlink"
   xmlns="http://www.w3.org/2000/svg"
   xmlns:svg="http://www.w3.org/2000/svg"
   xmlns:rdf="http://www.w3.org/1999/02/22-rdf-syntax-ns#"
   xmlns:cc="http://creativecommons.org/ns#">
  <defs
     id="defs12">
    <linearGradient
       id="e6219774-622b-406f-ae45-f26a74b1f5cd-478"
       x1="477.09"
       y1="779.21997"
       x2="477.09"
       y2="120.78"
       gradientUnits="userSpaceOnUse">
      <stop
         offset="0"
         stop-color="gray"
         stop-opacity="0.25"
         id="stop2" />
      <stop
         offset="0.54"
         stop-color="gray"
         stop-opacity="0.12"
         id="stop4" />
      <stop
         offset="1"
         stop-color="gray"
         stop-opacity="0.1"
         id="stop6" />
    </linearGradient>
    <linearGradient
       id="2394db48-9094-48a1-80b4-38413320a0c3-479"
       x1="309.42001"
       y1="623"
       x2="309.42001"
       y2="461"
       xlink:href="#e6219774-622b-406f-ae45-f26a74b1f5cd-478" />
    <linearGradient
       id="894cb520-7283-4f65-92a7-edb841614828-480"
       x1="773.41998"
       y1="549"
       x2="773.41998"
       y2="387"
       xlink:href="#e6219774-622b-406f-ae45-f26a74b1f5cd-478" />
    <linearGradient
       id="43bfcda2-dcfb-4411-a28b-16db327cb63c-481"
       x1="664.41998"
       y1="277"
       x2="664.41998"
       y2="115"
       xlink:href="#e6219774-622b-406f-ae45-f26a74b1f5cd-478" />
  </defs>
  <metadata
     id="metadata936">
    <rdf:RDF>
      <cc:Work
         rdf:about="" />
    </rdf:RDF>
  </metadata>
  <g
     id="g3389"
     transform="matrix(0.65483191,0,0,0.65483191,517.71522,-152.33627)">
    <g
       id="g2223"
       transform="translate(-1205.7418,-7.6140389)">
      <g
         opacity="0.7"
         id="g62"
         transform="translate(209.13422,7.9044189)">
        <rect
           x="218.03999"
           y="461"
           width="182.77"
           height="162"
           rx="21.34"
           ry="21.34"
           fill="url(#2394db48-9094-48a1-80b4-38413320a0c3-479)"
           id="rect60"
           style="fill:url(#2394db48-9094-48a1-80b4-38413320a0c3-479)" />
      </g>
      <rect
         x="433.94418"
         y="468.90442"
         width="176"
         height="156"
         rx="21.34"
         ry="21.34"
         fill="#e0e0e0"
         id="rect64" />
      <path
         d="m 487.5568,618.73881 v -11.71 a 1.16,1.16 0 0 0 -1.32,-1.18 12.53,12.53 0 0 0 -4.83,1.07 v 11.79 h -3.3 v -21.68 h 3.29 v 7.16 a 15.7,15.7 0 0 1 5.29,-1.07 c 3,0 4.11,1.84 4.11,4.36 v 11.25 h -3.26 z m 9.41,-7.08 c 0.11,3.92 0.88,4.69 3.29,4.69 a 17,17 0 0 0 5.68,-1.26 l 0.55,2.47 a 15.37,15.37 0 0 1 -6.44,1.56 c -5.49,0 -6.34,-3 -6.34,-7.82 a 26.07,26.07 0 0 1 0.82,-7.21 18.82,18.82 0 0 1 6.61,-1 c 4.5,0 5.87,2.5 5.87,6.86 v 1.67 h -10 z m 4.17,-5.79 a 22.05,22.05 0 0 0 -3.84,0.27 17.45,17.45 0 0 0 -0.36,3.24 h 6.86 c 0,-2.28 -0.41,-3.51 -2.66,-3.51 z m 12,1.07 v 11.79 h -3.29 v -13.27 a 19,19 0 0 1 7.63,-2.11 v 2.74 a 14,14 0 0 0 -4.33,0.85 z m 13,12.18 c -4.91,0 -7.13,-2.41 -7.13,-7.93 0,-5.84 2.93,-8.06 7.13,-8.06 4.91,0 7.13,2.41 7.13,7.93 0,5.84 -2.94,8.06 -7.13,8.06 z m 0,-13.25 c -2.52,0 -3.92,1.45 -3.92,5.32 0,4.22 1.18,5.16 3.92,5.16 2.52,0 3.92,-1.43 3.92,-5.29 0,-4.22 -1.18,-5.18 -3.92,-5.18 z m 23,12.86 h -3.87 a 21.44,21.44 0 0 0 -4.11,-7 h -1.73 v 7 h -3.22 v -21.7 h 3.29 v 12.45 h 1.54 a 20,20 0 0 0 3.87,-6 h 3.7 a 25.74,25.74 0 0 1 -4.69,6.64 46.5,46.5 0 0 1 5.29,8.58 z m 6.17,0.38 c -3,0 -4.11,-1.84 -4.11,-4.36 v -11.23 h 3.26 v 11.66 a 1.16,1.16 0 0 0 1.32,1.18 13.31,13.31 0 0 0 5,-1.07 v -11.77 h 3.33 v 13.22 a 17.45,17.45 0 0 1 -8.73,2.38 z m -1.45,-27.61 h -65.57 a 10.16,10.16 0 0 1 -10.18,-10.15 v -86.25 a 10.16,10.16 0 0 1 10.16,-10.16 h 65.63 a 10.17,10.17 0 0 1 10.21,10.16 v 86.25 a 10.16,10.16 0 0 1 -10.17,10.16 z"
         fill="#6762a6"
         id="path66" />
      <path
         d="m 531.9968,576.84881 v -42.32 c 0,0 2.75,-10.13 -33.91,4.14 -0.07,0.18 -0.07,-39.14 -0.07,-39.14 l 12,-0.07 v 25.19 c 0,0 33.54,-13.21 33.54,10 v 42.18 h -11.56 z m 6.83,-62.15 h -12.72 c 4.57,-5.59 8.71,-15.17 8.71,-15.17 h 13.14 c 0,0 -2.25,6.24 -9.15,15.17 z m -40.59,62.07 v -24.1 l 12.05,12.05 z"
         fill="#ffffff"
         id="path68" />
    </g>
    <path
       id="a2347809-d406-465d-97ee-6d57ebf46a78-355"
       data-name="Path 4"
       d="m -41.6696,696.82728 a 86.0521,86.0521 0 0 1 -10.5015,-6.44446 86.92357,86.92357 0 0 1 -17.7142,-16.95147 83.7608,83.7608 0 0 1 -6.81889,-10.1256 81.81273,81.81273 0 0 1 -4.48767,-9.25457 77.52607,77.52607 0 0 1 -3.19538,-9.51255 72.92394,72.92394 0 0 1 -1.87035,-9.62062 68.32012,68.32012 0 0 1 -0.52415,-9.5848 q 0.007,-0.271 0.0125,-0.53837 0.005,-0.26737 0.0126,-0.53837 0.007,-0.271 0.0208,-0.53484 l 0.0263,-0.53247 q -0.22971,0.18132 -0.45877,0.36619 l -0.45668,0.37144 -0.4547,0.37445 -0.45286,0.37525 -0.2911,0.241 -0.29189,0.24285 -0.29044,0.24455 -0.28729,0.2448 0.3959,-0.46591 0.40665,-0.4809 q 0.20117,-0.23159 0.40379,-0.46146 0.20262,-0.22987 0.4118,-0.45477 l 0.32794,-0.17959 0.32624,-0.17814 0.31821,-0.17723 0.32361,-0.17709 0.0202,-0.007 0.0205,-0.01 0.0205,-0.01 0.0206,-0.007 0.13058,-0.0714 0.12965,-0.0718 0.1265,-0.0721 0.12335,-0.0724 0.56429,-0.30262 0.56232,-0.298 0.56193,-0.29711 0.56233,-0.298 -0.43959,-0.21828 -1.06863,-0.53272 0.007,-0.004 q 0.13794,0.0589 0.27313,0.12431 0.13519,0.0654 0.27234,0.12615 0.1378,0.0643 0.27155,0.128 0.13375,0.0637 0.27037,0.13075 l 0.103,0.044 0.10483,0.0448 0.10575,0.0452 a 0.70753,0.70753 0 0 1 0.10155,0.0499 l -0.01,0.16992 -0.0124,0.15889 -0.009,0.15824 -0.009,0.16046 a 64.9805,64.9805 0 0 0 0.83662,16.14519 72.71274,72.71274 0 0 0 4.77914,15.95062 79.62154,79.62154 0 0 0 8.46972,15.0122 83.98137,83.98137 0 0 0 11.8589,13.30782 85.4479,85.4479 0 0 0 14.46,10.43474 83.21627,83.21627 0 0 0 7.8778,3.975 80.63856,80.63856 0 0 0 8.1876,3.07648 q -0.1839,0.27267 -0.3753,0.53995 -0.1914,0.26728 -0.3876,0.53038 -0.197,0.2627 -0.3987,0.52343 -0.2017,0.26073 -0.408,0.51727 -1.6099,-0.53345 -3.2028,-1.13466 -1.5929,-0.60121 -3.1696,-1.26837 -1.5766,-0.66716 -3.1317,-1.40011 -1.5551,-0.73295 -3.0913,-1.52537 z"
       fill="#ffffff" />
    <path
       id="e3ba7b84-95ab-4be0-b084-77760c6da15d-357"
       data-name="Path 1"
       d="m -38.4135,450.73714 -2.871,0.373 19.25,-72.249 a 31.1879,31.1879 0 0 0 0.673,-14.853 19.606,19.606 0 0 0 -5.987,-10.465 22.412,22.412 0 0 0 -11.275,-5.233 38.793,38.793 0 0 0 -15.276,0.684 v 0 l -130.82804,29.794 a 46.1996,46.1996 0 0 0 -12.961,5.332 67.96751,67.96751 0 0 0 -12.134,9.2 74.16767,74.16767 0 0 0 -10.159,11.847 60.38994,60.38994 0 0 0 -7.016,13.408 v 0 l -136.885,376.499 a 77.74244,77.74244 0 0 0 -4.4,19.21 58.29213,58.29213 0 0 0 0.839,17.455 35.862,35.862 0 0 0 5.908,13.871 22.537,22.537 0 0 0 10.842,8.178 v 0 l 138.228,47.586 a 35.98937,35.98937 0 0 0 19.077,1.136 47.78446,47.78446 0 0 0 18.695,-8.609 66.20753,66.20753 0 0 0 15.782,-16.913 79.75411,79.75411 0 0 0 10.361,-23.31 v 0 l 92.67204,-347.808 2.908,-0.233 z"
       fill="#2f2e41" />
    <path
       id="b5993d63-c6a8-428b-8f96-914fd0c3ef98-358"
       data-name="Path 1"
       d="m -48.4135,446.73714 -2.871,0.373 19.25,-72.249 a 31.1879,31.1879 0 0 0 0.673,-14.853 19.606,19.606 0 0 0 -5.987,-10.465 22.412,22.412 0 0 0 -11.275,-5.233 38.793,38.793 0 0 0 -15.276,0.684 v 0 l -130.82804,29.794 a 46.1996,46.1996 0 0 0 -12.961,5.332 67.96751,67.96751 0 0 0 -12.134,9.2 74.16767,74.16767 0 0 0 -10.159,11.847 60.38994,60.38994 0 0 0 -7.016,13.408 v 0 l -136.885,376.499 a 77.74244,77.74244 0 0 0 -4.4,19.21 58.29213,58.29213 0 0 0 0.839,17.455 35.862,35.862 0 0 0 5.908,13.871 22.537,22.537 0 0 0 10.842,8.178 v 0 l 138.228,47.586 a 35.98937,35.98937 0 0 0 19.077,1.136 47.78446,47.78446 0 0 0 18.695,-8.609 66.20753,66.20753 0 0 0 15.782,-16.913 79.75411,79.75411 0 0 0 10.361,-23.31 v 0 l 92.67204,-347.808 2.908,-0.233 z"
       fill="#3f3d56" />
    <path
       id="f76bb9a3-d246-4a39-a954-55c4fdcd575d-359"
       data-name="Path 2"
       d="m -65.0566,354.42114 -19.23096,4.213 a 11.21675,11.21675 0 0 1 -0.485,4.945 20.00019,20.00019 0 0 1 -2.579,5.234 27.793,27.793 0 0 1 -9.734,8.759 q -0.7,0.372 -1.395,0.687 -0.695,0.315 -1.39,0.572 -0.692,0.257 -1.375,0.454 -0.683,0.197 -1.35,0.332 l -75.19,15.225 a 8.92215,8.92215 0 0 1 -4.235,-0.048 5.2,5.2 0 0 1 -2.8,-1.886 6.20589,6.20589 0 0 1 -1.142,-3.38 11.91923,11.91923 0 0 1 0.721,-4.549 q 0.2,-0.589 0.456,-1.186 0.256,-0.597 0.558,-1.194 0.3,-0.6 0.655,-1.194 0.355,-0.594 0.749,-1.187 l -14.237,3.119 a 34.19422,34.19422 0 0 0 -9.736,3.94 50.63352,50.63352 0 0 0 -9.156,6.9 55.39245,55.39245 0 0 0 -7.67,8.932 44.98356,44.98356 0 0 0 -5.265,10.107 l -136.628,379.771 a 57.81808,57.81808 0 0 0 -3.246,14.478 43.02588,43.02588 0 0 0 0.737,13.06 26.348,26.348 0 0 0 4.537,10.266 16.72,16.72 0 0 0 8.167,5.935 v 0 l 139.245,45.238 a 27.10035,27.10035 0 0 0 14.206,0.637 35.9807,35.9807 0 0 0 13.81,-6.479 49.53288,49.53288 0 0 0 11.632,-12.5 59.48867,59.48867 0 0 0 7.687,-17.178 v 0 l 127.22596,-469.482 a 23.52291,23.52291 0 0 0 0.577,-11.046 14.745,14.745 0 0 0 -4.357,-7.867 16.61,16.61 0 0 0 -8.343,-4.021 28.64674,28.64674 0 0 0 -11.419,0.393 z"
       fill="#ffffff" />
    <path
       d="M -139.7312,534.28529 H -416.72695 V 440.41962 H -139.7312 Z"
       fill="#ffffff"
       id="path2255" />
    <rect
       x="-500.4776"
       y="656.49036"
       width="271.47424"
       height="131.59598"
       fill="#ffffff"
       id="rect2257" />
    <path
       d="m -402.73364,597.87889 a 3.27279,3.27279 0 0 0 0,6.54558 h 154.28881 a 3.2728,3.2728 0 0 0 0,-6.54558 z"
       fill="#e6e6e6"
       id="path2261" />
    <path
       d="m -402.73364,617.5156 a 3.2728,3.2728 0 1 0 -0.0138,6.54558 h 66.40474 a 3.27279,3.27279 0 1 0 0,-6.54558 z"
       fill="#e6e6e6"
       id="path2263" />
    <path
       d="m -324.51225,473.64492 a 3.27279,3.27279 0 0 0 0,6.54558 h 154.28881 a 3.2728,3.2728 0 0 0 0,-6.54558 z"
       fill="#e6e6e6"
       id="path2273" />
    <path
       d="m -324.51225,493.28163 a 3.2728,3.2728 0 1 0 -0.0138,6.54558 h 121.40475 a 3.27279,3.27279 0 1 0 0,-6.54558 z"
       fill="#e6e6e6"
       id="path2275" />
    <path
       id="ecbdc040-0b9a-4be9-8952-5ef77de340c4-360"
       data-name="Ellipse 1"
       d="m -34.636,601.31157 a 5.78588,5.78588 0 0 1 2.348,0.4 5.54084,5.54084 0 0 1 1.887,1.255 5.6089,5.6089 0 0 1 1.234,1.915 5.95792,5.95792 0 0 1 0.39,2.382 6.43894,6.43894 0 0 1 -0.571,2.412 6.75574,6.75574 0 0 1 -1.384,2 6.678,6.678 0 0 1 -1.99,1.372 6.25384,6.25384 0 0 1 -2.389,0.546 5.779,5.779 0 0 1 -2.346,-0.421 5.53912,5.53912 0 0 1 -1.875,-1.265 5.613,5.613 0 0 1 -1.22,-1.916 5.962,5.962 0 0 1 -0.38,-2.371 6.441,6.441 0 0 1 0.569,-2.4 6.75611,6.75611 0 0 1 1.372,-1.982 6.68121,6.68121 0 0 1 1.976,-1.373 6.261,6.261 0 0 1 2.379,-0.554 z"
       fill="#f2f2f2" />
    <g
       id="g2239"
       transform="translate(-1108.497,287.38529)">
      <g
         opacity="0.7"
         id="g84">
        <rect
           x="573.03998"
           y="115"
           width="182.77"
           height="162"
           rx="21.34"
           ry="21.34"
           fill="url(#43bfcda2-dcfb-4411-a28b-16db327cb63c-481)"
           id="rect82"
           style="fill:url(#43bfcda2-dcfb-4411-a28b-16db327cb63c-481)" />
      </g>
      <rect
         x="576.41998"
         y="118"
         width="176"
         height="156"
         rx="21.34"
         ry="21.34"
         fill="#e0e0e0"
         id="rect86" />
      <path
         d="m 807.53,357.41 -23.66,-41 23.66,-41 h 47.31 l 23.66,41 -23.66,41 h -47.31"
         transform="translate(-167.6,-120.78)"
         fill="#cac9c2"
         id="path88" />
      <path
         d="M 832,335.14 A 18.44,18.44 0 1 1 850.44,316.7 18.46,18.46 0 0 1 832,335.14"
         transform="translate(-167.6,-120.78)"
         fill="#ffffff"
         id="path90" />
      <path
         d="m 869.08,261.72 a 10.13,10.13 0 0 0 -7.91,-4.57 h -58.3 a 10.13,10.13 0 0 0 -7.91,4.57 l -17,29.5 a 9.69,9.69 0 0 0 1.06,5.35 l 11.53,19.71 20.58,-35.56 h 65.06 a 9.5,9.5 0 0 1 4.76,1.5 l -11.84,-20.51"
         transform="translate(-167.6,-120.78)"
         fill="#5072aa"
         id="path92" />
      <path
         d="m 778.67,289.94 -0.75,1.29 a 9.7,9.7 0 0 0 1.06,5.35 l 11.53,19.71 6.13,-10.6 -18,-15.76"
         transform="translate(-167.6,-120.78)"
         fill="#4d6796"
         id="path94" />
      <path
         d="m 804.37,272.32 a 3.56,3.56 0 1 1 3.56,-3.56 3.56,3.56 0 0 1 -3.56,3.56 m 58.3,-3.56 a 3.2952428,3.2952428 0 1 1 -6.59,0.08 c 0,0 0,-0.06 0,-0.08 a 3.295,3.295 0 0 1 6.59,0 z"
         transform="translate(-167.6,-120.78)"
         fill="#ffffff"
         id="path96" />
      <path
         d="m 898.22,312.21 -17.31,-30 a 9.5,9.5 0 0 0 -4.76,-1.5 H 852.7 l 20.3,35.78 -32.12,56.75 a 9.28,9.28 0 0 1 -3.3,3.16 h 23.6 a 10.13,10.13 0 0 0 7.91,-4.57 l 29.15,-50.49 a 10.12,10.12 0 0 0 0,-9.13"
         transform="translate(-167.6,-120.78)"
         fill="#cc4232"
         id="path98" />
      <path
         d="m 881.7,283.58 -0.78,-1.35 a 9.49,9.49 0 0 0 -4.76,-1.5 H 852.7 l 6.11,10.76 22.89,-7.92"
         transform="translate(-167.6,-120.78)"
         fill="#b23f33"
         id="path100" />
      <path
         d="m 859.37,367.68 a 3.56,3.56 0 1 1 3.56,-3.56 3.56,3.56 0 0 1 -3.56,3.56 m 27.69,-47.42 a 3.56,3.56 0 1 1 3.56,-3.56 3.56,3.56 0 0 1 -3.56,3.56"
         transform="translate(-167.6,-120.78)"
         fill="#ffffff"
         id="path102" />
      <path
         d="M 811.55,352.26 779,296.58 a 9.7,9.7 0 0 1 -1.06,-5.35 l -12.11,21 a 10.13,10.13 0 0 0 0,9.13 L 795,371.83 a 10.13,10.13 0 0 0 7.91,4.56 h 34.69 a 9.28,9.28 0 0 0 3.3,-3.16 l 11.88,-21 h -41.23"
         transform="translate(-167.6,-120.78)"
         fill="#ecb02a"
         id="path104" />
      <path
         d="m 835.59,376.4 h 2 a 9.27,9.27 0 0 0 3.3,-3.16 l 11.88,-21 h -12.63 l -4.55,24.14"
         transform="translate(-167.6,-120.78)"
         fill="#c79732"
         id="path106" />
      <path
         d="m 804.37,367.68 a 3.56,3.56 0 1 1 3.56,-3.56 3.56,3.56 0 0 1 -3.56,3.56 m -27.74,-47.42 a 3.56,3.56 0 1 1 3.56,-3.56 3.56,3.56 0 0 1 -3.56,3.56"
         transform="translate(-167.6,-120.78)"
         fill="#ffffff"
         id="path108" />
    </g>
    <g
       id="g2247"
       transform="translate(-1277.8376,230.29038)">
      <g
         opacity="0.7"
         id="g72">
        <rect
           x="682.03998"
           y="387"
           width="182.77"
           height="162"
           rx="21.34"
           ry="21.34"
           fill="url(#894cb520-7283-4f65-92a7-edb841614828-480)"
           id="rect70"
           style="fill:url(#894cb520-7283-4f65-92a7-edb841614828-480)" />
      </g>
      <rect
         x="685.41998"
         y="390"
         width="176"
         height="156"
         rx="21.34"
         ry="21.34"
         fill="#e0e0e0"
         id="rect74" />
      <path
         d="m 909.6,577 a 14.49,14.49 0 0 0 0.53,4.26 25.64,25.64 0 0 0 1.53,3.45 2.08,2.08 0 0 1 0.34,1.1 1.9,1.9 0 0 1 -0.91,1.44 l -3,2 a 2.3,2.3 0 0 1 -1.25,0.43 2.2,2.2 0 0 1 -1.44,-0.67 14.82,14.82 0 0 1 -1.72,-2.25 c -0.48,-0.81 -1,-1.72 -1.48,-2.83 a 17.69,17.69 0 0 1 -14.08,6.61 c -4,0 -7.23,-1.15 -9.58,-3.45 a 13.51,13.51 0 0 1 0.81,-19.06 c 2.92,-2.49 6.8,-3.74 11.73,-3.74 a 37.92,37.92 0 0 1 5.08,0.38 c 1.77,0.24 3.59,0.62 5.51,1.05 v -3.5 c 0,-3.64 -0.77,-6.18 -2.25,-7.66 -1.48,-1.48 -4.12,-2.2 -7.81,-2.2 a 21.79,21.79 0 0 0 -5.17,0.62 38.16,38.16 0 0 0 -5.17,1.63 13.74,13.74 0 0 1 -1.68,0.62 2.94,2.94 0 0 1 -0.77,0.14 c -0.67,0 -1,-0.48 -1,-1.48 v -2.35 a 3,3 0 0 1 0.34,-1.68 3.59,3.59 0 0 1 1.34,-1 27.57,27.57 0 0 1 6,-2.16 29,29 0 0 1 7.47,-0.91 c 5.7,0 9.87,1.29 12.55,3.88 2.68,2.59 4,6.51 4,11.78 V 577 Z m -19.44,7.28 a 15.52,15.52 0 0 0 4.93,-0.86 10.67,10.67 0 0 0 4.55,-3.07 7.6,7.6 0 0 0 1.63,-3.07 17.19,17.19 0 0 0 0.48,-4.17 v -2 a 40,40 0 0 0 -4.41,-0.81 36.09,36.09 0 0 0 -4.5,-0.29 c -3.21,0 -5.56,0.62 -7.14,1.92 a 6.84,6.84 0 0 0 4.45,12.36 z m 38.46,5.17 a 2.67,2.67 0 0 1 -1.82,-0.48 3.9,3.9 0 0 1 -1,-1.87 l -11.25,-37 a 8.39,8.39 0 0 1 -0.43,-1.92 1.05,1.05 0 0 1 1.15,-1.2 h 4.69 a 2.65,2.65 0 0 1 1.87,0.48 3.92,3.92 0 0 1 1,1.87 l 8,31.71 7.47,-31.71 a 3.36,3.36 0 0 1 0.91,-1.87 3.29,3.29 0 0 1 1.92,-0.48 h 3.83 a 2.88,2.88 0 0 1 1.92,0.48 3.23,3.23 0 0 1 0.91,1.87 l 7.57,32.09 8.29,-32.09 a 4.11,4.11 0 0 1 1,-1.87 3.12,3.12 0 0 1 1.87,-0.48 h 4.45 a 1.06,1.06 0 0 1 1.2,1.2 4.78,4.78 0 0 1 -0.1,0.77 6.81,6.81 0 0 1 -0.34,1.2 l -11.54,37 a 3.67,3.67 0 0 1 -1,1.87 3.06,3.06 0 0 1 -1.82,0.48 h -4.12 a 2.88,2.88 0 0 1 -1.92,-0.48 3.4,3.4 0 0 1 -0.91,-1.92 l -7.42,-30.89 -7.38,30.84 a 3.74,3.74 0 0 1 -0.91,1.92 3,3 0 0 1 -1.92,0.48 z m 61.54,1.29 a 31.69,31.69 0 0 1 -7.38,-0.86 21.79,21.79 0 0 1 -5.51,-1.92 3.45,3.45 0 0 1 -1.48,-1.34 3.38,3.38 0 0 1 -0.29,-1.34 v -2.44 c 0,-1 0.38,-1.48 1.1,-1.48 a 2.71,2.71 0 0 1 0.86,0.14 c 0.29,0.1 0.72,0.29 1.2,0.48 a 26.05,26.05 0 0 0 5.27,1.68 28.76,28.76 0 0 0 5.7,0.57 12.92,12.92 0 0 0 7,-1.58 5.16,5.16 0 0 0 2.49,-4.55 4.66,4.66 0 0 0 -1.29,-3.35 12,12 0 0 0 -4.84,-2.49 L 986,570.1 c -3.5,-1.1 -6.08,-2.73 -7.66,-4.89 a 11.41,11.41 0 0 1 -2.39,-6.94 10.66,10.66 0 0 1 1.29,-5.32 12.31,12.31 0 0 1 3.45,-3.93 15.2,15.2 0 0 1 5,-2.49 20.87,20.87 0 0 1 6,-0.81 24,24 0 0 1 3.21,0.19 c 1.1,0.14 2.11,0.34 3.11,0.53 1,0.19 1.87,0.48 2.73,0.77 a 10.45,10.45 0 0 1 2,0.86 4.14,4.14 0 0 1 1.44,1.2 2.58,2.58 0 0 1 0.43,1.58 v 2.25 c 0,1 -0.38,1.53 -1.1,1.53 a 5,5 0 0 1 -1.82,-0.57 21.91,21.91 0 0 0 -9.2,-1.87 12.36,12.36 0 0 0 -6.37,1.34 4.62,4.62 0 0 0 -2.25,4.26 4.52,4.52 0 0 0 1.44,3.4 14.31,14.31 0 0 0 5.27,2.63 l 6.8,2.16 c 3.45,1.1 5.94,2.63 7.42,4.6 a 10.84,10.84 0 0 1 2.2,6.71 12.31,12.31 0 0 1 -1.25,5.56 12.88,12.88 0 0 1 -3.5,4.21 15.44,15.44 0 0 1 -5.32,2.68 22.77,22.77 0 0 1 -6.85,1 z"
         transform="translate(-167.6,-120.78)"
         fill="#252f3e"
         id="path76" />
      <path
         d="m 999.21,614 c -15.76,11.64 -38.65,17.82 -58.33,17.82 a 105.53,105.53 0 0 1 -71.22,-27.16 c -1.48,-1.34 -0.14,-3.16 1.63,-2.11 a 141.44,141.44 0 0 0 125.62,7.81 c 2.63,-1.2 4.89,1.72 2.3,3.64 z"
         transform="translate(-167.6,-120.78)"
         fill="#ff9900"
         id="path78" />
      <path
         d="m 1005.77,606.55 c -2,-2.59 -13.31,-1.25 -18.44,-0.62 -1.53,0.19 -1.77,-1.15 -0.38,-2.16 9,-6.32 23.8,-4.5 25.53,-2.39 1.73,2.11 -0.48,17 -8.91,24 -1.29,1.1 -2.54,0.53 -2,-0.91 1.95,-4.71 6.21,-15.39 4.2,-17.92 z"
         transform="translate(-167.6,-120.78)"
         fill="#ff9900"
         id="path80" />
    </g>
  </g>
</svg>
