<?xml version="1.0" encoding="UTF-8" standalone="no"?>
<svg xmlns:dc="http://purl.org/dc/elements/1.1/" xmlns:cc="http://creativecommons.org/ns#" xmlns:rdf="http://www.w3.org/1999/02/22-rdf-syntax-ns#" xmlns:svg="http://www.w3.org/2000/svg" xmlns="http://www.w3.org/2000/svg" xmlns:xlink="http://www.w3.org/1999/xlink" id="svg8" version="1.1" viewBox="0 0 79.37499755859376 79.37500277777777" height="300" width="300">
<title id="title4747">Mic Header</title>
<defs id="defs2">
<color-profile id="color-profile3" xlink:href="C:\WINDOWS\system32\spool\drivers\color\Epson IJ Printer 07.icc" name="Epson-IJ-Printer-07" />
<color-profile id="color-profile5" xlink:href="C:\WINDOWS\system32\spool\drivers\color\RSWOP.icm" name="Agfa-:-Swop-Standard" />
<color-profile id="color-profile7" xlink:href="C:\WINDOWS\system32\spool\drivers\color\sRGB Color Space Profile.icm" name="sRGB-IEC61966-2.1" />
<color-profile name="Agfa-:-Swop-Standard" xlink:href="C:\WINDOWS\system32\spool\drivers\color\RSWOP.icm" id="color-profile9" />
<color-profile name="Epson-IJ-Printer-07" xlink:href="C:\WINDOWS\system32\spool\drivers\color\Epson IJ Printer 07.icc" id="color-profile11" />
<color-profile name="sRGB-IEC61966-2.1" xlink:href="C:\WINDOWS\system32\spool\drivers\color\sRGB Color Space Profile.icm" id="color-profile13" />
<color-profile name="Agfa-:-Swop-Standard" xlink:href="C:\WINDOWS\system32\spool\drivers\color\RSWOP.icm" id="color-profile15" />
<color-profile name="Epson-IJ-Printer-07" xlink:href="C:\WINDOWS\system32\spool\drivers\color\Epson IJ Printer 07.icc" id="color-profile17" />
<color-profile name="sRGB-IEC61966-2.1" xlink:href="C:\WINDOWS\system32\spool\drivers\color\sRGB Color Space Profile.icm" id="color-profile19" />
<color-profile name="Agfa-:-Swop-Standard" xlink:href="C:\WINDOWS\system32\spool\drivers\color\RSWOP.icm" id="color-profile21" />
<color-profile name="Epson-IJ-Printer-07" xlink:href="C:\WINDOWS\system32\spool\drivers\color\Epson IJ Printer 07.icc" id="color-profile23" />
<color-profile name="sRGB-IEC61966-2.1" xlink:href="C:\WINDOWS\system32\spool\drivers\color\sRGB Color Space Profile.icm" id="color-profile25" />
<linearGradient id="linearGradient1484">
<stop id="stop1480" offset="0" style="stop-color:#ed9090;stop-opacity:1" />
<stop id="stop1482" offset="1" style="stop-color:#ed9090;stop-opacity:0;" />
</linearGradient>
<linearGradient id="linearGradient1396">
<stop id="stop1392" offset="0" style="stop-color:#e7d9d9;stop-opacity:1;" />
<stop id="stop1394" offset="1" style="stop-color:#e7d9d9;stop-opacity:0;" />
</linearGradient>
<marker style="overflow:visible" id="Arrow1Lend" refX="0" refY="0" orient="auto">
<path transform="matrix(-0.8,0,0,-0.8,-10,0)" style="fill-rule:evenodd;stroke:#000000;stroke-width:1.0000000298pt" d="M 0,0 5,-5 -12.5,0 5,5 Z" id="path1059" />
</marker>
<marker style="overflow:visible" id="Arrow1Lstart" refX="0" refY="0" orient="auto">
<path transform="matrix(0.8,0,0,0.8,10,0)" style="fill-rule:evenodd;stroke:#000000;stroke-width:1.0000000298pt" d="M 0,0 5,-5 -12.5,0 5,5 Z" id="path1056" />
</marker>
<linearGradient gradientTransform="translate(1993.653940697528,-3355.464028049773)" gradientUnits="userSpaceOnUse" y2="1364.152709960938" x2="-1580.150512695312" y1="1581.699096679688" x1="-1655.11572265625" id="linearGradient1398" xlink:href="#linearGradient1396" />
<linearGradient gradientTransform="matrix(0.12907898,-0.00512102,-0.03447335,0.13064983,277.3855955281125,-678.1781478524848)" gradientUnits="userSpaceOnUse" y2="924.7864379882812" x2="991.5699462890625" y1="1186.71044921875" x1="943.7584228515625" id="linearGradient1486" xlink:href="#linearGradient1484" />
</defs>
<metadata id="metadata5">
<rdf:RDF>
<cc:Work rdf:about="">
<dc:format>image/svg+xml</dc:format>
<dc:type rdf:resource="http://purl.org/dc/dcmitype/StillImage" />
<dc:title>Mic Header</dc:title>
<dc:date>9/30/20</dc:date>
<dc:creator>
<cc:Agent>
<dc:title>Miciah Martin</dc:title>
</cc:Agent>
</dc:creator>
<dc:rights>
<cc:Agent>
<dc:title>Copyright</dc:title>
</cc:Agent>
</dc:rights>
<dc:publisher>
<cc:Agent>
<dc:title>https://github.com/Miciah1</dc:title>
</cc:Agent>
</dc:publisher>
<dc:identifier>MCH</dc:identifier>
<dc:source>https://github.com/Miciah1/images</dc:source>
<dc:relation>https://github.com/Miciah1</dc:relation>
<dc:language>EN-US,XML,SVG,PNG,HTML</dc:language>
<dc:subject>
<rdf:Bag>
<rdf:li>Header;Miciah;Martin</rdf:li>
</rdf:Bag>
</dc:subject>
<dc:coverage>Global</dc:coverage>
<dc:contributor>
<cc:Agent>
<dc:title>Jesus Christ, Miciah martin</dc:title>
</cc:Agent>
</dc:contributor>
<dc:description>A stylistic Header image creatd by Miciah Martin</dc:description>
<cc:license rdf:resource="http://creativecommons.org/licenses/by-nd/4.0/" />
</cc:Work>
<cc:License rdf:about="http://creativecommons.org/licenses/by-nd/4.0/">
<cc:permits rdf:resource="http://creativecommons.org/ns#Reproduction" />
<cc:permits rdf:resource="http://creativecommons.org/ns#Distribution" />
<cc:requires rdf:resource="http://creativecommons.org/ns#Notice" />
<cc:requires rdf:resource="http://creativecommons.org/ns#Attribution" />
</cc:License>
</rdf:RDF>
</metadata>
<g style="stroke-width:1.9301594496" transform="matrix(0.558118271874533,0,0,0.4809361057855594,-71.0640947256785,-50.16339564325603)" id="g4837">
<path style="fill:#ff0000;fill-opacity:1;stroke:none;stroke-width:9.1413154602;stroke-linecap:butt;stroke-linejoin:miter;stroke-miterlimit:4;stroke-dasharray:none;stroke-opacity:1" d="m 129.7690841959587,104.3036591343446 0.7866757521785,58.3215599742564 31.6639207332656,37.7882050554303 v -0.015112637672 l 0.073055166565,0.1029545418962 8.908555248e-4,9.430285919e-4 34.90773206111,48.6381358762561 h 2.4740648493846 l 34.9807881399724,-48.7420334467433 0.3046926429201,48.7420334467429 h 0.1015657347963 31.7975558054908 l 0.2458907078028,-143.6153958092022 -68.6679701991916,92.5932401309753 z m 0.7661847534274,61.691678175399 -0.5194019950427,83.1450076633572 h 31.7975576300794 0.1015643663548 l 0.2842011424051,-45.5551577909064 z" id="path13557" />
<g style="fill:#000000;fill-opacity:1;stroke-width:4.1821751595" transform="matrix(0.4401555319575408,0,0,0.4839225583218349,89.24116597076178,256.3217501288472)" id="g14365">
<g aria-label="MICIAH" transform="matrix(0,-1.232505901449465,1.404447073820966,0,-116.5169101017197,-3.551289413434006)" style="font-style:normal;font-variant:normal;font-weight:300;font-stretch:normal;font-size:35.1036262512px;line-height:0;font-family:'Segoe UI';-inkscape-font-specification:'Segoe UI Light';letter-spacing:0px;word-spacing:0px;writing-mode:vertical-lr;fill:#000000;fill-opacity:1;stroke:none;stroke-width:0.8410415649" id="text14289">
<path d="m -24.2902135848999,165.8801573049277 h 17.448970470577474 q 0.634196372702717,0 3.616633368656039,0.1885448675603 v -0.068561770022 q -1.388375842943789,-0.5313537176699 -2.142555313184857,-0.8913030102849 L -24.2902135848999,156.3672117143869 v -0.5484941601753 l 18.820205871015783,-8.7759065628052 q 0.90844345279038,-0.4285110626369 2.313959738239719,-0.8056007977575 v -0.085702212527 q -1.64548248052604,0.1199830975384 -3.273824518546535,0.1199830975384 H -24.2902135848999 v -1.6969038080424 H 0.2891809679567814 v 1.576920710504 l -19.797211093828082,9.1701367404312 q -0.17140442505479,0.085702212527 -0.46279194764793,0.1885448675603 -0.29138752259314,0.1028426550329 -0.58277504518628,0.2228257525712 -0.44565150514245,0.1714044250548 -0.99414566531777,0.3599492926151 v 0.1028426550329 l 0.54849416017532,0.1885448675602 q 0.0685617700219,0.017140442506 1.62834203802049,0.5827750451863 l 19.6600875537842512,9.0330132003874 v 1.5083589404821 H -24.2902135848999 Z" style="fill:#000000;fill-opacity:1;stroke-width:0.8410415649" id="path14295" />
<path d="M -24.2902135848999,173.8161815851927 H 0.2891809679567814 v 1.6969038080424 H -24.2902135848999 Z" style="fill:#000000;fill-opacity:1;stroke-width:0.8410415649" id="path14297" />
<path d="m -23.48461278714239,198.155610466376 q -1.23411186039448,-2.9824369959534 -1.23411186039448,-6.2219806294889 0,-5.0392900966108 3.37666717357933,-8.2274124026298 3.39380761608482,-3.1709818635136 8.84446833282709,-3.1709818635136 5.982014434412127,0 9.581507360562682,3.4452289436012 3.6166333686560387,3.4452289436013 3.6166333686560387,8.7587661202997 0,2.828173013404 -0.9084434527903766,5.4163798317314 H -2.007638327777386 q 1.1655500903725637,-2.5882068183274 1.1655500903725637,-5.4506607167423 0,-4.6279194764793 -3.1367009785026316,-7.5246542599052 -3.136700978502632,-2.896734783426 -8.347395500168206,-2.896734783426 -5.0221496541053,0 -7.93602488003671,2.7596112433821 -2.89673478342593,2.7767516858876 -2.89673478342593,7.0275814272464 0,3.3938076160848 1.31981407292188,6.084857089445 z" style="fill:#000000;fill-opacity:1;stroke-width:0.8410415649" id="path14299" />
<path d="M -24.2902135848999,203.6234115809202 H 0.2891809679567814 v 1.6969038080424 H -24.2902135848999 Z" style="fill:#000000;fill-opacity:1;stroke-width:0.8410415649" id="path14301" />
<path d="m -24.2902135848999,227.6371663324535 7.64463735744357,-2.8110325708985 v -10.6613552384079 l -7.64463735744357,-2.8110325708985 v -1.8683082330972 l 24.5793945528566801,9.272979395464 v 1.6112015955151 L -24.2902135848999,229.5397554505616 Z m 20.568531006574627,-7.5417947024107 q 0.514213275164366,-0.1885448675603 1.011286107823253,-0.3085279650986 0.428511062636972,-0.1199830975384 0.857022125273943,-0.2571066375822 v -0.068561770022 q -1.131269205361605,-0.2913875225932 -1.834027348086238,-0.5656346026808 l -11.398394266143446,-4.1308466438204 1e-14,9.4786647055298 z" style="fill:#000000;fill-opacity:1;stroke-width:0.8410415649" id="path14303" />
<path d="m -24.2902135848999,249.4740891754627 h 11.79262444376945 V 235.4017858784646 H -24.2902135848999 v -1.6969038080424 H 0.2891809679567814 v 1.6969038080424 H -10.95494931563735 v 14.0723032969981 H 0.2891809679567814 v 1.679763365537 H -24.2902135848999 Z" style="fill:#000000;fill-opacity:1;stroke-width:0.8410415649" id="path14305" />
</g>
<g aria-label="MARTIN" transform="matrix(1.327280418426039,0,0,1.304162468403229,-138.0143060259746,-3.551288330366276)" style="font-style:normal;font-variant:normal;font-weight:300;font-stretch:normal;font-size:34.3084640503px;line-height:0;font-family:'Segoe UI';-inkscape-font-specification:'Segoe UI Light';letter-spacing:0px;word-spacing:0px;writing-mode:lr-tb;fill:#000000;fill-opacity:1;stroke:none;stroke-width:0.8410415649" id="text14293">
<path d="M 320.6620132811368,23.36056518554687 V 6.306846238672735 q 0,-0.619830649346115 0.1842739768326,-3.534709919244053 h -0.067008718848 q -0.5193175710738,1.35692655667663 -0.871113345027,2.094022464007142 l -8.5436116531491,18.494406402111046 h -0.5360697507859 L 302.251367777586,4.966671861708165 q -0.4188044928014,-0.887865524739027 -0.7873524464667,-2.261544261127711 h -0.08376089856 q 0.1172652579844,1.608209252357483 0.1172652579844,3.199666325002914 V 23.36056518554687 h -1.6584657914936 V -0.6620605215430257 h 1.5412005335092 l 8.9624161459506,19.3487675674259662 q 0.08376089856,0.16752179712057 0.1842739768326,0.45230885222554 0.1005130782723,0.28478705510497 0.2177783362567,0.56957411020994 0.1675217971207,0.43555667251348 0.3517957739532,0.97162642329932 h 0.1005130782724 l 0.1842739768327,-0.53606975078584 q 0.016752179712,-0.0670087188482 0.56957411021,-1.59145707264543 l 8.8283987082541,-19.2147501297294986 h 1.474191814661 V 23.36056518554687 Z" style="fill:#000000;fill-opacity:1;stroke-width:0.8410415649" id="path14308" />
<path d="m 344.0983121469617,23.36056518554687 -2.7473574727774,-7.47147215157747 h -10.4198557808996 l -2.7473574727774,7.47147215157747 h -1.8259875886143 l 9.0629292242229,-24.0226257070898974 h 1.5747048929335 L 345.957804095,23.36056518554687 Z M 336.7273530736566,3.257949531078339 q -0.1842739768327,-0.502565391361714 -0.3015392348171,-0.98837860301137 -0.1172652579844,-0.418804492801428 -0.2512826956808,-0.837608985602856 h -0.067008718848 q -0.284787055105,1.10564386099577 -0.5528219304978,1.79248322919011 L 331.517425183207,14.36464468017221 h 9.2639553807676 z" style="fill:#000000;fill-opacity:1;stroke-width:0.8410415649" id="path14310" />
<path d="m 362.324683226645,23.36056518554687 -3.1996663250029,-7.03591547906398 q -0.9883786030114,-2.17778336256743 -1.9767572060227,-2.91487926989794 -0.9883786030114,-0.75384808704257 -2.4793225973845,-0.75384808704257 h -2.9818879887462 v 10.70464283600449 h -1.6584657914936 V -0.6620605215430257 h 6.6673675253987 q 3.1829141452909,0 4.992149554193,1.7254745103418827 1.8259875886143,1.708722330629824 1.8259875886143,4.523088522255426 0,2.596587855368847 -1.4909439943731,4.338814545422787 -1.4909439943731,1.74222669005394 -4.1712927483022,2.24479208141565 v 0.0670087188482 q 1.4239352755246,0.56957411020994 2.7808618322014,3.46770120039582 l 3.5682142786682,7.6557461284101 z m -10.6376341171563,-22.4981773532927 V 11.14822617545724 h 4.137788388878 q 2.7473574727774,0 4.3555667251349,-1.440687455236912 1.6249614320695,-1.440687455236912 1.6249614320695,-3.953514412045479 0,-2.295048620551825 -1.4574396349491,-3.584966458380224 -1.457439634949,-1.3066700175404237 -4.1712927483022,-1.3066700175404237 z" style="fill:#000000;fill-opacity:1;stroke-width:0.8410415649" id="path14312" />
<path d="m 375.5756530277431,0.8623878322541711 v 22.4981773532927 h -1.6417136117816 v -22.4981773532927 h -6.9354024007916 v -1.5244483537971968 h 15.5125184133649 v 1.5244483537971968 z" style="fill:#000000;fill-opacity:1;stroke-width:0.8410415649" id="path14314" />
<path d="M 386.6153447926045,23.36056518554687 V -0.6620605215430257 h 1.6584657914936 V 23.36056518554687 Z" style="fill:#000000;fill-opacity:1;stroke-width:0.8410415649" id="path14316" />
<path d="M 411.4420742467046,23.36056518554687 397.1357127726078,3.94478889927268 Q 396.7001561000943,3.358462609350681 396.3651125058532,2.772136319428682 L 396.1473341695964,2.43709272518754 h -0.067008718848 q 0.033504359424,0.435556672513485 0.033504359424,1.055387321859598 V 23.36056518554687 h -1.6584657914936 V -0.6620605215430257 h 1.2731656581163 L 409.9343780726194,18.5861939676106 q 0.4690610319376,0.63658282905817 1.0218829624355,1.54120053350925 h 0.08376089856 q -0.08376089856,-1.172652579844 -0.08376089856,-2.01026156544685 V -0.6620605215430257 h 1.6584657914937 V 23.36056518554687 Z" style="fill:#000000;fill-opacity:1;stroke-width:0.8410415649" id="path14318" />
</g>
</g>
</g>
</svg>
