<?xml version="1.0" encoding="UTF-8" standalone="no"?>
<svg
   data-name="Layer 1"
   width="512"
   height="512"
   viewBox="0 0 512.00001 512"
   version="1.1"
   id="svg141"
   xmlns="http://www.w3.org/2000/svg"
   xmlns:svg="http://www.w3.org/2000/svg">
  <defs
     id="defs145" />
  <g
     id="g2619"
     transform="matrix(0.70071686,0,0,0.75371843,-1.0638164,91.381212)">
    <path
       d="m 301.40294,550.64024 a 26.09656,26.09656 0 0 0 -12.0484,-14.71516 c -0.56739,-0.31806 -0.0439,-1.18184 0.5228,-0.86416 a 27.14437,27.14437 0 0 1 12.50633,15.33795 c 0.19878,0.62009 -0.783,0.8581 -0.98073,0.24137 z"
       transform="translate(-234.16922,-231.81006)"
       fill="#ffffff"
       id="path8" />
    <path
       d="m 248.94086,532.87 a 7.66414,7.66414 0 0 0 1.26221,-7.162 c -0.20655,-0.61726 0.77552,-0.85462 0.98072,-0.24137 a 8.58819,8.58819 0 0 1 -1.37878,7.92612 0.522,0.522 0 0 1 -0.69348,0.17068 0.50755,0.50755 0 0 1 -0.17067,-0.69348 z"
       transform="translate(-234.16922,-231.81006)"
       fill="#ffffff"
       id="path10" />
    <path
       d="m 322.18476,528.70207 a 26.0966,26.0966 0 0 0 -0.76043,-19.00321 c -0.26154,-0.59556 0.67649,-0.97006 0.93771,-0.37522 a 27.14434,27.14434 0 0 1 0.7511,19.77617 c -0.21462,0.61479 -1.14184,0.21371 -0.92838,-0.39774 z"
       transform="translate(-234.16922,-231.81006)"
       fill="#ffffff"
       id="path18" />
    <path
       d="m 953.079,528.88983 a 7.66408,7.66408 0 0 1 -2.133,-6.95249 c 0.1291,-0.638 -0.8747,-0.75281 -1.003,-0.119 a 8.58826,8.58826 0 0 0 2.34259,7.69654 0.522,0.522 0 0 0 0.70921,0.0841 0.50756,0.50756 0 0 0 0.0841,-0.7092 z"
       transform="translate(-234.16922,-231.81006)"
       fill="#ffffff"
       id="path30" />
    <path
       d="m 904.14421,463.57217 a 90.24508,90.24508 0 0 1 -8.866,54.81175 38.86267,38.86267 0 0 1 -7.00162,9.962 22.28937,22.28937 0 0 1 -10.28194,5.64752 c -3.59106,0.94026 -7.3732,1.48618 -10.67317,3.283 a 13.64793,13.64793 0 0 0 -6.63051,8.97867 c -1.14356,4.65616 -0.54589,9.44555 0.20135,14.10886 0.82967,5.17771 1.77346,10.54258 0.21727,15.68063 -0.18855,0.62255 0.78846,0.87872 0.97672,0.25712 2.70751,-8.93933 -1.81746,-17.95736 -0.89662,-26.99531 0.42967,-4.21727 2.13288,-8.33061 5.82493,-10.67766 3.22853,-2.0524 7.12823,-2.6187 10.77248,-3.5393 a 23.78438,23.78438 0 0 0 10.25927,-5.14748 35.92751,35.92751 0 0 0 7.35879,-9.65609 87.55379,87.55379 0 0 0 9.1374,-25.79385 91.84528,91.84528 0 0 0 0.57481,-31.19085 c -0.0986,-0.64078 -1.07107,-0.36563 -0.97314,0.271 z"
       transform="translate(-234.16922,-231.81006)"
       fill="#ffffff"
       id="path34" />
    <path
       d="m 898.381,513.11088 a 13.53964,13.53964 0 0 0 16.37059,-6.27611 c 0.30986,-0.57121 -0.56321,-1.07955 -0.87348,-0.50758 a 12.53741,12.53741 0 0 1 -15.24,5.807 c -0.61207,-0.2185 -0.86568,0.75947 -0.25711,0.97673 z"
       transform="translate(-234.16922,-231.81006)"
       fill="#ffffff"
       id="path36" />
    <path
       d="m 879.87823,533.75655 a 26.09656,26.09656 0 0 1 -1.58117,-18.95257 c 0.18634,-0.6232 -0.79061,-0.87956 -0.97673,-0.25711 a 27.14439,27.14439 0 0 0 1.68545,19.71852 c 0.28856,0.58375 1.15944,0.0717 0.87245,-0.50884 z"
       transform="translate(-234.16922,-231.81006)"
       fill="#ffffff"
       id="path38" />
    <path
       d="m 905.20431,484.49558 a 7.66406,7.66406 0 0 1 -5.88893,-4.267 c -0.281,-0.58712 -1.15164,-0.0745 -0.87245,0.50884 a 8.5882,8.5882 0 0 0 6.50427,4.73485 0.522,0.522 0 0 0 0.61692,-0.3598 0.50755,0.50755 0 0 0 -0.35981,-0.61692 z"
       transform="translate(-234.16922,-231.81006)"
       fill="#ffffff"
       id="path40" />
    <path
       d="m 871.49841,246.80994 h -143.79 v 9.25 a 2.03965,2.03965 0 0 0 0.46045,1.3 c -0.29,7.23005 -0.46045,16.46 -0.46045,26.49 v 247.3 c 0,23.18 0.93018,42.04 2.07032,42.04 h 139.6499 c 1.14014,0 2.06982,-18.86 2.06982,-42.04 v -247.3 c 0,-10.03 -0.16992,-19.25994 -0.46,-26.49 a 2.03925,2.03925 0 0 0 0.46,-1.3 z"
       transform="translate(-234.16922,-231.81006)"
       fill="#ffffff"
       id="path42" />
    <path
       d="m 869.42859,574.18994 h -139.6499 c -1.08838,0 -1.80738,0 -2.46143,-13.27832 -0.39258,-7.96826 -0.60889,-18.53808 -0.60889,-29.76172 V 283.8501 c 0,-9.69385 0.16382,-19.11572 0.46119,-26.53028 0.186,-4.45166 0.39917,-8.01757 0.6333,-10.60009 0.45947,-5.05567 0.89648,-5.90967 1.97583,-5.90967 h 139.6499 c 1.07935,0 1.51611,0.854 1.97583,5.90967 0.23462,2.59228 0.44751,6.1582 0.63306,10.59814 l 2.4e-4,0.002 c 0.29712,7.40674 0.46069,16.82862 0.46069,26.53028 v 247.2998 c 0,11.22412 -0.21606,21.79395 -0.60864,29.76172 -0.65377,13.27832 -1.37277,13.27832 -2.46118,13.27832 z m -139.08179,-2 h 138.51367 c 0.72364,-2.73291 1.63794,-17.57031 1.63794,-41.04 V 283.8501 c 0,-9.6753 -0.16308,-19.06787 -0.459,-26.44824 h -2.4e-4 c -0.18409,-4.40821 -0.395,-7.94141 -0.62647,-10.50147 a 28.88406,28.88406 0 0 0 -0.56177,-4.09033 H 730.35632 a 28.89649,28.89649 0 0 0 -0.56176,4.09033 c -0.2312,2.55029 -0.4419,6.0835 -0.62671,10.50147 -0.29615,7.38671 -0.45948,16.78027 -0.45948,26.44824 v 247.2998 c 0,23.46924 0.91456,38.3071 1.63843,41.04004 z"
       transform="translate(-234.16922,-231.81006)"
       fill="#e4e4e4"
       id="path44"
       style="fill:#000000" />
    <path
       d="m 869.42859,241.80994 h -139.6499 a 2.07433,2.07433 0 0 0 -2.07032,2.07 v 12.18 a 2.03965,2.03965 0 0 0 0.46045,1.3 2.0795,2.0795 0 0 0 1.60987,0.77 h 139.6499 a 2.08023,2.08023 0 0 0 1.60986,-0.77 2.03925,2.03925 0 0 0 0.46,-1.3 v -12.18 a 2.0739,2.0739 0 0 0 -2.06986,-2.07 z"
       transform="translate(-234.16922,-231.81006)"
       fill="#cacaca"
       id="path46"
       style="fill:#1a1a1a" />
    <circle
       id="b800b2fc-3bcc-4a40-9972-a80335d602c8"
       data-name="Ellipse 90"
       cx="505.55902"
       cy="17.56535"
       r="2.93962"
       fill="#ffffff" />
    <circle
       id="fa63cc97-e384-451c-9b8c-3b6845b8b0f6"
       data-name="Ellipse 91"
       cx="516.71686"
       cy="17.56535"
       r="2.93962"
       fill="#ffffff" />
    <circle
       id="beaeadfc-8efd-4e6c-adaf-945ac9d4d623"
       data-name="Ellipse 92"
       cx="527.87524"
       cy="17.56535"
       r="2.93962"
       fill="#ffffff" />
    <path
       d="m 858.49841,245.45 h -12.85009 a 0.95609,0.95609 0 0 0 -0.94971,0.95 0.80091,0.80091 0 0 0 0.1001,0.41 0.94344,0.94344 0 0 0 0.84961,0.54 h 12.85009 a 0.948,0.948 0 0 0 0.86036,-0.54 0.91378,0.91378 0 0 0 0.0898,-0.41 0.94956,0.94956 0 0 0 -0.9502,-0.95 z"
       transform="translate(-234.16922,-231.81006)"
       fill="#ffffff"
       id="path51" />
    <path
       d="m 858.49841,249.02 h -12.85009 a 0.95,0.95 0 0 0 0,1.9 h 12.85009 a 0.95,0.95 0 1 0 0,-1.9 z"
       transform="translate(-234.16922,-231.81006)"
       fill="#ffffff"
       id="path53" />
    <path
       d="m 858.49841,252.59 h -12.85009 a 0.95,0.95 0 0 0 0,1.9 h 12.85009 a 0.95,0.95 0 1 0 0,-1.9 z"
       transform="translate(-234.16922,-231.81006)"
       fill="#ffffff"
       id="path55" />
    <path
       d="m 813.49841,284.83 h -26.43994 a 5.002,5.002 0 0 0 -5,5 v 22.9 a 5.0084,5.0084 0 0 0 5,5 h 26.43994 a 5.0147,5.0147 0 0 0 5,-5 v -22.9 a 5.00824,5.00824 0 0 0 -5,-5 z"
       transform="translate(-234.16922,-231.81006)"
       fill="#6c63ff"
       id="path57" />
    <path
       d="m 846.34851,332.68994 h -92.1499 a 2.27,2.27 0 1 0 0,4.54 h 92.1499 a 2.27,2.27 0 1 0 0,-4.54 z"
       transform="translate(-234.16922,-231.81006)"
       fill="#e4e4e4"
       id="path59" />
    <path
       d="m 789.19861,343.33 h -35 a 2.27,2.27 0 1 0 0,4.54 h 35 a 2.27,2.27 0 1 0 0,-4.54 z"
       transform="translate(-234.16922,-231.81006)"
       fill="#e4e4e4"
       id="path61" />
    <path
       d="m 813.49841,383.83 h -26.43994 a 5.002,5.002 0 0 0 -5,5 v 22.9 a 5.0084,5.0084 0 0 0 5,5 h 26.43994 a 5.0147,5.0147 0 0 0 5,-5 v -22.9 a 5.00824,5.00824 0 0 0 -5,-5 z"
       transform="translate(-234.16922,-231.81006)"
       fill="#6c63ff"
       id="path63" />
    <path
       d="m 846.34851,431.68994 h -92.1499 a 2.27,2.27 0 1 0 0,4.54 h 92.1499 a 2.27,2.27 0 1 0 0,-4.54 z"
       transform="translate(-234.16922,-231.81006)"
       fill="#e4e4e4"
       id="path65" />
    <path
       d="m 789.19861,442.33 h -35 a 2.27,2.27 0 1 0 0,4.54 h 35 a 2.27,2.27 0 1 0 0,-4.54 z"
       transform="translate(-234.16922,-231.81006)"
       fill="#e4e4e4"
       id="path67" />
    <path
       d="m 813.49841,482.83 h -26.43994 a 5.002,5.002 0 0 0 -5,5 v 22.9 a 5.0084,5.0084 0 0 0 5,5 h 26.43994 a 5.0147,5.0147 0 0 0 5,-5 v -22.9 a 5.00824,5.00824 0 0 0 -5,-5 z"
       transform="translate(-234.16922,-231.81006)"
       fill="#6c63ff"
       id="path69" />
    <path
       d="m 846.34851,530.68994 h -92.1499 a 2.27,2.27 0 1 0 0,4.54 h 92.1499 a 2.27,2.27 0 1 0 0,-4.54 z"
       transform="translate(-234.16922,-231.81006)"
       fill="#e4e4e4"
       id="path71" />
    <path
       d="m 789.19861,541.33 h -35 a 2.27,2.27 0 1 0 0,4.54 h 35 a 2.27,2.27 0 1 0 0,-4.54 z"
       transform="translate(-234.16922,-231.81006)"
       fill="#e4e4e4"
       id="path73" />
    <path
       d="m 688.49841,234.87994 a 2.0739,2.0739 0 0 0 -2.06982,-2.07 h -369.6499 a 2.07433,2.07433 0 0 0 -2.07032,2.07 v 12.18 a 2.01687,2.01687 0 0 0 0.53028,1.37 c -0.33008,8.27 -0.53028,19.17 -0.53028,31.11 v 274.91 c 0,25.78 0.93018,46.74 2.07032,46.74 h 369.6499 c 1.14014,0 2.06982,-20.96 2.06982,-46.74 v -274.91 c 0,-11.94 -0.1997,-22.84 -0.52978,-31.11 a 2.01645,2.01645 0 0 0 0.52978,-1.37 z"
       transform="translate(-234.16922,-231.81006)"
       fill="#ffffff"
       id="path75" />
    <path
       d="m 686.42859,602.18994 h -369.6499 c -1.13,0 -1.81214,0 -2.46179,-14.6582 -0.39246,-8.855 -0.60853,-20.60352 -0.60853,-33.082 V 279.54 c 0,-11.50733 0.1886,-22.56983 0.53113,-31.1499 0.65735,-16.58008 1.406,-16.58008 2.53919,-16.58008 h 369.6499 c 1.13306,0 1.88184,0.003 2.53931,16.58008 v 0 c 0.342,8.57226 0.53051,19.63476 0.53051,31.1499 v 274.90971 c 0,12.479 -0.21606,24.22754 -0.60839,33.082 -0.64942,14.65823 -1.33155,14.65823 -2.46143,14.65823 z m -369.06616,-2 h 368.48242 c 0.81811,-3.13525 1.65356,-20.74023 1.65356,-45.74023 V 279.54 c 0,-11.48926 -0.188,-22.52393 -0.529,-31.06983 v -4.8e-4 c -0.4165,-10.50342 -0.90283,-13.69971 -1.13525,-14.65967 H 317.37329 c -0.23254,0.96 -0.71887,4.15625 -1.1355,14.65967 -0.34143,8.55468 -0.52942,19.58886 -0.52942,31.07031 v 274.90971 c 0,25 0.83563,42.60449 1.65406,45.74023 z"
       transform="translate(-234.16922,-231.81006)"
       fill="#e4e4e4"
       id="path77"
       style="fill:#00ffff" />
    <path
       d="m 686.42859,232.80994 h -369.6499 a 2.07433,2.07433 0 0 0 -2.07032,2.07 v 12.18 a 2.01687,2.01687 0 0 0 0.53028,1.37 2.05118,2.05118 0 0 0 1.54,0.7 h 369.6499 a 2.0512,2.0512 0 0 0 1.54,-0.7 2.01645,2.01645 0 0 0 0.52978,-1.37 v -12.18 a 2.0739,2.0739 0 0 0 -2.06974,-2.07 z"
       transform="translate(-234.16922,-231.81006)"
       fill="#cacaca"
       id="path79"
       style="fill:#00ffff" />
    <circle
       id="b7005a6f-2f7f-4001-b097-d8b6c117468f"
       data-name="Ellipse 90"
       cx="92.559029"
       cy="8.5653496"
       r="2.93962"
       fill="#ffffff" />
    <circle
       id="a0adf4f5-8105-4330-a35a-c3adb8f4e7bc"
       data-name="Ellipse 91"
       cx="103.71687"
       cy="8.5653496"
       r="2.93962"
       fill="#ffffff" />
    <circle
       id="a64b73a5-7207-44c1-bcaf-f99ab7b9c6dc"
       data-name="Ellipse 92"
       cx="114.87522"
       cy="8.5653496"
       r="2.93962"
       fill="#ffffff" />
    <path
       d="m 675.49841,236.45 h -12.85009 a 0.95,0.95 0 0 0 0,1.9 h 12.85009 a 0.95,0.95 0 1 0 0,-1.9 z"
       transform="translate(-234.16922,-231.81006)"
       fill="#ffffff"
       id="path84" />
    <path
       d="m 675.49841,240.02 h -12.85009 a 0.95,0.95 0 0 0 0,1.9 h 12.85009 a 0.95,0.95 0 1 0 0,-1.9 z"
       transform="translate(-234.16922,-231.81006)"
       fill="#ffffff"
       id="path86" />
    <path
       d="m 675.49841,243.59 h -12.85009 a 0.95,0.95 0 0 0 0,1.9 h 12.85009 a 0.95,0.95 0 1 0 0,-1.9 z"
       transform="translate(-234.16922,-231.81006)"
       fill="#ffffff"
       id="path88" />
    <path
       d="m 436.25867,293.83 h -43.26026 a 8.18973,8.18973 0 0 0 -8.17968,8.18 v 37.47 a 8.18973,8.18973 0 0 0 8.17968,8.18 h 43.26026 a 8.18974,8.18974 0 0 0 8.17969,-8.18 v -37.47 a 8.18974,8.18974 0 0 0 -8.17969,-8.18 z"
       transform="translate(-234.16922,-231.81006)"
       fill="#6c63ff"
       id="path90" />
    <path
       d="M 614.68836,308.32 H 463.90857 a 3.715,3.715 0 0 0 0,7.43 h 150.77979 a 3.715,3.715 0 0 0 0,-7.43 z"
       transform="translate(-234.16922,-231.81006)"
       fill="#e4e4e4"
       id="path92" />
    <path
       d="m 521.17859,325.72992 h -57.27 a 3.715,3.715 0 0 0 0,7.43 h 57.27 a 3.715,3.715 0 0 0 0,-7.43 z"
       transform="translate(-234.16922,-231.81006)"
       fill="#e4e4e4"
       id="path94" />
    <path
       d="m 436.25867,393.83 h -43.26026 a 8.18973,8.18973 0 0 0 -8.17968,8.18 v 37.47 a 8.18973,8.18973 0 0 0 8.17968,8.18 h 43.26026 a 8.18974,8.18974 0 0 0 8.17969,-8.18 v -37.47 a 8.18974,8.18974 0 0 0 -8.17969,-8.18 z"
       transform="translate(-234.16922,-231.81006)"
       fill="#6c63ff"
       id="path96" />
    <path
       d="M 614.68836,408.32 H 463.90857 a 3.715,3.715 0 0 0 0,7.43 h 150.77979 a 3.715,3.715 0 0 0 0,-7.43 z"
       transform="translate(-234.16922,-231.81006)"
       fill="#e4e4e4"
       id="path98" />
    <path
       d="m 521.17859,425.72992 h -57.27 a 3.715,3.715 0 0 0 0,7.43 h 57.27 a 3.715,3.715 0 0 0 0,-7.43 z"
       transform="translate(-234.16922,-231.81006)"
       fill="#e4e4e4"
       id="path100" />
    <path
       d="m 436.25867,493.83 h -43.26026 a 8.18973,8.18973 0 0 0 -8.17968,8.18 v 37.47 a 8.18973,8.18973 0 0 0 8.17968,8.18 h 43.26026 a 8.18974,8.18974 0 0 0 8.17969,-8.18 v -37.47 a 8.18974,8.18974 0 0 0 -8.17969,-8.18 z"
       transform="translate(-234.16922,-231.81006)"
       fill="#6c63ff"
       id="path102" />
    <path
       d="M 614.68836,508.32 H 463.90857 a 3.715,3.715 0 0 0 0,7.43 h 150.77979 a 3.715,3.715 0 0 0 0,-7.43 z"
       transform="translate(-234.16922,-231.81006)"
       fill="#e4e4e4"
       id="path104" />
    <path
       d="m 521.17859,525.72992 h -57.27 a 3.715,3.715 0 0 0 0,7.43 h 57.27 a 3.715,3.715 0 0 0 0,-7.43 z"
       transform="translate(-234.16922,-231.81006)"
       fill="#e4e4e4"
       id="path106" />
    <path
       d="M 752.43145,667.18994 H 504.78266 c -1.14175,0 -2.07052,-17.54946 -2.07052,-39.12333 v -230.134 c 0,-21.57387 0.92877,-39.12334 2.07052,-39.12334 h 247.64879 c 1.14175,0 2.07052,17.54947 2.07052,39.12334 v 230.134 c 3e-5,21.57387 -0.92877,39.12333 -2.07052,39.12333 z"
       transform="translate(-234.16922,-231.81006)"
       fill="#ffffff"
       id="path108" />
    <path
       d="M 752.43152,668.18994 H 504.78259 c -1.0476,0 -1.80468,0 -2.46191,-12.41846 -0.39258,-7.415 -0.60864,-17.2539 -0.60864,-27.70507 V 397.93262 c 0,-10.45069 0.21606,-20.29 0.60864,-27.70459 0.65723,-12.41895 1.41431,-12.41895 2.46191,-12.41895 h 247.64893 c 1.04761,0 1.80469,0 2.46191,12.41895 0.39258,7.41455 0.60865,17.2539 0.60865,27.70459 v 230.13379 c 0,10.45117 -0.21607,20.29 -0.60865,27.70507 -0.65722,12.41846 -1.4143,12.41846 -2.46191,12.41846 z m -247.09546,-2 h 246.542 c 0.71778,-2.59082 1.624,-16.394 1.624,-38.12353 V 397.93262 c 0,-21.7295 -0.90625,-35.53272 -1.624,-38.12354 h -246.542 c -0.71777,2.59082 -1.624,16.394 -1.624,38.12354 v 230.13379 c -6e-5,21.72949 0.90623,35.53271 1.624,38.12353 z"
       transform="translate(-234.16922,-231.81006)"
       fill="#e4e4e4"
       id="path110"
       style="fill:#ffaaaa" />
    <path
       d="M 752.43145,375.12966 H 504.78266 a 2.07278,2.07278 0 0 1 -2.07052,-2.07051 v -12.17936 a 2.07279,2.07279 0 0 1 2.07052,-2.07052 h 247.64879 a 2.07279,2.07279 0 0 1 2.07052,2.07052 v 12.17936 a 2.07278,2.07278 0 0 1 -2.07052,2.07051 z"
       transform="translate(-234.16922,-231.81006)"
       fill="#cacaca"
       id="path112"
       style="fill:#ffaaaa" />
    <circle
       id="a9432236-99f6-4733-9920-e312ad95354d"
       data-name="Ellipse 90"
       cx="280.55902"
       cy="134.56535"
       r="2.93962"
       fill="#ffffff" />
    <circle
       id="fc8d1cb9-e477-4d66-a241-a00170356ca4"
       data-name="Ellipse 91"
       cx="291.71686"
       cy="134.56535"
       r="2.93962"
       fill="#ffffff" />
    <circle
       id="bc1189a4-69b8-41a6-80e2-1e52c3b8abfb"
       data-name="Ellipse 92"
       cx="302.87521"
       cy="134.56535"
       r="2.93962"
       fill="#ffffff" />
    <path
       d="m 741.49915,364.35211 h -12.84867 a 0.951755,0.951755 0 0 1 0,-1.90351 h 12.84867 a 0.95176,0.95176 0 0 1 0,1.90351 z"
       transform="translate(-234.16922,-231.81006)"
       fill="#ffffff"
       id="path117" />
    <path
       d="m 741.49915,367.92118 h -12.84867 a 0.95175,0.95175 0 0 1 0,-1.9035 h 12.84867 a 0.95175,0.95175 0 1 1 0,1.9035 z"
       transform="translate(-234.16922,-231.81006)"
       fill="#ffffff"
       id="path119" />
    <path
       d="m 741.49915,371.49026 h -12.84867 a 0.951755,0.951755 0 0 1 0,-1.90351 h 12.84867 a 0.95176,0.95176 0 0 1 0,1.90351 z"
       transform="translate(-234.16922,-231.81006)"
       fill="#ffffff"
       id="path121" />
    <path
       d="m 580.88245,450.72656 h -31.59323 a 5.98137,5.98137 0 0 1 -5.97452,-5.97452 v -27.36322 a 5.98137,5.98137 0 0 1 5.97452,-5.97453 h 31.59323 a 5.98138,5.98138 0 0 1 5.97453,5.97453 V 444.752 a 5.98137,5.98137 0 0 1 -5.97453,5.97456 z"
       transform="translate(-234.16922,-231.81006)"
       fill="#6c63ff"
       id="path123" />
    <path
       d="M 711.187,427.42591 H 601.07653 a 2.71246,2.71246 0 0 1 0,-5.42492 H 711.187 a 2.71246,2.71246 0 0 1 0,5.42492 z"
       transform="translate(-234.16922,-231.81006)"
       fill="#e4e4e4"
       id="path125" />
    <path
       d="m 642.89822,440.13986 h -41.82169 a 2.712455,2.712455 0 1 1 0,-5.42491 h 41.82169 a 2.71246,2.71246 0 1 1 0,5.42491 z"
       transform="translate(-234.16922,-231.81006)"
       fill="#e4e4e4"
       id="path127" />
    <path
       d="m 580.88245,531.72656 h -31.59323 a 5.98137,5.98137 0 0 1 -5.97452,-5.97452 v -27.36322 a 5.98137,5.98137 0 0 1 5.97452,-5.97453 h 31.59323 a 5.98138,5.98138 0 0 1 5.97453,5.97453 V 525.752 a 5.98137,5.98137 0 0 1 -5.97453,5.97456 z"
       transform="translate(-234.16922,-231.81006)"
       fill="#6c63ff"
       id="path129" />
    <path
       d="M 711.187,508.42591 H 601.07653 a 2.71246,2.71246 0 0 1 0,-5.42492 H 711.187 a 2.71246,2.71246 0 0 1 0,5.42492 z"
       transform="translate(-234.16922,-231.81006)"
       fill="#e4e4e4"
       id="path131" />
    <path
       d="m 642.89822,521.13986 h -41.82169 a 2.712455,2.712455 0 1 1 0,-5.42491 h 41.82169 a 2.71246,2.71246 0 1 1 0,5.42491 z"
       transform="translate(-234.16922,-231.81006)"
       fill="#e4e4e4"
       id="path133" />
    <path
       d="m 580.88245,612.72656 h -31.59323 a 5.98137,5.98137 0 0 1 -5.97452,-5.97452 v -27.36322 a 5.98137,5.98137 0 0 1 5.97452,-5.97453 h 31.59323 a 5.98138,5.98138 0 0 1 5.97453,5.97453 V 606.752 a 5.98137,5.98137 0 0 1 -5.97453,5.97456 z"
       transform="translate(-234.16922,-231.81006)"
       fill="#6c63ff"
       id="path135" />
    <path
       d="M 711.187,589.42591 H 601.07653 a 2.71246,2.71246 0 1 1 0,-5.42492 H 711.187 a 2.71246,2.71246 0 1 1 0,5.42492 z"
       transform="translate(-234.16922,-231.81006)"
       fill="#e4e4e4"
       id="path137" />
    <path
       d="m 642.89822,602.13986 h -41.82169 a 2.712455,2.712455 0 1 1 0,-5.42491 h 41.82169 a 2.71246,2.71246 0 1 1 0,5.42491 z"
       transform="translate(-234.16922,-231.81006)"
       fill="#e4e4e4"
       id="path139" />
    <g
       id="g2422"
       transform="matrix(0.41769356,0,0,0.41769356,193.72195,492.21159)">
      <path
         id="a7e0d23c-0c47-41f1-93b9-87dfccd4c0f5-62"
         data-name="Path 968"
         d="m -48.7108,-674.43932 h -3.9 v -106.977 a 61.915,61.915 0 0 0 -61.915,-61.915 h -226.65 a 61.915,61.915 0 0 0 -61.916,61.914 v 586.884 a 61.915,61.915 0 0 0 61.915,61.915 h 226.648 a 61.915,61.915 0 0 0 61.915,-61.915 v -403.758 h 3.9 z"
         fill="#3f3d56" />
      <path
         id="a1ad11fc-8226-4675-bbe0-e36020d9de96-63"
         data-name="Path 969"
         d="m -65.31077,-785.5633 v 595.175 a 46.959,46.959 0 0 1 -46.942,46.952 h -231.3 a 46.966,46.966 0 0 1 -46.973,-46.952 v -595.175 a 46.965,46.965 0 0 1 46.971,-46.951 h 28.058 a 22.329,22.329 0 0 0 20.656,30.74 h 131.868 a 22.329,22.329 0 0 0 20.656,-30.74 h 30.055 a 46.959,46.959 0 0 1 46.951,46.942 z"
         fill="#ffffff" />
      <path
         id="a71e44ec-7616-4081-86af-b6db32cd39f3-64"
         data-name="Path 39"
         d="m -122.6448,-442.73532 h -205.537 a 3.81,3.81 0 0 1 -3.806,-3.806 v -50.98398 a 3.811,3.811 0 0 1 3.806,-3.806 h 205.537 a 3.811,3.811 0 0 1 3.806,3.806 v 50.985 a 3.811,3.811 0 0 1 -3.806,3.806 z m -205.537,-57.074 a 2.286,2.286 0 0 0 -2.284,2.284 v 50.985 a 2.286,2.286 0 0 0 2.284,2.284 h 205.537 a 2.286,2.286 0 0 0 2.284,-2.284 v -50.985 a 2.286,2.286 0 0 0 -2.284,-2.284 z"
         fill="#e6e6e6" />
      <path
         id="a3f57aef-fb20-4553-8f82-b751eb5ec42c-65"
         data-name="Path 40"
         d="m -264.6168,-482.97031 a 2.6645,2.6645 0 0 0 0,5.329 h 125.605 a 2.6650096,2.6650096 0 0 0 0.2041,-5.32611 q -0.0585,-0.002 -0.11712,-0.002 h -125.692 z"
         fill="#e6e6e6" />
      <path
         id="a617e1da-1a45-4bf0-a146-8b20186fa5b6-66"
         data-name="Path 41"
         d="m -264.6168,-466.98633 a 2.6645,2.6645 0 0 0 0,5.329 h 125.605 a 2.6650096,2.6650096 0 0 0 0.2041,-5.32611 q -0.0585,-0.002 -0.11712,-0.002 h -125.692 z"
         fill="#e6e6e6" />
      <path
         id="f83fafa3-5270-49ac-8952-eedc3d6c92ed-67"
         data-name="Path 42"
         d="m -122.6448,-357.75532 h -205.537 a 3.81,3.81 0 0 1 -3.806,-3.806 v -50.98398 a 3.811,3.811 0 0 1 3.806,-3.806 h 205.537 a 3.811,3.811 0 0 1 3.806,3.806 v 50.985 a 3.811,3.811 0 0 1 -3.806,3.80498 z m -205.537,-57.074 a 2.286,2.286 0 0 0 -2.284,2.284 v 50.985 a 2.286,2.286 0 0 0 2.284,2.284 h 205.537 a 2.286,2.286 0 0 0 2.284,-2.284 v -50.985 a 2.286,2.286 0 0 0 -2.284,-2.284 z"
         fill="#e6e6e6" />
      <path
         id="b1e095e5-1d51-47f4-b1e9-85a21efab4ec-68"
         data-name="Path 43"
         d="m -264.6168,-397.71432 a 2.6645,2.6645 0 0 0 0,5.329 h 125.605 a 2.665,2.665 0 0 0 0.087,-5.328 h -125.692 z"
         fill="#e6e6e6" />
      <path
         id="e7ccabbb-2f45-40c9-adc9-a92013dc0f4d-69"
         data-name="Path 44"
         d="m -264.6168,-381.72629 a 2.6645,2.6645 0 0 0 0,5.329 h 125.605 a 2.665,2.665 0 0 0 0.087,-5.328 h -125.692 z"
         fill="#e6e6e6" />
      <path
         id="ec532991-8ec8-4eba-a86f-87c70c278f41-70"
         data-name="Path 39-2"
         d="m -122.6448,-272.49731 h -205.537 a 3.81,3.81 0 0 1 -3.806,-3.806 v -50.98398 a 3.811,3.811 0 0 1 3.806,-3.806 h 205.537 a 3.811,3.811 0 0 1 3.806,3.806 v 50.985 a 3.811,3.811 0 0 1 -3.806,3.806 z m -205.537,-57.074 a 2.286,2.286 0 0 0 -2.284,2.284 v 50.985 a 2.286,2.286 0 0 0 2.284,2.284 h 205.537 a 2.286,2.286 0 0 0 2.284,-2.284 v -50.985 a 2.286,2.286 0 0 0 -2.284,-2.284 z"
         fill="#e6e6e6" />
      <path
         id="a788f10e-f95b-4590-bad9-be702445c232-71"
         data-name="Path 40-2"
         d="m -264.6168,-312.45331 a 2.6645,2.6645 0 1 0 0,5.329 h 125.605 a 2.6650096,2.6650096 0 0 0 0.2041,-5.32611 q -0.0585,-0.002 -0.11712,-0.002 h -125.692 z"
         fill="#e6e6e6" />
      <path
         id="f15a5014-9b42-4c0b-a546-80766b911601-72"
         data-name="Path 41-2"
         d="m -264.6168,-296.46633 a 2.6645,2.6645 0 0 0 0,5.329 h 125.605 a 2.6650096,2.6650096 0 0 0 0.2041,-5.32611 q -0.0585,-0.002 -0.11712,-0.002 h -125.692 z"
         fill="#e6e6e6" />
      <g
         id="bf60e786-3805-43a5-8cdd-bbea060079bf"
         data-name="Group 59"
         transform="translate(-548.45481,-843.3313)">
        <circle
           id="a323e3dd-8f2c-40f7-a0c1-7a235f78e8b7"
           data-name="Ellipse 5"
           cx="245.91502"
           cy="370.98499"
           r="15.986"
           fill="#6c63ff" />
        <path
           id="b21d221e-9b86-4bff-9dca-a61a27263db1-78"
           data-name="Path 40-3"
           d="m 491.27554,461.71247 c -0.184,0 -0.333,1.193 -0.333,2.664 0,1.471 0.149,2.665 0.333,2.665 h 15.719 c 0.184,0.024 0.336,-1.149 0.339,-2.62 a 5.94306,5.94306 0 0 0 -0.328,-2.708 h -15.73 z"
           transform="translate(-253.01352,-93.71349)"
           fill="#e6e6e6" />
      </g>
      <g
         id="b51141dd-8175-4f5a-b697-41b89601b37f"
         data-name="Group 60"
         transform="translate(-548.45481,-843.3313)">
        <circle
           id="e363222e-d569-47a6-8bf5-edbaac636a07"
           data-name="Ellipse 5-2"
           cx="245.91502"
           cy="456.27802"
           r="15.986"
           fill="#6c63ff" />
        <path
           id="bf4b9d9b-b2cd-48cd-bc0b-2e6b007ef33d-79"
           data-name="Path 40-4"
           d="m 491.27554,547.00547 c -0.184,0 -0.333,1.193 -0.333,2.664 0,1.471 0.149,2.665 0.333,2.665 h 15.719 c 0.184,0.024 0.336,-1.149 0.339,-2.62 a 5.94306,5.94306 0 0 0 -0.328,-2.708 h -15.73 z"
           transform="translate(-253.01352,-93.71349)"
           fill="#e6e6e6" />
      </g>
      <g
         id="b35aa588-fd9e-4429-8570-fee6b5da93cc"
         data-name="Group 61"
         transform="translate(-548.45481,-843.3313)">
        <circle
           id="b896a996-d737-41ee-9642-d5eaf8a9fd6b"
           data-name="Ellipse 5-3"
           cx="245.91502"
           cy="541.53601"
           r="15.986"
           fill="#6c63ff" />
        <path
           id="f0c90521-3626-484d-9767-39f7327e6a31-80"
           data-name="Path 40-5"
           d="m 491.27554,632.26346 c -0.184,0 -0.333,1.193 -0.333,2.664 0,1.471 0.149,2.665 0.333,2.665 h 15.719 c 0.184,0.024 0.336,-1.149 0.339,-2.62 a 5.9431,5.9431 0 0 0 -0.328,-2.708 h -15.73 z"
           transform="translate(-253.01352,-93.71349)"
           fill="#e6e6e6" />
      </g>
      <path
         d="m -176.26844,-586.66286 a 4.48656,4.48656 0 0 1 -4.01245,-2.4497 52.87438,52.87438 0 0 0 -31.37232,-26.41114 59.99908,59.99908 0 0 0 -8.408,-1.9038 l -0.57959,-0.0879 29.91972,-93.5464 0.50586,0.0176 c 58.12769,15.79492 91.385,62.38134 100.19336,76.2832 a 4.49382,4.49382 0 0 1 -1.79663,6.42334 l -82.43066,41.19728 a 4.50685,4.50685 0 0 1 -2.01929,0.47753 z"
         fill="#e6e6e6"
         id="path995" />
      <circle
         cx="-226.4762"
         cy="-576.87183"
         r="8"
         fill="#3f3d56"
         id="circle1010" />
      <path
         d="m -280.1637,-586.77955 a 4.492,4.492 0 0 1 -2.1001,-0.52442 l -81.95288,-43.23437 a 4.5,4.5 0 0 1 -1.74121,-6.32471 181.66635,181.66635 0 0 1 40.991,-45.9751 c 28.30152,-22.43066 60.4939,-33.68408 95.678,-33.49512 a 151.88378,151.88378 0 0 1 39.064,5.28858 l 0.50464,0.13672 -29.927,93.541 -0.42114,-0.0635 a 66.68158,66.68158 0 0 0 -8.13867,-0.72168 c -30.45068,-0.85938 -43.64649,19.876 -47.90772,28.82959 a 4.41453,4.41453 0 0 1 -2.62011,2.31005 4.52734,4.52734 0 0 1 -1.42881,0.23293 z"
         fill="#6c63ff"
         id="path1012" />
      <path
         d="m -190.34633,-710.56179 -21.15967,94.56 a 60.38421,60.38421 0 0 0 -8.48,-1.92 l 29.62988,-92.64 z"
         fill="#3f3d56"
         id="path1014" />
    </g>
  </g>
</svg>
