<?xml version="1.0" encoding="UTF-8" standalone="no"?>
<svg
   id="svg32"
   version="1.1"
   viewBox="0 0 228.66 39.08"
   xmlns:xlink="http://www.w3.org/1999/xlink"
   xmlns="http://www.w3.org/2000/svg"
   xmlns:svg="http://www.w3.org/2000/svg"
   xmlns:rdf="http://www.w3.org/1999/02/22-rdf-syntax-ns#"
   xmlns:cc="http://creativecommons.org/ns#"
   xmlns:dc="http://purl.org/dc/elements/1.1/">
  <title
     id="title4781">Miciah Bar M</title>
  <metadata
     id="metadata38">
    <rdf:RDF>
      <cc:Work
         rdf:about="">
        <dc:format>image/svg+xml</dc:format>
        <dc:type
           rdf:resource="http://purl.org/dc/dcmitype/StillImage" />
        <dc:title>Miciah Bar M</dc:title>
        <cc:license
           rdf:resource="http://creativecommons.org/licenses/by/4.0/" />
        <dc:date>3/2/21</dc:date>
        <dc:creator>
          <cc:Agent>
            <dc:title>Miciah martin</dc:title>
          </cc:Agent>
        </dc:creator>
        <dc:rights>
          <cc:Agent>
            <dc:title>Copyright</dc:title>
          </cc:Agent>
        </dc:rights>
        <dc:source>MNAV1</dc:source>
        <dc:subject>
          <rdf:Bag>
            <rdf:li>Miciah</rdf:li>
            <rdf:li>Martin</rdf:li>
            <rdf:li>Navigation</rdf:li>
            <rdf:li>Logo</rdf:li>
          </rdf:Bag>
        </dc:subject>
        <dc:language>XML,PNG,SVG,HTML</dc:language>
        <dc:coverage>Global</dc:coverage>
        <dc:contributor>
          <cc:Agent>
            <dc:title>Jesus and Miciah martin</dc:title>
          </cc:Agent>
        </dc:contributor>
        <dc:description>A Logo typically used in navigation elements</dc:description>
      </cc:Work>
      <cc:License
         rdf:about="http://creativecommons.org/licenses/by/4.0/">
        <cc:permits
           rdf:resource="http://creativecommons.org/ns#Reproduction" />
        <cc:permits
           rdf:resource="http://creativecommons.org/ns#Distribution" />
        <cc:requires
           rdf:resource="http://creativecommons.org/ns#Notice" />
        <cc:requires
           rdf:resource="http://creativecommons.org/ns#Attribution" />
        <cc:permits
           rdf:resource="http://creativecommons.org/ns#DerivativeWorks" />
      </cc:License>
    </rdf:RDF>
  </metadata>
  <defs
     id="defs36">
    <linearGradient
       id="linearGradient96">
      <stop
         style="stop-color:#000000;stop-opacity:1"
         offset="0"
         id="stop92" />
      <stop
         style="stop-color:#ececec;stop-opacity:1"
         offset="1"
         id="stop94" />
    </linearGradient>
    <color-profile
       name="Agfa-:-Swop-Standard"
       xlink:href="C:\WINDOWS\system32\spool\drivers\color\RSWOP.icm"
       id="color-profile490" />
    <color-profile
       name="Epson-IJ-Printer-07"
       xlink:href="C:\WINDOWS\system32\spool\drivers\color\Epson IJ Printer 07.icc"
       id="color-profile492" />
    <color-profile
       name="sRGB-IEC61966-2.1"
       xlink:href="C:\WINDOWS\system32\spool\drivers\color\sRGB Color Space Profile.icm"
       id="color-profile494" />
    <linearGradient
       xlink:href="#linearGradient96"
       id="linearGradient98"
       x1="-8.1140022"
       y1="-93.546989"
       x2="-6.8640022"
       y2="-139.047"
       gradientUnits="userSpaceOnUse" />
  </defs>
  <style
     id="style2">.cls-1{fill:#fed136;}</style>
  <text
     id="text4801"
     y="150.7687225341797"
     x="258.8461303710938"
     style="font-style:normal;font-variant:normal;font-weight:normal;font-stretch:normal;font-size:64px;line-height:0;font-family:'Kaushan Script';-inkscape-font-specification:'Kaushan Script';letter-spacing:0px;word-spacing:0px;writing-mode:lr-tb;fill:#000000;fill-opacity:1;stroke:none"
     xml:space="preserve"><tspan
       y="166.5812683105469"
       x="258.8461303710938"
       id="tspan4799" /></text>
  <g
     style="stroke-width:2.2931408882;fill:url(#linearGradient98);fill-opacity:1"
     transform="matrix(0.4360831160621152,0,0,0.4360831160621152,123.1195853754722,70.25515519578065)"
     id="g9152">
    <path
       id="path8630"
       d="m -20.73900236760329,-139.0469911291624 -4.185546875,24.177734375 h 10.1953125 l 1.458984375,-11.583984375 1.814453125,11.583984375 h 7.919921874999983 l -3.328125000000002,-24.177734375 z m 33.46875,0 -11.681640625000015,24.177734375 h 8.64453125 l 5.224609375000016,-10.396484375 -2.337890625,10.396484375 h 10.21484375 l 4.185546875,-24.177734375 z m 34.5,0 -12.802734375,24.177734375 h 10.5859375 l 5.373046875,-11.333984375 1.4453125,11.333984375 h 9.927734375 l -4.466796875,-24.177734375 z m 30.03124999999997,0 -4.185546875,24.177734375 h 30.53320312500001 c 0.9502427713662,-0.7507010885297 1.7871199953377,-1.5774306658724 2.49609375,-2.490234375 1.6666666666666,-2.1666666666667 2.6145833333333,-4.8958333333333 2.84375,-8.1875 0.2916666666667,-4.1666666666667 -0.9583333333333,-7.4479166666667 -3.75,-9.84375 -2.7708333333334,-2.4166666666667 -6.72916666666671,-3.625 -11.87500000000001,-3.625 z m 37.15625000000002,0 -1.5,8.46875 h 13.03125 l -2.73046875,15.708984375 h 10.701171875 l 2.716796875,-15.708984375 h 13.25 l 1.46875,-8.46875 z m 42.46875,0 -4.201171875,24.177734375 h 10.671875 l 4.185546875,-24.177734375 z m 18.25,0 -4.185546875,24.177734375 h 10.7109375 l 1.287109375,-7.396484375 2.80078125,7.396484375 h 8.953125 l -9.12890625,-24.177734375 z m 26.25,0 -4.18359375,24.177734375 h 10.669921875 l 4.201171875,-24.177734375 z m -114.87500000000004,8.46875 7.25,0.03125 c 2.5416666666666,0.125 4.0208333333333,1.34375 4.4375,3.65625 0.22916666666673,1.3541666666667 0.0729166666667,2.7604166666667 -0.46875,4.21875 -0.5416666666667,1.4375 -1.4479166666667,2.5729166666667 -2.71875,3.40625 -1.25,0.8333333333333 -2.7291666666667,1.25 -4.4375,1.25 l -6.25,-0.0625 z m -111.69531249999998,17.21875 -3.4296875,19.81249999999997 h 10.6875 l 1.78125,-10.09374999999997 1.224609375,-9.71875 z m 13.96484375,0 3.105468749999998,19.81249999999997 h 7.09375 L 8.934825757396707,-113.3594911291624 H 0.3176382573967089 l -2.837890625,5.875 -0.80859375,-5.875 z m 23.458984375,0 -1.947265625,8.65625 -1.937500000000005,11.15624999999997 H 19.10474763239671 l 3.4296875,-19.81249999999997 z m 21.388671875,0 -10.4921875,19.81249999999997 h 11.78125 l 4.03125,-8.49999999999997 h 14.53125 l 1.09375,8.49999999999997 H 65.69849763239669 L 62.0383413823967,-113.3594911291624 h -10.015625 l 0.36328125,2.84375 h -9.4375 l 1.34765625,-2.84375 z m 39.1875,0 -3.4296875,19.81249999999997 h 10.6875 l 2.8125,-16.06249999999997 h 5.9375 l 5,16.06249999999997 h 11.40625000000001 v -0.53125 l -6.12500000000001,-18.18749999999997 c 0.79695790670532,-0.3320657944606 1.54323094034062,-0.6984640622117 2.24609375000001,-1.09375 z m 50.13867187500002,0 -3.443359375,19.81249999999997 h 10.71875 l 3.427734375,-19.81249999999997 z m 29.46875,0 -3.443359375,19.81249999999997 h 10.6875 l 3.4296875,-19.81249999999997 z m 18.267578125,0 -3.4296875,19.81249999999997 h 10.6875 l 3.44921875,-19.81249999999997 z m 15.630859375,0 7.501953125,19.81249999999997 h 10.34375 l 3.443359375,-19.81249999999997 h -10.66796875 l -0.525390625,3.03125 -1.14453125,-3.03125 z"
       style="font-style:italic;font-variant:normal;font-weight:900;font-stretch:normal;font-size:64px;line-height:0;font-family:Roboto;-inkscape-font-specification:'Roboto Heavy Italic';letter-spacing:0px;word-spacing:0px;writing-mode:lr-tb;fill:url(#linearGradient98);fill-opacity:1.0;stroke:none;stroke-width:2.2931408882" />
    <g
       aria-label="MICIAH"
       transform="scale(1.031529939035416,0.9694338110390672)"
       style="font-style:italic;font-variant:normal;font-weight:normal;font-stretch:normal;font-size:66.9100494385px;line-height:0;font-family:'Franklin Gothic Book';-inkscape-font-specification:'Franklin Gothic Book, Italic';letter-spacing:0px;word-spacing:0px;writing-mode:lr-tb;fill:url(#linearGradient98);fill-opacity:1.0;stroke:none;stroke-width:2.2931404114"
       id="text8634">
      <path
         d="m -201.2835706025362,-97.48690032958984 h -5.4233731478453 l 6.8608937412501,-40.93666598945856 -21.4321252107621,40.93666598945856 h -4.11653624475 l -7.971705108881,-40.28324753791097 -6.7628809735179,40.28324753791097 h -4.541258238256 l 7.4489703476429,-44.59580931812525 h 8.2657434120775 l 7.285615734756,36.5260914415121 19.0798187851905,-36.5260914415121 h 8.7884781733156 z"
         style="fill:url(#linearGradient98);stroke-width:2.2931404114;fill-opacity:1.0"
         id="path9131" />
      <path
         d="m -177.1397593542934,-142.0827096477151 -7.4489703476429,44.59580931812525 h -5.4560440704226 l 7.4489703476429,-44.59580931812525 z"
         style="fill:url(#linearGradient98);stroke-width:2.2931404114;fill-opacity:1.0"
         id="path9133" />
      <path
         d="m -136.8238411024213,-128.360922165215 -4.8679674640298,1.2088241353631 q -0.7514312192797,-6.5015135928989 -3.6591433286667,-9.0171746313572 -2.9077121093869,-2.5483319610357 -6.7628809735179,-2.5483319610357 -4.4759163931012,0 -7.7103377282619,3.0710667222738 -3.2017504125834,3.0710667222738 -5.1620057672262,9.1478583216667 -1.9602553546429,6.0767915993929 -1.9602553546429,11.3694810569286 0,6.6648682057858 2.9077121093869,10.2913406118751 2.9403830319643,3.5938014835119 7.7430086508394,3.5938014835119 7.6123249605298,0 12.0228995084762,-10.4873661473393 l 4.541258238256,1.6988879740238 Q -144.7302043661475,-96.73546911031 -156.42639464885,-96.73546911031 q -7.8083504959941,0 -12.0555704310536,-5.48871499300009 -4.2145490124822,-5.488714993 -4.2145490124822,-13.9831548631191 0,-10.1606569215656 5.6847405284643,-18.5570840239525 5.7174114510417,-8.4290980249644 14.7345860823989,-8.4290980249644 5.8154242187739,0 10.1606569215656,3.5284596383572 4.3452327027917,3.5284596383572 5.2926894575357,11.3041392117739 z"
         style="fill:url(#linearGradient98);stroke-width:2.2931404114;fill-opacity:1.0"
         id="path9135" />
      <path
         d="m -121.9912417456508,-142.0827096477151 -7.4489703476429,44.59580931812525 h -5.4560440704226 l 7.4489703476429,-44.59580931812525 z"
         style="fill:url(#linearGradient98);stroke-width:2.2931404114;fill-opacity:1.0"
         id="path9137" />
      <path
         d="M -95.23376017808914,-110.5552693605423 H -111.503879621625 l -6.4035008251667,13.06836903095245 h -5.063992999494 l 21.8568472042679,-44.59580931812525 h 6.17480436712509 l 7.77567957341671,44.59580931812525 h -5.75008237361908 z m -0.65341845154762,-4.4759163931012 -3.43044687062502,-20.484668456018 -10.06264415383342,20.484668456018 z"
         style="fill:url(#linearGradient98);stroke-width:2.2931404114;fill-opacity:1.0"
         id="path9139" />
      <path
         d="m -49.69048722088337,-118.5923163145781 h -21.85684720426796 l -3.52845963835718,21.10541598498825 h -5.45604407042264 l 7.44897034764288,-44.59580931812525 h 5.45604407042265 l -3.13640856742859,18.7531095594168 h 21.85684720426798 l 3.13640856742858,-18.7531095594168 h 5.45604407042265 l -7.48164127022028,44.59580931812525 h -5.42337314784526 z"
         style="fill:url(#linearGradient98);stroke-width:2.2931404114;fill-opacity:1.0"
         id="path9141" />
    </g>
  </g>
</svg>
