<?xml version="1.0" encoding="UTF-8" standalone="no"?>
<svg
   data-name="Layer 1"
   width="512"
   height="512"
   viewBox="0 0 512.00001 512"
   version="1.1"
   id="svg141"
   xmlns="http://www.w3.org/2000/svg"
   xmlns:svg="http://www.w3.org/2000/svg">
  <defs
     id="defs145" />
  <g
     id="g3162"
     transform="matrix(1.9588995,0,0,1.9715952,-235.21392,1406.635)">
    <path
       d="m 296.18759,-530.73806 a 3.9419494,4.2401147 0 0 1 -3.52539,-2.31514 46.456111,49.970008 0 0 0 -27.56413,-24.96038 52.715964,56.70335 0 0 0 -7.38737,-1.79923 l -0.50924,-0.0831 26.28785,-88.40793 0.44446,0.0166 c 51.07173,14.92731 80.29204,58.95475 88.03117,72.09299 a 3.9483281,4.246976 0 0 1 -1.57854,6.0705 l -72.42464,38.93433 a 3.9597765,4.2592902 0 0 1 -1.77417,0.4513 z"
       fill="#e6e6e6"
       id="path995"
       style="stroke-width:0.911236" />
    <ellipse
       cx="252.0744"
       cy="-521.48486"
       fill="#3f3d56"
       id="circle1010"
       rx="7.028903"
       ry="7.5605626"
       style="stroke-width:0.911236" />
    <path
       d="m 204.90387,-530.84834 a 3.9467291,4.2452559 0 0 1 -1.84517,-0.49561 l -72.00486,-40.85952 a 3.953758,4.2528165 0 0 1 -1.52985,-5.9773 159.61439,171.68748 0 0 1 36.01522,-43.4497 c 24.86608,-21.19855 53.15072,-31.83383 84.06393,-31.65525 a 133.44705,143.54085 0 0 1 34.32213,4.99808 l 0.44338,0.12921 -26.29424,88.40283 -0.37002,-0.06 a 58.587295,63.018783 0 0 0 -7.15074,-0.68204 c -26.75436,-0.81218 -38.34837,18.78422 -42.09234,27.24599 a 3.8786629,4.1720413 0 0 1 -2.30206,2.18316 3.9777792,4.2786547 0 0 1 -1.25538,0.22013 z"
       fill="#6c63ff"
       id="path1012"
       style="stroke-width:0.911236" />
    <path
       d="m 283.81857,-647.83126 -18.59116,89.36585 a 53.054345,57.067325 0 0 0 -7.45063,-1.81454 l 26.03319,-87.55131 z"
       fill="#3f3d56"
       id="path1014"
       style="stroke-width:0.911236" />
  </g>
</svg>
