<?xml version="1.0" standalone="no"?>
<!DOCTYPE svg PUBLIC "-//W3C//DTD SVG 1.1//EN" "http://www.w3.org/Graphics/SVG/1.1/DTD/svg11.dtd" >
<svg>
<metadata>
Created by FontForge 20090914 at Thu Aug 13 14:37:57 2020
 By www-data
Copyright (c) 2011 by Brian J. Bonislawsky DBA Astigmatic (AOETI) (astigma@astigmatic.com), with ReservedFont Name "Dynalight"
</metadata>
<defs>
<font id="Dynalight-Regular" horiz-adv-x="800" >
  <font-face 
    font-family="Dynalight"
    font-weight="400"
    font-stretch="normal"
    units-per-em="2048"
    panose-1="3 2 5 2 3 5 7 7 10 3"
    ascent="1638"
    descent="-410"
    x-height="717.999"
    cap-height="1434"
    bbox="-399.999 -645.003 2007 1840"
    underline-thickness="41"
    underline-position="-232"
    unicode-range="U+0020-U+FB02"
  />
<missing-glyph horiz-adv-x="490" 
 />
    <glyph glyph-name="fi" unicode="fi" horiz-adv-x="941" 
d="M633 573c2 4.66699 2.99609 8.3252 2.99609 10.9922c0 4 -1.16699 6.83301 -3.5 8.5s-5.16602 2.5 -8.49902 2.5c-6.66699 0 -12.667 -3.66699 -18 -11l-177 -219c-42 -52 -81.667 -98.167 -119 -138.5s-74.833 -78.166 -112.5 -113.499s-76.5 -69.833 -116.5 -103.5
l-130 -107.5l-155 -375l-142 -45l482 1161l-37 -55.5l-49.5 -68.5l-65 -84l-82.5 -103l-25 20c62.667 76.667 114.334 142.667 155.001 198s74.334 104 101.001 146s48.334 79.333 65.001 112s32.334 65.334 47.001 98.001c22.667 50 45.334 95.333 68.001 136
s45.834 75.334 69.501 104.001s48 50.834 73 66.501s51.167 23.5 78.5 23.5c26 0 46.833 -9.33301 62.5 -28s23.5 -41.667 23.5 -69c0 -50 -12 -101.167 -36 -153.5s-55.333 -104.166 -94 -155.499s-82.167 -101.666 -130.5 -150.999s-96.833 -96.333 -145.5 -141l-233 -563
c27.333 20 56.666 42.833 87.999 68.5s64.666 55 99.999 88s72.666 70.333 111.999 112s80.333 88.834 123 141.501l204 252c17.333 21.333 35.5 40.166 54.5 56.499s38.833 24.5 59.5 24.5c19.333 0 33.333 -5.16699 42 -15.5s13 -21.833 13 -34.5s-2.33301 -27 -7 -43
s-10.667 -32.667 -18 -50l-168 -405c-2.66699 -6.66699 -5 -13.167 -7 -19.5s-3 -11.833 -3 -16.5c0 -8 1.83301 -13.333 5.5 -16s8.5 -4 14.5 -4c9.33301 0 20.666 4.66699 33.999 14s27.333 23 42 41l183 226l25 -20l-221 -273c-16 -20 -31 -36.667 -45 -50
s-27.167 -23.833 -39.5 -31.5s-24.666 -13.167 -36.999 -16.5s-24.833 -5 -37.5 -5c-20 0 -36.667 5.83301 -50 17.5s-20 26.5 -20 44.5c0 16.667 4 36.334 12 59.001s19 50.334 33 83.001zM247.996 618.991c48 46.667 92.334 92.832 133.001 138.499
s75.667 90.334 105 134.001s52.166 86.167 68.499 127.5s24.5 81.333 24.5 120c0 12 -2 24 -6 36s-12.667 18 -26 18c-23.333 0 -46.833 -18 -70.5 -54s-48.5 -85.333 -74.5 -148zM869.997 1114.99c20 0 35.667 -7.16699 47 -21.5s17 -31.166 17 -50.499
c0 -10.667 -1.83301 -21.5 -5.5 -32.5s-9 -20.833 -16 -29.5s-15.333 -15.834 -25 -21.501s-20.834 -8.5 -33.501 -8.5c-19.333 0 -35 7.5 -47 22.5s-18 31.833 -18 50.5c0 14 2.5 26.5 7.5 37.5s11.333 20.5 19 28.5s16.334 14.167 26.001 18.5s19.167 6.5 28.5 6.5z" />
    <glyph glyph-name="fl" unicode="fl" horiz-adv-x="915" 
d="M558 170c-2.66699 -6.66699 -5 -13.1719 -7 -19.5049s-3 -11.833 -3 -16.5c0 -8 1.83301 -13.333 5.5 -16s8.5 -4 14.5 -4c9.33301 0 20.666 4.66699 33.999 14s27.333 23 42 41l183 226l25 -20l-221 -273c-16 -20 -30.5 -36.667 -43.5 -50s-25.333 -23.833 -37 -31.5
s-23.334 -13.167 -35.001 -16.5s-23.834 -5 -36.501 -5c-20 0 -36.667 5.83301 -50 17.5s-20 26.5 -20 44.5c0 16.667 4.16699 36.334 12.5 59.001s19.166 50.334 32.499 83.001l189 451c-19.333 -31.333 -45.833 -69.666 -79.5 -114.999l-134.5 -174
c-41.333 -52 -80.833 -98.167 -118.5 -138.5s-75.334 -78.333 -113.001 -114s-76.5 -70.167 -116.5 -103.5l-130 -107l-155 -375l-142 -45l482 1161l-37 -55.5l-49.5 -68.5l-65 -84l-82.5 -103l-25 20c62.667 76.667 114.334 142.667 155.001 198s74.334 104 101.001 146
s48.334 79.333 65.001 112s32.334 65.334 47.001 98.001c22.667 50 45.334 95.333 68.001 136s45.834 75.334 69.501 104.001s48 50.834 73 66.501s51.167 23.5 78.5 23.5c26 0 46.833 -9.33301 62.5 -28s23.5 -41.667 23.5 -69c0 -50 -12 -101.167 -36 -153.5
s-55.333 -104.166 -94 -155.499s-82.167 -101.666 -130.5 -150.999s-96.833 -96.333 -145.5 -141l-234 -567c26 19.333 53.833 41.166 83.5 65.499s61.167 52.166 94.5 83.499s68.333 66.333 105 105s74.667 82 114 130l122 151.5c34.667 44.333 64.5 84.166 89.5 119.499
s46.333 67.333 64 96s33.167 55.5 46.5 80.5s25.166 49.167 35.499 72.5l31.5 73l114 271h120zM248 618.995c48 46.667 92.334 92.832 133.001 138.499s75.667 90.334 105 134.001s52.166 86.167 68.499 127.5s24.5 81.333 24.5 120c0 12 -2 24 -6 36s-12.667 18 -26 18
c-23.333 0 -46.833 -18 -70.5 -54s-48.5 -85.333 -74.5 -148z" />
    <glyph glyph-name=".notdef" horiz-adv-x="490" 
 />
    <glyph glyph-name="space" unicode=" " horiz-adv-x="490" 
 />
    <glyph glyph-name="exclam" unicode="!" horiz-adv-x="445" 
d="M41 199h-27l481 1198h141zM51 66c0 -19.333 -7 -36.166 -21 -50.499s-30.667 -21.5 -50 -21.5s-35.833 7.16699 -49.5 21.5s-20.5 31.166 -20.5 50.499s6.83301 35.666 20.5 48.999s30.167 20 49.5 20s36 -6.66699 50 -20s21 -29.666 21 -48.999z" />
    <glyph glyph-name="quotedbl" unicode="&#x22;" horiz-adv-x="332" 
d="M354 994h-47l121 363h125zM186 994h-45l119 363h125z" />
    <glyph glyph-name="numbersign" unicode="#" horiz-adv-x="674" 
d="M-24 204l102 232h-130l21 46h128l108 245h-136l21 46h134l92 209h51l-92 -209h142l92 209h50l-92 -209h137l-21 -46h-135l-108 -245h143l-21 -46h-141l-102 -232h-50l102 232h-142l-102 -232h-51zM290 482l108 245h-142l-108 -245h142z" />
    <glyph glyph-name="dollar" unicode="$" horiz-adv-x="680" 
d="M475 1138c20.667 -6 39.668 -13.5 57.001 -22.5s33.166 -19 47.499 -30s27.333 -22.333 39 -34s21.834 -23.167 30.501 -34.5l-84 -68c-35.333 66 -71 111.667 -107 137l-131 -403l51.5 -67.5c17 -23 32.167 -46.667 45.5 -71s24.166 -49.666 32.499 -75.999
s12.5 -53.5 12.5 -81.5c0 -45.333 -9.16699 -85.5 -27.5 -120.5s-42 -64.333 -71 -88s-61.5 -41.5 -97.5 -53.5s-71.333 -18 -106 -18h-13.5c-4.33301 0 -8.5 0.333008 -12.5 1l-65 -201l-46 14l63 194c-23.333 5.33301 -45 12.666 -65 21.999s-38.333 19.666 -55 30.999
s-31.5 23.333 -44.5 36s-24.167 25 -33.5 37l84 68c21.333 -39.333 42.666 -70.833 63.999 -94.5s43 -41.167 65 -52.5l139 426l-54 69.5c-18 23.667 -34.167 47.834 -48.5 72.501s-25.833 49.5 -34.5 74.5s-13 50.5 -13 76.5c0 48 8.83301 89.167 26.5 123.5
s40.334 62.333 68.001 84s58.667 37.5 93 47.5s68.5 15 102.5 15c14 0 28 -1 42 -3l53 163l44 -16zM195.001 923c0 -33.333 9.49902 -65.833 28.499 -97.5s41.833 -64.5 68.5 -98.5l123 380c-13.333 3.33301 -25.666 5 -36.999 5c-24 0 -47 -3.83301 -69 -11.5
s-41.5 -19.167 -58.5 -34.5s-30.5 -35 -40.5 -59s-15 -52 -15 -84zM369 354c0 31.333 -8.5 62.667 -25.5 94s-37.5 63 -61.5 95l-128 -396c3.33301 -0.666992 6.83301 -1 10.5 -1h11.5c24 0 47.5 4.83301 70.5 14.5s43.667 23.5 62 41.5s33 39.833 44 65.5
s16.5 54.5 16.5 86.5z" />
    <glyph glyph-name="percent" unicode="%" horiz-adv-x="1077" 
d="M199 657c-42.667 0 -77.167 14.5 -103.5 43.5s-39.5 68.167 -39.5 117.5c0 50 10 99 30 147s45.833 91 77.5 129s67.334 68.5 107.001 91.5s79.5 34.5 119.5 34.5c42.667 0 77.167 -14.5 103.5 -43.5s39.5 -68.167 39.5 -117.5c0 -50 -10 -99 -30 -147
s-45.833 -91 -77.5 -129s-67.334 -68.5 -107.001 -91.5s-79.5 -34.5 -119.5 -34.5zM212 700c18 0 36.165 5.66602 54.498 16.999s36 26.833 53 46.5s33 42.334 48 68.001s28 52.834 39 81.501s19.667 57.834 26 87.501s9.5 58.167 9.5 85.5c0 32.667 -6 56.5 -18 71.5
s-27.333 22.5 -46 22.5c-18 0 -36.167 -5.83301 -54.5 -17.5s-36.166 -27.334 -53.499 -47.001s-33.333 -42.5 -48 -68.5s-27.667 -53.333 -39 -82s-20.166 -57.834 -26.499 -87.501s-9.5 -58.167 -9.5 -85.5c0 -33.333 6.33301 -57 19 -71s28 -21 46 -21z
M123.998 -0.000976562h-84l803 1219h84zM576.998 -0.000976562c-42.667 0 -77.167 14.5 -103.5 43.5s-39.5 68.167 -39.5 117.5c0 50 10 99 30 147s45.833 91 77.5 129s67.334 68.5 107.001 91.5s79.5 34.5 119.5 34.5c42.667 0 77.167 -14.5 103.5 -43.5
s39.5 -68.167 39.5 -117.5c0 -50 -10 -99 -30 -147s-45.833 -91 -77.5 -129s-67.334 -68.5 -107.001 -91.5s-79.5 -34.5 -119.5 -34.5zM589.998 42.999c18 0 36.165 5.66602 54.498 16.999s36 26.833 53 46.5s33 42.334 48 68.001s28 52.834 39 81.501
s19.667 57.834 26 87.501s9.5 58.167 9.5 85.5c0 32.667 -6 56.5 -18 71.5s-27.333 22.5 -46 22.5c-18 0 -36.167 -5.83301 -54.5 -17.5s-36.166 -27.334 -53.499 -47.001s-33.333 -42.5 -48 -68.5s-27.667 -53.333 -39 -82s-20.166 -57.834 -26.499 -87.501
s-9.5 -58.167 -9.5 -85.5c0 -33.333 6.33301 -57 19 -71s28 -21 46 -21z" />
    <glyph glyph-name="ampersand" unicode="&#x26;" horiz-adv-x="886" 
d="M778 207l-262.003 0.00292969c-15.333 -31.333 -34.666 -60.5 -57.999 -87.5s-49.5 -50.5 -78.5 -70.5s-60 -35.833 -93 -47.5s-66.833 -17.5 -101.5 -17.5c-20.667 0 -43.5 2.5 -68.5 7.5s-48.5 14.333 -70.5 28s-40.5 32.5 -55.5 56.5s-22.5 55 -22.5 93
c0 40 8 77 24 111s36.167 65 60.5 93s51 53 80 75s56.5 40.833 82.5 56.5s48.5 28.334 67.5 38.001s30.833 16.5 35.5 20.5c4.66699 2.66699 7 6.33398 7 11.001c0 8 -5.16699 14.833 -15.5 20.5s-21.833 12.334 -34.5 20.001s-24.167 17.167 -34.5 28.5s-15.5 27 -15.5 47
c0 24 8.83301 49.167 26.5 75.5s39.667 50.166 66 71.499s55.333 39 87 53s61.5 21 89.5 21c27.333 -1.33301 52 -6.33301 74 -15c18.667 -7.33301 35.834 -18.833 51.501 -34.5s23.834 -38.167 24.501 -67.5l-105 -84c4.66699 16 7 31.333 7 46
c0 32 -7.16699 57.333 -21.5 76s-33.5 28 -57.5 28c-17.333 0 -33.666 -2.83301 -48.999 -8.5s-28.833 -13.334 -40.5 -23.001s-20.834 -21 -27.501 -34s-10 -26.833 -10 -41.5c0 -10 2.33301 -19.333 7 -28s10.334 -16.667 17.001 -24s13.834 -13.833 21.501 -19.5
s14.5 -10.167 20.5 -13.5c10.667 -6.66699 22 -14.834 34 -24.501s18 -21.167 18 -34.5c0 -8 -3.33301 -15.667 -10 -23s-18.667 -14.666 -36 -21.999c-21.333 -9.33301 -44.666 -21.5 -69.999 -36.5s-50.833 -33 -76.5 -54s-50 -45.167 -73 -72.5s-42.5 -57.333 -58.5 -90
c-24 -49.333 -36 -94.333 -36 -135c0 -36 10.167 -64.833 30.5 -86.5s51.5 -32.5 93.5 -32.5c24.667 0 49 4 73 12s46.667 18.667 68 32s41.166 29.166 59.499 47.499s34.166 37.833 47.499 58.5h-34c-27.333 0 -50.833 3.66699 -70.5 11s-35.834 17.166 -48.501 29.499
s-22 26.333 -28 42s-9 31.5 -9 47.5c0 20 3.5 38.5 10.5 55.5s17 31.667 30 44s28.333 21.833 46 28.5s37.167 10 58.5 10c13.333 0 27.333 -2.33301 42 -7s28 -12.334 40 -23.001s22 -24.334 30 -41.001s12 -37 12 -61c0 -8 -0.333008 -15.833 -1 -23.5
s-1.66699 -15.167 -3 -22.5h279zM323.997 367.003c0 -17.333 7.33203 -33.334 21.999 -48.001s39 -22 73 -22h91c4 16 6 31.667 6 47c0 34.667 -8.83301 60.667 -26.5 78s-41.167 26 -70.5 26c-11.333 0 -22.666 -1.66699 -33.999 -5s-21.5 -8.33301 -30.5 -15
s-16.333 -15.167 -22 -25.5s-8.5 -22.166 -8.5 -35.499z" />
    <glyph glyph-name="quotesingle" unicode="'" horiz-adv-x="164" 
d="M186 994h-45l119 363h125z" />
    <glyph glyph-name="parenleft" unicode="(" horiz-adv-x="602" 
d="M98 -106c-21.333 58.667 -38.1689 121.335 -50.502 188.002s-18.5 135.334 -18.5 206.001s6.33301 141.667 19 213s33.667 142 63 212c18.667 45.333 42.334 92.666 71.001 141.999s60.834 99.166 96.501 149.499s73.834 100.166 114.501 149.499s82.5 96.5 125.5 141.5
s86.5 86.833 130.5 125.5s87 73 129 103h33c-113.333 -106 -213.5 -219 -300.5 -339s-160.333 -241.5 -220 -364.5s-104.834 -245.333 -135.501 -367s-46 -237.167 -46 -346.5c0 -36.667 1.83301 -73.167 5.5 -109.5s9.16699 -70.833 16.5 -103.5h-33z" />
    <glyph glyph-name="parenright" unicode=")" horiz-adv-x="602" 
d="M-197 -106c104 98.667 199.168 205.833 285.501 321.5s160.333 234.667 222 357s109.5 245.5 143.5 369.5s51 243.667 51 359c0 38 -1.83301 75.5 -5.5 112.5s-9.16699 73.833 -16.5 110.5h32c25.333 -44 44.5 -96.833 57.5 -158.5s19.5 -127.5 19.5 -197.5
c0 -116.667 -17.5 -230.5 -52.5 -341.5s-85 -219.5 -150 -325.5s-144.333 -209.5 -238 -310.5s-198.834 -199.833 -315.501 -296.5h-33z" />
    <glyph glyph-name="asterisk" unicode="*" horiz-adv-x="492" 
d="M376 979l-73 -161l-81 52l121 135l-170 27l30 91l152 -77l-27 173h97l-27 -173l152 77l30 -91l-171 -27l122 -134l-80 -53z" />
    <glyph glyph-name="plus" unicode="+" 
d="M354 547l-111 -276h-84l112 276h-264l31 76h263l112 275h84l-112 -275h278l-31 -76h-278z" />
    <glyph glyph-name="comma" unicode="," horiz-adv-x="268" 
d="M-132 -102c10 6 19.833 12.665 29.5 19.998s18.834 15 27.501 23s16.167 16.333 22.5 25s10.5 17 12.5 25c-18 4 -32.5 12.667 -43.5 26s-16.5 28 -16.5 44c0 20.667 7 38.167 21 52.5s30.667 21.5 50 21.5c21.333 0 39.166 -7.16699 53.499 -21.5
s21.5 -32.166 21.5 -53.499c0 -18 -4.83301 -36.167 -14.5 -54.5s-22.167 -36.166 -37.5 -53.499s-32.5 -33.333 -51.5 -48s-37.833 -27 -56.5 -37z" />
    <glyph glyph-name="hyphen" unicode="-" 
d="M55 412l39 116h507l-39 -116h-507z" />
    <glyph glyph-name="period" unicode="." horiz-adv-x="268" 
d="M46 63c0 -20 -7.16699 -37.167 -21.5 -51.5s-31.833 -21.5 -52.5 -21.5c-19.333 0 -36.166 7.16699 -50.499 21.5s-21.5 31.5 -21.5 51.5c0 19.333 7.16699 36.166 21.5 50.499s31.166 21.5 50.499 21.5c20.667 0 38.167 -7.16699 52.5 -21.5s21.5 -31.166 21.5 -50.499z
" />
    <glyph glyph-name="slash" unicode="/" horiz-adv-x="526" 
d="M-162 0h-88l938 1397h88z" />
    <glyph glyph-name="zero" unicode="0" horiz-adv-x="987" 
d="M237 -23c-42.667 0 -81 7.33301 -115 22s-63 36.167 -87 64.5s-42.5 63.333 -55.5 105s-19.5 89.5 -19.5 143.5c0 73.333 9.33301 146.833 28 220.5s44.334 144 77.001 211s71 129.5 115 187.5s91.167 108.5 141.5 151.5s102.666 76.667 156.999 101
s108.166 36.5 161.499 36.5c42.667 0 81 -7.33301 115 -22s63 -36 87 -64s42.5 -62.833 55.5 -104.5s19.5 -89.5 19.5 -143.5c0 -73.333 -9.33301 -146.833 -28 -220.5s-44.334 -144.167 -77.001 -211.5s-71 -130 -115 -188s-91.167 -108.5 -141.5 -151.5
s-102.666 -76.667 -156.999 -101s-108.166 -36.5 -161.499 -36.5zM249 28c39.333 0 79.998 14.3369 121.998 43.0039s83.333 66.667 124 114s79.167 101.833 115.5 163.5s68.333 125.667 96 192s49.5 132.666 65.5 198.999s24 127.833 24 184.5
c0 83.333 -14.167 146.166 -42.5 188.499s-70.833 63.5 -127.5 63.5c-39.333 0 -80 -14.333 -122 -43s-83.167 -67 -123.5 -115s-78.666 -103.167 -114.999 -165.5s-68.166 -126.833 -95.499 -193.5s-49 -133.334 -65 -200.001s-24 -128.334 -24 -185.001
c0 -164 56 -246 168 -246z" />
    <glyph glyph-name="one" unicode="1" horiz-adv-x="635" 
d="M136 0h-123l455 1087l-434 -469l-34 34l512 553h128z" />
    <glyph glyph-name="two" unicode="2" horiz-adv-x="885" 
d="M79 590c-10 36.667 -15.0029 74.0049 -15.0029 112.005c0 65.333 13.5 129.166 40.5 191.499s64 117.666 111 165.999s102.167 87.333 165.5 117s131.666 44.5 204.999 44.5c40.667 0 77.834 -6.66699 111.501 -20s62.5 -31.666 86.5 -54.999s42.667 -50.833 56 -82.5
s20 -66.167 20 -103.5c0 -68.667 -12.833 -130.834 -38.5 -186.501s-60.5 -107.334 -104.5 -155.001s-95.333 -92.334 -154 -134.001s-121 -82.834 -187 -123.501l-204 -124.5c-70 -42.333 -138 -87.833 -204 -136.5c10 4.66699 19 8.33398 27 11.001s16.5 4.66699 25.5 6
s19 2.16602 30 2.49902s24.5 0.5 40.5 0.5c37.333 0 77.5 -1.66699 120.5 -5s87.5 -5 133.5 -5c19.333 0 36.833 1 52.5 3s30.167 5.16699 43.5 9.5s25.833 10.166 37.5 17.499s23.167 16.333 34.5 27l36 -19l-135 -165c-38.667 4.66699 -76.5 10.167 -113.5 16.5
s-74.167 12.166 -111.5 17.499s-75.5 9.83301 -114.5 13.5s-79.833 5.5 -122.5 5.5c-28 0 -56.667 -4.33301 -86 -13s-56.333 -22.667 -81 -42l-24 31c79.333 62 158.5 119.833 237.5 173.5l226 154c71.667 49 138.334 97 200.001 144s115.334 95 161.001 144
s81.334 100.333 107.001 154s38.5 111.834 38.5 174.501c0 30 -4.5 58 -13.5 84s-21.833 48.5 -38.5 67.5s-36.667 34 -60 45s-49.333 16.5 -78 16.5c-56 0 -107 -11.667 -153 -35s-85.333 -53.166 -118 -89.499s-58 -77 -76 -122s-27 -89.167 -27 -132.5
c0 -23.333 3 -46 9 -68s15 -42 27 -60z" />
    <glyph glyph-name="three" unicode="3" horiz-adv-x="858" 
d="M203 731c14.667 6.66699 29.667 12.3311 45 16.998s31.666 8.66699 48.999 12c34 8.66699 69.167 21.167 105.5 37.5s69.333 36.5 99 60.5s54.167 52.167 73.5 84.5s29 68.833 29 109.5c0 42 -11.5 73.5 -34.5 94.5s-51.833 31.5 -86.5 31.5
c-30.667 0 -59.167 -5.83301 -85.5 -17.5s-50.333 -27.5 -72 -47.5s-41 -43.667 -58 -71s-31.167 -56.333 -42.5 -87l-79 102c33.333 30 65.666 55.333 96.999 76s61.833 37.334 91.5 50.001s58.667 21.667 87 27s55.833 8 82.5 8c31.333 0 61.166 -3.83301 89.499 -11.5
s53.166 -18.834 74.499 -33.501s38.333 -32.667 51 -54s19 -46 19 -74c0 -38 -9.66699 -72.167 -29 -102.5s-44.5 -57.333 -75.5 -81s-65.5 -43.834 -103.5 -60.501s-75.667 -30 -113 -40c38.667 -5.33301 72.834 -16.166 102.501 -32.499s54.5 -36.666 74.5 -60.999
s35 -51.666 45 -81.999s15 -61.833 15 -94.5c0 -52 -9.16699 -100.667 -27.5 -146s-43.166 -87 -74.499 -125s-68 -72.833 -110 -104.5s-87 -60.334 -135 -86.001s-97.5 -48.334 -148.5 -68.001s-101.167 -36.667 -150.5 -51s-96.5 -26 -141.5 -35s-85.5 -15.5 -121.5 -19.5
l-4 40c51.333 5.33301 105.833 15.166 163.5 29.499s115 33 172 56s111.5 50.667 163.5 83s97.833 69.333 137.5 111s71.334 87.834 95.001 138.501s35.5 106.334 35.5 167.001c0 28 -2.66699 55.667 -8 83s-15 51.833 -29 73.5s-32.667 39.334 -56 53.001
s-53 20.5 -89 20.5c-19.333 0 -38.166 -2.16699 -56.499 -6.5s-35.833 -9.5 -52.5 -15.5z" />
    <glyph glyph-name="four" unicode="4" horiz-adv-x="933" 
d="M-156 255c59.333 48 117.999 99.1641 175.999 153.497s114 110 168 167s106 114.667 156 173l140 170.5l119.5 159c36.333 50.667 68.5 97.334 96.5 140.001l113 -54c-17.333 -26.667 -43.166 -62 -77.499 -106s-74.666 -92.667 -120.999 -146l-152 -167.5
c-55 -58.333 -112 -115.5 -171 -171.5s-118.167 -108.833 -177.5 -158.5s-116.333 -92.167 -171 -127.5c17.333 9.33301 33.666 17.166 48.999 23.499s30.333 11.333 45 15s29.5 6.33398 44.5 8.00098s31.167 2.5 48.5 2.5c28.667 0 57 -2 85 -6s55.833 -8.5 83.5 -13.5
l82.5 -15c27.333 -5 54.666 -8.83301 81.999 -11.5l248 591h122l-248 -593c34.667 1.33301 67.334 4.33301 98.001 9s55.667 11.334 75 20.001l-19 -45c-30 -11.333 -59.5 -20.833 -88.5 -28.5s-59.833 -14.167 -92.5 -19.5l-93 -224h-123l89 214h-16
c-33.333 0 -66.333 2.33301 -99 7s-64.667 9.66699 -96 15s-62.5 10.333 -93.5 15s-61.5 7 -91.5 7s-59 -2.66699 -87 -8s-56.333 -14.666 -85 -27.999z" />
    <glyph glyph-name="five" unicode="5" horiz-adv-x="886" 
d="M7 598l332.002 579.997c22 8.66699 43.667 15.334 65 20.001s45.333 7 72 7c28 0 55 -2.66699 81 -8s51.333 -11.166 76 -17.499s49.167 -12.166 73.5 -17.499s49.166 -8 74.499 -8c24.667 0 49.5 3.5 74.5 10.5s51.833 19.167 80.5 36.5l14 -34
c-31.333 -23.333 -60.333 -43 -87 -59s-51.834 -29 -75.501 -39s-46 -17.167 -67 -21.5s-41.5 -6.5 -61.5 -6.5c-30 0 -56.5 3.16699 -79.5 9.5s-44 13.5 -63 21.5l-53 21.5c-16.333 6.33301 -32.5 9.5 -48.5 9.5c-18 0 -36 -2.66699 -54 -8l-266 -468
c17.333 18 36.666 35.167 57.999 51.5s44.833 31 70.5 44s53.5 23.333 83.5 31s62 11.5 96 11.5c48 0 90 -7.33301 126 -22s66.167 -34.5 90.5 -59.5s42.666 -54.167 54.999 -87.5s18.5 -68.333 18.5 -105c0 -52 -9.16699 -100.667 -27.5 -146s-43.166 -87 -74.499 -125
s-68 -72.833 -110 -104.5s-87 -60.334 -135 -86.001s-97.5 -48.334 -148.5 -68.001s-101.167 -36.667 -150.5 -51s-96.5 -26 -141.5 -35s-85.5 -15.5 -121.5 -19.5l-4 40c51.333 5.33301 105.833 15.166 163.5 29.499s115 33 172 56s111.5 50.667 163.5 83
s97.833 69.333 137.5 111s71.334 87.834 95.001 138.501s35.5 106.334 35.5 167.001c0 25.333 -2.66699 50.833 -8 76.5s-14.666 48.834 -27.999 69.501s-31.833 37.5 -55.5 50.5s-53.834 19.5 -90.501 19.5c-31.333 0 -60.833 -4.16699 -88.5 -12.5s-54 -19.833 -79 -34.5
s-48.5 -32 -70.5 -52s-43 -41.667 -63 -65z" />
    <glyph glyph-name="six" unicode="6" horiz-adv-x="962" 
d="M952 1175c-84 -16.667 -165.837 -42.667 -245.504 -78s-154.167 -77.5 -223.5 -126.5s-132 -103.5 -188 -163.5s-102 -123.333 -138 -190c22.667 22.667 47.834 44.667 75.501 66s57.5 40.333 89.5 57s66 30 102 40s73.333 15 112 15c52 0 95.833 -9.16699 131.5 -27.5
s64.5 -42.166 86.5 -71.499s38 -62 48 -98s15 -71.667 15 -107c0 -40 -6.66699 -80.5 -20 -121.5s-32.166 -80.5 -56.499 -118.5s-53.166 -73.667 -86.499 -107s-69.833 -62.333 -109.5 -87s-82.167 -44.167 -127.5 -58.5s-91.666 -21.5 -138.999 -21.5
c-53.333 0 -100.833 8.66699 -142.5 26s-77 41.166 -106 71.499s-51 66.166 -66 107.499s-22.5 86.333 -22.5 135c0 75.333 13.667 148.333 41 219s65 137.667 113 201s104.5 122 169.5 176s135 101.667 210 143s153.167 75.333 234.5 102s162.333 44.334 243 53.001v-36z
M484.996 731c-42.667 0 -83.498 -7.83301 -122.498 -23.5s-74.833 -35.167 -107.5 -58.5s-61.834 -48.666 -87.501 -75.999s-46.5 -53 -62.5 -77c-9.33301 -29.333 -16.333 -58.333 -21 -87s-7 -57.667 -7 -87c0 -36.667 3.16699 -72.667 9.5 -108s17.5 -67 33.5 -95
s37.667 -50.5 65 -67.5s62 -25.5 104 -25.5c35.333 0 69.666 6.33301 102.999 19s64.666 30 93.999 52s56.166 48 80.499 78s45.333 62.333 63 97s31.334 70.667 41.001 108s14.5 74.666 14.5 111.999c0 32 -3.5 62.5 -10.5 91.5s-18.333 54.5 -34 76.5
s-36.167 39.333 -61.5 52s-56.666 19 -93.999 19z" />
    <glyph glyph-name="seven" unicode="7" horiz-adv-x="730" 
d="M-78 0c35.333 103.333 75.002 196.501 119.002 279.501s90.667 158.5 140 226.5s100.333 129.833 153 185.5s105.167 108.167 157.5 157.5l154.5 142c50.667 45.333 98.667 91.666 144 138.999c-28 -8 -62.667 -15 -104 -21c-35.333 -5.33301 -79.333 -10 -132 -14
s-114.334 -6 -185.001 -6c-26.667 0 -51.334 -1.16699 -74.001 -3.5s-44 -7.33301 -64 -15s-39.333 -18.5 -58 -32.5s-37 -32.333 -55 -55l-35 19l143 222c28.667 -7.33301 60.334 -13.666 95.001 -18.999c30 -4.66699 64.5 -8.83398 103.5 -12.501s80.833 -5.5 125.5 -5.5
c56.667 0 115 3 175 9s118.333 17.667 175 35l25 -23c-54 -64.667 -107.833 -123.5 -161.5 -176.5l-157.5 -157c-51.333 -51.667 -101.5 -105 -150.5 -160s-96 -116.5 -141 -184.5s-87.833 -145 -128.5 -231s-78.334 -185.667 -113.001 -299h-151z" />
    <glyph glyph-name="eight" unicode="8" horiz-adv-x="882" 
d="M553 1221c31.333 0 61.498 -5.00195 90.498 -15.002s54.5 -24.667 76.5 -44s39.5 -43.166 52.5 -71.499s19.5 -60.833 19.5 -97.5c0 -40.667 -8.33301 -76.834 -25 -108.501s-39 -60 -67 -85s-60.667 -47.667 -98 -68s-76.666 -39.5 -117.999 -57.5l70 -78
c23.333 -26 44.5 -53 63.5 -81s34.5 -57.833 46.5 -89.5s18 -66.167 18 -103.5c0 -55.333 -12.667 -104 -38 -146s-59 -77.167 -101 -105.5s-90 -49.666 -144 -63.999s-109.333 -21.5 -166 -21.5c-48.667 0 -93.167 6 -133.5 18s-74.833 29.333 -103.5 52
s-51 50.334 -67 83.001s-24 70 -24 112c0 58 12.667 107.833 38 149.5s58.333 78.167 99 109.5s86.834 58.833 138.501 82.5l156.5 68.5c-15.333 18.667 -29.833 38.167 -43.5 58.5s-25.667 41.666 -36 63.999s-18.5 45.5 -24.5 69.5s-9 49.667 -9 77c0 44 9.5 84 28.5 120
s44 66.833 75 92.5s66.167 45.334 105.5 59.001s79.333 20.5 120 20.5zM562.998 320.998c0 27.333 -5.83398 53.6689 -17.501 79.002s-26.834 50.166 -45.501 74.499s-39.667 48.833 -63 73.5l-70 76c-48 -20 -94.667 -41.333 -140 -64s-85.5 -48.334 -120.5 -77.001
s-63.167 -61.834 -84.5 -99.501s-32 -81.5 -32 -131.5c0 -66.667 20.833 -119.167 62.5 -157.5s101.834 -57.5 180.501 -57.5c43.333 0 84.833 6.83301 124.5 20.5s74.834 33 105.501 58s55 54.833 73 89.5s27 73.334 27 116.001zM346.997 960.001
c0 -50.667 10.333 -96.0029 31 -136.003s46 -78 76 -114c36.667 16.667 71 34.5 103 53.5s60 40 84 63s42.833 48.833 56.5 77.5s20.5 61 20.5 97c0 24 -3.16699 46.333 -9.5 67s-16 38.834 -29 54.501s-29 27.834 -48 36.501s-41.5 13 -67.5 13
c-30.667 0 -59.167 -4.83301 -85.5 -14.5s-49.333 -23.667 -69 -42s-35 -40.666 -46 -66.999s-16.5 -55.833 -16.5 -88.5z" />
    <glyph glyph-name="nine" unicode="9" horiz-adv-x="962" 
d="M-110 23c84 16.667 165.838 42.666 245.505 77.999s154.167 77.5 223.5 126.5s131.833 103.5 187.5 163.5s101.5 123 137.5 189c-22.667 -22.667 -47.834 -44.667 -75.501 -66s-57.5 -40.166 -89.5 -56.499s-65.833 -29.5 -101.5 -39.5s-72.834 -15 -111.501 -15
c-52 0 -95.833 9.16699 -131.5 27.5s-64.5 42.166 -86.5 71.499s-38 62 -48 98s-15 71.667 -15 107c0 40 6.66699 80.5 20 121.5s32.166 80.5 56.499 118.5s53.166 73.667 86.499 107s69.833 62.333 109.5 87s82.167 44.167 127.5 58.5s91.666 21.5 138.999 21.5
c53.333 0 100.833 -8.66699 142.5 -26s77 -41.166 106 -71.499s51 -66.166 66 -107.499s22.5 -86.333 22.5 -135c0 -75.333 -13.667 -148.333 -41 -219s-65 -137.667 -113 -201s-104.5 -122 -169.5 -176s-135 -101.667 -210 -143s-153.167 -75.333 -234.5 -102
s-162.333 -44.334 -243 -53.001v36zM357.005 466.999c42.667 0 83.3311 7.66602 121.998 22.999s74.334 34.833 107.001 58.5s61.834 49.167 87.501 76.5s46.5 53 62.5 77c19.333 58 29 116 29 174c0 36.667 -3.16699 72.667 -9.5 108s-17.5 67 -33.5 95
s-37.667 50.5 -65 67.5s-62 25.5 -104 25.5c-53.333 0 -103.833 -13.833 -151.5 -41.5s-89.667 -63.667 -126 -108s-65.166 -94.166 -86.499 -149.499s-32 -111 -32 -167c0 -32 3.5 -62.5 10.5 -91.5s18.333 -54.5 34 -76.5s36.167 -39.333 61.5 -52s56.666 -19 93.999 -19z
" />
    <glyph glyph-name="colon" unicode=":" horiz-adv-x="432" 
d="M272 558c0 -20.667 -7.16699 -38.167 -21.5 -52.5s-31.833 -21.5 -52.5 -21.5c-19.333 0 -36 7.16699 -50 21.5s-21 31.833 -21 52.5c0 19.333 7 36.166 21 50.499s30.667 21.5 50 21.5c20.667 0 38.167 -7.16699 52.5 -21.5s21.5 -31.166 21.5 -50.499zM55 63
c0 -20 -7 -37.167 -21 -51.5s-31.333 -21.5 -52 -21.5c-19.333 0 -36.166 7.16699 -50.499 21.5s-21.5 31.5 -21.5 51.5c0 19.333 7.16699 36.166 21.5 50.499s31.166 21.5 50.499 21.5c20.667 0 38 -7.16699 52 -21.5s21 -31.166 21 -50.499z" />
    <glyph glyph-name="semicolon" unicode=";" horiz-adv-x="432" 
d="M-122 -102c10 6 19.833 12.665 29.5 19.998s18.834 15 27.501 23s16.167 16.333 22.5 25s10.5 17 12.5 25c-18 4 -32.5 12.667 -43.5 26s-16.5 28 -16.5 44c0 20.667 7 38.167 21 52.5s30.667 21.5 50 21.5c21.333 0 39.166 -7.16699 53.499 -21.5
s21.5 -32.166 21.5 -53.499c0 -18 -4.83301 -36.167 -14.5 -54.5s-22.167 -36.166 -37.5 -53.499s-32.5 -33.333 -51.5 -48s-37.833 -27 -56.5 -37zM272 557.998c0 -20.667 -7.16699 -38.167 -21.5 -52.5s-31.833 -21.5 -52.5 -21.5c-19.333 0 -36 7.16699 -50 21.5
s-21 31.833 -21 52.5c0 19.333 7 36.166 21 50.499s30.667 21.5 50 21.5c20.667 0 38.167 -7.16699 52.5 -21.5s21.5 -31.166 21.5 -50.499z" />
    <glyph glyph-name="less" unicode="&#x3c;" 
d="M60 584l569 314l-43 -107l-402 -222l279 -280l-32 -77z" />
    <glyph glyph-name="equal" unicode="=" 
d="M-9 444l31 76h585l-31 -76h-585zM63 651l31 76h585l-31 -76h-585z" />
    <glyph glyph-name="greater" unicode="&#x3e;" 
d="M598 526l-569 -314l43 107l402 222l-279 280l32 77z" />
    <glyph glyph-name="question" unicode="?" horiz-adv-x="840" 
d="M197 63c0 -20 -7.16699 -37.167 -21.5 -51.5s-31.833 -21.5 -52.5 -21.5c-19.333 0 -36.166 7.16699 -50.499 21.5s-21.5 31.5 -21.5 51.5c0 19.333 7.16699 36.166 21.5 50.499s31.166 21.5 50.499 21.5c20.667 0 38.167 -7.16699 52.5 -21.5s21.5 -31.166 21.5 -50.499
zM133 199c20 52.667 43.5 101.167 70.5 145.5s56 86.333 87 126s62.833 77.5 95.5 113.5l95.5 106.5c31 35 60.5 70 88.5 105s52.333 71.667 73 110s37.167 78.833 49.5 121.5s18.5 88.667 18.5 138c0 24.667 -3.16699 48.667 -9.5 72s-15.833 44 -28.5 62
s-28.5 32.5 -47.5 43.5s-40.833 16.5 -65.5 16.5c-38 0 -75 -8.66699 -111 -26s-67.833 -40.5 -95.5 -69.5s-49.834 -62 -66.501 -99s-25 -74.833 -25 -113.5c0 -41.333 11.333 -74 34 -98s55 -36 97 -36c16.667 0 31.5 2.33301 44.5 7s24.167 10 33.5 16s17 12 23 18
s10.333 10.667 13 14l13 -26c-14 -16 -29.333 -29.333 -46 -40s-33.5 -19.334 -50.5 -26.001s-33.333 -11.5 -49 -14.5s-29.5 -4.5 -41.5 -4.5c-23.333 0 -45.666 3.5 -66.999 10.5s-40.333 17.5 -57 31.5s-30 31.333 -40 52s-15 44.334 -15 71.001
c0 34 6.16699 66.667 18.5 98s29.166 60.833 50.499 88.5s46.166 52.834 74.499 75.501s58.833 42 91.5 58s66.334 28.5 101.001 37.5s68.667 13.5 102 13.5c36 0 69.167 -6 99.5 -18s56.5 -28.667 78.5 -50s39.167 -46.5 51.5 -75.5s18.5 -60.833 18.5 -95.5
c0 -50 -7.83301 -97 -23.5 -141s-36.667 -86.167 -63 -126.5s-56.833 -79 -91.5 -116s-71 -73.667 -109 -110l-114.5 -108.5c-38.333 -36 -74.5 -72.833 -108.5 -110.5s-64.667 -76.834 -92 -117.501s-48.666 -83.667 -63.999 -129h-41z" />
    <glyph glyph-name="at" unicode="@" horiz-adv-x="1426" 
d="M882 373c24 0 50.334 7.83105 79.001 23.498s57.334 37.5 86.001 65.5s56.5 61.167 83.5 99.5s50.833 80.333 71.5 126s37.334 93.834 50.001 144.501s19 102.667 19 156c0 63.333 -6.16699 116.5 -18.5 159.5s-30.166 77.667 -53.499 104s-51.5 45.166 -84.5 56.499
s-70.5 17 -112.5 17c-76 0 -148.667 -14.667 -218 -44s-133.5 -69 -192.5 -119s-112.5 -107.667 -160.5 -173s-89 -134 -123 -206s-60.167 -144.833 -78.5 -218.5s-27.5 -143.834 -27.5 -210.501c0 -55.333 6.66699 -103.666 20 -144.999s32.5 -75.833 57.5 -103.5
s55.167 -48.334 90.5 -62.001s75.333 -20.5 120 -20.5c33.333 0 71.5 4.83301 114.5 14.5s86.167 25.167 129.5 46.5l19 -35c-54 -31.333 -107.5 -53.166 -160.5 -65.499s-104.167 -18.5 -153.5 -18.5c-44 0 -88 6.83301 -132 20.5s-83.333 35.834 -118 66.501
s-62.834 70.5 -84.501 119.5s-32.5 108.833 -32.5 179.5c0 87.333 12.333 173.166 37 257.499s58.5 164.166 101.5 239.499s93.833 144.666 152.5 207.999s122.167 118.166 190.5 164.499s139.833 82.333 214.5 108s149.667 38.5 225 38.5c59.333 0 112.333 -8.5 159 -25.5
s86 -41.5 118 -73.5s56.333 -70.667 73 -116s25 -96.333 25 -153c0 -53.333 -7.66699 -107.5 -23 -162.5s-36.333 -108.167 -63 -159.5s-58.167 -99.5 -94.5 -144.5s-75.666 -84.333 -117.999 -118s-86.5 -60.334 -132.5 -80.001s-92 -29.5 -138 -29.5
c-13.333 0 -26.666 4.33301 -39.999 13s-20 22.334 -20 41.001c0 17.333 2.66699 35.166 8 53.499s13.666 41.833 24.999 70.5c6 16 14.667 37.333 26 64l34 79.5l29.5 69.5c8.33301 20 12.5 31.333 12.5 34c0 5.33301 -2.33301 8 -7 8s-10 -4.33301 -16 -13l-21 -29.5
l-38.5 -54l-49 -68l-52.5 -71.5l-49.5 -64c-15.667 -19.333 -28.834 -34.333 -39.501 -45c-28 -28 -52.833 -50 -74.5 -66s-42.834 -24 -63.501 -24c-7.33301 0 -15.166 1.33301 -23.499 4s-16.166 7.83398 -23.499 15.501s-13.333 18 -18 31s-7 29.5 -7 49.5
c0 30 6.83301 63.5 20.5 100.5s32.334 74.5 56.001 112.5s51.834 75.333 84.501 112s68 69.667 106 99s78.167 53.833 120.5 73.5s84.833 31.834 127.5 36.501v-16c-35.333 -10.667 -69.333 -27 -102 -49s-63.167 -47.167 -91.5 -75.5s-54.333 -58.666 -78 -90.999
s-43.834 -64.166 -60.501 -95.499s-29.5 -61 -38.5 -89s-13.5 -51.667 -13.5 -71c0 -10.667 1.66699 -19.5 5 -26.5s7.66602 -10.5 12.999 -10.5c6 0 15.333 5.16699 28 15.5s27.167 24.333 43.5 42s34.166 38.167 53.499 61.5l59 72.5l59 76l54 72.5l64 86
c16.667 22.667 31.167 40.834 43.5 54.501s23.5 23.167 33.5 28.5s20.667 8 32 8c18 0 30.333 -3.83301 37 -11.5s10.667 -14.834 12 -21.501c1.33301 -7.33301 0.666016 -15.166 -2.00098 -23.499s-5.33398 -15.833 -8.00098 -22.5l-180 -427
c-2 -5.33301 -3.83301 -10.833 -5.5 -16.5s-2.5 -10.167 -2.5 -13.5c0 -5.33301 1.66699 -10.166 5 -14.499s8.66602 -6.5 15.999 -6.5z" />
    <glyph glyph-name="A" unicode="A" horiz-adv-x="1471" 
d="M1214 534l100.995 -0.000976562l-43 -92h-96l-186 -442h-133l185 442h-435l-7.5 -14.5l-7.5 -13.5c-51.333 -92.667 -101.666 -167.167 -150.999 -223.5s-96.666 -100 -141.999 -131s-88 -51.667 -128 -62s-76.667 -15.5 -110 -15.5c-28.667 0 -55.167 4.5 -79.5 13.5
s-45.5 21.667 -63.5 38s-32.167 36.5 -42.5 60.5s-15.5 51 -15.5 81c0 56.667 14.833 107.334 44.5 152.001s70.834 82.334 123.501 113.001s115.5 54 188.5 70s152.833 24 239.5 24h65c72 122.667 137.667 230 197 322s114 171.333 164 238s95.833 122 137.5 166
s80.834 78.833 117.501 104.5s71.5 43.667 104.5 54s65.5 15.5 97.5 15.5c42 0 75.333 -12.5 100 -37.5s37 -64.833 37 -119.5c0 -38.667 -6.66699 -84.334 -20 -137.001s-34.666 -114 -63.999 -184zM1328 1397c-22 0 -43.332 -2.83203 -63.999 -8.49902
s-43.334 -18.167 -68.001 -37.5s-52.5 -47.833 -83.5 -85.5s-67.667 -88.5 -110 -152.5s-91.5 -143.167 -147.5 -237.5l-196 -341.5h421l177 422c38.667 93.333 69.5 170.833 92.5 232.5s34.5 110.167 34.5 145.5c0 21.333 -4.33301 37.166 -13 47.499s-23 15.5 -43 15.5z
M68.9961 32c44 0 83.5 10.8369 118.5 32.5039s67.333 50.167 97 85.5s57.667 75.333 84 120l78.5 136l21 36h-59c-95.333 0 -175 -7.5 -239 -22.5s-115.333 -34.833 -154 -59.5s-66.167 -52.834 -82.5 -84.501s-24.5 -63.834 -24.5 -96.501
c0 -18.667 2.83301 -36.834 8.5 -54.501s14.834 -33.334 27.501 -47.001s29.167 -24.667 49.5 -33s45.166 -12.5 74.499 -12.5z" />
    <glyph glyph-name="B" unicode="B" horiz-adv-x="1274" 
d="M606 -18c-38 0 -74.168 5.00488 -108.501 15.0049s-67.166 23 -98.499 39s-61.166 33.833 -89.499 53.5s-55.5 39.5 -81.5 59.5c-36 -50 -75 -89.833 -117 -119.5s-89 -44.5 -141 -44.5c-18.667 0 -37.5 3 -56.5 9s-36.167 15.167 -51.5 27.5
s-27.833 28.166 -37.5 47.499s-14.5 42.666 -14.5 69.999c0 25.333 4.83301 49.333 14.5 72s23.5 42.667 41.5 60s39.667 31.166 65 41.499s53.666 15.5 84.999 15.5c25.333 0 51.166 -5.83301 77.499 -17.5s53.5 -26.5 81.5 -44.5c17.333 40 35.5 85.333 54.5 136l65.5 171
l58.5 154c20.333 52.667 41.333 104.167 63 154.5s43.667 97.833 66 142.5s45.166 83.667 68.499 117c36 52.667 69.833 96 101.5 130s62.834 61.667 93.501 83s61.334 38 92.001 50s63.667 22 99 30c10.667 2.66699 21.834 4.5 33.501 5.5s23.167 1.5 34.5 1.5
c32.667 0 65.167 -5.33301 97.5 -16s61.166 -26.5 86.499 -47.5s45.833 -46.833 61.5 -77.5s23.5 -66.334 23.5 -107.001c0 -34.667 -5.83301 -65.334 -17.5 -92.001s-27 -50.667 -46 -72s-40.667 -41 -65 -59s-49.5 -35.333 -75.5 -52
c-25.333 -16.667 -48.833 -31.167 -70.5 -43.5s-40.5 -23.666 -56.5 -33.999s-28.5 -20.333 -37.5 -30s-13.5 -20.167 -13.5 -31.5c0 -13.333 6.83301 -33.833 20.5 -61.5s28.667 -60.5 45 -98.5s31.333 -80 45 -126s20.5 -93.333 20.5 -142
c0 -55.333 -10.833 -105.5 -32.5 -150.5s-51.167 -83.833 -88.5 -116.5s-81.5 -57.834 -132.5 -75.501s-105.5 -26.5 -163.5 -26.5zM591.999 41.0049c43.333 0 83.168 8.33105 119.501 24.998s67.666 39 93.999 67s46.833 60 61.5 96s22 73.667 22 113
c0 38 -5.83301 76.333 -17.5 115s-24.667 75.167 -39 109.5l-39 93.5c-11.667 28 -17.5 50.333 -17.5 67c0 14 4 26.833 12 38.5s19.5 23.5 34.5 35.5s33.5 25.333 55.5 40l75 52c26.667 18.667 51.5 38.834 74.5 60.501s43 44.834 60 69.501s30.333 50.834 40 78.501
s14.5 57.5 14.5 89.5c0 32.667 -4.83301 61.167 -14.5 85.5s-23.5 44.5 -41.5 60.5s-39.5 28 -64.5 36s-52.833 12 -83.5 12c-18 0 -35.167 -2.33301 -51.5 -7s-29.833 -10.334 -40.5 -17.001c-25.333 -16 -50.5 -39.5 -75.5 -70.5s-49.333 -67.167 -73 -108.5
s-47 -86.833 -70 -136.5s-45.333 -100.667 -67 -153l-63 -158l-58.5 -152.5c-26.667 -68.667 -54.167 -135.667 -82.5 -201s-59.5 -125 -93.5 -179l79 -57.5c26.667 -19 53.667 -36.167 81 -51.5s55 -27.833 83 -37.5s56.667 -14.5 86 -14.5zM-40.999 35.0029
c20.667 0 39.498 3.49805 56.498 10.498s33 17.5 48 31.5s29.5 32 43.5 54s28 48 42 78c-25.333 18.667 -50 33.834 -74 45.501s-47 17.5 -69 17.5c-24.667 0 -46.167 -4.16699 -64.5 -12.5s-33.666 -19 -45.999 -32s-21.666 -27.667 -27.999 -44s-9.5 -32.166 -9.5 -47.499
c0 -31.333 9.16699 -56 27.5 -74s42.833 -27 73.5 -27z" />
    <glyph glyph-name="C" unicode="C" horiz-adv-x="1054" 
d="M791 764c75.333 36 134.338 90 177.005 162s64 156.333 64 253c0 31.333 -3.5 60.333 -10.5 87s-17.5 49.667 -31.5 69s-31.333 34.5 -52 45.5s-44.334 16.5 -71.001 16.5c-42.667 0 -85.334 -9 -128.001 -27s-84.667 -43 -126 -75s-81.166 -69.833 -119.499 -113.5
s-74.333 -91.167 -108 -142.5s-64.5 -105.333 -92.5 -162s-52 -114 -72 -172s-35.5 -115.333 -46.5 -172s-16.5 -111 -16.5 -163c0 -57.333 6 -106.333 18 -147s28.667 -74.334 50 -101.001s46.666 -46.167 75.999 -58.5s61.666 -18.5 96.999 -18.5
c6.66699 0 20.5 0.833008 41.5 2.5s46.667 7.16699 77 16.5s64.166 23.666 101.499 42.999s75.666 47 114.999 83l25 -36c-42.667 -41.333 -85.167 -73.666 -127.5 -96.999s-81.333 -40.5 -117 -51.5s-66.667 -17.667 -93 -20s-44.5 -3.5 -54.5 -3.5
c-36.667 0 -75.5 6 -116.5 18s-78.833 32.5 -113.5 61.5s-63.5 68 -86.5 117s-34.5 110.5 -34.5 184.5c0 70 7.5 139 22.5 207s36 133.667 63 197s58.667 123.833 95 181.5s75.666 111.167 117.999 160.5s86.833 94 133.5 134s93.334 74.167 140.001 102.5
s92.667 50.166 138 65.499s88 23 128 23c42.667 0 81.667 -6.33301 117 -19s65.833 -30.667 91.5 -54s45.667 -51.166 60 -83.499s21.5 -68.166 21.5 -107.499c0 -44 -9 -88.5 -27 -133.5s-42.333 -87 -73 -126s-66.167 -73.833 -106.5 -104.5s-82.5 -53.667 -126.5 -69z
" />
    <glyph glyph-name="D" unicode="D" horiz-adv-x="1410" 
d="M575 -18c-34.667 0 -66.6729 4.16699 -96.0059 12.5s-56.666 19.333 -81.999 33s-49 29.334 -71 47.001s-42.667 35.5 -62 53.5c-39.333 -49.333 -80.166 -85.5 -122.499 -108.5s-88.166 -34.5 -137.499 -34.5c-18 0 -36.167 2.83301 -54.5 8.5s-35 14.334 -50 26.001
s-27.167 26.667 -36.5 45s-14 40.166 -14 65.499c0 26 5.5 51 16.5 75s26.333 45.167 46 63.5s43 32.833 70 43.5s56.5 16 88.5 16c28 0 54.5 -6.66699 79.5 -20s49.833 -30.333 74.5 -51c20 40 41 86.167 63 138.5l75 177.5l130 310h-119c-33.333 0 -66.333 3.5 -99 10.5
s-61.667 18 -87 33s-45.833 33.833 -61.5 56.5s-23.5 50 -23.5 82c0 45.333 15 90.166 45 134.499s72.5 83.833 127.5 118.5s121.667 62.667 200 84s165.833 32 262.5 32c72.667 0 143.334 -13 212.001 -39s129.834 -64 183.501 -114s96.667 -111.167 129 -183.5
s48.5 -154.833 48.5 -247.5c0 -64.667 -8.66699 -131 -26 -199s-41.666 -134 -72.999 -198s-69.333 -124.667 -114 -182s-94.167 -107.333 -148.5 -150s-113 -76.5 -176 -101.5s-128.833 -37.5 -197.5 -37.5zM619.994 883l-193.998 -463
c-40 -95.333 -80.333 -173.666 -121 -234.999l59 -52.5c20 -17 41 -32.167 63 -45.5s45 -24 69 -32s49.333 -12 76 -12c57.333 0 111.833 12.167 163.5 36.5s99.667 57.5 144 99.5s84.5 90.833 120.5 146.5s66.5 114.667 91.5 177s44.333 126.5 58 192.5s20.5 130 20.5 192
c0 70.667 -8.83301 137 -26.5 199s-44.834 116 -81.501 162s-83.167 82.333 -139.5 109s-123.5 40 -201.5 40c-76.667 0 -146.334 -8.83301 -209.001 -26.5s-116.167 -40.5 -160.5 -68.5s-78.5 -59.667 -102.5 -95s-36 -71 -36 -107c0 -18.667 3 -35.834 9 -51.501
s16.5 -29 31.5 -40s34.833 -19.667 59.5 -26s56 -9.5 94 -9.5h122l147 350h128l-147 -350h322l-37 -90h-322zM-4.00391 35c20 0 38.499 3.16797 55.499 9.50098s33.333 16.166 49 29.499s31 30 46 50s30.167 44 45.5 72c-23.333 21.333 -46.166 39.333 -68.499 54
s-45.833 22 -70.5 22c-25.333 0 -47.5 -4.33301 -66.5 -13s-35.167 -19.834 -48.5 -33.501s-23.333 -28.667 -30 -45s-10 -32.166 -10 -47.499c0 -30 8.66699 -53.833 26 -71.5s41.333 -26.5 72 -26.5z" />
    <glyph glyph-name="E" unicode="E" horiz-adv-x="927" 
d="M165 1020c62.667 6 121.668 13.9961 177.001 23.9961c8 45.333 23.5 91.166 46.5 137.499s51.5 88.333 85.5 126s72.667 68.334 116 92.001s89.333 35.5 138 35.5c34.667 0 63.167 -11.5 85.5 -34.5s33.5 -52.5 33.5 -88.5c0 -30 -9.33301 -58.833 -28 -86.5
s-45.5 -53.667 -80.5 -78s-77.333 -47 -127 -68s-105.5 -39.5 -167.5 -55.5c2.66699 -16 6.66699 -31.167 12 -45.5l15.5 -41.5c5 -13.333 9.33301 -26.5 13 -39.5s5.5 -26.833 5.5 -41.5c0 -41.333 -10 -76 -30 -104s-45 -53.167 -75 -75.5s-62.5 -43.833 -97.5 -64.5
s-67.5 -44.5 -97.5 -71.5s-55 -59.333 -75 -97s-30 -84.5 -30 -140.5c0 -44 8.16699 -82.333 24.5 -115s37.5 -60 63.5 -82s54.833 -38.333 86.5 -49s62.5 -16 92.5 -16c20 0 41.833 1.16699 65.5 3.5s50.167 8.66602 79.5 18.999s61.666 25.833 96.999 46.5
s74 49.334 116 86.001l26 -32c-45.333 -38 -87.333 -68.833 -126 -92.5s-75.5 -42.167 -110.5 -55.5s-69 -22.333 -102 -27s-66.5 -7 -100.5 -7c-48 0 -93.167 6.33301 -135.5 19s-79.166 31.334 -110.499 56.001s-56.166 55.334 -74.499 92.001s-27.5 79 -27.5 127
c0 54.667 10.5 102 31.5 142s47.167 74.833 78.5 104.5s65.166 55.834 101.499 78.501l101.5 64.5c31.333 20.333 57.5 40.5 78.5 60.5s31.5 42.667 31.5 68c0 9.33301 -1.83301 19.5 -5.5 30.5l-12.5 38.5c-4.66699 14.667 -8.83398 31.334 -12.501 50.001
s-5.5 40.334 -5.5 65.001v10.5c0 3.66699 0.333008 7.5 1 11.5c-23.333 -4.66699 -47.333 -8.83398 -72 -12.501s-49.667 -7.16699 -75 -10.5zM440.001 1066c98.667 26 174.999 59.999 228.999 101.999s81 91.667 81 149c0 25.333 -6 43.833 -18 55.5s-29 17.5 -51 17.5
c-20 0 -43.667 -7.5 -71 -22.5s-53.666 -36.167 -78.999 -63.5s-46.833 -60.666 -64.5 -99.999s-26.5 -83.333 -26.5 -132v-6z" />
    <glyph glyph-name="F" unicode="F" horiz-adv-x="1311" 
d="M439 0l200.995 468.999c-24.667 -0.666992 -52 -1.83398 -82 -3.50098s-59.5 -3.83398 -88.5 -6.50098s-55.667 -6 -80 -10s-43.5 -9 -57.5 -15l-6 28c27.333 16 56.833 29.833 88.5 41.5s63.167 21.334 94.5 29.001s61.833 13.834 91.5 18.501s56.167 8 79.5 10l191 445
c18.667 44.667 39 85.334 61 122.001c-42.667 9.33301 -85.167 20 -127.5 32s-83.666 24.333 -123.999 37l-117 37.5l-105.5 33.5c-44 12.667 -83.667 19 -119 19c-42 0 -76 -6 -102 -18s-46.167 -26.333 -60.5 -43s-24 -33.834 -29 -51.501s-7.5 -32.5 -7.5 -44.5
c0 -18 3.66699 -35.167 11 -51.5s17.833 -30.5 31.5 -42.5s30.334 -21.667 50.001 -29s42.167 -11 67.5 -11c17.333 0 39 1.83301 65 5.5s54 11.167 84 22.5l-41 -96c-12.667 -4.66699 -27.667 -8.66699 -45 -12s-36.666 -5 -57.999 -5c-28.667 0 -56 4 -82 12
s-48.833 20 -68.5 36s-35.334 36 -47.001 60s-17.5 52 -17.5 84c0 46 11.333 85.833 34 119.5s52.167 61.667 88.5 84s77.5 39 123.5 50s92.667 16.5 140 16.5c33.333 0 69.333 -6.33301 108 -19s79.334 -28.167 122.001 -46.5l132 -58.5c45.333 -20.667 91.333 -39 138 -55
c32.667 45.333 67 83.333 103 114s71.333 55.334 106 74.001s67.834 32 99.501 40s59.834 12 84.501 12s46 -3.16699 64 -9.5s32.667 -15 44 -26s19.833 -23.667 25.5 -38s8.5 -29.5 8.5 -45.5c0 -33.333 -9.83301 -63.333 -29.5 -90s-45.167 -49.5 -76.5 -68.5
s-66.833 -33.5 -106.5 -43.5s-79.5 -15 -119.5 -15c-23.333 0 -46.833 1 -70.5 3s-47.5 4.66699 -71.5 8l-23.5 -46.5c-7.66699 -15.667 -15.167 -32.167 -22.5 -49.5l-187 -446h315l-41 -96h-315l-197 -471h-127zM1364 1400c-22 0 -45.332 -5.16602 -69.999 -15.499
s-49.667 -25.5 -75 -45.5s-50.5 -44.333 -75.5 -73s-49.167 -61.334 -72.5 -98.001c41.333 -9.33301 81.666 -14 120.999 -14c44 0 81.5 6 112.5 18s56.333 27 76 45s34.167 37.333 43.5 58s14 39.334 14 56.001c0 19.333 -6.16699 35.666 -18.5 48.999s-30.833 20 -55.5 20
z" />
    <glyph glyph-name="G" unicode="G" horiz-adv-x="1119" 
d="M806 813c75.333 33.333 134.338 83.1592 177.005 149.492s64 144.166 64 233.499c0 28.667 -3.5 55.334 -10.5 80.001s-17.5 46 -31.5 64s-31.333 32 -52 42s-44.334 15 -71.001 15c-56.667 0 -113.5 -13.667 -170.5 -41s-111.667 -64 -164 -110s-101.333 -99 -147 -159
s-85.334 -122.833 -119.001 -188.5s-60.167 -132.167 -79.5 -199.5s-29 -130.666 -29 -189.999c0 -49.333 6 -91.666 18 -126.999s28.667 -64.5 50 -87.5s46.666 -39.833 75.999 -50.5s61.666 -16 96.999 -16c10.667 0 25.334 1 44.001 3s40.167 6.83301 64.5 14.5
s51.5 19 81.5 34s61.667 35.5 95 61.5l107 253h127l-148 -355c-16 -39.333 -34.667 -77.166 -56 -113.499s-47 -70.666 -77 -102.999s-65.333 -62.166 -106 -89.499s-89 -51.333 -145 -72l-13 28c37.333 15.333 69.833 36.333 97.5 63s51.5 55 71.5 85
s36.5 59.167 49.5 87.5l31.5 70.5l26 62c-31.333 -20.667 -61 -37.167 -89 -49.5s-54 -21.666 -78 -27.999s-45.667 -10.333 -65 -12s-36 -2.5 -50 -2.5c-36.667 0 -75.5 5.16699 -116.5 15.5s-78.833 28.333 -113.5 54s-63.5 59.834 -86.5 102.501
s-34.5 96.334 -34.5 161.001c0 82 13.167 162 39.5 240s61.666 151.667 105.999 221s95.333 133 153 191s117.5 108.167 179.5 150.5s124.167 75.166 186.5 98.499s120.166 35 173.499 35c42.667 0 81.667 -6 117 -18s65.833 -28.667 91.5 -50s45.667 -47 60 -77
s21.5 -63.333 21.5 -100c0 -41.333 -9 -82.833 -27 -124.5s-42.333 -80.667 -73 -117s-66.167 -68.666 -106.5 -96.999s-82.5 -49.833 -126.5 -64.5z" />
    <glyph glyph-name="H" unicode="H" horiz-adv-x="1343" 
d="M153 0l186.003 435.004c-38 2 -69.833 7.83301 -95.5 17.5s-46.334 21.667 -62.001 36s-26.834 30.166 -33.501 47.499s-10 35 -10 53c0 34 7.66699 61.667 23 83s33.833 38.333 55.5 51s44.5 21.334 68.5 26.001s44.667 7 62 7c43.333 0 83.666 -6 120.999 -18l108 251
l45 106.5c15.333 35.667 29 69.667 41 102s21.833 62.166 29.5 89.499s11.5 50.333 11.5 69c0 12 -2.5 21.833 -7.5 29.5s-12.5 11.5 -22.5 11.5c-47.333 -7.33301 -101.666 -30 -162.999 -68c-26 -16 -54.833 -36.333 -86.5 -61s-66 -54.834 -103 -90.501
s-76.333 -77.334 -118 -125.001s-85.5 -102.834 -131.5 -165.501l-21 135c64.667 66.667 128.5 125.5 191.5 176.5s122.667 94 179 129s107.666 61.5 153.999 79.5s85.166 27 116.499 27c37.333 0 64 -11.167 80 -33.5s24 -50.833 24 -85.5
c0 -22.667 -2.66699 -47.167 -8 -73.5s-12.166 -53.666 -20.499 -81.999s-18 -57 -29 -86s-22.5 -57.167 -34.5 -84.5l-131 -304c27.333 -19.333 51.833 -42.5 73.5 -69.5s41.167 -57.5 58.5 -91.5h251l366 873h126l-366 -873h103l-40 -89h-100l-182 -435h-127l1 2
c1.33301 22 2.33301 43.167 3 63.5s1 40.166 1 59.499c0 62.667 -3.5 119.5 -10.5 170.5s-17.167 97.5 -30.5 139.5h-235l-187 -435h-124zM197.003 614.004c0 -10.667 2.50098 -21.332 7.50098 -31.999s12.833 -20.334 23.5 -29.001s24.167 -15.667 40.5 -21
s36.166 -8 59.499 -8h49l76 177c-34.667 10.667 -72.667 16 -114 16c-44 0 -78.667 -9.66699 -104 -29s-38 -44 -38 -74zM781.004 147.006v-19c0 -6 -0.333008 -12.333 -1 -19l137 326h-177c27.333 -85.333 41 -181.333 41 -288zM661.004 524.006
c-28 53.333 -62.667 95 -104 125l-54 -125h158z" />
    <glyph glyph-name="I" unicode="I" horiz-adv-x="914" 
d="M847 635c-36 -40.667 -71.165 -78.502 -105.498 -113.502s-69.5 -65.833 -105.5 -92.5c-27.333 -52 -58.166 -104.5 -92.499 -157.5s-72.5 -101 -114.5 -144s-87.667 -78 -137 -105s-102.333 -40.5 -159 -40.5c-53.333 0 -95.333 14 -126 42s-46.334 64.333 -47.001 109
l98 62c-8.66699 -32 -13 -59.333 -13 -82c0 -31.333 7 -54 21 -68s30.667 -21 50 -21c50.667 0 105.5 26 164.5 78s119.833 132.667 182.5 242c-31.333 -7.33301 -63 -11 -95 -11c-34 0 -68.167 5.66699 -102.5 17s-65.333 28.5 -93 51.5s-50.167 52.333 -67.5 88
s-26 78.167 -26 127.5c0 68 12.667 135.333 38 202s58.5 130.334 99.5 191.001s87.167 116.834 138.5 168.501s102.833 96.5 154.5 134.5s101.167 67.667 148.5 89s87.666 32 120.999 32c32.667 0 60 -17.167 82 -51.5s33 -86.833 33 -157.5
c0 -72.667 -15.333 -164 -46 -274s-80.334 -241.333 -149.001 -394c-4.66699 -9.33301 -9 -19 -13 -29c21.333 20.667 42.5 42.667 63.5 66l65.5 73zM417.002 387.998c25.333 0 51 3.66602 77 10.999c16.667 32 33.334 66 50.001 102l51 115c30 72 58 142.5 84 211.5
s48.667 133.833 68 194.5s34.5 116 45.5 166s16.5 91.667 16.5 125c0 26.667 -4 47.334 -12 62.001s-20.667 22 -38 22c-19.333 0 -46.333 -11 -81 -33s-72.334 -51.833 -113.001 -89.5s-82.167 -81.834 -124.5 -132.501s-80.666 -104.667 -114.999 -162
s-62.333 -116.666 -84 -177.999s-32.5 -121.333 -32.5 -180c0 -38 5.66699 -71.5 17 -100.5s26.5 -53.5 45.5 -73.5s41.167 -35 66.5 -45s51.666 -15 78.999 -15z" />
    <glyph glyph-name="J" unicode="J" horiz-adv-x="1065" 
d="M640 -94l-45.001 7.50098c-14.667 2.33301 -28.667 5.16602 -42 8.49902c-40.667 -75.333 -83 -147.333 -127 -216s-89.333 -129 -136 -181s-94.167 -93.333 -142.5 -124s-97.166 -46 -146.499 -46c-20 0 -37.5 3.66699 -52.5 11s-27.5 17.333 -37.5 30
s-17.667 26.834 -23 42.501s-8 32.167 -8 49.5c0 93.333 30.167 187.166 90.5 281.499s156.166 189.166 287.499 284.499c-40.667 32 -74.167 66.833 -100.5 104.5s-47.333 76.834 -63 117.501s-26.5 81.834 -32.5 123.501s-9 82.167 -9 121.5
c0 88.667 12.667 172.834 38 252.501s59.166 153.667 101.499 222s91 130 146 185s112.333 101.833 172 140.5s119.5 68.5 179.5 89.5s116 31.5 168 31.5c24.667 0 47.834 -3.16699 69.501 -9.5s40.5 -17.833 56.5 -34.5s28.5 -39.334 37.5 -68.001
s13.5 -65.334 13.5 -110.001c0 -69.333 -14.167 -158.333 -42.5 -267s-76.166 -240.667 -143.499 -396l-47.5 -108l-52.5 -120l56 24.5l58 25.5l16 -42l-80 -34.5l-78 -36.5l-69.5 -149.5l-75.5 -150.5c12.667 -3.33301 25.5 -6.5 38.5 -9.5l39.5 -9.5zM189.999 527.001
c0 -56 2.66895 -106.503 8.00195 -151.503s13.166 -85 23.499 -120s23.166 -66 38.499 -93s33 -50.5 53 -70.5c43.333 28.667 89.666 57.334 138.999 86.001s102.666 57.334 159.999 86.001l70.5 192.5l59.5 159.5l81.5 212c25.667 68 48 131.333 67 190
s34 111.834 45 159.501s16.5 88.5 16.5 122.5c0 38 -6.83301 64.833 -20.5 80.5s-36.167 23.5 -67.5 23.5c-43.333 0 -90 -11.333 -140 -34s-100 -54.167 -150 -94.5s-98.167 -88 -144.5 -143s-87.166 -115 -122.499 -180s-63.666 -133.667 -84.999 -206
s-32 -145.5 -32 -219.5zM372.001 -248.002c18.667 28.667 36.666 58.998 53.999 90.998s34.333 65 51 99c-32.667 10.667 -62.834 22.334 -90.501 35.001s-53.5 26.334 -77.5 41.001c-47.333 -36.667 -90.166 -74.667 -128.499 -114s-71 -79.5 -98 -120.5s-48 -83 -63 -126
s-22.5 -86.5 -22.5 -130.5c0 -27.333 6 -45.333 18 -54s24.333 -13 37 -13c37.333 0 83.333 23.5 138 70.5s115.334 120.833 182.001 221.5zM358 54.9961c20 -14 41.667 -26.332 65 -36.999s48.666 -20.667 75.999 -30c16 34 31.333 68.5 46 103.5s28.667 70.5 42 106.5
c-40.667 -22.667 -80.167 -45.834 -118.5 -69.501s-75.166 -48.167 -110.499 -73.5z" />
    <glyph glyph-name="K" unicode="K" horiz-adv-x="1203" 
d="M1483 1291c-59.333 -12.667 -114.998 -28.6699 -166.998 -48.0029s-100.833 -40.5 -146.5 -63.5s-87.667 -47 -126 -72s-73.166 -49.5 -104.499 -73.5c-73.333 -56.667 -137 -117 -191 -181c-1.33301 -29.333 -2.33301 -58.833 -3 -88.5s-0.666992 -62.5 0 -98.5
c0.666992 -69.333 2.16699 -137.833 4.5 -205.5s6.16602 -132.167 11.499 -193.5s12.5 -117.833 21.5 -169.5s21 -96.5 36 -134.5s33.167 -67.667 54.5 -89s46.666 -32 75.999 -32c16 0 30 1.83301 42 5.5s23.5 8.83398 34.5 15.501s22.167 14.667 33.5 24l38 31l26 -32
c-16 -14.667 -32 -28.5 -48 -41.5s-32.667 -24.333 -50 -34s-36.166 -17.334 -56.499 -23.001s-43.166 -8.5 -68.499 -8.5c-32 0 -61.5 6 -88.5 18s-51.333 32.333 -73 61s-40.334 67 -56.001 115s-28.334 108.167 -38.001 180.5s-16.167 158.166 -19.5 257.499
s-3.33301 214.333 0 345c0 9.33301 4 21.833 12 37.5s20.667 34.5 38 56.5c42.667 52.667 95.5 107.334 158.5 164.001s130.5 111.334 202.5 164.001s145.167 101.334 219.5 146.001s144.166 81.334 209.499 110.001zM153.002 -0.00292969l423 989.003l45 106.5
c15.333 35.667 29 69.667 41 102s21.833 62.166 29.5 89.499s11.5 50.333 11.5 69c0 12 -2.5 21.833 -7.5 29.5s-12.5 11.5 -22.5 11.5c-47.333 -7.33301 -101.666 -30 -162.999 -68c-26 -16 -54.833 -36.333 -86.5 -61s-66 -54.834 -103 -90.501
s-76.333 -77.334 -118 -125.001s-85.5 -102.834 -131.5 -165.501l-21 135c64.667 66.667 128.5 125.5 191.5 176.5s122.667 94 179 129s107.666 61.5 153.999 79.5s85.166 27 116.499 27c37.333 0 64 -11.167 80 -33.5s24 -50.833 24 -85.5
c0 -22.667 -2.66699 -47.167 -8 -73.5s-12.166 -53.666 -20.499 -81.999s-18 -57 -29 -86s-22.5 -57.167 -34.5 -84.5l-426 -989h-124z" />
    <glyph glyph-name="L" unicode="L" horiz-adv-x="1080" 
d="M860 244c-19.333 -59.333 -42.666 -106.331 -69.999 -140.998s-55.5 -61 -84.5 -79s-57.5 -29.5 -85.5 -34.5s-53 -7.5 -75 -7.5c-33.333 0 -64.166 4.33301 -92.499 13s-55.166 20 -80.499 34s-49 29.833 -71 47.5s-43 35.5 -63 53.5
c-36.667 -44 -76.667 -79.167 -120 -105.5s-91 -39.5 -143 -39.5c-18 0 -36.167 2.83301 -54.5 8.5s-35 14.334 -50 26.001s-27.167 26.667 -36.5 45s-14 40.166 -14 65.499c0 26 5.5 51 16.5 75s26.333 45.167 46 63.5s43 32.833 70 43.5s56.5 16 88.5 16
s62.167 -6.83301 90.5 -20.5s56.5 -30.5 84.5 -50.5c20 38.667 39 80.5 57 125.5s35.167 91.667 51.5 140s31.833 97.166 46.5 146.499l43 146c25.333 89.333 51.666 166.666 78.999 231.999s55.166 120.833 83.499 166.5s56.833 83 85.5 112s57 51.5 85 67.5
s55.667 26.833 83 32.5s54 8.5 80 8.5c33.333 0 63 -4.66699 89 -14s48 -22.166 66 -38.499s31.667 -35.333 41 -57s14 -44.834 14 -69.501s-4.66699 -48.167 -14 -70.5s-22 -43 -38 -62s-34.833 -35.833 -56.5 -50.5s-44.5 -26.667 -68.5 -36l-30 117
c17.333 0.666992 34.833 3.5 52.5 8.5s33.5 12.5 47.5 22.5s25.5 22.333 34.5 37s13.5 32.334 13.5 53.001c0 14.667 -2.83301 29.5 -8.5 44.5s-14.667 28.167 -27 39.5s-28.5 20.666 -48.5 27.999s-44.333 11 -73 11c-32.667 0 -62.834 -9 -90.501 -27
s-53.167 -42.333 -76.5 -73s-44.666 -66.5 -63.999 -107.5s-37.333 -84.167 -54 -129.5s-32.334 -91.833 -47.001 -139.5l-41 -138.5l-46 -146.5c-16.667 -51 -34.834 -101.833 -54.501 -152.5s-41.167 -100.167 -64.5 -148.5s-48.666 -93.166 -75.999 -134.499l59.5 -43
c20.333 -14 41.666 -26.333 63.999 -37s46 -19.334 71 -26.001s51.5 -10 79.5 -10c29.333 0 57 2 83 6s49.833 12.167 71.5 24.5s40.834 29.833 57.501 52.5s30 52.667 40 90zM-33 35.002c40.667 0 78.333 13.667 113 41s67 64.333 97 111c-26 24 -51.5 44.167 -76.5 60.5
s-50.5 24.5 -76.5 24.5c-25.333 0 -47.5 -4.33301 -66.5 -13s-35.167 -19.834 -48.5 -33.501s-23.333 -28.667 -30 -45s-10 -32.166 -10 -47.499c0 -30 8.66699 -53.833 26 -71.5s41.333 -26.5 72 -26.5z" />
    <glyph glyph-name="M" unicode="M" horiz-adv-x="1714" 
d="M1029 704c48.667 76.667 95.1621 141.501 139.495 194.501s85.666 96 123.999 129s73.333 57 105 72s59.834 22.5 84.501 22.5c40 0 68 -11.5 84 -34.5s24 -53.5 24 -91.5c0 -22 -2.33301 -46 -7 -72s-10.834 -52.667 -18.501 -80s-16.5 -55 -26.5 -83
s-20.333 -55 -31 -81l-168 -408l-102 -252.5c-26 -65.667 -39 -114.5 -39 -146.5c0 -13.333 2.83301 -24.166 8.5 -32.499s14.834 -12.5 27.501 -12.5c4.66699 0 11.334 1.5 20.001 4.5s19.167 8.5 31.5 16.5s26.833 19.333 43.5 34s35 33.667 55 57l31 -27
c-25.333 -29.333 -48.166 -52.666 -68.499 -69.999s-38.833 -30.5 -55.5 -39.5s-31.667 -14.833 -45 -17.5s-25.666 -4 -36.999 -4c-22 0 -40.5 3.5 -55.5 10.5s-27 16.333 -36 28s-15.5 25 -19.5 40s-6 30.5 -6 46.5c0 26 3.5 53.833 10.5 83.5s16 60.334 27 92.001
s23.333 63.667 37 96l40.5 93.5l174 408l44.5 105.5c15 35.667 28.333 69.834 40 102.501s21.167 62.5 28.5 89.5s11 49.5 11 67.5c0 13.333 -2.33301 23.666 -7 30.999s-12.667 11 -24 11c-42 -6.66699 -90.667 -33 -146 -79c-23.333 -19.333 -49.5 -44 -78.5 -74
s-60.167 -67 -93.5 -111s-69.166 -95.667 -107.499 -155s-78.5 -128 -120.5 -206l-192 -462h-129l391 934l44.5 107l41 102.5c12.333 32.333 22.333 62.166 30 89.499s11.5 50 11.5 68c0 28 -10 42 -30 42c-42.667 -6 -92 -32.333 -148 -79
c-24 -20 -50.333 -45.167 -79 -75.5s-59.834 -67.833 -93.501 -112.5s-69.667 -97.167 -108 -157.5s-78.833 -129.833 -121.5 -208.5l-304 -710h-125l460 1079l45 107c15.333 36 29 70.167 41 102.5s21.833 62.166 29.5 89.499s11.5 50 11.5 68c0 27.333 -10 41 -30 41
c-47.333 -5.33301 -101.666 -26.333 -162.999 -63c-26 -16 -55 -36 -87 -60s-66.5 -53.5 -103.5 -88.5s-76.333 -76.167 -118 -123.5s-85.5 -102.333 -131.5 -165l-20 125c64.667 66.667 128.5 125.5 191.5 176.5s122.667 94 179 129s107.666 61.5 153.999 79.5
s85.166 27 116.499 27c38 0 64.833 -10.833 80.5 -32.5s23.5 -50.5 23.5 -86.5c0 -22.667 -2.66699 -47.334 -8 -74.001s-12.333 -54.167 -21 -82.5s-18.5 -57 -29.5 -86s-22.167 -56.833 -33.5 -83.5l-47 -109c48.667 74 95.334 137 140.001 189
s86.334 94.167 125.001 126.5s74.167 55.833 106.5 70.5s60.833 22 85.5 22c38 0 64.667 -10.833 80 -32.5s23 -50.167 23 -85.5c0 -22.667 -2.66699 -47.334 -8 -74.001s-12.166 -54.167 -20.499 -82.5s-18 -57 -29 -86s-22.167 -56.833 -33.5 -83.5z" />
    <glyph glyph-name="N" unicode="N" horiz-adv-x="1310" 
d="M1092 954l45.4971 106.497c15.667 35.667 29.834 69.834 42.501 102.501s23 61.5 31 86.5s12 46.5 12 64.5c0 13.333 -3.16699 23.666 -9.5 30.999s-14.833 11 -25.5 11c-53.333 0 -114.333 -24.333 -183 -73c-29.333 -20.667 -61.666 -47.5 -96.999 -80.5
s-72.833 -72.667 -112.5 -119s-81.334 -100.666 -125.001 -162.999s-88.834 -134.5 -135.501 -216.5l-300 -704h-125l466 1098l43.5 105c14.333 35.333 27 69 38 101s20 61.5 27 88.5s10.5 49.833 10.5 68.5c0 30.667 -10.667 46 -32 46
c-45.333 -4.66699 -98 -25.334 -158 -62.001c-25.333 -15.333 -53.666 -35.166 -84.999 -59.499s-65.333 -54 -102 -89s-75.667 -76.333 -117 -124s-85 -102.5 -131 -164.5l-20 122c64.667 66.667 128 125.667 190 177s120.5 94.333 175.5 129s105.167 61 150.5 79
s83.666 27 114.999 27c39.333 0 67.166 -11.833 83.499 -35.5s24.5 -54.167 24.5 -91.5c0 -22.667 -2.33301 -47 -7 -73s-11 -52.667 -19 -80s-17.167 -55 -27.5 -83s-21.166 -55 -32.499 -81l-79 -184c66 96 127 175.167 183 237.5s107.667 111.666 155 147.999
s90.666 61.666 129.999 75.999s75.666 21.5 108.999 21.5c36 0 63 -11.5 81 -34.5s27 -53.5 27 -91.5c0 -22 -2.33301 -46 -7 -72s-11 -52.667 -19 -80s-17.167 -55.166 -27.5 -83.499s-20.833 -55.5 -31.5 -81.5l-281 -663c-43.333 -102 -77.666 -186 -102.999 -252
s-38 -115 -38 -147c0 -13.333 2.83301 -24.166 8.5 -32.499s14.834 -12.5 27.501 -12.5c4.66699 0 11.334 1.5 20.001 4.5s19.167 8.5 31.5 16.5s26.833 19.333 43.5 34s35 33.667 55 57l31 -27c-25.333 -29.333 -48.166 -52.666 -68.499 -69.999s-38.833 -30.5 -55.5 -39.5
s-31.667 -14.833 -45 -17.5s-25.666 -4 -36.999 -4c-22 0 -40.5 3.5 -55.5 10.5s-27 16.333 -36 28s-15.5 25 -19.5 40s-6 30.5 -6 46.5c0 26 3.5 53.833 10.5 83.5s16 60.334 27 92.001s23.333 63.667 37 96l40.5 93.5z" />
    <glyph glyph-name="O" unicode="O" horiz-adv-x="1162" 
d="M1039 1131c0 14.667 -0.669922 31.668 -2.00293 51.001s-3.66602 39 -6.99902 59s-8.33301 39.5 -15 58.5s-15.334 36 -26.001 51s-23.667 27.167 -39 36.5s-33.666 14 -54.999 14c-30 0 -59.833 -9.16699 -89.5 -27.5s-58.167 -43.166 -85.5 -74.499
s-52.833 -68 -76.5 -110s-44.167 -86.667 -61.5 -134s-31 -96.166 -41 -146.499s-15 -99.166 -15 -146.499c0 -71.333 10.167 -124.666 30.5 -159.999s54.5 -53 102.5 -53c16.667 0 31.5 2 44.5 6s24 8.66699 33 14s16.167 10.666 21.5 15.999
s8.66602 9.66602 9.99902 12.999l10 -27c-13.333 -20 -27.666 -35.833 -42.999 -47.5s-30.666 -20.667 -45.999 -27s-29.666 -10.5 -42.999 -12.5s-24.666 -3 -33.999 -3c-58.667 0 -104.334 23.833 -137.001 71.5s-49 115.167 -49 202.5c0 48 7 98.167 21 150.5
s33.167 103.666 57.5 153.999s52.5 98.333 84.5 144s65.833 85.667 101.5 120s72.167 61.666 109.5 81.999s73.666 30.5 108.999 30.5c24 0 49.833 -6 77.5 -18s53.5 -32.5 77.5 -61.5s43.833 -67.833 59.5 -116.5s23.5 -109.667 23.5 -183
c0 -93.333 -12.667 -184.833 -38 -274.5s-59.333 -174.667 -102 -255s-92 -154.5 -148 -222.5s-114.833 -126.5 -176.5 -175.5s-124 -87.333 -187 -115s-122.833 -41.5 -179.5 -41.5c-46 0 -87.667 9.5 -125 28.5s-69 45.5 -95 79.5s-46 74.5 -60 121.5
s-21 98.833 -21 155.5c0 52.667 4.83301 108.834 14.5 168.501s25.834 121.834 48.501 186.501c20.667 58.667 43.5 112.834 68.5 162.501s50.833 95 77.5 136s53.834 77.833 81.501 110.5s54.167 61.667 79.5 87c60 59.333 121.333 107 184 143l18 -23
c-40.667 -34.667 -81.667 -80.334 -123 -137.001c-18 -24 -36.833 -51.833 -56.5 -83.5s-39.834 -67 -60.501 -106s-41.334 -82.333 -62.001 -130s-40.667 -99.5 -60 -155.5c-25.333 -72.667 -44.333 -141.834 -57 -207.501s-19 -126.167 -19 -181.5
c0 -44 4.16699 -84.167 12.5 -120.5s20.5 -67.333 36.5 -93s35.333 -45.667 58 -60s48.334 -21.5 77.001 -21.5c43.333 0 90.833 16 142.5 48s103.667 75.5 156 130.5s103 118.833 152 191.5s92.5 149.667 130.5 231s68.333 164.666 91 249.999s34 167.666 34 246.999z" />
    <glyph glyph-name="P" unicode="P" horiz-adv-x="1081" 
d="M-100 0l178.999 426.999h-56c-15.333 0 -30 0.166992 -44 0.5s-26.667 0.5 -38 0.5l57 97c21.333 -1.33301 42 -2 62 -2h59l189 448c30.667 72.667 67 137.834 109 195.501s87.833 106.5 137.5 146.5s102 70.5 157 91.5s110.833 31.5 167.5 31.5
c34.667 0 70 -5.66699 106 -17s68.5 -28.666 97.5 -51.999s52.667 -52.5 71 -87.5s27.5 -76.5 27.5 -124.5c0 -56 -11.333 -110.667 -34 -164s-54.167 -104.333 -94.5 -153s-88.166 -94.5 -143.499 -137.5s-115.333 -82.5 -180 -118.5c-46 -26 -91.833 -47.833 -137.5 -65.5
s-90.5 -32.167 -134.5 -43.5s-86.667 -20.333 -128 -27s-81 -11.334 -119 -14.001l-181 -432h-129zM247.999 524.999c54.667 2 104.832 5.83496 150.499 11.502s87.667 12.667 126 21s73.833 18.5 106.5 30.5s63.334 25.667 92.001 41c52.667 28 99.334 63.5 140.001 106.5
s74.667 89.167 102 138.5s48 99.666 62 150.999s21 99.666 21 144.999c0 42.667 -5.5 78.667 -16.5 108s-25.333 53 -43 71s-37.834 30.833 -60.501 38.5s-45.667 11.5 -69 11.5c-26 0 -56.333 -7 -91 -21s-71 -37.5 -109 -70.5s-76.333 -76.833 -115 -131.5
s-75 -123 -109 -205z" />
    <glyph glyph-name="Q" unicode="Q" horiz-adv-x="1180" 
d="M469 0c-64.667 -33.333 -130.333 -59.0068 -197 -77.0068s-133.334 -27 -200.001 -27c-70 0 -105 21.333 -105 64c0 16 5.83301 31.833 17.5 47.5s30 29.5 55 41.5s56.833 21.667 95.5 29s85.334 11 140.001 11h231c52.667 39.333 102.5 84.166 149.5 134.499
s90.5 104.333 130.5 162s76.167 117.834 108.5 180.501s59.833 126 82.5 190s40 127.833 52 191.5s18 124.834 18 183.501c0 38.667 -4.5 74.5 -13.5 107.5s-21.667 61.167 -38 84.5s-36.5 41.666 -60.5 54.999s-51 20 -81 20c-56.667 0 -113 -12.833 -169 -38.5
s-109.5 -60.667 -160.5 -105s-98.5 -96.333 -142.5 -156s-82 -123.667 -114 -192s-57.167 -139 -75.5 -212s-27.5 -145.167 -27.5 -216.5c0 -27.333 3.16699 -51.666 9.5 -72.999s15 -39.666 26 -54.999s23.333 -27 37 -35s28.167 -12 43.5 -12c8.66699 0 19.667 1 33 3
s28.333 6.83301 45 14.5s34.667 19.334 54 35.001s39 37.167 59 64.5l19 -21c-23.333 -36.667 -47.5 -66.167 -72.5 -88.5s-49.5 -39.666 -73.5 -51.999s-46.5 -20.666 -67.5 -24.999s-38.833 -6.5 -53.5 -6.5c-33.333 0 -62.333 7.16699 -87 21.5s-45 33.333 -61 57
s-28 50.334 -36 80.001s-12 59.5 -12 89.5c0 80.667 11.167 160.334 33.5 239.001s53.166 153.5 92.499 224.5s85.666 136.833 138.999 197.5s110.666 113.167 171.999 157.5s125.333 79 192 104s133.334 37.5 200.001 37.5c20.667 0 42.5 -2.16699 65.5 -6.5
s46 -11.833 69 -22.5s45 -25.167 66 -43.5s39.333 -41.5 55 -69.5s28.334 -61.5 38.001 -100.5s14.5 -84.167 14.5 -135.5c0 -93.333 -14.167 -185.833 -42.5 -277.5s-67.166 -179.5 -116.499 -263.5s-107.5 -162.5 -174.5 -235.5s-139.167 -136.833 -216.5 -191.5h275
l-37 -89h-384zM81.001 -67.0068c48 0 95.3311 5.83301 141.998 17.5s92.334 28.167 137.001 49.5h-186c-21.333 0 -41.5 -1.16699 -60.5 -3.5s-35.667 -5.5 -50 -9.5s-25.666 -8.66699 -33.999 -14s-12.5 -10.666 -12.5 -15.999c0 -8.66699 5.83301 -14.834 17.5 -18.501
s27.167 -5.5 46.5 -5.5z" />
    <glyph glyph-name="R" unicode="R" horiz-adv-x="1081" 
d="M1141 1155c0 -68.667 -13.501 -129.174 -40.501 -181.507s-62.667 -98.666 -107 -138.999s-94.833 -75.666 -151.5 -105.999s-115 -57.5 -175 -81.5c-35.333 -14.667 -64 -26.167 -86 -34.5l-51.5 -20c-12.333 -5 -20.666 -8.83301 -24.999 -11.5s-6.5 -6 -6.5 -10
c0 -1.33301 0.666992 -4.66602 2 -9.99902c34 -103.333 73.667 -208.666 119 -315.999l64 -145.5c23.333 -51 48.666 -103 75.999 -156s56.5 -106.167 87.5 -159.5s63.833 -105 98.5 -155l-136 -35c-74 118 -146.167 253.833 -216.5 407.5s-135.833 319.167 -196.5 496.5
c-2.66699 7.33301 -5 14.833 -7 22.5s-3 15.167 -3 22.5c0 19.333 4.83301 33.5 14.5 42.5s25.334 17.5 47.001 25.5s49.834 17.833 84.501 29.5s77 29.5 127 53.5c48.667 24 94.167 50.833 136.5 80.5s79.333 63.667 111 102s56.5 81.5 74.5 129.5s27 101.667 27 161
c0 44 -5.5 80.833 -16.5 110.5s-25.5 53.5 -43.5 71.5s-38.333 30.833 -61 38.5s-46 11.5 -70 11.5c-26 0 -56 -6.33301 -90 -19s-69.667 -35.167 -107 -67.5s-75.333 -76.166 -114 -131.499s-75.667 -125.333 -111 -210l-406 -971h-129l406 971
c30.667 73.333 67 138.833 109 196.5s87.833 106.334 137.5 146.001s102.167 70 157.5 91s111 31.5 167 31.5c35.333 0 71 -5.66699 107 -17s68.667 -28.666 98 -51.999s53.166 -52.5 71.499 -87.5s27.5 -76.5 27.5 -124.5z" />
    <glyph glyph-name="S" unicode="S" horiz-adv-x="1069" 
d="M971 1194c-21.333 39.333 -42.6729 71.8398 -64.0059 97.5068s-42.666 46 -63.999 61s-43 25.5 -65 31.5s-44.333 9 -67 9c-32 0 -63.333 -5.5 -94 -16.5s-58 -27.5 -82 -49.5s-43.333 -49.333 -58 -82s-22 -70.334 -22 -113.001c0 -36 9.33301 -72.333 28 -109
s41.834 -74.167 69.501 -112.5s57.834 -77.5 90.501 -117.5s62.834 -81.333 90.501 -124s50.834 -86.834 69.501 -132.501s28 -92.834 28 -141.501c0 -62 -15.167 -118.5 -45.5 -169.5s-70.666 -94.5 -120.999 -130.5s-108.166 -63.833 -173.499 -83.5
s-133 -29.5 -203 -29.5c-53.333 0 -102.5 6 -147.5 18s-83.833 29.833 -116.5 53.5s-58.167 52.667 -76.5 87s-27.5 74.166 -27.5 119.499c0 32 4 63.667 12 95s21 62.333 39 93s41.667 61.334 71 92.001s65 61 107 91l79 -94c-31.333 -16 -61.333 -33.833 -90 -53.5
s-54 -41.834 -76 -66.501s-39.5 -51.834 -52.5 -81.501s-19.5 -62.5 -19.5 -98.5c0 -25.333 5.66699 -50 17 -74s29.333 -45.5 54 -64.5s56.334 -34.333 95.001 -46s85 -17.5 139 -17.5c49.333 0 98.166 7 146.499 21s91.5 34.667 129.5 62s68.833 61.666 92.5 102.999
s35.5 89.666 35.5 144.999c0 36 -8.83301 73 -26.5 111s-40 76.667 -67 116s-56 79.333 -87 120s-60 81.834 -87 123.501s-49.333 83.667 -67 126s-26.5 85.166 -26.5 128.499c0 64 12.667 117.833 38 161.5s58 79 98 106s84.167 46.333 132.5 58s95.5 17.5 141.5 17.5
c42.667 0 80.5 -4.83301 113.5 -14.5s62.333 -22.167 88 -37.5s48.167 -32.833 67.5 -52.5s36.666 -39.5 51.999 -59.5z" />
    <glyph glyph-name="T" unicode="T" horiz-adv-x="1316" 
d="M1512 1065c-86 52 -167.333 94.8281 -244 128.495s-149.334 60.834 -218.001 81.501l-533 -1275h-129l551 1305c-60 14 -114.333 23.5 -163 28.5s-92 7.5 -130 7.5c-75.333 0 -146.166 -9.16699 -212.499 -27.5s-124.166 -42.5 -173.499 -72.5
s-88.333 -64.167 -117 -102.5s-43 -77.833 -43 -118.5c0 -23.333 7.66699 -41.833 23 -55.5s38 -20.5 68 -20.5h258l-32 -88h-254c-30.667 0 -57.167 10.833 -79.5 32.5s-33.5 52.834 -33.5 93.501c0 42.667 9 83.334 27 122.001s43.333 74.834 76 108.501
s71.667 64.167 117 91.5s95.666 50.5 150.999 69.5s114.5 33.833 177.5 44.5s128.5 16 196.5 16c44.667 0 92 -3.33301 142 -10s106 -19.167 168 -37.5s131.5 -43.666 208.5 -75.999s164.5 -74.5 262.5 -126.5z" />
    <glyph glyph-name="U" unicode="U" horiz-adv-x="1398" 
d="M576 989l44.9961 106.499c15.333 35.667 29 69.667 41 102s21.833 62.166 29.5 89.499s11.5 50.333 11.5 69c0 12 -2.5 21.833 -7.5 29.5s-12.5 11.5 -22.5 11.5c-47.333 -7.33301 -101.666 -30 -162.999 -68c-26 -16 -54.833 -36.333 -86.5 -61
s-66 -54.834 -103 -90.501s-76.333 -77.334 -118 -125.001s-85.5 -102.834 -131.5 -165.501l-21 135c64.667 66.667 128.5 125.5 191.5 176.5s122.667 94 179 129s107.666 61.5 153.999 79.5s85.166 27 116.499 27c38 0 65.833 -11.167 83.5 -33.5s26.5 -50.833 26.5 -85.5
c0 -22.667 -2.66699 -47.167 -8 -73.5s-12.166 -53.666 -20.499 -81.999s-18 -57 -29 -86s-22.5 -57.167 -34.5 -84.5l-242 -565c-14 -34 -27.333 -68.167 -40 -102.5s-23.667 -66.833 -33 -97.5s-16.833 -58.667 -22.5 -84s-8.5 -45.666 -8.5 -60.999
c0 -29.333 14.333 -44 43 -44c10.667 0 26.334 2.16699 47.001 6.5s45.834 14.333 75.501 30s63.667 38.834 102 69.501s80.5 72.667 126.5 126s95.333 119.5 148 198.5s108.334 174.5 167.001 286.5l277 645h129l-505 -1188c-12 -29.333 -20.667 -54.5 -26 -75.5
s-8 -38.167 -8 -51.5c0 -17.333 3.5 -29.5 10.5 -36.5s14.833 -10.5 23.5 -10.5c22.667 0 44.167 6.33301 64.5 19s42.5 33 66.5 61s51.333 64.5 82 109.5l112 165.5l27 -17l-113.5 -173c-33 -49.333 -64.167 -90.166 -93.5 -122.499s-58.333 -56.666 -87 -72.999
s-60 -24.5 -94 -24.5c-6 0 -15.333 0.833008 -28 2.5s-25.5 6.33398 -38.5 14.001s-24.333 19.334 -34 35.001s-14.5 37.5 -14.5 65.5c0 21.333 3.66699 47.166 11 77.499s19.666 65.833 36.999 106.5l64 150c-59.333 -88.667 -115.666 -161.834 -168.999 -219.501
s-103.166 -103.5 -149.499 -137.5s-89.333 -57.833 -129 -71.5s-75.5 -20.5 -107.5 -20.5c-43.333 0 -75.5 13 -96.5 39s-31.5 58.333 -31.5 97c0 20.667 2.33301 43.5 7 68.5s11 51 19 78s17 54 27 81s20.333 53.167 31 78.5z" />
    <glyph glyph-name="V" unicode="V" horiz-adv-x="1259" 
d="M1187 651l-25.0059 30.9971c-10 12.667 -20.333 28.667 -31 48l-6 -15c-29.333 -72 -61.666 -140.167 -96.999 -204.5s-72 -123.5 -110 -177.5s-76.167 -102.833 -114.5 -146.5s-75.5 -80.5 -111.5 -110.5s-69.667 -53.167 -101 -69.5s-58.666 -24.5 -81.999 -24.5
c-47.333 0 -82.166 19.167 -104.499 57.5s-33.5 89.166 -33.5 152.499c0 56.667 8.33301 120 25 190s38.667 144 66 222l135 385l34 98.5c11.333 33 21.333 64.833 30 95.5s15.5 59.167 20.5 85.5s7.5 49.166 7.5 68.499c0 18.667 -2.83301 33.334 -8.5 44.001
s-15.167 16 -28.5 16c-2 0 -9.66699 -0.833008 -23 -2.5s-31.666 -7 -54.999 -16s-51.666 -23.667 -84.999 -44s-71 -49 -113 -86s-88 -84 -138 -141s-103.667 -127.167 -161 -210.5l-27 125c60.667 66.667 120.834 125.5 180.501 176.5s116 94 169 129
s101.833 61.5 146.5 79.5s82.667 27 114 27c44 0 76.833 -14.167 98.5 -42.5s32.5 -64.5 32.5 -108.5c0 -21.333 -1.66699 -44.166 -5 -68.499s-7.83301 -49.166 -13.5 -74.499s-12.334 -50.833 -20.001 -76.5s-15.5 -50.5 -23.5 -74.5l-148 -432
c-13.333 -40 -25.666 -80.667 -36.999 -122s-21.166 -81.5 -29.499 -120.5s-14.833 -76 -19.5 -111s-7 -65.833 -7 -92.5c0 -25.333 3.5 -43 10.5 -53s17.5 -15 31.5 -15c20.667 0 45.334 8.66699 74.001 26s59.334 41.5 92.001 72.5s66.667 68 102 111
s70.166 90.333 104.499 142s67.333 106.334 99 164.001s60.167 117.167 85.5 178.5c3.33301 7.33301 6.33301 14.833 9 22.5s5.66699 15.5 9 23.5c-10 26 -18.5 56.167 -25.5 90.5s-10.5 74.5 -10.5 120.5s3.33301 85.333 10 118s15.5 59.667 26.5 81s23.5 37 37.5 47
s28 15 42 15c6 0 12.167 -1.5 18.5 -4.5s12.166 -7.83301 17.499 -14.5s9.66602 -15.5 12.999 -26.5s5 -24.5 5 -40.5c0 -42 -7 -96.5 -21 -163.5s-37 -143.167 -69 -228.5c8.66699 -16.667 18.5 -33.167 29.5 -49.5s23.833 -33.166 38.5 -50.499zM1111.99 951.997
c0 -42.667 4.33496 -79.998 13.002 -111.998c8 24.667 15.667 49.667 23 75s13.666 49.5 18.999 72.5s9.66602 44.167 12.999 63.5s5 35.666 5 48.999c0 9.33301 -1 18.333 -3 27s-6.33301 13 -13 13c-8 0 -15.333 -5.16699 -22 -15.5s-12.667 -24.333 -18 -42
s-9.5 -37.834 -12.5 -60.501s-4.5 -46 -4.5 -70z" />
    <glyph glyph-name="W" unicode="W" horiz-adv-x="1617" 
d="M530 43c16 0 34.8301 7.66504 56.4971 22.998s45 37.166 70 65.499s50.833 62.333 77.5 102s52.667 83.5 78 131.5c18 42.667 33.5 83 46.5 121l41.5 118l237 651h119l-248 -698c-14 -40 -27 -79.167 -39 -117.5s-22.167 -75.5 -30.5 -111.5
s-14.666 -70.167 -18.999 -102.5s-6.5 -61.833 -6.5 -88.5c0 -29.333 4.83301 -52.333 14.5 -69s23.167 -25 40.5 -25c20.667 0 43 8.66699 67 26s49.167 41.5 75.5 72.5s53.166 68 80.499 111s54.833 90.333 82.5 142s55.167 106.334 82.5 164.001
s53.666 117.167 78.999 178.5c3.33301 7.33301 6.33301 14.833 9 22.5s5.66699 15.5 9 23.5c-10 26 -18.5 56.167 -25.5 90.5s-10.5 74.5 -10.5 120.5s3.33301 85.333 10 118s15.5 59.667 26.5 81s23.5 37 37.5 47s28 15 42 15c6 0 12.167 -1.5 18.5 -4.5
s12.166 -7.83301 17.499 -14.5s9.66602 -15.5 12.999 -26.5s5 -24.5 5 -40.5c0 -42 -7 -96.5 -21 -163.5s-37 -143.167 -69 -228.5c8.66699 -16.667 18.5 -33.167 29.5 -49.5s23.833 -33.166 38.5 -50.499l-30 -26l-25 31c-10 12.667 -20.333 28.667 -31 48l-6 -15
c-44 -108 -89.667 -207 -137 -297s-93.833 -167.167 -139.5 -231.5s-89.834 -114.5 -132.501 -150.5s-81.667 -54 -117 -54c-23.333 0 -43.166 5 -59.499 15s-30 24.167 -41 42.5s-19 40.333 -24 66s-7.5 54.167 -7.5 85.5c0 17.333 0.5 35 1.5 53s2.83301 36.667 5.5 56
c-35.333 -62 -68.166 -113.5 -98.499 -154.5s-58.5 -73.5 -84.5 -97.5s-49.667 -41 -71 -51s-41 -15 -59 -15c-47.333 0 -82.166 19.167 -104.499 57.5s-33.5 89.166 -33.5 152.499c0 56.667 8.33301 120 25 190s38.667 144 66 222l135 385l34 98.5
c11.333 33 21.333 64.833 30 95.5s15.5 59.167 20.5 85.5s7.5 49.166 7.5 68.499c0 18.667 -2.83301 33.334 -8.5 44.001s-15.167 16 -28.5 16c-2 0 -9.66699 -0.833008 -23 -2.5s-31.666 -7 -54.999 -16s-51.666 -23.667 -84.999 -44s-71 -49 -113 -86s-88 -84 -138 -141
s-103.667 -127.167 -161 -210.5l-27 125c60.667 66.667 120.834 125.5 180.501 176.5s116 94 169 129s101.833 61.5 146.5 79.5s82.667 27 114 27c44 0 76.833 -14.167 98.5 -42.5s32.5 -64.5 32.5 -108.5c0 -21.333 -1.66699 -44.166 -5 -68.499
s-7.83301 -49.166 -13.5 -74.499s-12.334 -50.833 -20.001 -76.5s-15.5 -50.5 -23.5 -74.5l-148 -432c-13.333 -40 -25.666 -80.667 -36.999 -122s-21.166 -81.5 -29.499 -120.5s-14.833 -76 -19.5 -111s-7 -65.833 -7 -92.5c0 -25.333 3.5 -43 10.5 -53s17.5 -15 31.5 -15z
M1460 951.998c0 -42.667 4.33496 -79.998 13.002 -111.998c8 24.667 15.667 49.667 23 75s13.666 49.5 18.999 72.5s9.66602 44.167 12.999 63.5s5 35.666 5 48.999c0 9.33301 -1 18.333 -3 27s-6.33301 13 -13 13c-8 0 -15.333 -5.16699 -22 -15.5s-12.667 -24.333 -18 -42
s-9.5 -37.834 -12.5 -60.501s-4.5 -46 -4.5 -70z" />
    <glyph glyph-name="X" unicode="X" horiz-adv-x="1259" 
d="M1001 163c-29.333 -36 -55.5068 -65.6699 -78.5068 -89.0029s-44 -41.833 -63 -55.5s-36.833 -23.167 -53.5 -28.5s-34 -8 -52 -8c-24 0 -43.833 4.83301 -59.5 14.5s-28.334 23.334 -38.001 41.001s-16.5 39 -20.5 64s-6.33301 52.833 -7 83.5l-7 391l-90 -110.5
l-83.5 -101l-73.5 -88l-61 -70.5l-24 -28c-10.667 -12.667 -23.667 -26.834 -39 -42.501s-33.166 -32.167 -53.499 -49.5s-42.666 -33.5 -66.999 -48.5s-50.666 -28 -78.999 -39s-58.166 -18.167 -89.499 -21.5l18 142c12.667 -4 26.334 -5.5 41.001 -4.5
s29.667 3.83301 45 8.5s30.666 10.667 45.999 18s30 15.333 44 24c32.667 20 65.334 44 98.001 72c24 22.667 50.333 49.167 79 79.5l89.5 99l97 114l101.5 123.5l-7 391l-3.5 154.5c-1 44.333 -3.33301 81 -7 110s-9.16699 50.833 -16.5 65.5s-17.333 22 -30 22
c-6.66699 0 -16.167 -1 -28.5 -3s-27.666 -7.5 -45.999 -16.5s-39.666 -22.833 -63.999 -41.5s-51.833 -44.5 -82.5 -77.5s-64.167 -74.5 -100.5 -124.5s-75.833 -111 -118.5 -183l-20 147c57.333 66 110 120.5 158 163.5s91.833 77.167 131.5 102.5s75.5 43.333 107.5 54
s61 16.334 87 17.001c31.333 0.666992 57.333 -5 78 -17s37.167 -31.167 49.5 -57.5s21.166 -60 26.499 -101s8.33301 -89.5 9 -145.5l3 -302l109 135.5l103.5 126l94 109.5c29.667 33.333 56.834 62 81.501 86c24 20.667 49.333 39.334 76 56.001
c23.333 14 49.5 27 78.5 39s59.167 18 90.5 18c3.33301 0 6.5 -0.166992 9.5 -0.5s6.16699 -0.5 9.5 -0.5l-59 -121c-32 -1.33301 -63.333 -8.66602 -94 -21.999s-58 -27.666 -82 -42.999c-28 -18 -55 -38.333 -81 -61c-11.333 -11.333 -28.166 -30 -50.499 -56l-77.5 -93
l-97 -119l-110 -135l6 -547c0.666992 -42 5.16699 -72 13.5 -90s23.833 -27 46.5 -27c14.667 0 29.334 4.16699 44.001 12.5s28.667 18.666 42 30.999s26.166 25.833 38.499 40.5l34.5 40z" />
    <glyph glyph-name="Y" unicode="Y" horiz-adv-x="1344" 
d="M576 989l45.0029 106.498c15.333 35.667 29 69.667 41 102s21.833 62.166 29.5 89.499s11.5 50.333 11.5 69c0 12 -2.5 21.833 -7.5 29.5s-12.5 11.5 -22.5 11.5c-47.333 -7.33301 -101.666 -30 -162.999 -68c-26 -16 -54.833 -36.333 -86.5 -61
s-66 -54.834 -103 -90.501s-76.333 -77.334 -118 -125.001s-85.5 -102.834 -131.5 -165.501l-21 135c64.667 66.667 128.5 125.5 191.5 176.5s122.667 94 179 129s107.666 61.5 153.999 79.5s85.166 27 116.499 27c38 0 65.833 -11.167 83.5 -33.5s26.5 -50.833 26.5 -85.5
c0 -22.667 -2.66699 -47.167 -8 -73.5s-12.166 -53.666 -20.499 -81.999s-18 -57 -29 -86s-22.5 -57.167 -34.5 -84.5l-242 -565c-14 -34 -27.333 -68.167 -40 -102.5s-23.667 -66.833 -33 -97.5s-16.833 -58.667 -22.5 -84s-8.5 -45.666 -8.5 -60.999
c0 -29.333 14.333 -44 43 -44c10.667 0 26.167 2.16699 46.5 6.5s45.333 14.166 75 29.499s63.5 38.166 101.5 68.499s79.667 71.833 125 124.5s94.166 117.834 146.499 195.501s107.833 171.834 166.5 282.501l219 513h129l-414 -974l-45 -105.5
c-16 -37.667 -33.333 -76.167 -52 -115.5s-38.834 -79.166 -60.501 -119.499s-45.167 -79.833 -70.5 -118.5h134l-41 -88h-156c-29.333 -37.333 -61 -72.166 -95 -104.499s-70.333 -60.333 -109 -84s-80 -42.167 -124 -55.5s-90.667 -20 -140 -20
c-29.333 0 -54.5 3.33301 -75.5 10s-38.167 16 -51.5 28s-23 26.167 -29 42.5s-9 33.833 -9 52.5c0 7.33301 1.5 18 4.5 32s9.33301 29.167 19 45.5s23.167 32.833 40.5 49.5s40.166 31.834 68.499 45.501s63.333 24.834 105 33.501s91.167 13 148.5 13h179
c34 56 70 121.5 108 196.5s78 162.5 120 262.5l63 148c-59.333 -88 -115.5 -160.833 -168.5 -218.5s-102.667 -103.5 -149 -137.5s-89.333 -57.667 -129 -71s-75.5 -20 -107.5 -20c-43.333 0 -75.5 13 -96.5 39s-31.5 58.333 -31.5 97c0 20.667 2.33301 43.5 7 68.5
s11 51 19 78s17 54 27 81s20.333 53.167 31 78.5zM241.003 -489.002c26.667 0 53.333 3.16797 80 9.50098s54.167 17.666 82.5 33.999s57.333 39 87 68s60.834 66.167 93.501 111.5h-162c-32 0 -65.833 -1.83301 -101.5 -5.5s-68.334 -10.5 -98.001 -20.5
s-54.167 -24.167 -73.5 -42.5s-29 -41.833 -29 -70.5c0 -26 9.33301 -46.5 28 -61.5s49.667 -22.5 93 -22.5z" />
    <glyph glyph-name="Z" unicode="Z" horiz-adv-x="1270" 
d="M985 388c19.333 -16 34.833 -35.833 46.5 -59.5s17.5 -51.5 17.5 -83.5c0 -46 -11.333 -85.833 -34 -119.5s-52.167 -61.667 -88.5 -84s-77.666 -39 -123.999 -50s-92.833 -16.5 -139.5 -16.5c-50.667 0 -99.667 3 -147 9s-93 13.5 -137 22.5s-86 19.167 -126 30.5
l-112 32c-44 -28 -84.833 -49.667 -122.5 -65s-71.834 -23 -102.501 -23c-20.667 0 -38.334 2.5 -53.001 7.5s-26.834 11.667 -36.501 20s-16.667 17.666 -21 27.999s-6.5 20.833 -6.5 31.5c0 29.333 13.833 54 41.5 74s67.834 30 120.501 30c30.667 0 63 -2.16699 97 -6.5
s70 -10.166 108 -17.499c55.333 44.667 113.333 98.334 174 161.001s121.334 129.5 182.001 200.5s119.834 143.833 177.501 218.5l161 216.5l133 194c39 59.667 70.167 109.834 93.5 150.501c-66 0 -125.667 3 -179 9s-104.333 12.833 -153 20.5s-97.167 14.5 -145.5 20.5
s-100.166 9 -155.499 9c-42 0 -76 -6 -102 -18s-46.167 -26.333 -60.5 -43s-24 -33.834 -29 -51.501s-7.5 -32.5 -7.5 -44.5c0 -18 3.66699 -35.167 11 -51.5s17.833 -30.5 31.5 -42.5s30.334 -21.667 50.001 -29s42.167 -11 67.5 -11c17.333 0 39 1.83301 65 5.5
s54 11.167 84 22.5l-41 -96c-12.667 -4.66699 -27.667 -8.66699 -45 -12s-36.666 -5 -57.999 -5c-28.667 0 -56 4 -82 12s-48.833 20 -68.5 36s-35.334 36 -47.001 60s-17.5 52 -17.5 84c0 46 11.333 85.833 34 119.5s52.167 61.667 88.5 84s77.5 39 123.5 50
s92.667 16.5 140 16.5c30.667 0 60.667 -1.16699 90 -3.5s59.333 -5.33301 90 -9l96 -11.5c33.333 -4 69.666 -7.83301 108.999 -11.5s82.166 -6.66699 128.499 -9s97.833 -3.5 154.5 -3.5c-18.667 -48.667 -47.834 -106.334 -87.501 -173.001s-86.5 -138 -140.5 -214
s-113.5 -154.333 -178.5 -235s-132.333 -159.167 -202 -235.5s-140 -148.5 -211 -216.5s-139.167 -127 -204.5 -177c75.333 -14.667 156.5 -29 243.5 -43s181.167 -21 282.5 -21c51.333 0 92.5 4.83301 123.5 14.5s55 21.334 72 35.001s28.333 28.167 34 43.5s8.5 29 8.5 41
c0 25.333 -10 46.666 -30 63.999s-43 29.333 -69 36zM-81 24c23.333 0 48.666 5.49902 75.999 16.499s56.333 26.5 87 46.5c-31.333 8.66699 -59.666 15.834 -84.999 21.501s-48 8.5 -68 8.5c-16 0 -29.167 -1.33301 -39.5 -4s-18.666 -6.16699 -24.999 -10.5
s-10.833 -9.33301 -13.5 -15s-4 -11.167 -4 -16.5c0 -10.667 5.16699 -21.167 15.5 -31.5s29.166 -15.5 56.499 -15.5z" />
    <glyph glyph-name="bracketleft" unicode="[" horiz-adv-x="657" 
d="M-133 -106l678 1630h252l-20 -49h-141l-639 -1532h141l-19 -49h-252z" />
    <glyph glyph-name="backslash" unicode="\" horiz-adv-x="526" 
d="M304 0l-154 1434h72l154 -1434h-72z" />
    <glyph glyph-name="bracketright" unicode="]" horiz-adv-x="657" 
d="M-108 -106l19 49h141l643 1532h-142l20 49h252l-682 -1630h-251z" />
    <glyph glyph-name="asciicircum" unicode="^" horiz-adv-x="750" 
d="M188 984l357 413h109l33 -413h-111l-9 331l-261 -331h-118z" />
    <glyph glyph-name="underscore" unicode="_" horiz-adv-x="512" 
d="M-219 -254l39 86h479l-39 -86h-479z" />
    <glyph glyph-name="grave" unicode="`" horiz-adv-x="500" 
d="M307 844l-90 194h125l-2 -194h-33z" />
    <glyph glyph-name="a" unicode="a" horiz-adv-x="701" 
d="M344 170c-2.66699 -6 -5.00098 -12.333 -7.00098 -19s-3 -12.334 -3 -17.001c0 -8 1.83301 -13.333 5.5 -16s8.5 -4 14.5 -4c9.33301 0 20.666 4.66699 33.999 14s27.333 23 42 41l183 226l25 -20l-221 -273c-16 -20 -31 -36.667 -45 -50s-27.167 -23.833 -39.5 -31.5
s-24.666 -13.167 -36.999 -16.5s-24.833 -5 -37.5 -5c-20 0 -36.667 5.83301 -50 17.5s-20 26.5 -20 44.5c0 20 3.83301 40.667 11.5 62s18.834 48 33.501 80c5.33301 11.333 11.833 26.166 19.5 44.499l24.5 58l26 61.5l23 56.5l16.5 42.5c4.33301 11.333 6.5 18 6.5 20
c0 6.66699 -2.33301 10 -7 10c-6 0 -12.333 -5 -19 -15c-4 -5.33301 -12 -16.666 -24 -33.999l-44 -62l-56 -78l-60 -82l-57 -73c-18 -22 -33.333 -39.333 -46 -52c-32 -32 -60.333 -57.167 -85 -75.5s-49 -27.5 -73 -27.5c-8 0 -16.833 1.66699 -26.5 5
s-18.667 9.16602 -27 17.499s-15.166 20 -20.499 35s-8 34.167 -8 57.5c0 34.667 7.83301 73 23.5 115s37.167 84.833 64.5 128.5s59.666 86.5 96.999 128.5s77.833 79.833 121.5 113.5s89.5 61.834 137.5 84.501s96.667 36.334 146 41.001v-18
c-40.667 -12 -79.667 -30.5 -117 -55.5s-72.333 -53.833 -105 -86.5s-62.334 -67.5 -89.001 -104.5s-49.667 -73.5 -69 -109.5s-34.166 -70.167 -44.499 -102.5s-15.5 -59.5 -15.5 -81.5c0 -12 1.83301 -22 5.5 -30s8.83398 -12 15.501 -12c7.33301 0 18.166 6 32.499 18
s30.833 28.167 49.5 48.5s39 43.666 61 69.999l67 82.5l67.5 87l62.5 83l73 99c19.333 26 36 46.833 50 62.5s26.667 26.5 38 32.5s23.666 9 36.999 9c14 0 23.667 -3.66699 29 -11s8 -16.333 8 -27c0 -8.66699 -1.16699 -17.667 -3.5 -27
s-5.16602 -17.666 -8.49902 -24.999c-2.66699 -6 -8.5 -20.167 -17.5 -42.5l-32.5 -80l-40.5 -99.5l-41 -100.5l-34.5 -84z" />
    <glyph glyph-name="b" unicode="b" 
d="M734 371c-63.333 -78.667 -126.666 -141.172 -189.999 -187.505s-124.5 -82.166 -183.5 -107.499s-114.5 -43 -166.5 -53s-98 -17.667 -138 -23v18c44.667 16 86.5 37.333 125.5 64s74.5 56 106.5 88s60.667 65.667 86 101s46.666 70.166 63.999 104.499
s30.5 66.666 39.5 96.999s13.5 56.5 13.5 78.5c0 13.333 -2 24.5 -6 33.5s-9.66699 13.5 -17 13.5s-18.166 -6.33301 -32.499 -19s-31 -29.667 -50 -51s-39.667 -46 -62 -74l-68 -87l-68 -90l-62.5 -84l-74 -99c-20 -26 -37.167 -46.833 -51.5 -62.5
s-27.166 -26.5 -38.499 -32.5s-23.333 -9 -36 -9c-14.667 0 -24.667 3.5 -30 10.5s-8 15.833 -8 26.5c0 8.66699 1.33301 17.834 4 27.501s5.66699 18.167 9 25.5l236 562l-36.5 -54c-13.667 -20 -30 -42.5 -49 -67.5l-65 -84l-83.5 -104.5l-25 20
c46.667 56.667 86.5 106.834 119.5 150.501l85 116c23.667 33.667 43.667 63.667 60 90s30.666 51 42.999 74s23.666 45.333 33.999 67l34.5 69.5l126 300h121l-414 -979c-2.66699 -6 -4 -11.667 -4 -17c0 -6.66699 2.33301 -10 7 -10c6 0 12.667 4.66699 20 14
c3.33301 5.33301 11.166 16.833 23.499 34.5l44.5 64l57.5 81l62 84l57.5 74.5c18 22.667 33.333 40.334 46 53.001c32 32 60.333 57.667 85 77s49.667 29 75 29c8 0 16.833 -1.83301 26.5 -5.5s18.667 -10 27 -19s15.333 -21.167 21 -36.5s8.5 -34.666 8.5 -57.999
c0 -45.333 -10.667 -93.166 -32 -143.499s-50 -99.5 -86 -147.5s-77.167 -93 -123.5 -135s-94.5 -77.667 -144.5 -107c22.667 6.66699 51.334 17.334 86.001 32.001s72.167 34.5 112.5 59.5s82.333 56 126 93s86.167 81.833 127.5 134.5z" />
    <glyph glyph-name="c" unicode="c" horiz-adv-x="585" 
d="M513 364c-46 -58.667 -88.168 -108.496 -126.501 -149.496s-73.333 -75 -105 -102s-60.167 -48 -85.5 -63s-48 -26.167 -68 -33.5s-37.667 -11.833 -53 -13.5s-28.666 -2.5 -39.999 -2.5c-4.66699 0 -12.334 0.5 -23.001 1.5s-23 3.5 -37 7.5s-28.333 9.83301 -43 17.5
s-28 18.167 -40 31.5s-22 30 -30 50s-12 44.333 -12 73c0 53.333 9.66699 103.666 29 150.999s44.166 91 74.499 131s64.5 75.833 102.5 107.5s76 58.5 114 80.5s73.667 38.833 107 50.5s61 17.5 83 17.5c12 0 24 -1.83301 36 -5.5s22.833 -9.5 32.5 -17.5
s17.5 -18.333 23.5 -31s9 -28 9 -46c0 -11.333 -1 -22.333 -3 -33c-2.66699 -13.333 -11 -26.833 -25 -40.5s-30.167 -26 -48.5 -37s-37 -20 -56 -27s-34.833 -10.5 -47.5 -10.5c24 31.333 43.167 62.166 57.5 92.499s21.5 55.5 21.5 75.5c0 12 -2.83301 21.833 -8.5 29.5
s-14.5 11.5 -26.5 11.5c-21.333 0 -45 -9.5 -71 -28.5s-52.167 -43.833 -78.5 -74.5s-52.166 -65.667 -77.499 -105s-47.666 -79.333 -66.999 -120s-35 -80.334 -47 -119.001s-18 -72.667 -18 -102c0 -17.333 2 -31.833 6 -43.5s9.83301 -21 17.5 -28s16.5 -12 26.5 -15
s21 -4.5 33 -4.5c24 0 50.167 5.33301 78.5 16s60.333 29 96 55s75.167 61.167 118.5 105.5s92 100.166 146 167.499z" />
    <glyph glyph-name="d" unicode="d" horiz-adv-x="701" 
d="M344 170c-2.66699 -6 -4.99902 -12.3281 -6.99902 -18.9951s-3 -12.334 -3 -17.001c0 -8 1.83301 -13.333 5.5 -16s8.5 -4 14.5 -4c9.33301 0 20.666 4.66699 33.999 14s27.333 23 42 41l183 226l25 -20l-221 -273c-16 -20 -31 -36.667 -45 -50
s-27.167 -23.833 -39.5 -31.5s-24.666 -13.167 -36.999 -16.5s-24.833 -5 -37.5 -5c-20 0 -36.667 5.83301 -50 17.5s-20 26.5 -20 44.5c0 20 4 40.667 12 62s19 48 33 80l26 61l32.5 75.5l31 73l22.5 52.5c2.66699 6 4 11.667 4 17c0 6.66699 -2.33301 10 -7 10
s-11 -5 -19 -15l-67 -91l-74.5 -104.5l-78.5 -104.5c-26.667 -34 -53.167 -64.333 -79.5 -91s-51.833 -48.167 -76.5 -64.5s-47.667 -24.5 -69 -24.5c-8 0 -16.833 1.66699 -26.5 5s-18.667 9.33301 -27 18s-15.166 20.667 -20.499 36s-8 34.666 -8 57.999
c0 38 8.16699 78.833 24.5 122.5s38.666 87.167 66.999 130.5s61.666 85.5 99.999 126.5s79.333 77.667 123 110s89 59.166 136 80.499s93.5 34.333 139.5 39v-18c-41.333 -14 -81 -33.833 -119 -59.5s-73.333 -54.834 -106 -87.501s-62.167 -67.334 -88.5 -104.001
s-49 -72.667 -68 -108s-33.5 -68.833 -43.5 -100.5s-15 -58.5 -15 -80.5c0 -12 1.83301 -22 5.5 -30s8.83398 -12 15.501 -12c7.33301 0 18.166 6 32.499 18s30.833 28.167 49.5 48.5s39 43.666 61 69.999l67 82.5l67.5 87l62.5 83c30 40 56.333 78.167 79 114.5
s42 68.5 58 96.5c18.667 32.667 35 63.334 49 92.001l170 404h121l-440 -1049v0z" />
    <glyph glyph-name="e" unicode="e" horiz-adv-x="573" 
d="M37 40c24 0 50.165 5.33594 78.498 16.0029s60.333 29 96 55s75.167 61.167 118.5 105.5s92 100.166 146 167.499l25 -20c-46 -58.667 -88.333 -108.5 -127 -149.5s-74 -75 -106 -102s-60.833 -48 -86.5 -63s-48.5 -26.167 -68.5 -33.5s-37.667 -11.833 -53 -13.5
s-28.333 -2.5 -39 -2.5c-16 0 -34 2.33301 -54 7s-38.667 13.167 -56 25.5s-31.833 29.166 -43.5 50.499s-17.5 49 -17.5 83c0 50 8.16699 98.333 24.5 145s37.833 90.5 64.5 131.5s56.834 78.5 90.501 112.5s68 63.167 103 87.5s68.833 43.166 101.5 56.499
s61.334 20 86.001 20c35.333 0 60.833 -10.5 76.5 -31.5s23.5 -47.833 23.5 -80.5c0 -30 -6.66699 -59 -20 -87s-31 -54.5 -53 -79.5s-47.5 -48 -76.5 -69s-59.333 -39 -91 -54s-63.667 -26.833 -96 -35.5s-62.5 -13 -90.5 -13c-8.66699 -25.333 -15.5 -49.333 -20.5 -72
s-7.5 -43.667 -7.5 -63c0 -36 7 -60.667 21 -74s31 -20 51 -20zM286.998 678.003c-18 0 -39.667 -11.499 -65 -34.499s-51.5 -52.833 -78.5 -89.5s-53 -77.5 -78 -122.5s-45.833 -89.833 -62.5 -134.5c47.333 8 90.5 24.167 129.5 48.5s72.333 52.666 100 84.999
s49 66.5 64 102.5s22.5 69 22.5 99c0 18 -3 30.167 -9 36.5s-13.667 9.5 -23 9.5z" />
    <glyph glyph-name="f" unicode="f" horiz-adv-x="500" 
d="M429 365c-41.333 -52 -80.6641 -98.3359 -117.997 -139.003s-75 -78.667 -113 -114s-77 -69.666 -117 -102.999l-130 -107l-155 -375l-142 -45l482 1161l-37 -55.5l-49.5 -68.5l-65 -84l-82.5 -103l-25 20l110 139l83 113c24 34 44.5 64.833 61.5 92.5
s32.167 53.5 45.5 77.5s25.333 46.667 36 68l32 64c21.333 50.667 43.166 96.5 65.499 137.5s45.5 75.667 69.5 104s48.833 50.166 74.5 65.499s52.167 23 79.5 23c26 0 46.833 -9.33301 62.5 -28s23.5 -41.667 23.5 -69c0 -50 -12 -101.167 -36 -153.5
s-55.333 -104.166 -94 -155.499s-82.167 -101.666 -130.5 -150.999s-96.833 -96.333 -145.5 -141l-233 -563c27.333 20 56.666 42.833 87.999 68.5s64.5 55 99.5 88s72.167 70.333 111.5 112s80.666 88.834 123.999 141.501zM248.002 618.997
c48 46.667 92.334 92.832 133.001 138.499s75.667 90.334 105 134.001s52.166 86.167 68.499 127.5s24.5 81.333 24.5 120c0 12 -2 24 -6 36s-12.667 18 -26 18c-23.333 0 -46.833 -18 -70.5 -54s-48.5 -85.333 -74.5 -148z" />
    <glyph glyph-name="g" unicode="g" horiz-adv-x="699" 
d="M630 365l-92.0039 -110.003c-29.333 -33.333 -58.5 -64.5 -87.5 -93.5s-58.167 -56.5 -87.5 -82.5l-92 -79l-96 -231c-21.333 -51.333 -43.166 -97.666 -65.499 -138.999s-46.166 -76.333 -71.499 -105s-52.666 -50.667 -81.999 -66s-61.666 -23 -96.999 -23
c-23.333 0 -43 3.83301 -59 11.5s-29 17.5 -39 29.5s-17.167 25.333 -21.5 40s-6.5 28.667 -6.5 42c0 44 12.333 84.5 37 121.5s56.834 72.5 96.501 106.5s84 67.833 133 101.5s98.167 69.5 147.5 107.5l196 472c4 10 6 16 6 18c0 6.66699 -2.33301 10 -7 10
c-6 0 -12.333 -5 -19 -15c-4 -5.33301 -12 -16.666 -24 -33.999l-44 -62l-56 -78l-60 -82l-57 -73c-18 -22 -33.333 -39.333 -46 -52c-32 -32 -60.333 -57.167 -85 -75.5s-49 -27.5 -73 -27.5c-8 0 -16.833 1.66699 -26.5 5s-18.667 9.16602 -27 17.499
s-15.166 20 -20.499 35s-8 34.167 -8 57.5c0 34.667 7.83301 73 23.5 115s37.167 84.833 64.5 128.5s59.666 86.5 96.999 128.5s77.833 79.833 121.5 113.5s89.5 61.834 137.5 84.501s96.667 36.334 146 41.001v-18c-40.667 -12 -79.667 -30.5 -117 -55.5
s-72.333 -53.833 -105 -86.5s-62.334 -67.5 -89.001 -104.5s-49.667 -73.5 -69 -109.5s-34.166 -70.167 -44.499 -102.5s-15.5 -59.5 -15.5 -81.5c0 -12 1.83301 -22 5.5 -30s8.83398 -12 15.501 -12c7.33301 0 18.166 6 32.499 18s30.833 28.167 49.5 48.5
s39 43.666 61 69.999l67 82.5l67.5 87l62.5 83l73.5 99c19.667 26 36.667 46.833 51 62.5s27.166 26.5 38.499 32.5s23.666 9 36.999 9c14 0 23.667 -3.66699 29 -11s8 -16.333 8 -27c0 -8.66699 -1.16699 -17.667 -3.5 -27s-5.16602 -17.666 -8.49902 -24.999l-232 -556
c44 38 91.167 82.5 141.5 133.5s104.833 111.833 163.5 182.5zM121.996 -65.0029l-145.002 -104.502c-43.333 -31 -80.166 -60.667 -110.499 -89s-53.666 -57.166 -69.999 -86.499s-24.5 -61.666 -24.5 -96.999c0 -9.33301 1.33301 -19 4 -29s6.83398 -19 12.501 -27
s13.167 -14.5 22.5 -19.5s20.666 -7.5 33.999 -7.5c33.333 0 63.833 18.667 91.5 56s54.5 87.333 80.5 150z" />
    <glyph glyph-name="h" unicode="h" horiz-adv-x="763" 
d="M91 248c-1.33301 -3.33301 -2.33398 -6.33887 -3.00098 -9.00586c-2 -5.33301 -3 -9.66602 -3 -12.999c0 -6.66699 2.66699 -10 8 -10c7.33301 0 15.333 6.66699 24 20l209 311c21.333 32 40.5 59.167 57.5 81.5s33 40.5 48 54.5s29.333 24.167 43 30.5
s27.834 9.5 42.501 9.5c25.333 0 44.666 -5 57.999 -15s20 -24.667 20 -44c0 -11.333 -1.66699 -23.166 -5 -35.499s-6.66602 -23.166 -9.99902 -32.499l-174 -426c-2.66699 -6.66699 -5 -13.167 -7 -19.5s-3 -11.833 -3 -16.5c0 -8 1.83301 -13.333 5.5 -16s8.5 -4 14.5 -4
c9.33301 0 20.666 4.66699 33.999 14s27.333 23 42 41l183 226l25 -20l-221 -273c-16 -20 -31 -36.667 -45 -50s-27.167 -23.833 -39.5 -31.5s-24.666 -13.167 -36.999 -16.5s-24.833 -5 -37.5 -5c-20 0 -36.667 5.83301 -50 17.5s-20 26.5 -20 44.5
c0 16.667 4 36.334 12 59.001s19 50.334 33 83.001l162 383c2 4.66699 3 9.66699 3 15c0 13.333 -6.33301 20 -19 20c-5.33301 0 -11.166 -1.66699 -17.499 -5s-12.833 -10 -19.5 -20l-330 -490c-26 -38.667 -48.833 -66.167 -68.5 -82.5s-38.834 -24.5 -57.501 -24.5
c-30.667 0 -46 14.667 -46 44c0 15.333 3.83301 34.333 11.5 57s18.167 50 31.5 82l196 469l-37 -55.5l-50 -69.5l-66.5 -87l-85.5 -107l-25 20l118 150c33.333 44 62.333 83.833 87 119.5s45.5 67.834 62.5 96.501s32.167 55.5 45.5 80.5l37 71.5l35 70l117 279h121
l-409 -971v0z" />
    <glyph glyph-name="i" unicode="i" horiz-adv-x="441" 
d="M370 1115c20 0 35.667 -7.16699 47 -21.5s17 -31.166 17 -50.499c0 -10.667 -1.83301 -21.5 -5.5 -32.5s-9 -20.833 -16 -29.5s-15.333 -15.834 -25 -21.501s-20.834 -8.5 -33.501 -8.5c-19.333 0 -35 7.5 -47 22.5s-18 31.833 -18 50.5c0 14 2.5 26.5 7.5 37.5
s11.333 20.5 19 28.5s16.334 14.167 26.001 18.5s19.167 6.5 28.5 6.5zM133 573c2 4.66699 2.99902 8.33203 2.99902 10.999c0 4 -1.16699 6.83301 -3.5 8.5s-5.16602 2.5 -8.49902 2.5c-6.66699 0 -12.667 -3.66699 -18 -11l-198 -245l-25 20l225 278
c17.333 21.333 35.5 40.166 54.5 56.499s38.833 24.5 59.5 24.5c19.333 0 33.333 -5.16699 42 -15.5s13 -21.833 13 -34.5s-2.33301 -27 -7 -43s-10.667 -32.667 -18 -50l-168 -405c-2.66699 -6.66699 -5 -13.167 -7 -19.5s-3 -11.833 -3 -16.5
c0 -8 1.83301 -13.333 5.5 -16s8.5 -4 14.5 -4c9.33301 0 20.666 4.66699 33.999 14s27.333 23 42 41l183 226l25 -20l-221 -273c-16 -20 -31 -36.667 -45 -50s-27.167 -23.833 -39.5 -31.5s-24.666 -13.167 -36.999 -16.5s-24.833 -5 -37.5 -5
c-20 0 -36.667 5.83301 -50 17.5s-20 26.5 -20 44.5c0 16.667 4 36.334 12 59.001s19 50.334 33 83.001z" />
    <glyph glyph-name="j" unicode="j" horiz-adv-x="437" 
d="M368 365c-32.667 -41.333 -64.168 -79 -94.501 -113s-60.5 -65.833 -90.5 -95.5s-60.167 -58 -90.5 -85l-94.5 -81.5l-203 -467l-151 -41l237 527l88.5 197l78.5 175.5l58 130.5l27 61c2 4.66699 3 8.33398 3 11.001c0 4 -1.16699 6.83301 -3.5 8.5
s-5.16602 2.5 -8.49902 2.5c-6.66699 0 -12.667 -3.66699 -18 -11l-198 -245l-25 20l225 278c17.333 21.333 35.5 40.166 54.5 56.499s38.833 24.5 59.5 24.5c19.333 0 33.333 -5.16699 42 -15.5s13 -21.833 13 -34.5s-2.5 -27 -7.5 -43s-11.167 -32.667 -18.5 -50
l-223 -514c44.667 38 93.167 83 145.5 135s108.833 115 169.5 189zM369.999 1115c20 0 35.667 -7.16699 47 -21.5s17 -31.166 17 -50.499c0 -10.667 -1.83301 -21.5 -5.5 -32.5s-9 -20.833 -16 -29.5s-15.333 -15.834 -25 -21.501s-20.834 -8.5 -33.501 -8.5
c-19.333 0 -35 7.5 -47 22.5s-18 31.833 -18 50.5c0 14 2.5 26.5 7.5 37.5s11.333 20.5 19 28.5s16.334 14.167 26.001 18.5s19.167 6.5 28.5 6.5z" />
    <glyph glyph-name="k" unicode="k" horiz-adv-x="775" 
d="M377 90c12 0 23.999 2.49805 35.999 7.49805s23.5 11.167 34.5 18.5s21.333 15.666 31 24.999s18.167 18.666 25.5 27.999l183 226l25 -20l-221 -273c-32.667 -40 -62.334 -67.167 -89.001 -81.5s-54.667 -21.166 -84 -20.499c-14.667 0 -29.167 3.33301 -43.5 10
s-27 16 -38 28s-20 26.333 -27 43s-10.5 35 -10.5 55c0 26.667 5.5 52.5 16.5 77.5s25.333 48.833 43 71.5s37.334 44.334 59.001 65.001s43.5 40.334 65.5 59.001s40 36.834 54 54.501s25.167 34.667 33.5 51s14 32.166 17 47.499s4.5 30 4.5 44
c0 10.667 -2.83301 19.667 -8.5 27s-12.5 11 -20.5 11c-11.333 0 -22.5 -5.5 -33.5 -16.5s-19.833 -21.5 -26.5 -31.5l-326 -487c-26 -38.667 -48.667 -66.5 -68 -83.5s-40.666 -25.5 -63.999 -25.5c-15.333 0 -26.166 3.83301 -32.499 11.5s-9.5 18.167 -9.5 31.5
c0.666992 15.333 4.66699 34.5 12 57.5s17.666 50.167 30.999 81.5l195 469l-37 -55.5l-50 -69.5l-66.5 -87l-85.5 -107l-25 20l116.5 147.5c33 43.667 61.667 83.167 86 118.5s45.166 67.166 62.499 95.499s32.666 55 45.999 80l36.5 71l34.5 68.5l119 286h121l-132 -314.5
l-99.5 -238l-72 -172l-48.5 -116.5l-55 -130c-2.66699 -7.33301 -4 -13.666 -4 -18.999c0 -8.66699 2.66699 -13 8 -13c7.33301 0 15.333 6.66699 24 20l237 364c23.333 36 48 65.5 74 88.5s53 34.5 81 34.5c10.667 0 21.334 -1.66699 32.001 -5s20.5 -9.16602 29.5 -17.499
s16.333 -19.5 22 -33.5s8.5 -31.667 8.5 -53c0 -32.667 -7.66699 -61 -23 -85s-34.5 -46.167 -57.5 -66.5s-48 -39.5 -75 -57.5s-52 -37.5 -75 -58.5s-42.167 -44.167 -57.5 -69.5s-23 -55.333 -23 -90c0 -32 7.83301 -56.167 23.5 -72.5s35.834 -24.5 60.501 -24.5z" />
    <glyph glyph-name="l" unicode="l" horiz-adv-x="415" 
d="M58 170c-2.66699 -6.66699 -4.99512 -13.1689 -6.99512 -19.502s-3 -11.833 -3 -16.5c0 -8 1.83301 -13.333 5.5 -16s8.5 -4 14.5 -4c9.33301 0 20.666 4.66699 33.999 14s27.333 23 42 41l183 226l25 -20l-221 -273c-16 -20 -30.5 -36.667 -43.5 -50
s-25.333 -23.833 -37 -31.5s-23.334 -13.167 -35.001 -16.5s-23.834 -5 -36.501 -5c-20 0 -36.667 5.83301 -50 17.5s-20 26.5 -20 44.5c0 16.667 4.16699 36.334 12.5 59.001s19.166 50.334 32.499 83.001l189 451l-37 -56c-14 -20.667 -30.833 -44 -50.5 -70l-67 -87.5
l-86.5 -108.5l-25 20l120 152.5c34 45 63.333 85.5 88 121.5s45.667 68.333 63 97s32.666 55.667 45.999 81s25.5 49.5 36.5 72.5l35.5 71.5l114 271h120z" />
    <glyph glyph-name="m" unicode="m" horiz-adv-x="1095" 
d="M422 106c-25.333 -39.333 -47.999 -67.0068 -67.999 -83.0068s-39.333 -24 -58 -24c-30.667 0 -46 14.667 -46 44c0 15.333 3.83301 34.333 11.5 57s18.167 50 31.5 82l177 415c2 4.66699 3 8.33398 3 11.001c0 6 -2 10.167 -6 12.5s-7.66699 3.5 -11 3.5
c-7.33301 0 -14 -2.66699 -20 -8s-11.667 -12 -17 -20l-323 -490c-26 -38.667 -48.833 -66.167 -68.5 -82.5s-38.834 -24.5 -57.501 -24.5c-30.667 0 -46 14.667 -46 44c0 15.333 3.83301 34.333 11.5 57s18.167 50 31.5 82l166 391c2 4.66699 3 8.33398 3 11.001
c0 4 -1.16699 6.83301 -3.5 8.5s-5.16602 2.5 -8.49902 2.5c-6.66699 0 -12.667 -3.66699 -18 -11l-198 -245l-25 20l225 278c17.333 21.333 35.5 40.166 54.5 56.499s38.833 24.5 59.5 24.5c19.333 0 33.333 -5.16699 42 -15.5s13 -21.833 13 -34.5s-2.33301 -27 -7 -43
s-10.667 -32.667 -18 -50l-139 -327c-4 -9.33301 -6 -16.666 -6 -21.999c0 -6.66699 2.66699 -10 8 -10c7.33301 0 15.333 6.66699 24 20l219 336c18 28 34.167 51.333 48.5 70s28.5 33.667 42.5 45s28.333 19.333 43 24s31.667 7 51 7s34.166 -5.16699 44.499 -15.5
s15.5 -21.833 15.5 -34.5s-2.33301 -27 -7 -43s-10.667 -32.667 -18 -50l-139 -327c-4 -9.33301 -6 -16.666 -6 -21.999c0 -6.66699 2.66699 -10 8 -10c7.33301 0 15.333 6.66699 24 20l193 311c20.667 32 39.5 59.167 56.5 81.5s33 40.5 48 54.5s29.5 24.167 43.5 30.5
s28.333 9.5 43 9.5c25.333 0 44.666 -5 57.999 -15s20 -24.667 20 -44c0 -11.333 -1.66699 -23.166 -5 -35.499s-6.66602 -23.166 -9.99902 -32.499l-174 -426c-2.66699 -6.66699 -5 -13.167 -7 -19.5s-3 -11.833 -3 -16.5c0 -8 1.83301 -13.333 5.5 -16s8.5 -4 14.5 -4
c9.33301 0 20.666 4.66699 33.999 14s27.333 23 42 41l183 226l25 -20l-221 -273c-16 -20 -31 -36.667 -45 -50s-27.167 -23.833 -39.5 -31.5s-24.666 -13.167 -36.999 -16.5s-24.833 -5 -37.5 -5c-20 0 -36.667 5.83301 -50 17.5s-20 26.5 -20 44.5
c0 16.667 4 36.334 12 59.001s19 50.334 33 83.001l162 383c2 4.66699 3 9.66699 3 15c0 6 -2 10.833 -6 14.5s-8.66699 5.5 -14 5.5s-11.333 -2 -18 -6s-12.667 -10.333 -18 -19z" />
    <glyph glyph-name="n" unicode="n" horiz-adv-x="787" 
d="M133 573c2 4.66699 2.99805 8.3291 2.99805 10.9961c0 4 -1.16699 6.83301 -3.5 8.5s-5.16602 2.5 -8.49902 2.5c-6.66699 0 -12.667 -3.66699 -18 -11l-198 -245l-25 20l225 278c17.333 21.333 35.5 40.166 54.5 56.499s38.833 24.5 59.5 24.5
c19.333 0 33.333 -5.16699 42 -15.5s13 -21.833 13 -34.5s-2.33301 -27 -7 -43s-10.667 -32.667 -18 -50l-139 -327c-4 -9.33301 -6 -16.666 -6 -21.999c0 -6.66699 2.66699 -10 8 -10c7.33301 0 15.333 6.66699 24 20l209 311c21.333 32 40.5 59.167 57.5 81.5
s33 40.5 48 54.5s29.333 24.167 43 30.5s27.834 9.5 42.501 9.5c25.333 0 44.666 -5 57.999 -15s20 -24.667 20 -44c0 -11.333 -1.66699 -23.166 -5 -35.499s-6.66602 -23.166 -9.99902 -32.499l-174 -426c-2.66699 -6.66699 -5 -13.167 -7 -19.5s-3 -11.833 -3 -16.5
c0 -8 1.83301 -13.333 5.5 -16s8.5 -4 14.5 -4c9.33301 0 20.666 4.66699 33.999 14s27.333 23 42 41l183 226l25 -20l-221 -273c-16 -20 -31 -36.667 -45 -50s-27.167 -23.833 -39.5 -31.5s-24.666 -13.167 -36.999 -16.5s-24.833 -5 -37.5 -5
c-20 0 -36.667 5.83301 -50 17.5s-20 26.5 -20 44.5c0 16.667 4 36.334 12 59.001s19 50.334 33 83.001l162 383c2 4.66699 3 9.66699 3 15c0 13.333 -6.33301 20 -19 20c-5.33301 0 -11.166 -1.66699 -17.499 -5s-12.833 -10 -19.5 -20l-330 -490
c-26 -38.667 -48.833 -66.167 -68.5 -82.5s-38.834 -24.5 -57.501 -24.5c-30.667 0 -46 14.667 -46 44c0 15.333 3.83301 34.333 11.5 57s18.167 50 31.5 82l166 391v0z" />
    <glyph glyph-name="o" unicode="o" horiz-adv-x="668" 
d="M594 362c-21.333 -27.333 -41.3408 -50.3291 -60.0078 -68.9961s-37 -34 -55 -46s-35.5 -21 -52.5 -27s-34.167 -10 -51.5 -12c-20 -29.333 -42.167 -56.833 -66.5 -82.5s-50 -48 -77 -67s-55.5 -34 -85.5 -45s-60.333 -16.5 -91 -16.5
c-24.667 0 -48.667 4.16699 -72 12.5s-44.166 21 -62.499 38s-33 38.333 -44 64s-16.5 55.834 -16.5 90.501c0 54 9.66699 107.5 29 160.5s46.333 102.5 81 148.5s76.334 87.333 125.001 124s102.334 66 161.001 88l9 -14c-51.333 -44.667 -95.5 -92.334 -132.5 -143.001
s-67.5 -101.5 -91.5 -152.5s-41.833 -100.5 -53.5 -148.5s-17.5 -91.667 -17.5 -131c0 -12.667 1.33301 -24.834 4 -36.501s6.83398 -22 12.501 -31s12.5 -16.167 20.5 -21.5s17.667 -8 29 -8c14.667 0 30.834 5 48.501 15s35.834 23.5 54.501 40.5s37.5 37.167 56.5 60.5
s37.5 48.333 55.5 75c-32 17.333 -55 42.166 -69 74.499s-21 67.5 -21 105.5c0 35.333 6.33301 69.833 19 103.5s29 63.5 49 89.5s42 46.833 66 62.5s47.333 23.5 70 23.5c12 0 25 -2.66699 39 -8s27 -14.333 39 -27s22 -29.667 30 -51s12 -48 12 -80
c0 -42.667 -7.66699 -87.834 -23 -135.501s-36.333 -94.5 -63 -140.5c12 2.66699 24.167 7 36.5 13s25.333 14.333 39 25s28.334 24.167 44.001 40.5s32.834 36.166 51.501 59.499zM197.992 411.004c0 -36 5.83301 -67.3369 17.5 -94.0039s29.834 -46.667 54.501 -60
c18 28.667 34.667 58.334 50 89.001s28.666 60.834 39.999 90.501s20.333 58 27 85s10 51.167 10 72.5c0 10.667 -1.66699 19.334 -5 26.001s-7.5 11.834 -12.5 15.501s-10.333 6.16699 -16 7.5s-10.5 2 -14.5 2c-12.667 0 -27.667 -6.5 -45 -19.5
s-33.833 -30.333 -49.5 -52s-29 -46.667 -40 -75s-16.5 -57.5 -16.5 -87.5z" />
    <glyph glyph-name="p" unicode="p" horiz-adv-x="798" 
d="M732 371c-63.333 -78.667 -126.669 -141.17 -190.002 -187.503s-124.5 -82.166 -183.5 -107.499s-114.5 -43 -166.5 -53s-98 -17.667 -138 -23v18c44.667 16 86.5 37.333 125.5 64s74.5 56 106.5 88s60.667 65.667 86 101s46.666 70.166 63.999 104.499
s30.5 66.666 39.5 96.999s13.5 56.5 13.5 78.5c0 13.333 -2 24.5 -6 33.5s-9.66699 13.5 -17 13.5c-10 0 -23.833 -7.66699 -41.5 -23s-38.167 -36.166 -61.5 -62.499s-48.333 -56.833 -75 -91.5l-82 -110l-82.5 -118.5l-75.5 -116
c-23.333 -37 -44.166 -71.5 -62.499 -103.5s-32.5 -59 -42.5 -81l-39.5 -88.5l-41 -96l-39.5 -95l-36 -86.5l-141 -44l32 73.5l34.5 80.5l35 82.5l33.5 79.5l75 178l279 666c-10 -16 -21.833 -33.667 -35.5 -53l-48.5 -66.5l-65 -85.5l-86 -108l-25 20l107.5 135l79 104.5
l57 80c15.667 23 29.334 44.333 41.001 64l31.5 55l28 53.5l20 48h122l-259 -617c-2.66699 -6 -4 -11.667 -4 -17c0 -6.66699 2.33301 -10 7 -10s10.667 4.66699 18 14l22.5 31.5l42 58.5l53.5 73l57.5 76.5l54.5 69c17.333 21 32.333 37.833 45 50.5
c32 32 60.333 57.667 85 77s49.667 29 75 29c8 0 16.833 -1.83301 26.5 -5.5s18.667 -10 27 -19s15.333 -21.167 21 -36.5s8.5 -34.666 8.5 -57.999c0 -45.333 -10.667 -93.166 -32 -143.499s-50 -99.5 -86 -147.5s-77.167 -93 -123.5 -135s-94.5 -77.667 -144.5 -107
c22.667 6.66699 51.334 17.334 86.001 32.001s72.167 34.5 112.5 59.5s82.333 56 126 93s86.167 81.833 127.5 134.5z" />
    <glyph glyph-name="q" unicode="q" horiz-adv-x="700" 
d="M304 72c43.333 38 90.001 82.1641 140.001 132.497s103.667 110.5 161 180.5l25 -20l-84.5 -101c-27 -30.667 -53.667 -59.5 -80 -86.5s-53 -52.833 -80 -77.5l-82.5 -73c-0.666992 -23.333 -2.83398 -54.166 -6.50098 -92.499s-9.16699 -79.5 -16.5 -123.5
s-17 -88.167 -29 -132.5s-26.5 -84.5 -43.5 -120.5s-37 -65.333 -60 -88s-49.5 -34 -79.5 -34c-33.333 0 -56.5 9.5 -69.5 28.5s-19.5 41.5 -19.5 67.5c0 12 1.16699 24.333 3.5 37s5.33301 25.5 9 38.5s7.83398 25.5 12.501 37.5l13 34l326 789c4 10 6 16 6 18
c0 6.66699 -2.33301 10 -7 10c-6 0 -12.333 -5 -19 -15c-4 -5.33301 -12 -16.666 -24 -33.999l-44 -62l-56 -78l-60 -82l-57 -73c-18 -22 -33.333 -39.333 -46 -52c-32 -32 -60.333 -57.167 -85 -75.5s-49 -27.5 -73 -27.5c-8 0 -16.833 1.66699 -26.5 5
s-18.667 9.16602 -27 17.499s-15.166 20 -20.499 35s-8 34.167 -8 57.5c0 34.667 7.83301 73 23.5 115s37.167 84.833 64.5 128.5s59.666 86.5 96.999 128.5s77.833 79.833 121.5 113.5s89.5 61.834 137.5 84.501s96.667 36.334 146 41.001v-18
c-40.667 -12 -79.667 -30.5 -117 -55.5s-72.333 -53.833 -105 -86.5s-62.334 -67.5 -89.001 -104.5s-49.667 -73.5 -69 -109.5s-34.166 -70.167 -44.499 -102.5s-15.5 -59.5 -15.5 -81.5c0 -12 1.83301 -22 5.5 -30s8.83398 -12 15.501 -12c7.33301 0 18.166 6 32.499 18
s30.833 28.167 49.5 48.5s39 43.666 61 69.999l67 82.5l67.5 87l62.5 83l73.5 99c19.667 26 36.667 46.833 51 62.5s27.166 26.5 38.499 32.5s23.666 9 36.999 9c14 0 23.667 -3.66699 29 -11s8 -16.333 8 -27c0 -8.66699 -1.16699 -17.667 -3.5 -27
s-5.16602 -17.666 -8.49902 -24.999zM96.001 -517.003c14 0 27.833 8.00195 41.5 24.002s26.334 37.167 38.001 63.5s22.667 56.833 33 91.5s19.5 70.667 27.5 108s14.667 74.666 20 111.999s9.33301 72 12 104l-172 -417c-1.33301 -2.66699 -3 -6.5 -5 -11.5
s-4 -10.5 -6 -16.5s-3.66699 -12.333 -5 -19s-2 -12.334 -2 -17.001c0 -7.33301 1.66699 -12.833 5 -16.5s7.66602 -5.5 12.999 -5.5z" />
    <glyph glyph-name="r" unicode="r" horiz-adv-x="501" 
d="M142 170c-2.66699 -6.66699 -5.00195 -13.168 -7.00195 -19.501s-3 -11.833 -3 -16.5c0 -8 1.83301 -13.333 5.5 -16s8.5 -4 14.5 -4c9.33301 0 20.666 4.66699 33.999 14s27.333 23 42 41l183 226l25 -20l-221 -273c-16 -20 -30.833 -36.667 -44.5 -50
s-26.5 -23.833 -38.5 -31.5s-24 -13.167 -36 -16.5s-24.333 -5 -37 -5c-20 0 -36.167 5.83301 -48.5 17.5s-18.5 26.5 -18.5 44.5c0 16.667 4 36.334 12 59.001s19 50.334 33 83.001l140 334l10 25c3.33301 8.66699 6.33301 17 9 25s4.83398 15.167 6.50098 21.5
s2.5 11.166 2.5 14.499s-1.16699 5.83301 -3.5 7.5s-5.16602 2.5 -8.49902 2.5c-8.66699 0 -18 0.333008 -28 1s-20 2.33398 -30 5.00098l-39 -54l-50.5 -67.5l-64 -83.5l-79.5 -102l-25 20l131 168.5c36.667 47.667 68.334 90.5 95.001 128.5
c-15.333 6.66699 -28.166 15.834 -38.499 27.501s-15.5 27.167 -15.5 46.5c0 7.33301 2.16699 17.666 6.5 30.999s10.666 26.333 18.999 39s18.833 23.667 31.5 33s27.334 14 44.001 14c13.333 0 25.833 -3.83301 37.5 -11.5s17.5 -19.5 17.5 -35.5
c0 -11.333 -4 -26 -12 -44s-22.667 -39.667 -44 -65c10 -4.66699 19.667 -7.33398 29 -8.00098s19 -1 29 -1c12.667 0 24.167 0.5 34.5 1.5s20.166 1.5 29.499 1.5c18.667 0 31.667 -4.66699 39 -14s11 -20 11 -32c0 -12.667 -2.83301 -28 -8.5 -46
s-11.167 -33.667 -16.5 -47l-154 -369v0z" />
    <glyph glyph-name="s" unicode="s" horiz-adv-x="512" 
d="M-186 44c0 10 4.00684 22.0049 12.0068 36.0049s18 27.167 30 39.5s24.667 23 38 32s25.333 13.5 36 13.5c13.333 0 21.166 -4.16699 23.499 -12.5s3 -17.5 2 -27.5s-1.5 -19.167 -1.5 -27.5s5 -12.5 15 -12.5c28 0 54 12 78 36s44.833 54.667 62.5 92
s31.5 79.166 41.5 125.499s15 91.5 15 135.5c0 38 -3.83301 69.167 -11.5 93.5s-16.167 45.166 -25.5 62.499c-22.667 -32.667 -52.167 -72.667 -88.5 -120l-138.5 -178l-25 20l137 176.5c38 49.667 70.667 94.167 98 133.5
c-3.33301 7.33301 -6.16602 14.166 -8.49902 20.499s-3.5 12.833 -3.5 19.5c0 15.333 4.33301 31.166 13 47.499s19.667 31.166 33 44.499s28.166 24.166 44.499 32.499s32.166 12.5 47.499 12.5c8 0 16.667 -2.16699 26 -6.5s14 -13.5 14 -27.5
c0 -4.66699 -2.33301 -11 -7 -19s-9.83398 -16.333 -15.501 -25s-10.834 -17 -15.501 -25s-7 -14.333 -7 -19c0 -5.33301 2.16699 -14 6.5 -26s9 -27.333 14 -46s9.66699 -40.167 14 -64.5s6.5 -51.5 6.5 -81.5c0 -37.333 -4.66699 -74.5 -14 -111.5s-22 -72.667 -38 -107
s-35 -66.833 -57 -97.5s-45.667 -58 -71 -82c50 27.333 102.667 64.333 158 111s111.666 106.334 168.999 179.001l25 -20c-40 -51.333 -81.333 -97 -124 -137s-85.334 -75 -128.001 -105s-84.834 -54.833 -126.501 -74.5s-81.5 -34.5 -119.5 -44.5
c-11.333 -3.33301 -22.5 -5.83301 -33.5 -7.5s-22.167 -2.5 -33.5 -2.5c-7.33301 0 -15 0.5 -23 1.5s-15.333 3.16699 -22 6.5s-12 7.83301 -16 13.5s-6 13.167 -6 22.5z" />
    <glyph glyph-name="t" unicode="t" horiz-adv-x="445" 
d="M384 943l282.999 -0.00292969l-19 -41h-281l-309 -732c-2.66699 -6.66699 -5.33398 -14.167 -8.00098 -22.5s-4 -16.166 -4 -23.499c0 -8 2.33301 -14.5 7 -19.5s11.334 -7.5 20.001 -7.5c15.333 0 32.333 7.5 51 22.5s35.334 31.5 50.001 49.5l183 226l25 -20l-211 -261
c-32.667 -40 -63.667 -69.167 -93 -87.5s-57 -27.5 -83 -27.5c-10 0 -20 1.5 -30 4.5s-19 7.33301 -27 13s-14.5 13 -19.5 22s-7.5 19.5 -7.5 31.5c0 16.667 3.83301 34.834 11.5 54.501l31.5 78.5l189 451l-37 -56c-14 -20.667 -30.667 -44 -50 -70l-67 -87.5l-87 -108.5
l-25 20c62 76 113 141.5 153 196.5s73.167 103.333 99.5 145s48 78.834 65 111.501l48.5 97h-243l19 41h245l79 187h120z" />
    <glyph glyph-name="u" unicode="u" horiz-adv-x="799" 
d="M102 219c-7.33301 -16 -13.3359 -32.499 -18.0029 -49.499s-7 -31.167 -7 -42.5c0 -15.333 4 -24.833 12 -28.5s16.667 -5.5 26 -5.5c10 0 21.667 7.16699 35 21.5s27.833 33.166 43.5 56.499s32.334 50.333 50.001 81l53.5 94.5l54 97
c18 32.333 35.667 62.166 53 89.499l58.5 92.5c15.667 24.333 30.167 43.833 43.5 58.5s26.5 24.834 39.5 30.501s28.833 8.5 47.5 8.5c14 0 25.333 -3.66699 34 -11s13 -16.333 13 -27c0 -8.66699 -1.16699 -17.667 -3.5 -27s-5.16602 -17.666 -8.49902 -24.999
c-2.66699 -6 -8.5 -20.333 -17.5 -43l-33 -81.5l-41 -101.5l-41 -102.5l-35 -85.5l-20.5 -49c-2.66699 -6 -5 -12.333 -7 -19s-3 -12.334 -3 -17.001c0 -8 1.83301 -13.333 5.5 -16s8.5 -4 14.5 -4c9.33301 0 20.666 4.66699 33.999 14s27.333 23 42 41l183 226l25 -20
l-221 -273c-16 -20 -31 -36.667 -45 -50s-27.167 -23.833 -39.5 -31.5s-24.666 -13.167 -36.999 -16.5s-24.833 -5 -37.5 -5c-20 0 -36.667 5.83301 -50 17.5s-20 26.5 -20 44.5c0 20 3.83301 40.667 11.5 62s18.834 48 33.501 80c5.33301 11.333 11.833 26.166 19.5 44.499
l24.5 58l26 61.5l23 56.5l16.5 42.5c4.33301 11.333 6.5 18 6.5 20c0 6.66699 -2.33301 10 -7 10c-6 0 -12.333 -5 -19 -15c-42 -64 -78.667 -125.167 -110 -183.5s-61.333 -109.666 -90 -153.999s-57.5 -79.5 -86.5 -105.5s-61.833 -39 -98.5 -39
c-22 0 -40.833 8.16699 -56.5 24.5s-23.5 39.5 -23.5 69.5c0 12 1.16699 24.333 3.5 37s5.16602 24.5 8.49902 35.5s6.5 20.833 9.5 29.5s5.5 15 7.5 19l150 359c2 4.66699 3 8.33398 3 11.001c0 4 -1.16699 6.83301 -3.5 8.5s-5.16602 2.5 -8.49902 2.5
c-6.66699 0 -12.667 -3.66699 -18 -11l-198 -245l-25 20l225 278c17.333 21.333 35.5 40.166 54.5 56.499s38.833 24.5 59.5 24.5c19.333 0 33.333 -5.16699 42 -15.5s13 -21.833 13 -34.5s-2.33301 -27 -7 -43s-10.667 -32.667 -18 -50z" />
    <glyph glyph-name="v" unicode="v" horiz-adv-x="778" 
d="M133 573c2 4.66699 3.00391 8.33203 3.00391 10.999c0 4 -1.16699 6.83301 -3.5 8.5s-5.16602 2.5 -8.49902 2.5c-6.66699 0 -12.667 -3.66699 -18 -11l-198 -245l-25 20l225 278c17.333 21.333 35.5 40.166 54.5 56.499s38.833 24.5 59.5 24.5
c19.333 0 33.333 -5.16699 42 -15.5s13 -21.833 13 -34.5s-2.33301 -27 -7 -43s-10.667 -32.667 -18 -50l-154 -382c-9.33301 -23.333 -17 -44.5 -23 -63.5s-9 -35.833 -9 -50.5c0 -10 2.66699 -18.167 8 -24.5s12.666 -9.5 21.999 -9.5
c11.333 0 25.666 5.83301 42.999 17.5s36.333 27.5 57 47.5s42.5 43.333 65.5 70s46.167 55 69.5 85c-11.333 16.667 -19.666 36.334 -24.999 59.001s-8 48 -8 76c0 40 7 79.167 21 117.5s32.167 72.833 54.5 103.5s47.333 55.334 75 74.001s55.167 28 82.5 28
c26 0 46.5 -8.33301 61.5 -25s22.5 -42 22.5 -76c0 -27.333 -5 -56.666 -15 -87.999s-23.5 -63.333 -40.5 -96s-37.333 -65.667 -61 -99s-48.834 -65.333 -75.501 -96c8 -2 17 -3 27 -3c18 0 35.333 1.5 52 4.5s34 9.5 52 19.5s37.167 24.5 57.5 43.5
s43.166 44.167 68.499 75.5l24 -21c-24 -31.333 -46.667 -57 -68 -77s-42.166 -35.667 -62.499 -47s-40.5 -19.333 -60.5 -24s-40.667 -7 -62 -7c-20.667 0 -38.334 2.33301 -53.001 7c-28.667 -31.333 -58.5 -60.333 -89.5 -87s-61.5 -49.834 -91.5 -69.501
s-58.833 -35.167 -86.5 -46.5s-52.834 -17 -75.501 -17c-27.333 0 -49 8.83301 -65 26.5s-24 44.5 -24 80.5c0 23.333 4.16699 51 12.5 83s20.166 66.333 35.499 103zM337.004 401.998c0 -43.333 6.33594 -77.999 19.0029 -103.999c22.667 32 44.5 64.5 65.5 97.5
s39.167 64.667 54.5 95s27.666 58.666 36.999 84.999s14 48.833 14 67.5c0 8.66699 -1.33301 16.834 -4 24.501s-9.33398 11.5 -20.001 11.5c-12 0 -27.5 -7.16699 -46.5 -21.5s-37.333 -34 -55 -59s-32.834 -54.333 -45.501 -88s-19 -69.834 -19 -108.501z" />
    <glyph glyph-name="w" unicode="w" horiz-adv-x="1100" 
d="M601 642l-180.997 -449.003c-9.33301 -23.333 -17 -44.5 -23 -63.5s-9 -35.833 -9 -50.5c0 -10 2.66699 -18.167 8 -24.5s12.666 -9.5 21.999 -9.5c10.667 0 24.167 5.33301 40.5 16s34.5 25.334 54.5 44.001s41 40.5 63 65.5s44 51.833 66 80.5
c-11.333 18 -19.5 38.833 -24.5 62.5s-7.5 49.167 -7.5 76.5c0 40 7.5 79.833 22.5 119.5s34.333 75.334 58 107.001s49.834 57.334 78.501 77.001s56.667 29.5 84 29.5c26 0 46.5 -8.33301 61.5 -25s22.5 -42 22.5 -76c0 -28.667 -5.33301 -59.5 -16 -92.5
s-25.5 -66.833 -44.5 -101.5s-41.167 -69.334 -66.5 -104.001s-52.333 -68 -81 -100c8.66699 -2.66699 19.667 -4 33 -4c18 0 35.667 2.33301 53 7s35.5 13 54.5 25s39.167 28.333 60.5 49s45 47.334 71 80.001l24 -21c-48.667 -63.333 -93.834 -108 -135.501 -134
s-83.834 -39 -126.501 -39c-23.333 0 -43 3.33301 -59 10c-28 -29.333 -56.667 -56.333 -86 -81s-58.333 -46 -87 -64s-56 -32.167 -82 -42.5s-50 -15.5 -72 -15.5c-27.333 0 -49 8.83301 -65 26.5s-24 44.5 -24 80.5c0 8.66699 0.666992 18 2 28s3 20.667 5 32
c-46 -51.333 -90.333 -92 -133 -122s-81 -45 -115 -45c-27.333 0 -49 8.83301 -65 26.5s-24 44.5 -24 80.5c0 23.333 4.16699 51 12.5 83s20.166 66.333 35.499 103l119 286c2 4.66699 3 8.33398 3 11.001c0 4 -1.16699 6.83301 -3.5 8.5s-5.16602 2.5 -8.49902 2.5
c-6.66699 0 -12.667 -3.66699 -18 -11l-198 -245l-25 20l225 278c17.333 21.333 35.5 40.166 54.5 56.499s38.833 24.5 59.5 24.5c19.333 0 33.333 -5.16699 42 -15.5s13 -21.833 13 -34.5s-2.33301 -27 -7 -43s-10.667 -32.667 -18 -50l-154 -382
c-9.33301 -23.333 -17 -44.5 -23 -63.5s-9 -35.833 -9 -50.5c0 -10 2.66699 -18.167 8 -24.5s12.666 -9.5 21.999 -9.5c11.333 0 26 6 44 18s37.833 28.5 59.5 49.5s44.5 45.333 68.5 73s47.667 57.167 71 88.5l2 6c0.666992 2 1.66699 4.33301 3 7l147 355h118z
M649.003 391.997c0 -43.333 6.00098 -79.335 18.001 -108.002c24 32.667 47 66.167 69 100.5s41.333 67.333 58 99s30 61.334 40 89.001s15 51.167 15 70.5c0 8.66699 -1.33301 16.834 -4 24.501s-9.33398 11.5 -20.001 11.5c-12 0 -28 -7.66699 -48 -23
s-39.5 -36.166 -58.5 -62.499s-35.333 -56.833 -49 -91.5s-20.5 -71.334 -20.5 -110.001z" />
    <glyph glyph-name="x" unicode="x" horiz-adv-x="681" 
d="M164 254c-33.333 -42.667 -63.3311 -78.499 -89.998 -107.499s-50.667 -52.833 -72 -71.5s-40 -33.167 -56 -43.5s-30.5 -17.833 -43.5 -22.5s-24.667 -7.33398 -35 -8.00098s-19.833 -1 -28.5 -1v96c1.33301 -0.666992 3.33301 -1.33398 6 -2.00098s9 -1 19 -1
c10.667 0 25.167 2.16699 43.5 6.5s40 13.666 65 27.999s53.167 35 84.5 62s65.666 63.5 102.999 109.5l-26 276c-1.33301 10 -5.66602 15 -12.999 15c-4.66699 0 -8.66699 -1.5 -12 -4.5s-6.66602 -6.5 -9.99902 -10.5l-191 -236l-25 20l225 278l24.5 30.5
c7.66699 9.66699 15.334 18.334 23.001 26.001s15.834 13.667 24.501 18s18 6.5 28 6.5c19.333 0 32 -5.16699 38 -15.5s9.66699 -21.833 11 -34.5l20 -214c41.333 54.667 76 97.834 104 129.501s52.167 55.667 72.5 72s38.333 27.333 54 33s32.5 9.5 50.5 11.5l10 -118
c-2.66699 0.666992 -5.33398 1.66699 -8.00098 3c-3.33301 1.33301 -7 2.33301 -11 3s-8.66699 1 -14 1c-10.667 0 -23.667 -2.33301 -39 -7s-33.5 -13.5 -54.5 -26.5s-44.833 -31.667 -71.5 -56s-56.334 -55.833 -89.001 -94.5l25 -261c1.33301 -8 3.66602 -15 6.99902 -21
s9.66602 -9 18.999 -9c8 0 19 4.66699 33 14s28.333 23 43 41l183 226l25 -20l-221 -273c-16 -20 -30.167 -36.667 -42.5 -50s-23.833 -23.833 -34.5 -31.5s-21.334 -13.167 -32.001 -16.5s-22.334 -5 -35.001 -5c-20 0 -36.167 5.5 -48.5 16.5s-19.166 26.167 -20.499 45.5
z" />
    <glyph glyph-name="y" unicode="y" horiz-adv-x="790" 
d="M721 365c-33.333 -41.333 -65.166 -79.001 -95.499 -113.001s-60.333 -65.833 -90 -95.5s-59.834 -58 -90.501 -85l-95 -81.5l-202 -467l-151 -41l215 479l80.5 179.5l72 160l53.5 119.5l25 57c1.33301 3.33301 2.16602 7.33301 2.49902 12s-2.16699 7 -7.5 7
c-6 0 -12.333 -5 -19 -15c-42 -64 -78.667 -125.167 -110 -183.5s-61.333 -109.666 -90 -153.999s-57.5 -79.5 -86.5 -105.5s-61.833 -39 -98.5 -39c-22 0 -40.833 8.16699 -56.5 24.5s-23.5 39.5 -23.5 69.5c0 12 1.16699 24.333 3.5 37s5.16602 24.5 8.49902 35.5
s6.5 20.833 9.5 29.5s5.5 15 7.5 19l150 359c2 4.66699 3 8.33398 3 11.001c0 4 -1.16699 6.83301 -3.5 8.5s-5.16602 2.5 -8.49902 2.5c-6.66699 0 -12.667 -3.66699 -18 -11l-198 -245l-25 20l225 278c17.333 21.333 35.5 40.166 54.5 56.499s38.833 24.5 59.5 24.5
c19.333 0 33.333 -5.16699 42 -15.5s13 -21.833 13 -34.5s-2.33301 -27 -7 -43s-10.667 -32.667 -18 -50l-150 -356c-7.33301 -16 -13.333 -32.5 -18 -49.5s-7 -31.167 -7 -42.5c0 -15.333 4 -24.833 12 -28.5s16.667 -5.5 26 -5.5c10 0 21.667 7.16699 35 21.5
s27.833 33.166 43.5 56.499s32.334 50.333 50.001 81l53.5 94.5l54 97c18 32.333 35.667 62.166 53 89.499l58.5 92.5c15.667 24.333 30.167 43.833 43.5 58.5s26.5 24.834 39.5 30.501s28.833 8.5 47.5 8.5c14 0 25.333 -3.66699 34 -11s13 -16.333 13 -27
c0 -8.66699 -1.16699 -17.667 -3.5 -27s-5.16602 -17.666 -8.49902 -24.999l-248 -573c45.333 38 94.166 83.167 146.499 135.5s108.833 115.5 169.5 189.5z" />
    <glyph glyph-name="z" unicode="z" horiz-adv-x="571" 
d="M501 365c-34.667 -43.333 -67.1729 -82.0049 -97.5059 -116.005s-60.166 -65.5 -89.499 -94.5s-59 -56.833 -89 -83.5l-96 -82c0.666992 -3.33301 1 -6.33301 1 -9v-9c0 -36.667 -5 -74.5 -15 -113.5s-23.333 -77 -40 -114s-35.834 -72 -57.501 -105s-44 -62 -67 -87
s-45.833 -44.667 -68.5 -59s-43.334 -21.5 -62.001 -21.5c-14 0 -27.333 4.33301 -40 13s-19 24.667 -19 48c0 28 8.83301 58.833 26.5 92.5s39.667 67.5 66 101.5s54.833 67 85.5 99s59 60.333 85 85c1.33301 11.333 2.5 22.333 3.5 33s1.5 21.334 1.5 32.001
c0 16 -1.33301 31.5 -4 46.5s-6.66699 28.5 -12 40.5c-17.333 -8.66699 -34.166 -15.334 -50.499 -20.001s-32.166 -7 -47.499 -7c-13.333 0 -24.666 3 -33.999 9s-14 15.333 -14 28c0 8 2.33301 16.167 7 24.5s11.667 16 21 23s21.166 12.667 35.499 17s31.5 6.5 51.5 6.5
c11.333 0 21.833 -1.16699 31.5 -3.5s18.834 -5.16602 27.501 -8.49902c28 28.667 54.833 62.334 80.5 101.001s48.334 77.834 68.001 117.501s35.334 77 47.001 112s17.5 63.167 17.5 84.5c0 25.333 -5.33301 43.5 -16 54.5s-23.667 16.5 -39 16.5
c-23.333 0 -49 -10.667 -77 -32s-57 -51 -87 -89l-46 -56l-41.5 -51.5l-39.5 -49.5l-25 20l34 42l41 51l49 60c57.333 72.667 112.333 126.834 165 162.501s98.667 53.5 138 53.5c10.667 0 21.834 -2 33.501 -6s22.334 -10.667 32.001 -20s17.667 -21.833 24 -37.5
s9.5 -35.5 9.5 -59.5c0 -36 -9.5 -76.833 -28.5 -122.5s-44 -91.667 -75 -138s-66.167 -90.666 -105.5 -132.999s-79.333 -78.166 -120 -107.499c10 -10.667 18.5 -22.5 25.5 -35.5s12.5 -26.5 16.5 -40.5c48.667 39.333 102.5 87.666 161.5 144.999s123.167 128 192.5 212z
M-182.006 -497.005c12.667 0 28.166 10.168 46.499 30.501s36.833 46.666 55.5 78.999s36.334 69.333 53.001 111s30 84.167 40 127.5c-20 -18.667 -42.667 -41.834 -68 -69.501s-49 -56.5 -71 -86.5s-40.667 -59.333 -56 -88s-23 -53 -23 -73
c0 -7.33301 0.833008 -13.166 2.5 -17.499s3.66699 -7.5 6 -9.5s4.83301 -3.16699 7.5 -3.5s5 -0.5 7 -0.5zM-87.0068 57.9961c13.333 0 26.6699 2.66797 40.0029 8.00098s26.666 12.666 39.999 21.999c-12.667 11.333 -28.334 17 -47.001 17c-20 0 -34 -3.5 -42 -10.5
s-12 -13.5 -12 -19.5c0 -4 1.66699 -7.83301 5 -11.5s8.66602 -5.5 15.999 -5.5z" />
    <glyph glyph-name="braceleft" unicode="{" horiz-adv-x="647" 
d="M155 726c16.667 4.66699 34.5 12.9932 53.5 24.9932s37.333 26 55 42s33.5 33.5 47.5 52.5s25 37.833 33 56.5c7.33301 17.333 13.833 39.666 19.5 66.999l17.5 87c6 30.667 12.5 60.834 19.5 90.501s15.167 55.834 24.5 78.501c10 24.667 23 47.834 39 69.501
s33.667 41.834 53 60.501s39.666 35.834 60.999 51.501s42.333 29.834 63 42.501c48.667 29.333 100.334 54.666 155.001 75.999l11 -30c-42 -20.667 -82 -45 -120 -73c-16 -12 -32.5 -25.333 -49.5 -40s-33.333 -30.667 -49 -48s-30 -35.666 -43 -54.999
s-23.833 -40 -32.5 -62c-11.333 -27.333 -19.5 -55.666 -24.5 -84.999s-9.16699 -58.833 -12.5 -88.5s-7.16602 -58.334 -11.499 -86.001s-11.166 -52.834 -20.499 -75.501c-6 -14 -14.5 -29.667 -25.5 -47s-24.167 -34.333 -39.5 -51s-32.5 -32 -51.5 -46
s-39.5 -25 -61.5 -33c14.667 -11.333 24.834 -25.166 30.501 -41.499s8.5 -33.5 8.5 -51.5c0 -28.667 -5.83301 -56.5 -17.5 -83.5s-26.167 -53.833 -43.5 -80.5s-36.166 -53.334 -56.499 -80.001s-39.166 -54 -56.499 -82s-31.833 -57.167 -43.5 -87.5
s-17.5 -62.166 -17.5 -95.499c0 -30 3.66699 -56.5 11 -79.5s15.666 -42.5 24.999 -58.5c10.667 -18.667 22.667 -35.334 36 -50.001l-20 -21l-21 17c-14 11.333 -29.333 27 -46 47s-31.834 43.833 -45.501 71.5s-20.5 57.834 -20.5 90.501s5.16699 64.167 15.5 94.5
s23.166 59.666 38.499 87.999s32 55.5 50 81.5s34.667 51.333 50 76s28.166 48.834 38.499 72.501s15.5 46.834 15.5 69.501c0 7.33301 -0.833008 15.833 -2.5 25.5s-4.33398 19.5 -8.00098 29.5s-8.5 19.333 -14.5 28s-13.333 15.334 -22 20.001z" />
    <glyph glyph-name="bar" unicode="|" horiz-adv-x="500" 
d="M210 -328v1761h80v-1761h-80z" />
    <glyph glyph-name="braceright" unicode="}" horiz-adv-x="647" 
d="M501 693c-17.333 -4.66699 -35.333 -12.9951 -54 -24.9951s-36.834 -26 -54.501 -42s-33.5 -33.5 -47.5 -52.5s-25 -37.833 -33 -56.5c-7.33301 -17.333 -14 -39.666 -20 -66.999s-12 -56.333 -18 -87s-12.333 -60.834 -19 -90.501s-14.667 -55.834 -24 -78.501
c-10 -24.667 -23 -47.834 -39 -69.501s-33.667 -41.834 -53 -60.501s-39.666 -35.834 -60.999 -51.501s-42.333 -29.834 -63 -42.501c-48.667 -29.333 -100.334 -54.666 -155.001 -75.999l-11 30c42 20.667 82 45 120 73c16 12 32.5 25.333 49.5 40s33.167 30.5 48.5 47.5
s29.5 35.333 42.5 55s24.167 40.5 33.5 62.5c10.667 26.667 18.5 54.834 23.5 84.501s9.33301 59.334 13 89.001s7.66699 58.167 12 85.5s11.166 52.666 20.499 75.999c6 14 14.5 29.667 25.5 47s24.167 34.333 39.5 51s32.5 32 51.5 46s39.5 25 61.5 33
c-14.667 11.333 -24.834 25.166 -30.501 41.499s-8.5 33.5 -8.5 51.5c0 28.667 5.83301 56.5 17.5 83.5s26.167 53.833 43.5 80.5s36.166 53.334 56.499 80.001s39.166 54 56.499 82s31.833 57 43.5 87s17.5 62 17.5 96c0 30 -3.66699 56.5 -11 79.5
s-15.666 42.5 -24.999 58.5c-10.667 18.667 -22.667 35.334 -36 50.001l20 21l21 -17c14 -11.333 29.333 -27 46 -47s31.834 -43.833 45.501 -71.5s20.5 -57.834 20.5 -90.501s-5.16699 -64.167 -15.5 -94.5s-23.166 -59.666 -38.499 -87.999s-32 -55.5 -50 -81.5
s-34.667 -51.333 -50 -76s-28.166 -48.834 -38.499 -72.501s-15.5 -46.834 -15.5 -69.501c0 -7.33301 0.833008 -15.833 2.5 -25.5s4.33398 -19.5 8.00098 -29.5s8.5 -19.333 14.5 -28s13.333 -15.334 22 -20.001z" />
    <glyph glyph-name="asciitilde" unicode="~" 
d="M659 690c-18 -36 -35.335 -66.832 -52.002 -92.499s-33.667 -46.834 -51 -63.501s-35.166 -29 -53.499 -37s-38.166 -12 -59.499 -12c-28 0 -51.5 6.83301 -70.5 20.5s-35.833 28.667 -50.5 45l-41 45c-12.667 13.667 -27 20.5 -43 20.5c-20 0 -39.5 -9.5 -58.5 -28.5
s-40.167 -53.167 -63.5 -102.5h-80c34.667 72.667 68 125 100 157s66.667 48 104 48c26.667 0 49 -6.83301 67 -20.5s34.167 -28.667 48.5 -45s28.5 -31.333 42.5 -45s30.333 -20.5 49 -20.5c9.33301 0 19 1.83301 29 5.5s20.5 10.167 31.5 19.5s22.333 22.5 34 39.5
s24.167 39.167 37.5 66.5h80v0z" />
    <glyph glyph-name="nonbreakingspace" unicode="&#xa0;" horiz-adv-x="490" 
 />
    <glyph glyph-name="exclamdown" unicode="&#xa1;" horiz-adv-x="445" 
d="M225 680h27l-481 -1198h-141zM215 813c0 19.333 7 36.166 21 50.499s30.667 21.5 50 21.5s35.833 -7.16699 49.5 -21.5s20.5 -31.166 20.5 -50.499s-6.83301 -35.666 -20.5 -48.999s-30.167 -20 -49.5 -20s-36 6.66699 -50 20s-21 29.666 -21 48.999z" />
    <glyph glyph-name="cent" unicode="&#xa2;" horiz-adv-x="550" 
d="M407 878c2.66699 0.666992 6.33398 1.00391 11.001 1.00391c10.667 0 21.334 -1.66699 32.001 -5s20.334 -8.66602 29.001 -15.999s15.667 -16.666 21 -27.999s8 -25 8 -41c0 -4.66699 -0.166992 -9.33398 -0.5 -14.001s-0.833008 -9.66699 -1.5 -15
c-2.66699 -12 -10.334 -24.167 -23.001 -36.5s-27.167 -23.333 -43.5 -33s-33 -17.667 -50 -24s-31.167 -9.5 -42.5 -9.5c21.333 28 38.666 54.833 51.999 80.5s20 47.5 20 65.5c0 10 -2.33301 18.333 -7 25s-11.667 10.667 -21 12l-238 -566
c27.333 2.66699 58.166 13.167 92.499 31.5s74.833 49.833 121.5 94.5l25 -24c-32.667 -32 -62.167 -57.333 -88.5 -76s-49.833 -32.834 -70.5 -42.501s-39 -16 -55 -19s-30 -4.5 -42 -4.5l-98 -234l-38 15l94 222c-12.667 2 -26.667 5.83301 -42 11.5
s-29.833 14.5 -43.5 26.5s-25.167 27.833 -34.5 47.5s-14 44.167 -14 73.5c0 41.333 6.5 80.833 19.5 118.5s30.333 72.667 52 105s46.5 62.166 74.5 89.499s56.833 51.666 86.5 72.999s59 39.166 88 53.499s55.5 25.166 79.5 32.499l95 225l36 -16zM64 356.004
c0 -24.667 4.16406 -43.1699 12.4971 -55.5029s19.833 -20.166 34.5 -23.499l231 549c-19.333 -10.667 -39.666 -26.334 -60.999 -47.001s-42.333 -44.5 -63 -71.5s-40.167 -56.167 -58.5 -87.5s-34.666 -62.666 -48.999 -93.999s-25.666 -61.666 -33.999 -90.999
s-12.5 -55.666 -12.5 -78.999z" />
    <glyph glyph-name="sterling" unicode="&#xa3;" horiz-adv-x="942" 
d="M397 549c-11.333 -32.667 -23.5 -65.6602 -36.5 -98.9932s-26.833 -66.333 -41.5 -99s-30.167 -64.334 -46.5 -95.001s-33.833 -59.334 -52.5 -86.001c16 -11.333 32.333 -22.333 49 -33s34.167 -20.167 52.5 -28.5s37.666 -15 57.999 -20s42.166 -7.5 65.499 -7.5
c24.667 0 47.5 1.5 68.5 4.5s40.333 9.16699 58 18.5s33.667 22.833 48 40.5s27.166 41.5 38.499 71.5l40 -11c-16 -50 -35.667 -89.667 -59 -119s-47.5 -51.5 -72.5 -66.5s-49.5 -24.5 -73.5 -28.5s-45.333 -6 -64 -6c-28 0 -54 3.5 -78 10.5s-46.5 16.167 -67.5 27.5
s-40.667 24.333 -59 39s-35.833 29.667 -52.5 45c-32 -36.667 -66.333 -65.834 -103 -87.501s-76 -32.5 -118 -32.5c-15.333 0 -30.833 2.33301 -46.5 7s-29.667 12 -42 22s-22.5 22.667 -30.5 38s-12 33.666 -12 54.999c0 22 4.66699 43 14 63s22.333 37.833 39 53.5
s36.334 28 59.001 37s47.334 13.5 74.001 13.5s51.834 -5.33301 75.501 -16s46.834 -24 69.501 -40c24 46.667 46 98.334 66 155.001s38.667 114.667 56 174h-182l23 52h175l14 49.5l14 48.5c21.333 75.333 43.833 140.333 67.5 195s47.667 101.334 72 140.001s49 70 74 94
s49.667 42.667 74 56s48.333 22.5 72 27.5s46.167 7.5 67.5 7.5c28 0 52.833 -4 74.5 -12s40 -18.833 55 -32.5s26.5 -29.667 34.5 -48s12 -37.833 12 -58.5s-3.83301 -40.334 -11.5 -59.001s-18.334 -36 -32.001 -52s-29.5 -30.167 -47.5 -42.5s-37 -22.5 -57 -30.5l-35 99
c14.667 0.666992 29.334 3 44.001 7s28 10.167 40 18.5s21.667 18.666 29 30.999s11 27.166 11 44.499c0 12 -2.33301 23.667 -7 35s-11.834 21.166 -21.501 29.499s-22.167 15.166 -37.5 20.499s-34 8 -56 8c-40 0 -75.167 -15.833 -105.5 -47.5
s-57.5 -72.167 -81.5 -121.5s-45.333 -103.833 -64 -163.5l-52 -173.5c-3.33301 -11.333 -7 -22.833 -11 -34.5s-7.66699 -23.5 -11 -35.5h287l-23 -52h-281zM-56 33.0068c33.333 0 64.165 11.332 92.498 33.999s54.833 53 79.5 91c-21.333 18.667 -42 34.334 -62 47.001
s-40.667 19 -62 19s-39.833 -3.33301 -55.5 -10s-28.667 -15.5 -39 -26.5s-18.166 -23.167 -23.499 -36.5s-8 -26.333 -8 -39c0 -23.333 7.33301 -42.333 22 -57s33.334 -22 56.001 -22z" />
    <glyph glyph-name="currency" unicode="&#xa4;" 
d="M555 790c18 -26 30.667 -51.832 38 -77.499s11 -51.5 11 -77.5c0 -27.333 -3.33301 -53.5 -10 -78.5s-19.667 -50.5 -39 -76.5l53.5 -53.5l54.5 -54.5l-27 -27l-25 -26l-109 109c-24 -15.333 -50 -27.5 -78 -36.5s-53.667 -13.5 -77 -13.5c-26.667 0 -52.667 4 -78 12
s-50.333 21 -75 39l-54 -54.5l-55 -54.5c-9.33301 10 -18.166 18.833 -26.499 26.5s-16.833 16.167 -25.5 25.5l110 110c-18 24.667 -31.167 49.834 -39.5 75.501s-12.5 51.5 -12.5 77.5c0 27.333 3.83301 53.5 11.5 78.5s21.167 50.5 40.5 76.5l-55 54l-55 55l51 51
l110 -109c24.667 17.333 50.667 30.166 78 38.499s53.666 12.5 78.999 12.5c26 0 51.667 -3.66699 77 -11s50.333 -20 75 -38l44 44l32 33c10.667 11.333 21 21.666 31 30.999l27 -26.5l26 -25.5zM215 501.001c18 -18 38.499 -31.0029 61.499 -39.0029s46.5 -12 70.5 -12
c23.333 0 46.333 4 69 12s42.834 19.833 60.501 35.5s32 35 43 58s16.5 49.5 16.5 79.5c0 25.333 -5 49.333 -15 72s-23.667 42.5 -41 59.5s-37.333 30.5 -60 40.5s-47 15 -73 15c-26.667 0 -51.334 -5.16699 -74.001 -15.5s-42.167 -24.166 -58.5 -41.499
s-29.166 -37.333 -38.499 -60s-14 -46 -14 -70c0 -25.333 4 -49.166 12 -71.499s21.667 -43.166 41 -62.499z" />
    <glyph glyph-name="yen" unicode="&#xa5;" horiz-adv-x="1112" 
d="M597 -54c-27.333 -50 -57.833 -98.5029 -91.5 -145.503s-71.167 -88.667 -112.5 -125s-86.833 -65.5 -136.5 -87.5s-103.834 -33 -162.501 -33c-40 0 -73.5 7.66699 -100.5 23s-48.167 34.666 -63.5 57.999l72 71l13.5 -34.5c5 -13 11.667 -25.333 20 -37
s19 -21.334 32 -29.001s29.5 -11.5 49.5 -11.5s42.333 4.33301 67 13s51.667 25.834 81 51.501s61 61.334 95 107.001s71 105.5 111 179.5h-304l23 52h308c7.33301 13.333 14.5 27.5 21.5 42.5l21.5 45.5h-317l23 52h318c7.33301 15.333 14.5 31.166 21.5 47.499l21.5 50.5
l140 331c-46 -64 -89.5 -117.167 -130.5 -159.5s-79.5 -76 -115.5 -101s-69.5 -42.5 -100.5 -52.5s-59.167 -15 -84.5 -15c-36.667 0 -63.834 10.833 -81.501 32.5s-26.5 48.834 -26.5 81.501c0 17.333 2 36.5 6 57.5s9.33301 42.833 16 65.5s14.167 45.334 22.5 68.001
s17.166 44.667 26.499 66l94 221l38 87.5l34.5 82c10.333 25.667 18.666 49.5 24.999 71.5s9.5 40.667 9.5 56c0 10 -2.5 18.167 -7.5 24.5s-14.167 9.5 -27.5 9.5c-7.33301 0 -20.5 -2.5 -39.5 -7.5s-44.333 -17.333 -76 -37s-69.667 -49.167 -114 -88.5
s-95.5 -93.333 -153.5 -162l-20 97c44 38.667 87 73 129 103s81.5 55.333 118.5 76s70.833 36.167 101.5 46.5s57 15.5 79 15.5c32 0 57.5 -9.33301 76.5 -28s28.5 -42.667 28.5 -72c0 -19.333 -2.16699 -40.166 -6.5 -62.499s-10.166 -45.333 -17.499 -69
s-15.5 -47.667 -24.5 -72s-18.5 -47.833 -28.5 -70.5l-95 -221c-12 -28 -23.333 -56.5 -34 -85.5s-20 -56.5 -28 -82.5s-14.333 -49.667 -19 -71s-7 -38.333 -7 -51c0 -9.33301 2.66699 -16.166 8 -20.499s12 -6.5 20 -6.5c6.66699 0 18 2.16699 34 6.5
s36.167 13.666 60.5 27.999s52.333 34.833 84 61.5s66.334 62.167 104.001 106.5s78.334 98.833 122.001 163.5s89.834 142.334 138.501 233.001l139 327h122l-417 -983l-20.5 -47.5l-21.5 -50.5h145l-23 -52h-145l-20.5 -43.5l-21.5 -44.5h153l-23 -52h-157z" />
    <glyph glyph-name="brokenbar" unicode="&#xa6;" 
d="M210 778v656h80v-656h-80zM210 -327v656h80v-656h-80z" />
    <glyph glyph-name="section" unicode="&#xa7;" 
d="M648 634c0 -36 -5.83301 -68.6689 -17.5 -98.002s-27.334 -55.166 -47.001 -77.499s-42.167 -41.166 -67.5 -56.499s-52 -27 -80 -35c12.667 -23.333 23 -46.666 31 -69.999s12 -47.333 12 -72c0 -48 -8.83301 -89.167 -26.5 -123.5s-40.334 -62.333 -68.001 -84
s-58.667 -37.5 -93 -47.5s-68.5 -15 -102.5 -15c-32 0 -61.5 4.16699 -88.5 12.5s-51.5 19 -73.5 32s-41.333 27.333 -58 43s-30.667 31.167 -42 46.5l84 68c30.667 -57.333 60.667 -98.833 90 -124.5s61.666 -38.5 96.999 -38.5c24 0 47 3.83301 69 11.5
s41.5 19.167 58.5 34.5s30.5 35 40.5 59s15 52 15 84c0 27.333 -6.83301 54.333 -20.5 81s-30.5 53.834 -50.5 81.501s-42 55.667 -66 84s-46 57.833 -66 88.5s-36.833 62.5 -50.5 95.5s-20.5 68.167 -20.5 105.5c0 36 5.83301 68.5 17.5 97.5s27.334 54.833 47.001 77.5
s42.167 41.667 67.5 57s52 27 80 35c-13.333 23.333 -23.833 46.666 -31.5 69.999s-11.5 47.333 -11.5 72c0 48 8.83301 89.167 26.5 123.5s40.334 62.333 68.001 84s58.667 37.5 93 47.5s68.5 15 102.5 15c32 0 61.5 -4.16699 88.5 -12.5s51.5 -19 73.5 -32
s41.333 -27.5 58 -43.5s30.667 -31.333 42 -46l-84 -68c-30.667 57.333 -60.667 98.833 -90 124.5s-61.666 38.5 -96.999 38.5c-24 0 -47 -3.83301 -69 -11.5s-41.5 -19.167 -58.5 -34.5s-30.5 -35 -40.5 -59s-15 -52 -15 -84c0 -27.333 6.83301 -54.333 20.5 -81
s30.5 -53.834 50.5 -81.501s42 -55.667 66 -84s46 -57.833 66 -88.5s36.833 -62.667 50.5 -96s20.5 -68.333 20.5 -105zM548 600.998c0 28 -7 56.166 -21 84.499s-31.5 57 -52.5 86s-43.5 58.333 -67.5 88s-46 59.834 -66 90.501c-18 -6 -35.167 -15 -51.5 -27
s-30.666 -26.333 -42.999 -43s-22 -35.834 -29 -57.501s-10.5 -45.167 -10.5 -70.5c0 -28 7 -56.333 21 -85s31.333 -57.5 52 -86.5s43.167 -58.167 67.5 -87.5s46.5 -59.333 66.5 -90c18 6 35.167 15 51.5 27s30.666 26.333 42.999 43s22 35.834 29 57.501
s10.5 45.167 10.5 70.5z" />
    <glyph glyph-name="dieresis" unicode="&#xa8;" horiz-adv-x="500" 
d="M479 939c0 -19.333 -7.16699 -36.166 -21.5 -50.499s-31.166 -21.5 -50.499 -21.5c-20.667 0 -38 7.16699 -52 21.5s-21 31.166 -21 50.499c0 20.667 7 38.167 21 52.5s31.333 21.5 52 21.5c19.333 0 36.166 -7.16699 50.499 -21.5s21.5 -31.833 21.5 -52.5zM266 939
c0 -19.333 -7.16699 -36.166 -21.5 -50.499s-31.833 -21.5 -52.5 -21.5c-19.333 0 -36 7.16699 -50 21.5s-21 31.166 -21 50.499c0 20.667 7 38.167 21 52.5s30.667 21.5 50 21.5c20.667 0 38.167 -7.16699 52.5 -21.5s21.5 -31.833 21.5 -52.5z" />
    <glyph glyph-name="copyright" unicode="&#xa9;" horiz-adv-x="1536" 
d="M842 1253c-59.333 0 -116.997 -8.83398 -172.997 -26.501s-109 -42 -159 -73s-95.833 -67.833 -137.5 -110.5s-77.667 -89.167 -108 -139.5s-53.833 -103.666 -70.5 -159.999s-25 -113.166 -25 -170.499c0 -70.667 11.5 -136.5 34.5 -197.5s56 -114 99 -159
s95.667 -80.333 158 -106s132.5 -38.5 210.5 -38.5c58 0 115 8.66699 171 26s109.167 41.333 159.5 72s96.666 67 138.999 109s79 88 110 138s55.167 102.667 72.5 158s26 111.666 26 168.999c0 71.333 -11.667 138 -35 200s-56.833 115.833 -100.5 161.5
s-96.834 81.667 -159.501 108s-133.334 39.5 -212.001 39.5zM854.003 1325c83.333 0 160.166 -14.501 230.499 -43.501s131 -69 182 -120s90.833 -111.167 119.5 -180.5s43 -144.333 43 -225c0 -69.333 -9.83301 -136.166 -29.5 -200.499s-47.167 -124.5 -82.5 -180.5
s-77.166 -107 -125.499 -153s-100.833 -85.5 -157.5 -118.5s-116.834 -58.5 -180.501 -76.5s-128.167 -27 -193.5 -27c-83.333 0 -160 14.5 -230 43.5s-130.167 68.833 -180.5 119.5s-89.5 110.5 -117.5 179.5s-42 143.5 -42 223.5c0 69.333 9.66699 136.333 29 201
s46.333 125 81 181s75.834 107.167 123.501 153.5s99.667 86 156 119s116.333 58.667 180 77s128.5 27.5 194.5 27.5zM871.003 718.998c24 12 45.166 27.168 63.499 45.501s33.833 38.833 46.5 61.5s22.167 47 28.5 73s9.5 53 9.5 81c0 39.333 -8.5 71 -25.5 95
s-40.5 36 -70.5 36c-35.333 0 -70.666 -10 -105.999 -30s-69.166 -46.667 -101.499 -80s-62.666 -72 -90.999 -116s-52.833 -90.333 -73.5 -139s-36.834 -97.667 -48.501 -147s-17.5 -96.333 -17.5 -141c0 -64.667 11.833 -114 35.5 -148s57.167 -51 100.5 -51
c4 0 12.667 0.333008 26 1s29.666 3.5 48.999 8.5s40.833 13.5 64.5 25.5s48.167 29.667 73.5 53l19 -28c-27.333 -26.667 -54.666 -47.5 -81.999 -62.5s-52.5 -26 -75.5 -33s-43 -11.333 -60 -13s-28.833 -2.5 -35.5 -2.5c-25.333 0 -52.166 3.83301 -80.499 11.5
s-54.5 21 -78.5 40s-43.833 44.167 -59.5 75.5s-23.5 71 -23.5 119c0 60.667 8.5 119.667 25.5 177s40 111.666 69 162.999s62.333 98.5 100 141.5s77.167 80 118.5 111s82.833 55.167 124.5 72.5s81.167 26 118.5 26c30 0 57.167 -4.16699 81.5 -12.5
s45.166 -20 62.499 -35s30.666 -33 39.999 -54s14 -44.167 14 -69.5c0 -28.667 -6.33301 -57.667 -19 -87s-29.5 -56.833 -50.5 -82.5s-45.167 -48.5 -72.5 -68.5s-55.333 -35 -84 -45z" />
    <glyph glyph-name="ordfeminine" unicode="&#xaa;" horiz-adv-x="512" 
d="M447 865c-4.66699 -9.33301 -7.00098 -17.333 -7.00098 -24c0 -9.33301 4.66699 -14 14 -14c7.33301 0 13.166 2.16699 17.499 6.5s11.833 12.5 22.5 24.5l135 152l26 -24l-162 -183c-23.333 -26.667 -44.333 -44.834 -63 -54.501s-37.667 -14.5 -57 -14.5
c-17.333 0 -30.666 4 -39.999 12s-14 18 -14 30c0 13.333 2.83301 27.166 8.5 41.499s13.834 32.166 24.501 53.499l20.5 43l22.5 49l18.5 41.5c5 11.667 7.5 18.5 7.5 20.5c0 4 -1.66699 6 -5 6c-4.66699 0 -9.33398 -3.33301 -14.001 -10l-28 -36l-50 -62.5l-56.5 -68
c-19 -22.333 -35.5 -39.833 -49.5 -52.5c-23.333 -21.333 -44.333 -38.166 -63 -50.499s-39.334 -18.5 -62.001 -18.5c-6 0 -12.5 1.16699 -19.5 3.5s-13.5 6.33301 -19.5 12s-11 13.5 -15 23.5s-6 22.667 -6 38c0 22.667 5.66699 48.167 17 76.5s27 57.166 47 86.499
s43.667 58 71 86s57 53.333 89 76s65.5 41.5 100.5 56.5s70.5 24.167 106.5 27.5v-21c-29.333 -8 -57.5 -20.167 -84.5 -36.5s-52.167 -35.166 -75.5 -56.499s-44.333 -44 -63 -68s-34.667 -47.667 -48 -71s-23.666 -45.5 -30.999 -66.5s-11 -38.833 -11 -53.5
c0 -9.33301 1.16699 -15.666 3.5 -18.999s5.16602 -5 8.49902 -5c8 0 21.167 8.5 39.5 25.5s39 38.167 62 63.5l72 83l69.5 84l54 66.5c14.667 17.667 27.334 31.667 38.001 42s20.334 17.5 29.001 21.5s18 6 28 6s17.5 -2.33301 22.5 -7s7.5 -10.667 7.5 -18
c0 -6 -1 -12 -3 -18s-4 -11.667 -6 -17c-2 -4 -6.16699 -13.167 -12.5 -27.5l-22.5 -51l-27.5 -63l-28 -63.5l-24 -53c-7 -15.333 -11.833 -25.666 -14.5 -30.999zM-10.001 599l24 48h416l-24 -48h-416z" />
    <glyph glyph-name="guillemotleft" unicode="&#xab;" horiz-adv-x="655" 
d="M-10 371l334 227l-45 -102l-187 -125l78 -125l-45 -103zM195 371l334 227l-45 -102l-187 -125l78 -125l-45 -103z" />
    <glyph glyph-name="logicalnot" unicode="&#xac;" 
d="M562 627h-521l31 76h605l-113 -282h-84z" />
    <glyph glyph-name="uni00AD" unicode="&#xad;" 
d="M55 412l39 116h507l-39 -116h-507z" />
    <glyph glyph-name="registered" unicode="&#xae;" horiz-adv-x="1024" 
d="M608 1261c-56.667 0 -110.83 -12.166 -162.497 -36.499s-97.167 -56.666 -136.5 -96.999s-70.666 -86.5 -93.999 -138.5s-35 -105.667 -35 -161c0 -44.667 7.16699 -86.334 21.5 -125.001s35.166 -72.167 62.499 -100.5s60.666 -50.666 99.999 -66.999
s83.666 -24.5 132.999 -24.5c55.333 0 109 12 161 36s98 55.833 138 95.5s72 85.167 96 136.5s36 104.666 36 159.999c0 45.333 -7.33301 87.666 -22 126.999s-35.834 73.5 -63.501 102.5s-61.167 51.667 -100.5 68s-84 24.5 -134 24.5zM615.004 1326
c56 0 107.502 -9.66797 154.502 -29.001s87.5 -46 121.5 -80s60.5 -74.167 79.5 -120.5s28.5 -96.166 28.5 -149.499c0 -69.333 -14.333 -134.333 -43 -195s-66.834 -113.667 -114.501 -159s-102 -81.166 -163 -107.499s-123.833 -39.5 -188.5 -39.5
c-56 0 -107.167 9.66699 -153.5 29s-86.333 45.833 -120 79.5s-59.834 73.5 -78.501 119.5s-28 95.667 -28 149c0 68.667 14 133.667 42 195s65.5 114.666 112.5 159.999s100.833 81.333 161.5 108s123.667 40 189 40zM774.006 1081
c0 -27.333 -4.33105 -51.1729 -12.998 -71.5059s-20.834 -38.166 -36.501 -53.499s-34.5 -28.666 -56.5 -39.999s-46.333 -21.666 -73 -30.999c-15.333 -5.33301 -24.333 -10.666 -27 -15.999s-4 -11.333 -4 -18c0 -1.33301 2.83301 -8.16602 8.5 -20.499l23.5 -49.5
l35.5 -70.5l44.5 -83.5l-78 -26l-33 64l-26.5 54.5l-25 55.5l-27.5 67c-1.33301 2.66699 -2.5 6 -3.5 10s-1.5 7.33301 -1.5 10c0 7.33301 2.33301 12.833 7 16.5s11.667 7.16699 21 10.5l35 12c14 4.66699 30.333 11.334 49 20.001c36 18.667 61.833 41.334 77.5 68.001
s23.5 56 23.5 88c0 10 -1 19.667 -3 29s-5.33301 17.666 -10 24.999s-10.834 13.333 -18.501 18s-16.834 7 -27.501 7c-10 0 -20.333 -1.33301 -31 -4s-21.5 -9 -32.5 -19s-22.333 -24.667 -34 -44s-23.167 -45.333 -34.5 -78l-136 -385h-79l137 385
c10.667 31.333 24 58.333 40 81s33.5 41.167 52.5 55.5s39 24.833 60 31.5s42.167 10 63.5 10c16 0 31.833 -2.16699 47.5 -6.5s29.834 -11 42.501 -20s23 -20.167 31 -33.5s12 -29.333 12 -48z" />
    <glyph glyph-name="macron" unicode="&#xaf;" horiz-adv-x="500" 
d="M120 911l20 65h359l-23 -65h-356z" />
    <glyph glyph-name="degree" unicode="&#xb0;" horiz-adv-x="354" 
d="M472 1119c0 -20.667 -4.66602 -40.8359 -13.999 -60.5029s-21.666 -37.167 -36.999 -52.5s-33.333 -27.666 -54 -36.999s-42 -14 -64 -14c-34 0 -59.5 9.5 -76.5 28.5s-25.5 42.5 -25.5 70.5c0 20.667 4.66699 40.834 14 60.501s21.666 37.334 36.999 53.001
s33.166 28.167 53.499 37.5s41.5 14 63.5 14c32 0 57.167 -9.5 75.5 -28.5s27.5 -42.833 27.5 -71.5zM309.001 984.998c14 0 26.6699 5.33398 38.0029 16.001s21.166 23.667 29.499 39s14.666 31.666 18.999 48.999s6.5 32.666 6.5 45.999
c0 20.667 -4.16699 34.334 -12.5 41.001s-17.5 10 -27.5 10s-20.333 -4.33301 -31 -13s-20.5 -20 -29.5 -34s-16.5 -30 -22.5 -48s-9 -36.333 -9 -55c0 -16 3.16699 -28.5 9.5 -37.5s16.166 -13.5 29.499 -13.5z" />
    <glyph glyph-name="plusminus" unicode="&#xb1;" 
d="M354 547l-111 -276h-84l112 276h-264l31 76h263l112 275h84l-112 -275h278l-31 -76h-278zM-133 87l31 76h625l-31 -76h-625z" />
    <glyph glyph-name="twosuperior" unicode="&#xb2;" horiz-adv-x="611" 
d="M147 808c-7.33301 26 -11.0029 50.3301 -11.0029 72.9971c0 42.667 9.33301 84.334 28 125.001s44.167 76.667 76.5 108s70.333 56.666 114 75.999s90.834 29 141.501 29c33.333 0 62.5 -4.66699 87.5 -14s45.667 -22.166 62 -38.499s28.666 -35.166 36.999 -56.499
s12.5 -44 12.5 -68c0 -43.333 -8.66699 -82.333 -26 -117s-40.666 -67 -69.999 -97s-63.833 -58.167 -103.5 -84.5s-82 -52.333 -127 -78l-139 -79.5c-47.667 -27.333 -94.167 -56.666 -139.5 -87.999c6.66699 2.66699 11.834 5 15.501 7s7.33398 3.33301 11.001 4
s8.16699 1.16699 13.5 1.5s13.666 0.5 24.999 0.5c25.333 0 52.833 -1.16699 82.5 -3.5s60.5 -3.5 92.5 -3.5c16 0 30 1.33301 42 4s22.667 6.16699 32 10.5s17.833 9.5 25.5 15.5s15.5 12.667 23.5 20l32 -17l-107 -123c-53.333 6.66699 -105.166 14 -155.499 22
s-104.833 12 -163.5 12c-19.333 0 -39.166 -2.66699 -59.499 -8s-38.833 -14.333 -55.5 -27l-20 23c54.667 40.667 109 78.167 163 112.5l154.5 99c49 31.667 94.5 62.5 136.5 92.5s78.5 60.833 109.5 92.5s55.167 64.834 72.5 99.501s26 72.667 26 114
c0 40 -10.167 71.833 -30.5 95.5s-50.5 35.5 -90.5 35.5c-38.667 0 -73.334 -6.83301 -104.001 -20.5s-56.5 -31.5 -77.5 -53.5s-37 -47 -48 -75s-16.5 -56.333 -16.5 -85c0 -30.667 8.33301 -58.334 25 -83.001z" />
    <glyph glyph-name="threesuperior" unicode="&#xb3;" horiz-adv-x="592" 
d="M209 902c10 4 20.333 7.66797 31 11.001s22 5.66602 34 6.99902c22 5.33301 44.833 13.333 68.5 24s45.334 24 65.001 40s36 34.667 49 56s19.5 45 19.5 71c0 27.333 -7.16699 46.666 -21.5 57.999s-31.833 17 -52.5 17c-20 0 -38.5 -4 -55.5 -12
s-32.833 -18.667 -47.5 -32s-27.667 -29 -39 -47s-21 -37 -29 -57l-61 76c46 40 89.333 67.5 130 82.5s79.667 22.5 117 22.5c21.333 0 42.333 -2.5 63 -7.5s39 -12.333 55 -22s28.833 -21.5 38.5 -35.5s14.5 -30 14.5 -48c0 -24 -6.83301 -45.833 -20.5 -65.5
s-31.167 -37.167 -52.5 -52.5s-45.333 -28.666 -72 -39.999s-53 -20.333 -79 -27c26 -4 49.333 -11.5 70 -22.5s38.167 -24.167 52.5 -39.5s25.166 -32.833 32.499 -52.5s11 -39.834 11 -60.501c0 -45.333 -11.167 -86.5 -33.5 -123.5s-51.666 -70.167 -87.999 -99.5
s-77.5 -55 -123.5 -77s-92.5 -40.833 -139.5 -56.5s-92.667 -28.167 -137 -37.5s-82.833 -15.666 -115.5 -18.999l-3 33c35.333 3.33301 72.666 9.83301 111.999 19.5s78.333 22 117 37s75.5 33 110.5 54s65.833 44.667 92.5 71s48 55.5 64 87.5s24 67 24 105
c0 18 -1.83301 35.5 -5.5 52.5s-10 32.333 -19 46s-21 24.5 -36 32.5s-33.5 12 -55.5 12c-13.333 0 -26.333 -1.33301 -39 -4s-24.667 -6 -36 -10z" />
    <glyph glyph-name="acute" unicode="&#xb4;" horiz-adv-x="500" 
d="M224 844h-49l144 194h145z" />
    <glyph glyph-name="mu" unicode="&#xb5;" horiz-adv-x="680" 
d="M483 208l-93.5 -111.502c-24.333 -27.667 -44.833 -48.667 -61.5 -63s-31 -23.666 -43 -27.999s-24.333 -6.5 -37 -6.5c-18 0 -30.833 4.66699 -38.5 14s-12 20.833 -13 34.5s0.333008 28.5 4 44.5s7.5 31 11.5 45c-32.667 -49.333 -63 -84.666 -91 -105.999
s-57 -32 -87 -32c-7.33301 0 -15.5 1 -24.5 3s-17.333 6.33301 -25 13s-13.834 16.334 -18.501 29.001s-5.66699 29.667 -3 51l-7 -1c-10 -26 -20 -54.5 -30 -85.5l-30 -93l-29 -88.5c-9.33301 -28 -18 -51.667 -26 -71l-141 -44l70 162l90.5 213l113 268l138.5 327h117
l-194 -463c-7.33301 -16 -13.333 -30.667 -18 -44s-7 -25.666 -7 -36.999c0 -15.333 3.83301 -26.666 11.5 -33.999s17.167 -11 28.5 -11c18.667 0 35.834 2.66699 51.501 8s31.334 15.666 47.001 30.999s32.167 36.666 49.5 63.999s36.833 62.833 58.5 106.5
s46.167 96.5 73.5 158.5l96 221h117l-13 -30l-24.5 -57.5l-32.5 -76.5l-37 -86l-37 -87l-33.5 -79l-26.5 -61.5l-15 -34.5c-2.66699 -6 -5 -12.333 -7 -19s-3 -12.334 -3 -17.001c0 -8 1.83301 -13.333 5.5 -16s8.5 -4 14.5 -4c4.66699 0 10.167 1.5 16.5 4.5
s14.166 8.66699 23.499 17s20.833 19.833 34.5 34.5s30.167 34 49.5 58z" />
    <glyph glyph-name="paragraph" unicode="&#xb6;" horiz-adv-x="934" 
d="M489 0h-67.001l571 1359c-16.667 -1.33301 -33.167 -3 -49.5 -5s-33.166 -4.66699 -50.499 -8l-564 -1346h-67l291 694c-38.667 -8.66699 -81.667 -13 -129 -13c-42 0 -81.5 3.83301 -118.5 11.5s-69.333 19.5 -97 35.5s-49.334 36.167 -65.001 60.5
s-23.5 53.166 -23.5 86.499c0 43.333 12.333 85.833 37 127.5s58.834 81.334 102.501 119.001s95.667 72.5 156 104.5s125.833 60.167 196.5 84.5s145.167 44 223.5 59s157.833 24.167 238.5 27.5zM475.999 729c32.667 0 64.668 3 96.001 9l248 591
c-72 -18.667 -141.833 -43.667 -209.5 -75s-127.667 -66.833 -180 -106.5s-94.333 -82.5 -126 -128.5s-47.5 -92.667 -47.5 -140c0 -26 6 -48.5 18 -67.5s28 -34.5 48 -46.5s43.167 -21 69.5 -27s54.166 -9 83.499 -9z" />
    <glyph glyph-name="periodcentered" unicode="&#xb7;" horiz-adv-x="268" 
d="M135 554c0 -20 -7.16699 -37.167 -21.5 -51.5s-31.833 -21.5 -52.5 -21.5c-19.333 0 -36.166 7.16699 -50.499 21.5s-21.5 31.5 -21.5 51.5c0 19.333 7.16699 36.166 21.5 50.499s31.166 21.5 50.499 21.5c20.667 0 38.167 -7.16699 52.5 -21.5
s21.5 -31.166 21.5 -50.499z" />
    <glyph glyph-name="cedilla" unicode="&#xb8;" horiz-adv-x="500" 
d="M61 -91c11.333 6.66699 24.998 11.166 40.998 13.499s31.667 3.5 47 3.5c26 0 47.5 -7 64.5 -21s25.5 -31.667 25.5 -53c0 -19.333 -5.66699 -37.833 -17 -55.5s-26.5 -33.167 -45.5 -46.5s-41.167 -24 -66.5 -32s-52 -12 -80 -12c-29.333 0 -52.666 3.33301 -69.999 10
s-30.666 13 -39.999 19l16 24c6 -4 16.333 -9 31 -15s33.667 -9 57 -9c18 0 34.667 2.5 50 7.5s28.666 12.167 39.999 21.5s20.333 20.5 27 33.5s10 27.167 10 42.5c0 19.333 -5.16699 33.5 -15.5 42.5s-22.166 13.5 -35.499 13.5c-14.667 0 -27.5 -2.66699 -38.5 -8
s-22.5 -13.666 -34.5 -24.999h-27l104 147h27z" />
    <glyph glyph-name="onesuperior" unicode="&#xb9;" horiz-adv-x="438" 
d="M166 422h-105l295 690l-291 -295l-29 29l353 359h109z" />
    <glyph glyph-name="ordmasculine" unicode="&#xba;" horiz-adv-x="488" 
d="M608 978c-31.333 -37.333 -59.665 -63.5049 -84.998 -78.5049s-50.666 -23.833 -75.999 -26.5c-14.667 -20 -30.834 -38.5 -48.501 -55.5s-36.5 -31.667 -56.5 -44s-40.667 -22.166 -62 -29.499s-43.333 -11 -66 -11c-18 0 -35.5 2.83301 -52.5 8.5
s-32.167 14.167 -45.5 25.5s-24 25.5 -32 42.5s-12 37.167 -12 60.5c0 36.667 7 72.334 21 107.001s33.667 67.334 59 98.001s55.666 58.334 90.999 83.001s74.666 45 117.999 61l13 -16c-37.333 -30 -69.333 -61.667 -96 -95s-48.667 -66.5 -66 -99.5s-30 -65.333 -38 -97
s-12 -60.5 -12 -86.5c0 -17.333 2.33301 -31.333 7 -42s15 -16 31 -16c10 0 21.167 3.16699 33.5 9.5s25 15 38 26s26.333 23.833 40 38.5s27.167 30.667 40.5 48c-21.333 12 -36.666 28.667 -45.999 50s-14 44.333 -14 69c0 24 4.66699 47.167 14 69.5
s21.166 42.166 35.499 59.499s30.333 31.333 48 42s34.5 16 50.5 16c8.66699 0 18.167 -1.83301 28.5 -5.5s19.833 -9.66699 28.5 -18s16 -19.666 22 -33.999s9 -32.166 9 -53.499c0 -26.667 -5 -55 -15 -85s-23.667 -59.667 -41 -89c15.333 3.33301 31.833 11.5 49.5 24.5
s39.167 34.5 64.5 64.5zM329.001 1010c0 -45.333 14.668 -76 44.001 -92c23.333 34 42.666 69.333 57.999 106s23 69.667 23 99c0 11.333 -2.66699 19.833 -8 25.5s-11 8.5 -17 8.5c-10 0 -20.833 -3.83301 -32.5 -11.5s-22.5 -18.167 -32.5 -31.5s-18.333 -29 -25 -47
s-10 -37 -10 -57zM0.00195312 598.995l24 48h376l-24 -48h-376z" />
    <glyph glyph-name="guillemotright" unicode="&#xbb;" horiz-adv-x="655" 
d="M274 371l-334 -228l45 103l186 125l-77 125l45 102zM479 371l-334 -228l45 103l186 125l-78 125l45 102z" />
    <glyph glyph-name="onequarter" unicode="&#xbc;" horiz-adv-x="1137" 
d="M347 148c49.333 37.333 96.6641 78.333 141.997 123s87.5 89.5 126.5 134.5s74.5 88.833 106.5 131.5l83 114l83 -42c-9.33301 -14 -23.166 -32 -41.499 -54s-39.666 -46.333 -63.999 -73s-51.166 -54.5 -80.499 -83.5s-59.666 -57.5 -90.999 -85.5s-63 -54.5 -95 -79.5
s-63 -46.5 -93 -64.5c19.333 7.33301 36.166 11.666 50.499 12.999s26.166 2 35.499 2c30 0 59.167 -2.83301 87.5 -8.5s56.5 -10.167 84.5 -13.5l126 297h93l-126 -298c16.667 1.33301 32 3 46 5s25.667 5 35 9l-10 -36c-15.333 -5.33301 -30.166 -10.166 -44.499 -14.499
s-29.5 -7.83301 -45.5 -10.5l-48 -114h-94l45 108c-35.333 0.666992 -69.833 4.66699 -103.5 12s-66.5 11 -98.5 11h-48c-15.333 0 -31 -3.66699 -47 -11zM83.998 0h-84l853 1219h84zM209.998 577h-94l229 535l-220 -222l-29 27l283 288h98z" />
    <glyph glyph-name="onehalf" unicode="&#xbd;" horiz-adv-x="1227" 
d="M210 577h-94l229 535l-220 -222l-29 27l283 288h98zM84 0h-84l853 1219h84zM576 305c-6 20 -9.00195 39.3359 -9.00195 58.0029c0 34 7.5 67.333 22.5 100s35.667 61.667 62 87s57.166 45.666 92.499 60.999s73 23 113 23c26.667 0 50.5 -3.83301 71.5 -11.5
s38.833 -18 53.5 -31s25.834 -28 33.501 -45s11.5 -35.167 11.5 -54.5c0 -34.667 -6.66699 -65.667 -20 -93s-31.333 -52.5 -54 -75.5s-49.334 -44.667 -80.001 -65s-63.5 -40.5 -98.5 -60.5l-109 -62c-37.667 -21.333 -74.834 -44.666 -111.501 -69.999
c11.333 5.33301 21.5 8.5 30.5 9.5s17.5 1.5 25.5 1.5c10 0 19.333 -0.333008 28 -1l25.5 -2c8.33301 -0.666992 17.333 -1.33398 27 -2.00098s20.834 -1 33.501 -1c26.667 0 49.834 3.83301 69.501 11.5s36.167 17.167 49.5 28.5l26 -14l-96 -108
c-43.333 5.33301 -86.5 11.166 -129.5 17.499s-88.5 9.5 -136.5 9.5c-15.333 0 -31.166 -2.16699 -47.499 -6.5s-31.166 -11.5 -44.499 -21.5l-19 23c44 32.667 87.667 62.667 131 90l123.5 78.5l109 73c33.667 23.667 62.667 48 87 73s43.5 51.333 57.5 79
s21 57.834 21 90.501c0 11.333 -1.33301 22.833 -4 34.5s-7.5 22.167 -14.5 31.5s-16.5 17 -28.5 23s-27 9 -45 9c-28 0 -53.5 -5.16699 -76.5 -15.5s-42.833 -23.833 -59.5 -40.5s-29.5 -35.834 -38.5 -57.501s-13.5 -43.834 -13.5 -66.501c0 -12 1.66699 -23.333 5 -34
s8 -21 14 -31z" />
    <glyph glyph-name="threequarters" unicode="&#xbe;" horiz-adv-x="1218" 
d="M428 148c49.333 37.333 96.6641 78.333 141.997 123s87.5 89.5 126.5 134.5s74.5 88.833 106.5 131.5l83 114l83 -42c-9.33301 -14 -23.166 -32 -41.499 -54s-39.666 -46.333 -63.999 -73s-51.166 -54.5 -80.499 -83.5s-59.666 -57.5 -90.999 -85.5s-63 -54.5 -95 -79.5
s-63 -46.5 -93 -64.5c19.333 7.33301 36.166 11.666 50.499 12.999s26.166 2 35.499 2c30 0 59.167 -2.83301 87.5 -8.5s56.5 -10.167 84.5 -13.5l126 297h93l-126 -298c16.667 1.33301 32 3 46 5s25.667 5 35 9l-10 -36c-15.333 -5.33301 -30.166 -10.166 -44.499 -14.499
s-29.5 -7.83301 -45.5 -10.5l-48 -114h-94l45 108c-35.333 0.666992 -69.833 4.66699 -103.5 12s-66.5 11 -98.5 11h-48c-15.333 0 -31 -3.66699 -47 -11zM164.998 0h-84l853 1219h84zM39.998 560c40 10.667 78.501 24.8369 115.501 42.5039s69.667 38.167 98 61.5
s51 49.333 68 78s25.5 59.667 25.5 93c0 11.333 -1.33301 23.333 -4 36s-7.5 24.5 -14.5 35.5s-16.333 20 -28 27s-26.5 10.5 -44.5 10.5c-10.667 0 -21.167 -1 -31.5 -3s-20.166 -4.66699 -29.499 -8l-9 32c7.33301 3.33301 14.833 6.16602 22.5 8.49902
s15.5 4.16602 23.5 5.49902h1c1.33301 0 2.16602 0.166992 2.49902 0.5s1.16602 0.5 2.49902 0.5c17.333 4 35.5 10.167 54.5 18.5s36.5 19 52.5 32s29.167 28 39.5 45s15.5 36.167 15.5 57.5s-5.66699 35.833 -17 43.5s-25.333 11.5 -42 11.5
c-16 0 -30.667 -3.16699 -44 -9.5s-25.666 -15 -36.999 -26s-21.333 -23.667 -30 -38s-16.334 -29.5 -23.001 -45.5l-52 66c37.333 32 72.166 54 104.499 66s63.5 18 93.5 18c44 0 79.5 -7.83301 106.5 -23.5s40.5 -37.834 40.5 -66.501c0 -20 -5.33301 -38 -16 -54
s-24.667 -30.167 -42 -42.5s-37.166 -22.833 -59.499 -31.5s-44.833 -15.667 -67.5 -21c46 -7.33301 80.667 -24 104 -50s35 -56 35 -90c0 -43.333 -12.833 -81.833 -38.5 -115.5s-58.334 -63.334 -98.001 -89.001s-83.167 -47.167 -130.5 -64.5s-92.666 -31 -135.999 -41z
" />
    <glyph glyph-name="questiondown" unicode="&#xbf;" horiz-adv-x="840" 
d="M542 812c0 20 7.16699 37.167 21.5 51.5s31.833 21.5 52.5 21.5c19.333 0 36.166 -7.16699 50.499 -21.5s21.5 -31.5 21.5 -51.5c0 -19.333 -7.16699 -36.166 -21.5 -50.499s-31.166 -21.5 -50.499 -21.5c-20.667 0 -38.167 7.16699 -52.5 21.5
s-21.5 31.166 -21.5 50.499zM606 676c-20 -52.667 -43.5039 -101.167 -70.5039 -145.5s-56 -86.333 -87 -126s-62.833 -77.5 -95.5 -113.5l-95.5 -106.5c-31 -35 -60.5 -70 -88.5 -105s-52.333 -71.667 -73 -110s-37.167 -78.833 -49.5 -121.5s-18.5 -88.667 -18.5 -138
c0 -24.667 3.16699 -48.667 9.5 -72s15.833 -44 28.5 -62s28.334 -32.5 47.001 -43.5s40.667 -16.5 66 -16.5c38 0 75 8.66699 111 26s67.833 40.5 95.5 69.5s49.834 61.833 66.501 98.5s25 74.667 25 114c0 41.333 -11.333 74 -34 98s-55 36 -97 36
c-17.333 0 -32.333 -2.33301 -45 -7s-23.667 -10 -33 -16s-17 -12.167 -23 -18.5l-13 -13.5l-13 26c14 16 29.333 29.333 46 40s33.5 19.334 50.5 26.001s33.333 11.5 49 14.5s29.5 4.5 41.5 4.5c22.667 0 44.834 -3.5 66.501 -10.5s40.834 -17.5 57.501 -31.5
s30 -31.333 40 -52s15 -44.334 15 -71.001c0 -34 -6.16699 -66.667 -18.5 -98s-29.166 -60.833 -50.499 -88.5s-46.166 -52.834 -74.499 -75.501s-58.833 -42 -91.5 -58s-66.334 -28.5 -101.001 -37.5s-68.667 -13.5 -102 -13.5c-36 0 -69.167 6 -99.5 18
s-56.5 28.667 -78.5 50s-39.167 46.5 -51.5 75.5s-18.5 60.833 -18.5 95.5c0 50 7.83301 97 23.5 141s36.667 86.167 63 126.5s56.833 79 91.5 116s71 73.667 109 110l114.5 108.5c38.333 36 74.5 72.833 108.5 110.5s64.667 76.834 92 117.501s48.666 83.667 63.999 129h41
z" />
    <glyph glyph-name="Agrave" unicode="&#xc0;" horiz-adv-x="1471" 
d="M1214 534l100.995 -0.000976562l-43 -92h-96l-186 -442h-133l185 442h-435l-7.5 -14.5l-7.5 -13.5c-51.333 -92.667 -101.666 -167.167 -150.999 -223.5s-96.666 -100 -141.999 -131s-88 -51.667 -128 -62s-76.667 -15.5 -110 -15.5c-28.667 0 -55.167 4.5 -79.5 13.5
s-45.5 21.667 -63.5 38s-32.167 36.5 -42.5 60.5s-15.5 51 -15.5 81c0 56.667 14.833 107.334 44.5 152.001s70.834 82.334 123.501 113.001s115.5 54 188.5 70s152.833 24 239.5 24h65c72 122.667 137.667 230 197 322s114 171.333 164 238s95.833 122 137.5 166
s80.834 78.833 117.501 104.5s71.5 43.667 104.5 54s65.5 15.5 97.5 15.5c42 0 75.333 -12.5 100 -37.5s37 -64.833 37 -119.5c0 -38.667 -6.66699 -84.334 -20 -137.001s-34.666 -114 -63.999 -184zM1328 1397c-22 0 -43.332 -2.83203 -63.999 -8.49902
s-43.334 -18.167 -68.001 -37.5s-52.5 -47.833 -83.5 -85.5s-67.667 -88.5 -110 -152.5s-91.5 -143.167 -147.5 -237.5l-196 -341.5h421l177 422c38.667 93.333 69.5 170.833 92.5 232.5s34.5 110.167 34.5 145.5c0 21.333 -4.33301 37.166 -13 47.499s-23 15.5 -43 15.5z
M68.9961 32c44 0 83.5 10.8369 118.5 32.5039s67.333 50.167 97 85.5s57.667 75.333 84 120l78.5 136l21 36h-59c-95.333 0 -175 -7.5 -239 -22.5s-115.333 -34.833 -154 -59.5s-66.167 -52.834 -82.5 -84.501s-24.5 -63.834 -24.5 -96.501
c0 -18.667 2.83301 -36.834 8.5 -54.501s14.834 -33.334 27.501 -47.001s29.167 -24.667 49.5 -33s45.166 -12.5 74.499 -12.5zM1390 1536l-90 194h125l-2 -194h-33z" />
    <glyph glyph-name="Aacute" unicode="&#xc1;" horiz-adv-x="1471" 
d="M1214 534l100.995 -0.000976562l-43 -92h-96l-186 -442h-133l185 442h-435l-7.5 -14.5l-7.5 -13.5c-51.333 -92.667 -101.666 -167.167 -150.999 -223.5s-96.666 -100 -141.999 -131s-88 -51.667 -128 -62s-76.667 -15.5 -110 -15.5c-28.667 0 -55.167 4.5 -79.5 13.5
s-45.5 21.667 -63.5 38s-32.167 36.5 -42.5 60.5s-15.5 51 -15.5 81c0 56.667 14.833 107.334 44.5 152.001s70.834 82.334 123.501 113.001s115.5 54 188.5 70s152.833 24 239.5 24h65c72 122.667 137.667 230 197 322s114 171.333 164 238s95.833 122 137.5 166
s80.834 78.833 117.501 104.5s71.5 43.667 104.5 54s65.5 15.5 97.5 15.5c42 0 75.333 -12.5 100 -37.5s37 -64.833 37 -119.5c0 -38.667 -6.66699 -84.334 -20 -137.001s-34.666 -114 -63.999 -184zM1328 1397c-22 0 -43.332 -2.83203 -63.999 -8.49902
s-43.334 -18.167 -68.001 -37.5s-52.5 -47.833 -83.5 -85.5s-67.667 -88.5 -110 -152.5s-91.5 -143.167 -147.5 -237.5l-196 -341.5h421l177 422c38.667 93.333 69.5 170.833 92.5 232.5s34.5 110.167 34.5 145.5c0 21.333 -4.33301 37.166 -13 47.499s-23 15.5 -43 15.5z
M68.9961 32c44 0 83.5 10.8369 118.5 32.5039s67.333 50.167 97 85.5s57.667 75.333 84 120l78.5 136l21 36h-59c-95.333 0 -175 -7.5 -239 -22.5s-115.333 -34.833 -154 -59.5s-66.167 -52.834 -82.5 -84.501s-24.5 -63.834 -24.5 -96.501
c0 -18.667 2.83301 -36.834 8.5 -54.501s14.834 -33.334 27.501 -47.001s29.167 -24.667 49.5 -33s45.166 -12.5 74.499 -12.5zM1307 1536h-49l144 194h145z" />
    <glyph glyph-name="Acircumflex" unicode="&#xc2;" horiz-adv-x="1471" 
d="M1214 534l100.995 -0.000976562l-43 -92h-96l-186 -442h-133l185 442h-435l-7.5 -14.5l-7.5 -13.5c-51.333 -92.667 -101.666 -167.167 -150.999 -223.5s-96.666 -100 -141.999 -131s-88 -51.667 -128 -62s-76.667 -15.5 -110 -15.5c-28.667 0 -55.167 4.5 -79.5 13.5
s-45.5 21.667 -63.5 38s-32.167 36.5 -42.5 60.5s-15.5 51 -15.5 81c0 56.667 14.833 107.334 44.5 152.001s70.834 82.334 123.501 113.001s115.5 54 188.5 70s152.833 24 239.5 24h65c72 122.667 137.667 230 197 322s114 171.333 164 238s95.833 122 137.5 166
s80.834 78.833 117.501 104.5s71.5 43.667 104.5 54s65.5 15.5 97.5 15.5c42 0 75.333 -12.5 100 -37.5s37 -64.833 37 -119.5c0 -38.667 -6.66699 -84.334 -20 -137.001s-34.666 -114 -63.999 -184zM1328 1397c-22 0 -43.332 -2.83203 -63.999 -8.49902
s-43.334 -18.167 -68.001 -37.5s-52.5 -47.833 -83.5 -85.5s-67.667 -88.5 -110 -152.5s-91.5 -143.167 -147.5 -237.5l-196 -341.5h421l177 422c38.667 93.333 69.5 170.833 92.5 232.5s34.5 110.167 34.5 145.5c0 21.333 -4.33301 37.166 -13 47.499s-23 15.5 -43 15.5z
M68.9961 32c44 0 83.5 10.8369 118.5 32.5039s67.333 50.167 97 85.5s57.667 75.333 84 120l78.5 136l21 36h-59c-95.333 0 -175 -7.5 -239 -22.5s-115.333 -34.833 -154 -59.5s-66.167 -52.834 -82.5 -84.501s-24.5 -63.834 -24.5 -96.501
c0 -18.667 2.83301 -36.834 8.5 -54.501s14.834 -33.334 27.501 -47.001s29.167 -24.667 49.5 -33s45.166 -12.5 74.499 -12.5zM1439 1536l-34 132l-145 -132h-75l205 192h91l59 -192h-101z" />
    <glyph glyph-name="Atilde" unicode="&#xc3;" horiz-adv-x="1471" 
d="M1214 534l100.995 -0.000976562l-43 -92h-96l-186 -442h-133l185 442h-435l-7.5 -14.5l-7.5 -13.5c-51.333 -92.667 -101.666 -167.167 -150.999 -223.5s-96.666 -100 -141.999 -131s-88 -51.667 -128 -62s-76.667 -15.5 -110 -15.5c-28.667 0 -55.167 4.5 -79.5 13.5
s-45.5 21.667 -63.5 38s-32.167 36.5 -42.5 60.5s-15.5 51 -15.5 81c0 56.667 14.833 107.334 44.5 152.001s70.834 82.334 123.501 113.001s115.5 54 188.5 70s152.833 24 239.5 24h65c72 122.667 137.667 230 197 322s114 171.333 164 238s95.833 122 137.5 166
s80.834 78.833 117.501 104.5s71.5 43.667 104.5 54s65.5 15.5 97.5 15.5c42 0 75.333 -12.5 100 -37.5s37 -64.833 37 -119.5c0 -38.667 -6.66699 -84.334 -20 -137.001s-34.666 -114 -63.999 -184zM1328 1397c-22 0 -43.332 -2.83203 -63.999 -8.49902
s-43.334 -18.167 -68.001 -37.5s-52.5 -47.833 -83.5 -85.5s-67.667 -88.5 -110 -152.5s-91.5 -143.167 -147.5 -237.5l-196 -341.5h421l177 422c38.667 93.333 69.5 170.833 92.5 232.5s34.5 110.167 34.5 145.5c0 21.333 -4.33301 37.166 -13 47.499s-23 15.5 -43 15.5z
M68.9961 32c44 0 83.5 10.8369 118.5 32.5039s67.333 50.167 97 85.5s57.667 75.333 84 120l78.5 136l21 36h-59c-95.333 0 -175 -7.5 -239 -22.5s-115.333 -34.833 -154 -59.5s-66.167 -52.834 -82.5 -84.501s-24.5 -63.834 -24.5 -96.501
c0 -18.667 2.83301 -36.834 8.5 -54.501s14.834 -33.334 27.501 -47.001s29.167 -24.667 49.5 -33s45.166 -12.5 74.499 -12.5zM1610 1719c-26 -58.667 -51 -101.167 -75 -127.5s-51.667 -39.5 -83 -39.5c-16 0 -30.167 4.33301 -42.5 13s-23.833 18.167 -34.5 28.5
l-30.5 28.5c-9.66699 8.66699 -20.5 13 -32.5 13c-7.33301 0 -14.166 -1.16699 -20.499 -3.5s-12.833 -6.66602 -19.5 -12.999s-13.5 -14.833 -20.5 -25.5s-14.833 -24.334 -23.5 -41.001h-53c25.333 60 49.5 102.833 72.5 128.5s48.5 38.5 76.5 38.5
c16 0 29.667 -4.33301 41 -13s22.166 -18.167 32.499 -28.5s20.833 -19.833 31.5 -28.5s22.667 -13 36 -13c6.66699 0 13.5 1 20.5 3s14.333 6 22 12s15.5 14.333 23.5 25s16.667 25 26 43h53v0z" />
    <glyph glyph-name="Adieresis" unicode="&#xc4;" horiz-adv-x="1471" 
d="M1214 534l100.995 -0.000976562l-43 -92h-96l-186 -442h-133l185 442h-435l-7.5 -14.5l-7.5 -13.5c-51.333 -92.667 -101.666 -167.167 -150.999 -223.5s-96.666 -100 -141.999 -131s-88 -51.667 -128 -62s-76.667 -15.5 -110 -15.5c-28.667 0 -55.167 4.5 -79.5 13.5
s-45.5 21.667 -63.5 38s-32.167 36.5 -42.5 60.5s-15.5 51 -15.5 81c0 56.667 14.833 107.334 44.5 152.001s70.834 82.334 123.501 113.001s115.5 54 188.5 70s152.833 24 239.5 24h65c72 122.667 137.667 230 197 322s114 171.333 164 238s95.833 122 137.5 166
s80.834 78.833 117.501 104.5s71.5 43.667 104.5 54s65.5 15.5 97.5 15.5c42 0 75.333 -12.5 100 -37.5s37 -64.833 37 -119.5c0 -38.667 -6.66699 -84.334 -20 -137.001s-34.666 -114 -63.999 -184zM1328 1397c-22 0 -43.332 -2.83203 -63.999 -8.49902
s-43.334 -18.167 -68.001 -37.5s-52.5 -47.833 -83.5 -85.5s-67.667 -88.5 -110 -152.5s-91.5 -143.167 -147.5 -237.5l-196 -341.5h421l177 422c38.667 93.333 69.5 170.833 92.5 232.5s34.5 110.167 34.5 145.5c0 21.333 -4.33301 37.166 -13 47.499s-23 15.5 -43 15.5z
M68.9961 32c44 0 83.5 10.8369 118.5 32.5039s67.333 50.167 97 85.5s57.667 75.333 84 120l78.5 136l21 36h-59c-95.333 0 -175 -7.5 -239 -22.5s-115.333 -34.833 -154 -59.5s-66.167 -52.834 -82.5 -84.501s-24.5 -63.834 -24.5 -96.501
c0 -18.667 2.83301 -36.834 8.5 -54.501s14.834 -33.334 27.501 -47.001s29.167 -24.667 49.5 -33s45.166 -12.5 74.499 -12.5zM1562 1631c0 -19.333 -7.16699 -36.166 -21.5 -50.499s-31.166 -21.5 -50.499 -21.5c-20.667 0 -38 7.16699 -52 21.5s-21 31.166 -21 50.499
c0 20.667 7 38.167 21 52.5s31.333 21.5 52 21.5c19.333 0 36.166 -7.16699 50.499 -21.5s21.5 -31.833 21.5 -52.5zM1349 1631c0 -19.333 -7.16699 -36.166 -21.5 -50.499s-31.833 -21.5 -52.5 -21.5c-19.333 0 -36 7.16699 -50 21.5s-21 31.166 -21 50.499
c0 20.667 7 38.167 21 52.5s30.667 21.5 50 21.5c20.667 0 38.167 -7.16699 52.5 -21.5s21.5 -31.833 21.5 -52.5z" />
    <glyph glyph-name="Aring" unicode="&#xc5;" horiz-adv-x="1471" 
d="M1214 534l100.995 -0.000976562l-43 -92h-96l-186 -442h-133l185 442h-435l-7.5 -14.5l-7.5 -13.5c-51.333 -92.667 -101.666 -167.167 -150.999 -223.5s-96.666 -100 -141.999 -131s-88 -51.667 -128 -62s-76.667 -15.5 -110 -15.5c-28.667 0 -55.167 4.5 -79.5 13.5
s-45.5 21.667 -63.5 38s-32.167 36.5 -42.5 60.5s-15.5 51 -15.5 81c0 56.667 14.833 107.334 44.5 152.001s70.834 82.334 123.501 113.001s115.5 54 188.5 70s152.833 24 239.5 24h65c72 122.667 137.667 230 197 322s114 171.333 164 238s95.833 122 137.5 166
s80.834 78.833 117.501 104.5s71.5 43.667 104.5 54s65.5 15.5 97.5 15.5c42 0 75.333 -12.5 100 -37.5s37 -64.833 37 -119.5c0 -38.667 -6.66699 -84.334 -20 -137.001s-34.666 -114 -63.999 -184zM1328 1397c-22 0 -43.332 -2.83203 -63.999 -8.49902
s-43.334 -18.167 -68.001 -37.5s-52.5 -47.833 -83.5 -85.5s-67.667 -88.5 -110 -152.5s-91.5 -143.167 -147.5 -237.5l-196 -341.5h421l177 422c38.667 93.333 69.5 170.833 92.5 232.5s34.5 110.167 34.5 145.5c0 21.333 -4.33301 37.166 -13 47.499s-23 15.5 -43 15.5z
M68.9961 32c44 0 83.5 10.8369 118.5 32.5039s67.333 50.167 97 85.5s57.667 75.333 84 120l78.5 136l21 36h-59c-95.333 0 -175 -7.5 -239 -22.5s-115.333 -34.833 -154 -59.5s-66.167 -52.834 -82.5 -84.501s-24.5 -63.834 -24.5 -96.501
c0 -18.667 2.83301 -36.834 8.5 -54.501s14.834 -33.334 27.501 -47.001s29.167 -24.667 49.5 -33s45.166 -12.5 74.499 -12.5zM1445 1840c36 0 65.5 -10.168 88.5 -30.501s34.5 -47.166 34.5 -80.499c0 -31.333 -7 -60 -21 -86s-31.667 -48.333 -53 -67
s-44.833 -33.334 -70.5 -44.001s-50.5 -16 -74.5 -16c-36 0 -64.833 10.167 -86.5 30.5s-32.5 46.5 -32.5 78.5c0 28.667 6.33301 56 19 82s29.167 48.833 49.5 68.5s43.333 35.334 69 47.001s51.5 17.5 77.5 17.5zM1442 1806c-21.333 0 -40.5 -6.33496 -57.5 -19.002
s-31.5 -28.5 -43.5 -47.5s-21.333 -39.5 -28 -61.5s-10 -42 -10 -60c0 -22.667 4.5 -39.667 13.5 -51s21.5 -17 37.5 -17c20.667 0 39.5 6.33301 56.5 19s31.833 28.334 44.5 47.001s22.5 38.834 29.5 60.501s10.5 41.5 10.5 59.5c0 22 -4.66699 39.167 -14 51.5
s-22.333 18.5 -39 18.5z" />
    <glyph glyph-name="AE" unicode="&#xc6;" horiz-adv-x="1900" 
d="M-140 175c0 56.667 14.8311 107.333 44.498 152s70.834 82.334 123.501 113.001s115.5 54 188.5 70s152.833 24 239.5 24h65c72 122.667 137.667 230 197 322s114 171.333 164 238s95.833 122 137.5 166s80.834 78.833 117.501 104.5s71.5 43.667 104.5 54
s65.5 15.5 97.5 15.5c42 0 75.333 -12.5 100 -37.5s37 -64.833 37 -119.5c0 -9.33301 -0.5 -18.833 -1.5 -28.5s-2.16699 -19.834 -3.5 -30.501c18 30 38.5 58.167 61.5 84.5s48.167 49.333 75.5 69s56.333 35.167 87 46.5s62.667 17 96 17
c34.667 0 63.167 -11.5 85.5 -34.5s33.5 -52.5 33.5 -88.5c0 -30 -9.33301 -58.833 -28 -86.5s-45.5 -53.667 -80.5 -78s-77.333 -47 -127 -68s-105.5 -39.5 -167.5 -55.5c3.33301 -16.667 7.5 -32 12.5 -46l15 -41c5 -13.333 9.33301 -26.5 13 -39.5s5.5 -26.833 5.5 -41.5
c0 -41.333 -10 -76 -30 -104s-45 -53.167 -75 -75.5s-62.5 -43.833 -97.5 -64.5s-67.5 -44.5 -97.5 -71.5s-55 -59.333 -75 -97s-30 -84.5 -30 -140.5c0 -44 8.16699 -82.333 24.5 -115s37.5 -60 63.5 -82s54.833 -38.333 86.5 -49s62.5 -16 92.5 -16
c20 0 41.833 1.16699 65.5 3.5s50.167 8.66602 79.5 18.999s61.666 25.833 96.999 46.5s74 49.334 116 86.001l26 -32c-45.333 -38 -87.333 -68.833 -126 -92.5s-75.5 -42.167 -110.5 -55.5s-69 -22.333 -102 -27s-66.5 -7 -100.5 -7c-34.667 0 -67.834 3.16699 -99.501 9.5
s-61 16 -88 29s-51.167 29 -72.5 48s-39 41.167 -53 66.5l-57 -135h-133l185 442h-435l-7.5 -14.5l-7.5 -13.5c-51.333 -92.667 -101.666 -167.167 -150.999 -223.5s-96.666 -100 -141.999 -131s-88 -51.667 -128 -62s-76.667 -15.5 -110 -15.5
c-28.667 0 -55.167 4.5 -79.5 13.5s-45.5 21.667 -63.5 38s-32.167 36.5 -42.5 60.5s-15.5 51 -15.5 81zM1328 1397c-22 0 -43.332 -2.83203 -63.999 -8.49902s-43.334 -18.167 -68.001 -37.5s-52.5 -47.833 -83.5 -85.5s-67.667 -88.5 -110 -152.5
s-91.5 -143.167 -147.5 -237.5l-196 -341.5h421l177 422c38.667 93.333 69.5 170.833 92.5 232.5s34.5 110.167 34.5 145.5c0 21.333 -4.33301 37.166 -13 47.499s-23 15.5 -43 15.5zM68.999 32c44 0 83.5 10.8369 118.5 32.5039s67.333 50.167 97 85.5
s57.667 75.333 84 120l78.5 136l21 36h-59c-95.333 0 -175 -7.5 -239 -22.5s-115.333 -34.833 -154 -59.5s-66.167 -52.834 -82.5 -84.501s-24.5 -63.834 -24.5 -96.501c0 -18.667 2.83301 -36.834 8.5 -54.501s14.834 -33.334 27.501 -47.001s29.167 -24.667 49.5 -33
s45.166 -12.5 74.499 -12.5zM1503 1066c98.667 26 174.999 59.999 228.999 101.999s81 91.667 81 149c0 25.333 -6 43.833 -18 55.5s-29 17.5 -51 17.5c-20 0 -43.667 -7.5 -71 -22.5s-53.666 -36.167 -78.999 -63.5s-46.833 -60.666 -64.5 -99.999
s-26.5 -83.333 -26.5 -132v-6zM1250 618.003l69.5 43.501c22.333 13.667 42 27.5 59 41.5s30.667 28.333 41 43s15.5 30.667 15.5 48c0 8.66699 -1.83301 18.5 -5.5 29.5s-7.66699 23.667 -12 38s-8.5 30.5 -12.5 48.5s-6 39 -6 63l-3.5 -9
c-1 -2.66699 -2.16699 -5.33398 -3.5 -8.00098z" />
    <glyph glyph-name="Ccedilla" unicode="&#xc7;" horiz-adv-x="1054" 
d="M791 764c75.333 36 134.336 89.999 177.003 161.999s64 156.333 64 253c0 31.333 -3.5 60.333 -10.5 87s-17.5 49.667 -31.5 69s-31.333 34.5 -52 45.5s-44.334 16.5 -71.001 16.5c-42.667 0 -85.334 -9 -128.001 -27s-84.667 -43 -126 -75
s-81.166 -69.833 -119.499 -113.5s-74.333 -91.167 -108 -142.5s-64.5 -105.333 -92.5 -162s-52 -114 -72 -172s-35.5 -115.333 -46.5 -172s-16.5 -111 -16.5 -163c0 -57.333 6 -106.333 18 -147s28.667 -74.334 50 -101.001s46.666 -46.167 75.999 -58.5
s61.666 -18.5 96.999 -18.5c6.66699 0 20.5 0.833008 41.5 2.5s46.667 7.16699 77 16.5s64.166 23.666 101.499 42.999s75.666 47 114.999 83l25 -36c-42.667 -41.333 -85.167 -73.666 -127.5 -96.999s-81.333 -40.5 -117 -51.5s-66.667 -17.667 -93 -20
s-44.5 -3.5 -54.5 -3.5c-6 0 -12.167 0.166992 -18.5 0.5s-12.5 0.833008 -18.5 1.5l-52 -75c11.333 6.66699 25 11.167 41 13.5s31.667 3.5 47 3.5c26 0 47.5 -7 64.5 -21s25.5 -31.667 25.5 -53c0 -19.333 -5.66699 -37.833 -17 -55.5s-26.5 -33.167 -45.5 -46.5
s-41.167 -24 -66.5 -32s-52 -12 -80 -12c-29.333 0 -52.666 3.33301 -69.999 10s-30.666 13 -39.999 19l16 24c6 -4 16.333 -9 31 -15s33.667 -9 57 -9c18 0 34.667 2.5 50 7.5s28.666 12.167 39.999 21.5s20.333 20.5 27 33.5s10 27.167 10 42.5
c0 19.333 -5.16699 33.5 -15.5 42.5s-22.166 13.5 -35.499 13.5c-14.667 0 -27.5 -2.66699 -38.5 -8s-22.5 -13.666 -34.5 -24.999h-27l87 124c-34 5.33301 -68 16 -102 32s-64.833 38.833 -92.5 68.5s-50.167 67 -67.5 112s-26 99.5 -26 163.5c0 70 7.5 139 22.5 207
s36 133.667 63 197s58.667 123.833 95 181.5s75.666 111.167 117.999 160.5s86.833 94 133.5 134s93.334 74.167 140.001 102.5s92.667 50.166 138 65.499s88 23 128 23c42.667 0 81.667 -6.33301 117 -19s65.833 -30.667 91.5 -54s45.667 -51.166 60 -83.499
s21.5 -68.166 21.5 -107.499c0 -44 -9 -88.5 -27 -133.5s-42.333 -87 -73 -126s-66.167 -73.833 -106.5 -104.5s-82.5 -53.667 -126.5 -69z" />
    <glyph glyph-name="Egrave" unicode="&#xc8;" horiz-adv-x="837" 
d="M165 1020c62.667 6 121.668 13.9961 177.001 23.9961c8 45.333 23.5 91.166 46.5 137.499s51.5 88.333 85.5 126s72.667 68.334 116 92.001s89.333 35.5 138 35.5c34.667 0 63.167 -11.5 85.5 -34.5s33.5 -52.5 33.5 -88.5c0 -30 -9.33301 -58.833 -28 -86.5
s-45.5 -53.667 -80.5 -78s-77.333 -47 -127 -68s-105.5 -39.5 -167.5 -55.5c2.66699 -16 6.66699 -31.167 12 -45.5l15.5 -41.5c5 -13.333 9.33301 -26.5 13 -39.5s5.5 -26.833 5.5 -41.5c0 -41.333 -10 -76 -30 -104s-45 -53.167 -75 -75.5s-62.5 -43.833 -97.5 -64.5
s-67.5 -44.5 -97.5 -71.5s-55 -59.333 -75 -97s-30 -84.5 -30 -140.5c0 -44 8.16699 -82.333 24.5 -115s37.5 -60 63.5 -82s54.833 -38.333 86.5 -49s62.5 -16 92.5 -16c20 0 41.833 1.16699 65.5 3.5s50.167 8.66602 79.5 18.999s61.666 25.833 96.999 46.5
s74 49.334 116 86.001l26 -32c-45.333 -38 -87.333 -68.833 -126 -92.5s-75.5 -42.167 -110.5 -55.5s-69 -22.333 -102 -27s-66.5 -7 -100.5 -7c-48 0 -93.167 6.33301 -135.5 19s-79.166 31.334 -110.499 56.001s-56.166 55.334 -74.499 92.001s-27.5 79 -27.5 127
c0 54.667 10.5 102 31.5 142s47.167 74.833 78.5 104.5s65.166 55.834 101.499 78.501l101.5 64.5c31.333 20.333 57.5 40.5 78.5 60.5s31.5 42.667 31.5 68c0 9.33301 -1.83301 19.5 -5.5 30.5l-12.5 38.5c-4.66699 14.667 -8.83398 31.334 -12.501 50.001
s-5.5 40.334 -5.5 65.001v10.5c0 3.66699 0.333008 7.5 1 11.5c-23.333 -4.66699 -47.333 -8.83398 -72 -12.501s-49.667 -7.16699 -75 -10.5zM440.001 1066c98.667 26 174.999 59.999 228.999 101.999s81 91.667 81 149c0 25.333 -6 43.833 -18 55.5s-29 17.5 -51 17.5
c-20 0 -43.667 -7.5 -71 -22.5s-53.666 -36.167 -78.999 -63.5s-46.833 -60.666 -64.5 -99.999s-26.5 -83.333 -26.5 -132v-6zM727 1535l-90 194h125l-2 -194h-33z" />
    <glyph glyph-name="Eacute" unicode="&#xc9;" horiz-adv-x="837" 
d="M165 1020c62.667 6 121.668 13.9961 177.001 23.9961c8 45.333 23.5 91.166 46.5 137.499s51.5 88.333 85.5 126s72.667 68.334 116 92.001s89.333 35.5 138 35.5c34.667 0 63.167 -11.5 85.5 -34.5s33.5 -52.5 33.5 -88.5c0 -30 -9.33301 -58.833 -28 -86.5
s-45.5 -53.667 -80.5 -78s-77.333 -47 -127 -68s-105.5 -39.5 -167.5 -55.5c2.66699 -16 6.66699 -31.167 12 -45.5l15.5 -41.5c5 -13.333 9.33301 -26.5 13 -39.5s5.5 -26.833 5.5 -41.5c0 -41.333 -10 -76 -30 -104s-45 -53.167 -75 -75.5s-62.5 -43.833 -97.5 -64.5
s-67.5 -44.5 -97.5 -71.5s-55 -59.333 -75 -97s-30 -84.5 -30 -140.5c0 -44 8.16699 -82.333 24.5 -115s37.5 -60 63.5 -82s54.833 -38.333 86.5 -49s62.5 -16 92.5 -16c20 0 41.833 1.16699 65.5 3.5s50.167 8.66602 79.5 18.999s61.666 25.833 96.999 46.5
s74 49.334 116 86.001l26 -32c-45.333 -38 -87.333 -68.833 -126 -92.5s-75.5 -42.167 -110.5 -55.5s-69 -22.333 -102 -27s-66.5 -7 -100.5 -7c-48 0 -93.167 6.33301 -135.5 19s-79.166 31.334 -110.499 56.001s-56.166 55.334 -74.499 92.001s-27.5 79 -27.5 127
c0 54.667 10.5 102 31.5 142s47.167 74.833 78.5 104.5s65.166 55.834 101.499 78.501l101.5 64.5c31.333 20.333 57.5 40.5 78.5 60.5s31.5 42.667 31.5 68c0 9.33301 -1.83301 19.5 -5.5 30.5l-12.5 38.5c-4.66699 14.667 -8.83398 31.334 -12.501 50.001
s-5.5 40.334 -5.5 65.001v10.5c0 3.66699 0.333008 7.5 1 11.5c-23.333 -4.66699 -47.333 -8.83398 -72 -12.501s-49.667 -7.16699 -75 -10.5zM440.001 1066c98.667 26 174.999 59.999 228.999 101.999s81 91.667 81 149c0 25.333 -6 43.833 -18 55.5s-29 17.5 -51 17.5
c-20 0 -43.667 -7.5 -71 -22.5s-53.666 -36.167 -78.999 -63.5s-46.833 -60.666 -64.5 -99.999s-26.5 -83.333 -26.5 -132v-6zM644 1535h-49l144 194h145z" />
    <glyph glyph-name="Ecircumflex" unicode="&#xca;" horiz-adv-x="837" 
d="M165 1020c62.667 6 121.668 13.9961 177.001 23.9961c8 45.333 23.5 91.166 46.5 137.499s51.5 88.333 85.5 126s72.667 68.334 116 92.001s89.333 35.5 138 35.5c34.667 0 63.167 -11.5 85.5 -34.5s33.5 -52.5 33.5 -88.5c0 -30 -9.33301 -58.833 -28 -86.5
s-45.5 -53.667 -80.5 -78s-77.333 -47 -127 -68s-105.5 -39.5 -167.5 -55.5c2.66699 -16 6.66699 -31.167 12 -45.5l15.5 -41.5c5 -13.333 9.33301 -26.5 13 -39.5s5.5 -26.833 5.5 -41.5c0 -41.333 -10 -76 -30 -104s-45 -53.167 -75 -75.5s-62.5 -43.833 -97.5 -64.5
s-67.5 -44.5 -97.5 -71.5s-55 -59.333 -75 -97s-30 -84.5 -30 -140.5c0 -44 8.16699 -82.333 24.5 -115s37.5 -60 63.5 -82s54.833 -38.333 86.5 -49s62.5 -16 92.5 -16c20 0 41.833 1.16699 65.5 3.5s50.167 8.66602 79.5 18.999s61.666 25.833 96.999 46.5
s74 49.334 116 86.001l26 -32c-45.333 -38 -87.333 -68.833 -126 -92.5s-75.5 -42.167 -110.5 -55.5s-69 -22.333 -102 -27s-66.5 -7 -100.5 -7c-48 0 -93.167 6.33301 -135.5 19s-79.166 31.334 -110.499 56.001s-56.166 55.334 -74.499 92.001s-27.5 79 -27.5 127
c0 54.667 10.5 102 31.5 142s47.167 74.833 78.5 104.5s65.166 55.834 101.499 78.501l101.5 64.5c31.333 20.333 57.5 40.5 78.5 60.5s31.5 42.667 31.5 68c0 9.33301 -1.83301 19.5 -5.5 30.5l-12.5 38.5c-4.66699 14.667 -8.83398 31.334 -12.501 50.001
s-5.5 40.334 -5.5 65.001v10.5c0 3.66699 0.333008 7.5 1 11.5c-23.333 -4.66699 -47.333 -8.83398 -72 -12.501s-49.667 -7.16699 -75 -10.5zM440.001 1066c98.667 26 174.999 59.999 228.999 101.999s81 91.667 81 149c0 25.333 -6 43.833 -18 55.5s-29 17.5 -51 17.5
c-20 0 -43.667 -7.5 -71 -22.5s-53.666 -36.167 -78.999 -63.5s-46.833 -60.666 -64.5 -99.999s-26.5 -83.333 -26.5 -132v-6zM776 1535l-34 132l-145 -132h-75l205 192h91l59 -192h-101z" />
    <glyph glyph-name="Edieresis" unicode="&#xcb;" horiz-adv-x="837" 
d="M165 1020c62.667 6 121.668 13.9961 177.001 23.9961c8 45.333 23.5 91.166 46.5 137.499s51.5 88.333 85.5 126s72.667 68.334 116 92.001s89.333 35.5 138 35.5c34.667 0 63.167 -11.5 85.5 -34.5s33.5 -52.5 33.5 -88.5c0 -30 -9.33301 -58.833 -28 -86.5
s-45.5 -53.667 -80.5 -78s-77.333 -47 -127 -68s-105.5 -39.5 -167.5 -55.5c2.66699 -16 6.66699 -31.167 12 -45.5l15.5 -41.5c5 -13.333 9.33301 -26.5 13 -39.5s5.5 -26.833 5.5 -41.5c0 -41.333 -10 -76 -30 -104s-45 -53.167 -75 -75.5s-62.5 -43.833 -97.5 -64.5
s-67.5 -44.5 -97.5 -71.5s-55 -59.333 -75 -97s-30 -84.5 -30 -140.5c0 -44 8.16699 -82.333 24.5 -115s37.5 -60 63.5 -82s54.833 -38.333 86.5 -49s62.5 -16 92.5 -16c20 0 41.833 1.16699 65.5 3.5s50.167 8.66602 79.5 18.999s61.666 25.833 96.999 46.5
s74 49.334 116 86.001l26 -32c-45.333 -38 -87.333 -68.833 -126 -92.5s-75.5 -42.167 -110.5 -55.5s-69 -22.333 -102 -27s-66.5 -7 -100.5 -7c-48 0 -93.167 6.33301 -135.5 19s-79.166 31.334 -110.499 56.001s-56.166 55.334 -74.499 92.001s-27.5 79 -27.5 127
c0 54.667 10.5 102 31.5 142s47.167 74.833 78.5 104.5s65.166 55.834 101.499 78.501l101.5 64.5c31.333 20.333 57.5 40.5 78.5 60.5s31.5 42.667 31.5 68c0 9.33301 -1.83301 19.5 -5.5 30.5l-12.5 38.5c-4.66699 14.667 -8.83398 31.334 -12.501 50.001
s-5.5 40.334 -5.5 65.001v10.5c0 3.66699 0.333008 7.5 1 11.5c-23.333 -4.66699 -47.333 -8.83398 -72 -12.501s-49.667 -7.16699 -75 -10.5zM440.001 1066c98.667 26 174.999 59.999 228.999 101.999s81 91.667 81 149c0 25.333 -6 43.833 -18 55.5s-29 17.5 -51 17.5
c-20 0 -43.667 -7.5 -71 -22.5s-53.666 -36.167 -78.999 -63.5s-46.833 -60.666 -64.5 -99.999s-26.5 -83.333 -26.5 -132v-6zM899 1630c0 -19.333 -7.16699 -36.166 -21.5 -50.499s-31.166 -21.5 -50.499 -21.5c-20.667 0 -38 7.16699 -52 21.5s-21 31.166 -21 50.499
c0 20.667 7 38.167 21 52.5s31.333 21.5 52 21.5c19.333 0 36.166 -7.16699 50.499 -21.5s21.5 -31.833 21.5 -52.5zM686 1630c0 -19.333 -7.16699 -36.166 -21.5 -50.499s-31.833 -21.5 -52.5 -21.5c-19.333 0 -36 7.16699 -50 21.5s-21 31.166 -21 50.499
c0 20.667 7 38.167 21 52.5s30.667 21.5 50 21.5c20.667 0 38.167 -7.16699 52.5 -21.5s21.5 -31.833 21.5 -52.5z" />
    <glyph glyph-name="Igrave" unicode="&#xcc;" horiz-adv-x="914" 
d="M847 635c-36 -40.667 -71.165 -78.502 -105.498 -113.502s-69.5 -65.833 -105.5 -92.5c-27.333 -52 -58.166 -104.5 -92.499 -157.5s-72.5 -101 -114.5 -144s-87.667 -78 -137 -105s-102.333 -40.5 -159 -40.5c-53.333 0 -95.333 14 -126 42s-46.334 64.333 -47.001 109
l98 62c-8.66699 -32 -13 -59.333 -13 -82c0 -31.333 7 -54 21 -68s30.667 -21 50 -21c50.667 0 105.5 26 164.5 78s119.833 132.667 182.5 242c-31.333 -7.33301 -63 -11 -95 -11c-34 0 -68.167 5.66699 -102.5 17s-65.333 28.5 -93 51.5s-50.167 52.333 -67.5 88
s-26 78.167 -26 127.5c0 68 12.667 135.333 38 202s58.5 130.334 99.5 191.001s87.167 116.834 138.5 168.501s102.833 96.5 154.5 134.5s101.167 67.667 148.5 89s87.666 32 120.999 32c32.667 0 60 -17.167 82 -51.5s33 -86.833 33 -157.5
c0 -72.667 -15.333 -164 -46 -274s-80.334 -241.333 -149.001 -394c-4.66699 -9.33301 -9 -19 -13 -29c21.333 20.667 42.5 42.667 63.5 66l65.5 73zM417.002 387.998c25.333 0 51 3.66602 77 10.999c16.667 32 33.334 66 50.001 102l51 115c30 72 58 142.5 84 211.5
s48.667 133.833 68 194.5s34.5 116 45.5 166s16.5 91.667 16.5 125c0 26.667 -4 47.334 -12 62.001s-20.667 22 -38 22c-19.333 0 -46.333 -11 -81 -33s-72.334 -51.833 -113.001 -89.5s-82.167 -81.834 -124.5 -132.501s-80.666 -104.667 -114.999 -162
s-62.333 -116.666 -84 -177.999s-32.5 -121.333 -32.5 -180c0 -38 5.66699 -71.5 17 -100.5s26.5 -53.5 45.5 -73.5s41.167 -35 66.5 -45s51.666 -15 78.999 -15zM776.002 1534l-90 194h125l-2 -194h-33z" />
    <glyph glyph-name="Iacute" unicode="&#xcd;" horiz-adv-x="914" 
d="M847 635c-36 -40.667 -71.165 -78.502 -105.498 -113.502s-69.5 -65.833 -105.5 -92.5c-27.333 -52 -58.166 -104.5 -92.499 -157.5s-72.5 -101 -114.5 -144s-87.667 -78 -137 -105s-102.333 -40.5 -159 -40.5c-53.333 0 -95.333 14 -126 42s-46.334 64.333 -47.001 109
l98 62c-8.66699 -32 -13 -59.333 -13 -82c0 -31.333 7 -54 21 -68s30.667 -21 50 -21c50.667 0 105.5 26 164.5 78s119.833 132.667 182.5 242c-31.333 -7.33301 -63 -11 -95 -11c-34 0 -68.167 5.66699 -102.5 17s-65.333 28.5 -93 51.5s-50.167 52.333 -67.5 88
s-26 78.167 -26 127.5c0 68 12.667 135.333 38 202s58.5 130.334 99.5 191.001s87.167 116.834 138.5 168.501s102.833 96.5 154.5 134.5s101.167 67.667 148.5 89s87.666 32 120.999 32c32.667 0 60 -17.167 82 -51.5s33 -86.833 33 -157.5
c0 -72.667 -15.333 -164 -46 -274s-80.334 -241.333 -149.001 -394c-4.66699 -9.33301 -9 -19 -13 -29c21.333 20.667 42.5 42.667 63.5 66l65.5 73zM417.002 387.998c25.333 0 51 3.66602 77 10.999c16.667 32 33.334 66 50.001 102l51 115c30 72 58 142.5 84 211.5
s48.667 133.833 68 194.5s34.5 116 45.5 166s16.5 91.667 16.5 125c0 26.667 -4 47.334 -12 62.001s-20.667 22 -38 22c-19.333 0 -46.333 -11 -81 -33s-72.334 -51.833 -113.001 -89.5s-82.167 -81.834 -124.5 -132.501s-80.666 -104.667 -114.999 -162
s-62.333 -116.666 -84 -177.999s-32.5 -121.333 -32.5 -180c0 -38 5.66699 -71.5 17 -100.5s26.5 -53.5 45.5 -73.5s41.167 -35 66.5 -45s51.666 -15 78.999 -15zM693.002 1534h-49l144 194h145z" />
    <glyph glyph-name="Icircumflex" unicode="&#xce;" horiz-adv-x="914" 
d="M847 635c-36 -40.667 -71.165 -78.502 -105.498 -113.502s-69.5 -65.833 -105.5 -92.5c-27.333 -52 -58.166 -104.5 -92.499 -157.5s-72.5 -101 -114.5 -144s-87.667 -78 -137 -105s-102.333 -40.5 -159 -40.5c-53.333 0 -95.333 14 -126 42s-46.334 64.333 -47.001 109
l98 62c-8.66699 -32 -13 -59.333 -13 -82c0 -31.333 7 -54 21 -68s30.667 -21 50 -21c50.667 0 105.5 26 164.5 78s119.833 132.667 182.5 242c-31.333 -7.33301 -63 -11 -95 -11c-34 0 -68.167 5.66699 -102.5 17s-65.333 28.5 -93 51.5s-50.167 52.333 -67.5 88
s-26 78.167 -26 127.5c0 68 12.667 135.333 38 202s58.5 130.334 99.5 191.001s87.167 116.834 138.5 168.501s102.833 96.5 154.5 134.5s101.167 67.667 148.5 89s87.666 32 120.999 32c32.667 0 60 -17.167 82 -51.5s33 -86.833 33 -157.5
c0 -72.667 -15.333 -164 -46 -274s-80.334 -241.333 -149.001 -394c-4.66699 -9.33301 -9 -19 -13 -29c21.333 20.667 42.5 42.667 63.5 66l65.5 73zM417.002 387.998c25.333 0 51 3.66602 77 10.999c16.667 32 33.334 66 50.001 102l51 115c30 72 58 142.5 84 211.5
s48.667 133.833 68 194.5s34.5 116 45.5 166s16.5 91.667 16.5 125c0 26.667 -4 47.334 -12 62.001s-20.667 22 -38 22c-19.333 0 -46.333 -11 -81 -33s-72.334 -51.833 -113.001 -89.5s-82.167 -81.834 -124.5 -132.501s-80.666 -104.667 -114.999 -162
s-62.333 -116.666 -84 -177.999s-32.5 -121.333 -32.5 -180c0 -38 5.66699 -71.5 17 -100.5s26.5 -53.5 45.5 -73.5s41.167 -35 66.5 -45s51.666 -15 78.999 -15zM825.002 1534l-34 132l-145 -132h-75l205 192h91l59 -192h-101z" />
    <glyph glyph-name="Idieresis" unicode="&#xcf;" horiz-adv-x="914" 
d="M847 635c-36 -40.667 -71.165 -78.502 -105.498 -113.502s-69.5 -65.833 -105.5 -92.5c-27.333 -52 -58.166 -104.5 -92.499 -157.5s-72.5 -101 -114.5 -144s-87.667 -78 -137 -105s-102.333 -40.5 -159 -40.5c-53.333 0 -95.333 14 -126 42s-46.334 64.333 -47.001 109
l98 62c-8.66699 -32 -13 -59.333 -13 -82c0 -31.333 7 -54 21 -68s30.667 -21 50 -21c50.667 0 105.5 26 164.5 78s119.833 132.667 182.5 242c-31.333 -7.33301 -63 -11 -95 -11c-34 0 -68.167 5.66699 -102.5 17s-65.333 28.5 -93 51.5s-50.167 52.333 -67.5 88
s-26 78.167 -26 127.5c0 68 12.667 135.333 38 202s58.5 130.334 99.5 191.001s87.167 116.834 138.5 168.501s102.833 96.5 154.5 134.5s101.167 67.667 148.5 89s87.666 32 120.999 32c32.667 0 60 -17.167 82 -51.5s33 -86.833 33 -157.5
c0 -72.667 -15.333 -164 -46 -274s-80.334 -241.333 -149.001 -394c-4.66699 -9.33301 -9 -19 -13 -29c21.333 20.667 42.5 42.667 63.5 66l65.5 73zM417.002 387.998c25.333 0 51 3.66602 77 10.999c16.667 32 33.334 66 50.001 102l51 115c30 72 58 142.5 84 211.5
s48.667 133.833 68 194.5s34.5 116 45.5 166s16.5 91.667 16.5 125c0 26.667 -4 47.334 -12 62.001s-20.667 22 -38 22c-19.333 0 -46.333 -11 -81 -33s-72.334 -51.833 -113.001 -89.5s-82.167 -81.834 -124.5 -132.501s-80.666 -104.667 -114.999 -162
s-62.333 -116.666 -84 -177.999s-32.5 -121.333 -32.5 -180c0 -38 5.66699 -71.5 17 -100.5s26.5 -53.5 45.5 -73.5s41.167 -35 66.5 -45s51.666 -15 78.999 -15zM948.002 1629c0 -19.333 -7.16699 -36.166 -21.5 -50.499s-31.166 -21.5 -50.499 -21.5
c-20.667 0 -38 7.16699 -52 21.5s-21 31.166 -21 50.499c0 20.667 7 38.167 21 52.5s31.333 21.5 52 21.5c19.333 0 36.166 -7.16699 50.499 -21.5s21.5 -31.833 21.5 -52.5zM735.002 1629c0 -19.333 -7.16699 -36.166 -21.5 -50.499s-31.833 -21.5 -52.5 -21.5
c-19.333 0 -36 7.16699 -50 21.5s-21 31.166 -21 50.499c0 20.667 7 38.167 21 52.5s30.667 21.5 50 21.5c20.667 0 38.167 -7.16699 52.5 -21.5s21.5 -31.833 21.5 -52.5z" />
    <glyph glyph-name="Eth" unicode="&#xd0;" horiz-adv-x="1410" 
d="M575 -18c-34.667 0 -66.6729 4.16602 -96.0059 12.499s-56.666 19.333 -81.999 33s-49 29.334 -71 47.001s-42.667 35.5 -62 53.5c-39.333 -49.333 -80.166 -85.5 -122.499 -108.5s-88.166 -34.5 -137.499 -34.5c-18 0 -36.167 2.83301 -54.5 8.5s-35 14.334 -50 26.001
s-27.167 26.667 -36.5 45s-14 40.166 -14 65.499c0 26 5.5 51 16.5 75s26.333 45.167 46 63.5s43 32.833 70 43.5s56.5 16 88.5 16c28 0 54.5 -6.66699 79.5 -20s49.833 -30.333 74.5 -51c18 36.667 37.167 78.334 57.5 125.001l66.5 157h-195l28 62h192l118 282h-118
c-33.333 0 -66.333 3.5 -99 10.5s-61.667 18 -87 33s-45.833 33.833 -61.5 56.5s-23.5 50 -23.5 82c0 45.333 15 90.166 45 134.499s72.5 83.833 127.5 118.5s121.667 62.667 200 84s165.833 32 262.5 32c72.667 0 143.334 -13 212.001 -39s129.834 -64 183.501 -114
s96.667 -111.167 129 -183.5s48.5 -154.833 48.5 -247.5c0 -64.667 -8.66699 -131 -26 -199s-41.666 -134 -72.999 -198s-69.333 -124.667 -114 -182s-94.167 -107.333 -148.5 -150s-113 -76.5 -176 -101.5s-128.833 -37.5 -197.5 -37.5zM475.994 538.999l-49.998 -119
c-40 -95.333 -80.333 -173.666 -121 -234.999l59 -52.5c20 -17 41 -32.167 63 -45.5s45 -24 69 -32s49.333 -12 76 -12c57.333 0 111.833 12.167 163.5 36.5s99.667 57.5 144 99.5s84.5 90.833 120.5 146.5s66.5 114.667 91.5 177s44.333 126.5 58 192.5s20.5 130 20.5 192
c0 70.667 -8.83301 137 -26.5 199s-44.834 116 -81.501 162s-83.167 82.333 -139.5 109s-123.5 40 -201.5 40c-76.667 0 -146.334 -8.83301 -209.001 -26.5s-116.167 -40.5 -160.5 -68.5s-78.5 -59.667 -102.5 -95s-36 -71 -36 -107c0 -18.667 3 -35.834 9 -51.501
s16.5 -29 31.5 -40s34.833 -19.667 59.5 -26s56 -9.5 94 -9.5h122l147 350h128l-147 -350h322l-37 -90h-322l-118 -282h225l-28 -62h-223zM-4.00391 34.999c20 0 38.499 3.16797 55.499 9.50098s33.333 16.166 49 29.499s31 30 46 50s30.167 44 45.5 72
c-23.333 21.333 -46.166 39.333 -68.499 54s-45.833 22 -70.5 22c-25.333 0 -47.5 -4.33301 -66.5 -13s-35.167 -19.834 -48.5 -33.501s-23.333 -28.667 -30 -45s-10 -32.166 -10 -47.499c0 -30 8.66699 -53.833 26 -71.5s41.333 -26.5 72 -26.5z" />
    <glyph glyph-name="Ntilde" unicode="&#xd1;" horiz-adv-x="1310" 
d="M1092 954l45.4971 106.497c15.667 35.667 29.834 69.834 42.501 102.501s23 61.5 31 86.5s12 46.5 12 64.5c0 13.333 -3.16699 23.666 -9.5 30.999s-14.833 11 -25.5 11c-53.333 0 -114.333 -24.333 -183 -73c-29.333 -20.667 -61.666 -47.5 -96.999 -80.5
s-72.833 -72.667 -112.5 -119s-81.334 -100.666 -125.001 -162.999s-88.834 -134.5 -135.501 -216.5l-300 -704h-125l466 1098l43.5 105c14.333 35.333 27 69 38 101s20 61.5 27 88.5s10.5 49.833 10.5 68.5c0 30.667 -10.667 46 -32 46
c-45.333 -4.66699 -98 -25.334 -158 -62.001c-25.333 -15.333 -53.666 -35.166 -84.999 -59.499s-65.333 -54 -102 -89s-75.667 -76.333 -117 -124s-85 -102.5 -131 -164.5l-20 122c64.667 66.667 128 125.667 190 177s120.5 94.333 175.5 129s105.167 61 150.5 79
s83.666 27 114.999 27c39.333 0 67.166 -11.833 83.499 -35.5s24.5 -54.167 24.5 -91.5c0 -22.667 -2.33301 -47 -7 -73s-11 -52.667 -19 -80s-17.167 -55 -27.5 -83s-21.166 -55 -32.499 -81l-79 -184c66 96 127 175.167 183 237.5s107.667 111.666 155 147.999
s90.666 61.666 129.999 75.999s75.666 21.5 108.999 21.5c36 0 63 -11.5 81 -34.5s27 -53.5 27 -91.5c0 -22 -2.33301 -46 -7 -72s-11 -52.667 -19 -80s-17.167 -55.166 -27.5 -83.499s-20.833 -55.5 -31.5 -81.5l-281 -663c-43.333 -102 -77.666 -186 -102.999 -252
s-38 -115 -38 -147c0 -13.333 2.83301 -24.166 8.5 -32.499s14.834 -12.5 27.501 -12.5c4.66699 0 11.334 1.5 20.001 4.5s19.167 8.5 31.5 16.5s26.833 19.333 43.5 34s35 33.667 55 57l31 -27c-25.333 -29.333 -48.166 -52.666 -68.499 -69.999s-38.833 -30.5 -55.5 -39.5
s-31.667 -14.833 -45 -17.5s-25.666 -4 -36.999 -4c-22 0 -40.5 3.5 -55.5 10.5s-27 16.333 -36 28s-15.5 25 -19.5 40s-6 30.5 -6 46.5c0 26 3.5 53.833 10.5 83.5s16 60.334 27 92.001s23.333 63.667 37 96l40.5 93.5zM1299 1722c-26 -58.667 -51 -101.167 -75 -127.5
s-51.667 -39.5 -83 -39.5c-16 0 -30.167 4.33301 -42.5 13s-23.833 18.167 -34.5 28.5l-30.5 28.5c-9.66699 8.66699 -20.5 13 -32.5 13c-7.33301 0 -14.166 -1.16699 -20.499 -3.5s-12.833 -6.66602 -19.5 -12.999s-13.5 -14.833 -20.5 -25.5
s-14.833 -24.334 -23.5 -41.001h-53c25.333 60 49.5 102.833 72.5 128.5s48.5 38.5 76.5 38.5c16 0 29.667 -4.33301 41 -13s22.166 -18.167 32.499 -28.5s20.833 -19.833 31.5 -28.5s22.667 -13 36 -13c6.66699 0 13.5 1 20.5 3s14.333 6 22 12s15.5 14.333 23.5 25
s16.667 25 26 43h53v0z" />
    <glyph glyph-name="Ograve" unicode="&#xd2;" horiz-adv-x="1162" 
d="M1039 1131c0 14.667 -0.669922 31.668 -2.00293 51.001s-3.66602 39 -6.99902 59s-8.33301 39.5 -15 58.5s-15.334 36 -26.001 51s-23.667 27.167 -39 36.5s-33.666 14 -54.999 14c-30 0 -59.833 -9.16699 -89.5 -27.5s-58.167 -43.166 -85.5 -74.499
s-52.833 -68 -76.5 -110s-44.167 -86.667 -61.5 -134s-31 -96.166 -41 -146.499s-15 -99.166 -15 -146.499c0 -71.333 10.167 -124.666 30.5 -159.999s54.5 -53 102.5 -53c16.667 0 31.5 2 44.5 6s24 8.66699 33 14s16.167 10.666 21.5 15.999
s8.66602 9.66602 9.99902 12.999l10 -27c-13.333 -20 -27.666 -35.833 -42.999 -47.5s-30.666 -20.667 -45.999 -27s-29.666 -10.5 -42.999 -12.5s-24.666 -3 -33.999 -3c-58.667 0 -104.334 23.833 -137.001 71.5s-49 115.167 -49 202.5c0 48 7 98.167 21 150.5
s33.167 103.666 57.5 153.999s52.5 98.333 84.5 144s65.833 85.667 101.5 120s72.167 61.666 109.5 81.999s73.666 30.5 108.999 30.5c24 0 49.833 -6 77.5 -18s53.5 -32.5 77.5 -61.5s43.833 -67.833 59.5 -116.5s23.5 -109.667 23.5 -183
c0 -93.333 -12.667 -184.833 -38 -274.5s-59.333 -174.667 -102 -255s-92 -154.5 -148 -222.5s-114.833 -126.5 -176.5 -175.5s-124 -87.333 -187 -115s-122.833 -41.5 -179.5 -41.5c-46 0 -87.667 9.5 -125 28.5s-69 45.5 -95 79.5s-46 74.5 -60 121.5
s-21 98.833 -21 155.5c0 52.667 4.83301 108.834 14.5 168.501s25.834 121.834 48.501 186.501c20.667 58.667 43.5 112.834 68.5 162.501s50.833 95 77.5 136s53.834 77.833 81.501 110.5s54.167 61.667 79.5 87c60 59.333 121.333 107 184 143l18 -23
c-40.667 -34.667 -81.667 -80.334 -123 -137.001c-18 -24 -36.833 -51.833 -56.5 -83.5s-39.834 -67 -60.501 -106s-41.334 -82.333 -62.001 -130s-40.667 -99.5 -60 -155.5c-25.333 -72.667 -44.333 -141.834 -57 -207.501s-19 -126.167 -19 -181.5
c0 -44 4.16699 -84.167 12.5 -120.5s20.5 -67.333 36.5 -93s35.333 -45.667 58 -60s48.334 -21.5 77.001 -21.5c43.333 0 90.833 16 142.5 48s103.667 75.5 156 130.5s103 118.833 152 191.5s92.5 149.667 130.5 231s68.333 164.666 91 249.999s34 167.666 34 246.999z
M895.997 1537l-90 194h125l-2 -194h-33z" />
    <glyph glyph-name="Oacute" unicode="&#xd3;" horiz-adv-x="1162" 
d="M1039 1131c0 14.667 -0.669922 31.668 -2.00293 51.001s-3.66602 39 -6.99902 59s-8.33301 39.5 -15 58.5s-15.334 36 -26.001 51s-23.667 27.167 -39 36.5s-33.666 14 -54.999 14c-30 0 -59.833 -9.16699 -89.5 -27.5s-58.167 -43.166 -85.5 -74.499
s-52.833 -68 -76.5 -110s-44.167 -86.667 -61.5 -134s-31 -96.166 -41 -146.499s-15 -99.166 -15 -146.499c0 -71.333 10.167 -124.666 30.5 -159.999s54.5 -53 102.5 -53c16.667 0 31.5 2 44.5 6s24 8.66699 33 14s16.167 10.666 21.5 15.999
s8.66602 9.66602 9.99902 12.999l10 -27c-13.333 -20 -27.666 -35.833 -42.999 -47.5s-30.666 -20.667 -45.999 -27s-29.666 -10.5 -42.999 -12.5s-24.666 -3 -33.999 -3c-58.667 0 -104.334 23.833 -137.001 71.5s-49 115.167 -49 202.5c0 48 7 98.167 21 150.5
s33.167 103.666 57.5 153.999s52.5 98.333 84.5 144s65.833 85.667 101.5 120s72.167 61.666 109.5 81.999s73.666 30.5 108.999 30.5c24 0 49.833 -6 77.5 -18s53.5 -32.5 77.5 -61.5s43.833 -67.833 59.5 -116.5s23.5 -109.667 23.5 -183
c0 -93.333 -12.667 -184.833 -38 -274.5s-59.333 -174.667 -102 -255s-92 -154.5 -148 -222.5s-114.833 -126.5 -176.5 -175.5s-124 -87.333 -187 -115s-122.833 -41.5 -179.5 -41.5c-46 0 -87.667 9.5 -125 28.5s-69 45.5 -95 79.5s-46 74.5 -60 121.5
s-21 98.833 -21 155.5c0 52.667 4.83301 108.834 14.5 168.501s25.834 121.834 48.501 186.501c20.667 58.667 43.5 112.834 68.5 162.501s50.833 95 77.5 136s53.834 77.833 81.501 110.5s54.167 61.667 79.5 87c60 59.333 121.333 107 184 143l18 -23
c-40.667 -34.667 -81.667 -80.334 -123 -137.001c-18 -24 -36.833 -51.833 -56.5 -83.5s-39.834 -67 -60.501 -106s-41.334 -82.333 -62.001 -130s-40.667 -99.5 -60 -155.5c-25.333 -72.667 -44.333 -141.834 -57 -207.501s-19 -126.167 -19 -181.5
c0 -44 4.16699 -84.167 12.5 -120.5s20.5 -67.333 36.5 -93s35.333 -45.667 58 -60s48.334 -21.5 77.001 -21.5c43.333 0 90.833 16 142.5 48s103.667 75.5 156 130.5s103 118.833 152 191.5s92.5 149.667 130.5 231s68.333 164.666 91 249.999s34 167.666 34 246.999z
M812.997 1537h-49l144 194h145z" />
    <glyph glyph-name="Ocircumflex" unicode="&#xd4;" horiz-adv-x="1162" 
d="M1039 1131c0 14.667 -0.669922 31.668 -2.00293 51.001s-3.66602 39 -6.99902 59s-8.33301 39.5 -15 58.5s-15.334 36 -26.001 51s-23.667 27.167 -39 36.5s-33.666 14 -54.999 14c-30 0 -59.833 -9.16699 -89.5 -27.5s-58.167 -43.166 -85.5 -74.499
s-52.833 -68 -76.5 -110s-44.167 -86.667 -61.5 -134s-31 -96.166 -41 -146.499s-15 -99.166 -15 -146.499c0 -71.333 10.167 -124.666 30.5 -159.999s54.5 -53 102.5 -53c16.667 0 31.5 2 44.5 6s24 8.66699 33 14s16.167 10.666 21.5 15.999
s8.66602 9.66602 9.99902 12.999l10 -27c-13.333 -20 -27.666 -35.833 -42.999 -47.5s-30.666 -20.667 -45.999 -27s-29.666 -10.5 -42.999 -12.5s-24.666 -3 -33.999 -3c-58.667 0 -104.334 23.833 -137.001 71.5s-49 115.167 -49 202.5c0 48 7 98.167 21 150.5
s33.167 103.666 57.5 153.999s52.5 98.333 84.5 144s65.833 85.667 101.5 120s72.167 61.666 109.5 81.999s73.666 30.5 108.999 30.5c24 0 49.833 -6 77.5 -18s53.5 -32.5 77.5 -61.5s43.833 -67.833 59.5 -116.5s23.5 -109.667 23.5 -183
c0 -93.333 -12.667 -184.833 -38 -274.5s-59.333 -174.667 -102 -255s-92 -154.5 -148 -222.5s-114.833 -126.5 -176.5 -175.5s-124 -87.333 -187 -115s-122.833 -41.5 -179.5 -41.5c-46 0 -87.667 9.5 -125 28.5s-69 45.5 -95 79.5s-46 74.5 -60 121.5
s-21 98.833 -21 155.5c0 52.667 4.83301 108.834 14.5 168.501s25.834 121.834 48.501 186.501c20.667 58.667 43.5 112.834 68.5 162.501s50.833 95 77.5 136s53.834 77.833 81.501 110.5s54.167 61.667 79.5 87c60 59.333 121.333 107 184 143l18 -23
c-40.667 -34.667 -81.667 -80.334 -123 -137.001c-18 -24 -36.833 -51.833 -56.5 -83.5s-39.834 -67 -60.501 -106s-41.334 -82.333 -62.001 -130s-40.667 -99.5 -60 -155.5c-25.333 -72.667 -44.333 -141.834 -57 -207.501s-19 -126.167 -19 -181.5
c0 -44 4.16699 -84.167 12.5 -120.5s20.5 -67.333 36.5 -93s35.333 -45.667 58 -60s48.334 -21.5 77.001 -21.5c43.333 0 90.833 16 142.5 48s103.667 75.5 156 130.5s103 118.833 152 191.5s92.5 149.667 130.5 231s68.333 164.666 91 249.999s34 167.666 34 246.999z
M944.997 1537l-34 132l-145 -132h-75l205 192h91l59 -192h-101z" />
    <glyph glyph-name="Otilde" unicode="&#xd5;" horiz-adv-x="1162" 
d="M1039 1131c0 14.667 -0.669922 31.668 -2.00293 51.001s-3.66602 39 -6.99902 59s-8.33301 39.5 -15 58.5s-15.334 36 -26.001 51s-23.667 27.167 -39 36.5s-33.666 14 -54.999 14c-30 0 -59.833 -9.16699 -89.5 -27.5s-58.167 -43.166 -85.5 -74.499
s-52.833 -68 -76.5 -110s-44.167 -86.667 -61.5 -134s-31 -96.166 -41 -146.499s-15 -99.166 -15 -146.499c0 -71.333 10.167 -124.666 30.5 -159.999s54.5 -53 102.5 -53c16.667 0 31.5 2 44.5 6s24 8.66699 33 14s16.167 10.666 21.5 15.999
s8.66602 9.66602 9.99902 12.999l10 -27c-13.333 -20 -27.666 -35.833 -42.999 -47.5s-30.666 -20.667 -45.999 -27s-29.666 -10.5 -42.999 -12.5s-24.666 -3 -33.999 -3c-58.667 0 -104.334 23.833 -137.001 71.5s-49 115.167 -49 202.5c0 48 7 98.167 21 150.5
s33.167 103.666 57.5 153.999s52.5 98.333 84.5 144s65.833 85.667 101.5 120s72.167 61.666 109.5 81.999s73.666 30.5 108.999 30.5c24 0 49.833 -6 77.5 -18s53.5 -32.5 77.5 -61.5s43.833 -67.833 59.5 -116.5s23.5 -109.667 23.5 -183
c0 -93.333 -12.667 -184.833 -38 -274.5s-59.333 -174.667 -102 -255s-92 -154.5 -148 -222.5s-114.833 -126.5 -176.5 -175.5s-124 -87.333 -187 -115s-122.833 -41.5 -179.5 -41.5c-46 0 -87.667 9.5 -125 28.5s-69 45.5 -95 79.5s-46 74.5 -60 121.5
s-21 98.833 -21 155.5c0 52.667 4.83301 108.834 14.5 168.501s25.834 121.834 48.501 186.501c20.667 58.667 43.5 112.834 68.5 162.501s50.833 95 77.5 136s53.834 77.833 81.501 110.5s54.167 61.667 79.5 87c60 59.333 121.333 107 184 143l18 -23
c-40.667 -34.667 -81.667 -80.334 -123 -137.001c-18 -24 -36.833 -51.833 -56.5 -83.5s-39.834 -67 -60.501 -106s-41.334 -82.333 -62.001 -130s-40.667 -99.5 -60 -155.5c-25.333 -72.667 -44.333 -141.834 -57 -207.501s-19 -126.167 -19 -181.5
c0 -44 4.16699 -84.167 12.5 -120.5s20.5 -67.333 36.5 -93s35.333 -45.667 58 -60s48.334 -21.5 77.001 -21.5c43.333 0 90.833 16 142.5 48s103.667 75.5 156 130.5s103 118.833 152 191.5s92.5 149.667 130.5 231s68.333 164.666 91 249.999s34 167.666 34 246.999z
M1116 1720c-26 -58.667 -51 -101.167 -75 -127.5s-51.667 -39.5 -83 -39.5c-16 0 -30.167 4.33301 -42.5 13s-23.833 18.167 -34.5 28.5l-30.5 28.5c-9.66699 8.66699 -20.5 13 -32.5 13c-7.33301 0 -14.166 -1.16699 -20.499 -3.5s-12.833 -6.66602 -19.5 -12.999
s-13.5 -14.833 -20.5 -25.5s-14.833 -24.334 -23.5 -41.001h-53c25.333 60 49.5 102.833 72.5 128.5s48.5 38.5 76.5 38.5c16 0 29.667 -4.33301 41 -13s22.166 -18.167 32.499 -28.5s20.833 -19.833 31.5 -28.5s22.667 -13 36 -13c6.66699 0 13.5 1 20.5 3s14.333 6 22 12
s15.5 14.333 23.5 25s16.667 25 26 43h53v0z" />
    <glyph glyph-name="Odieresis" unicode="&#xd6;" horiz-adv-x="1162" 
d="M1039 1131c0 14.667 -0.669922 31.668 -2.00293 51.001s-3.66602 39 -6.99902 59s-8.33301 39.5 -15 58.5s-15.334 36 -26.001 51s-23.667 27.167 -39 36.5s-33.666 14 -54.999 14c-30 0 -59.833 -9.16699 -89.5 -27.5s-58.167 -43.166 -85.5 -74.499
s-52.833 -68 -76.5 -110s-44.167 -86.667 -61.5 -134s-31 -96.166 -41 -146.499s-15 -99.166 -15 -146.499c0 -71.333 10.167 -124.666 30.5 -159.999s54.5 -53 102.5 -53c16.667 0 31.5 2 44.5 6s24 8.66699 33 14s16.167 10.666 21.5 15.999
s8.66602 9.66602 9.99902 12.999l10 -27c-13.333 -20 -27.666 -35.833 -42.999 -47.5s-30.666 -20.667 -45.999 -27s-29.666 -10.5 -42.999 -12.5s-24.666 -3 -33.999 -3c-58.667 0 -104.334 23.833 -137.001 71.5s-49 115.167 -49 202.5c0 48 7 98.167 21 150.5
s33.167 103.666 57.5 153.999s52.5 98.333 84.5 144s65.833 85.667 101.5 120s72.167 61.666 109.5 81.999s73.666 30.5 108.999 30.5c24 0 49.833 -6 77.5 -18s53.5 -32.5 77.5 -61.5s43.833 -67.833 59.5 -116.5s23.5 -109.667 23.5 -183
c0 -93.333 -12.667 -184.833 -38 -274.5s-59.333 -174.667 -102 -255s-92 -154.5 -148 -222.5s-114.833 -126.5 -176.5 -175.5s-124 -87.333 -187 -115s-122.833 -41.5 -179.5 -41.5c-46 0 -87.667 9.5 -125 28.5s-69 45.5 -95 79.5s-46 74.5 -60 121.5
s-21 98.833 -21 155.5c0 52.667 4.83301 108.834 14.5 168.501s25.834 121.834 48.501 186.501c20.667 58.667 43.5 112.834 68.5 162.501s50.833 95 77.5 136s53.834 77.833 81.501 110.5s54.167 61.667 79.5 87c60 59.333 121.333 107 184 143l18 -23
c-40.667 -34.667 -81.667 -80.334 -123 -137.001c-18 -24 -36.833 -51.833 -56.5 -83.5s-39.834 -67 -60.501 -106s-41.334 -82.333 -62.001 -130s-40.667 -99.5 -60 -155.5c-25.333 -72.667 -44.333 -141.834 -57 -207.501s-19 -126.167 -19 -181.5
c0 -44 4.16699 -84.167 12.5 -120.5s20.5 -67.333 36.5 -93s35.333 -45.667 58 -60s48.334 -21.5 77.001 -21.5c43.333 0 90.833 16 142.5 48s103.667 75.5 156 130.5s103 118.833 152 191.5s92.5 149.667 130.5 231s68.333 164.666 91 249.999s34 167.666 34 246.999z
M1068 1632c0 -19.333 -7.16699 -36.166 -21.5 -50.499s-31.166 -21.5 -50.499 -21.5c-20.667 0 -38 7.16699 -52 21.5s-21 31.166 -21 50.499c0 20.667 7 38.167 21 52.5s31.333 21.5 52 21.5c19.333 0 36.166 -7.16699 50.499 -21.5s21.5 -31.833 21.5 -52.5zM854.997 1632
c0 -19.333 -7.16699 -36.166 -21.5 -50.499s-31.833 -21.5 -52.5 -21.5c-19.333 0 -36 7.16699 -50 21.5s-21 31.166 -21 50.499c0 20.667 7 38.167 21 52.5s30.667 21.5 50 21.5c20.667 0 38.167 -7.16699 52.5 -21.5s21.5 -31.833 21.5 -52.5z" />
    <glyph glyph-name="multiply" unicode="&#xd7;" 
d="M353 638l247 209l43 -53l-247 -209l171 -208l-64 -54l-170 208l-246 -208l-44 54l246 208l-170 209l63 53z" />
    <glyph glyph-name="Oslash" unicode="&#xd8;" horiz-adv-x="1162" 
d="M1066 1354c23.333 -30 42.666 -68.835 57.999 -116.502s23 -107.834 23 -180.501c0 -93.333 -12.667 -184.833 -38 -274.5s-59.333 -174.667 -102 -255s-92 -154.5 -148 -222.5s-114.833 -126.5 -176.5 -175.5s-124 -87.333 -187 -115s-122.833 -41.5 -179.5 -41.5
c-30 0 -57.833 3.83301 -83.5 11.5s-49.167 18.834 -70.5 33.501l-114 -168l-54 35l119 175c-32 34.667 -56.333 77.334 -73 128.001s-25 107.334 -25 170.001c0 52.667 4.83301 108.834 14.5 168.501s25.834 121.834 48.501 186.501
c20.667 58.667 43.5 112.834 68.5 162.501s50.833 95 77.5 136s53.834 77.833 81.501 110.5s54.167 61.667 79.5 87c60 59.333 121.333 107 184 143l18 -23c-40.667 -34.667 -81.667 -80.334 -123 -137.001c-18 -24 -36.833 -51.833 -56.5 -83.5s-39.834 -67 -60.501 -106
s-41.334 -82.333 -62.001 -130s-40.667 -99.5 -60 -155.5c-25.333 -72.667 -44.333 -141.834 -57 -207.501s-19 -126.167 -19 -181.5c0 -66 9.33301 -123.333 28 -172l285 420c-11.333 22.667 -20.166 48.834 -26.499 78.501s-9.5 63.167 -9.5 100.5c0 48 7 98.167 21 150.5
s33.167 103.666 57.5 153.999s52.5 98.333 84.5 144s65.833 85.667 101.5 120s72.167 61.666 109.5 81.999s73.666 30.5 108.999 30.5c17.333 0 35.333 -3 54 -9s37.334 -15.667 56.001 -29l94 139l53 -36zM1039 1131c0 20.667 -1.33496 44.8359 -4.00195 72.5029
s-8 54.834 -16 81.501l-462 -683c20.667 -35.333 54.667 -53 102 -53c16.667 0 31.5 2 44.5 6s24 8.66699 33 14s16.167 10.666 21.5 15.999s8.66602 9.66602 9.99902 12.999l10 -27c-13.333 -20 -27.666 -35.833 -42.999 -47.5s-30.666 -20.667 -45.999 -27
s-29.666 -10.5 -42.999 -12.5s-24.666 -3 -33.999 -3c-44.667 0 -81.334 13.333 -110.001 40l-289 -428c30.667 -40 70.667 -60 120 -60c43.333 0 90.833 16 142.5 48s103.667 75.5 156 130.5s103 118.833 152 191.5s92.5 149.667 130.5 231s68.333 164.666 91 249.999
s34 167.666 34 246.999zM525.998 762c0 -15.333 0.333008 -30.0029 1 -44.0029s2 -27 4 -39l457 673c-11.333 14.667 -24.333 26.5 -39 35.5s-32.667 13.5 -54 13.5c-30 0 -59.833 -9.16699 -89.5 -27.5s-58.167 -43.166 -85.5 -74.499s-52.833 -68 -76.5 -110
s-44.167 -86.667 -61.5 -134s-31 -96.166 -41 -146.499s-15 -99.166 -15 -146.499z" />
    <glyph glyph-name="Ugrave" unicode="&#xd9;" horiz-adv-x="1398" 
d="M576 989l44.9961 106.499c15.333 35.667 29 69.667 41 102s21.833 62.166 29.5 89.499s11.5 50.333 11.5 69c0 12 -2.5 21.833 -7.5 29.5s-12.5 11.5 -22.5 11.5c-47.333 -7.33301 -101.666 -30 -162.999 -68c-26 -16 -54.833 -36.333 -86.5 -61
s-66 -54.834 -103 -90.501s-76.333 -77.334 -118 -125.001s-85.5 -102.834 -131.5 -165.501l-21 135c64.667 66.667 128.5 125.5 191.5 176.5s122.667 94 179 129s107.666 61.5 153.999 79.5s85.166 27 116.499 27c38 0 65.833 -11.167 83.5 -33.5s26.5 -50.833 26.5 -85.5
c0 -22.667 -2.66699 -47.167 -8 -73.5s-12.166 -53.666 -20.499 -81.999s-18 -57 -29 -86s-22.5 -57.167 -34.5 -84.5l-242 -565c-14 -34 -27.333 -68.167 -40 -102.5s-23.667 -66.833 -33 -97.5s-16.833 -58.667 -22.5 -84s-8.5 -45.666 -8.5 -60.999
c0 -29.333 14.333 -44 43 -44c10.667 0 26.334 2.16699 47.001 6.5s45.834 14.333 75.501 30s63.667 38.834 102 69.501s80.5 72.667 126.5 126s95.333 119.5 148 198.5s108.334 174.5 167.001 286.5l277 645h129l-505 -1188c-12 -29.333 -20.667 -54.5 -26 -75.5
s-8 -38.167 -8 -51.5c0 -17.333 3.5 -29.5 10.5 -36.5s14.833 -10.5 23.5 -10.5c22.667 0 44.167 6.33301 64.5 19s42.5 33 66.5 61s51.333 64.5 82 109.5l112 165.5l27 -17l-113.5 -173c-33 -49.333 -64.167 -90.166 -93.5 -122.499s-58.333 -56.666 -87 -72.999
s-60 -24.5 -94 -24.5c-6 0 -15.333 0.833008 -28 2.5s-25.5 6.33398 -38.5 14.001s-24.333 19.334 -34 35.001s-14.5 37.5 -14.5 65.5c0 21.333 3.66699 47.166 11 77.499s19.666 65.833 36.999 106.5l64 150c-59.333 -88.667 -115.666 -161.834 -168.999 -219.501
s-103.166 -103.5 -149.499 -137.5s-89.333 -57.833 -129 -71.5s-75.5 -20.5 -107.5 -20.5c-43.333 0 -75.5 13 -96.5 39s-31.5 58.333 -31.5 97c0 20.667 2.33301 43.5 7 68.5s11 51 19 78s17 54 27 81s20.333 53.167 31 78.5zM1102 1520l-90 194h125l-2 -194h-33z" />
    <glyph glyph-name="Uacute" unicode="&#xda;" horiz-adv-x="1398" 
d="M576 989l44.9961 106.499c15.333 35.667 29 69.667 41 102s21.833 62.166 29.5 89.499s11.5 50.333 11.5 69c0 12 -2.5 21.833 -7.5 29.5s-12.5 11.5 -22.5 11.5c-47.333 -7.33301 -101.666 -30 -162.999 -68c-26 -16 -54.833 -36.333 -86.5 -61
s-66 -54.834 -103 -90.501s-76.333 -77.334 -118 -125.001s-85.5 -102.834 -131.5 -165.501l-21 135c64.667 66.667 128.5 125.5 191.5 176.5s122.667 94 179 129s107.666 61.5 153.999 79.5s85.166 27 116.499 27c38 0 65.833 -11.167 83.5 -33.5s26.5 -50.833 26.5 -85.5
c0 -22.667 -2.66699 -47.167 -8 -73.5s-12.166 -53.666 -20.499 -81.999s-18 -57 -29 -86s-22.5 -57.167 -34.5 -84.5l-242 -565c-14 -34 -27.333 -68.167 -40 -102.5s-23.667 -66.833 -33 -97.5s-16.833 -58.667 -22.5 -84s-8.5 -45.666 -8.5 -60.999
c0 -29.333 14.333 -44 43 -44c10.667 0 26.334 2.16699 47.001 6.5s45.834 14.333 75.501 30s63.667 38.834 102 69.501s80.5 72.667 126.5 126s95.333 119.5 148 198.5s108.334 174.5 167.001 286.5l277 645h129l-505 -1188c-12 -29.333 -20.667 -54.5 -26 -75.5
s-8 -38.167 -8 -51.5c0 -17.333 3.5 -29.5 10.5 -36.5s14.833 -10.5 23.5 -10.5c22.667 0 44.167 6.33301 64.5 19s42.5 33 66.5 61s51.333 64.5 82 109.5l112 165.5l27 -17l-113.5 -173c-33 -49.333 -64.167 -90.166 -93.5 -122.499s-58.333 -56.666 -87 -72.999
s-60 -24.5 -94 -24.5c-6 0 -15.333 0.833008 -28 2.5s-25.5 6.33398 -38.5 14.001s-24.333 19.334 -34 35.001s-14.5 37.5 -14.5 65.5c0 21.333 3.66699 47.166 11 77.499s19.666 65.833 36.999 106.5l64 150c-59.333 -88.667 -115.666 -161.834 -168.999 -219.501
s-103.166 -103.5 -149.499 -137.5s-89.333 -57.833 -129 -71.5s-75.5 -20.5 -107.5 -20.5c-43.333 0 -75.5 13 -96.5 39s-31.5 58.333 -31.5 97c0 20.667 2.33301 43.5 7 68.5s11 51 19 78s17 54 27 81s20.333 53.167 31 78.5zM1019 1520h-49l144 194h145z" />
    <glyph glyph-name="Ucircumflex" unicode="&#xdb;" horiz-adv-x="1398" 
d="M576 989l44.9961 106.499c15.333 35.667 29 69.667 41 102s21.833 62.166 29.5 89.499s11.5 50.333 11.5 69c0 12 -2.5 21.833 -7.5 29.5s-12.5 11.5 -22.5 11.5c-47.333 -7.33301 -101.666 -30 -162.999 -68c-26 -16 -54.833 -36.333 -86.5 -61
s-66 -54.834 -103 -90.501s-76.333 -77.334 -118 -125.001s-85.5 -102.834 -131.5 -165.501l-21 135c64.667 66.667 128.5 125.5 191.5 176.5s122.667 94 179 129s107.666 61.5 153.999 79.5s85.166 27 116.499 27c38 0 65.833 -11.167 83.5 -33.5s26.5 -50.833 26.5 -85.5
c0 -22.667 -2.66699 -47.167 -8 -73.5s-12.166 -53.666 -20.499 -81.999s-18 -57 -29 -86s-22.5 -57.167 -34.5 -84.5l-242 -565c-14 -34 -27.333 -68.167 -40 -102.5s-23.667 -66.833 -33 -97.5s-16.833 -58.667 -22.5 -84s-8.5 -45.666 -8.5 -60.999
c0 -29.333 14.333 -44 43 -44c10.667 0 26.334 2.16699 47.001 6.5s45.834 14.333 75.501 30s63.667 38.834 102 69.501s80.5 72.667 126.5 126s95.333 119.5 148 198.5s108.334 174.5 167.001 286.5l277 645h129l-505 -1188c-12 -29.333 -20.667 -54.5 -26 -75.5
s-8 -38.167 -8 -51.5c0 -17.333 3.5 -29.5 10.5 -36.5s14.833 -10.5 23.5 -10.5c22.667 0 44.167 6.33301 64.5 19s42.5 33 66.5 61s51.333 64.5 82 109.5l112 165.5l27 -17l-113.5 -173c-33 -49.333 -64.167 -90.166 -93.5 -122.499s-58.333 -56.666 -87 -72.999
s-60 -24.5 -94 -24.5c-6 0 -15.333 0.833008 -28 2.5s-25.5 6.33398 -38.5 14.001s-24.333 19.334 -34 35.001s-14.5 37.5 -14.5 65.5c0 21.333 3.66699 47.166 11 77.499s19.666 65.833 36.999 106.5l64 150c-59.333 -88.667 -115.666 -161.834 -168.999 -219.501
s-103.166 -103.5 -149.499 -137.5s-89.333 -57.833 -129 -71.5s-75.5 -20.5 -107.5 -20.5c-43.333 0 -75.5 13 -96.5 39s-31.5 58.333 -31.5 97c0 20.667 2.33301 43.5 7 68.5s11 51 19 78s17 54 27 81s20.333 53.167 31 78.5zM1151 1520l-34 132l-145 -132h-75l205 192h91
l59 -192h-101z" />
    <glyph glyph-name="Udieresis" unicode="&#xdc;" horiz-adv-x="1398" 
d="M576 989l44.9961 106.499c15.333 35.667 29 69.667 41 102s21.833 62.166 29.5 89.499s11.5 50.333 11.5 69c0 12 -2.5 21.833 -7.5 29.5s-12.5 11.5 -22.5 11.5c-47.333 -7.33301 -101.666 -30 -162.999 -68c-26 -16 -54.833 -36.333 -86.5 -61
s-66 -54.834 -103 -90.501s-76.333 -77.334 -118 -125.001s-85.5 -102.834 -131.5 -165.501l-21 135c64.667 66.667 128.5 125.5 191.5 176.5s122.667 94 179 129s107.666 61.5 153.999 79.5s85.166 27 116.499 27c38 0 65.833 -11.167 83.5 -33.5s26.5 -50.833 26.5 -85.5
c0 -22.667 -2.66699 -47.167 -8 -73.5s-12.166 -53.666 -20.499 -81.999s-18 -57 -29 -86s-22.5 -57.167 -34.5 -84.5l-242 -565c-14 -34 -27.333 -68.167 -40 -102.5s-23.667 -66.833 -33 -97.5s-16.833 -58.667 -22.5 -84s-8.5 -45.666 -8.5 -60.999
c0 -29.333 14.333 -44 43 -44c10.667 0 26.334 2.16699 47.001 6.5s45.834 14.333 75.501 30s63.667 38.834 102 69.501s80.5 72.667 126.5 126s95.333 119.5 148 198.5s108.334 174.5 167.001 286.5l277 645h129l-505 -1188c-12 -29.333 -20.667 -54.5 -26 -75.5
s-8 -38.167 -8 -51.5c0 -17.333 3.5 -29.5 10.5 -36.5s14.833 -10.5 23.5 -10.5c22.667 0 44.167 6.33301 64.5 19s42.5 33 66.5 61s51.333 64.5 82 109.5l112 165.5l27 -17l-113.5 -173c-33 -49.333 -64.167 -90.166 -93.5 -122.499s-58.333 -56.666 -87 -72.999
s-60 -24.5 -94 -24.5c-6 0 -15.333 0.833008 -28 2.5s-25.5 6.33398 -38.5 14.001s-24.333 19.334 -34 35.001s-14.5 37.5 -14.5 65.5c0 21.333 3.66699 47.166 11 77.499s19.666 65.833 36.999 106.5l64 150c-59.333 -88.667 -115.666 -161.834 -168.999 -219.501
s-103.166 -103.5 -149.499 -137.5s-89.333 -57.833 -129 -71.5s-75.5 -20.5 -107.5 -20.5c-43.333 0 -75.5 13 -96.5 39s-31.5 58.333 -31.5 97c0 20.667 2.33301 43.5 7 68.5s11 51 19 78s17 54 27 81s20.333 53.167 31 78.5zM1274 1615
c0 -19.333 -7.16699 -36.166 -21.5 -50.499s-31.166 -21.5 -50.499 -21.5c-20.667 0 -38 7.16699 -52 21.5s-21 31.166 -21 50.499c0 20.667 7 38.167 21 52.5s31.333 21.5 52 21.5c19.333 0 36.166 -7.16699 50.499 -21.5s21.5 -31.833 21.5 -52.5zM1061 1615
c0 -19.333 -7.16699 -36.166 -21.5 -50.499s-31.833 -21.5 -52.5 -21.5c-19.333 0 -36 7.16699 -50 21.5s-21 31.166 -21 50.499c0 20.667 7 38.167 21 52.5s30.667 21.5 50 21.5c20.667 0 38.167 -7.16699 52.5 -21.5s21.5 -31.833 21.5 -52.5z" />
    <glyph glyph-name="Yacute" unicode="&#xdd;" horiz-adv-x="1344" 
d="M576 989l45.0029 106.498c15.333 35.667 29 69.667 41 102s21.833 62.166 29.5 89.499s11.5 50.333 11.5 69c0 12 -2.5 21.833 -7.5 29.5s-12.5 11.5 -22.5 11.5c-47.333 -7.33301 -101.666 -30 -162.999 -68c-26 -16 -54.833 -36.333 -86.5 -61
s-66 -54.834 -103 -90.501s-76.333 -77.334 -118 -125.001s-85.5 -102.834 -131.5 -165.501l-21 135c64.667 66.667 128.5 125.5 191.5 176.5s122.667 94 179 129s107.666 61.5 153.999 79.5s85.166 27 116.499 27c38 0 65.833 -11.167 83.5 -33.5s26.5 -50.833 26.5 -85.5
c0 -22.667 -2.66699 -47.167 -8 -73.5s-12.166 -53.666 -20.499 -81.999s-18 -57 -29 -86s-22.5 -57.167 -34.5 -84.5l-242 -565c-14 -34 -27.333 -68.167 -40 -102.5s-23.667 -66.833 -33 -97.5s-16.833 -58.667 -22.5 -84s-8.5 -45.666 -8.5 -60.999
c0 -29.333 14.333 -44 43 -44c10.667 0 26.167 2.16699 46.5 6.5s45.333 14.166 75 29.499s63.5 38.166 101.5 68.499s79.667 71.833 125 124.5s94.166 117.834 146.499 195.501s107.833 171.834 166.5 282.501l219 513h129l-414 -974l-45 -105.5
c-16 -37.667 -33.333 -76.167 -52 -115.5s-38.834 -79.166 -60.501 -119.499s-45.167 -79.833 -70.5 -118.5h134l-41 -88h-156c-29.333 -37.333 -61 -72.166 -95 -104.499s-70.333 -60.333 -109 -84s-80 -42.167 -124 -55.5s-90.667 -20 -140 -20
c-29.333 0 -54.5 3.33301 -75.5 10s-38.167 16 -51.5 28s-23 26.167 -29 42.5s-9 33.833 -9 52.5c0 7.33301 1.5 18 4.5 32s9.33301 29.167 19 45.5s23.167 32.833 40.5 49.5s40.166 31.834 68.499 45.501s63.333 24.834 105 33.501s91.167 13 148.5 13h179
c34 56 70 121.5 108 196.5s78 162.5 120 262.5l63 148c-59.333 -88 -115.5 -160.833 -168.5 -218.5s-102.667 -103.5 -149 -137.5s-89.333 -57.667 -129 -71s-75.5 -20 -107.5 -20c-43.333 0 -75.5 13 -96.5 39s-31.5 58.333 -31.5 97c0 20.667 2.33301 43.5 7 68.5
s11 51 19 78s17 54 27 81s20.333 53.167 31 78.5zM241.003 -489.002c26.667 0 53.333 3.16797 80 9.50098s54.167 17.666 82.5 33.999s57.333 39 87 68s60.834 66.167 93.501 111.5h-162c-32 0 -65.833 -1.83301 -101.5 -5.5s-68.334 -10.5 -98.001 -20.5
s-54.167 -24.167 -73.5 -42.5s-29 -41.833 -29 -70.5c0 -26 9.33301 -46.5 28 -61.5s49.667 -22.5 93 -22.5zM1039 1473h-49l144 194h145z" />
    </font>
</defs>
</svg>
